# mech2 arm L, segment Pinky2, colour White #F2F2F2
# arm space (origin = shoulder centre, studs); segment pivot [-0.2806713324527627, -8.434452799182695, 0.48]
# bbox centre [-0.1136, -8.6059, 0.48] (Roblox recentres on import: place at armCF * CFrame.new(centre))
o Mech2Arm_L_Pinky2_White
v -0.27189 -8.36338 0.57360
v -0.24001 -8.32670 0.55488
v -0.24001 -8.32670 0.40512
v -0.27189 -8.36338 0.38640
v -0.34274 -8.44489 0.38640
v -0.40796 -8.51991 0.43788
v -0.40796 -8.51991 0.52212
v -0.34274 -8.44489 0.57360
v -0.18881 -8.40499 0.61000
v -0.14453 -8.35405 0.58400
v -0.14453 -8.35405 0.37600
v -0.18881 -8.40499 0.35000
v -0.28722 -8.51820 0.35000
v -0.36759 -8.61065 0.42150
v -0.36759 -8.61065 0.53850
v -0.28722 -8.51820 0.61000
v 0.11091 -8.66991 0.60480
v 0.15342 -8.62100 0.57984
v 0.15342 -8.62100 0.38016
v 0.11091 -8.66991 0.35520
v 0.01644 -8.77858 0.35520
v -0.06177 -8.86855 0.42384
v -0.06177 -8.86855 0.53616
v 0.01644 -8.77858 0.60480
v 0.14967 -8.73202 0.57100
v 0.18066 -8.69636 0.55280
v 0.18066 -8.69636 0.40720
v 0.14967 -8.73202 0.38900
v 0.08078 -8.81126 0.38900
v 0.01665 -8.88504 0.43905
v 0.01665 -8.88504 0.52095
v 0.08078 -8.81126 0.57100
vt -0.06955 2.08955
vt -0.04887 2.09987
vt -0.06153 2.08042
vt -0.03774 2.08719
vt -1.32691 0.13872
vt -1.34937 0.14600
vt -1.32691 0.10128
vt -1.34937 0.09400
vt 0.05918 2.08246
vt 0.04652 2.10192
vt 0.06720 2.09159
vt 0.03538 2.08924
vt 0.07112 2.13022
vt 0.08491 2.11197
vt -0.00082 2.11002
vt -0.01847 2.12732
vt 0.01877 2.13000
vt 0.00685 2.15214
vt -1.31365 -0.10947
vt -1.33610 -0.13462
vt -1.31365 -0.13053
vt -1.33610 -0.10537
vt 0.12105 2.10543
vt 0.15829 2.10276
vt 0.14064 2.08546
vt 0.13298 2.12758
vt -0.08727 2.10992
vt -0.07348 2.12817
vt 0.03675 2.15394
vt 0.02606 2.16611
vt -1.44937 0.09504
vt -1.44937 0.14496
vt -0.03911 2.15598
vt -0.02842 2.16816
vt -0.00480 2.19532
vt 0.01459 2.21796
vt 0.09104 2.15348
vt -1.43611 -0.13404
vt -1.43611 -0.10596
vt -0.09339 2.15144
vt -0.01694 2.21591
vt 0.00244 2.19328
vt -0.19204 2.14039
vt -0.17073 2.14830
vt -0.17905 2.12887
vt -0.18020 2.15670
vt -1.46691 0.13820
vt -1.46691 0.10180
vt 0.04183 2.15358
vt 0.03351 2.17302
vt 0.05482 2.16510
vt 0.04298 2.18142
vt -0.03819 2.18375
vt -0.02096 2.20357
vt 0.06870 1.77911
vt 0.06865 1.81298
vt 0.08825 1.80739
vt 0.05255 1.79075
vt -1.45365 -0.10976
vt -1.45365 -0.13024
vt -0.09890 1.65890
vt -0.07931 1.66449
vt -0.07936 1.63062
vt -0.06321 1.64226
vt 0.03583 2.18171
vt 0.01861 2.20152
vt 0.10947 1.67442
vt 0.13053 1.67442
vt 0.14340 1.64957
vt 0.09660 1.64957
vt 0.14340 1.62257
vt 0.09660 1.62257
vt 0.10128 1.61042
vt 0.13872 1.61042
vt -0.10976 1.67367
vt -0.14275 1.64924
vt -0.13024 1.67367
vt -0.09725 1.64924
vt -0.09725 1.62299
vt -0.14275 1.62299
vt -0.13820 1.61117
vt -0.10180 1.61117
vn -0.2550 0.2961 0.9205
vn 0.1055 0.3064 0.9461
vn -0.1074 0.5244 0.8446
vn 0.1795 0.3189 0.9306
vn 0.2754 0.9613 0.0000
vn 0.6062 0.7953 0.0000
vn 0.5990 0.8008 0.0000
vn -0.1074 0.5244 -0.8446
vn 0.1055 0.3064 -0.9461
vn -0.2550 0.2961 -0.9205
vn 0.1795 0.3189 -0.9306
vn -0.1261 0.0191 -0.9918
vn -0.4503 0.0996 -0.8873
vn -0.0574 0.1129 -0.9919
vn -0.3665 -0.2511 -0.8959
vn -0.5857 -0.0830 -0.8063
vn -0.3766 -0.3393 -0.8620
vn -0.9137 -0.4065 0.0000
vn -0.7409 -0.6716 0.0000
vn -0.6818 -0.7316 0.0000
vn -0.5857 -0.0830 0.8063
vn -0.3665 -0.2511 0.8959
vn -0.4503 0.0996 0.8873
vn -0.3766 -0.3393 0.8620
vn -0.1261 0.0191 0.9918
vn -0.0574 0.1129 0.9919
vn 0.1055 0.1653 0.9806
vn 0.2792 0.2327 0.9316
vn 0.0892 0.0358 0.9954
vn 0.7176 0.6964 0.0000
vn 0.7250 0.6887 0.0000
vn 0.2792 0.2327 -0.9316
vn 0.1055 0.1653 -0.9806
vn 0.0892 0.0358 -0.9954
vn 0.0819 0.1397 -0.9868
vn 0.0759 0.0199 -0.9969
vn -0.1224 -0.0844 -0.9889
vn -0.0831 -0.2161 -0.9728
vn -0.3718 -0.3364 -0.8652
vn -0.2912 -0.4104 -0.8642
vn -0.2009 -0.1902 -0.9610
vn -0.1249 -0.2673 -0.9555
vn -0.5898 -0.8076 0.0000
vn -0.5811 -0.8138 0.0000
vn -0.2912 -0.4104 0.8642
vn -0.3718 -0.3364 0.8652
vn -0.2009 -0.1902 0.9610
vn -0.1249 -0.2673 0.9555
vn -0.1224 -0.0844 0.9889
vn 0.0759 0.0199 0.9969
vn 0.0819 0.1397 0.9868
vn -0.0831 -0.2161 0.9728
vn 0.3435 0.0695 0.9366
vn 0.5748 -0.0843 0.8139
vn 0.3739 -0.2524 0.8925
vn 0.9404 0.3400 0.0000
vn 0.5748 -0.0843 -0.8139
vn 0.3435 0.0695 -0.9366
vn 0.3739 -0.2524 -0.8925
vn 0.0762 -0.0368 -0.9964
vn 0.0868 -0.1946 -0.9770
vn 0.2138 -0.4666 -0.8582
vn -0.1110 -0.4318 -0.8951
vn 0.0565 -0.6177 -0.7844
vn -0.2058 -0.9786 0.0000
vn 0.0565 -0.6177 0.7844
vn -0.1110 -0.4318 0.8951
vn 0.2138 -0.4666 0.8582
vn 0.0868 -0.1946 0.9770
vn 0.0762 -0.0368 0.9964
vn -0.7547 0.6561 0.0000
vn 0.7547 -0.6561 0.0000
s off
f 1/1/1 9/2/2 2/3/3
f 2/3/3 9/2/2 10/4/4
f 2/5/5 10/6/6 3/7/5
f 3/7/5 10/6/6 11/8/7
f 3/9/8 12/10/9 4/11/10
f 3/9/8 11/12/11 12/10/9
f 4/11/10 13/13/12 5/14/13
f 4/11/10 12/10/14 13/13/12
f 5/15/13 13/16/15 6/17/16
f 6/17/16 13/16/15 14/18/17
f 6/19/18 15/20/19 7/21/18
f 6/19/18 14/22/20 15/20/19
f 7/23/21 16/24/22 8/25/23
f 7/23/21 15/26/24 16/24/22
f 8/27/23 16/28/25 1/1/1
f 1/1/1 16/28/25 9/2/26
f 9/2/27 18/29/28 10/4/4
f 9/2/27 17/30/29 18/29/28
f 10/6/6 19/31/30 11/8/7
f 10/6/6 18/32/31 19/31/30
f 11/12/11 19/33/32 12/10/33
f 12/10/33 19/33/32 20/34/34
f 12/10/35 20/34/36 13/13/37
f 13/13/37 20/34/36 21/35/38
f 13/13/39 22/36/40 14/37/17
f 13/13/41 21/35/42 22/36/40
f 14/22/20 23/38/43 15/20/19
f 14/22/20 22/39/44 23/38/43
f 15/40/24 23/41/45 16/28/46
f 16/28/47 23/41/45 24/42/48
f 16/28/49 17/30/50 9/2/51
f 16/28/49 24/42/52 17/30/50
f 17/43/53 26/44/54 18/45/28
f 17/43/53 25/46/55 26/44/54
f 18/32/31 26/47/56 19/31/30
f 19/31/30 26/47/56 27/48/56
f 19/49/32 27/50/57 20/51/58
f 20/51/58 27/50/57 28/52/59
f 20/34/60 28/53/59 21/35/61
f 21/35/61 28/53/59 29/54/62
f 21/55/63 30/56/64 22/57/40
f 21/55/63 29/58/62 30/56/64
f 22/39/44 30/59/65 23/38/43
f 23/38/43 30/59/65 31/60/65
f 23/61/45 31/62/66 24/63/67
f 24/63/67 31/62/66 32/64/68
f 24/42/69 25/65/55 17/30/70
f 24/42/69 32/66/68 25/65/55
f 6/67/71 7/68/71 8/69/71
f 5/70/71 6/67/71 8/69/71
f 5/70/71 8/69/71 1/71/71
f 4/72/71 5/70/71 1/71/71
f 3/73/71 4/72/71 1/71/71
f 1/71/71 2/74/71 3/73/71
f 30/75/72 32/76/72 31/77/72
f 29/78/72 32/76/72 30/75/72
f 28/79/72 32/76/72 29/78/72
f 28/79/72 25/80/72 32/76/72
f 28/79/72 26/81/72 25/80/72
f 26/81/72 28/79/72 27/82/72
