# mech2 arm L, segment Pinky1, colour White #F2F2F2
# arm space (origin = shoulder centre, studs); segment pivot [-0.36, -7.87, 0.48]
# bbox centre [-0.3445, -8.135, 0.48] (Roblox recentres on import: place at armCF * CFrame.new(centre))
o Mech2Arm_L_Pinky1_White
v -0.30675 -7.82212 0.57360
v -0.25862 -7.81536 0.55488
v -0.25862 -7.81536 0.40512
v -0.30675 -7.82212 0.38640
v -0.41369 -7.83715 0.38640
v -0.51213 -7.85099 0.43788
v -0.51213 -7.85099 0.52212
v -0.41369 -7.83715 0.57360
v -0.27134 -7.90803 0.61000
v -0.20450 -7.89864 0.58400
v -0.20450 -7.89864 0.37600
v -0.27134 -7.90803 0.35000
v -0.41988 -7.92891 0.35000
v -0.54119 -7.94596 0.42150
v -0.54119 -7.94596 0.53850
v -0.41988 -7.92891 0.61000
v -0.21198 -8.35411 0.60480
v -0.14781 -8.34509 0.57984
v -0.14781 -8.34509 0.38016
v -0.21198 -8.35411 0.35520
v -0.35458 -8.37415 0.35520
v -0.47262 -8.39074 0.42384
v -0.47262 -8.39074 0.53616
v -0.35458 -8.37415 0.60480
v -0.22348 -8.42642 0.57100
v -0.17669 -8.41984 0.55280
v -0.17669 -8.41984 0.40720
v -0.22348 -8.42642 0.38900
v -0.32746 -8.44103 0.38900
v -0.42426 -8.45463 0.43905
v -0.42426 -8.45463 0.52095
v -0.32746 -8.44103 0.57100
vt -0.07695 1.95376
vt -0.06812 1.97513
vt -0.06491 1.95212
vt -0.05140 1.97286
vt -0.13872 1.92705
vt -0.14600 1.94952
vt -0.10128 1.92705
vt -0.09400 1.94952
vt 0.06453 1.95487
vt 0.06773 1.97788
vt 0.07657 1.95651
vt 0.05101 1.97561
vt 0.10487 1.98310
vt 0.10330 1.96027
vt 0.49473 1.78404
vt 0.49609 1.80871
vt 0.52266 1.78248
vt 0.53145 1.80605
vt 0.10947 1.92434
vt 0.13462 1.94680
vt 0.13053 1.92434
vt 0.10537 1.94680
vt -0.41199 1.87141
vt -0.38543 1.89764
vt -0.38406 1.87296
vt -0.42078 1.89498
vt -0.10369 1.95752
vt -0.10525 1.98035
vt -0.03723 2.08448
vt -0.05328 2.08666
vt -0.09504 2.06202
vt -0.14496 2.06202
vt 0.03684 2.08722
vt 0.05289 2.08941
vt 0.08854 2.09442
vt 0.11802 2.09876
vt 0.13517 1.98756
vt 0.13404 2.05930
vt 0.10596 2.05930
vt -0.13555 1.98482
vt -0.11841 2.09601
vt -0.08893 2.09167
vt -0.47580 1.76461
vt -0.46627 1.78525
vt -0.45847 1.76560
vt -0.47890 1.78453
vt -0.13820 2.07956
vt -0.10180 2.07956
vt 0.37858 1.87987
vt 0.38638 1.89952
vt 0.39591 1.87888
vt 0.39901 1.89880
vt 0.05575 2.10758
vt 0.08175 2.11123
vt -0.30023 1.80997
vt -0.28154 1.83823
vt -0.26831 1.82273
vt -0.30725 1.82861
vt 0.10976 2.07684
vt 0.13024 2.07684
vt 0.34155 1.69312
vt 0.35479 1.70862
vt 0.37348 1.68036
vt 0.38049 1.69900
vt -0.05614 2.10483
vt -0.08213 2.10849
vt 0.39995 0.10947
vt 0.39995 0.13053
vt 0.37510 0.14340
vt 0.37510 0.09660
vt 0.34810 0.09660
vt 0.34810 0.14340
vt 0.33595 0.10128
vt 0.33595 0.13872
vt 0.37476 -0.09725
vt 0.39920 -0.13024
vt 0.39920 -0.10976
vt 0.37476 -0.14275
vt 0.34851 -0.14275
vt 0.34851 -0.09725
vt 0.33670 -0.10180
vt 0.33670 -0.13820
vn 0.0018 0.3908 0.9205
vn 0.2868 0.1531 0.9457
vn 0.2630 0.4663 0.8446
vn 0.3458 0.1162 0.9311
vn 0.8385 0.5449 0.0000
vn 0.9805 0.1966 0.0000
vn 0.9788 0.2047 0.0000
vn 0.2630 0.4663 -0.8446
vn 0.2868 0.1531 -0.9457
vn 0.0018 0.3908 -0.9205
vn 0.3458 0.1162 -0.9311
vn -0.0758 0.0891 -0.9931
vn -0.2745 0.3705 -0.8873
vn 0.0283 0.1130 -0.9932
vn -0.4462 0.0411 -0.8940
vn -0.4964 0.3216 -0.8063
vn -0.5062 -0.0146 -0.8623
vn -0.9562 0.2927 0.0000
vn -0.9995 -0.0305 0.0000
vn -0.9941 -0.1083 0.0000
vn -0.4964 0.3216 0.8063
vn -0.4462 0.0411 0.8940
vn -0.2745 0.3705 0.8873
vn -0.5062 -0.0146 0.8623
vn -0.0758 0.0891 0.9931
vn 0.0283 0.1130 0.9932
vn 0.1869 0.0524 0.9810
vn 0.3627 -0.0016 0.9319
vn 0.0885 -0.0271 0.9957
vn 0.9980 0.0631 0.0000
vn 0.9986 0.0533 0.0000
vn 0.3627 -0.0016 -0.9319
vn 0.1869 0.0524 -0.9810
vn 0.0885 -0.0271 -0.9957
vn 0.1557 0.0490 -0.9866
vn 0.0702 -0.0301 -0.9971
vn -0.1492 0.0127 -0.9887
vn -0.2090 -0.1015 -0.9726
vn -0.5010 -0.0156 -0.8653
vn -0.4899 -0.1136 -0.8644
vn -0.2738 -0.0141 -0.9617
vn -0.2678 -0.1116 -0.9570
vn -0.9767 -0.2144 0.0000
vn -0.9746 -0.2240 0.0000
vn -0.4899 -0.1136 0.8644
vn -0.5010 -0.0156 0.8653
vn -0.2738 -0.0141 0.9617
vn -0.2678 -0.1116 0.9570
vn -0.1492 0.0127 0.9887
vn 0.0702 -0.0301 0.9971
vn 0.1557 0.0490 0.9866
vn -0.2090 -0.1015 0.9726
vn 0.3089 -0.1577 0.9379
vn 0.3785 -0.4407 0.8139
vn 0.1166 -0.4358 0.8925
vn 0.9328 -0.3604 0.0000
vn 0.3785 -0.4407 -0.8139
vn 0.3089 -0.1577 -0.9379
vn 0.1166 -0.4358 -0.8925
vn 0.0301 -0.0702 -0.9971
vn -0.0578 -0.1894 -0.9802
vn -0.1447 -0.4924 -0.8582
vn -0.3767 -0.2404 -0.8946
vn -0.3626 -0.5033 -0.7844
vn -0.7973 -0.6035 0.0000
vn -0.3626 -0.5033 0.7844
vn -0.3767 -0.2404 0.8946
vn -0.1447 -0.4924 0.8582
vn -0.0578 -0.1894 0.9802
vn 0.0301 -0.0702 0.9971
vn -0.1392 0.9903 0.0000
vn 0.1392 -0.9903 0.0000
s off
f 1/1/1 9/2/2 2/3/3
f 2/3/3 9/2/2 10/4/4
f 2/5/5 10/6/6 3/7/5
f 3/7/5 10/6/6 11/8/7
f 3/9/8 12/10/9 4/11/10
f 3/9/8 11/12/11 12/10/9
f 4/11/10 13/13/12 5/14/13
f 4/11/10 12/10/14 13/13/12
f 5/15/13 13/16/15 6/17/16
f 6/17/16 13/16/15 14/18/17
f 6/19/18 15/20/19 7/21/18
f 6/19/18 14/22/20 15/20/19
f 7/23/21 16/24/22 8/25/23
f 7/23/21 15/26/24 16/24/22
f 8/27/23 16/28/25 1/1/1
f 1/1/1 16/28/25 9/2/26
f 9/2/27 18/29/28 10/4/4
f 9/2/27 17/30/29 18/29/28
f 10/6/6 19/31/30 11/8/7
f 10/6/6 18/32/31 19/31/30
f 11/12/11 19/33/32 12/10/33
f 12/10/33 19/33/32 20/34/34
f 12/10/35 20/34/36 13/13/37
f 13/13/37 20/34/36 21/35/38
f 13/13/39 22/36/40 14/37/17
f 13/13/41 21/35/42 22/36/40
f 14/22/20 23/38/43 15/20/19
f 14/22/20 22/39/44 23/38/43
f 15/40/24 23/41/45 16/28/46
f 16/28/47 23/41/45 24/42/48
f 16/28/49 17/30/50 9/2/51
f 16/28/49 24/42/52 17/30/50
f 17/43/53 26/44/54 18/45/28
f 17/43/53 25/46/55 26/44/54
f 18/32/31 26/47/56 19/31/30
f 19/31/30 26/47/56 27/48/56
f 19/49/32 27/50/57 20/51/58
f 20/51/58 27/50/57 28/52/59
f 20/34/60 28/53/59 21/35/61
f 21/35/61 28/53/59 29/54/62
f 21/55/63 30/56/64 22/57/40
f 21/55/63 29/58/62 30/56/64
f 22/39/44 30/59/65 23/38/43
f 23/38/43 30/59/65 31/60/65
f 23/61/45 31/62/66 24/63/67
f 24/63/67 31/62/66 32/64/68
f 24/42/69 25/65/55 17/30/70
f 24/42/69 32/66/68 25/65/55
f 6/67/71 7/68/71 8/69/71
f 5/70/71 6/67/71 8/69/71
f 4/71/71 5/70/71 8/69/71
f 4/71/71 8/69/71 1/72/71
f 3/73/71 4/71/71 1/72/71
f 1/72/71 2/74/71 3/73/71
f 29/75/72 31/76/72 30/77/72
f 29/75/72 32/78/72 31/76/72
f 29/75/72 25/79/72 32/78/72
f 28/80/72 25/79/72 29/75/72
f 27/81/72 25/79/72 28/80/72
f 25/79/72 27/81/72 26/82/72
