# mech2 arm L, segment Lower, colour Grey #8A8A8A
# arm space (origin = shoulder centre, studs); segment pivot [-0.0, -3.13, 0.0]
# bbox centre [-0.4006, -5.125, 0.0] (Roblox recentres on import: place at armCF * CFrame.new(centre))
o Mech2Arm_L_Lower_Grey
v -0.60000 -5.03000 -0.38000
v -0.60000 -5.03000 0.38000
v -0.50000 -5.03000 0.48000
v 0.40000 -5.03000 0.48000
v 0.50000 -5.03000 0.38000
v 0.50000 -5.03000 -0.38000
v 0.40000 -5.03000 -0.48000
v -0.50000 -5.03000 -0.48000
v -0.70000 -5.13000 -0.48000
v -0.70000 -5.13000 0.48000
v -0.60000 -5.13000 0.58000
v 0.50000 -5.13000 0.58000
v 0.60000 -5.13000 0.48000
v 0.60000 -5.13000 -0.48000
v 0.50000 -5.13000 -0.58000
v -0.60000 -5.13000 -0.58000
v -0.65000 -6.67000 -0.42000
v -0.65000 -6.67000 0.42000
v -0.55000 -6.67000 0.52000
v 0.45000 -6.67000 0.52000
v 0.55000 -6.67000 0.42000
v 0.55000 -6.67000 -0.42000
v 0.45000 -6.67000 -0.52000
v -0.55000 -6.67000 -0.52000
v -0.55000 -6.77000 -0.32000
v -0.55000 -6.77000 0.32000
v -0.45000 -6.77000 0.42000
v 0.35000 -6.77000 0.42000
v 0.45000 -6.77000 0.32000
v 0.45000 -6.77000 -0.32000
v 0.35000 -6.77000 -0.42000
v -0.45000 -6.77000 -0.42000
v -0.00000 -3.48000 0.54000
v 0.20665 -3.48000 0.49889
v 0.38184 -3.48000 0.38184
v 0.49889 -3.48000 0.20665
v 0.54000 -3.48000 0.00000
v 0.49889 -3.48000 -0.20665
v 0.38184 -3.48000 -0.38184
v 0.20665 -3.48000 -0.49889
v 0.00000 -3.48000 -0.54000
v -0.20665 -3.48000 -0.49889
v -0.38184 -3.48000 -0.38184
v -0.49889 -3.48000 -0.20665
v -0.54000 -3.48000 -0.00000
v -0.49889 -3.48000 0.20665
v -0.38184 -3.48000 0.38184
v -0.20665 -3.48000 0.49889
v -0.00000 -3.52000 0.58000
v 0.22196 -3.52000 0.53585
v 0.41012 -3.52000 0.41012
v 0.53585 -3.52000 0.22196
v 0.58000 -3.52000 0.00000
v 0.53585 -3.52000 -0.22196
v 0.41012 -3.52000 -0.41012
v 0.22196 -3.52000 -0.53585
v 0.00000 -3.52000 -0.58000
v -0.22196 -3.52000 -0.53585
v -0.41012 -3.52000 -0.41012
v -0.53585 -3.52000 -0.22196
v -0.58000 -3.52000 -0.00000
v -0.53585 -3.52000 0.22196
v -0.41012 -3.52000 0.41012
v -0.22196 -3.52000 0.53585
v -0.00000 -3.71000 0.58000
v 0.22196 -3.71000 0.53585
v 0.41012 -3.71000 0.41012
v 0.53585 -3.71000 0.22196
v 0.58000 -3.71000 0.00000
v 0.53585 -3.71000 -0.22196
v 0.41012 -3.71000 -0.41012
v 0.22196 -3.71000 -0.53585
v 0.00000 -3.71000 -0.58000
v -0.22196 -3.71000 -0.53585
v -0.41012 -3.71000 -0.41012
v -0.53585 -3.71000 -0.22196
v -0.58000 -3.71000 -0.00000
v -0.53585 -3.71000 0.22196
v -0.41012 -3.71000 0.41012
v -0.22196 -3.71000 0.53585
v -0.00000 -3.75000 0.54000
v 0.20665 -3.75000 0.49889
v 0.38184 -3.75000 0.38184
v 0.49889 -3.75000 0.20665
v 0.54000 -3.75000 0.00000
v 0.49889 -3.75000 -0.20665
v 0.38184 -3.75000 -0.38184
v 0.20665 -3.75000 -0.49889
v 0.00000 -3.75000 -0.54000
v -0.20665 -3.75000 -0.49889
v -0.38184 -3.75000 -0.38184
v -0.49889 -3.75000 -0.20665
v -0.54000 -3.75000 -0.00000
v -0.49889 -3.75000 0.20665
v -0.38184 -3.75000 0.38184
v -0.20665 -3.75000 0.49889
v -1.36114 -4.02000 0.27665
v -1.36114 -4.02000 0.37665
v -1.32114 -4.02000 0.41665
v -0.53000 -4.02000 0.41665
v -0.49000 -4.02000 0.37665
v -0.49000 -4.02000 0.27665
v -0.53000 -4.02000 0.23665
v -1.32114 -4.02000 0.23665
v -1.40114 -4.06000 0.23665
v -1.40114 -4.06000 0.41665
v -1.36114 -4.06000 0.45665
v -0.49000 -4.06000 0.45665
v -0.45000 -4.06000 0.41665
v -0.45000 -4.06000 0.23665
v -0.49000 -4.06000 0.19665
v -1.36114 -4.06000 0.19665
v -1.40114 -4.30000 0.23665
v -1.40114 -4.30000 0.41665
v -1.36114 -4.30000 0.45665
v -0.49000 -4.30000 0.45665
v -0.45000 -4.30000 0.41665
v -0.45000 -4.30000 0.23665
v -0.49000 -4.30000 0.19665
v -1.36114 -4.30000 0.19665
v -1.36114 -4.34000 0.27665
v -1.36114 -4.34000 0.37665
v -1.32114 -4.34000 0.41665
v -0.53000 -4.34000 0.41665
v -0.49000 -4.34000 0.37665
v -0.49000 -4.34000 0.27665
v -0.53000 -4.34000 0.23665
v -1.32114 -4.34000 0.23665
v -1.36114 -6.22000 0.27665
v -1.36114 -6.22000 0.37665
v -1.32114 -6.22000 0.41665
v -0.53000 -6.22000 0.41665
v -0.49000 -6.22000 0.37665
v -0.49000 -6.22000 0.27665
v -0.53000 -6.22000 0.23665
v -1.32114 -6.22000 0.23665
v -1.40114 -6.26000 0.23665
v -1.40114 -6.26000 0.41665
v -1.36114 -6.26000 0.45665
v -0.49000 -6.26000 0.45665
v -0.45000 -6.26000 0.41665
v -0.45000 -6.26000 0.23665
v -0.49000 -6.26000 0.19665
v -1.36114 -6.26000 0.19665
v -1.40114 -6.50000 0.23665
v -1.40114 -6.50000 0.41665
v -1.36114 -6.50000 0.45665
v -0.49000 -6.50000 0.45665
v -0.45000 -6.50000 0.41665
v -0.45000 -6.50000 0.23665
v -0.49000 -6.50000 0.19665
v -1.36114 -6.50000 0.19665
v -1.36114 -6.54000 0.27665
v -1.36114 -6.54000 0.37665
v -1.32114 -6.54000 0.41665
v -0.53000 -6.54000 0.41665
v -0.49000 -6.54000 0.37665
v -0.49000 -6.54000 0.27665
v -0.53000 -6.54000 0.23665
v -1.32114 -6.54000 0.23665
vt 0.99525 -0.09500
vt 1.03061 0.12000
vt 0.99525 0.09500
vt 1.03061 -0.12000
vt 0.57876 0.64734
vt 0.57876 0.70324
vt 0.55137 0.66970
vt 0.60615 0.68088
vt 0.12500 0.97404
vt -0.12500 1.00939
vt -0.10000 0.97404
vt 0.15000 1.00939
vt -0.52855 0.66970
vt -0.58332 0.68088
vt -0.55594 0.64734
vt -0.55594 0.70324
vt -0.97758 0.09500
vt -1.01293 -0.12000
vt -0.97758 -0.09500
vt -1.01293 0.12000
vt -0.55594 -0.64734
vt -0.55594 -0.70324
vt -0.52855 -0.66970
vt -0.58332 -0.68088
vt -0.10000 -0.97404
vt 0.15000 -1.00939
vt 0.12500 -0.97404
vt -0.12500 -1.00939
vt 0.55137 -0.66970
vt 0.60615 -0.68088
vt 0.57876 -0.64734
vt 0.57876 -0.70324
vt -0.12000 1.27615
vt 0.10500 1.66135
vt 0.12000 1.27615
vt -0.10500 1.66135
vt -0.10284 1.26677
vt -0.08872 1.65347
vt -0.06753 1.26855
vt -0.12403 1.65168
vt -0.15000 1.27588
vt 0.11250 1.66117
vt 0.12500 1.27588
vt -0.13750 1.66117
vt 0.04992 1.27033
vt 0.07111 1.65525
vt 0.08523 1.26855
vt 0.10642 1.65347
vt -0.12000 1.27696
vt 0.10500 1.66216
vt 0.12000 1.27696
vt -0.10500 1.66216
vt -0.08523 1.26855
vt -0.07111 1.65525
vt -0.04992 1.27033
vt -0.10642 1.65347
vt -0.12500 1.27588
vt 0.13750 1.66117
vt 0.15000 1.27588
vt -0.11250 1.66117
vt 0.06753 1.26855
vt 0.08872 1.65347
vt 0.10284 1.26677
vt 0.12403 1.65168
vt -1.06420 0.10500
vt -1.09955 -0.08000
vt -1.06420 -0.10500
vt -1.09955 0.08000
vt -0.47971 0.65181
vt -0.53449 0.66299
vt -0.50710 0.62945
vt -0.50710 0.68535
vt 0.13750 1.08718
vt -0.08750 1.12253
vt -0.11250 1.08718
vt 0.11250 1.12253
vt 0.52992 0.62945
vt 0.52992 0.68535
vt 0.50254 0.65181
vt 0.55731 0.66299
vt 1.08187 -0.10500
vt 1.11723 0.08000
vt 1.08187 0.10500
vt 1.11723 -0.08000
vt 0.50254 -0.65181
vt 0.55731 -0.66299
vt 0.52992 -0.62945
vt 0.52992 -0.68535
vt -0.11250 -1.08718
vt 0.11250 -1.12253
vt 0.13750 -1.08718
vt -0.08750 -1.12253
vt -0.50710 -0.62945
vt -0.50710 -0.68535
vt -0.47971 -0.65181
vt -0.53449 -0.66299
vt 0.12500 -0.12000
vt 0.15000 -0.09500
vt 0.15000 0.09500
vt -0.10000 -0.12000
vt 0.12500 0.12000
vt -0.10000 0.12000
vt -0.12500 0.09500
vt -0.12500 -0.09500
vt 0.11250 0.10500
vt 0.13750 -0.08000
vt 0.13750 0.08000
vt -0.08750 0.10500
vt 0.11250 -0.10500
vt -0.08750 -0.10500
vt -0.11250 0.08000
vt -0.11250 -0.08000
vt -0.07300 0.69688
vt -0.12906 0.70301
vt -0.12514 0.68942
vt -0.07305 0.71101
vt -0.17860 0.68021
vt -0.17127 0.66820
vt -0.66050 0.09546
vt -0.67248 0.10253
vt -0.68199 0.05166
vt -0.69556 0.05549
vt -0.70367 -0.00000
vt -0.68954 -0.00000
vt -0.69556 -0.05549
vt -0.68199 -0.05166
vt -0.67248 -0.10253
vt -0.66050 -0.09546
vt -0.32636 -0.63541
vt -0.28282 -0.67124
vt -0.27865 -0.65773
vt -0.33407 -0.64727
vt 0.02278 -0.68942
vt 0.07305 -0.71101
vt 0.07300 -0.69688
vt 0.01911 -0.70301
vt 0.12906 -0.70301
vt 0.12514 -0.68942
vt 0.17860 -0.68021
vt 0.17127 -0.66820
vt 0.63520 0.05132
vt 0.64772 0.04602
vt 0.65290 0.09450
vt 0.66672 0.09240
vt 0.65521 0.14543
vt 0.66921 0.14711
vt 0.64178 0.19637
vt 0.65479 0.20181
vt 0.62567 0.24819
vt 0.61467 0.23955
vt 0.57799 0.26840
vt 0.58627 0.27918
vt -0.02278 0.68942
vt -0.01911 0.70301
vt 0.02829 0.88000
vt 0.08056 0.92750
vt 0.08056 0.88000
vt 0.02829 0.92750
vt -0.02829 0.88000
vt -0.02829 0.92750
vt -0.08056 0.88000
vt -0.08056 0.92750
vt -0.05549 0.88000
vt 0.00000 0.92750
vt 0.00000 0.88000
vt -0.05549 0.92750
vt 0.05549 0.92750
vt 0.05549 0.88000
vt 0.10481 0.53339
vt 0.05272 0.55498
vt 0.04881 0.54139
vt 0.10486 0.54752
vt 0.00659 0.57620
vt -0.00074 0.56419
vt 0.49881 -0.25613
vt 0.49363 -0.20765
vt 0.47981 -0.20975
vt 0.51133 -0.25083
vt 0.49132 -0.15672
vt 0.47733 -0.15505
vt 0.50475 -0.10578
vt 0.49174 -0.10034
vt 0.52087 -0.05396
vt 0.53186 -0.06260
vt 0.56854 -0.03375
vt 0.56026 -0.02297
vt -0.15876 -0.54139
vt -0.15509 -0.55498
vt -0.10481 -0.53339
vt -0.10486 -0.54752
vt -0.05272 -0.55498
vt -0.04881 -0.54139
vt 0.00074 -0.56419
vt -0.00659 -0.57620
vt -0.49881 0.25613
vt -0.49363 0.20765
vt -0.47981 0.20975
vt -0.51133 0.25083
vt -0.49132 0.15672
vt -0.47733 0.15505
vt -0.50475 0.10578
vt -0.49174 0.10034
vt -0.52087 0.05396
vt -0.53186 0.06260
vt -0.56854 0.03375
vt -0.56026 0.02297
vt 0.15876 0.54139
vt 0.15509 0.55498
vt 0.05166 0.12472
vt 0.00000 0.13500
vt -0.05166 0.12472
vt 0.09546 0.09546
vt -0.09546 0.09546
vt -0.12472 0.05166
vt 0.12472 0.05166
vt 0.13500 -0.00000
vt -0.13500 0.00000
vt 0.12472 -0.05166
vt -0.12472 -0.05166
vt -0.09546 -0.09546
vt 0.09546 -0.09546
vt -0.05166 -0.12472
vt 0.05166 -0.12472
vt -0.00000 -0.13500
vt 0.06916 0.95126
vt 0.10416 0.96540
vt 0.09416 0.95126
vt 0.05916 0.96540
vt 0.66042 0.53367
vt 0.66042 0.55603
vt 0.64947 0.54261
vt 0.67137 0.54709
vt -0.33029 0.78430
vt -0.12250 0.79844
vt -0.13250 0.78430
vt -0.34029 0.79844
vt -0.22700 0.54261
vt -0.23796 0.55603
vt -0.23796 0.53367
vt -0.24891 0.54709
vt -0.09416 0.62402
vt -0.05916 0.63816
vt -0.06916 0.62402
vt -0.10416 0.63816
vt -0.26777 -0.38759
vt -0.26777 -0.40995
vt -0.25682 -0.39653
vt -0.27873 -0.40101
vt 0.13250 0.66881
vt 0.34029 0.68295
vt 0.33029 0.66881
vt 0.12250 0.68295
vt 0.67928 -0.39653
vt 0.69024 -0.40995
vt 0.69024 -0.38759
vt 0.70119 -0.40101
vt 0.05916 1.01500
vt 0.10416 1.07500
vt 0.10416 1.01500
vt 0.05916 1.07500
vt -0.17404 1.01500
vt -0.15989 1.07500
vt -0.15989 1.01500
vt -0.17404 1.07500
vt -0.34029 1.01500
vt -0.12250 1.07500
vt -0.12250 1.01500
vt -0.34029 1.07500
vt -0.16735 1.01500
vt -0.15320 1.07500
vt -0.15320 1.01500
vt -0.16735 1.07500
vt -0.10416 1.01500
vt -0.05916 1.07500
vt -0.05916 1.01500
vt -0.10416 1.07500
vt 0.03772 1.01500
vt 0.05186 1.07500
vt 0.05186 1.01500
vt 0.03772 1.07500
vt 0.12250 1.01500
vt 0.34029 1.07500
vt 0.34029 1.01500
vt 0.12250 1.07500
vt 0.27538 1.01500
vt 0.28952 1.07500
vt 0.28952 1.01500
vt 0.27538 1.07500
vt 0.05916 0.51245
vt 0.06916 0.52659
vt 0.10416 0.51245
vt 0.09416 0.52659
vt -0.09179 0.38759
vt -0.10274 0.40101
vt -0.10274 0.37865
vt -0.11369 0.39206
vt -0.34029 0.67942
vt -0.13250 0.69356
vt -0.12250 0.67942
vt -0.33029 0.69356
vt 0.52520 0.37865
vt 0.52520 0.40101
vt 0.51425 0.38759
vt 0.53616 0.39206
vt -0.10416 0.83969
vt -0.06916 0.85383
vt -0.05916 0.83969
vt -0.09416 0.85383
vt 0.48443 -0.53367
vt 0.50634 -0.53814
vt 0.49539 -0.52473
vt 0.49539 -0.54709
vt 0.12250 0.79490
vt 0.33029 0.80904
vt 0.34029 0.79490
vt 0.13250 0.80904
vt -0.07292 -0.52473
vt -0.07292 -0.54709
vt -0.06197 -0.53367
vt -0.08388 -0.53814
vt 0.34029 0.06916
vt 0.34029 0.09416
vt 0.33029 0.10416
vt 0.33029 0.05916
vt 0.13250 0.10416
vt 0.13250 0.05916
vt 0.12250 0.06916
vt 0.12250 0.09416
vt 0.34029 -0.06916
vt 0.33029 -0.10416
vt 0.34029 -0.09416
vt 0.33029 -0.05916
vt 0.13250 -0.10416
vt 0.13250 -0.05916
vt 0.12250 -0.06916
vt 0.12250 -0.09416
vt 0.06916 1.34017
vt 0.10416 1.35431
vt 0.09416 1.34017
vt 0.05916 1.35431
vt 0.86125 0.77964
vt 0.86125 0.80200
vt 0.85030 0.78858
vt 0.87221 0.79305
vt -0.33029 1.17320
vt -0.12250 1.18735
vt -0.13250 1.17320
vt -0.34029 1.18735
vt -0.42783 0.78858
vt -0.43879 0.80200
vt -0.43879 0.77964
vt -0.44974 0.79305
vt -0.09416 1.01293
vt -0.05916 1.02707
vt -0.06916 1.01293
vt -0.10416 1.02707
vt -0.46861 -0.63356
vt -0.46861 -0.65592
vt -0.45765 -0.64250
vt -0.47956 -0.64697
vt 0.13250 1.05772
vt 0.34029 1.07186
vt 0.33029 1.05772
vt 0.12250 1.07186
vt 0.88012 -0.64250
vt 0.89107 -0.65592
vt 0.89107 -0.63356
vt 0.90202 -0.64697
vt 0.05916 1.56500
vt 0.10416 1.62500
vt 0.10416 1.56500
vt 0.05916 1.62500
vt -0.17404 1.56500
vt -0.15989 1.62500
vt -0.15989 1.56500
vt -0.17404 1.62500
vt -0.34029 1.56500
vt -0.12250 1.62500
vt -0.12250 1.56500
vt -0.34029 1.62500
vt -0.16735 1.56500
vt -0.15320 1.62500
vt -0.15320 1.56500
vt -0.16735 1.62500
vt -0.10416 1.56500
vt -0.05916 1.62500
vt -0.05916 1.56500
vt -0.10416 1.62500
vt 0.03772 1.56500
vt 0.05186 1.62500
vt 0.05186 1.56500
vt 0.03772 1.62500
vt 0.12250 1.56500
vt 0.34029 1.62500
vt 0.34029 1.56500
vt 0.12250 1.62500
vt 0.27538 1.56500
vt 0.28952 1.62500
vt 0.28952 1.56500
vt 0.27538 1.62500
vt 0.05916 0.90136
vt 0.06916 0.91550
vt 0.10416 0.90136
vt 0.09416 0.91550
vt -0.29262 0.63356
vt -0.30357 0.64697
vt -0.30357 0.62461
vt -0.31453 0.63803
vt -0.34029 1.06832
vt -0.13250 1.08247
vt -0.12250 1.06832
vt -0.33029 1.08247
vt 0.72604 0.62461
vt 0.72604 0.64697
vt 0.71508 0.63356
vt 0.73699 0.63803
vt -0.10416 1.22860
vt -0.06916 1.24274
vt -0.05916 1.22860
vt -0.09416 1.24274
vt 0.68526 -0.77964
vt 0.70717 -0.78411
vt 0.69622 -0.77069
vt 0.69622 -0.79305
vt 0.12250 1.18381
vt 0.33029 1.19795
vt 0.34029 1.18381
vt 0.13250 1.19795
vt -0.27375 -0.77069
vt -0.27375 -0.79305
vt -0.26280 -0.77964
vt -0.28471 -0.78411
vn -0.7071 0.7071 0.0000
vn -0.4082 0.8165 0.4082
vn 0.0000 0.7071 0.7071
vn 0.4082 0.8165 0.4082
vn 0.7071 0.7071 0.0000
vn 0.4082 0.8165 -0.4082
vn 0.0000 0.7071 -0.7071
vn -0.4082 0.8165 -0.4082
vn -0.9995 -0.0325 0.0000
vn -0.7062 -0.0504 0.7062
vn 0.0000 -0.0389 0.9992
vn 0.7062 -0.0504 0.7062
vn 0.9995 -0.0325 0.0000
vn 0.7062 -0.0504 -0.7062
vn 0.0000 -0.0389 -0.9992
vn -0.7062 -0.0504 -0.7062
vn -0.7071 -0.7071 0.0000
vn -0.4082 -0.8165 0.4082
vn 0.0000 -0.7071 0.7071
vn 0.4082 -0.8165 0.4082
vn 0.7071 -0.7071 0.0000
vn 0.4082 -0.8165 -0.4082
vn 0.0000 -0.7071 -0.7071
vn -0.4082 -0.8165 -0.4082
vn 0.0000 1.0000 0.0000
vn 0.0000 -1.0000 0.0000
vn 0.0491 0.7063 0.7063
vn 0.2291 0.7064 0.6697
vn 0.3156 0.7063 0.6337
vn -0.0446 0.7064 0.7064
vn 0.5000 0.7071 0.5000
vn 0.6533 0.7071 0.2706
vn 0.7064 0.7064 0.0446
vn 0.7063 0.7063 -0.0491
vn 0.6697 0.7064 -0.2291
vn 0.6337 0.7063 -0.3156
vn 0.5311 0.7064 -0.4679
vn 0.4647 0.7063 -0.5341
vn 0.3116 0.7064 -0.6356
vn 0.2249 0.7063 -0.6713
vn 0.0446 0.7064 -0.7064
vn -0.0491 0.7063 -0.7063
vn -0.2291 0.7064 -0.6697
vn -0.3156 0.7063 -0.6337
vn -0.5000 0.7071 -0.5000
vn -0.6337 0.7063 -0.3156
vn -0.6697 0.7064 -0.2291
vn -0.7063 0.7063 -0.0491
vn -0.7064 0.7064 0.0446
vn -0.6533 0.7071 0.2706
vn -0.5000 0.7071 0.5000
vn -0.2706 0.7071 0.6533
vn 0.0662 0.0000 0.9978
vn 0.3207 0.0000 0.9472
vn 0.4430 0.0000 0.8965
vn -0.0662 0.0000 0.9978
vn 0.6588 0.0000 0.7523
vn 0.7523 0.0000 0.6588
vn 0.8965 0.0000 0.4430
vn 0.9472 0.0000 0.3207
vn 0.9978 0.0000 0.0662
vn 0.9978 0.0000 -0.0662
vn 0.9472 0.0000 -0.3207
vn 0.8965 0.0000 -0.4430
vn 0.7523 0.0000 -0.6588
vn 0.6588 0.0000 -0.7523
vn 0.4430 0.0000 -0.8965
vn 0.3207 0.0000 -0.9472
vn 0.0662 0.0000 -0.9978
vn -0.0662 0.0000 -0.9978
vn -0.3207 0.0000 -0.9472
vn -0.4430 0.0000 -0.8965
vn -0.6588 0.0000 -0.7523
vn -0.7523 0.0000 -0.6588
vn -0.8965 0.0000 -0.4430
vn -0.9472 0.0000 -0.3207
vn -0.9978 0.0000 -0.0662
vn -0.9978 0.0000 0.0662
vn -0.9472 0.0000 0.3207
vn -0.8965 0.0000 0.4430
vn -0.7523 0.0000 0.6588
vn -0.6588 0.0000 0.7523
vn -0.4430 0.0000 0.8965
vn -0.3207 0.0000 0.9472
vn 0.0446 -0.7064 0.7064
vn 0.2249 -0.7063 0.6713
vn 0.3116 -0.7064 0.6356
vn -0.0491 -0.7063 0.7063
vn 0.4647 -0.7063 0.5341
vn 0.5311 -0.7064 0.4679
vn 0.6337 -0.7063 0.3156
vn 0.6697 -0.7064 0.2291
vn 0.7063 -0.7063 0.0491
vn 0.7064 -0.7064 -0.0446
vn 0.6533 -0.7071 -0.2706
vn 0.5000 -0.7071 -0.5000
vn 0.2706 -0.7071 -0.6533
vn -0.2706 -0.7071 -0.6533
vn -0.5000 -0.7071 -0.5000
vn -0.6337 -0.7063 -0.3156
vn -0.6697 -0.7064 -0.2291
vn -0.7063 -0.7063 -0.0491
vn -0.7064 -0.7064 0.0446
vn -0.6533 -0.7071 0.2706
vn -0.5000 -0.7071 0.5000
vn -0.3156 -0.7063 0.6337
vn -0.2291 -0.7064 0.6697
vn -1.0000 0.0000 0.0000
vn -0.7071 0.0000 0.7071
vn 0.0000 0.0000 1.0000
vn 0.7071 0.0000 0.7071
vn 1.0000 0.0000 0.0000
vn 0.7071 0.0000 -0.7071
vn 0.0000 0.0000 -1.0000
vn -0.7071 0.0000 -0.7071
s off
f 1/1/1 10/2/1 2/3/1
f 1/1/1 9/4/1 10/2/1
f 2/5/2 11/6/2 3/7/2
f 2/5/2 10/8/2 11/6/2
f 3/9/3 12/10/3 4/11/3
f 3/9/3 11/12/3 12/10/3
f 4/13/4 13/14/4 5/15/4
f 4/13/4 12/16/4 13/14/4
f 5/17/5 14/18/5 6/19/5
f 5/17/5 13/20/5 14/18/5
f 6/21/6 15/22/6 7/23/6
f 6/21/6 14/24/6 15/22/6
f 7/25/7 16/26/7 8/27/7
f 7/25/7 15/28/7 16/26/7
f 8/29/8 9/30/8 1/31/8
f 8/29/8 16/32/8 9/30/8
f 9/33/9 18/34/9 10/35/9
f 9/33/9 17/36/9 18/34/9
f 10/37/10 19/38/10 11/39/10
f 10/37/10 18/40/10 19/38/10
f 11/41/11 20/42/11 12/43/11
f 11/41/11 19/44/11 20/42/11
f 12/45/12 20/46/12 13/47/12
f 13/47/12 20/46/12 21/48/12
f 13/49/13 22/50/13 14/51/13
f 13/49/13 21/52/13 22/50/13
f 14/53/14 23/54/14 15/55/14
f 14/53/14 22/56/14 23/54/14
f 15/57/15 24/58/15 16/59/15
f 15/57/15 23/60/15 24/58/15
f 16/61/16 24/62/16 9/63/16
f 9/63/16 24/62/16 17/64/16
f 17/65/17 26/66/17 18/67/17
f 17/65/17 25/68/17 26/66/17
f 18/69/18 27/70/18 19/71/18
f 18/69/18 26/72/18 27/70/18
f 19/73/19 28/74/19 20/75/19
f 19/73/19 27/76/19 28/74/19
f 20/77/20 29/78/20 21/79/20
f 20/77/20 28/80/20 29/78/20
f 21/81/21 30/82/21 22/83/21
f 21/81/21 29/84/21 30/82/21
f 22/85/22 31/86/22 23/87/22
f 22/85/22 30/88/22 31/86/22
f 23/89/23 32/90/23 24/91/23
f 23/89/23 31/92/23 32/90/23
f 24/93/24 25/94/24 17/95/24
f 24/93/24 32/96/24 25/94/24
f 8/97/25 1/98/25 2/99/25
f 7/100/25 8/97/25 2/99/25
f 7/100/25 2/99/25 3/101/25
f 7/100/25 3/101/25 4/102/25
f 7/100/25 4/102/25 5/103/25
f 5/103/25 6/104/25 7/100/25
f 32/105/26 26/106/26 25/107/26
f 31/108/26 26/106/26 32/105/26
f 31/108/26 27/109/26 26/106/26
f 31/108/26 28/110/26 27/109/26
f 30/111/26 28/110/26 31/108/26
f 28/110/26 30/111/26 29/112/26
f 33/113/27 50/114/28 34/115/29
f 33/113/27 49/116/30 50/114/28
f 34/115/29 51/117/31 35/118/31
f 34/115/29 50/114/28 51/117/31
f 35/119/31 51/120/31 36/121/32
f 36/121/32 51/120/31 52/122/32
f 36/121/32 53/123/33 37/124/34
f 36/121/32 52/122/32 53/123/33
f 37/124/34 54/125/35 38/126/36
f 37/124/34 53/123/33 54/125/35
f 38/126/36 55/127/37 39/128/38
f 38/126/36 54/125/35 55/127/37
f 39/129/38 56/130/39 40/131/40
f 39/129/38 55/132/37 56/130/39
f 40/133/40 57/134/41 41/135/42
f 40/133/40 56/136/39 57/134/41
f 41/135/42 58/137/43 42/138/44
f 41/135/42 57/134/41 58/137/43
f 42/138/44 59/139/45 43/140/45
f 42/138/44 58/137/43 59/139/45
f 43/141/45 59/142/45 44/143/46
f 44/143/46 59/142/45 60/144/47
f 44/143/46 60/144/47 45/145/48
f 45/145/48 60/144/47 61/146/49
f 45/145/48 61/146/49 46/147/50
f 46/147/50 61/146/49 62/148/50
f 46/147/50 63/149/51 47/150/51
f 46/147/50 62/148/50 63/149/51
f 47/150/51 63/149/51 48/151/52
f 48/151/52 63/149/51 64/152/52
f 48/153/52 49/116/30 33/113/27
f 48/153/52 64/154/52 49/116/30
f 49/155/53 66/156/54 50/157/55
f 49/155/53 65/158/56 66/156/54
f 50/159/55 67/158/57 51/155/58
f 50/159/55 66/160/54 67/158/57
f 51/161/58 68/160/59 52/159/60
f 51/161/58 67/162/57 68/160/59
f 52/159/60 69/158/61 53/155/62
f 52/159/60 68/160/59 69/158/61
f 53/155/62 70/156/63 54/157/64
f 53/155/62 69/158/61 70/156/63
f 54/163/64 71/164/65 55/165/66
f 54/163/64 70/166/63 71/164/65
f 55/165/66 72/167/67 56/168/68
f 55/165/66 71/164/65 72/167/67
f 56/159/68 73/158/69 57/155/70
f 56/159/68 72/160/67 73/158/69
f 57/163/70 74/164/71 58/165/72
f 57/163/70 73/166/69 74/164/71
f 58/165/72 75/167/73 59/168/74
f 58/165/72 74/164/71 75/167/73
f 59/161/74 76/160/75 60/159/76
f 59/161/74 75/162/73 76/160/75
f 60/159/76 77/158/77 61/155/78
f 60/159/76 76/160/75 77/158/77
f 61/155/78 78/156/79 62/157/80
f 61/155/78 77/158/77 78/156/79
f 62/159/80 79/158/81 63/155/82
f 62/159/80 78/160/79 79/158/81
f 63/161/82 80/160/83 64/159/84
f 63/161/82 79/162/81 80/160/83
f 64/159/84 65/158/56 49/155/53
f 64/159/84 80/160/83 65/158/56
f 65/169/85 82/170/86 66/171/87
f 65/169/85 81/172/88 82/170/86
f 66/171/87 83/173/89 67/174/90
f 66/171/87 82/170/86 83/173/89
f 67/175/90 84/176/91 68/177/92
f 67/175/90 83/178/89 84/176/91
f 68/177/92 85/179/93 69/180/94
f 68/177/92 84/176/91 85/179/93
f 69/180/94 86/181/95 70/182/95
f 69/180/94 85/179/93 86/181/95
f 70/182/95 86/181/95 71/183/96
f 71/183/96 86/181/95 87/184/96
f 71/183/96 88/185/97 72/186/97
f 71/183/96 87/184/96 88/185/97
f 72/187/97 88/188/97 73/189/23
f 73/189/23 88/188/97 89/190/23
f 73/189/23 90/191/98 74/192/98
f 73/189/23 89/190/23 90/191/98
f 74/192/98 90/191/98 75/193/99
f 75/193/99 90/191/98 91/194/99
f 75/195/99 92/196/100 76/197/101
f 75/195/99 91/198/99 92/196/100
f 76/197/101 93/199/102 77/200/103
f 76/197/101 92/196/100 93/199/102
f 77/200/103 94/201/104 78/202/104
f 77/200/103 93/199/102 94/201/104
f 78/202/104 94/201/104 79/203/105
f 79/203/105 94/201/104 95/204/105
f 79/203/105 96/205/106 80/206/107
f 79/203/105 95/204/105 96/205/106
f 80/207/107 81/172/88 65/169/85
f 80/207/107 96/208/106 81/172/88
f 48/209/25 33/210/25 34/211/25
f 47/212/25 48/209/25 34/211/25
f 47/212/25 34/211/25 35/213/25
f 47/212/25 35/213/25 36/214/25
f 46/215/25 47/212/25 36/214/25
f 45/216/25 46/215/25 36/214/25
f 45/216/25 36/214/25 37/217/25
f 44/218/25 45/216/25 37/217/25
f 44/218/25 37/217/25 38/219/25
f 44/218/25 38/219/25 39/220/25
f 43/221/25 44/218/25 39/220/25
f 43/221/25 39/220/25 40/222/25
f 42/223/25 43/221/25 40/222/25
f 40/222/25 41/224/25 42/223/25
f 96/223/26 82/222/26 81/224/26
f 95/221/26 82/222/26 96/223/26
f 95/221/26 83/220/26 82/222/26
f 95/221/26 84/219/26 83/220/26
f 94/218/26 84/219/26 95/221/26
f 93/216/26 84/219/26 94/218/26
f 93/216/26 85/217/26 84/219/26
f 92/215/26 85/217/26 93/216/26
f 92/215/26 86/214/26 85/217/26
f 92/215/26 87/213/26 86/214/26
f 91/212/26 87/213/26 92/215/26
f 91/212/26 88/211/26 87/213/26
f 90/209/26 88/211/26 91/212/26
f 88/211/26 90/209/26 89/210/26
f 97/225/1 106/226/1 98/227/1
f 97/225/1 105/228/1 106/226/1
f 98/229/2 107/230/2 99/231/2
f 98/229/2 106/232/2 107/230/2
f 99/233/3 108/234/3 100/235/3
f 99/233/3 107/236/3 108/234/3
f 100/237/4 108/238/4 101/239/4
f 101/239/4 108/238/4 109/240/4
f 101/241/5 110/242/5 102/243/5
f 101/241/5 109/244/5 110/242/5
f 102/245/6 111/246/6 103/247/6
f 102/245/6 110/248/6 111/246/6
f 103/249/7 112/250/7 104/251/7
f 103/249/7 111/252/7 112/250/7
f 104/253/8 112/254/8 97/255/8
f 97/255/8 112/254/8 105/256/8
f 105/257/108 114/258/108 106/259/108
f 105/257/108 113/260/108 114/258/108
f 106/261/109 115/262/109 107/263/109
f 106/261/109 114/264/109 115/262/109
f 107/265/110 116/266/110 108/267/110
f 107/265/110 115/268/110 116/266/110
f 108/269/111 117/270/111 109/271/111
f 108/269/111 116/272/111 117/270/111
f 109/273/112 118/274/112 110/275/112
f 109/273/112 117/276/112 118/274/112
f 110/277/113 119/278/113 111/279/113
f 110/277/113 118/280/113 119/278/113
f 111/281/114 120/282/114 112/283/114
f 111/281/114 119/284/114 120/282/114
f 112/285/115 113/286/115 105/287/115
f 112/285/115 120/288/115 113/286/115
f 113/289/17 121/290/17 114/291/17
f 114/291/17 121/290/17 122/292/17
f 114/293/18 122/294/18 115/295/18
f 115/295/18 122/294/18 123/296/18
f 115/297/19 124/298/19 116/299/19
f 115/297/19 123/300/19 124/298/19
f 116/301/20 125/302/20 117/303/20
f 116/301/20 124/304/20 125/302/20
f 117/305/21 126/306/21 118/307/21
f 117/305/21 125/308/21 126/306/21
f 118/309/22 127/310/22 119/311/22
f 118/309/22 126/312/22 127/310/22
f 119/313/23 128/314/23 120/315/23
f 119/313/23 127/316/23 128/314/23
f 120/317/24 121/318/24 113/319/24
f 120/317/24 128/320/24 121/318/24
f 97/321/25 98/322/25 99/323/25
f 104/324/25 97/321/25 99/323/25
f 104/324/25 99/323/25 100/325/25
f 103/326/25 104/324/25 100/325/25
f 102/327/25 103/326/25 100/325/25
f 100/325/25 101/328/25 102/327/25
f 121/329/26 123/330/26 122/331/26
f 128/332/26 123/330/26 121/329/26
f 128/332/26 124/333/26 123/330/26
f 127/334/26 124/333/26 128/332/26
f 126/335/26 124/333/26 127/334/26
f 124/333/26 126/335/26 125/336/26
f 129/337/1 138/338/1 130/339/1
f 129/337/1 137/340/1 138/338/1
f 130/341/2 139/342/2 131/343/2
f 130/341/2 138/344/2 139/342/2
f 131/345/3 140/346/3 132/347/3
f 131/345/3 139/348/3 140/346/3
f 132/349/4 140/350/4 133/351/4
f 133/351/4 140/350/4 141/352/4
f 133/353/5 142/354/5 134/355/5
f 133/353/5 141/356/5 142/354/5
f 134/357/6 143/358/6 135/359/6
f 134/357/6 142/360/6 143/358/6
f 135/361/7 144/362/7 136/363/7
f 135/361/7 143/364/7 144/362/7
f 136/365/8 144/366/8 129/367/8
f 129/367/8 144/366/8 137/368/8
f 137/369/108 146/370/108 138/371/108
f 137/369/108 145/372/108 146/370/108
f 138/373/109 147/374/109 139/375/109
f 138/373/109 146/376/109 147/374/109
f 139/377/110 148/378/110 140/379/110
f 139/377/110 147/380/110 148/378/110
f 140/381/111 149/382/111 141/383/111
f 140/381/111 148/384/111 149/382/111
f 141/385/112 150/386/112 142/387/112
f 141/385/112 149/388/112 150/386/112
f 142/389/113 151/390/113 143/391/113
f 142/389/113 150/392/113 151/390/113
f 143/393/114 152/394/114 144/395/114
f 143/393/114 151/396/114 152/394/114
f 144/397/115 145/398/115 137/399/115
f 144/397/115 152/400/115 145/398/115
f 145/401/17 153/402/17 146/403/17
f 146/403/17 153/402/17 154/404/17
f 146/405/18 154/406/18 147/407/18
f 147/407/18 154/406/18 155/408/18
f 147/409/19 156/410/19 148/411/19
f 147/409/19 155/412/19 156/410/19
f 148/413/20 157/414/20 149/415/20
f 148/413/20 156/416/20 157/414/20
f 149/417/21 158/418/21 150/419/21
f 149/417/21 157/420/21 158/418/21
f 150/421/22 159/422/22 151/423/22
f 150/421/22 158/424/22 159/422/22
f 151/425/23 160/426/23 152/427/23
f 151/425/23 159/428/23 160/426/23
f 152/429/24 153/430/24 145/431/24
f 152/429/24 160/432/24 153/430/24
f 129/321/25 130/322/25 131/323/25
f 136/324/25 129/321/25 131/323/25
f 136/324/25 131/323/25 132/325/25
f 135/326/25 136/324/25 132/325/25
f 134/327/25 135/326/25 132/325/25
f 132/325/25 133/328/25 134/327/25
f 153/329/26 155/330/26 154/331/26
f 160/332/26 155/330/26 153/329/26
f 160/332/26 156/333/26 155/330/26
f 159/334/26 156/333/26 160/332/26
f 158/335/26 156/333/26 159/334/26
f 156/333/26 158/335/26 157/336/26
