# mech2 arm L, segment Middle1, colour White #F2F2F2
# arm space (origin = shoulder centre, studs); segment pivot [-0.36, -7.87, -0.16]
# bbox centre [-0.3589, -8.1356, -0.16] (Roblox recentres on import: place at armCF * CFrame.new(centre))
o Mech2Arm_L_Middle1_White
v -0.30431 -7.82498 -0.06640
v -0.25590 -7.82074 -0.08512
v -0.25590 -7.82074 -0.23488
v -0.30431 -7.82498 -0.25360
v -0.41190 -7.83439 -0.25360
v -0.51092 -7.84305 -0.20212
v -0.51092 -7.84305 -0.11788
v -0.41190 -7.83439 -0.06640
v -0.27346 -7.91262 -0.03000
v -0.20621 -7.90674 -0.05600
v -0.20621 -7.90674 -0.26400
v -0.27346 -7.91262 -0.29000
v -0.42289 -7.92569 -0.29000
v -0.54492 -7.93637 -0.21850
v -0.54492 -7.93637 -0.10150
v -0.42289 -7.92569 -0.03000
v -0.23752 -8.36119 -0.03520
v -0.17297 -8.35555 -0.06016
v -0.17297 -8.35555 -0.25984
v -0.23752 -8.36119 -0.28480
v -0.38098 -8.37375 -0.28480
v -0.49972 -8.38413 -0.21616
v -0.49972 -8.38413 -0.10384
v -0.38098 -8.37375 -0.03520
v -0.25279 -8.43280 -0.06900
v -0.20572 -8.42868 -0.08720
v -0.20572 -8.42868 -0.23280
v -0.25279 -8.43280 -0.25100
v -0.35739 -8.44195 -0.25100
v -0.45477 -8.45047 -0.20095
v -0.45477 -8.45047 -0.11905
v -0.35739 -8.44195 -0.06900
vt -0.07608 1.95631
vt -0.06838 1.97811
vt -0.06398 1.95530
vt -0.05156 1.97671
vt 0.02128 1.94302
vt 0.06600 1.96548
vt 0.05872 1.94302
vt 0.01400 1.96548
vt 0.06406 1.95438
vt 0.06846 1.97719
vt 0.07616 1.95538
vt 0.05164 1.97579
vt 0.10582 1.98046
vt 0.10306 1.95774
vt 0.43349 1.82399
vt 0.43623 1.84855
vt 0.46130 1.82088
vt 0.47138 1.84393
vt -0.05053 1.94105
vt -0.05462 1.96352
vt -0.02947 1.94105
vt -0.02538 1.96352
vt -0.49649 1.78925
vt -0.47142 1.81691
vt -0.46868 1.79235
vt -0.50657 1.81229
vt -0.10298 1.95866
vt -0.10574 1.98138
vt -0.04325 2.08892
vt -0.05940 2.09026
vt 0.06496 2.07799
vt 0.01504 2.07799
vt 0.04333 2.08800
vt 0.05948 2.08934
vt 0.09534 2.09248
vt 0.12501 2.09527
vt 0.13631 1.98333
vt -0.02596 2.07602
vt -0.05404 2.07602
vt -0.13623 1.98425
vt -0.12493 2.09619
vt -0.09526 2.09340
vt -0.41779 1.82421
vt -0.40928 1.84529
vt -0.40053 1.82605
vt -0.42187 1.84395
vt 0.05820 2.09552
vt 0.02180 2.09552
vt 0.42525 1.78670
vt 0.43401 1.80594
vt 0.44251 1.78486
vt 0.44659 1.80460
vt 0.06329 2.10734
vt 0.08944 2.10963
vt -0.36256 1.74459
vt -0.34253 1.77192
vt -0.33006 1.75580
vt -0.36867 1.76354
vt -0.02976 2.09356
vt -0.05024 2.09356
vt 0.30360 1.79779
vt 0.31608 1.81390
vt 0.33610 1.78657
vt 0.34222 1.80552
vt -0.06320 2.10826
vt -0.08935 2.11055
vt 0.27329 -0.06340
vt 0.29814 -0.05053
vt 0.29814 -0.02947
vt 0.27329 -0.01660
vt 0.24629 -0.06340
vt 0.24629 -0.01660
vt 0.23414 -0.02128
vt 0.23414 -0.05872
vt 0.27295 0.06275
vt 0.29739 0.02976
vt 0.29739 0.05024
vt 0.27295 0.01725
vt 0.24670 0.06275
vt 0.24670 0.01725
vt 0.23489 0.02180
vt 0.23489 0.05820
vn 0.0223 0.3901 0.9205
vn 0.2945 0.1379 0.9457
vn 0.2871 0.4519 0.8446
vn 0.3514 0.0979 0.9311
vn 0.8659 0.5003 0.0000
vn 0.9808 0.1951 0.0000
vn 0.9930 0.1181 0.0000
vn 0.2871 0.4519 -0.8446
vn 0.2945 0.1379 -0.9457
vn 0.0223 0.3901 -0.9205
vn 0.3514 0.0979 -0.9311
vn -0.0710 0.0930 -0.9931
vn -0.2547 0.3844 -0.8873
vn 0.0341 0.1113 -0.9932
vn -0.4434 0.0644 -0.8940
vn -0.4789 0.3472 -0.8063
vn -0.5063 0.0119 -0.8623
vn -0.9396 0.3423 0.0000
vn -0.9996 -0.0290 0.0000
vn -0.9998 -0.0207 0.0000
vn -0.4789 0.3472 0.8063
vn -0.4434 0.0644 0.8940
vn -0.2547 0.3844 0.8873
vn -0.5063 0.0119 0.8623
vn -0.0710 0.0930 0.9931
vn 0.0341 0.1113 0.9932
vn 0.1894 0.0425 0.9810
vn 0.3621 -0.0206 0.9319
vn 0.0869 -0.0317 0.9957
vn 0.9994 0.0355 0.0000
vn 0.9992 -0.0406 0.0000
vn 0.3621 -0.0206 -0.9319
vn 0.1894 0.0425 -0.9810
vn 0.0869 -0.0317 -0.9957
vn 0.1580 0.0408 -0.9866
vn 0.0685 -0.0338 -0.9971
vn -0.1484 0.0205 -0.9887
vn -0.2141 -0.0904 -0.9726
vn -0.5011 0.0107 -0.8653
vn -0.4951 -0.0879 -0.8644
vn -0.2742 0.0002 -0.9617
vn -0.2733 -0.0974 -0.9570
vn -0.9903 -0.1386 0.0000
vn -0.9769 -0.2135 0.0000
vn -0.4951 -0.0879 0.8644
vn -0.5011 0.0107 0.8653
vn -0.2742 0.0002 0.9617
vn -0.2733 -0.0974 0.9570
vn -0.1484 0.0205 0.9887
vn 0.0685 -0.0338 0.9971
vn 0.1580 0.0408 0.9866
vn -0.2141 -0.0904 0.9726
vn 0.3002 -0.1737 0.9379
vn 0.3550 -0.4599 0.8139
vn 0.0936 -0.4413 0.8925
vn 0.9127 -0.4087 0.0000
vn 0.3550 -0.4599 -0.8139
vn 0.3002 -0.1737 -0.9379
vn 0.0936 -0.4413 -0.8925
vn 0.0264 -0.0717 -0.9971
vn -0.0676 -0.1861 -0.9802
vn -0.1703 -0.4842 -0.8582
vn -0.3888 -0.2203 -0.8946
vn -0.3884 -0.4836 -0.7844
vn -0.8278 -0.5610 0.0000
vn -0.3884 -0.4836 0.7844
vn -0.3888 -0.2203 0.8946
vn -0.1703 -0.4842 0.8582
vn -0.0676 -0.1861 0.9802
vn 0.0264 -0.0717 0.9971
vn -0.0872 0.9962 0.0000
vn 0.0872 -0.9962 0.0000
s off
f 1/1/1 9/2/2 2/3/3
f 2/3/3 9/2/2 10/4/4
f 2/5/5 11/6/6 3/7/5
f 2/5/5 10/8/7 11/6/6
f 3/9/8 12/10/9 4/11/10
f 3/9/8 11/12/11 12/10/9
f 4/11/10 13/13/12 5/14/13
f 4/11/10 12/10/14 13/13/12
f 5/15/13 13/16/15 6/17/16
f 6/17/16 13/16/15 14/18/17
f 6/19/18 14/20/19 7/21/18
f 7/21/18 14/20/19 15/22/20
f 7/23/21 16/24/22 8/25/23
f 7/23/21 15/26/24 16/24/22
f 8/27/23 16/28/25 1/1/1
f 1/1/1 16/28/25 9/2/26
f 9/2/27 18/29/28 10/4/4
f 9/2/27 17/30/29 18/29/28
f 10/8/7 19/31/30 11/6/6
f 10/8/7 18/32/31 19/31/30
f 11/12/11 19/33/32 12/10/33
f 12/10/33 19/33/32 20/34/34
f 12/10/35 20/34/36 13/13/37
f 13/13/37 20/34/36 21/35/38
f 13/13/39 22/36/40 14/37/17
f 13/13/41 21/35/42 22/36/40
f 14/20/19 23/38/43 15/22/20
f 14/20/19 22/39/44 23/38/43
f 15/40/24 23/41/45 16/28/46
f 16/28/47 23/41/45 24/42/48
f 16/28/49 17/30/50 9/2/51
f 16/28/49 24/42/52 17/30/50
f 17/43/53 26/44/54 18/45/28
f 17/43/53 25/46/55 26/44/54
f 18/32/31 27/47/56 19/31/30
f 18/32/31 26/48/56 27/47/56
f 19/49/32 27/50/57 20/51/58
f 20/51/58 27/50/57 28/52/59
f 20/34/60 28/53/59 21/35/61
f 21/35/61 28/53/59 29/54/62
f 21/55/63 30/56/64 22/57/40
f 21/55/63 29/58/62 30/56/64
f 22/39/44 31/59/65 23/38/43
f 22/39/44 30/60/65 31/59/65
f 23/61/45 31/62/66 24/63/67
f 24/63/67 31/62/66 32/64/68
f 24/42/69 25/65/55 17/30/70
f 24/42/69 32/66/68 25/65/55
f 5/67/71 6/68/71 7/69/71
f 5/67/71 7/69/71 8/70/71
f 4/71/71 5/67/71 8/70/71
f 4/71/71 8/70/71 1/72/71
f 4/71/71 1/72/71 2/73/71
f 2/73/71 3/74/71 4/71/71
f 29/75/72 31/76/72 30/77/72
f 29/75/72 32/78/72 31/76/72
f 28/79/72 32/78/72 29/75/72
f 28/79/72 25/80/72 32/78/72
f 28/79/72 26/81/72 25/80/72
f 26/81/72 28/79/72 27/82/72
