# mech2 arm L, segment Hand, colour DarkGrey #5A5A5A
# arm space (origin = shoulder centre, studs); segment pivot [-0.3, -6.93, 0.0]
# bbox centre [-0.07, -7.455, 0.0] (Roblox recentres on import: place at armCF * CFrame.new(centre))
o Mech2Arm_L_Hand_DarkGrey
v -0.10000 -7.16000 -0.39300
v -0.10000 -7.16000 0.39300
v -0.07300 -7.16000 0.42000
v -0.06700 -7.16000 0.42000
v -0.04000 -7.16000 0.39300
v -0.04000 -7.16000 -0.39300
v -0.06700 -7.16000 -0.42000
v -0.07300 -7.16000 -0.42000
v -0.15000 -7.21000 -0.42000
v -0.15000 -7.21000 0.42000
v -0.10000 -7.21000 0.47000
v -0.04000 -7.21000 0.47000
v 0.01000 -7.21000 0.42000
v 0.01000 -7.21000 -0.42000
v -0.04000 -7.21000 -0.47000
v -0.10000 -7.21000 -0.47000
v -0.15000 -7.70000 -0.45000
v -0.15000 -7.70000 0.45000
v -0.10000 -7.70000 0.50000
v -0.04000 -7.70000 0.50000
v 0.01000 -7.70000 0.45000
v 0.01000 -7.70000 -0.45000
v -0.04000 -7.70000 -0.50000
v -0.10000 -7.70000 -0.50000
v -0.10000 -7.75000 -0.42300
v -0.10000 -7.75000 0.42300
v -0.07300 -7.75000 0.45000
v -0.06700 -7.75000 0.45000
v -0.04000 -7.75000 0.42300
v -0.04000 -7.75000 -0.42300
v -0.06700 -7.75000 -0.45000
v -0.07300 -7.75000 -0.45000
vt 1.28340 -0.09825
vt 1.30108 0.10500
vt 1.28340 0.09825
vt 1.30108 -0.10500
vt 0.71438 1.05725
vt 0.71438 1.08020
vt 0.70670 1.06291
vt 0.72862 1.06971
vt 0.01825 1.33997
vt 0.01000 1.35765
vt 0.01675 1.33997
vt 0.02500 1.35765
vt -0.67596 1.06291
vt -0.69788 1.06971
vt -0.68364 1.05725
vt -0.68364 1.08020
vt -1.25865 0.09825
vt -1.27633 -0.10500
vt -1.25865 -0.09825
vt -1.27633 0.10500
vt -0.68364 -1.05725
vt -0.68364 -1.08020
vt -0.67596 -1.06291
vt -0.69788 -1.06971
vt 0.01675 -1.33997
vt 0.02500 -1.35765
vt 0.01825 -1.33997
vt 0.01000 -1.35765
vt 0.70670 -1.06291
vt 0.72862 -1.06971
vt 0.71438 -1.05725
vt 0.71438 -1.08020
vt -0.10500 1.80250
vt 0.11250 1.92500
vt 0.10500 1.80250
vt -0.11250 1.92500
vt -0.03032 1.80555
vt -0.03032 1.92828
vt -0.01266 1.80631
vt -0.01266 1.92904
vt -0.02500 1.80631
vt -0.01000 1.92904
vt -0.01000 1.80631
vt -0.02500 1.92904
vt -0.01211 1.80631
vt 0.00555 1.92828
vt 0.00555 1.80555
vt -0.01211 1.92904
vt -0.00555 1.80555
vt -0.00555 1.92828
vt 0.01211 1.80631
vt 0.01211 1.92904
vt 0.01000 1.80631
vt 0.02500 1.92904
vt 0.02500 1.80631
vt 0.01000 1.92904
vt 0.01266 1.80631
vt 0.03032 1.92828
vt 0.03032 1.80555
vt 0.01266 1.92904
vt -1.33466 0.11250
vt -1.35234 -0.10575
vt -1.33466 -0.11250
vt -1.35234 0.10575
vt -0.76854 0.95401
vt -0.79046 0.96082
vt -0.78277 0.94353
vt -0.78277 0.96648
vt 0.02500 1.27279
vt 0.01675 1.29047
vt 0.01000 1.27279
vt 0.01825 1.29047
vt 0.81351 0.94353
vt 0.81351 0.96648
vt 0.79928 0.95401
vt 0.82120 0.96082
vt 1.35941 -0.11250
vt 1.37709 0.10575
vt 1.35941 0.11250
vt 1.37709 -0.10575
vt 0.79928 -0.95401
vt 0.82120 -0.96082
vt 0.81351 -0.94353
vt 0.81351 -0.96648
vt 0.01000 -1.27279
vt 0.01825 -1.29047
vt 0.02500 -1.27279
vt 0.01675 -1.29047
vt -0.78277 -0.94353
vt -0.78277 -0.96648
vt -0.76854 -0.95401
vt -0.79046 -0.96082
vt 0.02500 0.09825
vt 0.01825 0.10500
vt 0.01675 0.10500
vt 0.01000 0.09825
vt 0.01000 -0.09825
vt 0.01675 -0.10500
vt 0.01825 -0.10500
vt 0.02500 -0.09825
vt 0.02500 -0.10575
vt 0.01675 -0.11250
vt 0.01825 -0.11250
vt 0.01000 -0.10575
vt 0.01000 0.10575
vt 0.01825 0.11250
vt 0.01675 0.11250
vt 0.02500 0.10575
vn -0.7071 0.7071 0.0000
vn -0.4783 0.7365 0.4783
vn 0.0000 0.7071 0.7071
vn 0.4783 0.7365 0.4783
vn 0.7071 0.7071 0.0000
vn 0.4783 0.7365 -0.4783
vn 0.0000 0.7071 -0.7071
vn -0.4783 0.7365 -0.4783
vn -1.0000 0.0000 0.0000
vn -0.7064 0.0433 0.7064
vn 0.0000 0.0611 0.9981
vn 0.7064 0.0433 0.7064
vn 1.0000 0.0000 0.0000
vn 0.7064 0.0433 -0.7064
vn 0.0000 0.0611 -0.9981
vn -0.7064 0.0433 -0.7064
vn -0.7071 -0.7071 0.0000
vn -0.4783 -0.7365 0.4783
vn 0.0000 -0.7071 0.7071
vn 0.4783 -0.7365 0.4783
vn 0.7071 -0.7071 0.0000
vn 0.4783 -0.7365 -0.4783
vn 0.0000 -0.7071 -0.7071
vn -0.4783 -0.7365 -0.4783
vn 0.0000 1.0000 0.0000
vn 0.0000 -1.0000 0.0000
s off
f 1/1/1 10/2/1 2/3/1
f 1/1/1 9/4/1 10/2/1
f 2/5/2 11/6/2 3/7/2
f 2/5/2 10/8/2 11/6/2
f 3/9/3 12/10/3 4/11/3
f 3/9/3 11/12/3 12/10/3
f 4/13/4 13/14/4 5/15/4
f 4/13/4 12/16/4 13/14/4
f 5/17/5 14/18/5 6/19/5
f 5/17/5 13/20/5 14/18/5
f 6/21/6 15/22/6 7/23/6
f 6/21/6 14/24/6 15/22/6
f 7/25/7 16/26/7 8/27/7
f 7/25/7 15/28/7 16/26/7
f 8/29/8 9/30/8 1/31/8
f 8/29/8 16/32/8 9/30/8
f 9/33/9 18/34/9 10/35/9
f 9/33/9 17/36/9 18/34/9
f 10/37/10 18/38/10 11/39/10
f 11/39/10 18/38/10 19/40/10
f 11/41/11 20/42/11 12/43/11
f 11/41/11 19/44/11 20/42/11
f 12/45/12 21/46/12 13/47/12
f 12/45/12 20/48/12 21/46/12
f 13/33/13 22/34/13 14/35/13
f 13/33/13 21/36/13 22/34/13
f 14/49/14 22/50/14 15/51/14
f 15/51/14 22/50/14 23/52/14
f 15/53/15 24/54/15 16/55/15
f 15/53/15 23/56/15 24/54/15
f 16/57/16 17/58/16 9/59/16
f 16/57/16 24/60/16 17/58/16
f 17/61/17 26/62/17 18/63/17
f 17/61/17 25/64/17 26/62/17
f 18/65/18 27/66/18 19/67/18
f 18/65/18 26/68/18 27/66/18
f 19/69/19 28/70/19 20/71/19
f 19/69/19 27/72/19 28/70/19
f 20/73/20 29/74/20 21/75/20
f 20/73/20 28/76/20 29/74/20
f 21/77/21 30/78/21 22/79/21
f 21/77/21 29/80/21 30/78/21
f 22/81/22 31/82/22 23/83/22
f 22/81/22 30/84/22 31/82/22
f 23/85/23 32/86/23 24/87/23
f 23/85/23 31/88/23 32/86/23
f 24/89/24 25/90/24 17/91/24
f 24/89/24 32/92/24 25/90/24
f 2/93/25 3/94/25 4/95/25
f 2/93/25 4/95/25 5/96/25
f 6/97/25 7/98/25 8/99/25
f 6/97/25 8/99/25 1/100/25
f 6/97/25 1/100/25 2/93/25
f 2/93/25 5/96/25 6/97/25
f 26/101/26 28/102/26 27/103/26
f 26/101/26 29/104/26 28/102/26
f 30/105/26 32/106/26 31/107/26
f 30/105/26 25/108/26 32/106/26
f 30/105/26 26/101/26 25/108/26
f 26/101/26 30/105/26 29/104/26
