# mech2 arm L, segment Index2, colour White #F2F2F2
# arm space (origin = shoulder centre, studs); segment pivot [-0.3202388099658486, -8.4386115086481, -0.48]
# bbox centre [-0.1824, -8.6344, -0.48] (Roblox recentres on import: place at armCF * CFrame.new(centre))
o Mech2Arm_L_Index2_White
v -0.30045 -8.36979 -0.38640
v -0.26322 -8.33855 -0.40512
v -0.26322 -8.33855 -0.55488
v -0.30045 -8.36979 -0.57360
v -0.38318 -8.43921 -0.57360
v -0.45932 -8.50310 -0.52212
v -0.45932 -8.50310 -0.43788
v -0.38318 -8.43921 -0.38640
v -0.22490 -8.42388 -0.35000
v -0.17319 -8.38050 -0.37600
v -0.17319 -8.38050 -0.58400
v -0.22490 -8.42388 -0.61000
v -0.33981 -8.52030 -0.61000
v -0.43365 -8.59904 -0.53850
v -0.43365 -8.59904 -0.42150
v -0.33981 -8.52030 -0.35000
v 0.02969 -8.73242 -0.35520
v 0.07933 -8.69077 -0.38016
v 0.07933 -8.69077 -0.57984
v 0.02969 -8.73242 -0.60480
v -0.08062 -8.82498 -0.60480
v -0.17194 -8.90160 -0.53616
v -0.17194 -8.90160 -0.42384
v -0.08062 -8.82498 -0.35520
v 0.05825 -8.79983 -0.38900
v 0.09445 -8.76946 -0.40720
v 0.09445 -8.76946 -0.55280
v 0.05825 -8.79983 -0.57100
v -0.02218 -8.86733 -0.57100
v -0.09707 -8.93016 -0.52095
v -0.09707 -8.93016 -0.43905
v -0.02218 -8.86733 -0.38900
vt -0.07448 2.09331
vt -0.05567 2.10674
vt -0.06513 2.08554
vt -0.04269 2.09596
vt 0.10128 1.56023
vt 0.14600 1.58269
vt 0.13872 1.56023
vt 0.09400 1.58269
vt 0.06713 2.08315
vt 0.05767 2.10435
vt 0.07648 2.09092
vt 0.04469 2.09357
vt 0.08640 2.12845
vt 0.09717 2.10827
vt 0.00743 2.11137
vt -0.00655 2.13175
vt 0.03051 2.12719
vt 0.02308 2.15122
vt -0.13053 1.54874
vt -0.13462 1.57120
vt -0.10947 1.54874
vt -0.10537 1.57120
vt -0.17245 2.12431
vt -0.13539 2.12887
vt -0.14937 2.10849
vt -0.16502 2.14834
vt -0.09516 2.11066
vt -0.08440 2.13084
vt 0.02044 2.17353
vt 0.00798 2.18388
vt 0.14496 1.68269
vt 0.09504 1.68269
vt -0.01844 2.17114
vt -0.00598 2.18149
vt 0.02160 2.20463
vt 0.04429 2.22396
vt 0.10971 2.14831
vt -0.10596 1.67120
vt -0.13404 1.67120
vt -0.10771 2.15070
vt -0.04228 2.22635
vt -0.01960 2.20702
vt -0.19754 2.15381
vt -0.17809 2.16557
vt -0.18263 2.14492
vt -0.18896 2.17205
vt 0.13820 1.70023
vt 0.10180 1.70023
vt 0.31281 2.09498
vt 0.30827 2.11563
vt 0.32772 2.10387
vt 0.31914 2.12211
vt -0.01319 2.19843
vt 0.00692 2.21530
vt -0.04047 1.63829
vt -0.03636 1.67191
vt -0.01760 1.66395
vt -0.05507 1.65183
vt -0.10976 1.68874
vt -0.13024 1.68874
vt 0.00991 1.81262
vt 0.02867 1.82058
vt 0.03279 1.78696
vt 0.04738 1.80050
vt 0.01519 2.20082
vt -0.00492 2.21769
vt 1.42954 -0.14340
vt 1.45439 -0.13053
vt 1.45439 -0.10947
vt 1.42954 -0.09660
vt 1.40254 -0.09660
vt 1.40254 -0.14340
vt 1.39039 -0.10128
vt 1.39039 -0.13872
vt 1.42920 0.14275
vt 1.45364 0.10976
vt 1.45364 0.13024
vt 1.42920 0.09725
vt 1.40295 0.09725
vt 1.40295 0.14275
vt 1.39114 0.13820
vt 1.39114 0.10180
vn -0.2055 0.3324 0.9205
vn 0.1521 0.2861 0.9461
vn -0.0240 0.5348 0.8446
vn 0.2272 0.2869 0.9306
vn 0.4224 0.9064 0.0000
vn 0.6844 0.7291 0.0000
vn 0.7434 0.6689 0.0000
vn -0.0240 0.5348 -0.8446
vn 0.1521 0.2861 -0.9461
vn -0.2055 0.3324 -0.9205
vn 0.2272 0.2869 -0.9306
vn -0.1215 0.0386 -0.9918
vn -0.4291 0.1688 -0.8873
vn -0.0391 0.1205 -0.9919
vn -0.4013 -0.1906 -0.8959
vn -0.5915 0.0097 -0.8063
vn -0.4251 -0.2762 -0.8620
vn -0.9660 -0.2585 0.0000
vn -0.8058 -0.5922 0.0000
vn -0.8111 -0.5849 0.0000
vn -0.5915 0.0097 0.8063
vn -0.4013 -0.1906 0.8959
vn -0.4291 0.1688 0.8873
vn -0.4251 -0.2762 0.8620
vn -0.1215 0.0386 0.9918
vn -0.0391 0.1205 0.9919
vn 0.1301 0.1468 0.9806
vn 0.3122 0.1862 0.9316
vn 0.0937 0.0214 0.9954
vn 0.8019 0.5975 0.0000
vn 0.8483 0.5296 0.0000
vn 0.3122 0.1862 -0.9316
vn 0.1301 0.1468 -0.9806
vn 0.0937 0.0214 -0.9954
vn 0.1027 0.1251 -0.9868
vn 0.0781 0.0078 -0.9969
vn -0.1341 -0.0642 -0.9889
vn -0.1159 -0.2005 -0.9728
vn -0.4199 -0.2741 -0.8652
vn -0.3518 -0.3598 -0.8642
vn -0.2282 -0.1564 -0.9610
vn -0.1652 -0.2445 -0.9555
vn -0.7277 -0.6859 0.0000
vn -0.6688 -0.7434 0.0000
vn -0.3518 -0.3598 0.8642
vn -0.4199 -0.2741 0.8652
vn -0.2282 -0.1564 0.9610
vn -0.1652 -0.2445 0.9555
vn -0.1341 -0.0642 0.9889
vn 0.0781 0.0078 0.9969
vn 0.1027 0.1251 0.9868
vn -0.1159 -0.2005 0.9728
vn 0.3501 0.0149 0.9366
vn 0.5545 -0.1731 0.8139
vn 0.3298 -0.3077 0.8925
vn 0.9820 0.1887 0.0000
vn 0.5545 -0.1731 -0.8139
vn 0.3501 0.0149 -0.9366
vn 0.3298 -0.3077 -0.8925
vn 0.0695 -0.0483 -0.9964
vn 0.0552 -0.2058 -0.9770
vn 0.1382 -0.4943 -0.8582
vn -0.1772 -0.4091 -0.8951
vn -0.0408 -0.6190 -0.7844
vn -0.3563 -0.9344 0.0000
vn -0.0408 -0.6190 0.7844
vn -0.1772 -0.4091 0.8951
vn 0.1382 -0.4943 0.8582
vn 0.0552 -0.2058 0.9770
vn 0.0695 -0.0483 0.9964
vn -0.6428 0.7660 0.0000
vn 0.6428 -0.7660 0.0000
s off
f 1/1/1 9/2/2 2/3/3
f 2/3/3 9/2/2 10/4/4
f 2/5/5 11/6/6 3/7/5
f 2/5/5 10/8/7 11/6/6
f 3/9/8 12/10/9 4/11/10
f 3/9/8 11/12/11 12/10/9
f 4/11/10 13/13/12 5/14/13
f 4/11/10 12/10/14 13/13/12
f 5/15/13 13/16/15 6/17/16
f 6/17/16 13/16/15 14/18/17
f 6/19/18 14/20/19 7/21/18
f 7/21/18 14/20/19 15/22/20
f 7/23/21 16/24/22 8/25/23
f 7/23/21 15/26/24 16/24/22
f 8/27/23 16/28/25 1/1/1
f 1/1/1 16/28/25 9/2/26
f 9/2/27 18/29/28 10/4/4
f 9/2/27 17/30/29 18/29/28
f 10/8/7 19/31/30 11/6/6
f 10/8/7 18/32/31 19/31/30
f 11/12/11 19/33/32 12/10/33
f 12/10/33 19/33/32 20/34/34
f 12/10/35 20/34/36 13/13/37
f 13/13/37 20/34/36 21/35/38
f 13/13/39 22/36/40 14/37/17
f 13/13/41 21/35/42 22/36/40
f 14/20/19 23/38/43 15/22/20
f 14/20/19 22/39/44 23/38/43
f 15/40/24 23/41/45 16/28/46
f 16/28/47 23/41/45 24/42/48
f 16/28/49 17/30/50 9/2/51
f 16/28/49 24/42/52 17/30/50
f 17/43/53 26/44/54 18/45/28
f 17/43/53 25/46/55 26/44/54
f 18/32/31 27/47/56 19/31/30
f 18/32/31 26/48/56 27/47/56
f 19/49/32 27/50/57 20/51/58
f 20/51/58 27/50/57 28/52/59
f 20/34/60 28/53/59 21/35/61
f 21/35/61 28/53/59 29/54/62
f 21/55/63 30/56/64 22/57/40
f 21/55/63 29/58/62 30/56/64
f 22/39/44 31/59/65 23/38/43
f 22/39/44 30/60/65 31/59/65
f 23/61/45 31/62/66 24/63/67
f 24/63/67 31/62/66 32/64/68
f 24/42/69 25/65/55 17/30/70
f 24/42/69 32/66/68 25/65/55
f 5/67/71 6/68/71 7/69/71
f 5/67/71 7/69/71 8/70/71
f 5/67/71 8/70/71 1/71/71
f 4/72/71 5/67/71 1/71/71
f 4/72/71 1/71/71 2/73/71
f 2/73/71 3/74/71 4/72/71
f 29/75/72 31/76/72 30/77/72
f 29/75/72 32/78/72 31/76/72
f 29/75/72 25/79/72 32/78/72
f 28/80/72 25/79/72 29/75/72
f 27/81/72 25/79/72 28/80/72
f 25/79/72 27/81/72 26/82/72
