# mech2 arm L, segment Upper, colour White #F2F2F2
# arm space (origin = shoulder centre, studs); segment pivot [-0.0, 0.0, 0.0]
# bbox centre [-0.1, -1.625, 0.0] (Roblox recentres on import: place at armCF * CFrame.new(centre))
o Mech2Arm_L_Upper_White
v -0.85000 -0.55000 -0.50000
v -0.85000 -0.55000 0.50000
v -0.74000 -0.55000 0.61000
v 0.54000 -0.55000 0.61000
v 0.65000 -0.55000 0.50000
v 0.65000 -0.55000 -0.50000
v 0.54000 -0.55000 -0.61000
v -0.74000 -0.55000 -0.61000
v -0.96000 -0.66000 -0.61000
v -0.96000 -0.66000 0.61000
v -0.85000 -0.66000 0.72000
v 0.65000 -0.66000 0.72000
v 0.76000 -0.66000 0.61000
v 0.76000 -0.66000 -0.61000
v 0.65000 -0.66000 -0.72000
v -0.85000 -0.66000 -0.72000
v -0.98000 -1.10000 -0.64000
v -0.98000 -1.10000 0.64000
v -0.87000 -1.10000 0.75000
v 0.67000 -1.10000 0.75000
v 0.78000 -1.10000 0.64000
v 0.78000 -1.10000 -0.64000
v 0.67000 -1.10000 -0.75000
v -0.87000 -1.10000 -0.75000
v -0.98000 -2.20000 -0.64000
v -0.98000 -2.20000 0.64000
v -0.87000 -2.20000 0.75000
v 0.67000 -2.20000 0.75000
v 0.78000 -2.20000 0.64000
v 0.78000 -2.20000 -0.64000
v 0.67000 -2.20000 -0.75000
v -0.87000 -2.20000 -0.75000
v -0.92000 -2.59000 -0.57000
v -0.92000 -2.59000 0.57000
v -0.81000 -2.59000 0.68000
v 0.61000 -2.59000 0.68000
v 0.72000 -2.59000 0.57000
v 0.72000 -2.59000 -0.57000
v 0.61000 -2.59000 -0.68000
v -0.81000 -2.59000 -0.68000
v -0.81000 -2.70000 -0.46000
v -0.81000 -2.70000 0.46000
v -0.70000 -2.70000 0.57000
v 0.50000 -2.70000 0.57000
v 0.61000 -2.70000 0.46000
v 0.61000 -2.70000 -0.46000
v 0.50000 -2.70000 -0.57000
v -0.70000 -2.70000 -0.57000
vt -0.12500 0.24749
vt 0.15250 0.28638
vt 0.12500 0.24749
vt -0.15250 0.28638
vt 0.22137 0.17330
vt 0.22137 0.23479
vt 0.19125 0.19789
vt 0.25150 0.21019
vt 0.18500 0.20506
vt -0.16250 0.24395
vt -0.13500 0.20506
vt 0.21250 0.24395
vt -0.14560 0.19789
vt -0.20585 0.21019
vt -0.17573 0.17330
vt -0.17573 0.23479
vt -0.12500 0.21213
vt 0.15250 0.25102
vt 0.12500 0.21213
vt -0.15250 0.25102
vt -0.17573 -0.17330
vt -0.17573 -0.23479
vt -0.14560 -0.19789
vt -0.20585 -0.21019
vt -0.13500 -0.20506
vt 0.21250 -0.24395
vt 0.18500 -0.20506
vt -0.16250 -0.24395
vt 0.19125 -0.19789
vt 0.25150 -0.21019
vt 0.22137 -0.17330
vt 0.22137 -0.23479
vt -0.15250 0.16027
vt 0.16000 0.27015
vt 0.15250 0.16027
vt -0.16000 0.27015
vt -0.06644 0.15492
vt -0.06788 0.26462
vt -0.02756 0.15606
vt -0.02901 0.26576
vt -0.21250 0.16142
vt 0.16750 0.27125
vt 0.16250 0.16142
vt -0.21750 0.27125
vt -0.00775 0.15813
vt 0.03257 0.26669
vt 0.03113 0.15699
vt -0.00630 0.26783
vt -0.15250 0.16125
vt 0.16000 0.27113
vt 0.15250 0.16125
vt -0.16000 0.27113
vt -0.03113 0.15699
vt -0.03257 0.26669
vt 0.00775 0.15813
vt 0.00630 0.26783
vt -0.16250 0.16142
vt 0.21750 0.27125
vt 0.21250 0.16142
vt -0.16750 0.27125
vt 0.02756 0.15606
vt 0.06788 0.26462
vt 0.06644 0.15492
vt 0.02901 0.26576
vt 0.16000 0.54510
vt -0.16000 0.54510
vt -0.03706 0.54052
vt -0.07593 0.53938
vt 0.16750 0.54619
vt -0.21750 0.54619
vt 0.04062 0.54145
vt 0.00175 0.54259
vt 0.16000 0.54608
vt -0.16000 0.54608
vt -0.00175 0.54259
vt -0.04062 0.54145
vt 0.21750 0.54619
vt -0.16750 0.54619
vt 0.07593 0.53938
vt 0.03706 0.54052
vt 0.14250 0.64287
vt -0.14250 0.64287
vt -0.04170 0.63856
vt -0.08057 0.63742
vt 0.15250 0.64402
vt -0.20250 0.64402
vt 0.00639 0.64063
vt 0.04526 0.63949
vt 0.14250 0.64385
vt -0.14250 0.64385
vt -0.00639 0.64063
vt -0.04526 0.63949
vt 0.20250 0.64402
vt -0.15250 0.64402
vt 0.04170 0.63856
vt 0.08057 0.63742
vt -0.29522 0.14250
vt -0.33411 -0.11500
vt -0.29522 -0.14250
vt -0.33411 0.11500
vt -0.05249 0.16211
vt -0.11274 0.17441
vt -0.08261 0.13752
vt -0.08261 0.19901
vt 0.20250 0.33764
vt -0.12500 0.37653
vt -0.15250 0.33764
vt 0.17500 0.37653
vt 0.12826 0.13752
vt 0.12826 0.19901
vt 0.09813 0.16211
vt 0.15838 0.17441
vt 0.33057 -0.14250
vt 0.36946 0.11500
vt 0.33057 0.14250
vt 0.36946 -0.11500
vt 0.09813 -0.16211
vt 0.15838 -0.17441
vt 0.12826 -0.13752
vt 0.12826 -0.19901
vt -0.15250 -0.33764
vt 0.17500 -0.37653
vt 0.20250 -0.33764
vt -0.12500 -0.37653
vt -0.08261 -0.13752
vt -0.08261 -0.19901
vt -0.05249 -0.16211
vt -0.11274 -0.17441
vt 0.21250 -0.12500
vt 0.21250 0.12500
vt 0.18500 0.15250
vt -0.13500 0.15250
vt -0.16250 0.12500
vt -0.16250 -0.12500
vt -0.13500 -0.15250
vt 0.18500 -0.15250
vt 0.20250 0.11500
vt 0.17500 -0.14250
vt 0.20250 -0.11500
vt -0.12500 -0.14250
vt -0.15250 -0.11500
vt -0.12500 0.14250
vt -0.15250 0.11500
vt 0.17500 0.14250
vn -0.7071 0.7071 0.0000
vn -0.4082 0.8165 0.4082
vn 0.0000 0.7071 0.7071
vn 0.4082 0.8165 0.4082
vn 0.7071 0.7071 0.0000
vn 0.4082 0.8165 -0.4082
vn 0.0000 0.7071 -0.7071
vn -0.4082 0.8165 -0.4082
vn -0.9990 0.0454 0.0000
vn -0.9998 0.0199 0.0000
vn -1.0000 0.0076 0.0000
vn -0.7048 0.0801 0.7048
vn -0.7069 0.0230 0.7069
vn 0.0000 0.0680 0.9977
vn 0.0000 0.0301 0.9995
vn 0.0000 0.0114 0.9999
vn 0.7048 0.0801 0.7048
vn 0.7067 0.0357 0.7067
vn 0.7070 0.0134 0.7070
vn 0.9990 0.0454 0.0000
vn 0.9998 0.0199 0.0000
vn 1.0000 0.0076 0.0000
vn 0.7048 0.0801 -0.7048
vn 0.7069 0.0230 -0.7069
vn 0.0000 0.0680 -0.9977
vn 0.0000 0.0301 -0.9995
vn 0.0000 0.0114 -0.9999
vn -0.7048 0.0801 -0.7048
vn -0.7067 0.0357 -0.7067
vn -0.7070 0.0134 -0.7070
vn -0.9997 -0.0232 0.0000
vn -0.9981 -0.0616 0.0000
vn -0.7067 -0.0355 0.7067
vn -0.7037 -0.0973 0.7037
vn 0.0000 -0.0270 0.9996
vn 0.0000 -0.0726 0.9974
vn 0.7058 -0.0616 0.7058
vn 0.9997 -0.0232 0.0000
vn 0.9981 -0.0616 0.0000
vn 0.7067 -0.0355 -0.7067
vn 0.7037 -0.0973 -0.7037
vn 0.0000 -0.0270 -0.9996
vn 0.0000 -0.0726 -0.9974
vn -0.7058 -0.0616 -0.7058
vn -0.9884 -0.1521 0.0000
vn -0.6882 -0.2294 0.6882
vn 0.0000 -0.1767 0.9843
vn 0.6882 -0.2294 0.6882
vn 0.9884 -0.1521 0.0000
vn 0.6882 -0.2294 -0.6882
vn 0.0000 -0.1767 -0.9843
vn -0.6882 -0.2294 -0.6882
vn -0.7071 -0.7071 0.0000
vn -0.4082 -0.8165 0.4082
vn 0.0000 -0.7071 0.7071
vn 0.4082 -0.8165 0.4082
vn 0.7071 -0.7071 0.0000
vn 0.4082 -0.8165 -0.4082
vn 0.0000 -0.7071 -0.7071
vn -0.4082 -0.8165 -0.4082
vn 0.0000 1.0000 0.0000
vn 0.0000 -1.0000 0.0000
s off
f 1/1/1 10/2/1 2/3/1
f 1/1/1 9/4/1 10/2/1
f 2/5/2 11/6/2 3/7/2
f 2/5/2 10/8/2 11/6/2
f 3/9/3 12/10/3 4/11/3
f 3/9/3 11/12/3 12/10/3
f 4/13/4 13/14/4 5/15/4
f 4/13/4 12/16/4 13/14/4
f 5/17/5 14/18/5 6/19/5
f 5/17/5 13/20/5 14/18/5
f 6/21/6 15/22/6 7/23/6
f 6/21/6 14/24/6 15/22/6
f 7/25/7 16/26/7 8/27/7
f 7/25/7 15/28/7 16/26/7
f 8/29/8 9/30/8 1/31/8
f 8/29/8 16/32/8 9/30/8
f 9/33/9 18/34/10 10/35/9
f 9/33/9 17/36/11 18/34/10
f 10/37/12 18/38/13 11/39/12
f 11/39/12 18/38/13 19/40/13
f 11/41/14 20/42/15 12/43/14
f 11/41/14 19/44/16 20/42/15
f 12/45/17 21/46/18 13/47/17
f 12/45/17 20/48/19 21/46/18
f 13/49/20 22/50/21 14/51/20
f 13/49/20 21/52/22 22/50/21
f 14/53/23 22/54/24 15/55/23
f 15/55/23 22/54/24 23/56/24
f 15/57/25 24/58/26 16/59/25
f 15/57/25 23/60/27 24/58/26
f 16/61/28 17/62/29 9/63/28
f 16/61/28 24/64/30 17/62/29
f 17/36/11 26/65/31 18/34/10
f 17/36/11 25/66/32 26/65/31
f 18/38/13 27/67/33 19/40/13
f 18/38/13 26/68/34 27/67/33
f 19/44/16 28/69/35 20/42/15
f 19/44/16 27/70/36 28/69/35
f 20/48/19 29/71/37 21/46/18
f 20/48/19 28/72/37 29/71/37
f 21/52/22 30/73/38 22/50/21
f 21/52/22 29/74/39 30/73/38
f 22/54/24 31/75/40 23/56/24
f 22/54/24 30/76/41 31/75/40
f 23/60/27 32/77/42 24/58/26
f 23/60/27 31/78/43 32/77/42
f 24/64/30 25/79/44 17/62/29
f 24/64/30 32/80/44 25/79/44
f 25/66/32 34/81/45 26/65/31
f 25/66/32 33/82/45 34/81/45
f 26/68/34 35/83/46 27/67/33
f 26/68/34 34/84/46 35/83/46
f 27/70/36 36/85/47 28/69/35
f 27/70/36 35/86/47 36/85/47
f 28/72/37 36/87/48 29/71/37
f 29/71/37 36/87/48 37/88/48
f 29/74/39 38/89/49 30/73/38
f 29/74/39 37/90/49 38/89/49
f 30/76/41 39/91/50 31/75/40
f 30/76/41 38/92/50 39/91/50
f 31/78/43 40/93/51 32/77/42
f 31/78/43 39/94/51 40/93/51
f 32/80/44 40/95/52 25/79/44
f 25/79/44 40/95/52 33/96/52
f 33/97/53 42/98/53 34/99/53
f 33/97/53 41/100/53 42/98/53
f 34/101/54 43/102/54 35/103/54
f 34/101/54 42/104/54 43/102/54
f 35/105/55 44/106/55 36/107/55
f 35/105/55 43/108/55 44/106/55
f 36/109/56 45/110/56 37/111/56
f 36/109/56 44/112/56 45/110/56
f 37/113/57 46/114/57 38/115/57
f 37/113/57 45/116/57 46/114/57
f 38/117/58 47/118/58 39/119/58
f 38/117/58 46/120/58 47/118/58
f 39/121/59 48/122/59 40/123/59
f 39/121/59 47/124/59 48/122/59
f 40/125/60 41/126/60 33/127/60
f 40/125/60 48/128/60 41/126/60
f 1/129/61 2/130/61 3/131/61
f 1/129/61 3/131/61 4/132/61
f 5/133/61 6/134/61 7/135/61
f 5/133/61 7/135/61 8/136/61
f 8/136/61 1/129/61 4/132/61
f 4/132/61 5/133/61 8/136/61
f 41/137/62 43/138/62 42/139/62
f 41/137/62 44/140/62 43/138/62
f 45/141/62 47/142/62 46/143/62
f 45/141/62 48/144/62 47/142/62
f 48/144/62 44/140/62 41/137/62
f 44/140/62 48/144/62 45/141/62
