# mech2 arm L, segment Thumb2, colour Grey #8A8A8A
# arm space (origin = shoulder centre, studs); segment pivot [0.08677357498616707, -7.634393846845605, -0.541188521382688]
# bbox centre [0.2315, -7.942, -0.5395] (Roblox recentres on import: place at armCF * CFrame.new(centre))
o Mech2Arm_L_Thumb2_Grey
v 0.08677 -8.01016 -0.60447
v 0.10304 -8.04473 -0.59206
v 0.11309 -8.06609 -0.55956
v 0.11309 -8.06609 -0.51939
v 0.10304 -8.04473 -0.48689
v 0.08677 -8.01016 -0.47447
v 0.07050 -7.97559 -0.48689
v 0.06045 -7.95422 -0.51939
v 0.06045 -7.95422 -0.55956
v 0.07050 -7.97559 -0.59206
v 0.10487 -8.00164 -0.62447
v 0.12614 -8.04685 -0.60824
v 0.13929 -8.07479 -0.56574
v 0.13929 -8.07479 -0.51321
v 0.12614 -8.04685 -0.47071
v 0.10487 -8.00164 -0.45447
v 0.08359 -7.95643 -0.47071
v 0.07045 -7.92849 -0.51321
v 0.07045 -7.92849 -0.56574
v 0.08359 -7.95643 -0.60824
v 0.35822 -7.88242 -0.62447
v 0.37949 -7.92762 -0.60824
v 0.39264 -7.95556 -0.56574
v 0.39264 -7.95556 -0.51321
v 0.37949 -7.92762 -0.47071
v 0.35822 -7.88242 -0.45447
v 0.33694 -7.83721 -0.47071
v 0.32380 -7.80927 -0.51321
v 0.32380 -7.80927 -0.56574
v 0.33694 -7.83721 -0.60824
v 0.37631 -7.87390 -0.60447
v 0.39258 -7.90847 -0.59206
v 0.40264 -7.92984 -0.55956
v 0.40264 -7.92984 -0.51939
v 0.39258 -7.90847 -0.48689
v 0.37631 -7.87390 -0.47447
v 0.36005 -7.83933 -0.48689
v 0.34999 -7.81797 -0.51939
v 0.34999 -7.81797 -0.55956
v 0.36005 -7.83933 -0.59206
vt -0.60757 1.78327
vt -0.61798 1.79134
vt -0.61103 1.79243
vt -0.61345 1.77935
vt -0.72752 -0.32586
vt -0.73803 -0.33402
vt -0.73103 -0.33501
vt -0.73343 -0.32205
vt -0.73695 -0.34679
vt -0.73020 -0.34478
vt 0.68158 1.66854
vt 0.68841 1.66930
vt 0.68133 1.65933
vt 0.68807 1.65725
vt 0.67635 1.65061
vt 0.68156 1.64585
vt 0.66854 1.64571
vt 0.67135 1.63945
vt -0.12172 1.89805
vt -0.11768 1.89250
vt -0.12985 1.89370
vt -0.12830 1.88681
vt -0.14143 1.88681
vt -0.13989 1.89370
vt -0.15206 1.89250
vt -0.14801 1.89805
vt -0.60045 1.77653
vt -0.60414 1.77054
vt 0.06796 1.87515
vt -0.00130 1.85855
vt 0.06259 1.88714
vt 0.00407 1.84656
vt 0.54354 -1.14098
vt 0.47607 -1.12232
vt 0.54004 -1.15364
vt 0.47257 -1.13497
vt 0.82805 0.14143
vt 0.75805 0.12830
vt 0.82805 0.12830
vt 0.75805 0.14143
vt 0.48186 1.36396
vt 0.41790 1.33264
vt 0.48536 1.35130
vt 0.41440 1.34530
vt -0.02854 1.96322
vt 0.03535 1.93463
vt -0.03391 1.95124
vt 0.02998 1.92264
vt -0.06259 1.88714
vt -0.00407 1.84656
vt -0.06796 1.87515
vt 0.00130 1.85855
vt 0.54004 1.15364
vt 0.47257 1.13497
vt 0.54354 1.14098
vt 0.47607 1.12232
vt 0.82805 -0.12830
vt 0.75805 -0.14143
vt 0.82805 -0.14143
vt 0.75805 -0.12830
vt 0.48536 -1.35130
vt 0.41440 -1.34530
vt 0.48186 -1.36396
vt 0.41790 -1.33264
vt 0.03391 1.95124
vt -0.02998 1.92264
vt 0.02854 1.96322
vt -0.03535 1.93463
vt -0.47086 1.87425
vt -0.48386 1.87707
vt -0.48017 1.88306
vt -0.47674 1.87033
vt 0.15206 1.86358
vt 0.13989 1.86239
vt 0.14143 1.86927
vt 0.14801 1.85804
vt 0.12985 1.86239
vt 0.12830 1.86927
vt 0.11768 1.86358
vt 0.12172 1.85804
vt 0.63895 1.77738
vt 0.64265 1.77139
vt 0.62964 1.76858
vt 0.63553 1.76466
vt 0.62511 1.75659
vt 0.63206 1.75549
vt -0.74917 0.79525
vt -0.75540 0.79190
vt -0.74563 0.78260
vt -0.75269 0.78223
vt -0.73610 -0.58079
vt -0.74202 -0.59256
vt -0.73501 -0.59356
vt -0.74284 -0.58280
vt -0.74553 -0.60171
vt -0.73961 -0.60552
vt -0.46633 1.86226
vt -0.47328 1.86116
vt -0.14801 1.81162
vt -0.15112 1.82117
vt -0.14801 1.83072
vt -0.13989 1.83663
vt -0.13989 1.80572
vt -0.12985 1.83663
vt -0.12985 1.80572
vt -0.12172 1.81162
vt -0.12172 1.83072
vt -0.11862 1.82117
vt 0.14801 1.81162
vt 0.14801 1.83072
vt 0.15112 1.82117
vt 0.13989 1.83663
vt 0.13989 1.80572
vt 0.12985 1.83663
vt 0.12985 1.80572
vt 0.12172 1.83072
vt 0.12172 1.81162
vt 0.11862 1.82117
vn -0.5987 -0.3817 -0.7042
vn -0.4837 -0.6294 -0.6082
vn -0.4298 -0.7406 -0.5165
vn -0.6655 -0.2431 -0.7057
vn -0.3611 -0.8900 -0.2784
vn -0.3401 -0.9311 -0.1316
vn -0.3535 -0.9096 0.2185
vn -0.4298 -0.7406 0.5165
vn -0.4837 -0.6294 0.6082
vn -0.5987 -0.3817 0.7042
vn -0.6655 -0.2431 0.7057
vn -0.7823 0.0085 0.6229
vn -0.8370 0.1213 0.5336
vn -0.9262 0.3074 0.2185
vn -0.9326 0.3245 -0.1578
vn -0.9105 0.2809 -0.3036
vn -0.8370 0.1213 -0.5336
vn -0.7823 0.0085 -0.6229
vn 0.1316 -0.2796 -0.9511
vn 0.3445 -0.7320 -0.5878
vn 0.4258 -0.9048 0.0000
vn 0.3445 -0.7320 0.5878
vn 0.1316 -0.2796 0.9511
vn -0.1316 0.2796 0.9511
vn -0.3445 0.7320 0.5878
vn -0.4258 0.9048 0.0000
vn -0.3445 0.7320 -0.5878
vn -0.1316 0.2796 -0.9511
vn 0.6655 0.2431 -0.7057
vn 0.7823 -0.0085 -0.6229
vn 0.8370 -0.1213 -0.5336
vn 0.5987 0.3817 -0.7042
vn 0.9105 -0.2809 -0.3036
vn 0.9326 -0.3245 -0.1578
vn 0.9262 -0.3074 0.2185
vn 0.8370 -0.1213 0.5336
vn 0.7823 -0.0085 0.6229
vn 0.6655 0.2431 0.7057
vn 0.5987 0.3817 0.7042
vn 0.4837 0.6294 0.6082
vn 0.4298 0.7406 0.5165
vn 0.3535 0.9096 0.2185
vn 0.3401 0.9311 -0.1316
vn 0.3611 0.8900 -0.2784
vn 0.4298 0.7406 -0.5165
vn 0.4837 0.6294 -0.6082
vn -0.9048 -0.4258 0.0000
vn 0.9048 0.4258 0.0000
s off
f 1/1/1 12/2/2 2/3/3
f 1/1/1 11/4/4 12/2/2
f 2/5/3 13/6/5 3/7/6
f 2/5/3 12/8/2 13/6/5
f 3/7/6 14/9/7 4/10/7
f 3/7/6 13/6/5 14/9/7
f 4/11/7 14/12/7 5/13/8
f 5/13/8 14/12/7 15/14/9
f 5/13/8 15/14/9 6/15/10
f 6/15/10 15/14/9 16/16/11
f 6/15/10 16/16/11 7/17/12
f 7/17/12 16/16/11 17/18/13
f 7/19/12 17/20/13 8/21/14
f 8/21/14 17/20/13 18/22/14
f 8/21/14 19/23/15 9/24/16
f 8/21/14 18/22/14 19/23/15
f 9/24/16 20/25/17 10/26/18
f 9/24/16 19/23/15 20/25/17
f 10/27/18 11/4/4 1/1/1
f 10/27/18 20/28/17 11/4/4
f 11/29/19 22/30/19 12/31/19
f 11/29/19 21/32/19 22/30/19
f 12/33/20 22/34/20 13/35/20
f 13/35/20 22/34/20 23/36/20
f 13/37/21 24/38/21 14/39/21
f 13/37/21 23/40/21 24/38/21
f 14/41/22 25/42/22 15/43/22
f 14/41/22 24/44/22 25/42/22
f 15/45/23 25/46/23 16/47/23
f 16/47/23 25/46/23 26/48/23
f 16/49/24 27/50/24 17/51/24
f 16/49/24 26/52/24 27/50/24
f 17/53/25 27/54/25 18/55/25
f 18/55/25 27/54/25 28/56/25
f 18/57/26 29/58/26 19/59/26
f 18/57/26 28/60/26 29/58/26
f 19/61/27 30/62/27 20/63/27
f 19/61/27 29/64/27 30/62/27
f 20/65/28 30/66/28 11/67/28
f 11/67/28 30/66/28 21/68/28
f 21/69/29 32/70/30 22/71/31
f 21/69/29 31/72/32 32/70/30
f 22/73/31 33/74/33 23/75/34
f 22/73/31 32/76/30 33/74/33
f 23/75/34 34/77/35 24/78/35
f 23/75/34 33/74/33 34/77/35
f 24/78/35 34/77/35 25/79/36
f 25/79/36 34/77/35 35/80/37
f 25/81/36 35/82/37 26/83/38
f 26/83/38 35/82/37 36/84/39
f 26/83/38 36/84/39 27/85/40
f 27/85/40 36/84/39 37/86/41
f 27/87/40 37/88/41 28/89/42
f 28/89/42 37/88/41 38/90/42
f 28/91/42 39/92/43 29/93/44
f 28/91/42 38/94/42 39/92/43
f 29/93/44 40/95/45 30/96/46
f 29/93/44 39/92/43 40/95/45
f 30/97/46 31/72/32 21/69/29
f 30/97/46 40/98/45 31/72/32
f 10/99/47 1/100/47 2/101/47
f 10/99/47 2/101/47 3/102/47
f 9/103/47 10/99/47 3/102/47
f 9/103/47 3/102/47 4/104/47
f 8/105/47 9/103/47 4/104/47
f 7/106/47 8/105/47 4/104/47
f 7/106/47 4/104/47 5/107/47
f 5/107/47 6/108/47 7/106/47
f 40/109/48 32/110/48 31/111/48
f 40/109/48 33/112/48 32/110/48
f 39/113/48 33/112/48 40/109/48
f 39/113/48 34/114/48 33/112/48
f 38/115/48 34/114/48 39/113/48
f 38/115/48 35/116/48 34/114/48
f 37/117/48 35/116/48 38/115/48
f 35/116/48 37/117/48 36/118/48
