# mech2 arm L, segment Middle1, colour Grey #8A8A8A
# arm space (origin = shoulder centre, studs); segment pivot [-0.36, -7.87, -0.16]
# bbox centre [-0.3103, -8.4378, -0.16] (Roblox recentres on import: place at armCF * CFrame.new(centre))
o Mech2Arm_L_Middle1_Grey
v -0.37532 -8.43783 -0.01000
v -0.36291 -8.47604 -0.01000
v -0.33041 -8.49965 -0.01000
v -0.29024 -8.49965 -0.01000
v -0.25774 -8.47604 -0.01000
v -0.24532 -8.43783 -0.01000
v -0.25774 -8.39962 -0.01000
v -0.29024 -8.37601 -0.01000
v -0.33041 -8.37601 -0.01000
v -0.36291 -8.39962 -0.01000
v -0.39532 -8.43783 -0.03000
v -0.37909 -8.48779 -0.03000
v -0.33659 -8.51867 -0.03000
v -0.28405 -8.51867 -0.03000
v -0.24155 -8.48779 -0.03000
v -0.22532 -8.43783 -0.03000
v -0.24155 -8.38787 -0.03000
v -0.28405 -8.35699 -0.03000
v -0.33659 -8.35699 -0.03000
v -0.37909 -8.38787 -0.03000
v -0.39532 -8.43783 -0.29000
v -0.37909 -8.48779 -0.29000
v -0.33659 -8.51867 -0.29000
v -0.28405 -8.51867 -0.29000
v -0.24155 -8.48779 -0.29000
v -0.22532 -8.43783 -0.29000
v -0.24155 -8.38787 -0.29000
v -0.28405 -8.35699 -0.29000
v -0.33659 -8.35699 -0.29000
v -0.37909 -8.38787 -0.29000
v -0.37532 -8.43783 -0.31000
v -0.36291 -8.47604 -0.31000
v -0.33041 -8.49965 -0.31000
v -0.29024 -8.49965 -0.31000
v -0.25774 -8.47604 -0.31000
v -0.24532 -8.43783 -0.31000
v -0.25774 -8.39962 -0.31000
v -0.29024 -8.37601 -0.31000
v -0.33041 -8.37601 -0.31000
v -0.36291 -8.39962 -0.31000
vt -0.06812 2.10946
vt -0.07232 2.12195
vt -0.06592 2.11901
vt -0.07519 2.10946
vt -0.09073 1.56301
vt -0.08415 1.57424
vt -0.08260 1.56736
vt -0.09477 1.56856
vt -0.07101 1.57424
vt -0.07256 1.56736
vt -0.06443 1.56301
vt -0.06039 1.56856
vt -0.04379 2.11901
vt -0.03740 2.12195
vt -0.04160 2.10946
vt -0.03453 2.10946
vt -0.03740 2.09697
vt -0.04379 2.09991
vt -0.06443 1.54555
vt -0.07101 1.53432
vt -0.07256 1.54120
vt -0.06039 1.54001
vt -0.08415 1.53432
vt -0.08260 1.54120
vt -0.09073 1.54555
vt -0.09477 1.54001
vt -0.06592 2.09991
vt -0.07232 2.09697
vt -0.00750 1.97567
vt -0.07250 1.98881
vt -0.00750 1.98881
vt -0.07250 1.97567
vt -1.17058 0.00750
vt -1.18371 0.07250
vt -1.18371 0.00750
vt -1.17058 0.07250
vt 0.08415 0.00750
vt 0.07101 0.07250
vt 0.07101 0.00750
vt 0.08415 0.07250
vt 1.30924 0.00750
vt 1.29611 0.07250
vt 1.29611 0.00750
vt 1.30924 0.07250
vt 0.00750 2.03675
vt 0.07250 2.02362
vt 0.00750 2.02362
vt 0.07250 2.03675
vt 0.00750 1.98881
vt 0.07250 1.97567
vt 0.00750 1.97567
vt 0.07250 1.98881
vt -1.18371 -0.00750
vt -1.17058 -0.07250
vt -1.17058 -0.00750
vt -1.18371 -0.07250
vt 0.07101 -0.00750
vt 0.08415 -0.07250
vt 0.08415 -0.00750
vt 0.07101 -0.07250
vt 1.29611 -0.00750
vt 1.30924 -0.07250
vt 1.30924 -0.00750
vt 1.29611 -0.07250
vt -0.00750 2.02362
vt -0.07250 2.03675
vt -0.00750 2.03675
vt -0.07250 2.02362
vt 0.01862 2.10946
vt 0.01155 2.10946
vt 0.01575 2.12195
vt 0.00935 2.11901
vt 0.09477 1.51447
vt 0.09073 1.50892
vt 0.08415 1.52016
vt 0.08260 1.51327
vt 0.07256 1.51327
vt 0.07101 1.52016
vt 0.06443 1.50892
vt 0.06039 1.51447
vt 0.09397 2.12195
vt 0.09817 2.10946
vt 0.09110 2.10946
vt 0.10036 2.11901
vt 0.09397 2.09697
vt 0.10036 2.09991
vt 0.06039 1.59410
vt 0.06443 1.59964
vt 0.07101 1.58841
vt 0.07256 1.59529
vt 0.08260 1.59529
vt 0.08415 1.58841
vt 0.09073 1.59964
vt 0.09477 1.59410
vt 0.01575 2.09697
vt 0.00935 2.09991
vt -0.09073 2.09991
vt -0.09383 2.10946
vt -0.09073 2.11901
vt -0.08260 2.09400
vt -0.08260 2.12491
vt -0.07256 2.12491
vt -0.07256 2.09400
vt -0.06443 2.11901
vt -0.06443 2.09991
vt -0.06133 2.10946
vt 0.09073 2.09991
vt 0.09073 2.11901
vt 0.09383 2.10946
vt 0.08260 2.09400
vt 0.08260 2.12491
vt 0.07256 2.12491
vt 0.07256 2.09400
vt 0.06443 2.11901
vt 0.06443 2.09991
vt 0.06133 2.10946
vn -0.7071 0.0000 0.7071
vn -0.6082 -0.3635 0.7057
vn -0.5165 -0.4871 0.7042
vn -0.2784 -0.6515 0.7057
vn -0.1316 -0.6977 0.7042
vn 0.2185 -0.6725 0.7071
vn 0.5165 -0.4871 0.7042
vn 0.6082 -0.3635 0.7057
vn 0.7071 0.0000 0.7071
vn 0.6082 0.3635 0.7057
vn 0.5165 0.4871 0.7042
vn 0.2784 0.6515 0.7057
vn 0.1316 0.6977 0.7042
vn -0.2185 0.6725 0.7071
vn -0.5165 0.4871 0.7042
vn -0.6082 0.3635 0.7057
vn -0.9511 -0.3090 0.0000
vn -0.5878 -0.8090 0.0000
vn 0.0000 -1.0000 0.0000
vn 0.5878 -0.8090 0.0000
vn 0.9511 -0.3090 0.0000
vn 0.9511 0.3090 0.0000
vn 0.5878 0.8090 0.0000
vn 0.0000 1.0000 0.0000
vn -0.5878 0.8090 0.0000
vn -0.9511 0.3090 0.0000
vn -0.7071 0.0000 -0.7071
vn -0.6082 -0.3635 -0.7057
vn -0.5165 -0.4871 -0.7042
vn -0.2185 -0.6725 -0.7071
vn 0.1316 -0.6977 -0.7042
vn 0.2784 -0.6515 -0.7057
vn 0.5165 -0.4871 -0.7042
vn 0.6082 -0.3635 -0.7057
vn 0.7071 0.0000 -0.7071
vn 0.6082 0.3635 -0.7057
vn 0.5165 0.4871 -0.7042
vn 0.2185 0.6725 -0.7071
vn -0.1316 0.6977 -0.7042
vn -0.2784 0.6515 -0.7057
vn -0.5165 0.4871 -0.7042
vn -0.6082 0.3635 -0.7057
vn 0.0000 0.0000 1.0000
vn 0.0000 0.0000 -1.0000
s off
f 1/1/1 12/2/2 2/3/3
f 1/1/1 11/4/1 12/2/2
f 2/5/3 13/6/4 3/7/5
f 2/5/3 12/8/2 13/6/4
f 3/7/5 14/9/6 4/10/6
f 3/7/5 13/6/4 14/9/6
f 4/10/6 14/9/6 5/11/7
f 5/11/7 14/9/6 15/12/8
f 5/13/7 15/14/8 6/15/9
f 6/15/9 15/14/8 16/16/9
f 6/15/9 17/17/10 7/18/11
f 6/15/9 16/16/9 17/17/10
f 7/19/11 18/20/12 8/21/13
f 7/19/11 17/22/10 18/20/12
f 8/21/13 19/23/14 9/24/14
f 8/21/13 18/20/12 19/23/14
f 9/24/14 19/23/14 10/25/15
f 10/25/15 19/23/14 20/26/16
f 10/27/15 20/28/16 1/1/1
f 1/1/1 20/28/16 11/4/1
f 11/29/17 22/30/17 12/31/17
f 11/29/17 21/32/17 22/30/17
f 12/33/18 23/34/18 13/35/18
f 12/33/18 22/36/18 23/34/18
f 13/37/19 24/38/19 14/39/19
f 13/37/19 23/40/19 24/38/19
f 14/41/20 25/42/20 15/43/20
f 14/41/20 24/44/20 25/42/20
f 15/45/21 26/46/21 16/47/21
f 15/45/21 25/48/21 26/46/21
f 16/49/22 27/50/22 17/51/22
f 16/49/22 26/52/22 27/50/22
f 17/53/23 28/54/23 18/55/23
f 17/53/23 27/56/23 28/54/23
f 18/57/24 29/58/24 19/59/24
f 18/57/24 28/60/24 29/58/24
f 19/61/25 30/62/25 20/63/25
f 19/61/25 29/64/25 30/62/25
f 20/65/26 21/66/26 11/67/26
f 20/65/26 30/68/26 21/66/26
f 21/69/27 31/70/27 22/71/28
f 22/71/28 31/70/27 32/72/29
f 22/73/28 32/74/29 23/75/30
f 23/75/30 32/74/29 33/76/30
f 23/75/30 34/77/31 24/78/32
f 23/75/30 33/76/30 34/77/31
f 24/78/32 35/79/33 25/80/34
f 24/78/32 34/77/31 35/79/33
f 25/81/34 36/82/35 26/83/35
f 25/81/34 35/84/33 36/82/35
f 26/83/35 36/82/35 27/85/36
f 27/85/36 36/82/35 37/86/37
f 27/87/36 37/88/37 28/89/38
f 28/89/38 37/88/37 38/90/38
f 28/89/38 39/91/39 29/92/40
f 28/89/38 38/90/38 39/91/39
f 29/92/40 40/93/41 30/94/42
f 29/92/40 39/91/39 40/93/41
f 30/95/42 31/70/27 21/69/27
f 30/95/42 40/96/41 31/70/27
f 10/97/43 1/98/43 2/99/43
f 9/100/43 10/97/43 2/99/43
f 9/100/43 2/99/43 3/101/43
f 9/100/43 3/101/43 4/102/43
f 8/103/43 9/100/43 4/102/43
f 8/103/43 4/102/43 5/104/43
f 7/105/43 8/103/43 5/104/43
f 5/104/43 6/106/43 7/105/43
f 40/107/44 32/108/44 31/109/44
f 39/110/44 32/108/44 40/107/44
f 39/110/44 33/111/44 32/108/44
f 39/110/44 34/112/44 33/111/44
f 38/113/44 34/112/44 39/110/44
f 38/113/44 35/114/44 34/112/44
f 37/115/44 35/114/44 38/113/44
f 35/114/44 37/115/44 36/116/44
