# mech2 arm L, segment Pinky2, colour Grey #8A8A8A
# arm space (origin = shoulder centre, studs); segment pivot [-0.2806713324527627, -8.434452799182695, 0.48]
# bbox centre [0.1118, -8.7756, 0.48] (Roblox recentres on import: place at armCF * CFrame.new(centre))
o Mech2Arm_L_Pinky2_Grey
v 0.04678 -8.77560 0.63000
v 0.05919 -8.81381 0.63000
v 0.09169 -8.83742 0.63000
v 0.13186 -8.83742 0.63000
v 0.16436 -8.81381 0.63000
v 0.17678 -8.77560 0.63000
v 0.16436 -8.73740 0.63000
v 0.13186 -8.71378 0.63000
v 0.09169 -8.71378 0.63000
v 0.05919 -8.73740 0.63000
v 0.02678 -8.77560 0.61000
v 0.04301 -8.82557 0.61000
v 0.08551 -8.85644 0.61000
v 0.13804 -8.85644 0.61000
v 0.18054 -8.82557 0.61000
v 0.19678 -8.77560 0.61000
v 0.18054 -8.72564 0.61000
v 0.13804 -8.69476 0.61000
v 0.08551 -8.69476 0.61000
v 0.04301 -8.72564 0.61000
v 0.02678 -8.77560 0.35000
v 0.04301 -8.82557 0.35000
v 0.08551 -8.85644 0.35000
v 0.13804 -8.85644 0.35000
v 0.18054 -8.82557 0.35000
v 0.19678 -8.77560 0.35000
v 0.18054 -8.72564 0.35000
v 0.13804 -8.69476 0.35000
v 0.08551 -8.69476 0.35000
v 0.04301 -8.72564 0.35000
v 0.04678 -8.77560 0.33000
v 0.05919 -8.81381 0.33000
v 0.09169 -8.83742 0.33000
v 0.13186 -8.83742 0.33000
v 0.16436 -8.81381 0.33000
v 0.17678 -8.77560 0.33000
v 0.16436 -8.73740 0.33000
v 0.13186 -8.71378 0.33000
v 0.09169 -8.71378 0.33000
v 0.05919 -8.73740 0.33000
vt 0.11964 2.19390
vt 0.11544 2.20639
vt 0.12183 2.20345
vt 0.11257 2.19390
vt 0.01480 1.51705
vt 0.02138 1.52829
vt 0.02292 1.52140
vt 0.01075 1.52260
vt 0.03451 1.52829
vt 0.03297 1.52140
vt 0.04109 1.51705
vt 0.04514 1.52260
vt -0.08231 2.20345
vt -0.07592 2.20639
vt -0.08012 2.19390
vt -0.07305 2.19390
vt -0.07592 2.18141
vt -0.08231 2.18435
vt 0.04109 1.71595
vt 0.03451 1.70471
vt 0.03297 1.71160
vt 0.04514 1.71040
vt 0.02138 1.70471
vt 0.02292 1.71160
vt 0.01480 1.71595
vt 0.01075 1.71040
vt 0.12183 2.18435
vt 0.11544 2.18141
vt 0.15250 2.08859
vt 0.08750 2.10173
vt 0.15250 2.10173
vt 0.08750 2.08859
vt -1.30558 -0.15250
vt -1.31872 -0.08750
vt -1.31872 -0.15250
vt -1.30558 -0.08750
vt -0.02138 -0.15250
vt -0.03451 -0.08750
vt -0.03451 -0.15250
vt -0.02138 -0.08750
vt 1.27350 -0.15250
vt 1.26037 -0.08750
vt 1.26037 -0.15250
vt 1.27350 -0.08750
vt -0.15250 2.08446
vt -0.08750 2.07132
vt -0.15250 2.07132
vt -0.08750 2.08446
vt -0.15250 2.10173
vt -0.08750 2.08859
vt -0.15250 2.08859
vt -0.08750 2.10173
vt -1.31872 0.15250
vt -1.30558 0.08750
vt -1.30558 0.15250
vt -1.31872 0.08750
vt -0.03451 0.15250
vt -0.02138 0.08750
vt -0.02138 0.15250
vt -0.03451 0.08750
vt 1.26037 0.15250
vt 1.27350 0.08750
vt 1.27350 0.15250
vt 1.26037 0.08750
vt 0.15250 2.07132
vt 0.08750 2.08446
vt 0.15250 2.08446
vt 0.08750 2.07132
vt 0.05714 2.19390
vt 0.05007 2.19390
vt 0.05427 2.20639
vt 0.04787 2.20345
vt -0.01075 1.68486
vt -0.01480 1.67932
vt -0.02138 1.69055
vt -0.02292 1.68367
vt -0.03451 1.69055
vt -0.03297 1.68367
vt -0.04109 1.67932
vt -0.04514 1.68486
vt -0.09379 2.20639
vt -0.08959 2.19390
vt -0.09666 2.19390
vt -0.08739 2.20345
vt -0.09379 2.18141
vt -0.08739 2.18435
vt -0.04514 1.54814
vt -0.04109 1.55369
vt -0.03451 1.54245
vt -0.03297 1.54934
vt -0.02292 1.54934
vt -0.02138 1.54245
vt -0.01480 1.55369
vt -0.01075 1.54814
vt 0.05427 2.18141
vt 0.04787 2.18435
vt 0.04109 2.20345
vt 0.04419 2.19390
vt 0.04109 2.18435
vt 0.03297 2.20936
vt 0.03297 2.17845
vt 0.02292 2.17845
vt 0.02292 2.20936
vt 0.01480 2.20345
vt 0.01480 2.18435
vt 0.01169 2.19390
vt -0.04109 2.20345
vt -0.04109 2.18435
vt -0.04419 2.19390
vt -0.03297 2.20936
vt -0.03297 2.17845
vt -0.02292 2.17845
vt -0.02292 2.20936
vt -0.01480 2.20345
vt -0.01480 2.18435
vt -0.01169 2.19390
vn -0.7071 0.0000 0.7071
vn -0.6082 -0.3635 0.7057
vn -0.5165 -0.4871 0.7042
vn -0.2784 -0.6515 0.7057
vn -0.1316 -0.6977 0.7042
vn 0.2185 -0.6725 0.7071
vn 0.5165 -0.4871 0.7042
vn 0.6082 -0.3635 0.7057
vn 0.7071 0.0000 0.7071
vn 0.6082 0.3635 0.7057
vn 0.5165 0.4871 0.7042
vn 0.2784 0.6515 0.7057
vn 0.1316 0.6977 0.7042
vn -0.2185 0.6725 0.7071
vn -0.5165 0.4871 0.7042
vn -0.6082 0.3635 0.7057
vn -0.9511 -0.3090 0.0000
vn -0.5878 -0.8090 0.0000
vn 0.0000 -1.0000 0.0000
vn 0.5878 -0.8090 0.0000
vn 0.9511 -0.3090 0.0000
vn 0.9511 0.3090 0.0000
vn 0.5878 0.8090 0.0000
vn 0.0000 1.0000 0.0000
vn -0.5878 0.8090 0.0000
vn -0.9511 0.3090 0.0000
vn -0.7071 0.0000 -0.7071
vn -0.6082 -0.3635 -0.7057
vn -0.5165 -0.4871 -0.7042
vn -0.2784 -0.6515 -0.7057
vn -0.1316 -0.6977 -0.7042
vn 0.2185 -0.6725 -0.7071
vn 0.5165 -0.4871 -0.7042
vn 0.6082 -0.3635 -0.7057
vn 0.7071 0.0000 -0.7071
vn 0.6082 0.3635 -0.7057
vn 0.5165 0.4871 -0.7042
vn 0.2185 0.6725 -0.7071
vn -0.1316 0.6977 -0.7042
vn -0.2784 0.6515 -0.7057
vn -0.5165 0.4871 -0.7042
vn -0.6082 0.3635 -0.7057
vn 0.0000 0.0000 1.0000
vn 0.0000 0.0000 -1.0000
s off
f 1/1/1 12/2/2 2/3/3
f 1/1/1 11/4/1 12/2/2
f 2/5/3 13/6/4 3/7/5
f 2/5/3 12/8/2 13/6/4
f 3/7/5 14/9/6 4/10/6
f 3/7/5 13/6/4 14/9/6
f 4/10/6 14/9/6 5/11/7
f 5/11/7 14/9/6 15/12/8
f 5/13/7 15/14/8 6/15/9
f 6/15/9 15/14/8 16/16/9
f 6/15/9 17/17/10 7/18/11
f 6/15/9 16/16/9 17/17/10
f 7/19/11 18/20/12 8/21/13
f 7/19/11 17/22/10 18/20/12
f 8/21/13 19/23/14 9/24/14
f 8/21/13 18/20/12 19/23/14
f 9/24/14 19/23/14 10/25/15
f 10/25/15 19/23/14 20/26/16
f 10/27/15 20/28/16 1/1/1
f 1/1/1 20/28/16 11/4/1
f 11/29/17 22/30/17 12/31/17
f 11/29/17 21/32/17 22/30/17
f 12/33/18 23/34/18 13/35/18
f 12/33/18 22/36/18 23/34/18
f 13/37/19 24/38/19 14/39/19
f 13/37/19 23/40/19 24/38/19
f 14/41/20 25/42/20 15/43/20
f 14/41/20 24/44/20 25/42/20
f 15/45/21 26/46/21 16/47/21
f 15/45/21 25/48/21 26/46/21
f 16/49/22 27/50/22 17/51/22
f 16/49/22 26/52/22 27/50/22
f 17/53/23 28/54/23 18/55/23
f 17/53/23 27/56/23 28/54/23
f 18/57/24 29/58/24 19/59/24
f 18/57/24 28/60/24 29/58/24
f 19/61/25 30/62/25 20/63/25
f 19/61/25 29/64/25 30/62/25
f 20/65/26 21/66/26 11/67/26
f 20/65/26 30/68/26 21/66/26
f 21/69/27 31/70/27 22/71/28
f 22/71/28 31/70/27 32/72/29
f 22/73/28 32/74/29 23/75/30
f 23/75/30 32/74/29 33/76/31
f 23/75/30 33/76/31 24/77/32
f 24/77/32 33/76/31 34/78/32
f 24/77/32 35/79/33 25/80/34
f 24/77/32 34/78/32 35/79/33
f 25/81/34 36/82/35 26/83/35
f 25/81/34 35/84/33 36/82/35
f 26/83/35 36/82/35 27/85/36
f 27/85/36 36/82/35 37/86/37
f 27/87/36 37/88/37 28/89/38
f 28/89/38 37/88/37 38/90/38
f 28/89/38 39/91/39 29/92/40
f 28/89/38 38/90/38 39/91/39
f 29/92/40 40/93/41 30/94/42
f 29/92/40 39/91/39 40/93/41
f 30/95/42 31/70/27 21/69/27
f 30/95/42 40/96/41 31/70/27
f 5/97/43 6/98/43 7/99/43
f 4/100/43 5/97/43 7/99/43
f 4/100/43 7/99/43 8/101/43
f 4/100/43 8/101/43 9/102/43
f 3/103/43 4/100/43 9/102/43
f 2/104/43 3/103/43 9/102/43
f 2/104/43 9/102/43 10/105/43
f 1/106/43 2/104/43 10/105/43
f 35/107/44 37/108/44 36/109/44
f 34/110/44 37/108/44 35/107/44
f 34/110/44 38/111/44 37/108/44
f 34/110/44 39/112/44 38/111/44
f 33/113/44 39/112/44 34/110/44
f 32/114/44 39/112/44 33/113/44
f 32/114/44 40/115/44 39/112/44
f 31/116/44 40/115/44 32/114/44
