# mech2 arm L, segment Ring3, colour White #F2F2F2
# arm space (origin = shoulder centre, studs); segment pivot [0.06727675027956725, -8.804573006576922, 0.16]
# bbox centre [0.2028, -8.8891, 0.16] (Roblox recentres on import: place at armCF * CFrame.new(centre))
o Mech2Arm_L_Ring3_White
v 0.06358 -8.73306 0.25360
v 0.08861 -8.69140 0.23488
v 0.08861 -8.69140 0.08512
v 0.06358 -8.73306 0.06640
v 0.00796 -8.82563 0.06640
v -0.04324 -8.91083 0.11788
v -0.04324 -8.91083 0.20212
v 0.00796 -8.82563 0.25360
v 0.15263 -8.75961 0.29000
v 0.18739 -8.70175 0.26400
v 0.18739 -8.70175 0.05600
v 0.15263 -8.75961 0.03000
v 0.07537 -8.88818 0.03000
v 0.01228 -8.99319 0.10150
v 0.01228 -8.99319 0.21850
v 0.07537 -8.88818 0.29000
v 0.29622 -8.85070 0.28350
v 0.32925 -8.79574 0.25880
v 0.32925 -8.79574 0.06120
v 0.29622 -8.85070 0.03650
v 0.22283 -8.97285 0.03650
v 0.16186 -9.07431 0.10443
v 0.16186 -9.07431 0.21558
v 0.22283 -8.97285 0.28350
v 0.38846 -8.93018 0.25100
v 0.41279 -8.88968 0.23280
v 0.41279 -8.88968 0.08720
v 0.38846 -8.93018 0.06900
v 0.33438 -9.02019 0.06900
v 0.29433 -9.08683 0.11905
v 0.29433 -9.08683 0.20095
v 0.33438 -9.02019 0.25100
v 0.44877 -8.94630 0.16000
vt -0.19187 1.91307
vt -0.16916 1.92341
vt -0.18548 1.90172
vt -0.16030 1.90765
vt -1.20174 0.05872
vt -1.22386 0.01400
vt -1.20174 0.02128
vt -1.22386 0.06600
vt 0.19905 1.86110
vt 0.18273 1.88279
vt 0.20543 1.87245
vt 0.17386 1.86703
vt -0.01456 2.17902
vt -0.01739 2.21707
vt -0.00064 2.20211
vt -0.03672 2.18501
vt -0.26776 2.15514
vt -0.28863 2.16837
vt -0.25277 2.17876
vt -0.26906 2.19793
vt -1.03228 -0.02947
vt -1.05418 -0.05462
vt -1.03228 -0.05053
vt -1.05418 -0.02538
vt 0.29664 2.16102
vt 0.33250 2.15062
vt 0.31163 2.13739
vt 0.31293 2.18018
vt -0.00014 2.19648
vt 0.01661 2.21144
vt 0.01378 2.17340
vt 0.03595 2.17938
vt 0.08017 2.18894
vt 0.04471 2.16541
vt 0.07184 2.20221
vt -1.26640 0.01530
vt -1.26640 0.06470
vt -0.04549 2.17103
vt -0.08095 2.19456
vt -0.07262 2.20784
vt -0.05425 2.23830
vt -0.03916 2.26480
vt -0.00177 2.24451
vt -1.09672 -0.05389
vt -1.09672 -0.02611
vt 0.00099 2.23889
vt 0.03838 2.25917
vt 0.05347 2.23267
vt 0.10110 2.21282
vt 0.09497 2.22260
vt -1.29671 0.05820
vt -1.29671 0.02180
vt -0.10188 2.21845
vt -0.09575 2.22823
vt -0.08221 2.25068
vt -0.03643 1.83200
vt -0.05431 1.86718
vt -0.02117 1.86251
vt -0.06431 1.84635
vt -1.12746 -0.05024
vt -1.12746 -0.02976
vt 0.02021 1.81608
vt 0.05334 1.82075
vt 0.03546 1.78557
vt 0.06334 1.79992
vt 0.08143 2.24505
vt 0.02947 1.91509
vt 0.05053 1.91509
vt 0.06340 1.89024
vt 0.01660 1.89024
vt 0.01660 1.86324
vt 0.06340 1.86324
vt 0.02128 1.85109
vt 0.05872 1.85109
vt 0.57760 1.95365
vt 0.55449 1.94496
vt 0.55019 1.95674
vt -1.31196 0.04000
vt -0.64399 1.95365
vt -0.61658 1.95674
vt -0.62088 1.94496
vt -0.61540 1.98290
vt 1.49277 -0.04000
vt 1.54492 -0.02976
vt 1.52609 -0.01725
vt 1.54492 -0.05024
vt 1.52609 -0.06275
vt 0.54901 1.98290
vn -0.3025 0.2473 0.9205
vn -0.0360 0.3228 0.9458
vn -0.1968 0.4978 0.8446
vn 0.0700 0.3736 0.9250
vn 0.1042 0.9946 0.0000
vn 0.3375 0.9413 0.0000
vn 0.4584 0.8887 0.0000
vn -0.1968 0.4978 -0.8446
vn -0.0360 0.3228 -0.9458
vn -0.3025 0.2473 -0.9205
vn 0.0700 0.3736 -0.9250
vn -0.2139 -0.0072 -0.9768
vn -0.4607 0.0199 -0.8873
vn -0.1242 0.1675 -0.9780
vn -0.3515 -0.2267 -0.9083
vn -0.5624 -0.1834 -0.8063
vn -0.3531 -0.3723 -0.8583
vn -0.8292 -0.5589 0.0000
vn -0.6727 -0.7400 0.0000
vn -0.5695 -0.8220 0.0000
vn -0.5624 -0.1834 0.8063
vn -0.3515 -0.2267 0.9083
vn -0.4607 0.0199 0.8873
vn -0.3531 -0.3723 0.8583
vn -0.2139 -0.0072 0.9768
vn -0.1242 0.1675 0.9780
vn 0.0628 0.2091 0.9759
vn 0.2806 0.2480 0.9272
vn 0.1595 0.0223 0.9869
vn 0.6323 0.7747 0.0000
vn 0.6404 0.7681 0.0000
vn 0.2806 0.2480 -0.9272
vn 0.0628 0.2091 -0.9759
vn 0.1595 0.0223 -0.9869
vn 0.0243 0.1474 -0.9888
vn -0.1225 -0.0697 -0.9900
vn 0.0344 -0.1988 -0.9794
vn -0.3474 -0.3661 -0.8633
vn -0.1552 -0.4862 -0.8600
vn -0.1971 -0.2309 -0.9528
vn -0.0527 -0.3769 -0.9248
vn -0.3773 -0.9261 0.0000
vn -0.2615 -0.9652 0.0000
vn -0.1552 -0.4862 0.8600
vn -0.3474 -0.3661 0.8633
vn -0.1971 -0.2309 0.9528
vn -0.0527 -0.3769 0.9248
vn -0.1225 -0.0697 0.9900
vn 0.0243 0.1474 0.9888
vn 0.0344 -0.1988 0.9794
vn 0.4338 0.1394 0.8902
vn 0.2624 -0.0884 0.9609
vn 0.7666 0.6421 0.0000
vn 0.7832 0.6217 0.0000
vn 0.4338 0.1394 -0.8902
vn 0.2624 -0.0884 -0.9609
vn 0.1186 -0.2068 -0.9712
vn 0.2241 -0.1346 -0.9652
vn 0.0280 -0.3926 -0.9193
vn 0.0149 -0.5803 -0.8142
vn -0.0903 -0.5264 -0.8454
vn -0.0175 -0.5937 -0.8045
vn -0.0941 -0.9956 0.0000
vn 0.0149 -0.5803 0.8142
vn 0.0280 -0.3926 0.9193
vn -0.0903 -0.5264 0.8454
vn -0.0175 -0.5937 0.8045
vn 0.1186 -0.2068 0.9712
vn 0.2241 -0.1346 0.9652
vn -0.8572 0.5150 0.0000
vn 0.7275 -0.5111 0.4578
vn 0.7939 -0.2228 0.5657
vn 0.7434 -0.3688 0.5580
vn 0.8440 0.5363 0.0000
vn 0.7275 -0.5111 -0.4578
vn 0.7434 -0.3688 -0.5580
vn 0.7939 -0.2228 -0.5657
vn 0.7059 -0.5619 -0.4312
vn 0.7305 -0.6128 -0.3014
vn 0.6869 -0.7110 -0.1506
vn 0.7031 -0.7111 0.0000
vn 0.6869 -0.7110 0.1506
vn 0.7305 -0.6128 0.3014
vn 0.7059 -0.5619 0.4312
s off
f 1/1/1 9/2/2 2/3/3
f 2/3/3 9/2/2 10/4/4
f 2/5/5 11/6/6 3/7/5
f 2/5/5 10/8/7 11/6/6
f 3/9/8 12/10/9 4/11/10
f 3/9/8 11/12/11 12/10/9
f 4/13/10 13/14/12 5/15/13
f 4/13/10 12/16/14 13/14/12
f 5/17/13 13/18/15 6/19/16
f 6/19/16 13/18/15 14/20/17
f 6/21/18 15/22/19 7/23/18
f 6/21/18 14/24/20 15/22/19
f 7/25/21 16/26/22 8/27/23
f 7/25/21 15/28/24 16/26/22
f 8/29/23 16/30/25 1/31/1
f 1/31/1 16/30/25 9/32/26
f 9/32/27 18/33/28 10/34/4
f 9/32/27 17/35/29 18/33/28
f 10/8/7 19/36/30 11/6/6
f 10/8/7 18/37/31 19/36/30
f 11/38/11 19/39/32 12/16/33
f 12/16/33 19/39/32 20/40/34
f 12/16/35 20/40/34 13/14/36
f 13/14/36 20/40/34 21/41/37
f 13/14/38 22/42/39 14/43/17
f 13/14/40 21/41/41 22/42/39
f 14/24/20 23/44/42 15/22/19
f 14/24/20 22/45/43 23/44/42
f 15/46/24 23/47/44 16/30/45
f 16/30/46 23/47/44 24/48/47
f 16/30/48 17/35/29 9/32/49
f 16/30/48 24/48/50 17/35/29
f 17/35/29 26/49/51 18/33/28
f 17/35/29 25/50/52 26/49/51
f 18/37/31 26/51/53 19/36/30
f 19/36/30 26/51/53 27/52/54
f 19/39/32 27/53/55 20/40/34
f 20/40/34 27/53/55 28/54/56
f 20/40/34 28/54/56 21/41/57
f 21/41/57 28/54/56 29/55/58
f 21/56/59 30/57/60 22/58/39
f 21/56/61 29/59/62 30/57/60
f 22/45/43 31/60/63 23/44/42
f 22/45/43 30/61/63 31/60/63
f 23/62/44 31/63/64 24/64/65
f 24/64/66 31/63/64 32/65/67
f 24/48/68 25/50/52 17/35/29
f 24/48/68 32/66/69 25/50/52
f 6/67/70 7/68/70 8/69/70
f 5/70/70 6/67/70 8/69/70
f 4/71/70 5/70/70 8/69/70
f 4/71/70 8/69/70 1/72/70
f 3/73/70 4/71/70 1/72/70
f 1/72/70 2/74/70 3/73/70
f 33/75/71 26/76/72 25/77/73
f 33/78/74 27/52/54 26/51/53
f 33/79/75 28/80/76 27/81/77
f 33/79/75 29/82/78 28/80/76
f 33/83/79 30/84/80 29/85/78
f 33/83/81 31/86/82 30/84/80
f 33/83/83 32/87/84 31/86/82
f 33/75/71 25/77/73 32/88/84
