# mech2 arm L, segment Index1, colour White #F2F2F2
# arm space (origin = shoulder centre, studs); segment pivot [-0.36, -7.87, -0.48]
# bbox centre [-0.3638, -8.1356, -0.48] (Roblox recentres on import: place at armCF * CFrame.new(centre))
o Mech2Arm_L_Index1_White
v -0.30353 -7.82595 -0.38640
v -0.25505 -7.82256 -0.40512
v -0.25505 -7.82256 -0.55488
v -0.30353 -7.82595 -0.57360
v -0.41127 -7.83349 -0.57360
v -0.51043 -7.84042 -0.52212
v -0.51043 -7.84042 -0.43788
v -0.41127 -7.83349 -0.38640
v -0.27421 -7.91412 -0.35000
v -0.20688 -7.90941 -0.37600
v -0.20688 -7.90941 -0.58400
v -0.27421 -7.91412 -0.61000
v -0.42385 -7.92459 -0.61000
v -0.54605 -7.93313 -0.53850
v -0.54605 -7.93313 -0.42150
v -0.42385 -7.92459 -0.35000
v -0.24611 -8.36326 -0.35520
v -0.18147 -8.35874 -0.38016
v -0.18147 -8.35874 -0.57984
v -0.24611 -8.36326 -0.60480
v -0.38976 -8.37330 -0.60480
v -0.50867 -8.38162 -0.53616
v -0.50867 -8.38162 -0.42384
v -0.38976 -8.37330 -0.35520
v -0.26263 -8.43458 -0.38900
v -0.21549 -8.43129 -0.40720
v -0.21549 -8.43129 -0.55280
v -0.26263 -8.43458 -0.57100
v -0.36737 -8.44191 -0.57100
v -0.46489 -8.44873 -0.52095
v -0.46489 -8.44873 -0.43905
v -0.36737 -8.44191 -0.38900
vt -0.07582 1.95747
vt -0.06850 1.97941
vt -0.06370 1.95668
vt -0.05166 1.97831
vt 0.10128 1.94715
vt 0.14600 1.96962
vt 0.13872 1.94715
vt 0.09400 1.96962
vt 0.06389 1.95391
vt 0.06869 1.97664
vt 0.07602 1.95471
vt 0.05186 1.97554
vt 0.10610 1.97926
vt 0.10295 1.95659
vt 0.40210 1.84978
vt 0.40528 1.87429
vt 0.42985 1.84618
vt 0.44034 1.86904
vt -0.13053 1.94544
vt -0.13462 1.96790
vt -0.10947 1.94544
vt -0.10537 1.96790
vt -0.53368 1.74935
vt -0.50911 1.77747
vt -0.50593 1.75296
vt -0.54417 1.77221
vt -0.10276 1.95936
vt -0.10591 1.98202
vt -0.04531 2.09064
vt -0.06148 2.09170
vt 0.14496 2.08212
vt 0.09504 2.08212
vt 0.04550 2.08787
vt 0.06167 2.08893
vt 0.09758 2.09144
vt 0.12730 2.09372
vt 0.13664 1.98160
vt -0.10596 2.08041
vt -0.13404 2.08041
vt -0.13645 1.98437
vt -0.12710 2.09649
vt -0.09739 2.09421
vt -0.39133 1.85858
vt -0.38317 1.87979
vt -0.37410 1.86070
vt -0.39574 1.87825
vt 0.13820 2.09966
vt 0.10180 2.09966
vt 0.44635 1.74145
vt 0.45542 1.76054
vt 0.46358 1.73933
vt 0.46798 1.75900
vt 0.06579 2.10686
vt 0.09198 2.10869
vt -0.39329 1.71027
vt -0.37283 1.73727
vt -0.36061 1.72096
vt -0.39910 1.72932
vt -0.10976 2.09794
vt -0.13024 2.09794
vt 0.27923 1.84562
vt 0.29145 1.86193
vt 0.31191 1.83493
vt 0.31772 1.85397
vt -0.06560 2.10963
vt -0.09178 2.11146
vt 0.23918 -0.14340
vt 0.26403 -0.13053
vt 0.26403 -0.10947
vt 0.23918 -0.09660
vt 0.21218 -0.14340
vt 0.21218 -0.09660
vt 0.20003 -0.10128
vt 0.20003 -0.13872
vt 0.23884 0.14275
vt 0.26328 0.10976
vt 0.26328 0.13024
vt 0.23884 0.09725
vt 0.21259 0.14275
vt 0.21259 0.09725
vt 0.20078 0.13820
vt 0.20078 0.10180
vn 0.0291 0.3897 0.9205
vn 0.2968 0.1328 0.9457
vn 0.2949 0.4468 0.8446
vn 0.3531 0.0918 0.9311
vn 0.8745 0.4851 0.0000
vn 0.9840 0.1779 0.0000
vn 0.9949 0.1007 0.0000
vn 0.2949 0.4468 -0.8446
vn 0.2968 0.1328 -0.9457
vn 0.0291 0.3897 -0.9205
vn 0.3531 0.0918 -0.9311
vn -0.0694 0.0942 -0.9931
vn -0.2480 0.3888 -0.8873
vn 0.0361 0.1107 -0.9932
vn -0.4422 0.0721 -0.8940
vn -0.4728 0.3555 -0.8063
vn -0.5060 0.0207 -0.8623
vn -0.9335 0.3586 0.0000
vn -0.9999 -0.0115 0.0000
vn -1.0000 -0.0032 0.0000
vn -0.4728 0.3555 0.8063
vn -0.4422 0.0721 0.8940
vn -0.2480 0.3888 0.8873
vn -0.5060 0.0207 0.8623
vn -0.0694 0.0942 0.9931
vn 0.0361 0.1107 0.9932
vn 0.1901 0.0392 0.9810
vn 0.3617 -0.0269 0.9319
vn 0.0864 -0.0332 0.9957
vn 0.9998 0.0180 0.0000
vn 0.9983 -0.0581 0.0000
vn 0.3617 -0.0269 -0.9319
vn 0.1901 0.0392 -0.9810
vn 0.0864 -0.0332 -0.9957
vn 0.1587 0.0380 -0.9866
vn 0.0679 -0.0350 -0.9971
vn -0.1480 0.0231 -0.9887
vn -0.2156 -0.0866 -0.9726
vn -0.5009 0.0194 -0.8653
vn -0.4966 -0.0792 -0.8644
vn -0.2741 0.0050 -0.9617
vn -0.2749 -0.0926 -0.9570
vn -0.9926 -0.1213 0.0000
vn -0.9805 -0.1964 0.0000
vn -0.4966 -0.0792 0.8644
vn -0.5009 0.0194 0.8653
vn -0.2741 0.0050 0.9617
vn -0.2749 -0.0926 0.9570
vn -0.1480 0.0231 0.9887
vn 0.0679 -0.0350 0.9971
vn 0.1587 0.0380 0.9866
vn -0.2156 -0.0866 0.9726
vn 0.2971 -0.1789 0.9379
vn 0.3469 -0.4660 0.8139
vn 0.0859 -0.4428 0.8925
vn 0.9054 -0.4246 0.0000
vn 0.3469 -0.4660 -0.8139
vn 0.2971 -0.1789 -0.9379
vn 0.0859 -0.4428 -0.8925
vn 0.0251 -0.0722 -0.9971
vn -0.0709 -0.1849 -0.9802
vn -0.1787 -0.4812 -0.8582
vn -0.3926 -0.2135 -0.8946
vn -0.3968 -0.4768 -0.7844
vn -0.8375 -0.5465 0.0000
vn -0.3968 -0.4768 0.7844
vn -0.3926 -0.2135 0.8946
vn -0.1787 -0.4812 0.8582
vn -0.0709 -0.1849 0.9802
vn 0.0251 -0.0722 0.9971
vn -0.0698 0.9976 0.0000
vn 0.0698 -0.9976 0.0000
s off
f 1/1/1 9/2/2 2/3/3
f 2/3/3 9/2/2 10/4/4
f 2/5/5 11/6/6 3/7/5
f 2/5/5 10/8/7 11/6/6
f 3/9/8 12/10/9 4/11/10
f 3/9/8 11/12/11 12/10/9
f 4/11/10 13/13/12 5/14/13
f 4/11/10 12/10/14 13/13/12
f 5/15/13 13/16/15 6/17/16
f 6/17/16 13/16/15 14/18/17
f 6/19/18 14/20/19 7/21/18
f 7/21/18 14/20/19 15/22/20
f 7/23/21 16/24/22 8/25/23
f 7/23/21 15/26/24 16/24/22
f 8/27/23 16/28/25 1/1/1
f 1/1/1 16/28/25 9/2/26
f 9/2/27 18/29/28 10/4/4
f 9/2/27 17/30/29 18/29/28
f 10/8/7 19/31/30 11/6/6
f 10/8/7 18/32/31 19/31/30
f 11/12/11 19/33/32 12/10/33
f 12/10/33 19/33/32 20/34/34
f 12/10/35 20/34/36 13/13/37
f 13/13/37 20/34/36 21/35/38
f 13/13/39 22/36/40 14/37/17
f 13/13/41 21/35/42 22/36/40
f 14/20/19 23/38/43 15/22/20
f 14/20/19 22/39/44 23/38/43
f 15/40/24 23/41/45 16/28/46
f 16/28/47 23/41/45 24/42/48
f 16/28/49 17/30/50 9/2/51
f 16/28/49 24/42/52 17/30/50
f 17/43/53 26/44/54 18/45/28
f 17/43/53 25/46/55 26/44/54
f 18/32/31 27/47/56 19/31/30
f 18/32/31 26/48/56 27/47/56
f 19/49/32 27/50/57 20/51/58
f 20/51/58 27/50/57 28/52/59
f 20/34/60 28/53/59 21/35/61
f 21/35/61 28/53/59 29/54/62
f 21/55/63 30/56/64 22/57/40
f 21/55/63 29/58/62 30/56/64
f 22/39/44 31/59/65 23/38/43
f 22/39/44 30/60/65 31/59/65
f 23/61/45 31/62/66 24/63/67
f 24/63/67 31/62/66 32/64/68
f 24/42/69 25/65/55 17/30/70
f 24/42/69 32/66/68 25/65/55
f 5/67/71 6/68/71 7/69/71
f 5/67/71 7/69/71 8/70/71
f 4/71/71 5/67/71 8/70/71
f 4/71/71 8/70/71 1/72/71
f 4/71/71 1/72/71 2/73/71
f 2/73/71 3/74/71 4/71/71
f 29/75/72 31/76/72 30/77/72
f 29/75/72 32/78/72 31/76/72
f 28/79/72 32/78/72 29/75/72
f 28/79/72 25/80/72 32/78/72
f 27/81/72 25/80/72 28/79/72
f 25/80/72 27/81/72 26/82/72
