# mech2 arm L, segment Ring2, colour White #F2F2F2
# arm space (origin = shoulder centre, studs); segment pivot [-0.3004187759374375, -8.436877480359916, 0.16]
# bbox centre [-0.1459, -8.6197, 0.16] (Roblox recentres on import: place at armCF * CFrame.new(centre))
o Mech2Arm_L_Ring2_White
v -0.28670 -8.36659 0.25360
v -0.25234 -8.33223 0.23488
v -0.25234 -8.33223 0.08512
v -0.28670 -8.36659 0.06640
v -0.36307 -8.44296 0.06640
v -0.43335 -8.51325 0.11788
v -0.43335 -8.51325 0.20212
v -0.36307 -8.44296 0.25360
v -0.20673 -8.41390 0.29000
v -0.15900 -8.36617 0.26400
v -0.15900 -8.36617 0.05600
v -0.20673 -8.41390 0.03000
v -0.31279 -8.51996 0.03000
v -0.39941 -8.60658 0.10150
v -0.39941 -8.60658 0.21850
v -0.31279 -8.51996 0.29000
v 0.07378 -8.69907 0.28480
v 0.11960 -8.65325 0.25984
v 0.11960 -8.65325 0.06016
v 0.07378 -8.69907 0.03520
v -0.02804 -8.80090 0.03520
v -0.11233 -8.88518 0.10384
v -0.11233 -8.88518 0.21616
v -0.02804 -8.80090 0.28480
v 0.10811 -8.76374 0.25100
v 0.14152 -8.73033 0.23280
v 0.14152 -8.73033 0.08720
v 0.10811 -8.76374 0.06900
v 0.03387 -8.83798 0.06900
v -0.03525 -8.90710 0.11905
v -0.03525 -8.90710 0.20095
v 0.03387 -8.83798 0.25100
vt -0.07243 2.09098
vt -0.05252 2.10272
vt -0.06380 2.08243
vt -0.04053 2.09085
vt -0.05872 1.43445
vt -0.01400 1.45691
vt -0.02128 1.43445
vt -0.06600 1.45691
vt 0.06306 2.08316
vt 0.05179 2.10345
vt 0.07170 2.09171
vt 0.03980 2.09158
vt 0.07831 2.12997
vt 0.09079 2.11080
vt 0.01844 2.10876
vt 0.00234 2.12751
vt 0.03967 2.12697
vt 0.02969 2.15006
vt -1.42194 -0.02947
vt -1.44440 -0.05462
vt -1.42194 -0.05053
vt -1.44440 -0.02538
vt 0.00747 2.12282
vt 0.04480 2.12336
vt 0.02870 2.10461
vt 0.01745 2.14591
vt -0.09152 2.11007
vt -0.07904 2.12923
vt 0.02912 2.16262
vt 0.01761 2.17402
vt -0.01504 1.55691
vt -0.06496 1.55691
vt -0.02985 2.16336
vt -0.01834 2.17476
vt 0.00712 2.20021
vt 0.02803 2.22144
vt 0.09980 2.15179
vt -1.54440 -0.05404
vt -1.54440 -0.02596
vt -0.10053 2.15105
vt -0.02877 2.22071
vt -0.00785 2.19948
vt -0.21086 2.13917
vt -0.19029 2.14885
vt -0.19695 2.12879
vt -0.20044 2.15642
vt -0.02180 1.57445
vt -0.05820 1.57445
vt 0.15206 2.14085
vt 0.14541 2.16092
vt 0.16598 2.15123
vt 0.15555 2.16849
vt -0.02700 2.19100
vt -0.00844 2.20956
vt 0.02506 1.73139
vt 0.02686 1.76522
vt 0.04612 1.75857
vt 0.00957 1.74391
vt -1.56194 -0.05024
vt -1.56194 -0.02976
vt -0.04696 1.70895
vt -0.02770 1.71561
vt -0.02589 1.68178
vt -0.01041 1.69429
vt 0.02627 2.19027
vt 0.00770 2.20883
vt 1.55670 0.01660
vt 1.58155 0.02947
vt 1.58155 0.05053
vt 1.55670 0.06340
vt 1.52970 0.01660
vt 1.52970 0.06340
vt 1.51755 0.05872
vt 1.51755 0.02128
vt 1.55636 -0.01725
vt 1.58080 -0.05024
vt 1.58080 -0.02976
vt 1.55636 -0.06275
vt 1.53011 -0.01725
vt 1.53011 -0.06275
vt 1.51830 -0.02180
vt 1.51830 -0.05820
vn -0.2337 0.3132 0.9205
vn 0.1266 0.2983 0.9461
vn -0.0705 0.5307 0.8446
vn 0.2013 0.3056 0.9306
vn 0.3417 0.9398 0.0000
vn 0.6183 0.7859 0.0000
vn 0.6822 0.7311 0.0000
vn -0.0705 0.5307 -0.8446
vn 0.1266 0.2983 -0.9461
vn -0.2337 0.3132 -0.9205
vn 0.2013 0.3056 -0.9306
vn -0.1244 0.0279 -0.9918
vn -0.4422 0.1307 -0.8873
vn -0.0494 0.1167 -0.9919
vn -0.3831 -0.2249 -0.8959
vn -0.5900 -0.0419 -0.8063
vn -0.3994 -0.3122 -0.8620
vn -0.9398 -0.3417 0.0000
vn -0.7859 -0.6183 0.0000
vn -0.7311 -0.6822 0.0000
vn -0.5900 -0.0419 0.8063
vn -0.3831 -0.2249 0.8959
vn -0.4422 0.1307 0.8873
vn -0.3994 -0.3122 0.8620
vn -0.1244 0.0279 0.9918
vn -0.0494 0.1167 0.9919
vn 0.1168 0.1575 0.9806
vn 0.2948 0.2127 0.9316
vn 0.0914 0.0295 0.9954
vn 0.7467 0.6651 0.0000
vn 0.7989 0.6015 0.0000
vn 0.2948 0.2127 -0.9316
vn 0.1168 0.1575 -0.9806
vn 0.0914 0.0295 -0.9954
vn 0.0914 0.1336 -0.9868
vn 0.0771 0.0145 -0.9969
vn -0.1280 -0.0757 -0.9889
vn -0.0980 -0.2098 -0.9728
vn -0.3944 -0.3097 -0.8652
vn -0.3191 -0.3891 -0.8642
vn -0.2137 -0.1757 -0.9610
vn -0.1432 -0.2579 -0.9555
vn -0.6651 -0.7467 0.0000
vn -0.6015 -0.7989 0.0000
vn -0.3191 -0.3891 0.8642
vn -0.3944 -0.3097 0.8652
vn -0.2137 -0.1757 0.9610
vn -0.1432 -0.2579 0.9555
vn -0.1280 -0.0757 0.9889
vn 0.0771 0.0145 0.9969
vn 0.0914 0.1336 0.9868
vn -0.0980 -0.2098 0.9728
vn 0.3475 0.0454 0.9366
vn 0.5675 -0.1241 0.8139
vn 0.3554 -0.2778 0.8925
vn 0.9619 0.2736 0.0000
vn 0.5675 -0.1241 -0.8139
vn 0.3475 0.0454 -0.9366
vn 0.3554 -0.2778 -0.8925
vn 0.0735 -0.0420 -0.9964
vn 0.0730 -0.2002 -0.9770
vn 0.1808 -0.4804 -0.8582
vn -0.1409 -0.4230 -0.8951
vn 0.0133 -0.6202 -0.7844
vn -0.2736 -0.9619 0.0000
vn 0.0133 -0.6202 0.7844
vn -0.1409 -0.4230 0.8951
vn 0.1808 -0.4804 0.8582
vn 0.0730 -0.2002 0.9770
vn 0.0735 -0.0420 0.9964
vn -0.7071 0.7071 0.0000
vn 0.7071 -0.7071 0.0000
s off
f 1/1/1 9/2/2 2/3/3
f 2/3/3 9/2/2 10/4/4
f 2/5/5 11/6/6 3/7/5
f 2/5/5 10/8/7 11/6/6
f 3/9/8 12/10/9 4/11/10
f 3/9/8 11/12/11 12/10/9
f 4/11/10 13/13/12 5/14/13
f 4/11/10 12/10/14 13/13/12
f 5/15/13 13/16/15 6/17/16
f 6/17/16 13/16/15 14/18/17
f 6/19/18 15/20/19 7/21/18
f 6/19/18 14/22/20 15/20/19
f 7/23/21 16/24/22 8/25/23
f 7/23/21 15/26/24 16/24/22
f 8/27/23 16/28/25 1/1/1
f 1/1/1 16/28/25 9/2/26
f 9/2/27 18/29/28 10/4/4
f 9/2/27 17/30/29 18/29/28
f 10/8/7 19/31/30 11/6/6
f 10/8/7 18/32/31 19/31/30
f 11/12/11 19/33/32 12/10/33
f 12/10/33 19/33/32 20/34/34
f 12/10/35 20/34/36 13/13/37
f 13/13/37 20/34/36 21/35/38
f 13/13/39 22/36/40 14/37/17
f 13/13/41 21/35/42 22/36/40
f 14/22/20 23/38/43 15/20/19
f 14/22/20 22/39/44 23/38/43
f 15/40/24 23/41/45 16/28/46
f 16/28/47 23/41/45 24/42/48
f 16/28/49 17/30/50 9/2/51
f 16/28/49 24/42/52 17/30/50
f 17/43/53 26/44/54 18/45/28
f 17/43/53 25/46/55 26/44/54
f 18/32/31 27/47/56 19/31/30
f 18/32/31 26/48/56 27/47/56
f 19/49/32 27/50/57 20/51/58
f 20/51/58 27/50/57 28/52/59
f 20/34/60 28/53/59 21/35/61
f 21/35/61 28/53/59 29/54/62
f 21/55/63 30/56/64 22/57/40
f 21/55/63 29/58/62 30/56/64
f 22/39/44 31/59/65 23/38/43
f 22/39/44 30/60/65 31/59/65
f 23/61/45 31/62/66 24/63/67
f 24/63/67 31/62/66 32/64/68
f 24/42/69 25/65/55 17/30/70
f 24/42/69 32/66/68 25/65/55
f 5/67/71 6/68/71 7/69/71
f 5/67/71 7/69/71 8/70/71
f 4/71/71 5/67/71 8/70/71
f 4/71/71 8/70/71 1/72/71
f 4/71/71 1/72/71 2/73/71
f 2/73/71 3/74/71 4/71/71
f 29/75/72 31/76/72 30/77/72
f 29/75/72 32/78/72 31/76/72
f 28/79/72 32/78/72 29/75/72
f 28/79/72 25/80/72 32/78/72
f 27/81/72 25/80/72 28/79/72
f 25/80/72 27/81/72 26/82/72
