# mech2 arm L, segment Index3, colour White #F2F2F2
# arm space (origin = shoulder centre, studs); segment pivot [0.014010747071151852, -8.836954619069967, -0.48]
# bbox centre [0.1334, -8.936, -0.48] (Roblox recentres on import: place at armCF * CFrame.new(centre))
o Mech2Arm_L_Index3_White
v 0.01906 -8.76552 -0.38640
v 0.04898 -8.72722 -0.40512
v 0.04898 -8.72722 -0.55488
v 0.01906 -8.76552 -0.57360
v -0.04743 -8.85063 -0.57360
v -0.10863 -8.92895 -0.52212
v -0.10863 -8.92895 -0.43788
v -0.04743 -8.85063 -0.38640
v 0.10420 -8.80273 -0.35000
v 0.14576 -8.74954 -0.37600
v 0.14576 -8.74954 -0.58400
v 0.10420 -8.80273 -0.61000
v 0.01185 -8.92093 -0.61000
v -0.06356 -9.01746 -0.53850
v -0.06356 -9.01746 -0.42150
v 0.01185 -8.92093 -0.35000
v 0.23563 -8.91064 -0.35650
v 0.27510 -8.86011 -0.38120
v 0.27510 -8.86011 -0.57880
v 0.23563 -8.91064 -0.60350
v 0.14789 -9.02293 -0.60350
v 0.07501 -9.11621 -0.53558
v 0.07501 -9.11621 -0.42442
v 0.14789 -9.02293 -0.35650
v 0.31749 -9.00077 -0.38900
v 0.34658 -8.96354 -0.40720
v 0.34658 -8.96354 -0.55280
v 0.31749 -9.00077 -0.57100
v 0.25284 -9.08351 -0.57100
v 0.20498 -9.14478 -0.52095
v 0.20498 -9.14478 -0.43905
v 0.25284 -9.08351 -0.38900
v 0.37539 -9.02412 -0.48000
vt -0.16070 1.81745
vt -0.13922 1.83014
vt -0.15315 1.80684
vt -0.12874 1.81541
vt -1.41158 -0.10128
vt -1.43370 -0.14600
vt -1.41158 -0.13872
vt -1.43370 -0.09400
vt 0.12560 1.93233
vt 0.11167 1.95563
vt 0.13315 1.94294
vt 0.10118 1.94089
vt -0.00443 2.17567
vt -0.00262 2.21378
vt 0.01219 2.19689
vt -0.02571 2.18430
vt -0.25183 2.17107
vt -0.27055 2.18721
vt -0.23356 2.19225
vt -0.24688 2.21359
vt -1.25436 0.13053
vt -1.27625 0.13462
vt -1.25436 0.10947
vt -1.27625 0.10537
vt 0.09559 2.22571
vt 0.13258 2.22066
vt 0.11386 2.20452
vt 0.10890 2.24705
vt -0.01193 2.21393
vt 0.00288 2.23082
vt 0.00470 2.19271
vt 0.02597 2.20134
vt 0.06871 2.21620
vt 0.03637 2.18854
vt 0.05883 2.22837
vt -1.47624 -0.14470
vt -1.47624 -0.09530
vt -0.03611 2.17150
vt -0.06844 2.19916
vt -0.05856 2.21133
vt -0.03663 2.23933
vt -0.01842 2.26380
vt 0.01622 2.23912
vt -1.31879 0.10611
vt -1.31879 0.13389
vt -0.01595 2.25616
vt 0.01869 2.28084
vt 0.03689 2.25637
vt 0.08658 2.24246
vt 0.07930 2.25142
vt -1.50655 -0.13820
vt -1.50655 -0.10180
vt -0.08631 2.22542
vt -0.07904 2.23438
vt -0.06287 2.25501
vt -0.11684 1.75226
vt -0.13113 1.78904
vt -0.09863 1.78110
vt -0.14316 1.76931
vt -1.34953 0.10976
vt -1.34953 0.13024
vt 0.08768 1.92000
vt 0.12018 1.92794
vt 0.10589 1.89116
vt 0.13221 1.90821
vt 0.06314 2.27205
vt -0.14340 1.75090
vt -0.13053 1.77575
vt -0.10947 1.77575
vt -0.09660 1.75090
vt -0.14340 1.72390
vt -0.09660 1.72390
vt -0.10128 1.71175
vt -0.13872 1.71175
vt 0.83611 1.83203
vt 0.81300 1.82334
vt 0.80869 1.83512
vt -1.52180 -0.12000
vt -0.63695 1.83203
vt -0.60953 1.83512
vt -0.61384 1.82334
vt -0.60836 1.86128
vt 1.30461 0.12000
vt 1.35677 0.13024
vt 1.33794 0.14275
vt 1.35677 0.10976
vt 1.33794 0.09725
vt 0.80752 1.86128
vn -0.2701 0.2824 0.9205
vn 0.0036 0.3248 0.9458
vn -0.1347 0.5181 0.8446
vn 0.1150 0.3622 0.9250
vn 0.2247 0.9744 0.0000
vn 0.4497 0.8932 0.0000
vn 0.5633 0.8263 0.0000
vn -0.1347 0.5181 -0.8446
vn 0.0036 0.3248 -0.9458
vn -0.2701 0.2824 -0.9205
vn 0.1150 0.3622 -0.9250
vn -0.2132 0.0189 -0.9768
vn -0.4548 0.0759 -0.8873
vn -0.1029 0.1814 -0.9780
vn -0.3765 -0.1821 -0.9083
vn -0.5805 -0.1135 -0.8063
vn -0.3958 -0.3265 -0.8583
vn -0.8911 -0.4537 0.0000
vn -0.7041 -0.7101 0.0000
vn -0.7140 -0.7002 0.0000
vn -0.5805 -0.1135 0.8063
vn -0.3765 -0.1821 0.9083
vn -0.4548 0.0759 0.8873
vn -0.3958 -0.3265 0.8583
vn -0.2132 0.0189 0.9768
vn -0.1029 0.1814 0.9780
vn 0.0878 0.1999 0.9759
vn 0.3088 0.2120 0.9272
vn 0.1610 0.0027 0.9869
vn 0.7001 0.7140 0.0000
vn 0.7532 0.6578 0.0000
vn 0.3088 0.2120 -0.9272
vn 0.0878 0.1999 -0.9759
vn 0.1610 0.0027 -0.9869
vn 0.0421 0.1433 -0.9888
vn -0.1300 -0.0543 -0.9900
vn 0.0099 -0.2015 -0.9794
vn -0.3894 -0.3210 -0.8633
vn -0.2133 -0.4637 -0.8600
vn -0.2237 -0.2052 -0.9528
vn -0.0982 -0.3676 -0.9248
vn -0.4873 -0.8732 0.0000
vn -0.3772 -0.9261 0.0000
vn -0.2133 -0.4637 0.8600
vn -0.3894 -0.3210 0.8633
vn -0.2237 -0.2052 0.9528
vn -0.0982 -0.3676 0.9248
vn -0.1300 -0.0543 0.9900
vn 0.0421 0.1433 0.9888
vn 0.0099 -0.2015 0.9794
vn 0.4475 0.0855 0.8902
vn 0.2496 -0.1197 0.9609
vn 0.8391 0.5439 0.0000
vn 0.8532 0.5217 0.0000
vn 0.4475 0.0855 -0.8902
vn 0.2496 -0.1197 -0.9609
vn 0.0925 -0.2197 -0.9712
vn 0.2060 -0.1609 -0.9652
vn -0.0201 -0.3931 -0.9193
vn -0.0560 -0.5778 -0.8142
vn -0.1537 -0.5115 -0.8454
vn -0.0898 -0.5871 -0.8045
vn -0.2147 -0.9767 0.0000
vn -0.0560 -0.5778 0.8142
vn -0.0201 -0.3931 0.9193
vn -0.1537 -0.5115 0.8454
vn -0.0898 -0.5871 0.8045
vn 0.0925 -0.2197 0.9712
vn 0.2060 -0.1609 0.9652
vn -0.7880 0.6157 0.0000
vn 0.6598 -0.5959 0.4578
vn 0.7609 -0.3179 0.5657
vn 0.6929 -0.4567 0.5580
vn 0.9031 0.4295 0.0000
vn 0.6598 -0.5959 -0.4578
vn 0.6929 -0.4567 -0.5580
vn 0.7609 -0.3179 -0.5657
vn 0.6322 -0.6438 -0.4312
vn 0.6503 -0.6973 -0.3014
vn 0.5951 -0.7894 -0.1506
vn 0.6112 -0.7915 0.0000
vn 0.5951 -0.7894 0.1506
vn 0.6503 -0.6973 0.3014
vn 0.6322 -0.6438 0.4312
s off
f 1/1/1 9/2/2 2/3/3
f 2/3/3 9/2/2 10/4/4
f 2/5/5 11/6/6 3/7/5
f 2/5/5 10/8/7 11/6/6
f 3/9/8 12/10/9 4/11/10
f 3/9/8 11/12/11 12/10/9
f 4/13/10 13/14/12 5/15/13
f 4/13/10 12/16/14 13/14/12
f 5/17/13 13/18/15 6/19/16
f 6/19/16 13/18/15 14/20/17
f 6/21/18 14/22/19 7/23/18
f 7/23/18 14/22/19 15/24/20
f 7/25/21 16/26/22 8/27/23
f 7/25/21 15/28/24 16/26/22
f 8/29/23 16/30/25 1/31/1
f 1/31/1 16/30/25 9/32/26
f 9/32/27 18/33/28 10/34/4
f 9/32/27 17/35/29 18/33/28
f 10/8/7 19/36/30 11/6/6
f 10/8/7 18/37/31 19/36/30
f 11/38/11 19/39/32 12/16/33
f 12/16/33 19/39/32 20/40/34
f 12/16/35 20/40/34 13/14/36
f 13/14/36 20/40/34 21/41/37
f 13/14/38 22/42/39 14/43/17
f 13/14/40 21/41/41 22/42/39
f 14/22/19 23/44/42 15/24/20
f 14/22/19 22/45/43 23/44/42
f 15/46/24 23/47/44 16/30/45
f 16/30/46 23/47/44 24/48/47
f 16/30/48 17/35/29 9/32/49
f 16/30/48 24/48/50 17/35/29
f 17/35/29 26/49/51 18/33/28
f 17/35/29 25/50/52 26/49/51
f 18/37/31 27/51/53 19/36/30
f 18/37/31 26/52/54 27/51/53
f 19/39/32 27/53/55 20/40/34
f 20/40/34 27/53/55 28/54/56
f 20/40/34 28/54/56 21/41/57
f 21/41/57 28/54/56 29/55/58
f 21/56/59 30/57/60 22/58/39
f 21/56/61 29/59/62 30/57/60
f 22/45/43 31/60/63 23/44/42
f 22/45/43 30/61/63 31/60/63
f 23/62/44 31/63/64 24/64/65
f 24/64/66 31/63/64 32/65/67
f 24/48/68 25/50/52 17/35/29
f 24/48/68 32/66/69 25/50/52
f 5/67/70 6/68/70 7/69/70
f 5/67/70 7/69/70 8/70/70
f 4/71/70 5/67/70 8/70/70
f 4/71/70 8/70/70 1/72/70
f 4/71/70 1/72/70 2/73/70
f 2/73/70 3/74/70 4/71/70
f 33/75/71 26/76/72 25/77/73
f 33/78/74 27/51/53 26/52/54
f 33/79/75 28/80/76 27/81/77
f 33/79/75 29/82/78 28/80/76
f 33/83/79 30/84/80 29/85/78
f 33/83/81 31/86/82 30/84/80
f 33/83/83 32/87/84 31/86/82
f 33/75/71 25/77/73 32/88/84
