# mech2 arm L, segment Hand, colour White #F2F2F2
# arm space (origin = shoulder centre, studs); segment pivot [-0.3, -6.93, 0.0]
# bbox centre [-0.395, -7.425, 0.0] (Roblox recentres on import: place at armCF * CFrame.new(centre))
o Mech2Arm_L_Hand_White
v -0.48000 -6.98000 -0.32000
v -0.48000 -6.98000 0.32000
v -0.39000 -6.98000 0.41000
v -0.27000 -6.98000 0.41000
v -0.18000 -6.98000 0.32000
v -0.18000 -6.98000 -0.32000
v -0.27000 -6.98000 -0.41000
v -0.39000 -6.98000 -0.41000
v -0.57000 -7.07000 -0.41000
v -0.57000 -7.07000 0.41000
v -0.48000 -7.07000 0.50000
v -0.18000 -7.07000 0.50000
v -0.09000 -7.07000 0.41000
v -0.09000 -7.07000 -0.41000
v -0.18000 -7.07000 -0.50000
v -0.48000 -7.07000 -0.50000
v -0.62000 -7.21000 -0.53000
v -0.62000 -7.21000 0.53000
v -0.53000 -7.21000 0.62000
v -0.14000 -7.21000 0.62000
v -0.05000 -7.21000 0.53000
v -0.05000 -7.21000 -0.53000
v -0.14000 -7.21000 -0.62000
v -0.53000 -7.21000 -0.62000
v -0.64000 -7.75000 -0.55000
v -0.64000 -7.75000 0.55000
v -0.55000 -7.75000 0.64000
v -0.12000 -7.75000 0.64000
v -0.03000 -7.75000 0.55000
v -0.03000 -7.75000 -0.55000
v -0.12000 -7.75000 -0.64000
v -0.55000 -7.75000 -0.64000
v -0.59000 -7.78000 -0.50000
v -0.59000 -7.78000 0.50000
v -0.50000 -7.78000 0.59000
v -0.17000 -7.78000 0.59000
v -0.08000 -7.78000 0.50000
v -0.08000 -7.78000 -0.50000
v -0.17000 -7.78000 -0.59000
v -0.50000 -7.78000 -0.59000
v -0.50000 -7.87000 -0.41000
v -0.50000 -7.87000 0.41000
v -0.41000 -7.87000 0.50000
v -0.26000 -7.87000 0.50000
v -0.17000 -7.87000 0.41000
v -0.17000 -7.87000 -0.41000
v -0.26000 -7.87000 -0.50000
v -0.41000 -7.87000 -0.50000
v -0.56000 -7.08000 -0.47600
v -0.70000 -7.08000 -0.40460
v -0.76000 -7.08000 -0.14280
v -0.76000 -7.08000 0.14280
v -0.70000 -7.08000 0.40460
v -0.56000 -7.08000 0.47600
v -0.56000 -7.21000 -0.56000
v -0.70000 -7.21000 -0.47600
v -0.76000 -7.21000 -0.16800
v -0.76000 -7.21000 0.16800
v -0.70000 -7.21000 0.47600
v -0.56000 -7.21000 0.56000
v -0.56000 -7.69000 -0.56000
v -0.70000 -7.69000 -0.47600
v -0.76000 -7.69000 -0.16800
v -0.76000 -7.69000 0.16800
v -0.70000 -7.69000 0.47600
v -0.56000 -7.69000 0.56000
v -0.56000 -7.79000 -0.47600
v -0.70000 -7.79000 -0.40460
v -0.76000 -7.79000 -0.14280
v -0.76000 -7.79000 0.14280
v -0.70000 -7.79000 0.40460
v -0.56000 -7.79000 0.47600
vt 1.31875 -0.08000
vt 1.35057 0.10250
vt 1.31875 0.08000
vt 1.35057 -0.10250
vt 0.78601 1.02517
vt 0.78317 1.07514
vt 0.76034 1.04398
vt 0.80884 1.05633
vt -0.09750 1.36723
vt -0.12000 1.39901
vt -0.06750 1.36723
vt -0.04500 1.39901
vt -0.61954 1.06264
vt -0.64212 1.09388
vt -0.64533 1.04400
vt -0.66791 1.07525
vt -1.20208 0.08000
vt -1.23390 -0.10250
vt -1.20208 -0.08000
vt -1.23390 0.10250
vt -0.64533 -1.04400
vt -0.64212 -1.09388
vt -0.61954 -1.06264
vt -0.66791 -1.07525
vt 0.06750 1.36723
vt 0.12000 1.39901
vt 0.09750 1.36723
vt 0.04500 1.39901
vt 0.76034 -1.04398
vt 0.80884 -1.05633
vt 0.78601 -1.02517
vt 0.78317 -1.07514
vt -0.10250 1.77303
vt 0.13250 1.80906
vt 0.10250 1.77303
vt -0.13250 1.80906
vt 0.82594 1.10062
vt 0.80027 1.11943
vt -0.03500 1.44509
vt -0.13250 1.44509
vt -0.68259 1.11971
vt -0.65680 1.13834
vt -0.10250 1.75961
vt 0.13250 1.79532
vt 0.10250 1.75961
vt -0.13250 1.79532
vt -0.68259 -1.11971
vt -0.65680 -1.13834
vt 0.03500 1.44509
vt 0.13250 1.44509
vt 0.82594 -1.10062
vt 0.80027 -1.11943
vt 0.13750 1.94392
vt -0.13750 1.94392
vt 0.07869 1.80903
vt 0.11753 1.94236
vt 0.11047 1.80736
vt 0.08575 1.94403
vt -0.13250 1.80700
vt -0.03000 1.94209
vt -0.03500 1.80700
vt -0.13750 1.94209
vt -0.03991 1.80903
vt -0.00107 1.94236
vt -0.00813 1.80736
vt -0.03285 1.94403
vt 0.13750 1.93027
vt -0.13750 1.93027
vt 0.00813 1.80736
vt 0.03285 1.94403
vt 0.03991 1.80903
vt 0.00107 1.94236
vt 0.03500 1.80700
vt 0.13750 1.94209
vt 0.13250 1.80700
vt 0.03000 1.94209
vt -0.11047 1.80736
vt -0.08575 1.94403
vt -0.07869 1.80903
vt -0.11753 1.94236
vt -1.01370 0.13750
vt -1.02822 -0.12500
vt -1.01370 -0.13750
vt -1.02822 0.12500
vt -1.04639 -0.14750
vt -1.03187 -0.16000
vt 0.13750 1.09789
vt 0.12500 1.11232
vt 0.03000 1.09789
vt 0.04250 1.11232
vt 1.16713 -0.16000
vt 1.18164 -0.14750
vt 1.14896 -0.13750
vt 1.16348 -0.12500
vt 1.16348 0.12500
vt 1.14896 0.13750
vt 1.18164 0.14750
vt 1.16713 0.16000
vt 0.03000 -1.09789
vt 0.12500 -1.11232
vt 0.13750 -1.09789
vt 0.04250 -1.11232
vt -1.03187 0.16000
vt -1.04639 0.14750
vt -1.05966 -0.10250
vt -1.05966 0.10250
vt -1.07783 -0.12500
vt 0.06500 1.14397
vt 0.10250 1.14397
vt 1.19492 -0.10250
vt 1.21309 -0.12500
vt 1.19492 0.10250
vt 1.21309 0.12500
vt 0.10250 -1.14397
vt 0.06500 -1.14397
vt -1.07783 0.12500
vt 0.12000 0.08000
vt 0.09750 0.10250
vt 0.06750 0.10250
vt 0.04500 0.08000
vt 0.12000 -0.08000
vt 0.04500 -0.08000
vt 0.06750 -0.10250
vt 0.09750 -0.10250
vt 0.06500 0.12500
vt 0.12500 0.10250
vt 0.10250 0.12500
vt 0.04250 0.10250
vt 0.12500 -0.10250
vt 0.04250 -0.10250
vt 0.06500 -0.12500
vt 0.10250 -0.12500
vt 0.17418 1.77085
vt 0.20645 1.80309
vt 0.21333 1.76859
vt 0.16572 1.80574
vt -0.10115 1.77000
vt -0.04200 1.80250
vt -0.03570 1.77000
vt -0.11900 1.80250
vt 0.04200 1.80250
vt 0.03570 1.77000
vt 0.10115 1.77000
vt 0.11900 1.80250
vt -0.21333 1.76859
vt -0.20645 1.80309
vt -0.17418 1.77085
vt -0.16572 1.80574
vt -0.11900 1.77000
vt 0.14000 1.80250
vt 0.11900 1.77000
vt -0.14000 1.80250
vt 0.21412 1.92213
vt 0.17339 1.92478
vt -0.04200 1.92250
vt -0.11900 1.92250
vt 0.04200 1.92250
vt 0.11900 1.92250
vt -0.17339 1.92478
vt -0.21412 1.92213
vt 0.14000 1.92250
vt -0.14000 1.92250
vt -0.38963 1.43220
vt -0.38913 1.46483
vt -0.35091 1.44509
vt -0.35141 1.47578
vt -0.10115 1.94750
vt -0.03570 1.94750
vt 0.03570 1.94750
vt 0.10115 1.94750
vt 0.35091 1.44509
vt 0.38913 1.46483
vt 0.38963 1.43220
vt 0.35141 1.47578
vt 0.11900 1.94750
vt -0.11900 1.94750
vt 0.19000 0.03570
vt 0.17500 0.10115
vt 0.14000 0.11900
vt 0.14000 -0.11900
vt 0.19000 -0.03570
vt 0.17500 -0.10115
vn -0.7071 0.7071 0.0000
vn -0.8191 0.5736 0.0000
vn -0.8952 0.4457 0.0000
vn -0.4082 0.8165 0.4082
vn -0.4814 0.7325 0.4814
vn 0.0000 0.7071 0.7071
vn 0.0000 0.6679 0.7443
vn 0.0000 0.6743 0.7385
vn 0.4082 0.8165 0.4082
vn 0.4888 0.7226 0.4888
vn 0.7071 0.7071 0.0000
vn 0.8319 0.5549 0.0000
vn 0.9146 0.4044 0.0000
vn 0.4082 0.8165 -0.4082
vn 0.4888 0.7226 -0.4888
vn 0.0000 0.7071 -0.7071
vn 0.0000 0.6679 -0.7443
vn 0.0000 0.6743 -0.7385
vn -0.4082 0.8165 -0.4082
vn -0.4592 0.7605 -0.4592
vn -0.5016 0.7049 -0.5016
vn -0.9906 0.1366 0.0000
vn -0.9973 0.0730 0.0000
vn -0.5365 0.6514 0.5365
vn 0.0000 0.6508 0.7593
vn 0.5500 0.6285 0.5500
vn 0.9934 0.1146 0.0000
vn 0.9979 0.0650 0.0000
vn 0.5500 0.6285 -0.5500
vn 0.0000 0.6508 -0.7593
vn -0.5365 0.6514 -0.5365
vn -0.9993 0.0370 0.0000
vn -0.7061 0.0523 0.7061
vn 0.0000 0.0370 0.9993
vn 0.7061 0.0523 0.7061
vn 0.9993 0.0370 0.0000
vn 0.7061 0.0523 -0.7061
vn 0.0000 0.0370 -0.9993
vn -0.7061 0.0523 -0.7061
vn -0.4992 -0.8662 -0.0205
vn -0.5869 -0.8071 0.0645
vn -0.4646 -0.8831 0.0653
vn -0.6408 -0.7666 -0.0417
vn -0.1648 -0.8812 0.4431
vn -0.0786 -0.8876 0.4540
vn -0.4852 -0.8672 0.1120
vn -0.0959 -0.8197 0.5647
vn 0.0504 -0.8778 0.4763
vn 0.1856 -0.8301 0.5259
vn 0.2804 -0.8684 0.4089
vn 0.4856 -0.8733 0.0383
vn 0.4731 -0.8720 0.1252
vn 0.5964 -0.8017 -0.0393
vn 0.4646 -0.8831 -0.0653
vn 0.6499 -0.7592 0.0343
vn 0.2804 -0.8684 -0.4089
vn 0.0504 -0.8778 -0.4763
vn 0.4918 -0.8677 -0.0720
vn -0.1435 -0.8281 -0.5419
vn -0.1231 -0.9005 -0.4172
vn 0.1602 -0.8168 -0.5542
vn -0.4544 -0.8796 -0.1410
vn -0.2062 -0.8663 -0.4550
vn -0.6716 -0.7409 0.0000
vn -0.7071 -0.7071 0.0000
vn -0.6173 -0.7867 0.0000
vn -0.4082 -0.8165 0.4082
vn 0.0000 -0.7760 0.6307
vn 0.0000 -0.7071 0.7071
vn 0.0000 -0.7593 0.6508
vn 0.4082 -0.8165 0.4082
vn 0.6716 -0.7409 0.0000
vn 0.7071 -0.7071 0.0000
vn 0.6173 -0.7867 0.0000
vn 0.4082 -0.8165 -0.4082
vn 0.0000 -0.7472 -0.6646
vn 0.0000 -0.7071 -0.7071
vn 0.0000 -0.7902 -0.6128
vn -0.4082 -0.8165 -0.4082
vn 0.0000 1.0000 0.0000
vn 0.0000 -1.0000 0.0000
vn -0.4301 0.4632 -0.7749
vn -0.4963 0.1784 -0.8496
vn -0.4081 0.4395 -0.8002
vn -0.5134 0.0659 -0.8556
vn -0.9757 0.0763 -0.2055
vn -0.9971 0.0098 -0.0753
vn -0.9976 0.0131 -0.0678
vn -0.9815 0.0125 -0.1912
vn -0.9929 0.0094 0.1188
vn -0.9938 0.0211 0.1089
vn -0.9757 0.0763 0.2055
vn -0.9813 0.0224 0.1912
vn -0.4081 0.4395 0.8002
vn -0.5054 0.1090 0.8560
vn -0.4301 0.4632 0.7749
vn -0.5109 0.1173 0.8516
vn 1.0000 0.0000 0.0000
vn -0.5145 0.0000 -0.8575
vn -0.9927 -0.0100 -0.1199
vn -0.9813 -0.0235 -0.1912
vn -0.9973 -0.0103 0.0725
vn -0.9815 -0.0129 0.1912
vn -0.5145 0.0000 0.8575
vn -0.4175 -0.5845 -0.6958
vn -0.4014 -0.5620 -0.7232
vn -0.3834 -0.5367 -0.7517
vn -0.9737 -0.0990 -0.2051
vn -0.9937 -0.0274 -0.1089
vn -0.9976 -0.0171 0.0678
vn -0.9737 -0.0990 0.2051
vn -0.4014 -0.5620 0.7232
vn -0.4175 -0.5845 0.6958
vn -0.3834 -0.5367 0.7517
s off
f 1/1/1 10/2/2 2/3/1
f 1/1/1 9/4/3 10/2/2
f 2/5/4 11/6/5 3/7/4
f 2/5/4 10/8/5 11/6/5
f 3/9/6 11/10/7 4/11/6
f 4/11/6 11/10/7 12/12/8
f 4/13/9 12/14/10 5/15/9
f 5/15/9 12/14/10 13/16/10
f 5/17/11 14/18/12 6/19/11
f 5/17/11 13/20/13 14/18/12
f 6/21/14 15/22/15 7/23/14
f 6/21/14 14/24/15 15/22/15
f 7/25/16 16/26/17 8/27/16
f 7/25/16 15/28/18 16/26/17
f 8/29/19 9/30/20 1/31/19
f 8/29/19 16/32/21 9/30/20
f 9/33/3 18/34/22 10/35/2
f 9/33/3 17/36/23 18/34/22
f 10/8/5 18/37/24 11/6/5
f 11/6/5 18/37/24 19/38/24
f 11/10/7 20/39/25 12/12/8
f 11/10/7 19/40/25 20/39/25
f 12/14/10 21/41/26 13/16/10
f 12/14/10 20/42/26 21/41/26
f 13/43/13 22/44/27 14/45/12
f 13/43/13 21/46/28 22/44/27
f 14/24/15 22/47/29 15/22/15
f 15/22/15 22/47/29 23/48/29
f 15/28/18 23/49/30 16/26/17
f 16/26/17 23/49/30 24/50/30
f 16/32/21 17/51/31 9/30/20
f 16/32/21 24/52/31 17/51/31
f 17/36/23 26/53/32 18/34/22
f 17/36/23 25/54/32 26/53/32
f 18/55/33 27/56/33 19/57/33
f 18/55/33 26/58/33 27/56/33
f 19/59/34 28/60/34 20/61/34
f 19/59/34 27/62/34 28/60/34
f 20/63/35 29/64/35 21/65/35
f 20/63/35 28/66/35 29/64/35
f 21/46/28 30/67/36 22/44/27
f 21/46/28 29/68/36 30/67/36
f 22/69/37 31/70/37 23/71/37
f 22/69/37 30/72/37 31/70/37
f 23/73/38 32/74/38 24/75/38
f 23/73/38 31/76/38 32/74/38
f 24/77/39 25/78/39 17/79/39
f 24/77/39 32/80/39 25/78/39
f 25/81/40 34/82/41 26/83/42
f 25/81/40 33/84/43 34/82/41
f 26/83/42 35/85/44 27/86/45
f 26/83/42 34/82/46 35/85/44
f 27/87/45 35/88/47 28/89/48
f 28/89/48 35/88/47 36/90/49
f 28/91/48 36/92/50 29/93/51
f 29/93/51 36/92/50 37/94/52
f 29/93/51 38/95/53 30/96/54
f 29/93/51 37/94/55 38/95/53
f 30/96/54 39/97/56 31/98/57
f 30/96/54 38/95/58 39/97/56
f 31/99/57 40/100/59 32/101/60
f 31/99/57 39/102/61 40/100/59
f 32/103/60 33/84/62 25/81/40
f 32/103/60 40/104/63 33/84/62
f 33/84/64 42/105/65 34/82/66
f 33/84/64 41/106/65 42/105/65
f 34/82/46 43/107/67 35/85/44
f 34/82/46 42/105/67 43/107/67
f 35/88/68 44/108/69 36/90/70
f 35/88/68 43/109/69 44/108/69
f 36/92/50 45/110/71 37/94/52
f 36/92/50 44/111/71 45/110/71
f 37/94/72 46/112/73 38/95/74
f 37/94/72 45/110/73 46/112/73
f 38/95/58 46/112/75 39/97/56
f 39/97/56 46/112/75 47/113/75
f 39/102/76 48/114/77 40/100/78
f 39/102/76 47/115/77 48/114/77
f 40/104/63 41/106/79 33/84/62
f 40/104/63 48/116/79 41/106/79
f 2/117/80 3/118/80 4/119/80
f 2/117/80 4/119/80 5/120/80
f 1/121/80 2/117/80 5/120/80
f 1/121/80 5/120/80 6/122/80
f 1/121/80 6/122/80 7/123/80
f 1/121/80 7/123/80 8/124/80
f 47/125/81 41/126/81 48/127/81
f 46/128/81 41/126/81 47/125/81
f 46/128/81 42/129/81 41/126/81
f 45/130/81 42/129/81 46/128/81
f 44/131/81 42/129/81 45/130/81
f 42/129/81 44/131/81 43/132/81
f 49/133/82 56/134/83 50/135/84
f 49/133/82 55/136/85 56/134/83
f 50/137/86 57/138/87 51/139/88
f 50/137/86 56/140/89 57/138/87
f 51/139/88 58/141/90 52/142/91
f 51/139/88 57/138/87 58/141/90
f 52/142/91 58/141/90 53/143/92
f 53/143/92 58/141/90 59/144/93
f 53/145/94 59/146/95 54/147/96
f 54/147/96 59/146/95 60/148/97
f 54/149/98 55/150/98 49/151/98
f 54/149/98 60/152/98 55/150/98
f 55/136/85 62/153/99 56/134/83
f 55/136/85 61/154/99 62/153/99
f 56/140/89 63/155/100 57/138/87
f 56/140/89 62/156/101 63/155/100
f 57/138/87 64/157/102 58/141/90
f 57/138/87 63/155/100 64/157/102
f 58/141/90 65/158/103 59/144/93
f 58/141/90 64/157/102 65/158/103
f 59/146/95 66/159/104 60/148/97
f 59/146/95 65/160/104 66/159/104
f 60/152/98 61/161/98 55/150/98
f 60/152/98 66/162/98 61/161/98
f 61/163/105 67/164/106 62/165/106
f 62/165/106 67/164/106 68/166/107
f 62/156/101 68/167/108 63/155/100
f 63/155/100 68/167/108 69/168/109
f 63/155/100 70/169/110 64/157/102
f 63/155/100 69/168/109 70/169/110
f 64/157/102 71/170/111 65/158/103
f 64/157/102 70/169/110 71/170/111
f 65/171/112 72/172/112 66/173/113
f 65/171/112 71/174/114 72/172/112
f 66/162/98 67/175/98 61/161/98
f 66/162/98 72/176/98 67/175/98
f 52/177/80 53/178/80 54/179/80
f 52/177/80 54/179/80 49/180/80
f 51/181/80 52/177/80 49/180/80
f 49/180/80 50/182/80 51/181/80
f 70/181/81 72/180/81 71/182/81
f 70/181/81 67/179/81 72/180/81
f 69/177/81 67/179/81 70/181/81
f 67/179/81 69/177/81 68/178/81
