# mech2 arm L, segment Lower, colour DarkGrey #5A5A5A
# arm space (origin = shoulder centre, studs); segment pivot [-0.0, -3.13, 0.0]
# bbox centre [-0.21, -6.845, 0.0] (Roblox recentres on import: place at armCF * CFrame.new(centre))
o Mech2Arm_L_Lower_DarkGrey
v -0.64000 -6.73000 -0.31000
v -0.64000 -6.73000 0.31000
v -0.57000 -6.73000 0.38000
v 0.15000 -6.73000 0.38000
v 0.22000 -6.73000 0.31000
v 0.22000 -6.73000 -0.31000
v 0.15000 -6.73000 -0.38000
v -0.57000 -6.73000 -0.38000
v -0.71000 -6.80000 -0.38000
v -0.71000 -6.80000 0.38000
v -0.64000 -6.80000 0.45000
v 0.22000 -6.80000 0.45000
v 0.29000 -6.80000 0.38000
v 0.29000 -6.80000 -0.38000
v 0.22000 -6.80000 -0.45000
v -0.64000 -6.80000 -0.45000
v -0.68000 -6.89000 -0.35000
v -0.68000 -6.89000 0.35000
v -0.61000 -6.89000 0.42000
v 0.19000 -6.89000 0.42000
v 0.26000 -6.89000 0.35000
v 0.26000 -6.89000 -0.35000
v 0.19000 -6.89000 -0.42000
v -0.61000 -6.89000 -0.42000
v -0.61000 -6.96000 -0.28000
v -0.61000 -6.96000 0.28000
v -0.54000 -6.96000 0.35000
v 0.12000 -6.96000 0.35000
v 0.19000 -6.96000 0.28000
v 0.19000 -6.96000 -0.28000
v 0.12000 -6.96000 -0.35000
v -0.54000 -6.96000 -0.35000
vt -0.07750 1.30284
vt 0.09500 1.32759
vt 0.07750 1.30284
vt -0.09500 1.32759
vt 0.74627 0.82175
vt 0.74627 0.86089
vt 0.72710 0.83741
vt 0.76544 0.84523
vt -0.14250 1.25688
vt 0.05500 1.28163
vt 0.03750 1.25688
vt -0.16000 1.28163
vt -0.63125 0.83741
vt -0.66959 0.84523
vt -0.65042 0.82175
vt -0.65042 0.86089
vt -0.07750 1.22860
vt 0.09500 1.25335
vt 0.07750 1.22860
vt -0.09500 1.25335
vt -0.65042 -0.82175
vt -0.65042 -0.86089
vt -0.63125 -0.83741
vt -0.66959 -0.84523
vt -0.03750 1.25688
vt -0.05500 1.28163
vt 0.14250 1.25688
vt 0.16000 1.28163
vt 0.72710 -0.83741
vt 0.74627 -0.86089
vt 0.74627 -0.82175
vt 0.76544 -0.84523
vt -0.09500 1.36559
vt 0.08750 1.38874
vt 0.09500 1.36559
vt -0.08750 1.38874
vt -0.58422 0.98780
vt -0.59740 1.00771
vt -0.60485 0.97413
vt -0.61804 0.99405
vt -0.16000 1.39690
vt 0.04750 1.42004
vt 0.05500 1.39690
vt -0.15250 1.42004
vt 0.69390 0.97413
vt 0.68646 1.00771
vt 0.67327 0.98780
vt 0.70709 0.99405
vt -0.09500 1.41968
vt 0.08750 1.44283
vt 0.09500 1.41968
vt -0.08750 1.44283
vt 0.67327 -0.98780
vt 0.68646 -1.00771
vt 0.69390 -0.97413
vt 0.70709 -0.99405
vt -0.05500 1.39690
vt 0.15250 1.42004
vt 0.16000 1.39690
vt -0.04750 1.42004
vt -0.60485 -0.97413
vt -0.59740 -1.00771
vt -0.58422 -0.98780
vt -0.61804 -0.99405
vt 0.07000 1.41275
vt -0.07000 1.41275
vt -0.61369 1.03231
vt -0.63433 1.01864
vt -0.13500 1.44407
vt 0.03000 1.44407
vt 0.70275 1.03231
vt 0.72338 1.01864
vt 0.07000 1.46685
vt -0.07000 1.46685
vt 0.72338 -1.01864
vt 0.70275 -1.03231
vt 0.13500 1.44407
vt -0.03000 1.44407
vt -0.61369 -1.03231
vt -0.63433 -1.01864
vt 0.16000 -0.07750
vt 0.16000 0.07750
vt 0.14250 0.09500
vt -0.03750 0.09500
vt 0.14250 -0.09500
vt -0.03750 -0.09500
vt -0.05500 0.07750
vt -0.05500 -0.07750
vt 0.13500 0.08750
vt 0.15250 -0.07000
vt 0.15250 0.07000
vt -0.03000 0.08750
vt 0.13500 -0.08750
vt -0.03000 -0.08750
vt -0.04750 0.07000
vt -0.04750 -0.07000
vn -0.7071 0.7071 0.0000
vn -0.4082 0.8165 0.4082
vn 0.0000 0.7071 0.7071
vn 0.4082 0.8165 0.4082
vn 0.7071 0.7071 0.0000
vn 0.4082 0.8165 -0.4082
vn 0.0000 0.7071 -0.7071
vn -0.4082 0.8165 -0.4082
vn -0.9487 -0.3162 0.0000
vn -0.8892 -0.4574 0.0000
vn -0.8107 -0.5855 0.0000
vn -0.6396 -0.4264 0.6396
vn -0.5697 -0.5924 0.5697
vn -0.4888 -0.7226 0.4888
vn 0.0000 -0.3162 0.9487
vn 0.0000 -0.5171 0.8559
vn 0.0000 -0.5300 0.8480
vn 0.6396 -0.4264 0.6396
vn 0.5697 -0.5924 0.5697
vn 0.4888 -0.7226 0.4888
vn 0.9487 -0.3162 0.0000
vn 0.8892 -0.4574 0.0000
vn 0.8107 -0.5855 0.0000
vn 0.6396 -0.4264 -0.6396
vn 0.5298 -0.6623 -0.5298
vn 0.0000 -0.3162 -0.9487
vn 0.0000 -0.4579 -0.8890
vn 0.0000 -0.5867 -0.8098
vn -0.6396 -0.4264 -0.6396
vn -0.5697 -0.5924 -0.5697
vn -0.4888 -0.7226 -0.4888
vn -0.7071 -0.7071 0.0000
vn -0.4082 -0.8165 0.4082
vn 0.0000 -0.7071 0.7071
vn 0.4082 -0.8165 0.4082
vn 0.7071 -0.7071 0.0000
vn 0.4082 -0.8165 -0.4082
vn 0.0000 -0.7071 -0.7071
vn -0.4082 -0.8165 -0.4082
vn 0.0000 1.0000 0.0000
vn 0.0000 -1.0000 0.0000
s off
f 1/1/1 10/2/1 2/3/1
f 1/1/1 9/4/1 10/2/1
f 2/5/2 11/6/2 3/7/2
f 2/5/2 10/8/2 11/6/2
f 3/9/3 12/10/3 4/11/3
f 3/9/3 11/12/3 12/10/3
f 4/13/4 13/14/4 5/15/4
f 4/13/4 12/16/4 13/14/4
f 5/17/5 14/18/5 6/19/5
f 5/17/5 13/20/5 14/18/5
f 6/21/6 15/22/6 7/23/6
f 6/21/6 14/24/6 15/22/6
f 7/25/7 15/26/7 8/27/7
f 8/27/7 15/26/7 16/28/7
f 8/29/8 16/30/8 1/31/8
f 1/31/8 16/30/8 9/32/8
f 9/33/9 18/34/10 10/35/9
f 9/33/9 17/36/11 18/34/10
f 10/37/12 18/38/13 11/39/12
f 11/39/12 18/38/13 19/40/14
f 11/41/15 20/42/16 12/43/15
f 11/41/15 19/44/17 20/42/16
f 12/45/18 21/46/19 13/47/18
f 12/45/18 20/48/20 21/46/19
f 13/49/21 22/50/22 14/51/21
f 13/49/21 21/52/23 22/50/22
f 14/53/24 22/54/25 15/55/24
f 15/55/24 22/54/25 23/56/25
f 15/57/26 24/58/27 16/59/26
f 15/57/26 23/60/28 24/58/27
f 16/61/29 17/62/30 9/63/29
f 16/61/29 24/64/31 17/62/30
f 17/36/11 26/65/32 18/34/10
f 17/36/11 25/66/32 26/65/32
f 18/38/13 26/67/33 19/40/14
f 19/40/14 26/67/33 27/68/33
f 19/44/17 27/69/34 20/42/16
f 20/42/16 27/69/34 28/70/34
f 20/48/20 29/71/35 21/46/19
f 20/48/20 28/72/35 29/71/35
f 21/52/23 30/73/36 22/50/22
f 21/52/23 29/74/36 30/73/36
f 22/54/25 31/75/37 23/56/25
f 22/54/25 30/76/37 31/75/37
f 23/60/28 32/77/38 24/58/27
f 23/60/28 31/78/38 32/77/38
f 24/64/31 25/79/39 17/62/30
f 24/64/31 32/80/39 25/79/39
f 1/81/40 2/82/40 3/83/40
f 1/81/40 3/83/40 4/84/40
f 8/85/40 1/81/40 4/84/40
f 7/86/40 8/85/40 4/84/40
f 7/86/40 4/84/40 5/87/40
f 5/87/40 6/88/40 7/86/40
f 32/89/41 26/90/41 25/91/41
f 31/92/41 26/90/41 32/89/41
f 31/92/41 27/93/41 26/90/41
f 31/92/41 28/94/41 27/93/41
f 30/95/41 28/94/41 31/92/41
f 28/94/41 30/95/41 29/96/41
