# mech2 arm L, segment Thumb2, colour White #F2F2F2
# arm space (origin = shoulder centre, studs); segment pivot [0.08677357498616707, -7.634393846845605, -0.541188521382688]
# bbox centre [0.1539, -7.7688, -0.5538] (Roblox recentres on import: place at armCF * CFrame.new(centre))
o Mech2Arm_L_Thumb2_White
v -0.00328 -7.63207 -0.45366
v 0.02661 -7.61776 -0.40899
v 0.16745 -7.55172 -0.45157
v 0.17277 -7.54952 -0.50690
v 0.14549 -7.56298 -0.61801
v 0.07259 -7.59776 -0.70306
v -0.00663 -7.63491 -0.67910
v -0.03056 -7.64553 -0.56477
v 0.00665 -7.72668 -0.41909
v 0.04815 -7.70680 -0.35704
v 0.24377 -7.61508 -0.41619
v 0.25116 -7.61203 -0.49303
v 0.21327 -7.63072 -0.64735
v 0.11571 -7.67721 -0.75047
v 0.00568 -7.72880 -0.71720
v -0.03125 -7.74537 -0.57341
v 0.10438 -7.92385 -0.42286
v 0.14422 -7.90477 -0.36329
v 0.33201 -7.81672 -0.42007
v 0.33911 -7.81379 -0.49384
v 0.30273 -7.83173 -0.64198
v 0.20870 -7.87655 -0.74252
v 0.10307 -7.92608 -0.71058
v 0.06800 -7.94180 -0.57100
v 0.16055 -7.97496 -0.45418
v 0.18961 -7.96104 -0.41075
v 0.32654 -7.89684 -0.45215
v 0.33171 -7.89470 -0.50594
v 0.30519 -7.90779 -0.61396
v 0.23405 -7.94173 -0.69772
v 0.15703 -7.97785 -0.67443
v 0.13402 -7.98805 -0.56220
vt 0.02854 1.89341
vt 0.03873 1.91657
vt 0.04171 1.88893
vt 0.05702 1.91035
vt 0.08296 1.88027
vt 0.08571 1.90387
vt 0.11923 1.86265
vt 0.13608 1.87939
vt -1.18720 0.10268
vt -1.21364 0.09410
vt -1.18888 0.08888
vt -1.21130 0.11328
vt 0.25996 1.73546
vt 0.29434 1.75813
vt 0.28866 1.73570
vt 0.25448 1.75781
vt -0.38649 1.81143
vt -0.39927 1.82988
vt -0.36196 1.82745
vt -0.36800 1.85030
vt -0.11458 1.86207
vt -0.10010 1.89412
vt -0.09421 1.87204
vt -0.12840 1.88028
vt 0.05138 1.71990
vt 0.08145 1.74213
vt 0.08068 1.71971
vt 0.04411 1.74239
vt -0.42099 1.71779
vt -0.42681 1.74019
vt -0.39230 1.71773
vt -0.38695 1.74011
vt -0.36986 1.79516
vt -0.36843 1.74015
vt -0.38764 1.79512
vt 0.15911 1.92936
vt 0.11075 1.95286
vt 0.23596 1.75773
vt 0.23706 1.81275
vt 0.25484 1.81282
vt 0.29311 1.81314
vt -0.39896 1.89578
vt -0.42927 1.87599
vt -0.12485 1.94326
vt -0.15201 1.92997
vt 0.04555 1.79739
vt 0.08174 1.79714
vt -0.42591 1.79521
vt -0.66207 1.19759
vt -0.68535 1.20029
vt -0.67295 1.18258
vt -0.67742 1.21124
vt 0.12498 1.96548
vt 0.16024 1.94835
vt 0.13076 1.93476
vt 0.13882 1.95482
vt 0.14928 1.93384
vt 0.15232 1.95416
vt 0.25965 1.83047
vt 0.28755 1.83069
vt -0.41434 1.90671
vt -0.43839 1.89101
vt -0.13625 1.95724
vt -0.15605 1.94754
vt 0.05257 1.81490
vt 0.08129 1.81471
vt -0.39256 1.81273
vt -0.42046 1.81280
vt 0.77177 -0.16505
vt 0.79191 -0.18636
vt 0.81380 -0.18042
vt 0.82042 -0.15185
vt 0.76423 -0.13725
vt 0.81288 -0.12406
vt 0.76571 -0.12342
vt 0.80462 -0.11287
vt 0.77236 0.16452
vt 0.81329 0.17973
vt 0.79201 0.18550
vt 0.81965 0.15169
vt 0.76503 0.13749
vt 0.81232 0.12467
vt 0.76646 0.12405
vt 0.80429 0.11379
vn -0.9563 0.0064 0.2922
vn -0.8393 -0.1834 0.5118
vn -0.8418 0.1051 0.5294
vn -0.7755 -0.2238 0.5904
vn 0.0223 0.5078 0.8612
vn 0.1888 0.2152 0.9581
vn 0.1827 0.2272 0.9566
vn 0.6111 0.7864 0.0901
vn 0.8080 0.5890 0.0137
vn 0.6324 0.7514 -0.1882
vn 0.8396 0.5335 0.1020
vn 0.7592 0.5435 -0.3580
vn 0.5280 0.7220 -0.4472
vn 0.7943 0.5763 -0.1923
vn 0.6144 0.4815 -0.6250
vn 0.4073 0.6444 -0.6472
vn 0.5780 0.3841 -0.7200
vn -0.4018 0.2986 -0.8657
vn -0.3116 0.0528 -0.9487
vn -0.2627 -0.0607 -0.9630
vn -0.9732 -0.0029 -0.2298
vn -0.9553 -0.2546 -0.1503
vn -0.9999 0.0056 0.0148
vn -0.9103 -0.3138 -0.2699
vn -0.9526 -0.2592 0.1596
vn -0.9180 -0.2265 0.3254
vn -0.8264 -0.3283 0.4575
vn -0.6787 -0.4335 0.5928
vn -0.8079 -0.4688 0.3570
vn 0.2970 -0.0178 0.9547
vn 0.3032 -0.0325 0.9524
vn 0.9399 0.3254 0.1034
vn 0.8798 0.4718 -0.0585
vn 0.9243 0.3434 -0.1667
vn 0.8745 0.4703 -0.1184
vn 0.9182 0.3403 -0.2025
vn 0.8284 0.4943 -0.2633
vn 0.9400 0.2232 -0.2579
vn 0.5843 0.3844 -0.7147
vn 0.6644 0.2081 -0.7178
vn 0.7101 0.0985 -0.6972
vn -0.1910 -0.2110 -0.9587
vn -0.1355 -0.3164 -0.9389
vn -0.8288 -0.4921 -0.2663
vn -0.9114 -0.3169 -0.2624
vn -0.7649 -0.5932 -0.2511
vn -0.9101 -0.3208 0.2624
vn -0.8190 -0.4743 0.3228
vn -0.8503 -0.3384 0.4031
vn -0.7723 -0.5797 0.2599
vn -0.6136 -0.6261 0.4811
vn -0.4035 -0.7578 0.5127
vn -0.5522 -0.7828 0.2869
vn 0.4211 -0.3618 0.8317
vn 0.9904 -0.1042 0.0912
vn 0.9919 0.1268 -0.0044
vn 0.9822 -0.0634 -0.1770
vn 0.9333 0.2796 -0.2252
vn 0.9215 0.1181 -0.3699
vn 0.8961 -0.1277 -0.4250
vn 0.8122 0.0559 -0.5807
vn 0.7686 -0.1670 -0.6175
vn 0.0139 -0.5627 -0.8265
vn -0.5690 -0.7943 -0.2130
vn -0.7344 -0.6692 -0.1131
vn -0.5753 -0.8177 0.0199
vn -0.7391 -0.6605 0.1322
vn -0.7940 -0.5303 0.2971
vn -0.4258 0.9048 -0.0050
vn 0.4258 -0.9048 0.0050
s off
f 1/1/1 9/2/2 2/3/3
f 2/3/3 9/2/2 10/4/4
f 2/5/5 10/6/6 3/7/5
f 3/7/5 10/6/6 11/8/7
f 3/9/8 12/10/9 4/11/10
f 3/9/8 11/12/11 12/10/9
f 4/13/10 13/14/12 5/15/13
f 4/13/10 12/16/14 13/14/12
f 5/17/13 13/18/15 6/19/16
f 6/19/16 13/18/15 14/20/17
f 6/21/18 15/22/19 7/23/18
f 6/21/18 14/24/20 15/22/19
f 7/25/21 16/26/22 8/27/23
f 7/25/21 15/28/24 16/26/22
f 8/29/23 16/30/25 1/31/1
f 1/31/1 16/30/25 9/32/26
f 9/32/27 18/33/28 10/34/4
f 9/32/27 17/35/29 18/33/28
f 10/6/6 19/36/30 11/8/7
f 10/6/6 18/37/31 19/36/30
f 11/38/11 19/39/32 12/16/33
f 12/16/33 19/39/32 20/40/34
f 12/16/35 20/40/36 13/14/37
f 13/14/37 20/40/36 21/41/38
f 13/18/39 22/42/40 14/20/17
f 13/18/39 21/43/41 22/42/40
f 14/24/20 23/44/42 15/22/19
f 14/24/20 22/45/43 23/44/42
f 15/28/24 23/46/44 16/26/45
f 16/26/45 23/46/44 24/47/46
f 16/30/47 17/35/48 9/32/49
f 16/30/47 24/48/50 17/35/48
f 17/49/51 26/50/52 18/51/28
f 17/49/51 25/52/53 26/50/52
f 18/37/31 26/53/54 19/36/30
f 19/36/30 26/53/54 27/54/54
f 19/55/32 27/56/55 20/57/56
f 20/57/56 27/56/55 28/58/57
f 20/40/58 28/59/57 21/41/59
f 21/41/59 28/59/57 29/60/60
f 21/43/61 30/61/62 22/42/40
f 21/43/61 29/62/60 30/61/62
f 22/45/43 31/63/63 23/44/42
f 22/45/43 30/64/63 31/63/63
f 23/46/44 31/65/64 24/47/65
f 24/47/65 31/65/64 32/66/66
f 24/48/67 25/67/53 17/35/68
f 24/48/67 32/68/66 25/67/53
f 5/69/69 6/70/69 7/71/69
f 5/69/69 7/71/69 8/72/69
f 4/73/69 5/69/69 8/72/69
f 4/73/69 8/72/69 1/74/69
f 3/75/69 4/73/69 1/74/69
f 1/74/69 2/76/69 3/75/69
f 29/77/70 31/78/70 30/79/70
f 29/77/70 32/80/70 31/78/70
f 28/81/70 32/80/70 29/77/70
f 28/81/70 25/82/70 32/80/70
f 27/83/70 25/82/70 28/81/70
f 25/82/70 27/83/70 26/84/70
