# mech2 arm R, segment Middle2, colour Grey #8A8A8A
# arm space (origin = shoulder centre, studs); segment pivot [0.3103212266338348, -8.437830977912295, -0.16]
# bbox centre [-0.0376, -8.8243, -0.16] (Roblox recentres on import: place at armCF * CFrame.new(centre))
o Mech2Arm_R_Middle2_Grey
v 0.02737 -8.82427 -0.01000
v 0.01496 -8.86247 -0.01000
v -0.01754 -8.88608 -0.01000
v -0.05771 -8.88608 -0.01000
v -0.09021 -8.86247 -0.01000
v -0.10263 -8.82427 -0.01000
v -0.09021 -8.78606 -0.01000
v -0.05771 -8.76245 -0.01000
v -0.01754 -8.76245 -0.01000
v 0.01496 -8.78606 -0.01000
v 0.04737 -8.82427 -0.03000
v 0.03114 -8.87423 -0.03000
v -0.01136 -8.90511 -0.03000
v -0.06389 -8.90511 -0.03000
v -0.10639 -8.87423 -0.03000
v -0.12263 -8.82427 -0.03000
v -0.10639 -8.77430 -0.03000
v -0.06389 -8.74343 -0.03000
v -0.01136 -8.74343 -0.03000
v 0.03114 -8.77430 -0.03000
v 0.04737 -8.82427 -0.29000
v 0.03114 -8.87423 -0.29000
v -0.01136 -8.90511 -0.29000
v -0.06389 -8.90511 -0.29000
v -0.10639 -8.87423 -0.29000
v -0.12263 -8.82427 -0.29000
v -0.10639 -8.77430 -0.29000
v -0.06389 -8.74343 -0.29000
v -0.01136 -8.74343 -0.29000
v 0.03114 -8.77430 -0.29000
v 0.02737 -8.82427 -0.31000
v 0.01496 -8.86247 -0.31000
v -0.01754 -8.88608 -0.31000
v -0.05771 -8.88608 -0.31000
v -0.09021 -8.86247 -0.31000
v -0.10263 -8.82427 -0.31000
v -0.09021 -8.78606 -0.31000
v -0.05771 -8.76245 -0.31000
v -0.01754 -8.76245 -0.31000
v 0.01496 -8.78606 -0.31000
vt 0.00661 2.20607
vt 0.00441 2.21562
vt 0.01081 2.21856
vt 0.01368 2.20607
vt 0.00374 1.63419
vt -0.00439 1.63854
vt -0.00284 1.64543
vt 0.00778 1.63974
vt -0.01443 1.63854
vt -0.01597 1.64543
vt -0.02255 1.63419
vt -0.02660 1.63974
vt -0.01772 2.21562
vt -0.01991 2.20607
vt -0.02411 2.21856
vt -0.02698 2.20607
vt -0.01772 2.19652
vt -0.02411 2.19358
vt -0.02255 1.61674
vt -0.01443 1.61239
vt -0.01597 1.60550
vt -0.02660 1.61119
vt -0.00439 1.61239
vt -0.00284 1.60550
vt 0.00374 1.61674
vt 0.00778 1.61119
vt 0.00441 2.19652
vt 0.01081 2.19358
vt 0.00750 2.09443
vt 0.00750 2.10757
vt 0.07250 2.10757
vt 0.07250 2.09443
vt 1.29774 0.00750
vt 1.31087 0.00750
vt 1.31087 0.07250
vt 1.29774 0.07250
vt 0.00284 0.00750
vt 0.01597 0.00750
vt 0.01597 0.07250
vt 0.00284 0.07250
vt -1.29565 0.00750
vt -1.28252 0.00750
vt -1.28252 0.07250
vt -1.29565 0.07250
vt -0.00750 2.10175
vt -0.00750 2.08862
vt -0.07250 2.08862
vt -0.07250 2.10175
vt -0.00750 2.10757
vt -0.00750 2.09443
vt -0.07250 2.09443
vt -0.07250 2.10757
vt 1.31087 -0.00750
vt 1.29774 -0.00750
vt 1.29774 -0.07250
vt 1.31087 -0.07250
vt 0.01597 -0.00750
vt 0.00284 -0.00750
vt 0.00284 -0.07250
vt 0.01597 -0.07250
vt -1.28252 -0.00750
vt -1.29565 -0.00750
vt -1.29565 -0.07250
vt -1.28252 -0.07250
vt 0.00750 2.08862
vt 0.00750 2.10175
vt 0.07250 2.10175
vt 0.07250 2.08862
vt 0.04289 2.20607
vt 0.04576 2.21856
vt 0.04996 2.20607
vt 0.05216 2.21562
vt -0.00778 1.58565
vt 0.00284 1.59134
vt -0.00374 1.58011
vt 0.00439 1.58445
vt 0.01597 1.59134
vt 0.01443 1.58445
vt 0.02660 1.58565
vt 0.02255 1.58011
vt -0.03246 2.21856
vt -0.02959 2.20607
vt -0.03666 2.20607
vt -0.03885 2.21562
vt -0.03246 2.19358
vt -0.03885 2.19652
vt 0.02660 1.66528
vt 0.01597 1.65959
vt 0.02255 1.67082
vt 0.01443 1.66647
vt 0.00284 1.65959
vt 0.00439 1.66647
vt -0.00778 1.66528
vt -0.00374 1.67082
vt 0.04576 2.19358
vt 0.05216 2.19652
vt -0.02255 2.21562
vt -0.02255 2.19652
vt -0.02566 2.20607
vt -0.01443 2.22152
vt -0.01443 2.19061
vt -0.00439 2.22152
vt -0.00439 2.19061
vt 0.00374 2.21562
vt 0.00374 2.19652
vt 0.00684 2.20607
vt 0.02255 2.21562
vt 0.02566 2.20607
vt 0.02255 2.19652
vt 0.01443 2.22152
vt 0.01443 2.19061
vt 0.00439 2.22152
vt 0.00439 2.19061
vt -0.00374 2.21562
vt -0.00374 2.19652
vt -0.00684 2.20607
vn 0.7071 0.0000 0.7071
vn 0.5165 -0.4871 0.7042
vn 0.6082 -0.3635 0.7057
vn 0.1316 -0.6977 0.7042
vn 0.2784 -0.6515 0.7057
vn -0.2185 -0.6725 0.7071
vn -0.5165 -0.4871 0.7042
vn -0.6082 -0.3635 0.7057
vn -0.7071 -0.0000 0.7071
vn -0.5165 0.4871 0.7042
vn -0.6082 0.3635 0.7057
vn -0.1316 0.6977 0.7042
vn -0.2784 0.6515 0.7057
vn 0.2185 0.6725 0.7071
vn 0.5165 0.4871 0.7042
vn 0.6082 0.3635 0.7057
vn 0.9511 -0.3090 0.0000
vn 0.5878 -0.8090 0.0000
vn 0.0000 -1.0000 0.0000
vn -0.5878 -0.8090 0.0000
vn -0.9511 -0.3090 0.0000
vn -0.9511 0.3090 0.0000
vn -0.5878 0.8090 0.0000
vn 0.0000 1.0000 0.0000
vn 0.5878 0.8090 0.0000
vn 0.9511 0.3090 0.0000
vn 0.7071 0.0000 -0.7071
vn 0.6082 -0.3635 -0.7057
vn 0.5165 -0.4871 -0.7042
vn 0.2784 -0.6515 -0.7057
vn 0.1316 -0.6977 -0.7042
vn -0.2185 -0.6725 -0.7071
vn -0.6082 -0.3635 -0.7057
vn -0.5165 -0.4871 -0.7042
vn -0.7071 -0.0000 -0.7071
vn -0.6082 0.3635 -0.7057
vn -0.5165 0.4871 -0.7042
vn -0.2784 0.6515 -0.7057
vn -0.1316 0.6977 -0.7042
vn 0.2185 0.6725 -0.7071
vn 0.6082 0.3635 -0.7057
vn 0.5165 0.4871 -0.7042
vn 0.0000 0.0000 1.0000
vn 0.0000 0.0000 -1.0000
s off
f 1/1/1 2/2/2 12/3/3
f 1/1/1 12/3/3 11/4/1
f 2/5/2 3/6/4 13/7/5
f 2/5/2 13/7/5 12/8/3
f 3/6/4 4/9/6 14/10/6
f 3/6/4 14/10/6 13/7/5
f 4/9/6 5/11/7 14/10/6
f 5/11/7 15/12/8 14/10/6
f 5/13/7 6/14/9 15/15/8
f 6/14/9 16/16/9 15/15/8
f 6/14/9 7/17/10 17/18/11
f 6/14/9 17/18/11 16/16/9
f 7/19/10 8/20/12 18/21/13
f 7/19/10 18/21/13 17/22/11
f 8/20/12 9/23/14 19/24/14
f 8/20/12 19/24/14 18/21/13
f 9/23/14 10/25/15 19/24/14
f 10/25/15 20/26/16 19/24/14
f 10/27/15 1/1/1 20/28/16
f 1/1/1 11/4/1 20/28/16
f 11/29/17 12/30/17 22/31/17
f 11/29/17 22/31/17 21/32/17
f 12/33/18 13/34/18 23/35/18
f 12/33/18 23/35/18 22/36/18
f 13/37/19 14/38/19 24/39/19
f 13/37/19 24/39/19 23/40/19
f 14/41/20 15/42/20 25/43/20
f 14/41/20 25/43/20 24/44/20
f 15/45/21 16/46/21 26/47/21
f 15/45/21 26/47/21 25/48/21
f 16/49/22 17/50/22 27/51/22
f 16/49/22 27/51/22 26/52/22
f 17/53/23 18/54/23 28/55/23
f 17/53/23 28/55/23 27/56/23
f 18/57/24 19/58/24 29/59/24
f 18/57/24 29/59/24 28/60/24
f 19/61/25 20/62/25 30/63/25
f 19/61/25 30/63/25 29/64/25
f 20/65/26 11/66/26 21/67/26
f 20/65/26 21/67/26 30/68/26
f 21/69/27 22/70/28 31/71/27
f 22/70/28 32/72/29 31/71/27
f 22/73/28 23/74/30 32/75/29
f 23/74/30 33/76/31 32/75/29
f 23/74/30 24/77/32 33/76/31
f 24/77/32 34/78/32 33/76/31
f 24/77/32 25/79/33 35/80/34
f 24/77/32 35/80/34 34/78/32
f 25/81/33 26/82/35 36/83/35
f 25/81/33 36/83/35 35/84/34
f 26/82/35 27/85/36 36/83/35
f 27/85/36 37/86/37 36/83/35
f 27/87/36 28/88/38 37/89/37
f 28/88/38 38/90/39 37/89/37
f 28/88/38 29/91/40 38/90/39
f 29/91/40 39/92/40 38/90/39
f 29/91/40 30/93/41 40/94/42
f 29/91/40 40/94/42 39/92/40
f 30/95/41 21/69/27 31/71/27
f 30/95/41 31/71/27 40/96/42
f 5/97/43 7/98/43 6/99/43
f 4/100/43 7/98/43 5/97/43
f 4/100/43 8/101/43 7/98/43
f 3/102/43 8/101/43 4/100/43
f 3/102/43 9/103/43 8/101/43
f 2/104/43 9/103/43 3/102/43
f 2/104/43 10/105/43 9/103/43
f 1/106/43 10/105/43 2/104/43
f 35/107/44 36/108/44 37/109/44
f 34/110/44 35/107/44 37/109/44
f 34/110/44 37/109/44 38/111/44
f 33/112/44 34/110/44 38/111/44
f 33/112/44 38/111/44 39/113/44
f 32/114/44 33/112/44 39/113/44
f 32/114/44 39/113/44 40/115/44
f 31/116/44 32/114/44 40/115/44
