# mech2 arm R, segment Ring2, colour Grey #8A8A8A
# arm space (origin = shoulder centre, studs); segment pivot [0.3004187759374375, -8.436877480359916, 0.16]
# bbox centre [-0.0673, -8.8046, 0.16] (Roblox recentres on import: place at armCF * CFrame.new(centre))
o Mech2Arm_R_Ring2_Grey
v -0.00228 -8.80457 0.31000
v -0.01469 -8.84278 0.31000
v -0.04719 -8.86639 0.31000
v -0.08736 -8.86639 0.31000
v -0.11986 -8.84278 0.31000
v -0.13228 -8.80457 0.31000
v -0.11986 -8.76637 0.31000
v -0.08736 -8.74275 0.31000
v -0.04719 -8.74275 0.31000
v -0.01469 -8.76637 0.31000
v 0.01772 -8.80457 0.29000
v 0.00149 -8.85453 0.29000
v -0.04101 -8.88541 0.29000
v -0.09354 -8.88541 0.29000
v -0.13604 -8.85453 0.29000
v -0.15228 -8.80457 0.29000
v -0.13604 -8.75461 0.29000
v -0.09354 -8.72373 0.29000
v -0.04101 -8.72373 0.29000
v 0.00149 -8.75461 0.29000
v 0.01772 -8.80457 0.03000
v 0.00149 -8.85453 0.03000
v -0.04101 -8.88541 0.03000
v -0.09354 -8.88541 0.03000
v -0.13604 -8.85453 0.03000
v -0.15228 -8.80457 0.03000
v -0.13604 -8.75461 0.03000
v -0.09354 -8.72373 0.03000
v -0.04101 -8.72373 0.03000
v 0.00149 -8.75461 0.03000
v -0.00228 -8.80457 0.01000
v -0.01469 -8.84278 0.01000
v -0.04719 -8.86639 0.01000
v -0.08736 -8.86639 0.01000
v -0.11986 -8.84278 0.01000
v -0.13228 -8.80457 0.01000
v -0.11986 -8.76637 0.01000
v -0.08736 -8.74275 0.01000
v -0.04719 -8.74275 0.01000
v -0.01469 -8.76637 0.01000
vt -0.05520 2.20114
vt -0.05740 2.21069
vt -0.05100 2.21363
vt -0.04813 2.20114
vt -0.00367 1.57648
vt -0.01180 1.58083
vt -0.01025 1.58771
vt 0.00037 1.58202
vt -0.02184 1.58083
vt -0.02339 1.58771
vt -0.02997 1.57648
vt -0.03401 1.58202
vt 0.03361 2.21069
vt 0.03142 2.20114
vt 0.02722 2.21363
vt 0.02435 2.20114
vt 0.03361 2.19159
vt 0.02722 2.18865
vt -0.02997 1.66720
vt -0.02184 1.66285
vt -0.02339 1.65596
vt -0.03401 1.66165
vt -0.01180 1.66285
vt -0.01025 1.65596
vt -0.00367 1.66720
vt 0.00037 1.66165
vt -0.05740 2.19159
vt -0.05100 2.18865
vt -0.07250 2.09204
vt -0.07250 2.10518
vt -0.00750 2.10518
vt -0.00750 2.09204
vt 1.30084 -0.07250
vt 1.31397 -0.07250
vt 1.31397 -0.00750
vt 1.30084 -0.00750
vt 0.01025 -0.07250
vt 0.02339 -0.07250
vt 0.02339 -0.00750
vt 0.01025 -0.00750
vt -1.28676 -0.07250
vt -1.27363 -0.07250
vt -1.27363 -0.00750
vt -1.28676 -0.00750
vt 0.07250 2.09478
vt 0.07250 2.08165
vt 0.00750 2.08165
vt 0.00750 2.09478
vt 0.07250 2.10518
vt 0.07250 2.09204
vt 0.00750 2.09204
vt 0.00750 2.10518
vt 1.31397 0.07250
vt 1.30084 0.07250
vt 1.30084 0.00750
vt 1.31397 0.00750
vt 0.02339 0.07250
vt 0.01025 0.07250
vt 0.01025 0.00750
vt 0.02339 0.00750
vt -1.27363 0.07250
vt -1.28676 0.07250
vt -1.28676 0.00750
vt -1.27363 0.00750
vt -0.07250 2.08165
vt -0.07250 2.09478
vt -0.00750 2.09478
vt -0.00750 2.08165
vt -0.00844 2.20114
vt -0.00557 2.21363
vt -0.00137 2.20114
vt 0.00083 2.21069
vt -0.00037 1.63611
vt 0.01025 1.64180
vt 0.00367 1.63057
vt 0.01180 1.63491
vt 0.02339 1.64180
vt 0.02184 1.63491
vt 0.03401 1.63611
vt 0.02997 1.63057
vt 0.02935 2.21363
vt 0.03222 2.20114
vt 0.02515 2.20114
vt 0.02296 2.21069
vt 0.02935 2.18865
vt 0.02296 2.19159
vt 0.03401 1.60756
vt 0.02339 1.60188
vt 0.02997 1.61311
vt 0.02184 1.60876
vt 0.01025 1.60188
vt 0.01180 1.60876
vt -0.00037 1.60756
vt 0.00367 1.61311
vt -0.00557 2.18865
vt 0.00083 2.19159
vt -0.02997 2.21069
vt -0.02997 2.19159
vt -0.03307 2.20114
vt -0.02184 2.21660
vt -0.02184 2.18569
vt -0.01180 2.21660
vt -0.01180 2.18569
vt -0.00367 2.21069
vt -0.00367 2.19159
vt -0.00057 2.20114
vt 0.02997 2.21069
vt 0.03307 2.20114
vt 0.02997 2.19159
vt 0.02184 2.21660
vt 0.02184 2.18569
vt 0.01180 2.21660
vt 0.01180 2.18569
vt 0.00367 2.21069
vt 0.00367 2.19159
vt 0.00057 2.20114
vn 0.7071 0.0000 0.7071
vn 0.5165 -0.4871 0.7042
vn 0.6082 -0.3635 0.7057
vn 0.1316 -0.6977 0.7042
vn 0.2784 -0.6515 0.7057
vn -0.2185 -0.6725 0.7071
vn -0.5165 -0.4871 0.7042
vn -0.6082 -0.3635 0.7057
vn -0.7071 0.0000 0.7071
vn -0.5165 0.4871 0.7042
vn -0.6082 0.3635 0.7057
vn -0.1316 0.6977 0.7042
vn -0.2784 0.6515 0.7057
vn 0.2185 0.6725 0.7071
vn 0.5165 0.4871 0.7042
vn 0.6082 0.3635 0.7057
vn 0.9511 -0.3090 0.0000
vn 0.5878 -0.8090 0.0000
vn 0.0000 -1.0000 0.0000
vn -0.5878 -0.8090 0.0000
vn -0.9511 -0.3090 0.0000
vn -0.9511 0.3090 0.0000
vn -0.5878 0.8090 0.0000
vn 0.0000 1.0000 0.0000
vn 0.5878 0.8090 0.0000
vn 0.9511 0.3090 0.0000
vn 0.7071 0.0000 -0.7071
vn 0.6082 -0.3635 -0.7057
vn 0.5165 -0.4871 -0.7042
vn 0.2784 -0.6515 -0.7057
vn 0.1316 -0.6977 -0.7042
vn -0.2185 -0.6725 -0.7071
vn -0.6082 -0.3635 -0.7057
vn -0.5165 -0.4871 -0.7042
vn -0.7071 0.0000 -0.7071
vn -0.6082 0.3635 -0.7057
vn -0.5165 0.4871 -0.7042
vn -0.2784 0.6515 -0.7057
vn -0.1316 0.6977 -0.7042
vn 0.2185 0.6725 -0.7071
vn 0.6082 0.3635 -0.7057
vn 0.5165 0.4871 -0.7042
vn 0.0000 0.0000 1.0000
vn 0.0000 0.0000 -1.0000
s off
f 1/1/1 2/2/2 12/3/3
f 1/1/1 12/3/3 11/4/1
f 2/5/2 3/6/4 13/7/5
f 2/5/2 13/7/5 12/8/3
f 3/6/4 4/9/6 14/10/6
f 3/6/4 14/10/6 13/7/5
f 4/9/6 5/11/7 14/10/6
f 5/11/7 15/12/8 14/10/6
f 5/13/7 6/14/9 15/15/8
f 6/14/9 16/16/9 15/15/8
f 6/14/9 7/17/10 17/18/11
f 6/14/9 17/18/11 16/16/9
f 7/19/10 8/20/12 18/21/13
f 7/19/10 18/21/13 17/22/11
f 8/20/12 9/23/14 19/24/14
f 8/20/12 19/24/14 18/21/13
f 9/23/14 10/25/15 19/24/14
f 10/25/15 20/26/16 19/24/14
f 10/27/15 1/1/1 20/28/16
f 1/1/1 11/4/1 20/28/16
f 11/29/17 12/30/17 22/31/17
f 11/29/17 22/31/17 21/32/17
f 12/33/18 13/34/18 23/35/18
f 12/33/18 23/35/18 22/36/18
f 13/37/19 14/38/19 24/39/19
f 13/37/19 24/39/19 23/40/19
f 14/41/20 15/42/20 25/43/20
f 14/41/20 25/43/20 24/44/20
f 15/45/21 16/46/21 26/47/21
f 15/45/21 26/47/21 25/48/21
f 16/49/22 17/50/22 27/51/22
f 16/49/22 27/51/22 26/52/22
f 17/53/23 18/54/23 28/55/23
f 17/53/23 28/55/23 27/56/23
f 18/57/24 19/58/24 29/59/24
f 18/57/24 29/59/24 28/60/24
f 19/61/25 20/62/25 30/63/25
f 19/61/25 30/63/25 29/64/25
f 20/65/26 11/66/26 21/67/26
f 20/65/26 21/67/26 30/68/26
f 21/69/27 22/70/28 31/71/27
f 22/70/28 32/72/29 31/71/27
f 22/73/28 23/74/30 32/75/29
f 23/74/30 33/76/31 32/75/29
f 23/74/30 24/77/32 33/76/31
f 24/77/32 34/78/32 33/76/31
f 24/77/32 25/79/33 35/80/34
f 24/77/32 35/80/34 34/78/32
f 25/81/33 26/82/35 36/83/35
f 25/81/33 36/83/35 35/84/34
f 26/82/35 27/85/36 36/83/35
f 27/85/36 37/86/37 36/83/35
f 27/87/36 28/88/38 37/89/37
f 28/88/38 38/90/39 37/89/37
f 28/88/38 29/91/40 38/90/39
f 29/91/40 39/92/40 38/90/39
f 29/91/40 30/93/41 40/94/42
f 29/91/40 40/94/42 39/92/40
f 30/95/41 21/69/27 31/71/27
f 30/95/41 31/71/27 40/96/42
f 5/97/43 7/98/43 6/99/43
f 4/100/43 7/98/43 5/97/43
f 4/100/43 8/101/43 7/98/43
f 3/102/43 8/101/43 4/100/43
f 3/102/43 9/103/43 8/101/43
f 2/104/43 9/103/43 3/102/43
f 2/104/43 10/105/43 9/103/43
f 1/106/43 10/105/43 2/104/43
f 35/107/44 36/108/44 37/109/44
f 34/110/44 35/107/44 37/109/44
f 34/110/44 37/109/44 38/111/44
f 33/112/44 34/110/44 38/111/44
f 33/112/44 38/111/44 39/113/44
f 32/114/44 33/112/44 39/113/44
f 32/114/44 39/113/44 40/115/44
f 31/116/44 32/114/44 40/115/44
