# mech2 arm R, segment Thumb3, colour White #F2F2F2
# arm space (origin = shoulder centre, studs); segment pivot [-0.2315427227406205, -7.9420282858238185, -0.5394721842919427]
# bbox centre [-0.2748, -8.0326, -0.5298] (Roblox recentres on import: place at armCF * CFrame.new(centre))
o Mech2Arm_R_Thumb3_White
v -0.13299 -7.92164 -0.46433
v -0.15827 -7.89755 -0.42104
v -0.30350 -7.84083 -0.46231
v -0.31452 -7.85073 -0.51592
v -0.29867 -7.88850 -0.62359
v -0.23453 -7.94188 -0.70601
v -0.15284 -7.97379 -0.68280
v -0.11714 -7.95940 -0.57200
v -0.13822 -8.00626 -0.40906
v -0.17333 -7.97281 -0.34892
v -0.37504 -7.89402 -0.40625
v -0.39034 -7.90778 -0.48071
v -0.36833 -7.96023 -0.63025
v -0.28139 -8.02928 -0.73019
v -0.16793 -8.07359 -0.69794
v -0.11621 -8.05871 -0.55860
v -0.19137 -8.10608 -0.38658
v -0.22473 -8.07430 -0.32945
v -0.41634 -7.99945 -0.38391
v -0.43089 -8.01252 -0.45464
v -0.40998 -8.06235 -0.59671
v -0.32710 -8.12860 -0.69352
v -0.21932 -8.17070 -0.66289
v -0.17046 -8.15591 -0.52864
v -0.25699 -8.17989 -0.39388
v -0.28157 -8.15648 -0.35179
v -0.42276 -8.10133 -0.39191
v -0.43348 -8.11096 -0.44404
v -0.41807 -8.14767 -0.54872
v -0.35831 -8.19338 -0.61119
v -0.27889 -8.22440 -0.58862
v -0.24158 -8.21661 -0.49856
v -0.36634 -8.17885 -0.39065
vt -0.08952 1.92052
vt -0.10135 1.91322
vt -0.10463 1.94082
vt -0.12106 1.93067
vt 0.04734 1.36538
vt 0.01097 1.34798
vt -0.00695 1.36727
vt 0.04357 1.39143
vt 1.24877 -0.16931
vt 1.25223 -0.18278
vt 1.27610 -0.17437
vt 1.27128 -0.15567
vt -0.21407 1.87944
vt -0.24171 1.88705
vt -0.24176 1.90971
vt -0.20336 1.89914
vt -0.28645 1.95750
vt -0.31379 1.96802
vt -0.27779 1.97806
vt -0.31263 1.99150
vt 0.04742 1.99311
vt 0.02596 2.00046
vt 0.05973 2.01547
vt 0.02992 2.02566
vt -0.08053 1.74314
vt -0.10883 1.73554
vt -0.11528 1.75690
vt -0.07922 1.76661
vt 0.40835 1.83513
vt 0.38056 1.82806
vt 0.40885 1.85778
vt 0.37025 1.84797
vt 0.35214 1.84382
vt 0.34702 1.87222
vt 0.36422 1.87616
vt -0.11054 1.97393
vt -0.16243 1.95288
vt -0.17179 1.97967
vt -0.12249 1.99967
vt -0.18534 1.89463
vt -0.17966 1.92292
vt -0.19678 1.92720
vt -0.23325 1.93724
vt -0.30104 2.01787
vt -0.26754 2.00495
vt 0.08361 1.54358
vt 0.05524 1.55727
vt 0.09511 1.56919
vt 0.06816 1.58221
vt -0.08797 1.79405
vt -0.12265 1.78472
vt 0.40089 1.88548
vt 0.35052 1.89673
vt 0.36320 1.89964
vt -0.17443 2.00480
vt -0.13811 2.01954
vt -0.18267 1.94750
vt -0.19529 1.95065
vt -0.22217 1.95806
vt -0.28273 2.03513
vt -0.25995 2.02632
vt 0.10283 1.59424
vt 0.08297 1.60383
vt -0.10437 1.81314
vt -0.12795 1.80677
vt 0.39022 1.90651
vt -0.69786 -0.68443
vt -0.73788 -0.70446
vt -0.71546 -0.70788
vt -0.74768 -0.67682
vt -0.69351 -0.65596
vt -0.74333 -0.64835
vt -0.69653 -0.64239
vt -0.73639 -0.63630
vt 0.10219 1.08481
vt 0.07485 1.08564
vt 0.08100 1.07360
vt -0.16111 2.02411
vt -0.43115 1.60383
vt -0.43148 1.57986
vt -0.44499 1.58024
vt -0.70481 0.38394
vt -0.68204 0.39477
vt -0.68770 0.42197
vt -0.70502 0.43904
vt -0.72661 0.43455
vt -0.73567 0.41198
vt -0.73001 0.38478
vn 0.9812 0.0593 0.1836
vn 0.8906 0.2088 0.4040
vn 0.9582 0.1127 0.2631
vn 0.0607 0.6842 0.7267
vn -0.6075 0.7940 -0.0218
vn -0.6570 0.6992 -0.2819
vn -0.6455 0.7391 -0.1926
vn -0.5794 0.6126 -0.5376
vn -0.7526 0.4944 -0.4349
vn -0.7803 0.5859 -0.2186
vn -0.4791 0.4917 -0.7271
vn -0.6403 0.4848 -0.5958
vn -0.6302 0.2636 -0.7304
vn -0.6681 0.4097 -0.6211
vn 0.3070 0.0972 -0.9467
vn 0.9444 -0.0643 -0.3226
vn 0.9960 -0.0027 -0.0899
vn 0.9797 -0.1480 -0.1354
vn 0.9611 -0.2266 -0.1581
vn 0.8953 -0.3323 -0.2969
vn 0.9814 -0.1830 0.0579
vn 0.9569 -0.0927 0.2751
vn 0.8320 -0.3452 0.4344
vn 0.7583 -0.2702 0.5932
vn 0.7061 -0.3575 0.6113
vn 0.7864 -0.4763 0.3935
vn -0.1659 0.2662 0.9495
vn -0.2059 0.1735 0.9631
vn -0.2456 0.0745 0.9665
vn -0.9159 0.3838 0.1174
vn -0.9360 0.3454 -0.0680
vn -0.9471 0.2882 0.1415
vn -0.9718 0.2105 -0.1062
vn -0.8750 0.4589 -0.1541
vn -0.8336 0.4714 -0.2880
vn -0.9736 0.1287 -0.1884
vn -0.6374 0.2671 -0.7228
vn -0.7658 -0.0247 -0.6426
vn -0.6691 0.1992 -0.7160
vn -0.7865 -0.1232 -0.6052
vn 0.1086 -0.3879 -0.9153
vn 0.0398 -0.5193 -0.8537
vn -0.0306 -0.6381 -0.7694
vn 0.8985 -0.3328 -0.2863
vn 0.7566 -0.6193 -0.2099
vn 0.8721 -0.4028 -0.2780
vn 0.6898 -0.6998 -0.1856
vn 0.9495 -0.2251 0.2187
vn 0.9056 -0.2366 0.3520
vn 0.7736 -0.5538 0.3081
vn 0.5499 -0.5510 0.6277
vn 0.6712 -0.6346 0.3831
vn -0.3054 -0.0923 0.9478
vn -0.3156 -0.1234 0.9409
vn -0.9801 0.0466 0.1929
vn -0.9958 0.0165 -0.0906
vn -0.9598 0.0302 -0.2791
vn -0.9888 0.0100 -0.1490
vn -0.8942 -0.0736 -0.4415
vn -0.8027 -0.2570 -0.5381
vn -0.7840 -0.2461 -0.5699
vn -0.1144 -0.7592 -0.6408
vn 0.7127 -0.7013 0.0152
vn 0.5842 -0.7987 -0.1440
vn 0.5941 -0.7844 -0.1782
vn 0.7444 -0.6355 0.2052
vn 0.6897 -0.6456 0.3280
vn 0.4126 0.8768 -0.2468
vn -0.0774 -0.9586 0.2741
vn 0.0024 -0.9251 0.3797
vn 0.0061 -0.8723 0.4889
vn -0.3512 -0.2410 0.9047
vn -0.6853 -0.7211 0.1013
vn -0.7816 -0.5647 0.2650
vn -0.7624 -0.6264 0.1623
vn -0.5801 -0.8103 0.0827
vn -0.6626 -0.7457 0.0698
vn -0.4911 -0.8652 0.1009
vn -0.4734 -0.8799 0.0408
vn -0.3924 -0.9107 0.1292
vn -0.2818 -0.9547 0.0952
vn -0.2893 -0.9441 0.1583
vn -0.0926 -0.9684 0.2318
vn -0.1908 -0.9624 0.1934
s off
f 1/1/1 2/2/2 9/3/3
f 2/2/2 10/4/2 9/3/3
f 2/5/4 3/6/4 11/7/4
f 2/5/4 11/7/4 10/8/4
f 3/9/5 4/10/6 12/11/7
f 3/9/5 12/11/7 11/12/5
f 4/13/6 5/14/8 13/15/9
f 4/13/6 13/15/9 12/16/10
f 5/17/8 6/18/11 13/19/12
f 6/18/11 14/20/13 13/19/14
f 6/21/15 7/22/15 14/23/15
f 7/22/15 15/24/15 14/23/15
f 7/25/16 8/26/17 16/27/18
f 7/25/16 16/27/19 15/28/20
f 8/29/17 1/30/1 16/31/21
f 1/30/1 9/32/22 16/31/21
f 9/32/23 10/33/24 18/34/25
f 9/32/23 18/34/25 17/35/26
f 10/36/27 11/37/27 19/38/28
f 10/36/27 19/38/28 18/39/29
f 11/40/30 12/16/31 19/41/32
f 12/16/31 20/42/33 19/41/32
f 12/16/34 13/15/35 20/42/33
f 13/15/35 21/43/36 20/42/33
f 13/19/37 14/20/13 22/44/38
f 13/19/39 22/44/38 21/45/40
f 14/46/41 15/47/41 22/48/42
f 15/47/41 23/49/43 22/48/42
f 15/28/20 16/27/44 23/50/45
f 16/27/46 24/51/47 23/50/45
f 16/31/48 9/32/49 17/35/26
f 16/31/48 17/35/26 24/52/50
f 17/35/26 18/34/25 26/53/51
f 17/35/26 26/53/51 25/54/52
f 18/39/29 19/38/28 27/55/53
f 18/39/29 27/55/53 26/56/54
f 19/41/32 20/42/33 27/57/55
f 20/42/33 28/58/56 27/57/55
f 20/42/33 21/43/57 28/58/56
f 21/43/57 29/59/58 28/58/56
f 21/45/59 22/44/38 30/60/60
f 21/45/40 30/60/60 29/61/61
f 22/48/42 23/49/43 30/62/62
f 23/49/43 31/63/62 30/62/62
f 23/50/45 24/51/63 31/64/64
f 24/51/47 32/65/65 31/64/64
f 24/52/66 17/35/26 25/54/52
f 24/52/66 25/54/52 32/66/67
f 5/67/68 7/68/68 6/69/68
f 5/67/68 8/70/68 7/68/68
f 4/71/68 8/70/68 5/67/68
f 4/71/68 1/72/68 8/70/68
f 3/73/68 1/72/68 4/71/68
f 1/72/68 3/73/68 2/74/68
f 33/75/69 25/76/70 26/77/71
f 33/78/72 26/56/54 27/55/53
f 33/79/73 27/80/74 28/81/75
f 33/82/76 28/83/75 29/84/77
f 33/82/78 29/84/77 30/85/79
f 33/82/80 30/85/79 31/86/81
f 33/82/82 31/86/81 32/87/83
f 33/82/84 32/87/83 25/88/70
