# mech2 arm R, segment Hand, colour Grey #8A8A8A
# arm space (origin = shoulder centre, studs); segment pivot [0.3, -6.93, 0.0]
# bbox centre [0.2362, -7.3975, -0.0075] (Roblox recentres on import: place at armCF * CFrame.new(centre))
o Mech2Arm_R_Hand_Grey
v 0.30000 -6.83000 0.27000
v 0.18285 -6.83000 0.24326
v 0.08891 -6.83000 0.16834
v 0.03677 -6.83000 0.06008
v 0.03677 -6.83000 -0.06008
v 0.08891 -6.83000 -0.16834
v 0.18285 -6.83000 -0.24326
v 0.30000 -6.83000 -0.27000
v 0.41715 -6.83000 -0.24326
v 0.51109 -6.83000 -0.16834
v 0.56323 -6.83000 -0.06008
v 0.56323 -6.83000 0.06008
v 0.51109 -6.83000 0.16834
v 0.41715 -6.83000 0.24326
v 0.30000 -6.86000 0.30000
v 0.16983 -6.86000 0.27029
v 0.06545 -6.86000 0.18705
v 0.00752 -6.86000 0.06676
v 0.00752 -6.86000 -0.06676
v 0.06545 -6.86000 -0.18705
v 0.16983 -6.86000 -0.27029
v 0.30000 -6.86000 -0.30000
v 0.43017 -6.86000 -0.27029
v 0.53455 -6.86000 -0.18705
v 0.59248 -6.86000 -0.06676
v 0.59248 -6.86000 0.06676
v 0.53455 -6.86000 0.18705
v 0.43017 -6.86000 0.27029
v 0.30000 -7.08000 0.30000
v 0.16983 -7.08000 0.27029
v 0.06545 -7.08000 0.18705
v 0.00752 -7.08000 0.06676
v 0.00752 -7.08000 -0.06676
v 0.06545 -7.08000 -0.18705
v 0.16983 -7.08000 -0.27029
v 0.30000 -7.08000 -0.30000
v 0.43017 -7.08000 -0.27029
v 0.53455 -7.08000 -0.18705
v 0.59248 -7.08000 -0.06676
v 0.59248 -7.08000 0.06676
v 0.53455 -7.08000 0.18705
v 0.43017 -7.08000 0.27029
v 0.30000 -7.11000 0.27000
v 0.18285 -7.11000 0.24326
v 0.08891 -7.11000 0.16834
v 0.03677 -7.11000 0.06008
v 0.03677 -7.11000 -0.06008
v 0.08891 -7.11000 -0.16834
v 0.18285 -7.11000 -0.24326
v 0.30000 -7.11000 -0.27000
v 0.41715 -7.11000 -0.24326
v 0.51109 -7.11000 -0.16834
v 0.56323 -7.11000 -0.06008
v 0.56323 -7.11000 0.06008
v 0.51109 -7.11000 0.16834
v 0.41715 -7.11000 0.24326
v 0.28500 -7.87000 -0.64000
v 0.29505 -7.90750 -0.64000
v 0.32250 -7.93495 -0.64000
v 0.36000 -7.94500 -0.64000
v 0.39750 -7.93495 -0.64000
v 0.42495 -7.90750 -0.64000
v 0.43500 -7.87000 -0.64000
v 0.42495 -7.83250 -0.64000
v 0.39750 -7.80505 -0.64000
v 0.36000 -7.79500 -0.64000
v 0.32250 -7.80505 -0.64000
v 0.29505 -7.83250 -0.64000
v 0.26500 -7.87000 -0.62000
v 0.27773 -7.91750 -0.62000
v 0.31250 -7.95227 -0.62000
v 0.36000 -7.96500 -0.62000
v 0.40750 -7.95227 -0.62000
v 0.44227 -7.91750 -0.62000
v 0.45500 -7.87000 -0.62000
v 0.44227 -7.82250 -0.62000
v 0.40750 -7.78773 -0.62000
v 0.36000 -7.77500 -0.62000
v 0.31250 -7.78773 -0.62000
v 0.27773 -7.82250 -0.62000
v 0.26500 -7.87000 0.62000
v 0.27773 -7.91750 0.62000
v 0.31250 -7.95227 0.62000
v 0.36000 -7.96500 0.62000
v 0.40750 -7.95227 0.62000
v 0.44227 -7.91750 0.62000
v 0.45500 -7.87000 0.62000
v 0.44227 -7.82250 0.62000
v 0.40750 -7.78773 0.62000
v 0.36000 -7.77500 0.62000
v 0.31250 -7.78773 0.62000
v 0.27773 -7.82250 0.62000
v 0.28500 -7.87000 0.64000
v 0.29505 -7.90750 0.64000
v 0.32250 -7.93495 0.64000
v 0.36000 -7.94500 0.64000
v 0.39750 -7.93495 0.64000
v 0.42495 -7.90750 0.64000
v 0.43500 -7.87000 0.64000
v 0.42495 -7.83250 0.64000
v 0.39750 -7.80505 0.64000
v 0.36000 -7.79500 0.64000
v 0.32250 -7.80505 0.64000
v 0.29505 -7.83250 0.64000
v 0.15654 -7.46478 -0.46000
v 0.14896 -7.46478 -0.42679
v 0.12772 -7.46478 -0.40016
v 0.09703 -7.46478 -0.38538
v 0.06297 -7.46478 -0.38538
v 0.03228 -7.46478 -0.40016
v 0.01104 -7.46478 -0.42679
v 0.00346 -7.46478 -0.46000
v 0.01104 -7.46478 -0.49321
v 0.03228 -7.46478 -0.51984
v 0.06297 -7.46478 -0.53462
v 0.09703 -7.46478 -0.53462
v 0.12772 -7.46478 -0.51984
v 0.14896 -7.46478 -0.49321
v 0.22142 -7.42142 -0.46000
v 0.20742 -7.42142 -0.39864
v 0.16817 -7.42142 -0.34943
v 0.11147 -7.42142 -0.32212
v 0.04853 -7.42142 -0.32212
v -0.00817 -7.42142 -0.34943
v -0.04742 -7.42142 -0.39864
v -0.06142 -7.42142 -0.46000
v -0.04742 -7.42142 -0.52136
v -0.00817 -7.42142 -0.57057
v 0.04853 -7.42142 -0.59788
v 0.11147 -7.42142 -0.59788
v 0.16817 -7.42142 -0.57057
v 0.20742 -7.42142 -0.52136
v 0.26478 -7.35654 -0.46000
v 0.24648 -7.35654 -0.37983
v 0.19521 -7.35654 -0.31554
v 0.12112 -7.35654 -0.27986
v 0.03888 -7.35654 -0.27986
v -0.03521 -7.35654 -0.31554
v -0.08648 -7.35654 -0.37983
v -0.10478 -7.35654 -0.46000
v -0.08648 -7.35654 -0.54017
v -0.03521 -7.35654 -0.60446
v 0.03888 -7.35654 -0.64014
v 0.12112 -7.35654 -0.64014
v 0.19521 -7.35654 -0.60446
v 0.24648 -7.35654 -0.54017
v 0.28000 -7.28000 -0.46000
v 0.26019 -7.28000 -0.37322
v 0.20470 -7.28000 -0.30363
v 0.12450 -7.28000 -0.26501
v 0.03550 -7.28000 -0.26501
v -0.04470 -7.28000 -0.30363
v -0.10019 -7.28000 -0.37322
v -0.12000 -7.28000 -0.46000
v -0.10019 -7.28000 -0.54678
v -0.04470 -7.28000 -0.61637
v 0.03550 -7.28000 -0.65499
v 0.12450 -7.28000 -0.65499
v 0.20470 -7.28000 -0.61637
v 0.26019 -7.28000 -0.54678
v 0.26478 -7.20346 -0.46000
v 0.24648 -7.20346 -0.37983
v 0.19521 -7.20346 -0.31554
v 0.12112 -7.20346 -0.27986
v 0.03888 -7.20346 -0.27986
v -0.03521 -7.20346 -0.31554
v -0.08648 -7.20346 -0.37983
v -0.10478 -7.20346 -0.46000
v -0.08648 -7.20346 -0.54017
v -0.03521 -7.20346 -0.60446
v 0.03888 -7.20346 -0.64014
v 0.12112 -7.20346 -0.64014
v 0.19521 -7.20346 -0.60446
v 0.24648 -7.20346 -0.54017
v 0.22142 -7.13858 -0.46000
v 0.20742 -7.13858 -0.39864
v 0.16817 -7.13858 -0.34943
v 0.11147 -7.13858 -0.32212
v 0.04853 -7.13858 -0.32212
v -0.00817 -7.13858 -0.34943
v -0.04742 -7.13858 -0.39864
v -0.06142 -7.13858 -0.46000
v -0.04742 -7.13858 -0.52136
v -0.00817 -7.13858 -0.57057
v 0.04853 -7.13858 -0.59788
v 0.11147 -7.13858 -0.59788
v 0.16817 -7.13858 -0.57057
v 0.20742 -7.13858 -0.52136
v 0.15654 -7.09522 -0.46000
v 0.14896 -7.09522 -0.42679
v 0.12772 -7.09522 -0.40016
v 0.09703 -7.09522 -0.38538
v 0.06297 -7.09522 -0.38538
v 0.03228 -7.09522 -0.40016
v 0.01104 -7.09522 -0.42679
v 0.00346 -7.09522 -0.46000
v 0.01104 -7.09522 -0.49321
v 0.03228 -7.09522 -0.51984
v 0.06297 -7.09522 -0.53462
v 0.09703 -7.09522 -0.53462
v 0.12772 -7.09522 -0.51984
v 0.14896 -7.09522 -0.49321
v 0.08000 -7.48000 -0.46000
v 0.08000 -7.08000 -0.46000
vt 0.07500 1.25511
vt 0.04571 1.25039
vt 0.04246 1.26047
vt 0.07500 1.26572
vt 0.74515 0.95501
vt 0.77020 0.93911
vt 0.77724 0.94705
vt 0.74940 0.96471
vt 0.78898 0.91614
vt 0.79810 0.92153
vt 0.97913 -0.64151
vt 0.97194 -0.66925
vt 0.98158 -0.67367
vt 0.98956 -0.64285
vt 0.95527 -0.69424
vt 0.96306 -0.70144
vt 0.93243 -0.71154
vt 0.93767 -0.72065
vt -0.04571 1.25039
vt -0.07500 1.25511
vt -0.04246 1.26047
vt -0.07500 1.26572
vt -0.10429 1.25039
vt -0.10754 1.26047
vt -0.87014 -0.95501
vt -0.89519 -0.93911
vt -0.90223 -0.94705
vt -0.87440 -0.96471
vt -0.91397 -0.91614
vt -0.92309 -0.92153
vt -1.09643 0.64151
vt -1.08924 0.66925
vt -1.09888 0.67367
vt -1.10686 0.64285
vt -1.07257 0.69424
vt -1.08036 0.70144
vt -1.04973 0.71154
vt -1.05497 0.72065
vt 0.10429 1.25039
vt 0.10754 1.26047
vt 0.07500 1.71500
vt 0.04246 1.71500
vt 0.04246 1.77000
vt 0.07500 1.77000
vt 0.07930 1.71500
vt 0.04923 1.71500
vt 0.04923 1.77000
vt 0.07930 1.77000
vt 0.01585 1.71500
vt 0.01585 1.77000
vt -0.01422 1.71500
vt -0.01422 1.77000
vt -0.04676 1.71500
vt -0.04676 1.77000
vt -0.07930 1.71500
vt -0.07930 1.77000
vt -0.04246 1.71500
vt -0.07500 1.71500
vt -0.07500 1.77000
vt -0.04246 1.77000
vt -0.10754 1.71500
vt -0.10754 1.77000
vt 0.10754 1.71500
vt 0.10754 1.77000
vt 0.07500 1.19855
vt 0.04246 1.20380
vt 0.04571 1.21388
vt 0.07500 1.20915
vt -1.06806 0.61697
vt -1.04268 0.63619
vt -1.05046 0.64338
vt -1.07331 0.62609
vt -1.02416 0.66396
vt -1.03379 0.66838
vt -1.01617 0.69478
vt -1.02661 0.69612
vt -0.83680 -0.92230
vt -0.85766 -0.89679
vt -0.84592 -0.92769
vt -0.86470 -0.90472
vt -0.88549 -0.87913
vt -0.88975 -0.88883
vt -0.04246 1.20380
vt -0.07500 1.19855
vt -0.07500 1.20915
vt -0.04571 1.21388
vt -0.10754 1.20380
vt -0.10429 1.21388
vt 0.76050 -0.87913
vt 0.73267 -0.89679
vt 0.76475 -0.88883
vt 0.73971 -0.90472
vt 0.71180 -0.92230
vt 0.72093 -0.92769
vt 0.89887 0.69478
vt 0.90686 0.66396
vt 0.90930 0.69612
vt 0.91649 0.66838
vt 0.92538 0.63619
vt 0.93316 0.64338
vt 0.95076 0.61697
vt 0.95601 0.62609
vt 0.10754 1.20380
vt 0.10429 1.21388
vt -0.04571 -0.06082
vt -0.10429 -0.06082
vt -0.07500 -0.06750
vt -0.02223 -0.04209
vt -0.12777 -0.04209
vt -0.00919 -0.01502
vt -0.14081 -0.01502
vt -0.00919 0.01502
vt -0.14081 0.01502
vt -0.12777 0.04209
vt -0.02223 0.04209
vt -0.10429 0.06082
vt -0.04571 0.06082
vt -0.07500 0.06750
vt -0.46542 1.87349
vt -0.46877 1.88259
vt -0.45845 1.87467
vt -0.46270 1.88621
vt -0.47499 1.88926
vt -0.47058 1.89465
vt -0.36140 -1.28958
vt -0.37094 -1.29135
vt -0.35886 -1.29617
vt -0.37094 -1.29842
vt 0.41830 1.39672
vt 0.40895 1.39482
vt 0.40628 1.40137
vt 0.41812 1.40377
vt 0.40094 1.38963
vt 0.39613 1.39480
vt -0.28710 1.95845
vt -0.28751 1.94935
vt -0.29447 1.94816
vt -0.29396 1.95970
vt -0.28416 1.94024
vt -0.29022 1.93662
vt -0.27794 1.93357
vt -0.28235 1.92818
vt -0.33343 -1.49289
vt -0.32388 -1.49111
vt -0.33597 -1.48629
vt -0.32388 -1.48404
vt 0.32410 1.57786
vt 0.33345 1.57976
vt 0.33612 1.57321
vt 0.32428 1.57081
vt 0.34146 1.58495
vt 0.34627 1.57978
vt -0.46583 1.86438
vt -0.45897 1.86313
vt -0.15500 1.91761
vt -0.15500 1.92990
vt 0.15500 1.92990
vt 0.15500 1.91761
vt -1.44873 0.15500
vt -1.46102 0.15500
vt -1.46102 -0.15500
vt -1.44873 -0.15500
vt -0.59001 0.15500
vt -0.60231 0.15500
vt -0.60231 -0.15500
vt -0.59001 -0.15500
vt 0.42844 0.15500
vt 0.41615 0.15500
vt 0.41615 -0.15500
vt 0.42844 -0.15500
vt 1.33374 0.15500
vt 1.32145 0.15500
vt 1.32145 -0.15500
vt 1.33374 -0.15500
vt 0.15500 1.88331
vt 0.15500 1.87102
vt -0.15500 1.87102
vt -0.15500 1.88331
vt 0.45845 1.87467
vt 0.46270 1.88621
vt 0.46877 1.88259
vt 0.46542 1.87349
vt 0.47058 1.89465
vt 0.47499 1.88926
vt -0.07812 1.29617
vt -0.09000 1.29842
vt -0.09000 1.29135
vt -0.08063 1.28958
vt -0.10187 1.29617
vt -0.09937 1.28958
vt -0.33577 1.89465
vt -0.32789 1.88621
vt -0.34018 1.88926
vt -0.33396 1.88259
vt -0.32364 1.87467
vt -0.33061 1.87349
vt -0.32416 1.86313
vt -0.33101 1.86438
vt 0.51464 1.57978
vt 0.50450 1.57321
vt 0.50182 1.57976
vt 0.50983 1.58495
vt 0.49265 1.57081
vt 0.49247 1.57786
vt -0.32428 1.57081
vt -0.33612 1.57321
vt -0.32410 1.57786
vt -0.33345 1.57976
vt -0.34627 1.57978
vt -0.34146 1.58495
vt 0.45897 1.86313
vt 0.46583 1.86438
vt -0.07376 1.95813
vt -0.07376 1.97687
vt -0.07125 1.96750
vt -0.08063 1.98374
vt -0.08063 1.95126
vt -0.09000 1.98625
vt -0.09000 1.94875
vt -0.09938 1.95126
vt -0.09937 1.98374
vt -0.10624 1.97687
vt -0.10624 1.95813
vt -0.10875 1.96750
vt 0.07376 1.95813
vt 0.07125 1.96750
vt 0.07376 1.97687
vt 0.08063 1.98374
vt 0.08063 1.95126
vt 0.09000 1.98625
vt 0.09000 1.94875
vt 0.09938 1.95126
vt 0.09937 1.98374
vt 0.10624 1.97687
vt 0.10624 1.95813
vt 0.10875 1.96750
vt 0.42164 0.76122
vt 0.40810 0.74306
vt 0.42425 0.75345
vt 0.40329 0.75743
vt 0.41871 0.73154
vt 0.42999 0.74721
vt 0.43301 0.72514
vt 0.43773 0.74375
vt 0.44816 0.72514
vt 0.44593 0.74375
vt -0.74117 0.27807
vt -0.73422 0.26128
vt -0.73398 0.28175
vt -0.72092 0.26807
vt -0.71143 0.28031
vt -0.72884 0.28838
vt -0.72678 0.29664
vt -0.70762 0.29558
vt -0.71025 0.31085
vt -0.72820 0.30490
vt -0.71880 0.32309
vt -0.73283 0.31153
vt 0.30400 -0.56808
vt 0.29950 -0.54595
vt 0.29669 -0.56465
vt 0.31302 -0.55229
vt 0.28830 -0.56465
vt 0.28401 -0.54595
vt 0.26961 -0.55229
vt 0.28051 -0.56808
vt 0.27485 -0.57427
vt 0.25916 -0.56373
vt 0.27245 -0.58198
vt 0.25472 -0.57798
vt 0.31577 1.77018
vt 0.29778 1.75287
vt 0.30028 1.77114
vt 0.31802 1.75162
vt 0.27826 1.75636
vt 0.28534 1.77381
vt -0.04337 1.71182
vt -0.05608 1.68968
vt -0.05818 1.70887
vt -0.03674 1.69353
vt -0.07650 1.68968
vt -0.07380 1.70887
vt -0.46337 1.73053
vt -0.47011 1.70777
vt -0.47671 1.72534
vt -0.45267 1.71456
vt -0.49012 1.70307
vt -0.49203 1.72174
vt -0.50875 1.70139
vt -0.50629 1.72045
vt 0.03205 1.71989
vt 0.01242 1.70250
vt 0.01637 1.72117
vt 0.03291 1.70082
vt -0.28934 1.71330
vt -0.28012 1.69643
vt -0.30309 1.70932
vt -0.29809 1.69123
vt -0.31845 1.68834
vt -0.31867 1.70711
vt -0.33299 1.70711
vt -0.33715 1.68834
vt -0.30083 1.71586
vt -0.30756 1.69310
vt -0.31417 1.71067
vt -0.29013 1.69989
vt -0.32758 1.68840
vt -0.32949 1.70707
vt -0.34375 1.70578
vt -0.34621 1.68672
vt 0.31744 1.73217
vt 0.29554 1.73352
vt 0.27441 1.73730
vt 0.32217 1.71461
vt 0.29856 1.70059
vt 0.30182 1.71749
vt 0.32060 1.69747
vt -0.07676 1.67082
vt -0.05466 1.67082
vt -0.44598 1.69645
vt -0.46485 1.68909
vt -0.48651 1.68401
vt -0.50668 1.68219
vt 0.01000 1.68344
vt 0.03218 1.68162
vt -0.29453 1.67216
vt -0.27508 1.67779
vt -0.31656 1.66904
vt -0.33681 1.66904
vt -0.30231 1.67443
vt -0.28344 1.68178
vt -0.32397 1.66934
vt -0.34414 1.66752
vt 0.29388 1.71605
vt 0.31411 1.71480
vt 0.34005 1.69184
vt 0.31704 1.67840
vt 0.33501 1.67320
vt 0.29668 1.68129
vt 0.27797 1.68129
vt 0.27832 1.70059
vt -0.30625 1.64740
vt -0.32407 1.62484
vt -0.32818 1.64360
vt -0.30381 1.62835
vt -0.48176 1.66746
vt -0.46174 1.67216
vt -0.01668 1.66511
vt -0.03919 1.64819
vt -0.03872 1.66717
vt -0.01882 1.64629
vt -0.05983 1.66511
vt -0.05869 1.64629
vt 0.57474 1.59585
vt 0.54794 1.58778
vt 0.55482 1.60540
vt 0.56634 1.57895
vt -0.31331 1.65213
vt -0.29296 1.65502
vt -0.20286 1.71036
vt -0.22176 1.69152
vt -0.22407 1.71036
vt -0.20216 1.69152
vt -0.24581 1.70617
vt -0.24184 1.68764
vt -0.29920 1.65749
vt -0.31922 1.65279
vt 0.19713 1.67149
vt 0.17473 1.65470
vt 0.17514 1.67362
vt 0.19505 1.65274
vt 0.17497 1.63540
vt 0.15511 1.65274
vt 0.15995 1.63390
vt 0.32579 1.65633
vt 0.31203 1.66031
vt 0.29646 1.66252
vt 0.28214 1.66252
vt -0.30296 1.60928
vt -0.31847 1.60659
vt -0.00163 1.64095
vt -0.01012 1.62339
vt -0.02328 1.62747
vt -0.03887 1.62893
vt -0.05380 1.62747
vt 0.54153 1.56957
vt 0.55561 1.56281
vt 0.52884 1.59268
vt 0.52690 1.57332
vt -0.22021 1.67231
vt -0.20521 1.67231
vt -0.23558 1.66935
vt -0.24828 1.66400
vt -0.25844 1.68066
vt 0.19052 1.63390
vt -0.51377 0.51723
vt -0.49541 0.51343
vt -0.50895 0.53160
vt -0.49281 0.52121
vt -0.49834 0.54312
vt -0.48707 0.52745
vt -0.48405 0.54952
vt -0.47933 0.53091
vt -0.47113 0.53091
vt -0.46889 0.54952
vt 0.69042 0.09408
vt 0.69066 0.07361
vt 0.70371 0.08729
vt 0.68346 0.07728
vt 0.71321 0.07504
vt 0.69580 0.06698
vt 0.69786 0.05872
vt 0.71702 0.05978
vt 0.71438 0.04451
vt 0.69644 0.05046
vt 0.70584 0.03227
vt 0.69181 0.04383
vt -0.27906 -0.79133
vt -0.28807 -0.77554
vt -0.29258 -0.79767
vt -0.29539 -0.77898
vt -0.30377 -0.77898
vt -0.30807 -0.79767
vt -0.32247 -0.79133
vt -0.31157 -0.77554
vt -0.31722 -0.76935
vt -0.33292 -0.77990
vt -0.31963 -0.76164
vt -0.33736 -0.76564
vt 0.44103 0.76256
vt -0.74586 0.29701
vt 0.29191 -0.58339
vt -0.47602 0.51210
vt 0.67878 0.05835
vt -0.30017 -0.76023
vn -0.0575 0.7059 0.7059
vn -0.3581 0.7059 0.6111
vn -0.2613 0.7062 0.6580
vn 0.0500 0.7062 0.7062
vn -0.5878 0.7059 0.3952
vn -0.5210 0.7062 0.4794
vn -0.7010 0.7059 0.1010
vn -0.6774 0.7062 0.2059
vn -0.6754 0.7059 -0.2132
vn -0.6996 0.7062 -0.1084
vn -0.5160 0.7059 -0.4851
vn -0.5833 0.7062 -0.4012
vn -0.3068 0.7071 -0.6371
vn -0.0000 0.7071 -0.7071
vn 0.3581 0.7059 -0.6111
vn 0.2613 0.7062 -0.6580
vn 0.5528 0.7071 -0.4409
vn 0.6894 0.7071 -0.1573
vn 0.6754 0.7059 0.2132
vn 0.6996 0.7062 0.1084
vn 0.5160 0.7059 0.4851
vn 0.5833 0.7062 0.4012
vn 0.2544 0.7059 0.6610
vn 0.3515 0.7062 0.6146
vn -0.0759 0.0000 0.9971
vn -0.5010 0.0000 0.8655
vn -0.3643 0.0000 0.9313
vn 0.0759 0.0000 0.9971
vn -0.8269 0.0000 0.5624
vn -0.7323 0.0000 0.6810
vn -0.9890 0.0000 0.1479
vn -0.9552 0.0000 0.2958
vn -0.9552 0.0000 -0.2958
vn -0.9890 0.0000 -0.1479
vn -0.7323 0.0000 -0.6810
vn -0.8269 0.0000 -0.5624
vn -0.3643 0.0000 -0.9313
vn -0.5010 0.0000 -0.8655
vn 0.0759 0.0000 -0.9971
vn -0.0759 0.0000 -0.9971
vn 0.5010 0.0000 -0.8655
vn 0.3643 0.0000 -0.9313
vn 0.8269 0.0000 -0.5624
vn 0.7323 0.0000 -0.6810
vn 0.9890 0.0000 -0.1479
vn 0.9552 0.0000 -0.2958
vn 0.9552 0.0000 0.2958
vn 0.9890 0.0000 0.1479
vn 0.7323 0.0000 0.6810
vn 0.8269 0.0000 0.5624
vn 0.3643 0.0000 0.9313
vn 0.5010 0.0000 0.8655
vn -0.0500 -0.7062 0.7062
vn -0.3515 -0.7062 0.6146
vn -0.2544 -0.7059 0.6610
vn 0.0575 -0.7059 0.7059
vn -0.5833 -0.7062 0.4012
vn -0.5160 -0.7059 0.4851
vn -0.6894 -0.7071 0.1573
vn -0.6996 -0.7062 -0.1084
vn -0.6754 -0.7059 -0.2132
vn -0.5833 -0.7062 -0.4012
vn -0.5160 -0.7059 -0.4851
vn -0.3068 -0.7071 -0.6371
vn 0.0500 -0.7062 -0.7062
vn -0.0575 -0.7059 -0.7059
vn 0.3068 -0.7071 -0.6371
vn 0.5528 -0.7071 -0.4409
vn 0.6894 -0.7071 -0.1573
vn 0.6996 -0.7062 0.1084
vn 0.6754 -0.7059 0.2132
vn 0.5528 -0.7071 0.4409
vn 0.2613 -0.7062 0.6580
vn 0.3581 -0.7059 0.6111
vn 0.0000 1.0000 0.0000
vn 0.0000 -1.0000 0.0000
vn -0.7071 0.0000 -0.7071
vn -0.6474 -0.2891 -0.7052
vn -0.5847 -0.3994 -0.7061
vn -0.4161 -0.5741 -0.7052
vn -0.3067 -0.6383 -0.7061
vn 0.0000 -0.7071 -0.7071
vn 0.4161 -0.5741 -0.7052
vn 0.3067 -0.6383 -0.7061
vn 0.6474 -0.2891 -0.7052
vn 0.5847 -0.3994 -0.7061
vn 0.7071 0.0000 -0.7071
vn 0.6474 0.2891 -0.7052
vn 0.5847 0.3994 -0.7061
vn 0.4161 0.5741 -0.7052
vn 0.3067 0.6383 -0.7061
vn -0.4161 0.5741 -0.7052
vn -0.3067 0.6383 -0.7061
vn -0.6474 0.2891 -0.7052
vn -0.5847 0.3994 -0.7061
vn -0.9659 -0.2588 0.0000
vn -0.7071 -0.7071 0.0000
vn -0.2588 -0.9659 0.0000
vn 0.2588 -0.9659 0.0000
vn 0.7071 -0.7071 0.0000
vn 0.9659 -0.2588 0.0000
vn 0.9659 0.2588 0.0000
vn 0.7071 0.7071 0.0000
vn 0.2588 0.9659 0.0000
vn -0.2588 0.9659 0.0000
vn -0.7071 0.7071 0.0000
vn -0.9659 0.2588 0.0000
vn -0.7071 0.0000 0.7071
vn -0.5847 -0.3994 0.7061
vn -0.6474 -0.2891 0.7052
vn -0.3067 -0.6383 0.7061
vn -0.4161 -0.5741 0.7052
vn 0.0000 -0.7071 0.7071
vn 0.3067 -0.6383 0.7061
vn 0.4161 -0.5741 0.7052
vn 0.5847 -0.3994 0.7061
vn 0.6474 -0.2891 0.7052
vn 0.7071 0.0000 0.7071
vn 0.5847 0.3994 0.7061
vn 0.6474 0.2891 0.7052
vn 0.3067 0.6383 0.7061
vn 0.4161 0.5741 0.7052
vn 0.0000 0.7071 0.7071
vn -0.3067 0.6383 0.7061
vn -0.4161 0.5741 0.7052
vn -0.5847 0.3994 0.7061
vn -0.6474 0.2891 0.7052
vn 0.0000 0.0000 -1.0000
vn 0.0000 0.0000 1.0000
vn 0.4688 -0.8833 0.0000
vn 0.6396 -0.6881 0.3427
vn 0.3783 -0.8973 0.2274
vn 0.7603 -0.6495 0.0000
vn 0.4276 -0.6881 0.5862
vn 0.2422 -0.8973 0.3690
vn 0.1309 -0.6881 0.7137
vn 0.0581 -0.8973 0.4376
vn -0.1969 -0.7016 0.6848
vn -0.0852 -0.9239 0.3731
vn -0.2923 -0.8833 0.3665
vn -0.4986 -0.6709 0.5489
vn -0.6582 -0.7016 0.2731
vn -0.3448 -0.9239 0.1660
vn -0.4688 -0.8833 0.0000
vn -0.7400 -0.6709 -0.0475
vn -0.6284 -0.7236 -0.2855
vn -0.3783 -0.8973 -0.2274
vn -0.4731 -0.6652 -0.5776
vn -0.2422 -0.8973 -0.3690
vn -0.1505 -0.7364 -0.6596
vn -0.0852 -0.9239 -0.3731
vn 0.1043 -0.8833 -0.4570
vn 0.1692 -0.6495 -0.7413
vn 0.4745 -0.7016 -0.5316
vn 0.2386 -0.9239 -0.2992
vn 0.3783 -0.8973 -0.2274
vn 0.6284 -0.7236 -0.2855
vn 0.8710 -0.4051 0.2779
vn 0.8940 -0.4417 0.0757
vn 0.6642 -0.4051 0.6283
vn 0.7874 -0.4667 0.4027
vn 0.2924 -0.4645 0.8359
vn 0.5152 -0.4075 0.7540
vn -0.0993 -0.4645 0.8800
vn 0.1370 -0.4075 0.9029
vn -0.4648 -0.4051 0.7873
vn -0.2174 -0.4667 0.8573
vn -0.7604 -0.4051 0.5077
vn -0.5678 -0.4667 0.6780
vn -0.9053 -0.4051 0.1275
vn -0.8058 -0.4667 0.3645
vn -0.8099 -0.4818 -0.3345
vn -0.9107 -0.4075 -0.0673
vn -0.7742 -0.4280 -0.4663
vn -0.6166 -0.4417 -0.6517
vn -0.2824 -0.4280 -0.8585
vn -0.4982 -0.4417 -0.7461
vn -0.1181 -0.4280 -0.8960
vn 0.1251 -0.4417 -0.8884
vn 0.4713 -0.4645 -0.7498
vn 0.3173 -0.3764 -0.8704
vn 0.7665 -0.4818 -0.4246
vn 0.6205 -0.4075 -0.6701
vn 0.8099 -0.4818 -0.3345
vn 0.9192 -0.3764 -0.1156
vn 0.9577 -0.2874 -0.0131
vn 0.9903 -0.0406 0.1328
vn 0.8958 -0.3299 0.2978
vn 0.8986 -0.0971 0.4279
vn 0.8685 -0.2874 0.4038
vn 0.8346 -0.0406 0.5493
vn 0.6372 -0.3068 0.7070
vn 0.6795 -0.0660 0.7307
vn 0.5712 -0.2679 0.7759
vn 0.3498 -0.0406 0.9359
vn 0.2288 -0.3322 0.9150
vn 0.5612 -0.0660 0.8251
vn 0.1078 -0.2858 0.9522
vn -0.1752 -0.1159 0.9777
vn -0.1177 -0.3697 0.9217
vn 0.1763 -0.0410 0.9835
vn -0.2729 -0.3201 0.9072
vn -0.2952 -0.0660 0.9532
vn -0.4897 -0.3299 0.8071
vn -0.6171 -0.0971 0.7809
vn -0.5869 -0.2874 0.7569
vn -0.7213 -0.0406 0.6915
vn -0.7914 -0.3299 0.5147
vn -0.8948 -0.0971 0.4358
vn -0.8572 -0.2874 0.4273
vn -0.9499 -0.0406 0.3100
vn -0.9500 -0.3068 0.0573
vn -0.9949 -0.0660 0.0757
vn -0.9627 -0.2679 -0.0372
vn -0.9499 -0.0406 -0.3100
vn -0.8581 -0.3322 -0.3916
vn -0.9949 -0.0660 -0.0757
vn -0.7914 -0.3299 -0.5147
vn -0.6551 -0.1159 -0.7466
vn -0.6395 -0.3201 -0.6990
vn -0.8788 -0.0410 -0.4754
vn -0.5391 -0.3201 -0.7790
vn -0.5612 -0.0660 -0.8251
vn -0.2673 -0.3068 -0.9135
vn -0.2952 -0.0660 -0.9532
vn -0.1555 -0.3068 -0.9390
vn 0.1122 -0.0965 -0.9890
vn 0.2258 -0.2874 -0.9308
vn -0.1127 -0.0038 -0.9936
vn 0.3160 -0.2858 -0.9047
vn 0.5136 -0.0406 -0.8570
vn 0.5727 -0.3322 -0.7494
vn 0.2258 -0.0971 -0.9693
vn 0.6772 -0.2858 -0.6780
vn 0.8636 -0.0660 -0.4999
vn 0.7940 -0.3697 -0.4826
vn 0.6240 -0.0971 -0.7754
vn 0.8724 -0.3697 -0.3198
vn 0.9293 -0.0660 -0.3635
vn 0.9523 -0.2858 -0.1067
vn 0.9953 -0.0971 -0.0044
vn 0.9903 0.0406 0.1328
vn 0.8958 0.3299 0.2978
vn 0.8986 0.0971 0.4279
vn 0.9577 0.2874 -0.0131
vn 0.8346 0.0406 0.5493
vn 0.6372 0.3068 0.7070
vn 0.6795 0.0660 0.7307
vn 0.8685 0.2874 0.4038
vn 0.5612 0.0660 0.8251
vn 0.5475 0.3068 0.7785
vn 0.2952 0.0660 0.9532
vn 0.2729 0.3201 0.9072
vn 0.1752 0.1159 0.9777
vn -0.1078 0.2858 0.9522
vn -0.1763 0.0410 0.9835
vn 0.1177 0.3697 0.9217
vn -0.3498 0.0406 0.9359
vn -0.4897 0.3299 0.8071
vn -0.6171 0.0971 0.7809
vn -0.2004 0.2874 0.9366
vn -0.7213 0.0406 0.6915
vn -0.7914 0.3299 0.5147
vn -0.8948 0.0971 0.4358
vn -0.5869 0.2874 0.7569
vn -0.9499 0.0406 0.3100
vn -0.9627 0.2679 0.0372
vn -0.9949 0.0660 0.0757
vn -0.8581 0.3322 0.3916
vn -0.9949 0.0660 -0.0757
vn -0.9500 0.3068 -0.0573
vn -0.9293 0.0660 -0.3635
vn -0.8795 0.3201 -0.3523
vn -0.8736 0.1159 -0.4726
vn -0.6772 0.2858 -0.6780
vn -0.6590 0.0410 -0.7510
vn -0.7940 0.3697 -0.4826
vn -0.5136 0.0406 -0.8570
vn -0.3257 0.3299 -0.8861
vn -0.2258 0.0971 -0.9693
vn -0.6073 0.2874 -0.7406
vn -0.1122 0.0965 -0.9890
vn 0.1780 0.2679 -0.9469
vn 0.1127 0.0038 -0.9936
vn -0.1909 0.3322 -0.9237
vn 0.2952 0.0660 -0.9532
vn 0.2505 0.2679 -0.9303
vn 0.5136 0.0406 -0.8570
vn 0.5727 0.3322 -0.7494
vn 0.6240 0.0971 -0.7754
vn 0.6779 0.3299 -0.6570
vn 0.8636 0.0660 -0.4999
vn 0.8237 0.3201 -0.4680
vn 0.9293 0.0660 -0.3635
vn 0.9523 0.2858 -0.1067
vn 0.9953 0.0971 -0.0044
vn 0.8724 0.3697 -0.3198
vn 0.8940 0.4417 0.0757
vn 0.7603 0.6495 0.0000
vn 0.8710 0.4051 0.2779
vn 0.6396 0.6881 0.3427
vn 0.7874 0.4667 0.4027
vn 0.6269 0.4280 0.6510
vn 0.4423 0.7236 0.5299
vn 0.4952 0.4280 0.7561
vn 0.1969 0.7016 0.6848
vn 0.2174 0.4667 0.8573
vn 0.0993 0.4645 0.8800
vn -0.1756 0.6652 0.7257
vn -0.0918 0.3764 0.9219
vn -0.2727 0.4417 0.8547
vn -0.4648 0.4051 0.7873
vn -0.4986 0.6709 0.5489
vn -0.5678 0.4667 0.6780
vn -0.7742 0.4280 0.4663
vn -0.6095 0.7364 0.2935
vn -0.8099 0.4818 0.3345
vn -0.7400 0.6709 0.0475
vn -0.9107 0.4075 0.0673
vn -0.9053 0.4051 -0.1275
vn -0.6764 0.6874 -0.2646
vn -0.8058 0.4667 -0.3645
vn -0.7499 0.4645 -0.4710
vn -0.4731 0.6652 -0.5776
vn -0.6635 0.3764 -0.6466
vn -0.4982 0.4417 -0.7461
vn -0.2824 0.4280 -0.8585
vn -0.1505 0.7364 -0.6596
vn -0.1459 0.4818 -0.8641
vn 0.1692 0.6495 -0.7413
vn 0.0918 0.3764 -0.9219
vn 0.3173 0.3764 -0.8704
vn 0.5064 0.4818 -0.7152
vn 0.4218 0.7364 -0.5289
vn 0.6269 0.4280 -0.6510
vn 0.6396 0.6881 -0.3427
vn 0.7874 0.4667 -0.4027
vn 0.8358 0.4645 -0.2926
vn 0.9192 0.3764 -0.1156
vn 0.4688 0.8833 0.0000
vn 0.3783 0.8973 0.2274
vn 0.2422 0.8973 0.3690
vn 0.0852 0.9239 0.3731
vn -0.0581 0.8973 0.4376
vn -0.2923 0.8833 0.3665
vn -0.3448 0.9239 0.1660
vn -0.4688 0.8833 0.0000
vn -0.3783 0.8973 -0.2274
vn -0.2422 0.8973 -0.3690
vn -0.0852 0.9239 -0.3731
vn 0.1043 0.8833 -0.4570
vn 0.2386 0.9239 -0.2992
vn 0.3783 0.8973 -0.2274
s off
f 1/1/1 2/2/2 16/3/3
f 1/1/1 16/3/3 15/4/4
f 2/5/2 3/6/5 17/7/6
f 2/5/2 17/7/6 16/8/3
f 3/6/5 4/9/7 18/10/8
f 3/6/5 18/10/8 17/7/6
f 4/11/7 5/12/9 19/13/10
f 4/11/7 19/13/10 18/14/8
f 5/12/9 6/15/11 20/16/12
f 5/12/9 20/16/12 19/13/10
f 6/15/11 7/17/13 21/18/13
f 6/15/11 21/18/13 20/16/12
f 7/19/13 8/20/14 21/21/13
f 8/20/14 22/22/14 21/21/13
f 8/20/14 9/23/15 23/24/16
f 8/20/14 23/24/16 22/22/14
f 9/25/15 10/26/17 24/27/17
f 9/25/15 24/27/17 23/28/16
f 10/26/17 11/29/18 24/27/17
f 11/29/18 25/30/18 24/27/17
f 11/31/18 12/32/19 26/33/20
f 11/31/18 26/33/20 25/34/18
f 12/32/19 13/35/21 27/36/22
f 12/32/19 27/36/22 26/33/20
f 13/35/21 14/37/23 28/38/24
f 13/35/21 28/38/24 27/36/22
f 14/39/23 1/1/1 15/4/4
f 14/39/23 15/4/4 28/40/24
f 15/41/25 16/42/26 30/43/27
f 15/41/25 30/43/27 29/44/28
f 16/45/26 17/46/29 31/47/30
f 16/45/26 31/47/30 30/48/27
f 17/46/29 18/49/31 32/50/32
f 17/46/29 32/50/32 31/47/30
f 18/49/31 19/51/33 33/52/34
f 18/49/31 33/52/34 32/50/32
f 19/51/33 20/53/35 34/54/36
f 19/51/33 34/54/36 33/52/34
f 20/53/35 21/55/37 35/56/38
f 20/53/35 35/56/38 34/54/36
f 21/57/37 22/58/39 36/59/40
f 21/57/37 36/59/40 35/60/38
f 22/58/39 23/61/41 37/62/42
f 22/58/39 37/62/42 36/59/40
f 23/51/41 24/53/43 38/54/44
f 23/51/41 38/54/44 37/52/42
f 24/53/43 25/55/45 39/56/46
f 24/53/43 39/56/46 38/54/44
f 25/45/45 26/46/47 40/47/48
f 25/45/45 40/47/48 39/48/46
f 26/46/47 27/49/49 41/50/50
f 26/46/47 41/50/50 40/47/48
f 27/49/49 28/51/51 42/52/52
f 27/49/49 42/52/52 41/50/50
f 28/63/51 15/41/25 29/44/28
f 28/63/51 29/44/28 42/64/52
f 29/65/53 30/66/54 44/67/55
f 29/65/53 44/67/55 43/68/56
f 30/69/54 31/70/57 45/71/58
f 30/69/54 45/71/58 44/72/55
f 31/70/57 32/73/59 46/74/59
f 31/70/57 46/74/59 45/71/58
f 32/73/59 33/75/60 46/74/59
f 33/75/60 47/76/61 46/74/59
f 33/77/60 34/78/62 47/79/61
f 34/78/62 48/80/63 47/79/61
f 34/78/62 35/81/64 48/80/63
f 35/81/64 49/82/64 48/80/63
f 35/83/64 36/84/65 50/85/66
f 35/83/64 50/85/66 49/86/64
f 36/84/65 37/87/67 51/88/67
f 36/84/65 51/88/67 50/85/66
f 37/89/67 38/90/68 51/91/67
f 38/90/68 52/92/68 51/91/67
f 38/90/68 39/93/69 53/94/69
f 38/90/68 53/94/69 52/92/68
f 39/95/69 40/96/70 53/97/69
f 40/96/70 54/98/71 53/97/69
f 40/96/70 41/99/72 54/98/71
f 41/99/72 55/100/72 54/98/71
f 41/99/72 42/101/73 56/102/74
f 41/99/72 56/102/74 55/100/72
f 42/103/73 29/65/53 43/68/56
f 42/103/73 43/68/56 56/104/74
f 7/105/75 9/106/75 8/107/75
f 6/108/75 9/106/75 7/105/75
f 6/108/75 10/109/75 9/106/75
f 5/110/75 10/109/75 6/108/75
f 5/110/75 11/111/75 10/109/75
f 4/112/75 11/111/75 5/110/75
f 4/112/75 12/113/75 11/111/75
f 4/112/75 13/114/75 12/113/75
f 3/115/75 13/114/75 4/112/75
f 3/115/75 14/116/75 13/114/75
f 2/117/75 14/116/75 3/115/75
f 1/118/75 14/116/75 2/117/75
f 49/117/76 50/118/76 51/116/76
f 48/115/76 49/117/76 51/116/76
f 48/115/76 51/116/76 52/114/76
f 47/112/76 48/115/76 52/114/76
f 47/112/76 52/114/76 53/113/76
f 46/110/76 47/112/76 53/113/76
f 46/110/76 53/113/76 54/111/76
f 46/110/76 54/111/76 55/109/76
f 45/108/76 46/110/76 55/109/76
f 45/108/76 55/109/76 56/106/76
f 44/105/76 45/108/76 56/106/76
f 43/107/76 44/105/76 56/106/76
f 57/119/77 58/120/78 69/121/77
f 58/120/78 70/122/79 69/121/77
f 58/120/78 59/123/80 70/122/79
f 59/123/80 71/124/81 70/122/79
f 59/125/80 60/126/82 71/127/81
f 60/126/82 72/128/82 71/127/81
f 60/129/82 61/130/83 73/131/84
f 60/129/82 73/131/84 72/132/82
f 61/130/83 62/133/85 74/134/86
f 61/130/83 74/134/86 73/131/84
f 62/135/85 63/136/87 75/137/87
f 62/135/85 75/137/87 74/138/86
f 63/136/87 64/139/88 75/137/87
f 64/139/88 76/140/89 75/137/87
f 64/139/88 65/141/90 76/140/89
f 65/141/90 77/142/91 76/140/89
f 65/143/90 66/144/14 77/145/91
f 66/144/14 78/146/14 77/145/91
f 66/147/14 67/148/92 79/149/93
f 66/147/14 79/149/93 78/150/14
f 67/148/92 68/151/94 80/152/95
f 67/148/92 80/152/95 79/149/93
f 68/153/94 57/119/77 69/121/77
f 68/153/94 69/121/77 80/154/95
f 69/155/96 70/156/96 82/157/96
f 69/155/96 82/157/96 81/158/96
f 70/159/97 71/160/97 83/161/97
f 70/159/97 83/161/97 82/162/97
f 71/163/98 72/164/98 84/165/98
f 71/163/98 84/165/98 83/166/98
f 72/167/99 73/168/99 85/169/99
f 72/167/99 85/169/99 84/170/99
f 73/171/100 74/172/100 86/173/100
f 73/171/100 86/173/100 85/174/100
f 74/175/101 75/176/101 87/177/101
f 74/175/101 87/177/101 86/178/101
f 75/157/102 76/158/102 88/155/102
f 75/157/102 88/155/102 87/156/102
f 76/161/103 77/162/103 89/159/103
f 76/161/103 89/159/103 88/160/103
f 77/165/104 78/166/104 90/163/104
f 77/165/104 90/163/104 89/164/104
f 78/169/105 79/170/105 91/167/105
f 78/169/105 91/167/105 90/168/105
f 79/173/106 80/174/106 92/171/106
f 79/173/106 92/171/106 91/172/106
f 80/177/107 69/178/107 81/175/107
f 80/177/107 81/175/107 92/176/107
f 81/179/108 82/180/109 94/181/110
f 81/179/108 94/181/110 93/182/108
f 82/180/109 83/183/111 95/184/112
f 82/180/109 95/184/112 94/181/110
f 83/185/111 84/186/113 96/187/113
f 83/185/111 96/187/113 95/188/112
f 84/186/113 85/189/114 96/187/113
f 85/189/114 97/190/115 96/187/113
f 85/191/114 86/192/116 97/193/115
f 86/192/116 98/194/117 97/193/115
f 86/192/116 87/195/118 98/194/117
f 87/195/118 99/196/118 98/194/117
f 87/195/118 88/197/119 100/198/120
f 87/195/118 100/198/120 99/196/118
f 88/199/119 89/200/121 101/201/122
f 88/199/119 101/201/122 100/202/120
f 89/200/121 90/203/123 102/204/123
f 89/200/121 102/204/123 101/201/122
f 90/205/123 91/206/124 102/207/123
f 91/206/124 103/208/125 102/207/123
f 91/206/124 92/209/126 103/208/125
f 92/209/126 104/210/127 103/208/125
f 92/211/126 81/179/108 104/212/127
f 81/179/108 93/182/108 104/212/127
f 68/213/128 58/214/128 57/215/128
f 68/213/128 59/216/128 58/214/128
f 67/217/128 59/216/128 68/213/128
f 67/217/128 60/218/128 59/216/128
f 66/219/128 60/218/128 67/217/128
f 65/220/128 60/218/128 66/219/128
f 65/220/128 61/221/128 60/218/128
f 65/220/128 62/222/128 61/221/128
f 64/223/128 62/222/128 65/220/128
f 62/222/128 64/223/128 63/224/128
f 104/225/129 93/226/129 94/227/129
f 104/225/129 94/227/129 95/228/129
f 103/229/129 104/225/129 95/228/129
f 103/229/129 95/228/129 96/230/129
f 102/231/129 103/229/129 96/230/129
f 101/232/129 102/231/129 96/230/129
f 101/232/129 96/230/129 97/233/129
f 101/232/129 97/233/129 98/234/129
f 100/235/129 101/232/129 98/234/129
f 98/234/129 99/236/129 100/235/129
f 105/237/130 120/238/131 106/239/132
f 105/237/130 119/240/133 120/238/131
f 106/239/132 121/241/134 107/242/135
f 106/239/132 120/238/131 121/241/134
f 107/242/135 122/243/136 108/244/137
f 107/242/135 121/241/134 122/243/136
f 108/244/137 123/245/138 109/246/139
f 108/244/137 122/243/136 123/245/138
f 109/247/139 123/248/138 110/249/140
f 110/249/140 123/248/138 124/250/141
f 110/249/140 125/251/142 111/252/143
f 110/249/140 124/250/141 125/251/142
f 111/252/143 125/251/142 112/253/144
f 112/253/144 125/251/142 126/254/145
f 112/253/144 127/255/146 113/256/147
f 112/253/144 126/254/145 127/255/146
f 113/256/147 128/257/148 114/258/149
f 113/256/147 127/255/146 128/257/148
f 114/259/149 129/260/150 115/261/151
f 114/259/149 128/262/148 129/260/150
f 115/261/151 129/260/150 116/263/152
f 116/263/152 129/260/150 130/264/153
f 116/263/152 131/265/154 117/266/155
f 116/263/152 130/264/153 131/265/154
f 117/266/155 131/265/154 118/267/156
f 118/267/156 131/265/154 132/268/157
f 118/267/156 132/268/157 105/269/130
f 105/269/130 132/268/157 119/270/133
f 119/271/133 134/272/158 120/273/131
f 119/271/133 133/274/159 134/272/158
f 120/273/131 135/275/160 121/276/134
f 120/273/131 134/272/161 135/275/160
f 121/277/134 136/278/162 122/279/136
f 121/277/134 135/280/163 136/278/162
f 122/279/136 137/281/164 123/282/138
f 122/279/136 136/278/165 137/281/164
f 123/283/138 138/284/166 124/285/141
f 123/283/138 137/286/167 138/284/166
f 124/285/141 139/287/168 125/288/142
f 124/285/141 138/284/169 139/287/168
f 125/288/142 140/289/170 126/290/145
f 125/288/142 139/287/171 140/289/170
f 126/291/145 141/292/172 127/293/146
f 126/291/145 140/294/173 141/292/172
f 127/295/146 141/296/174 128/297/148
f 128/297/148 141/296/174 142/298/175
f 128/297/148 143/299/176 129/300/150
f 128/297/148 142/298/177 143/299/176
f 129/300/150 143/299/178 130/301/153
f 130/301/153 143/299/178 144/302/179
f 130/303/153 145/304/180 131/305/154
f 130/303/153 144/306/181 145/304/180
f 131/305/154 146/307/182 132/308/157
f 131/305/154 145/304/183 146/307/182
f 132/308/157 146/307/184 119/309/133
f 119/309/133 146/307/184 133/310/185
f 133/274/186 147/311/187 134/272/188
f 134/272/188 147/311/187 148/312/189
f 134/272/190 148/312/191 135/275/192
f 135/275/192 148/312/191 149/313/193
f 135/314/194 150/315/195 136/316/196
f 135/314/194 149/317/197 150/315/195
f 136/278/198 151/318/199 137/281/200
f 136/278/198 150/319/201 151/318/199
f 137/286/202 151/320/203 138/284/204
f 138/284/204 151/320/203 152/321/205
f 138/284/206 152/321/207 139/287/208
f 139/287/208 152/321/207 153/322/209
f 139/287/210 153/322/211 140/289/212
f 140/289/212 153/322/211 154/323/213
f 140/294/214 155/324/215 141/292/216
f 140/294/214 154/325/217 155/324/215
f 141/296/218 156/326/219 142/298/220
f 141/296/218 155/327/221 156/326/219
f 142/298/222 156/326/223 143/299/224
f 143/299/224 156/326/223 157/328/225
f 143/299/226 158/329/227 144/302/228
f 143/299/226 157/328/229 158/329/227
f 144/306/230 159/330/231 145/304/232
f 144/306/230 158/331/233 159/330/231
f 145/304/234 160/332/235 146/307/236
f 145/304/234 159/330/237 160/332/235
f 146/307/238 160/332/239 133/310/240
f 133/310/240 160/332/239 147/333/241
f 147/311/242 162/334/243 148/312/244
f 147/311/242 161/335/245 162/334/243
f 148/336/246 163/337/247 149/317/248
f 148/336/246 162/338/249 163/337/247
f 149/317/250 163/337/251 150/315/252
f 150/315/252 163/337/251 164/339/253
f 150/315/254 165/340/255 151/341/256
f 150/315/254 164/339/257 165/340/255
f 151/342/258 166/343/259 152/344/260
f 151/342/258 165/345/261 166/343/259
f 152/321/262 167/346/263 153/322/264
f 152/321/262 166/347/265 167/346/263
f 153/348/266 168/349/267 154/350/268
f 153/348/266 167/351/269 168/349/267
f 154/350/270 168/349/271 155/352/272
f 155/352/272 168/349/271 169/353/273
f 155/354/274 170/355/275 156/356/276
f 155/354/274 169/357/277 170/355/275
f 156/326/278 171/358/279 157/328/280
f 156/326/278 170/359/281 171/358/279
f 157/360/282 172/361/283 158/362/284
f 157/360/282 171/363/285 172/361/283
f 158/362/286 172/361/287 159/364/288
f 159/364/288 172/361/287 173/365/289
f 159/330/290 173/366/291 160/332/292
f 160/332/292 173/366/291 174/367/293
f 160/368/294 161/369/295 147/370/296
f 160/368/294 174/371/297 161/369/295
f 161/369/298 175/372/299 162/373/300
f 162/373/300 175/372/299 176/374/301
f 162/338/302 176/375/301 163/337/303
f 163/337/303 176/375/301 177/376/304
f 163/337/305 178/377/306 164/339/307
f 163/337/305 177/376/304 178/377/306
f 164/339/308 179/378/309 165/340/310
f 164/339/308 178/377/306 179/378/309
f 165/345/311 179/379/309 166/343/312
f 166/343/312 179/379/309 180/380/313
f 166/381/314 180/382/313 167/351/315
f 167/351/315 180/382/313 181/383/316
f 167/351/317 182/384/318 168/349/319
f 167/351/317 181/383/316 182/384/318
f 168/349/320 183/385/321 169/353/322
f 168/349/320 182/384/318 183/385/321
f 169/357/323 184/386/324 170/355/325
f 169/357/323 183/387/321 184/386/324
f 170/355/326 184/386/324 171/388/327
f 171/388/327 184/386/324 185/389/328
f 171/363/329 186/390/330 172/361/331
f 171/363/329 185/391/328 186/390/330
f 172/361/332 186/390/330 173/365/333
f 173/365/333 186/390/330 187/392/334
f 173/365/335 188/393/336 174/394/337
f 173/365/335 187/392/334 188/393/336
f 174/371/338 175/372/299 161/369/339
f 174/371/338 188/395/336 175/372/299
f 175/396/299 189/397/340 176/398/301
f 176/398/301 189/397/340 190/399/341
f 176/398/301 190/399/341 177/400/304
f 177/400/304 190/399/341 191/401/342
f 177/400/304 191/401/342 178/402/306
f 178/402/306 191/401/342 192/403/343
f 178/402/306 193/404/344 179/405/309
f 178/402/306 192/403/343 193/404/344
f 179/406/309 194/407/345 180/408/313
f 179/406/309 193/409/344 194/407/345
f 180/408/313 194/407/345 181/410/316
f 181/410/316 194/407/345 195/411/346
f 181/410/316 196/412/347 182/413/318
f 181/410/316 195/411/346 196/412/347
f 182/413/318 196/412/347 183/414/321
f 183/414/321 196/412/347 197/415/348
f 183/414/321 197/415/348 184/416/324
f 184/416/324 197/415/348 198/417/349
f 184/418/324 198/419/349 185/420/328
f 185/420/328 198/419/349 199/421/350
f 185/420/328 200/422/351 186/423/330
f 185/420/328 199/421/350 200/422/351
f 186/423/330 200/422/351 187/424/334
f 187/424/334 200/422/351 201/425/352
f 187/424/334 202/426/353 188/427/336
f 187/424/334 201/425/352 202/426/353
f 188/427/336 189/428/340 175/429/299
f 188/427/336 202/426/353 189/428/340
f 203/430/76 105/237/130 106/239/132
f 203/430/76 106/239/132 107/242/135
f 203/430/76 107/242/135 108/244/137
f 203/430/76 108/244/137 109/246/139
f 203/431/76 109/247/139 110/249/140
f 203/431/76 110/249/140 111/252/143
f 203/431/76 111/252/143 112/253/144
f 203/431/76 112/253/144 113/256/147
f 203/431/76 113/256/147 114/258/149
f 203/432/76 114/259/149 115/261/151
f 203/432/76 115/261/151 116/263/152
f 203/432/76 116/263/152 117/266/155
f 203/432/76 117/266/155 118/267/156
f 203/432/76 118/267/156 105/269/130
f 204/433/75 190/399/341 189/397/340
f 204/433/75 191/401/342 190/399/341
f 204/433/75 192/403/343 191/401/342
f 204/433/75 193/404/344 192/403/343
f 204/434/75 194/407/345 193/409/344
f 204/434/75 195/411/346 194/407/345
f 204/434/75 196/412/347 195/411/346
f 204/434/75 197/415/348 196/412/347
f 204/434/75 198/417/349 197/415/348
f 204/435/75 199/421/350 198/419/349
f 204/435/75 200/422/351 199/421/350
f 204/435/75 201/425/352 200/422/351
f 204/435/75 202/426/353 201/425/352
f 204/435/75 189/428/340 202/426/353
