# mech2 arm R, segment Lower, colour Grey #8A8A8A
# arm space (origin = shoulder centre, studs); segment pivot [0.0, -3.13, 0.0]
# bbox centre [0.4006, -5.125, 0.0] (Roblox recentres on import: place at armCF * CFrame.new(centre))
o Mech2Arm_R_Lower_Grey
v 0.60000 -5.03000 -0.38000
v 0.60000 -5.03000 0.38000
v 0.50000 -5.03000 0.48000
v -0.40000 -5.03000 0.48000
v -0.50000 -5.03000 0.38000
v -0.50000 -5.03000 -0.38000
v -0.40000 -5.03000 -0.48000
v 0.50000 -5.03000 -0.48000
v 0.70000 -5.13000 -0.48000
v 0.70000 -5.13000 0.48000
v 0.60000 -5.13000 0.58000
v -0.50000 -5.13000 0.58000
v -0.60000 -5.13000 0.48000
v -0.60000 -5.13000 -0.48000
v -0.50000 -5.13000 -0.58000
v 0.60000 -5.13000 -0.58000
v 0.65000 -6.67000 -0.42000
v 0.65000 -6.67000 0.42000
v 0.55000 -6.67000 0.52000
v -0.45000 -6.67000 0.52000
v -0.55000 -6.67000 0.42000
v -0.55000 -6.67000 -0.42000
v -0.45000 -6.67000 -0.52000
v 0.55000 -6.67000 -0.52000
v 0.55000 -6.77000 -0.32000
v 0.55000 -6.77000 0.32000
v 0.45000 -6.77000 0.42000
v -0.35000 -6.77000 0.42000
v -0.45000 -6.77000 0.32000
v -0.45000 -6.77000 -0.32000
v -0.35000 -6.77000 -0.42000
v 0.45000 -6.77000 -0.42000
v 0.00000 -3.48000 0.54000
v -0.20665 -3.48000 0.49889
v -0.38184 -3.48000 0.38184
v -0.49889 -3.48000 0.20665
v -0.54000 -3.48000 0.00000
v -0.49889 -3.48000 -0.20665
v -0.38184 -3.48000 -0.38184
v -0.20665 -3.48000 -0.49889
v -0.00000 -3.48000 -0.54000
v 0.20665 -3.48000 -0.49889
v 0.38184 -3.48000 -0.38184
v 0.49889 -3.48000 -0.20665
v 0.54000 -3.48000 -0.00000
v 0.49889 -3.48000 0.20665
v 0.38184 -3.48000 0.38184
v 0.20665 -3.48000 0.49889
v 0.00000 -3.52000 0.58000
v -0.22196 -3.52000 0.53585
v -0.41012 -3.52000 0.41012
v -0.53585 -3.52000 0.22196
v -0.58000 -3.52000 0.00000
v -0.53585 -3.52000 -0.22196
v -0.41012 -3.52000 -0.41012
v -0.22196 -3.52000 -0.53585
v -0.00000 -3.52000 -0.58000
v 0.22196 -3.52000 -0.53585
v 0.41012 -3.52000 -0.41012
v 0.53585 -3.52000 -0.22196
v 0.58000 -3.52000 -0.00000
v 0.53585 -3.52000 0.22196
v 0.41012 -3.52000 0.41012
v 0.22196 -3.52000 0.53585
v 0.00000 -3.71000 0.58000
v -0.22196 -3.71000 0.53585
v -0.41012 -3.71000 0.41012
v -0.53585 -3.71000 0.22196
v -0.58000 -3.71000 0.00000
v -0.53585 -3.71000 -0.22196
v -0.41012 -3.71000 -0.41012
v -0.22196 -3.71000 -0.53585
v -0.00000 -3.71000 -0.58000
v 0.22196 -3.71000 -0.53585
v 0.41012 -3.71000 -0.41012
v 0.53585 -3.71000 -0.22196
v 0.58000 -3.71000 -0.00000
v 0.53585 -3.71000 0.22196
v 0.41012 -3.71000 0.41012
v 0.22196 -3.71000 0.53585
v 0.00000 -3.75000 0.54000
v -0.20665 -3.75000 0.49889
v -0.38184 -3.75000 0.38184
v -0.49889 -3.75000 0.20665
v -0.54000 -3.75000 0.00000
v -0.49889 -3.75000 -0.20665
v -0.38184 -3.75000 -0.38184
v -0.20665 -3.75000 -0.49889
v -0.00000 -3.75000 -0.54000
v 0.20665 -3.75000 -0.49889
v 0.38184 -3.75000 -0.38184
v 0.49889 -3.75000 -0.20665
v 0.54000 -3.75000 -0.00000
v 0.49889 -3.75000 0.20665
v 0.38184 -3.75000 0.38184
v 0.20665 -3.75000 0.49889
v 1.36114 -4.02000 0.27665
v 1.36114 -4.02000 0.37665
v 1.32114 -4.02000 0.41665
v 0.53000 -4.02000 0.41665
v 0.49000 -4.02000 0.37665
v 0.49000 -4.02000 0.27665
v 0.53000 -4.02000 0.23665
v 1.32114 -4.02000 0.23665
v 1.40114 -4.06000 0.23665
v 1.40114 -4.06000 0.41665
v 1.36114 -4.06000 0.45665
v 0.49000 -4.06000 0.45665
v 0.45000 -4.06000 0.41665
v 0.45000 -4.06000 0.23665
v 0.49000 -4.06000 0.19665
v 1.36114 -4.06000 0.19665
v 1.40114 -4.30000 0.23665
v 1.40114 -4.30000 0.41665
v 1.36114 -4.30000 0.45665
v 0.49000 -4.30000 0.45665
v 0.45000 -4.30000 0.41665
v 0.45000 -4.30000 0.23665
v 0.49000 -4.30000 0.19665
v 1.36114 -4.30000 0.19665
v 1.36114 -4.34000 0.27665
v 1.36114 -4.34000 0.37665
v 1.32114 -4.34000 0.41665
v 0.53000 -4.34000 0.41665
v 0.49000 -4.34000 0.37665
v 0.49000 -4.34000 0.27665
v 0.53000 -4.34000 0.23665
v 1.32114 -4.34000 0.23665
v 1.36114 -6.22000 0.27665
v 1.36114 -6.22000 0.37665
v 1.32114 -6.22000 0.41665
v 0.53000 -6.22000 0.41665
v 0.49000 -6.22000 0.37665
v 0.49000 -6.22000 0.27665
v 0.53000 -6.22000 0.23665
v 1.32114 -6.22000 0.23665
v 1.40114 -6.26000 0.23665
v 1.40114 -6.26000 0.41665
v 1.36114 -6.26000 0.45665
v 0.49000 -6.26000 0.45665
v 0.45000 -6.26000 0.41665
v 0.45000 -6.26000 0.23665
v 0.49000 -6.26000 0.19665
v 1.36114 -6.26000 0.19665
v 1.40114 -6.50000 0.23665
v 1.40114 -6.50000 0.41665
v 1.36114 -6.50000 0.45665
v 0.49000 -6.50000 0.45665
v 0.45000 -6.50000 0.41665
v 0.45000 -6.50000 0.23665
v 0.49000 -6.50000 0.19665
v 1.36114 -6.50000 0.19665
v 1.36114 -6.54000 0.27665
v 1.36114 -6.54000 0.37665
v 1.32114 -6.54000 0.41665
v 0.53000 -6.54000 0.41665
v 0.49000 -6.54000 0.37665
v 0.49000 -6.54000 0.27665
v 0.53000 -6.54000 0.23665
v 1.32114 -6.54000 0.23665
vt -0.99525 -0.09500
vt -0.99525 0.09500
vt -1.03061 0.12000
vt -1.03061 -0.12000
vt -0.57876 0.64734
vt -0.55137 0.66970
vt -0.57876 0.70324
vt -0.60615 0.68088
vt -0.12500 0.97404
vt 0.10000 0.97404
vt 0.12500 1.00939
vt -0.15000 1.00939
vt 0.52855 0.66970
vt 0.55594 0.64734
vt 0.58332 0.68088
vt 0.55594 0.70324
vt 0.97758 0.09500
vt 0.97758 -0.09500
vt 1.01293 -0.12000
vt 1.01293 0.12000
vt 0.55594 -0.64734
vt 0.52855 -0.66970
vt 0.55594 -0.70324
vt 0.58332 -0.68088
vt 0.10000 -0.97404
vt -0.12500 -0.97404
vt -0.15000 -1.00939
vt 0.12500 -1.00939
vt -0.55137 -0.66970
vt -0.57876 -0.64734
vt -0.60615 -0.68088
vt -0.57876 -0.70324
vt 0.12000 1.27615
vt -0.12000 1.27615
vt -0.10500 1.66135
vt 0.10500 1.66135
vt 0.10284 1.26677
vt 0.06753 1.26855
vt 0.08872 1.65347
vt 0.12403 1.65168
vt 0.15000 1.27588
vt -0.12500 1.27588
vt -0.11250 1.66117
vt 0.13750 1.66117
vt -0.04992 1.27033
vt -0.08523 1.26855
vt -0.07111 1.65525
vt -0.10642 1.65347
vt 0.12000 1.27696
vt -0.12000 1.27696
vt -0.10500 1.66216
vt 0.10500 1.66216
vt 0.08523 1.26855
vt 0.04992 1.27033
vt 0.07111 1.65525
vt 0.10642 1.65347
vt 0.12500 1.27588
vt -0.15000 1.27588
vt -0.13750 1.66117
vt 0.11250 1.66117
vt -0.06753 1.26855
vt -0.10284 1.26677
vt -0.08872 1.65347
vt -0.12403 1.65168
vt 1.06420 0.10500
vt 1.06420 -0.10500
vt 1.09955 -0.08000
vt 1.09955 0.08000
vt 0.47971 0.65181
vt 0.50710 0.62945
vt 0.53449 0.66299
vt 0.50710 0.68535
vt -0.13750 1.08718
vt 0.11250 1.08718
vt 0.08750 1.12253
vt -0.11250 1.12253
vt -0.52992 0.62945
vt -0.50254 0.65181
vt -0.52992 0.68535
vt -0.55731 0.66299
vt -1.08187 -0.10500
vt -1.08187 0.10500
vt -1.11723 0.08000
vt -1.11723 -0.08000
vt -0.50254 -0.65181
vt -0.52992 -0.62945
vt -0.55731 -0.66299
vt -0.52992 -0.68535
vt 0.11250 -1.08718
vt -0.13750 -1.08718
vt -0.11250 -1.12253
vt 0.08750 -1.12253
vt 0.50710 -0.62945
vt 0.47971 -0.65181
vt 0.50710 -0.68535
vt 0.53449 -0.66299
vt -0.12500 -0.12000
vt -0.15000 0.09500
vt -0.15000 -0.09500
vt 0.10000 -0.12000
vt -0.12500 0.12000
vt 0.10000 0.12000
vt 0.12500 0.09500
vt 0.12500 -0.09500
vt -0.11250 0.10500
vt -0.13750 0.08000
vt -0.13750 -0.08000
vt 0.08750 0.10500
vt -0.11250 -0.10500
vt 0.08750 -0.10500
vt 0.11250 0.08000
vt 0.11250 -0.08000
vt 0.07300 0.69688
vt 0.12514 0.68942
vt 0.12906 0.70301
vt 0.07305 0.71101
vt 0.17127 0.66820
vt 0.17860 0.68021
vt 0.66050 0.09546
vt 0.68199 0.05166
vt 0.67248 0.10253
vt 0.69556 0.05549
vt 0.68954 0.00000
vt 0.70367 0.00000
vt 0.68199 -0.05166
vt 0.69556 -0.05549
vt 0.66050 -0.09546
vt 0.67248 -0.10253
vt 0.32636 -0.63541
vt 0.27865 -0.65773
vt 0.28282 -0.67124
vt 0.33407 -0.64727
vt -0.02278 -0.68942
vt -0.07300 -0.69688
vt -0.07305 -0.71101
vt -0.01911 -0.70301
vt -0.12514 -0.68942
vt -0.12906 -0.70301
vt -0.17127 -0.66820
vt -0.17860 -0.68021
vt -0.63520 0.05132
vt -0.65290 0.09450
vt -0.64772 0.04602
vt -0.66672 0.09240
vt -0.65521 0.14543
vt -0.66921 0.14711
vt -0.64178 0.19637
vt -0.65479 0.20181
vt -0.61467 0.23955
vt -0.62567 0.24819
vt -0.57799 0.26840
vt -0.58627 0.27918
vt 0.02278 0.68942
vt 0.01911 0.70301
vt -0.02829 0.88000
vt -0.08056 0.88000
vt -0.08056 0.92750
vt -0.02829 0.92750
vt 0.02829 0.88000
vt 0.02829 0.92750
vt 0.08056 0.88000
vt 0.08056 0.92750
vt 0.05549 0.88000
vt -0.00000 0.88000
vt -0.00000 0.92750
vt 0.05549 0.92750
vt -0.05549 0.88000
vt -0.05549 0.92750
vt -0.10481 0.53339
vt -0.04881 0.54139
vt -0.05272 0.55498
vt -0.10486 0.54752
vt 0.00074 0.56419
vt -0.00659 0.57620
vt -0.49881 -0.25613
vt -0.47981 -0.20975
vt -0.49363 -0.20765
vt -0.51133 -0.25083
vt -0.47733 -0.15505
vt -0.49132 -0.15672
vt -0.49174 -0.10034
vt -0.50475 -0.10578
vt -0.52087 -0.05396
vt -0.53186 -0.06260
vt -0.56026 -0.02297
vt -0.56854 -0.03375
vt 0.15876 -0.54139
vt 0.10481 -0.53339
vt 0.15509 -0.55498
vt 0.10486 -0.54752
vt 0.04881 -0.54139
vt 0.05272 -0.55498
vt -0.00074 -0.56419
vt 0.00659 -0.57620
vt 0.49881 0.25613
vt 0.47981 0.20975
vt 0.49363 0.20765
vt 0.51133 0.25083
vt 0.47733 0.15505
vt 0.49132 0.15672
vt 0.49174 0.10034
vt 0.50475 0.10578
vt 0.52087 0.05396
vt 0.53186 0.06260
vt 0.56026 0.02297
vt 0.56854 0.03375
vt -0.15876 0.54139
vt -0.15509 0.55498
vt -0.05166 0.12472
vt 0.05166 0.12472
vt 0.00000 0.13500
vt -0.09546 0.09546
vt 0.09546 0.09546
vt 0.12472 0.05166
vt -0.12472 0.05166
vt -0.13500 -0.00000
vt 0.13500 0.00000
vt -0.12472 -0.05166
vt 0.12472 -0.05166
vt 0.09546 -0.09546
vt -0.09546 -0.09546
vt 0.05166 -0.12472
vt -0.05166 -0.12472
vt 0.00000 -0.13500
vt -0.06916 0.95126
vt -0.09416 0.95126
vt -0.10416 0.96540
vt -0.05916 0.96540
vt -0.66042 0.53367
vt -0.64947 0.54261
vt -0.66042 0.55603
vt -0.67137 0.54709
vt 0.33029 0.78430
vt 0.13250 0.78430
vt 0.12250 0.79844
vt 0.34029 0.79844
vt 0.22700 0.54261
vt 0.23796 0.53367
vt 0.23796 0.55603
vt 0.24891 0.54709
vt 0.09416 0.62402
vt 0.06916 0.62402
vt 0.05916 0.63816
vt 0.10416 0.63816
vt 0.26777 -0.38759
vt 0.25682 -0.39653
vt 0.26777 -0.40995
vt 0.27873 -0.40101
vt -0.13250 0.66881
vt -0.33029 0.66881
vt -0.34029 0.68295
vt -0.12250 0.68295
vt -0.67928 -0.39653
vt -0.69024 -0.38759
vt -0.69024 -0.40995
vt -0.70119 -0.40101
vt -0.05916 1.01500
vt -0.10416 1.01500
vt -0.10416 1.07500
vt -0.05916 1.07500
vt 0.17404 1.01500
vt 0.15989 1.01500
vt 0.15989 1.07500
vt 0.17404 1.07500
vt 0.34029 1.01500
vt 0.12250 1.01500
vt 0.12250 1.07500
vt 0.34029 1.07500
vt 0.16735 1.01500
vt 0.15320 1.01500
vt 0.15320 1.07500
vt 0.16735 1.07500
vt 0.10416 1.01500
vt 0.05916 1.01500
vt 0.05916 1.07500
vt 0.10416 1.07500
vt -0.03772 1.01500
vt -0.05186 1.01500
vt -0.05186 1.07500
vt -0.03772 1.07500
vt -0.12250 1.01500
vt -0.34029 1.01500
vt -0.34029 1.07500
vt -0.12250 1.07500
vt -0.27538 1.01500
vt -0.28952 1.01500
vt -0.28952 1.07500
vt -0.27538 1.07500
vt -0.05916 0.51245
vt -0.10416 0.51245
vt -0.06916 0.52659
vt -0.09416 0.52659
vt 0.09179 0.38759
vt 0.10274 0.37865
vt 0.10274 0.40101
vt 0.11369 0.39206
vt 0.34029 0.67942
vt 0.12250 0.67942
vt 0.13250 0.69356
vt 0.33029 0.69356
vt -0.52520 0.37865
vt -0.51425 0.38759
vt -0.52520 0.40101
vt -0.53616 0.39206
vt 0.10416 0.83969
vt 0.05916 0.83969
vt 0.06916 0.85383
vt 0.09416 0.85383
vt -0.48443 -0.53367
vt -0.49539 -0.52473
vt -0.50634 -0.53814
vt -0.49539 -0.54709
vt -0.12250 0.79490
vt -0.34029 0.79490
vt -0.33029 0.80904
vt -0.13250 0.80904
vt 0.07292 -0.52473
vt 0.06197 -0.53367
vt 0.07292 -0.54709
vt 0.08388 -0.53814
vt -0.34029 0.06916
vt -0.33029 0.10416
vt -0.34029 0.09416
vt -0.33029 0.05916
vt -0.13250 0.10416
vt -0.13250 0.05916
vt -0.12250 0.06916
vt -0.12250 0.09416
vt -0.34029 -0.06916
vt -0.34029 -0.09416
vt -0.33029 -0.10416
vt -0.33029 -0.05916
vt -0.13250 -0.10416
vt -0.13250 -0.05916
vt -0.12250 -0.06916
vt -0.12250 -0.09416
vt -0.06916 1.34017
vt -0.09416 1.34017
vt -0.10416 1.35431
vt -0.05916 1.35431
vt -0.86125 0.77964
vt -0.85030 0.78858
vt -0.86125 0.80200
vt -0.87221 0.79305
vt 0.33029 1.17320
vt 0.13250 1.17320
vt 0.12250 1.18735
vt 0.34029 1.18735
vt 0.42783 0.78858
vt 0.43879 0.77964
vt 0.43879 0.80200
vt 0.44974 0.79305
vt 0.09416 1.01293
vt 0.06916 1.01293
vt 0.05916 1.02707
vt 0.10416 1.02707
vt 0.46861 -0.63356
vt 0.45765 -0.64250
vt 0.46861 -0.65592
vt 0.47956 -0.64697
vt -0.13250 1.05772
vt -0.33029 1.05772
vt -0.34029 1.07186
vt -0.12250 1.07186
vt -0.88012 -0.64250
vt -0.89107 -0.63356
vt -0.89107 -0.65592
vt -0.90202 -0.64697
vt -0.05916 1.56500
vt -0.10416 1.56500
vt -0.10416 1.62500
vt -0.05916 1.62500
vt 0.17404 1.56500
vt 0.15989 1.56500
vt 0.15989 1.62500
vt 0.17404 1.62500
vt 0.34029 1.56500
vt 0.12250 1.56500
vt 0.12250 1.62500
vt 0.34029 1.62500
vt 0.16735 1.56500
vt 0.15320 1.56500
vt 0.15320 1.62500
vt 0.16735 1.62500
vt 0.10416 1.56500
vt 0.05916 1.56500
vt 0.05916 1.62500
vt 0.10416 1.62500
vt -0.03772 1.56500
vt -0.05186 1.56500
vt -0.05186 1.62500
vt -0.03772 1.62500
vt -0.12250 1.56500
vt -0.34029 1.56500
vt -0.34029 1.62500
vt -0.12250 1.62500
vt -0.27538 1.56500
vt -0.28952 1.56500
vt -0.28952 1.62500
vt -0.27538 1.62500
vt -0.05916 0.90136
vt -0.10416 0.90136
vt -0.06916 0.91550
vt -0.09416 0.91550
vt 0.29262 0.63356
vt 0.30357 0.62461
vt 0.30357 0.64697
vt 0.31453 0.63803
vt 0.34029 1.06832
vt 0.12250 1.06832
vt 0.13250 1.08247
vt 0.33029 1.08247
vt -0.72604 0.62461
vt -0.71508 0.63356
vt -0.72604 0.64697
vt -0.73699 0.63803
vt 0.10416 1.22860
vt 0.05916 1.22860
vt 0.06916 1.24274
vt 0.09416 1.24274
vt -0.68526 -0.77964
vt -0.69622 -0.77069
vt -0.70717 -0.78411
vt -0.69622 -0.79305
vt -0.12250 1.18381
vt -0.34029 1.18381
vt -0.33029 1.19795
vt -0.13250 1.19795
vt 0.27375 -0.77069
vt 0.26280 -0.77964
vt 0.27375 -0.79305
vt 0.28471 -0.78411
vn 0.7071 0.7071 0.0000
vn 0.4082 0.8165 0.4082
vn 0.0000 0.7071 0.7071
vn -0.4082 0.8165 0.4082
vn -0.7071 0.7071 0.0000
vn -0.4082 0.8165 -0.4082
vn 0.0000 0.7071 -0.7071
vn 0.4082 0.8165 -0.4082
vn 0.9995 -0.0325 0.0000
vn 0.7062 -0.0504 0.7062
vn 0.0000 -0.0389 0.9992
vn -0.7062 -0.0504 0.7062
vn -0.9995 -0.0325 0.0000
vn -0.7062 -0.0504 -0.7062
vn 0.0000 -0.0389 -0.9992
vn 0.7062 -0.0504 -0.7062
vn 0.7071 -0.7071 0.0000
vn 0.4082 -0.8165 0.4082
vn 0.0000 -0.7071 0.7071
vn -0.4082 -0.8165 0.4082
vn -0.7071 -0.7071 0.0000
vn -0.4082 -0.8165 -0.4082
vn 0.0000 -0.7071 -0.7071
vn 0.4082 -0.8165 -0.4082
vn 0.0000 1.0000 0.0000
vn 0.0000 -1.0000 0.0000
vn -0.0491 0.7063 0.7063
vn -0.3156 0.7063 0.6337
vn -0.2291 0.7064 0.6697
vn 0.0446 0.7064 0.7064
vn -0.5000 0.7071 0.5000
vn -0.6533 0.7071 0.2706
vn -0.7063 0.7063 -0.0491
vn -0.7064 0.7064 0.0446
vn -0.6337 0.7063 -0.3156
vn -0.6697 0.7064 -0.2291
vn -0.4647 0.7063 -0.5341
vn -0.5311 0.7064 -0.4679
vn -0.2249 0.7063 -0.6713
vn -0.3116 0.7064 -0.6356
vn 0.0491 0.7063 -0.7063
vn -0.0446 0.7064 -0.7064
vn 0.3156 0.7063 -0.6337
vn 0.2291 0.7064 -0.6697
vn 0.5000 0.7071 -0.5000
vn 0.6337 0.7063 -0.3156
vn 0.6697 0.7064 -0.2291
vn 0.7063 0.7063 -0.0491
vn 0.7064 0.7064 0.0446
vn 0.6533 0.7071 0.2706
vn 0.5000 0.7071 0.5000
vn 0.2706 0.7071 0.6533
vn -0.0662 0.0000 0.9978
vn -0.4430 0.0000 0.8965
vn -0.3207 0.0000 0.9472
vn 0.0662 0.0000 0.9978
vn -0.7523 0.0000 0.6588
vn -0.6588 0.0000 0.7523
vn -0.9472 0.0000 0.3207
vn -0.8965 0.0000 0.4430
vn -0.9978 0.0000 -0.0662
vn -0.9978 0.0000 0.0662
vn -0.8965 0.0000 -0.4430
vn -0.9472 0.0000 -0.3207
vn -0.6588 0.0000 -0.7523
vn -0.7523 0.0000 -0.6588
vn -0.3207 0.0000 -0.9472
vn -0.4430 0.0000 -0.8965
vn 0.0662 0.0000 -0.9978
vn -0.0662 0.0000 -0.9978
vn 0.4430 0.0000 -0.8965
vn 0.3207 0.0000 -0.9472
vn 0.7523 0.0000 -0.6588
vn 0.6588 0.0000 -0.7523
vn 0.9472 0.0000 -0.3207
vn 0.8965 0.0000 -0.4430
vn 0.9978 0.0000 0.0662
vn 0.9978 0.0000 -0.0662
vn 0.8965 0.0000 0.4430
vn 0.9472 0.0000 0.3207
vn 0.6588 0.0000 0.7523
vn 0.7523 0.0000 0.6588
vn 0.3207 0.0000 0.9472
vn 0.4430 0.0000 0.8965
vn -0.0446 -0.7064 0.7064
vn -0.3116 -0.7064 0.6356
vn -0.2249 -0.7063 0.6713
vn 0.0491 -0.7063 0.7063
vn -0.5311 -0.7064 0.4679
vn -0.4647 -0.7063 0.5341
vn -0.6697 -0.7064 0.2291
vn -0.6337 -0.7063 0.3156
vn -0.7064 -0.7064 -0.0446
vn -0.7063 -0.7063 0.0491
vn -0.6533 -0.7071 -0.2706
vn -0.5000 -0.7071 -0.5000
vn -0.2706 -0.7071 -0.6533
vn 0.2706 -0.7071 -0.6533
vn 0.5000 -0.7071 -0.5000
vn 0.6697 -0.7064 -0.2291
vn 0.6337 -0.7063 -0.3156
vn 0.7064 -0.7064 0.0446
vn 0.7063 -0.7063 -0.0491
vn 0.6533 -0.7071 0.2706
vn 0.5000 -0.7071 0.5000
vn 0.2291 -0.7064 0.6697
vn 0.3156 -0.7063 0.6337
vn 1.0000 0.0000 0.0000
vn 0.7071 0.0000 0.7071
vn 0.0000 0.0000 1.0000
vn -0.7071 0.0000 0.7071
vn -1.0000 0.0000 0.0000
vn -0.7071 0.0000 -0.7071
vn 0.0000 0.0000 -1.0000
vn 0.7071 0.0000 -0.7071
s off
f 1/1/1 2/2/1 10/3/1
f 1/1/1 10/3/1 9/4/1
f 2/5/2 3/6/2 11/7/2
f 2/5/2 11/7/2 10/8/2
f 3/9/3 4/10/3 12/11/3
f 3/9/3 12/11/3 11/12/3
f 4/13/4 5/14/4 13/15/4
f 4/13/4 13/15/4 12/16/4
f 5/17/5 6/18/5 14/19/5
f 5/17/5 14/19/5 13/20/5
f 6/21/6 7/22/6 15/23/6
f 6/21/6 15/23/6 14/24/6
f 7/25/7 8/26/7 16/27/7
f 7/25/7 16/27/7 15/28/7
f 8/29/8 1/30/8 9/31/8
f 8/29/8 9/31/8 16/32/8
f 9/33/9 10/34/9 18/35/9
f 9/33/9 18/35/9 17/36/9
f 10/37/10 11/38/10 19/39/10
f 10/37/10 19/39/10 18/40/10
f 11/41/11 12/42/11 20/43/11
f 11/41/11 20/43/11 19/44/11
f 12/45/12 13/46/12 20/47/12
f 13/46/12 21/48/12 20/47/12
f 13/49/13 14/50/13 22/51/13
f 13/49/13 22/51/13 21/52/13
f 14/53/14 15/54/14 23/55/14
f 14/53/14 23/55/14 22/56/14
f 15/57/15 16/58/15 24/59/15
f 15/57/15 24/59/15 23/60/15
f 16/61/16 9/62/16 24/63/16
f 9/62/16 17/64/16 24/63/16
f 17/65/17 18/66/17 26/67/17
f 17/65/17 26/67/17 25/68/17
f 18/69/18 19/70/18 27/71/18
f 18/69/18 27/71/18 26/72/18
f 19/73/19 20/74/19 28/75/19
f 19/73/19 28/75/19 27/76/19
f 20/77/20 21/78/20 29/79/20
f 20/77/20 29/79/20 28/80/20
f 21/81/21 22/82/21 30/83/21
f 21/81/21 30/83/21 29/84/21
f 22/85/22 23/86/22 31/87/22
f 22/85/22 31/87/22 30/88/22
f 23/89/23 24/90/23 32/91/23
f 23/89/23 32/91/23 31/92/23
f 24/93/24 17/94/24 25/95/24
f 24/93/24 25/95/24 32/96/24
f 8/97/25 2/98/25 1/99/25
f 7/100/25 2/98/25 8/97/25
f 7/100/25 3/101/25 2/98/25
f 7/100/25 4/102/25 3/101/25
f 7/100/25 5/103/25 4/102/25
f 5/103/25 7/100/25 6/104/25
f 32/105/26 25/106/26 26/107/26
f 31/108/26 32/105/26 26/107/26
f 31/108/26 26/107/26 27/109/26
f 31/108/26 27/109/26 28/110/26
f 30/111/26 31/108/26 28/110/26
f 28/110/26 29/112/26 30/111/26
f 33/113/27 34/114/28 50/115/29
f 33/113/27 50/115/29 49/116/30
f 34/114/28 35/117/31 51/118/31
f 34/114/28 51/118/31 50/115/29
f 35/119/31 36/120/32 51/121/31
f 36/120/32 52/122/32 51/121/31
f 36/120/32 37/123/33 53/124/34
f 36/120/32 53/124/34 52/122/32
f 37/123/33 38/125/35 54/126/36
f 37/123/33 54/126/36 53/124/34
f 38/125/35 39/127/37 55/128/38
f 38/125/35 55/128/38 54/126/36
f 39/129/37 40/130/39 56/131/40
f 39/129/37 56/131/40 55/132/38
f 40/133/39 41/134/41 57/135/42
f 40/133/39 57/135/42 56/136/40
f 41/134/41 42/137/43 58/138/44
f 41/134/41 58/138/44 57/135/42
f 42/137/43 43/139/45 59/140/45
f 42/137/43 59/140/45 58/138/44
f 43/141/45 44/142/46 59/143/45
f 44/142/46 60/144/47 59/143/45
f 44/142/46 45/145/48 60/144/47
f 45/145/48 61/146/49 60/144/47
f 45/145/48 46/147/50 61/146/49
f 46/147/50 62/148/50 61/146/49
f 46/147/50 47/149/51 63/150/51
f 46/147/50 63/150/51 62/148/50
f 47/149/51 48/151/52 63/150/51
f 48/151/52 64/152/52 63/150/51
f 48/153/52 33/113/27 49/116/30
f 48/153/52 49/116/30 64/154/52
f 49/155/53 50/156/54 66/157/55
f 49/155/53 66/157/55 65/158/56
f 50/159/54 51/155/57 67/158/58
f 50/159/54 67/158/58 66/160/55
f 51/161/57 52/159/59 68/160/60
f 51/161/57 68/160/60 67/162/58
f 52/159/59 53/155/61 69/158/62
f 52/159/59 69/158/62 68/160/60
f 53/155/61 54/156/63 70/157/64
f 53/155/61 70/157/64 69/158/62
f 54/163/63 55/164/65 71/165/66
f 54/163/63 71/165/66 70/166/64
f 55/164/65 56/167/67 72/168/68
f 55/164/65 72/168/68 71/165/66
f 56/159/67 57/155/69 73/158/70
f 56/159/67 73/158/70 72/160/68
f 57/163/69 58/164/71 74/165/72
f 57/163/69 74/165/72 73/166/70
f 58/164/71 59/167/73 75/168/74
f 58/164/71 75/168/74 74/165/72
f 59/161/73 60/159/75 76/160/76
f 59/161/73 76/160/76 75/162/74
f 60/159/75 61/155/77 77/158/78
f 60/159/75 77/158/78 76/160/76
f 61/155/77 62/156/79 78/157/80
f 61/155/77 78/157/80 77/158/78
f 62/159/79 63/155/81 79/158/82
f 62/159/79 79/158/82 78/160/80
f 63/161/81 64/159/83 80/160/84
f 63/161/81 80/160/84 79/162/82
f 64/159/83 49/155/53 65/158/56
f 64/159/83 65/158/56 80/160/84
f 65/169/85 66/170/86 82/171/87
f 65/169/85 82/171/87 81/172/88
f 66/170/86 67/173/89 83/174/90
f 66/170/86 83/174/90 82/171/87
f 67/175/89 68/176/91 84/177/92
f 67/175/89 84/177/92 83/178/90
f 68/176/91 69/179/93 85/180/94
f 68/176/91 85/180/94 84/177/92
f 69/179/93 70/181/95 86/182/95
f 69/179/93 86/182/95 85/180/94
f 70/181/95 71/183/96 86/182/95
f 71/183/96 87/184/96 86/182/95
f 71/183/96 72/185/97 88/186/97
f 71/183/96 88/186/97 87/184/96
f 72/187/97 73/188/23 88/189/97
f 73/188/23 89/190/23 88/189/97
f 73/188/23 74/191/98 90/192/98
f 73/188/23 90/192/98 89/190/23
f 74/191/98 75/193/99 90/192/98
f 75/193/99 91/194/99 90/192/98
f 75/195/99 76/196/100 92/197/101
f 75/195/99 92/197/101 91/198/99
f 76/196/100 77/199/102 93/200/103
f 76/196/100 93/200/103 92/197/101
f 77/199/102 78/201/104 94/202/104
f 77/199/102 94/202/104 93/200/103
f 78/201/104 79/203/105 94/202/104
f 79/203/105 95/204/105 94/202/104
f 79/203/105 80/205/106 96/206/107
f 79/203/105 96/206/107 95/204/105
f 80/207/106 65/169/85 81/172/88
f 80/207/106 81/172/88 96/208/107
f 48/209/25 34/210/25 33/211/25
f 47/212/25 34/210/25 48/209/25
f 47/212/25 35/213/25 34/210/25
f 47/212/25 36/214/25 35/213/25
f 46/215/25 36/214/25 47/212/25
f 45/216/25 36/214/25 46/215/25
f 45/216/25 37/217/25 36/214/25
f 44/218/25 37/217/25 45/216/25
f 44/218/25 38/219/25 37/217/25
f 44/218/25 39/220/25 38/219/25
f 43/221/25 39/220/25 44/218/25
f 43/221/25 40/222/25 39/220/25
f 42/223/25 40/222/25 43/221/25
f 40/222/25 42/223/25 41/224/25
f 96/223/26 81/224/26 82/222/26
f 95/221/26 96/223/26 82/222/26
f 95/221/26 82/222/26 83/220/26
f 95/221/26 83/220/26 84/219/26
f 94/218/26 95/221/26 84/219/26
f 93/216/26 94/218/26 84/219/26
f 93/216/26 84/219/26 85/217/26
f 92/215/26 93/216/26 85/217/26
f 92/215/26 85/217/26 86/214/26
f 92/215/26 86/214/26 87/213/26
f 91/212/26 92/215/26 87/213/26
f 91/212/26 87/213/26 88/210/26
f 90/209/26 91/212/26 88/210/26
f 88/210/26 89/211/26 90/209/26
f 97/225/1 98/226/1 106/227/1
f 97/225/1 106/227/1 105/228/1
f 98/229/2 99/230/2 107/231/2
f 98/229/2 107/231/2 106/232/2
f 99/233/3 100/234/3 108/235/3
f 99/233/3 108/235/3 107/236/3
f 100/237/4 101/238/4 108/239/4
f 101/238/4 109/240/4 108/239/4
f 101/241/5 102/242/5 110/243/5
f 101/241/5 110/243/5 109/244/5
f 102/245/6 103/246/6 111/247/6
f 102/245/6 111/247/6 110/248/6
f 103/249/7 104/250/7 112/251/7
f 103/249/7 112/251/7 111/252/7
f 104/253/8 97/254/8 112/255/8
f 97/254/8 105/256/8 112/255/8
f 105/257/108 106/258/108 114/259/108
f 105/257/108 114/259/108 113/260/108
f 106/261/109 107/262/109 115/263/109
f 106/261/109 115/263/109 114/264/109
f 107/265/110 108/266/110 116/267/110
f 107/265/110 116/267/110 115/268/110
f 108/269/111 109/270/111 117/271/111
f 108/269/111 117/271/111 116/272/111
f 109/273/112 110/274/112 118/275/112
f 109/273/112 118/275/112 117/276/112
f 110/277/113 111/278/113 119/279/113
f 110/277/113 119/279/113 118/280/113
f 111/281/114 112/282/114 120/283/114
f 111/281/114 120/283/114 119/284/114
f 112/285/115 105/286/115 113/287/115
f 112/285/115 113/287/115 120/288/115
f 113/289/17 114/290/17 121/291/17
f 114/290/17 122/292/17 121/291/17
f 114/293/18 115/294/18 122/295/18
f 115/294/18 123/296/18 122/295/18
f 115/297/19 116/298/19 124/299/19
f 115/297/19 124/299/19 123/300/19
f 116/301/20 117/302/20 125/303/20
f 116/301/20 125/303/20 124/304/20
f 117/305/21 118/306/21 126/307/21
f 117/305/21 126/307/21 125/308/21
f 118/309/22 119/310/22 127/311/22
f 118/309/22 127/311/22 126/312/22
f 119/313/23 120/314/23 128/315/23
f 119/313/23 128/315/23 127/316/23
f 120/317/24 113/318/24 121/319/24
f 120/317/24 121/319/24 128/320/24
f 97/321/25 99/322/25 98/323/25
f 104/324/25 99/322/25 97/321/25
f 104/324/25 100/325/25 99/322/25
f 103/326/25 100/325/25 104/324/25
f 102/327/25 100/325/25 103/326/25
f 100/325/25 102/327/25 101/328/25
f 121/329/26 122/330/26 123/331/26
f 128/332/26 121/329/26 123/331/26
f 128/332/26 123/331/26 124/333/26
f 127/334/26 128/332/26 124/333/26
f 126/335/26 127/334/26 124/333/26
f 124/333/26 125/336/26 126/335/26
f 129/337/1 130/338/1 138/339/1
f 129/337/1 138/339/1 137/340/1
f 130/341/2 131/342/2 139/343/2
f 130/341/2 139/343/2 138/344/2
f 131/345/3 132/346/3 140/347/3
f 131/345/3 140/347/3 139/348/3
f 132/349/4 133/350/4 140/351/4
f 133/350/4 141/352/4 140/351/4
f 133/353/5 134/354/5 142/355/5
f 133/353/5 142/355/5 141/356/5
f 134/357/6 135/358/6 143/359/6
f 134/357/6 143/359/6 142/360/6
f 135/361/7 136/362/7 144/363/7
f 135/361/7 144/363/7 143/364/7
f 136/365/8 129/366/8 144/367/8
f 129/366/8 137/368/8 144/367/8
f 137/369/108 138/370/108 146/371/108
f 137/369/108 146/371/108 145/372/108
f 138/373/109 139/374/109 147/375/109
f 138/373/109 147/375/109 146/376/109
f 139/377/110 140/378/110 148/379/110
f 139/377/110 148/379/110 147/380/110
f 140/381/111 141/382/111 149/383/111
f 140/381/111 149/383/111 148/384/111
f 141/385/112 142/386/112 150/387/112
f 141/385/112 150/387/112 149/388/112
f 142/389/113 143/390/113 151/391/113
f 142/389/113 151/391/113 150/392/113
f 143/393/114 144/394/114 152/395/114
f 143/393/114 152/395/114 151/396/114
f 144/397/115 137/398/115 145/399/115
f 144/397/115 145/399/115 152/400/115
f 145/401/17 146/402/17 153/403/17
f 146/402/17 154/404/17 153/403/17
f 146/405/18 147/406/18 154/407/18
f 147/406/18 155/408/18 154/407/18
f 147/409/19 148/410/19 156/411/19
f 147/409/19 156/411/19 155/412/19
f 148/413/20 149/414/20 157/415/20
f 148/413/20 157/415/20 156/416/20
f 149/417/21 150/418/21 158/419/21
f 149/417/21 158/419/21 157/420/21
f 150/421/22 151/422/22 159/423/22
f 150/421/22 159/423/22 158/424/22
f 151/425/23 152/426/23 160/427/23
f 151/425/23 160/427/23 159/428/23
f 152/429/24 145/430/24 153/431/24
f 152/429/24 153/431/24 160/432/24
f 129/321/25 131/322/25 130/323/25
f 136/324/25 131/322/25 129/321/25
f 136/324/25 132/325/25 131/322/25
f 135/326/25 132/325/25 136/324/25
f 134/327/25 132/325/25 135/326/25
f 132/325/25 134/327/25 133/328/25
f 153/329/26 154/330/26 155/331/26
f 160/332/26 153/329/26 155/331/26
f 160/332/26 155/331/26 156/333/26
f 159/334/26 160/332/26 156/333/26
f 158/335/26 159/334/26 156/333/26
f 156/333/26 157/336/26 158/335/26
