# mech2 arm R, segment Index1, colour Grey #8A8A8A
# arm space (origin = shoulder centre, studs); segment pivot [0.36, -7.87, -0.48]
# bbox centre [0.3202, -8.4386, -0.48] (Roblox recentres on import: place at armCF * CFrame.new(centre))
o Mech2Arm_R_Index1_Grey
v 0.38524 -8.43861 -0.33000
v 0.37282 -8.47682 -0.33000
v 0.34032 -8.50043 -0.33000
v 0.30015 -8.50043 -0.33000
v 0.26765 -8.47682 -0.33000
v 0.25524 -8.43861 -0.33000
v 0.26765 -8.40041 -0.33000
v 0.30015 -8.37679 -0.33000
v 0.34032 -8.37679 -0.33000
v 0.37282 -8.40041 -0.33000
v 0.40524 -8.43861 -0.35000
v 0.38901 -8.48857 -0.35000
v 0.34651 -8.51945 -0.35000
v 0.29397 -8.51945 -0.35000
v 0.25147 -8.48857 -0.35000
v 0.23524 -8.43861 -0.35000
v 0.25147 -8.38865 -0.35000
v 0.29397 -8.35777 -0.35000
v 0.34651 -8.35777 -0.35000
v 0.38901 -8.38865 -0.35000
v 0.40524 -8.43861 -0.61000
v 0.38901 -8.48857 -0.61000
v 0.34651 -8.51945 -0.61000
v 0.29397 -8.51945 -0.61000
v 0.25147 -8.48857 -0.61000
v 0.23524 -8.43861 -0.61000
v 0.25147 -8.38865 -0.61000
v 0.29397 -8.35777 -0.61000
v 0.34651 -8.35777 -0.61000
v 0.38901 -8.38865 -0.61000
v 0.38524 -8.43861 -0.63000
v 0.37282 -8.47682 -0.63000
v 0.34032 -8.50043 -0.63000
v 0.30015 -8.50043 -0.63000
v 0.26765 -8.47682 -0.63000
v 0.25524 -8.43861 -0.63000
v 0.26765 -8.40041 -0.63000
v 0.30015 -8.37679 -0.63000
v 0.34032 -8.37679 -0.63000
v 0.37282 -8.40041 -0.63000
vt 0.12644 2.10965
vt 0.12424 2.11920
vt 0.13064 2.12214
vt 0.13351 2.10965
vt 0.09321 1.61724
vt 0.08508 1.62159
vt 0.08663 1.62848
vt 0.09725 1.62279
vt 0.07504 1.62159
vt 0.07349 1.62848
vt 0.06691 1.61724
vt 0.06287 1.62279
vt -0.01102 2.11920
vt -0.01322 2.10965
vt -0.01742 2.12214
vt -0.02029 2.10965
vt -0.01102 2.10010
vt -0.01742 2.09716
vt 0.06691 1.49161
vt 0.07504 1.48726
vt 0.07349 1.48038
vt 0.06287 1.48606
vt 0.08508 1.48726
vt 0.08663 1.48038
vt 0.09321 1.49161
vt 0.09725 1.48606
vt 0.12424 2.10010
vt 0.13064 2.09716
vt 0.08750 1.97509
vt 0.08750 1.98823
vt 0.15250 1.98823
vt 0.15250 1.97509
vt 1.16869 0.08750
vt 1.18182 0.08750
vt 1.18182 0.15250
vt 1.16869 0.15250
vt -0.08663 0.08750
vt -0.07349 0.08750
vt -0.07349 0.15250
vt -0.08663 0.15250
vt -1.31136 0.08750
vt -1.29823 0.08750
vt -1.29823 0.15250
vt -1.31136 0.15250
vt -0.08750 2.03771
vt -0.08750 2.02457
vt -0.15250 2.02457
vt -0.15250 2.03771
vt -0.08750 1.98823
vt -0.08750 1.97509
vt -0.15250 1.97509
vt -0.15250 1.98823
vt 1.18182 -0.08750
vt 1.16869 -0.08750
vt 1.16869 -0.15250
vt 1.18182 -0.15250
vt -0.07349 -0.08750
vt -0.08663 -0.08750
vt -0.08663 -0.15250
vt -0.07349 -0.15250
vt -1.29823 -0.08750
vt -1.31136 -0.08750
vt -1.31136 -0.15250
vt -1.29823 -0.15250
vt 0.08750 2.02457
vt 0.08750 2.03771
vt 0.15250 2.03771
vt 0.15250 2.02457
vt 0.03620 2.10965
vt 0.03907 2.12214
vt 0.04327 2.10965
vt 0.04546 2.11920
vt -0.09725 1.46052
vt -0.08663 1.46621
vt -0.09321 1.45498
vt -0.08508 1.45933
vt -0.07349 1.46621
vt -0.07504 1.45933
vt -0.06287 1.46052
vt -0.06691 1.45498
vt -0.15229 2.12214
vt -0.14942 2.10965
vt -0.15649 2.10965
vt -0.15868 2.11920
vt -0.15229 2.09716
vt -0.15868 2.10010
vt -0.06287 1.64833
vt -0.07349 1.64264
vt -0.06691 1.65387
vt -0.07504 1.64952
vt -0.08663 1.64264
vt -0.08508 1.64952
vt -0.09725 1.64833
vt -0.09321 1.65387
vt 0.03907 2.09716
vt 0.04546 2.10010
vt 0.09321 2.10010
vt 0.09321 2.11920
vt 0.09631 2.10965
vt 0.08508 2.09420
vt 0.08508 2.12511
vt 0.07504 2.12511
vt 0.07504 2.09420
vt 0.06691 2.11920
vt 0.06691 2.10010
vt 0.06381 2.10965
vt -0.09321 2.10010
vt -0.09631 2.10965
vt -0.09321 2.11920
vt -0.08508 2.09420
vt -0.08508 2.12511
vt -0.07504 2.12511
vt -0.07504 2.09420
vt -0.06691 2.11920
vt -0.06691 2.10010
vt -0.06381 2.10965
vn 0.7071 0.0000 0.7071
vn 0.5165 -0.4871 0.7042
vn 0.6082 -0.3635 0.7057
vn 0.1316 -0.6977 0.7042
vn 0.2784 -0.6515 0.7057
vn -0.2185 -0.6725 0.7071
vn -0.5165 -0.4871 0.7042
vn -0.6082 -0.3635 0.7057
vn -0.7071 0.0000 0.7071
vn -0.5165 0.4871 0.7042
vn -0.6082 0.3635 0.7057
vn -0.1316 0.6977 0.7042
vn -0.2784 0.6515 0.7057
vn 0.2185 0.6725 0.7071
vn 0.5165 0.4871 0.7042
vn 0.6082 0.3635 0.7057
vn 0.9511 -0.3090 0.0000
vn 0.5878 -0.8090 0.0000
vn 0.0000 -1.0000 0.0000
vn -0.5878 -0.8090 0.0000
vn -0.9511 -0.3090 0.0000
vn -0.9511 0.3090 0.0000
vn -0.5878 0.8090 0.0000
vn 0.0000 1.0000 0.0000
vn 0.5878 0.8090 0.0000
vn 0.9511 0.3090 0.0000
vn 0.7071 0.0000 -0.7071
vn 0.6082 -0.3635 -0.7057
vn 0.5165 -0.4871 -0.7042
vn 0.2185 -0.6725 -0.7071
vn -0.2784 -0.6515 -0.7057
vn -0.1316 -0.6977 -0.7042
vn -0.6082 -0.3635 -0.7057
vn -0.5165 -0.4871 -0.7042
vn -0.7071 0.0000 -0.7071
vn -0.6082 0.3635 -0.7057
vn -0.5165 0.4871 -0.7042
vn -0.2185 0.6725 -0.7071
vn 0.2784 0.6515 -0.7057
vn 0.1316 0.6977 -0.7042
vn 0.6082 0.3635 -0.7057
vn 0.5165 0.4871 -0.7042
vn 0.0000 0.0000 1.0000
vn 0.0000 0.0000 -1.0000
s off
f 1/1/1 2/2/2 12/3/3
f 1/1/1 12/3/3 11/4/1
f 2/5/2 3/6/4 13/7/5
f 2/5/2 13/7/5 12/8/3
f 3/6/4 4/9/6 14/10/6
f 3/6/4 14/10/6 13/7/5
f 4/9/6 5/11/7 14/10/6
f 5/11/7 15/12/8 14/10/6
f 5/13/7 6/14/9 15/15/8
f 6/14/9 16/16/9 15/15/8
f 6/14/9 7/17/10 17/18/11
f 6/14/9 17/18/11 16/16/9
f 7/19/10 8/20/12 18/21/13
f 7/19/10 18/21/13 17/22/11
f 8/20/12 9/23/14 19/24/14
f 8/20/12 19/24/14 18/21/13
f 9/23/14 10/25/15 19/24/14
f 10/25/15 20/26/16 19/24/14
f 10/27/15 1/1/1 20/28/16
f 1/1/1 11/4/1 20/28/16
f 11/29/17 12/30/17 22/31/17
f 11/29/17 22/31/17 21/32/17
f 12/33/18 13/34/18 23/35/18
f 12/33/18 23/35/18 22/36/18
f 13/37/19 14/38/19 24/39/19
f 13/37/19 24/39/19 23/40/19
f 14/41/20 15/42/20 25/43/20
f 14/41/20 25/43/20 24/44/20
f 15/45/21 16/46/21 26/47/21
f 15/45/21 26/47/21 25/48/21
f 16/49/22 17/50/22 27/51/22
f 16/49/22 27/51/22 26/52/22
f 17/53/23 18/54/23 28/55/23
f 17/53/23 28/55/23 27/56/23
f 18/57/24 19/58/24 29/59/24
f 18/57/24 29/59/24 28/60/24
f 19/61/25 20/62/25 30/63/25
f 19/61/25 30/63/25 29/64/25
f 20/65/26 11/66/26 21/67/26
f 20/65/26 21/67/26 30/68/26
f 21/69/27 22/70/28 31/71/27
f 22/70/28 32/72/29 31/71/27
f 22/73/28 23/74/30 32/75/29
f 23/74/30 33/76/30 32/75/29
f 23/74/30 24/77/31 34/78/32
f 23/74/30 34/78/32 33/76/30
f 24/77/31 25/79/33 35/80/34
f 24/77/31 35/80/34 34/78/32
f 25/81/33 26/82/35 36/83/35
f 25/81/33 36/83/35 35/84/34
f 26/82/35 27/85/36 36/83/35
f 27/85/36 37/86/37 36/83/35
f 27/87/36 28/88/38 37/89/37
f 28/88/38 38/90/38 37/89/37
f 28/88/38 29/91/39 39/92/40
f 28/88/38 39/92/40 38/90/38
f 29/91/39 30/93/41 40/94/42
f 29/91/39 40/94/42 39/92/40
f 30/95/41 21/69/27 31/71/27
f 30/95/41 31/71/27 40/96/42
f 10/97/43 2/98/43 1/99/43
f 9/100/43 2/98/43 10/97/43
f 9/100/43 3/101/43 2/98/43
f 9/100/43 4/102/43 3/101/43
f 8/103/43 4/102/43 9/100/43
f 8/103/43 5/104/43 4/102/43
f 7/105/43 5/104/43 8/103/43
f 5/104/43 7/105/43 6/106/43
f 40/107/44 31/108/44 32/109/44
f 39/110/44 40/107/44 32/109/44
f 39/110/44 32/109/44 33/111/44
f 39/110/44 33/111/44 34/112/44
f 38/113/44 39/110/44 34/112/44
f 38/113/44 34/112/44 35/114/44
f 37/115/44 38/113/44 35/114/44
f 35/114/44 36/116/44 37/115/44
