# mech2 arm R, segment Thumb1, colour Grey #8A8A8A
# arm space (origin = shoulder centre, studs); segment pivot [0.08, -7.28, -0.46]
# bbox centre [-0.0868, -7.6344, -0.5412] (Roblox recentres on import: place at armCF * CFrame.new(centre))
o Mech2Arm_R_Thumb1_Grey
v 0.05800 -7.70252 -0.60619
v 0.04173 -7.73709 -0.59377
v 0.03168 -7.75846 -0.56127
v 0.03168 -7.75846 -0.52110
v 0.04173 -7.73709 -0.48860
v 0.05800 -7.70252 -0.47619
v 0.07427 -7.66795 -0.48860
v 0.08432 -7.64659 -0.52110
v 0.08432 -7.64659 -0.56127
v 0.07427 -7.66795 -0.59377
v 0.03990 -7.69401 -0.62619
v 0.01863 -7.73921 -0.60995
v 0.00548 -7.76715 -0.56745
v 0.00548 -7.76715 -0.51492
v 0.01863 -7.73921 -0.47242
v 0.03990 -7.69401 -0.45619
v 0.06117 -7.64880 -0.47242
v 0.07432 -7.62086 -0.51492
v 0.07432 -7.62086 -0.56745
v 0.06117 -7.64880 -0.60995
v -0.21345 -7.57478 -0.62619
v -0.23472 -7.61999 -0.60995
v -0.24787 -7.64793 -0.56745
v -0.24787 -7.64793 -0.51492
v -0.23472 -7.61999 -0.47242
v -0.21345 -7.57478 -0.45619
v -0.19217 -7.52958 -0.47242
v -0.17903 -7.50164 -0.51492
v -0.17903 -7.50164 -0.56745
v -0.19217 -7.52958 -0.60995
v -0.23154 -7.56627 -0.60619
v -0.24781 -7.60084 -0.59377
v -0.25787 -7.62220 -0.56127
v -0.25787 -7.62220 -0.52110
v -0.24781 -7.60084 -0.48860
v -0.23154 -7.56627 -0.47619
v -0.21528 -7.53170 -0.48860
v -0.20522 -7.51033 -0.52110
v -0.20522 -7.51033 -0.56127
v -0.21528 -7.53170 -0.59377
vt 0.56073 1.71234
vt 0.56419 1.72151
vt 0.57114 1.72041
vt 0.56661 1.70842
vt 0.65834 -0.75642
vt 0.66105 -0.76609
vt 0.66811 -0.76572
vt 0.66457 -0.75307
vt 0.64761 0.58950
vt 0.64844 0.57974
vt 0.65544 0.57874
vt 0.65435 0.59151
vt 0.64492 0.57059
vt 0.65084 0.56678
vt -0.40490 1.82751
vt -0.40144 1.81835
vt -0.41186 1.82642
vt -0.40732 1.81443
vt -0.39432 1.81161
vt -0.39802 1.80562
vt 0.12215 1.83542
vt 0.13028 1.83107
vt 0.11811 1.82987
vt 0.12873 1.82419
vt 0.14032 1.83107
vt 0.14186 1.82419
vt 0.14844 1.83542
vt 0.15249 1.82987
vt 0.55361 1.70560
vt 0.55730 1.69961
vt -0.10104 1.80125
vt -0.09567 1.81324
vt -0.03178 1.78464
vt -0.03714 1.77265
vt -0.55695 -1.09249
vt -0.55345 -1.10515
vt -0.48598 -1.08649
vt -0.48949 -1.07383
vt -0.82805 0.14186
vt -0.82805 0.12873
vt -0.75805 0.12873
vt -0.75805 0.14186
vt -0.49509 1.31614
vt -0.49859 1.30348
vt -0.42762 1.29748
vt -0.43112 1.28482
vt 0.06151 1.88956
vt 0.06688 1.87757
vt 0.00298 1.84898
vt -0.00238 1.86096
vt 0.09567 1.81324
vt 0.10104 1.80125
vt 0.03714 1.77265
vt 0.03178 1.78464
vt -0.55345 1.10515
vt -0.55695 1.09249
vt -0.48598 1.08649
vt -0.48949 1.07383
vt -0.82805 -0.12873
vt -0.82805 -0.14186
vt -0.75805 -0.14186
vt -0.75805 -0.12873
vt -0.49859 -1.30348
vt -0.49509 -1.31614
vt -0.42762 -1.29748
vt -0.43112 -1.28482
vt -0.06688 1.87757
vt -0.06151 1.88956
vt 0.00238 1.86096
vt -0.00298 1.84898
vt 0.02571 1.84588
vt 0.03240 1.85591
vt 0.03190 1.84290
vt 0.03701 1.85057
vt 0.04397 1.86211
vt 0.04586 1.85531
vt 0.05603 1.86211
vt 0.05508 1.85531
vt -0.24088 1.89831
vt -0.22993 1.89166
vt -0.24323 1.89168
vt -0.23486 1.88659
vt -0.22298 1.88089
vt -0.22954 1.87835
vt -0.67856 1.47033
vt -0.67229 1.45878
vt -0.67909 1.45685
vt -0.68388 1.46568
vt 0.75753 -0.11811
vt 0.75184 -0.12873
vt 0.75872 -0.13028
vt 0.76307 -0.12215
vt 0.75184 -0.14186
vt 0.75872 -0.14032
vt 0.75753 -0.15249
vt 0.76307 -0.14844
vt 0.55629 1.61686
vt 0.56255 1.62841
vt 0.56309 1.61493
vt 0.56788 1.62376
vt 0.14844 1.72662
vt 0.14844 1.74572
vt 0.15155 1.73617
vt 0.14032 1.75163
vt 0.14032 1.72072
vt 0.13028 1.75163
vt 0.13028 1.72072
vt 0.12215 1.74572
vt 0.12215 1.72662
vt 0.11905 1.73617
vt -0.14844 1.72662
vt -0.15155 1.73617
vt -0.14844 1.74572
vt -0.14032 1.75163
vt -0.14032 1.72072
vt -0.13028 1.75163
vt -0.13028 1.72072
vt -0.12215 1.74572
vt -0.12215 1.72662
vt -0.11905 1.73617
vn 0.5987 -0.3817 -0.7042
vn 0.4298 -0.7406 -0.5165
vn 0.4837 -0.6294 -0.6082
vn 0.6655 -0.2431 -0.7057
vn 0.3401 -0.9311 -0.1316
vn 0.3611 -0.8900 -0.2784
vn 0.3535 -0.9096 0.2185
vn 0.4298 -0.7406 0.5165
vn 0.4837 -0.6294 0.6082
vn 0.5987 -0.3817 0.7042
vn 0.6655 -0.2431 0.7057
vn 0.7823 0.0085 0.6229
vn 0.8370 0.1213 0.5336
vn 0.9262 0.3074 0.2185
vn 0.9105 0.2809 -0.3036
vn 0.9326 0.3245 -0.1578
vn 0.7823 0.0085 -0.6229
vn 0.8370 0.1213 -0.5336
vn -0.1316 -0.2796 -0.9511
vn -0.3445 -0.7320 -0.5878
vn -0.4258 -0.9048 0.0000
vn -0.3445 -0.7320 0.5878
vn -0.1316 -0.2796 0.9511
vn 0.1316 0.2796 0.9511
vn 0.3445 0.7320 0.5878
vn 0.4258 0.9048 0.0000
vn 0.3445 0.7320 -0.5878
vn 0.1316 0.2796 -0.9511
vn -0.6115 0.3579 -0.7057
vn -0.8168 -0.0750 -0.5721
vn -0.6757 0.2180 -0.7042
vn -0.9326 -0.3245 -0.1578
vn -0.9105 -0.2809 -0.3036
vn -0.9262 -0.3074 0.2185
vn -0.8168 -0.0750 0.5721
vn -0.6115 0.3579 0.7057
vn -0.6757 0.2180 0.7042
vn -0.4401 0.7222 0.5336
vn -0.4921 0.6082 0.6229
vn -0.3444 0.9255 0.1578
vn -0.3639 0.8806 0.3036
vn -0.3535 0.9096 -0.2185
vn -0.4401 0.7222 -0.5336
vn -0.4921 0.6082 -0.6229
vn 0.9048 -0.4258 0.0000
vn -0.9048 0.4258 0.0000
s off
f 1/1/1 2/2/2 12/3/3
f 1/1/1 12/3/3 11/4/4
f 2/5/2 3/6/5 13/7/6
f 2/5/2 13/7/6 12/8/3
f 3/9/5 4/10/7 14/11/7
f 3/9/5 14/11/7 13/12/6
f 4/10/7 5/13/8 14/11/7
f 5/13/8 15/14/9 14/11/7
f 5/15/8 6/16/10 15/17/9
f 6/16/10 16/18/11 15/17/9
f 6/16/10 7/19/12 16/18/11
f 7/19/12 17/20/13 16/18/11
f 7/21/12 8/22/14 17/23/13
f 8/22/14 18/24/14 17/23/13
f 8/22/14 9/25/15 19/26/16
f 8/22/14 19/26/16 18/24/14
f 9/25/15 10/27/17 20/28/18
f 9/25/15 20/28/18 19/26/16
f 10/29/17 1/1/1 11/4/4
f 10/29/17 11/4/4 20/30/18
f 11/31/19 12/32/19 22/33/19
f 11/31/19 22/33/19 21/34/19
f 12/35/20 13/36/20 23/37/20
f 12/35/20 23/37/20 22/38/20
f 13/39/21 14/40/21 24/41/21
f 13/39/21 24/41/21 23/42/21
f 14/43/22 15/44/22 24/45/22
f 15/44/22 25/46/22 24/45/22
f 15/47/23 16/48/23 26/49/23
f 15/47/23 26/49/23 25/50/23
f 16/51/24 17/52/24 27/53/24
f 16/51/24 27/53/24 26/54/24
f 17/55/25 18/56/25 27/57/25
f 18/56/25 28/58/25 27/57/25
f 18/59/26 19/60/26 29/61/26
f 18/59/26 29/61/26 28/62/26
f 19/63/27 20/64/27 30/65/27
f 19/63/27 30/65/27 29/66/27
f 20/67/28 11/68/28 21/69/28
f 20/67/28 21/69/28 30/70/28
f 21/71/29 22/72/30 31/73/31
f 22/72/30 32/74/30 31/73/31
f 22/72/30 23/75/32 33/76/33
f 22/72/30 33/76/33 32/74/30
f 23/75/32 24/77/34 34/78/34
f 23/75/32 34/78/34 33/76/33
f 24/79/34 25/80/35 34/81/34
f 25/80/35 35/82/35 34/81/34
f 25/80/35 26/83/36 36/84/37
f 25/80/35 36/84/37 35/82/35
f 26/85/36 27/86/38 37/87/39
f 26/85/36 37/87/39 36/88/37
f 27/89/38 28/90/40 38/91/41
f 27/89/38 38/91/41 37/92/39
f 28/90/40 29/93/42 39/94/42
f 28/90/40 39/94/42 38/91/41
f 29/93/42 30/95/43 39/94/42
f 30/95/43 40/96/44 39/94/42
f 30/97/43 21/98/29 40/99/44
f 21/98/29 31/100/31 40/99/44
f 10/101/45 2/102/45 1/103/45
f 10/101/45 3/104/45 2/102/45
f 9/105/45 3/104/45 10/101/45
f 9/105/45 4/106/45 3/104/45
f 8/107/45 4/106/45 9/105/45
f 8/107/45 5/108/45 4/106/45
f 7/109/45 5/108/45 8/107/45
f 5/108/45 7/109/45 6/110/45
f 40/111/46 31/112/46 32/113/46
f 40/111/46 32/113/46 33/114/46
f 39/115/46 40/111/46 33/114/46
f 39/115/46 33/114/46 34/116/46
f 38/117/46 39/115/46 34/116/46
f 38/117/46 34/116/46 35/118/46
f 37/119/46 38/117/46 35/118/46
f 35/118/46 36/120/46 37/119/46
