# mech2 arm R, segment Pinky3, colour White #F2F2F2
# arm space (origin = shoulder centre, studs); segment pivot [-0.11177764926307876, -8.775603494257759, 0.48]
# bbox centre [-0.2576, -8.849, 0.48] (Roblox recentres on import: place at armCF * CFrame.new(centre))
o Mech2Arm_R_Pinky3_White
v -0.10187 -8.70468 0.57360
v -0.12317 -8.66100 0.55488
v -0.12317 -8.66100 0.40512
v -0.10187 -8.70468 0.38640
v -0.05452 -8.80175 0.38640
v -0.01095 -8.89109 0.43788
v -0.01095 -8.89109 0.52212
v -0.05452 -8.80175 0.57360
v -0.19288 -8.72337 0.61000
v -0.22247 -8.66270 0.58400
v -0.22247 -8.66270 0.37600
v -0.19288 -8.72337 0.35000
v -0.12713 -8.85819 0.35000
v -0.07343 -8.96829 0.42150
v -0.07343 -8.96829 0.53850
v -0.12713 -8.85819 0.61000
v -0.34387 -8.80160 0.60350
v -0.37198 -8.74397 0.57880
v -0.37198 -8.74397 0.38120
v -0.34387 -8.80160 0.35650
v -0.28140 -8.92968 0.35650
v -0.22951 -9.03608 0.42442
v -0.22951 -9.03608 0.53558
v -0.28140 -8.92968 0.60350
v -0.44268 -8.87274 0.57100
v -0.46340 -8.83028 0.55280
v -0.46340 -8.83028 0.40720
v -0.44268 -8.87274 0.38900
v -0.39665 -8.96712 0.38900
v -0.36257 -9.03700 0.43905
v -0.36257 -9.03700 0.52095
v -0.39665 -8.96712 0.57100
v -0.50417 -8.88354 0.48000
vt 0.20238 1.96389
vt 0.19690 1.95208
vt 0.17895 1.97244
vt 0.17133 1.95604
vt 1.04344 0.13872
vt 1.04344 0.10128
vt 1.06556 0.14600
vt 1.06556 0.09400
vt -0.24690 1.83373
vt -0.25238 1.84554
vt -0.22895 1.85409
vt -0.22133 1.83769
vt 0.02460 2.17764
vt 0.01274 2.20185
vt 0.03073 2.21529
vt 0.04721 2.18167
vt 0.29169 2.14152
vt 0.27918 2.16654
vt 0.31380 2.15257
vt 0.29733 2.18396
vt 0.86686 -0.10947
vt 0.86686 -0.13053
vt 0.88876 -0.13462
vt 0.88876 -0.10537
vt -0.40472 2.10025
vt -0.41723 2.07523
vt -0.43934 2.08628
vt -0.42287 2.11767
vt -0.00895 2.18523
vt -0.02081 2.16102
vt -0.02694 2.19868
vt -0.04341 2.16506
vt -0.05093 2.15037
vt -0.08830 2.17073
vt -0.08116 2.18468
vt 1.10810 0.09530
vt 1.10810 0.14470
vt 0.05472 2.16699
vt 0.09209 2.18735
vt 0.08495 2.20129
vt 0.06930 2.23323
vt 0.01756 2.24399
vt 0.05657 2.26094
vt 0.93129 -0.10611
vt 0.93129 -0.13389
vt -0.01377 2.22738
vt -0.05277 2.24433
vt -0.06551 2.21662
vt -0.11123 2.19271
vt -0.10597 2.20298
vt 1.13841 0.10180
vt 1.13841 0.13820
vt 0.11502 2.20932
vt 0.10976 2.21960
vt 0.09823 2.24313
vt -0.00946 1.87313
vt -0.02250 1.90466
vt 0.01088 1.90696
vt 0.01937 1.88547
vt 0.96203 -0.13024
vt 0.96203 -0.10976
vt 0.03531 1.76592
vt 0.02227 1.73440
vt 0.00193 1.76822
vt -0.00656 1.74673
vt -0.09443 2.22652
vt -0.10947 1.99662
vt -0.14340 1.97177
vt -0.13053 1.99662
vt -0.09660 1.97177
vt -0.09660 1.94477
vt -0.14340 1.94477
vt -0.10128 1.93262
vt -0.13872 1.93262
vt -0.41788 2.02195
vt -0.39047 2.02504
vt -0.39477 2.01327
vt 1.15366 0.12000
vt 0.61704 2.02195
vt 0.59393 2.01327
vt 0.58963 2.02504
vt 0.58845 2.05121
vt 0.12000 1.61165
vt 0.09725 1.64497
vt 0.10976 1.66380
vt 0.13024 1.66380
vt 0.14275 1.64497
vt -0.38929 2.05121
vn 0.3229 0.2200 0.9205
vn 0.2395 0.4788 0.8446
vn 0.0640 0.3184 0.9458
vn -0.0372 0.3782 0.9250
vn -0.0172 0.9999 0.0000
vn -0.3296 0.9441 0.0000
vn -0.3163 0.9486 0.0000
vn 0.2395 0.4788 -0.8446
vn 0.3229 0.2200 -0.9205
vn 0.0640 0.3184 -0.9458
vn -0.0372 0.3782 -0.9250
vn 0.4607 -0.0204 -0.8873
vn 0.2125 -0.0258 -0.9768
vn 0.1383 0.1560 -0.9780
vn 0.5443 -0.2317 -0.8063
vn 0.3304 -0.2565 -0.9083
vn 0.3193 -0.4017 -0.8583
vn 0.7773 -0.6291 0.0000
vn 0.5411 -0.8410 0.0000
vn 0.5528 -0.8333 0.0000
vn 0.5443 -0.2317 0.8063
vn 0.4607 -0.0204 0.8873
vn 0.3304 -0.2565 0.9083
vn 0.3193 -0.4017 0.8583
vn 0.2125 -0.0258 0.9768
vn 0.1383 0.1560 0.9780
vn -0.0443 0.2138 0.9759
vn -0.2579 0.2716 0.9272
vn -0.1569 0.0361 0.9869
vn -0.5363 0.8440 0.0000
vn -0.5999 0.8001 0.0000
vn -0.0443 0.2138 -0.9759
vn -0.2579 0.2716 -0.9272
vn -0.1569 0.0361 -0.9869
vn -0.0113 0.1490 -0.9888
vn 0.1159 -0.0801 -0.9900
vn -0.0516 -0.1951 -0.9794
vn 0.3142 -0.3950 -0.8633
vn 0.1122 -0.4979 -0.8600
vn 0.1762 -0.2472 -0.9528
vn 0.0196 -0.3800 -0.9248
vn 0.2473 -0.9689 0.0000
vn 0.2312 -0.9729 0.0000
vn 0.3142 -0.3950 0.8633
vn 0.1122 -0.4979 0.8600
vn 0.1762 -0.2472 0.9528
vn 0.0196 -0.3800 0.9248
vn 0.1159 -0.0801 0.9900
vn -0.0113 0.1490 0.9888
vn -0.0516 -0.1951 0.9794
vn -0.4200 0.1767 0.8902
vn -0.2691 -0.0652 0.9609
vn -0.7077 0.7065 0.0000
vn -0.7260 0.6876 0.0000
vn -0.4200 0.1767 -0.8902
vn -0.2691 -0.0652 -0.9609
vn -0.1362 -0.1957 -0.9712
vn -0.2350 -0.1146 -0.9652
vn -0.0621 -0.3887 -0.9193
vn -0.0654 -0.5768 -0.8142
vn 0.0440 -0.5323 -0.8454
vn -0.0343 -0.5929 -0.8045
vn 0.0069 -1.0000 0.0000
vn -0.0621 -0.3887 0.9193
vn -0.0654 -0.5768 0.8142
vn 0.0440 -0.5323 0.8454
vn -0.0343 -0.5929 0.8045
vn -0.1362 -0.1957 0.9712
vn -0.2350 -0.1146 0.9652
vn 0.8988 0.4384 0.0000
vn -0.7693 -0.4457 0.4578
vn -0.7727 -0.3026 0.5580
vn -0.8103 -0.1528 0.5657
vn -0.7940 0.6079 0.0000
vn -0.7693 -0.4457 -0.4578
vn -0.8103 -0.1528 -0.5657
vn -0.7727 -0.3026 -0.5580
vn -0.7522 -0.4983 -0.4312
vn -0.7811 -0.5468 -0.3014
vn -0.7462 -0.6484 -0.1506
vn -0.7624 -0.6471 -0.0000
vn -0.7462 -0.6484 0.1506
vn -0.7811 -0.5468 0.3014
vn -0.7522 -0.4983 0.4312
s off
f 1/1/1 2/2/2 9/3/3
f 2/2/2 10/4/4 9/3/3
f 2/5/5 3/6/5 10/7/6
f 3/6/5 11/8/7 10/7/6
f 3/9/8 4/10/9 12/11/10
f 3/9/8 12/11/10 11/12/11
f 4/13/9 5/14/12 13/15/13
f 4/13/9 13/15/13 12/16/14
f 5/17/12 6/18/15 13/19/16
f 6/18/15 14/20/17 13/19/16
f 6/21/18 7/22/18 15/23/19
f 6/21/18 15/23/19 14/24/20
f 7/25/21 8/26/22 16/27/23
f 7/25/21 16/27/23 15/28/24
f 8/29/22 1/30/1 16/31/25
f 1/30/1 9/32/26 16/31/25
f 9/32/27 10/33/4 18/34/28
f 9/32/27 18/34/28 17/35/29
f 10/7/6 11/8/7 19/36/30
f 10/7/6 19/36/30 18/37/31
f 11/38/11 12/16/32 19/39/33
f 12/16/32 20/40/34 19/39/33
f 12/16/35 13/15/36 20/40/34
f 13/15/36 21/41/37 20/40/34
f 13/15/38 14/42/17 22/43/39
f 13/15/40 22/43/39 21/41/41
f 14/24/20 15/23/19 22/44/42
f 15/23/19 23/45/43 22/44/42
f 15/46/24 16/31/44 23/47/45
f 16/31/46 24/48/47 23/47/45
f 16/31/48 9/32/49 17/35/29
f 16/31/48 17/35/29 24/48/50
f 17/35/29 18/34/28 26/49/51
f 17/35/29 26/49/51 25/50/52
f 18/37/31 19/36/30 27/51/53
f 18/37/31 27/51/53 26/52/54
f 19/39/33 20/40/34 27/53/55
f 20/40/34 28/54/56 27/53/55
f 20/40/34 21/41/57 28/54/56
f 21/41/57 29/55/58 28/54/56
f 21/56/59 22/57/39 30/58/60
f 21/56/61 30/58/60 29/59/62
f 22/44/42 23/45/43 31/60/63
f 22/44/42 31/60/63 30/61/63
f 23/62/45 24/63/64 31/64/65
f 24/63/66 32/65/67 31/64/65
f 24/48/68 17/35/29 25/50/52
f 24/48/68 25/50/52 32/66/69
f 6/67/70 8/68/70 7/69/70
f 5/70/70 8/68/70 6/67/70
f 4/71/70 8/68/70 5/70/70
f 4/71/70 1/72/70 8/68/70
f 3/73/70 1/72/70 4/71/70
f 1/72/70 3/73/70 2/74/70
f 33/75/71 25/76/72 26/77/73
f 33/78/74 26/52/54 27/51/53
f 33/79/75 27/80/76 28/81/77
f 33/79/75 28/81/77 29/82/78
f 33/83/79 29/84/78 30/85/80
f 33/83/81 30/85/80 31/86/82
f 33/83/83 31/86/82 32/87/84
f 33/75/71 32/88/84 25/76/72
