# mech2 arm R, segment Pinky1, colour Grey #8A8A8A
# arm space (origin = shoulder centre, studs); segment pivot [0.36, -7.87, 0.48]
# bbox centre [0.2807, -8.4345, 0.48] (Roblox recentres on import: place at armCF * CFrame.new(centre))
o Mech2Arm_R_Pinky1_Grey
v 0.34567 -8.43445 0.63000
v 0.33326 -8.47266 0.63000
v 0.30076 -8.49627 0.63000
v 0.26059 -8.49627 0.63000
v 0.22809 -8.47266 0.63000
v 0.21567 -8.43445 0.63000
v 0.22809 -8.39625 0.63000
v 0.26059 -8.37263 0.63000
v 0.30076 -8.37263 0.63000
v 0.33326 -8.39625 0.63000
v 0.36567 -8.43445 0.61000
v 0.34944 -8.48441 0.61000
v 0.30694 -8.51529 0.61000
v 0.25440 -8.51529 0.61000
v 0.21190 -8.48441 0.61000
v 0.19567 -8.43445 0.61000
v 0.21190 -8.38449 0.61000
v 0.25440 -8.35361 0.61000
v 0.30694 -8.35361 0.61000
v 0.34944 -8.38449 0.61000
v 0.36567 -8.43445 0.35000
v 0.34944 -8.48441 0.35000
v 0.30694 -8.51529 0.35000
v 0.25440 -8.51529 0.35000
v 0.21190 -8.48441 0.35000
v 0.19567 -8.43445 0.35000
v 0.21190 -8.38449 0.35000
v 0.25440 -8.35361 0.35000
v 0.30694 -8.35361 0.35000
v 0.34944 -8.38449 0.35000
v 0.34567 -8.43445 0.33000
v 0.33326 -8.47266 0.33000
v 0.30076 -8.49627 0.33000
v 0.26059 -8.49627 0.33000
v 0.22809 -8.47266 0.33000
v 0.21567 -8.43445 0.33000
v 0.22809 -8.39625 0.33000
v 0.26059 -8.37263 0.33000
v 0.30076 -8.37263 0.33000
v 0.33326 -8.39625 0.33000
vt -0.05026 2.10861
vt -0.05246 2.11816
vt -0.04606 2.12110
vt -0.04319 2.10861
vt 0.08331 1.45421
vt 0.07519 1.45856
vt 0.07673 1.46545
vt 0.08736 1.45976
vt 0.06515 1.45856
vt 0.06360 1.46545
vt 0.05702 1.45421
vt 0.05298 1.45976
vt 0.15169 2.11816
vt 0.14949 2.10861
vt 0.14529 2.12110
vt 0.14242 2.10861
vt 0.15169 2.09906
vt 0.14529 2.09612
vt 0.05702 1.65311
vt 0.06515 1.64876
vt 0.06360 1.64187
vt 0.05298 1.64756
vt 0.07519 1.64876
vt 0.07673 1.64187
vt 0.08331 1.65311
vt 0.08736 1.64756
vt -0.05246 2.09906
vt -0.04606 2.09612
vt -0.15250 1.97716
vt -0.15250 1.99029
vt -0.08750 1.99029
vt -0.08750 1.97716
vt 1.17608 -0.15250
vt 1.18921 -0.15250
vt 1.18921 -0.08750
vt 1.17608 -0.08750
vt -0.07673 -0.15250
vt -0.06360 -0.15250
vt -0.06360 -0.08750
vt -0.07673 -0.08750
vt -1.30275 -0.15250
vt -1.28961 -0.15250
vt -1.28961 -0.08750
vt -1.30275 -0.08750
vt 0.15250 2.03366
vt 0.15250 2.02053
vt 0.08750 2.02053
vt 0.08750 2.03366
vt 0.15250 1.99029
vt 0.15250 1.97716
vt 0.08750 1.97716
vt 0.08750 1.99029
vt 1.18921 0.15250
vt 1.17608 0.15250
vt 1.17608 0.08750
vt 1.18921 0.08750
vt -0.06360 0.15250
vt -0.07673 0.15250
vt -0.07673 0.08750
vt -0.06360 0.08750
vt -1.28961 0.15250
vt -1.30275 0.15250
vt -1.30275 0.08750
vt -1.28961 0.08750
vt -0.15250 2.02053
vt -0.15250 2.03366
vt -0.08750 2.03366
vt -0.08750 2.02053
vt -0.12651 2.10861
vt -0.12364 2.12110
vt -0.11944 2.10861
vt -0.11725 2.11816
vt -0.08736 1.62202
vt -0.07673 1.62771
vt -0.08331 1.61648
vt -0.07519 1.62082
vt -0.06360 1.62771
vt -0.06515 1.62082
vt -0.05298 1.62202
vt -0.05702 1.61648
vt 0.02441 2.12110
vt 0.02728 2.10861
vt 0.02021 2.10861
vt 0.01802 2.11816
vt 0.02441 2.09612
vt 0.01802 2.09906
vt -0.05298 1.48530
vt -0.06360 1.47961
vt -0.05702 1.49084
vt -0.06515 1.48649
vt -0.07673 1.47961
vt -0.07519 1.48649
vt -0.08736 1.48530
vt -0.08331 1.49084
vt -0.12364 2.09612
vt -0.11725 2.09906
vt 0.08331 2.09906
vt 0.08331 2.11816
vt 0.08642 2.10861
vt 0.07519 2.09316
vt 0.07519 2.12407
vt 0.06515 2.12407
vt 0.06515 2.09316
vt 0.05702 2.11816
vt 0.05702 2.09906
vt 0.05392 2.10861
vt -0.08331 2.09906
vt -0.08642 2.10861
vt -0.08331 2.11816
vt -0.07519 2.09316
vt -0.07519 2.12407
vt -0.06515 2.12407
vt -0.06515 2.09316
vt -0.05702 2.11816
vt -0.05702 2.09906
vt -0.05392 2.10861
vn 0.7071 0.0000 0.7071
vn 0.5165 -0.4871 0.7042
vn 0.6082 -0.3635 0.7057
vn 0.1316 -0.6977 0.7042
vn 0.2784 -0.6515 0.7057
vn -0.2185 -0.6725 0.7071
vn -0.5165 -0.4871 0.7042
vn -0.6082 -0.3635 0.7057
vn -0.7071 0.0000 0.7071
vn -0.5165 0.4871 0.7042
vn -0.6082 0.3635 0.7057
vn -0.1316 0.6977 0.7042
vn -0.2784 0.6515 0.7057
vn 0.2185 0.6725 0.7071
vn 0.5165 0.4871 0.7042
vn 0.6082 0.3635 0.7057
vn 0.9511 -0.3090 0.0000
vn 0.5878 -0.8090 0.0000
vn 0.0000 -1.0000 0.0000
vn -0.5878 -0.8090 0.0000
vn -0.9511 -0.3090 0.0000
vn -0.9511 0.3090 0.0000
vn -0.5878 0.8090 0.0000
vn 0.0000 1.0000 0.0000
vn 0.5878 0.8090 0.0000
vn 0.9511 0.3090 0.0000
vn 0.7071 0.0000 -0.7071
vn 0.6082 -0.3635 -0.7057
vn 0.5165 -0.4871 -0.7042
vn 0.2185 -0.6725 -0.7071
vn -0.2784 -0.6515 -0.7057
vn -0.1316 -0.6977 -0.7042
vn -0.6082 -0.3635 -0.7057
vn -0.5165 -0.4871 -0.7042
vn -0.7071 0.0000 -0.7071
vn -0.6082 0.3635 -0.7057
vn -0.5165 0.4871 -0.7042
vn -0.2185 0.6725 -0.7071
vn 0.2784 0.6515 -0.7057
vn 0.1316 0.6977 -0.7042
vn 0.6082 0.3635 -0.7057
vn 0.5165 0.4871 -0.7042
vn 0.0000 0.0000 1.0000
vn 0.0000 0.0000 -1.0000
s off
f 1/1/1 2/2/2 12/3/3
f 1/1/1 12/3/3 11/4/1
f 2/5/2 3/6/4 13/7/5
f 2/5/2 13/7/5 12/8/3
f 3/6/4 4/9/6 14/10/6
f 3/6/4 14/10/6 13/7/5
f 4/9/6 5/11/7 14/10/6
f 5/11/7 15/12/8 14/10/6
f 5/13/7 6/14/9 15/15/8
f 6/14/9 16/16/9 15/15/8
f 6/14/9 7/17/10 17/18/11
f 6/14/9 17/18/11 16/16/9
f 7/19/10 8/20/12 18/21/13
f 7/19/10 18/21/13 17/22/11
f 8/20/12 9/23/14 19/24/14
f 8/20/12 19/24/14 18/21/13
f 9/23/14 10/25/15 19/24/14
f 10/25/15 20/26/16 19/24/14
f 10/27/15 1/1/1 20/28/16
f 1/1/1 11/4/1 20/28/16
f 11/29/17 12/30/17 22/31/17
f 11/29/17 22/31/17 21/32/17
f 12/33/18 13/34/18 23/35/18
f 12/33/18 23/35/18 22/36/18
f 13/37/19 14/38/19 24/39/19
f 13/37/19 24/39/19 23/40/19
f 14/41/20 15/42/20 25/43/20
f 14/41/20 25/43/20 24/44/20
f 15/45/21 16/46/21 26/47/21
f 15/45/21 26/47/21 25/48/21
f 16/49/22 17/50/22 27/51/22
f 16/49/22 27/51/22 26/52/22
f 17/53/23 18/54/23 28/55/23
f 17/53/23 28/55/23 27/56/23
f 18/57/24 19/58/24 29/59/24
f 18/57/24 29/59/24 28/60/24
f 19/61/25 20/62/25 30/63/25
f 19/61/25 30/63/25 29/64/25
f 20/65/26 11/66/26 21/67/26
f 20/65/26 21/67/26 30/68/26
f 21/69/27 22/70/28 31/71/27
f 22/70/28 32/72/29 31/71/27
f 22/73/28 23/74/30 32/75/29
f 23/74/30 33/76/30 32/75/29
f 23/74/30 24/77/31 34/78/32
f 23/74/30 34/78/32 33/76/30
f 24/77/31 25/79/33 35/80/34
f 24/77/31 35/80/34 34/78/32
f 25/81/33 26/82/35 36/83/35
f 25/81/33 36/83/35 35/84/34
f 26/82/35 27/85/36 36/83/35
f 27/85/36 37/86/37 36/83/35
f 27/87/36 28/88/38 37/89/37
f 28/88/38 38/90/38 37/89/37
f 28/88/38 29/91/39 39/92/40
f 28/88/38 39/92/40 38/90/38
f 29/91/39 30/93/41 40/94/42
f 29/91/39 40/94/42 39/92/40
f 30/95/41 21/69/27 31/71/27
f 30/95/41 31/71/27 40/96/42
f 10/97/43 2/98/43 1/99/43
f 9/100/43 2/98/43 10/97/43
f 9/100/43 3/101/43 2/98/43
f 9/100/43 4/102/43 3/101/43
f 8/103/43 4/102/43 9/100/43
f 8/103/43 5/104/43 4/102/43
f 7/105/43 5/104/43 8/103/43
f 5/104/43 7/105/43 6/106/43
f 40/107/44 31/108/44 32/109/44
f 39/110/44 40/107/44 32/109/44
f 39/110/44 32/109/44 33/111/44
f 39/110/44 33/111/44 34/112/44
f 38/113/44 39/110/44 34/112/44
f 38/113/44 34/112/44 35/114/44
f 37/115/44 38/113/44 35/114/44
f 35/114/44 36/116/44 37/115/44
