# mech2 arm R, segment Thumb1, colour White #F2F2F2
# arm space (origin = shoulder centre, studs); segment pivot [0.08, -7.28, -0.46]
# bbox centre [0.0012, -7.4392, -0.5078] (Roblox recentres on import: place at armCF * CFrame.new(centre))
o Mech2Arm_R_Thumb1_White
v 0.16193 -7.29495 -0.36598
v 0.12808 -7.28904 -0.32223
v -0.00898 -7.21499 -0.36393
v -0.00941 -7.20237 -0.41811
v 0.02772 -7.19492 -0.52690
v 0.10815 -7.21369 -0.61019
v 0.18525 -7.25535 -0.58673
v 0.19905 -7.28749 -0.47478
v 0.14978 -7.39428 -0.35084
v 0.10277 -7.38608 -0.29008
v -0.08760 -7.28322 -0.34800
v -0.08819 -7.26571 -0.42324
v -0.03663 -7.25536 -0.57435
v 0.07007 -7.28243 -0.67532
v 0.17715 -7.34029 -0.64274
v 0.20134 -7.38393 -0.50195
v 0.02941 -7.63955 -0.41244
v -0.01571 -7.63168 -0.35412
v -0.19847 -7.53294 -0.40972
v -0.19904 -7.51613 -0.48195
v -0.14954 -7.50619 -0.62701
v -0.04659 -7.53208 -0.72546
v 0.05621 -7.58762 -0.69418
v 0.07891 -7.62962 -0.55751
v -0.02334 -7.68338 -0.45767
v -0.05624 -7.67764 -0.41514
v -0.18950 -7.60564 -0.45568
v -0.18991 -7.59338 -0.50835
v -0.15382 -7.58613 -0.61413
v -0.07527 -7.60431 -0.69614
v -0.00031 -7.64481 -0.67334
v 0.01276 -7.67613 -0.56345
vt 0.10196 1.82354
vt 0.08813 1.82210
vt 0.09717 1.84839
vt 0.07796 1.84639
vt 0.04774 1.82325
vt 0.01151 1.80555
vt 0.04493 1.84685
vt -0.00538 1.82227
vt 1.10831 0.33120
vt 1.10845 0.31730
vt 1.13364 0.31973
vt 1.13345 0.33904
vt -0.24417 1.60898
vt -0.27225 1.60314
vt -0.28261 1.62388
vt -0.24360 1.63199
vt 0.46074 1.60829
vt 0.43543 1.62306
vt 0.47259 1.62735
vt 0.44035 1.64619
vt -0.01331 1.80945
vt -0.03366 1.81948
vt 0.00056 1.82763
vt -0.02770 1.84155
vt -0.04661 1.65974
vt -0.07526 1.66586
vt -0.07119 1.68793
vt -0.03467 1.68015
vt 0.43710 1.55136
vt 0.40911 1.55762
vt 0.44777 1.57193
vt 0.40890 1.58063
vt 0.39080 1.58475
vt 0.40761 1.65273
vt 0.42498 1.64877
vt 0.01320 1.90926
vt -0.03510 1.88567
vt -0.22545 1.63583
vt -0.24123 1.70406
vt -0.25865 1.70037
vt -0.29610 1.69258
vt 0.47657 1.70611
vt 0.50782 1.68785
vt 0.00381 1.90408
vt 0.03093 1.89071
vt -0.02110 1.74883
vt -0.05650 1.75638
vt 0.46230 1.64042
vt 0.60521 0.90231
vt 0.61732 0.88827
vt 0.62819 0.90695
vt 0.61936 0.91719
vt -0.00105 1.92184
vt -0.03627 1.90464
vt -0.09774 1.86604
vt -0.11580 1.86184
vt -0.10923 1.88435
vt -0.12240 1.88129
vt -0.26703 1.71659
vt -0.29433 1.71091
vt 0.49137 1.71778
vt 0.51618 1.70330
vt 0.03502 1.90827
vt 0.01524 1.91802
vt -0.02418 1.76743
vt -0.05227 1.77343
vt 0.43360 1.66487
vt 0.46081 1.65877
vt -0.77170 0.25402
vt -0.79670 0.29114
vt -0.79290 0.26206
vt -0.74958 0.27327
vt -0.78649 0.31807
vt -0.73936 0.30020
vt -0.77718 0.32840
vt -0.73948 0.31410
vt -0.77171 -0.25488
vt -0.79233 -0.26270
vt -0.79592 -0.29123
vt -0.75010 -0.27385
vt -0.78599 -0.31741
vt -0.74018 -0.30003
vt -0.77694 -0.32745
vt -0.74029 -0.31355
vn 0.9266 -0.0567 0.3717
vn 0.7907 -0.0034 0.6122
vn 0.7787 -0.3063 0.5475
vn 0.7152 -0.3561 0.6013
vn -0.1027 0.3369 0.9359
vn -0.2512 0.0783 0.9648
vn -0.3009 -0.0199 0.9535
vn -0.6233 0.7605 0.1820
vn -0.6196 0.7787 -0.0987
vn -0.8259 0.5607 0.0593
vn -0.8602 0.4951 0.1220
vn -0.4924 0.7976 -0.3483
vn -0.7476 0.5884 -0.3080
vn -0.7902 0.5902 -0.1650
vn -0.3538 0.7580 -0.5479
vn -0.5627 0.5744 -0.5945
vn -0.5232 0.5033 -0.6877
vn 0.4743 0.4527 -0.7550
vn 0.3590 0.1453 -0.9220
vn 0.3636 0.1558 -0.9184
vn 0.9898 0.0321 -0.1391
vn 0.9946 -0.0057 0.1040
vn 0.9598 -0.2482 -0.1313
vn 0.9277 -0.2806 -0.2463
vn 0.9270 -0.3164 0.2014
vn 0.8845 -0.3147 0.3445
vn 0.7843 -0.4246 0.4524
vn 0.6369 -0.5260 0.5636
vn 0.7871 -0.5205 0.3311
vn -0.3565 -0.1397 0.9238
vn -0.3962 -0.2333 0.8880
vn -0.8789 0.4740 -0.0536
vn -0.9414 0.3267 0.0835
vn -0.9017 0.3919 -0.1827
vn -0.8702 0.4823 -0.1012
vn -0.8138 0.5286 -0.2415
vn -0.8943 0.3946 -0.2109
vn -0.9080 0.3034 -0.2891
vn -0.5293 0.5025 -0.6836
vn -0.5936 0.3609 -0.7193
vn -0.6365 0.2627 -0.7251
vn 0.2691 -0.0437 -0.9621
vn 0.2626 -0.0563 -0.9632
vn 0.9280 -0.2849 -0.2403
vn 0.8617 -0.4254 -0.2766
vn 0.8068 -0.5171 -0.2860
vn 0.8805 -0.3869 0.2740
vn 0.8077 -0.4243 0.4093
vn 0.7982 -0.5199 0.3041
vn 0.7675 -0.6019 0.2207
vn 0.5877 -0.6865 0.4281
vn 0.3629 -0.8441 0.3947
vn 0.5312 -0.8274 0.1823
vn -0.4901 -0.5082 0.7082
vn -0.9853 0.1634 -0.0505
vn -0.9936 -0.1112 -0.0181
vn -0.9621 -0.0207 -0.2720
vn -0.9026 0.3488 -0.2521
vn -0.8864 0.2247 -0.4047
vn -0.8539 -0.0379 -0.5191
vn -0.7407 0.2005 -0.6412
vn -0.7095 -0.0414 -0.7035
vn 0.0641 -0.3970 -0.9156
vn 0.7676 -0.6144 -0.1822
vn 0.5923 -0.7448 -0.3074
vn 0.5782 -0.8116 -0.0834
vn 0.7474 -0.6580 0.0924
vn 0.7844 -0.5626 0.2611
vn 0.4169 0.8860 0.2030
vn -0.4169 -0.8860 -0.2030
s off
f 1/1/1 2/2/2 9/3/3
f 2/2/2 10/4/4 9/3/3
f 2/5/5 3/6/5 10/7/6
f 3/6/5 11/8/7 10/7/6
f 3/9/8 4/10/9 12/11/10
f 3/9/8 12/11/10 11/12/11
f 4/13/9 5/14/12 13/15/13
f 4/13/9 13/15/13 12/16/14
f 5/17/12 6/18/15 13/19/16
f 6/18/15 14/20/17 13/19/16
f 6/21/18 7/22/18 14/23/19
f 7/22/18 15/24/20 14/23/19
f 7/25/21 8/26/22 16/27/23
f 7/25/21 16/27/23 15/28/24
f 8/29/22 1/30/1 16/31/25
f 1/30/1 9/32/26 16/31/25
f 9/32/27 10/33/4 18/34/28
f 9/32/27 18/34/28 17/35/29
f 10/7/6 11/8/7 18/36/30
f 11/8/7 19/37/31 18/36/30
f 11/38/11 12/16/32 19/39/33
f 12/16/32 20/40/34 19/39/33
f 12/16/35 13/15/36 20/40/37
f 13/15/36 21/41/38 20/40/37
f 13/19/39 14/20/17 22/42/40
f 13/19/39 22/42/40 21/43/41
f 14/23/19 15/24/20 23/44/42
f 14/23/19 23/44/42 22/45/43
f 15/28/24 16/27/44 23/46/45
f 16/27/44 24/47/46 23/46/45
f 16/31/47 9/32/48 17/35/49
f 16/31/47 17/35/49 24/48/50
f 17/49/51 18/50/28 26/51/52
f 17/49/51 26/51/52 25/52/53
f 18/36/30 19/37/31 26/53/54
f 19/37/31 27/54/54 26/53/54
f 19/55/33 20/56/55 27/57/56
f 20/56/55 28/58/57 27/57/56
f 20/40/58 21/41/59 28/59/57
f 21/41/59 29/60/60 28/59/57
f 21/43/61 22/42/40 30/61/62
f 21/43/61 30/61/62 29/62/60
f 22/45/43 23/44/42 30/63/63
f 23/44/42 31/64/63 30/63/63
f 23/46/45 24/47/64 31/65/65
f 24/47/64 32/66/66 31/65/65
f 24/48/67 17/35/68 25/67/53
f 24/48/67 25/67/53 32/68/66
f 6/69/69 8/70/69 7/71/69
f 5/72/69 8/70/69 6/69/69
f 5/72/69 1/73/69 8/70/69
f 4/74/69 1/73/69 5/72/69
f 4/74/69 2/75/69 1/73/69
f 2/75/69 4/74/69 3/76/69
f 30/77/70 31/78/70 32/79/70
f 29/80/70 30/77/70 32/79/70
f 29/80/70 32/79/70 25/81/70
f 28/82/70 29/80/70 25/81/70
f 28/82/70 25/81/70 26/83/70
f 26/83/70 27/84/70 28/82/70
