# mech2 arm R, segment Middle2, colour White #F2F2F2
# arm space (origin = shoulder centre, studs); segment pivot [0.3103212266338348, -8.437830977912295, -0.16]
# bbox centre [0.1657, -8.6286, -0.16] (Roblox recentres on import: place at armCF * CFrame.new(centre))
o Mech2Arm_R_Middle2_White
v 0.29294 -8.36836 -0.06640
v 0.25683 -8.33584 -0.08512
v 0.25683 -8.33584 -0.23488
v 0.29294 -8.36836 -0.25360
v 0.37320 -8.44062 -0.25360
v 0.44707 -8.50714 -0.20212
v 0.44707 -8.50714 -0.11788
v 0.37320 -8.44062 -0.06640
v 0.21556 -8.41978 -0.03000
v 0.16539 -8.37462 -0.05600
v 0.16539 -8.37462 -0.26400
v 0.21556 -8.41978 -0.29000
v 0.32703 -8.52015 -0.29000
v 0.41806 -8.60212 -0.21850
v 0.41806 -8.60212 -0.10150
v 0.32703 -8.52015 -0.03000
v -0.04964 -8.71925 -0.03520
v -0.09780 -8.67589 -0.06016
v -0.09780 -8.67589 -0.25984
v -0.04964 -8.71925 -0.28480
v 0.05737 -8.81561 -0.28480
v 0.14595 -8.89537 -0.21616
v 0.14595 -8.89537 -0.10384
v 0.05737 -8.81561 -0.03520
v -0.08054 -8.78562 -0.06900
v -0.11566 -8.75401 -0.08720
v -0.11566 -8.75401 -0.23280
v -0.08054 -8.78562 -0.25100
v -0.00251 -8.85588 -0.25100
v 0.07013 -8.92129 -0.20095
v 0.07013 -8.92129 -0.11905
v -0.00251 -8.85588 -0.06900
vt 0.07326 2.09215
vt 0.06419 2.08407
vt 0.05400 2.10492
vt 0.04140 2.09369
vt -0.02128 1.51153
vt -0.05872 1.51153
vt -0.06600 1.53399
vt -0.01400 1.53399
vt -0.06489 2.08330
vt -0.07396 2.09138
vt -0.05469 2.10415
vt -0.04210 2.09292
vt -0.09403 2.10945
vt -0.08256 2.12924
vt -0.02078 2.10910
vt -0.04315 2.12590
vt -0.00593 2.12886
vt -0.03469 2.14959
vt 0.05053 1.49963
vt 0.02947 1.49963
vt 0.02538 1.52208
vt 0.05462 1.52208
vt 0.09046 2.12699
vt 0.06809 2.11019
vt 0.05324 2.12994
vt 0.08200 2.15068
vt 0.09333 2.11022
vt 0.08187 2.13001
vt -0.02440 2.16902
vt -0.01230 2.17980
vt -0.06496 1.63399
vt -0.01504 1.63399
vt 0.02370 2.16824
vt 0.01161 2.17902
vt -0.01515 2.20311
vt -0.10517 2.14990
vt -0.03714 2.22322
vt 0.02596 1.62209
vt 0.05404 1.62209
vt 0.10447 2.15068
vt 0.03645 2.22399
vt 0.01445 2.20388
vt 0.21145 2.14360
vt 0.19692 2.13411
vt 0.19153 2.15455
vt 0.20213 2.16147
vt -0.05820 1.65153
vt -0.02180 1.65153
vt -0.24096 2.11926
vt -0.25550 2.12876
vt -0.23557 2.13971
vt -0.24617 2.14663
vt 0.01940 2.19570
vt -0.00010 2.21326
vt 0.01294 1.68483
vt -0.00922 1.71112
vt 0.00975 1.71856
vt 0.02791 1.69797
vt 0.02976 1.63963
vt 0.05024 1.63963
vt 0.01042 1.76073
vt -0.01174 1.73444
vt -0.00855 1.76817
vt -0.02670 1.74758
vt -0.02010 2.19647
vt -0.00059 2.21403
vt -1.48131 -0.06340
vt -1.50616 -0.02947
vt -1.50616 -0.05053
vt -1.48131 -0.01660
vt -1.45431 -0.06340
vt -1.45431 -0.01660
vt -1.44216 -0.02128
vt -1.44216 -0.05872
vt -1.48097 0.06275
vt -1.50541 0.05024
vt -1.50541 0.02976
vt -1.48097 0.01725
vt -1.45472 0.06275
vt -1.45472 0.01725
vt -1.44291 0.02180
vt -1.44291 0.05820
vn 0.2170 0.3250 0.9205
vn 0.0427 0.5336 0.8446
vn -0.1420 0.2912 0.9461
vn -0.2170 0.2947 0.9306
vn -0.3905 0.9206 0.0000
vn -0.6586 0.7525 0.0000
vn -0.7196 0.6944 0.0000
vn 0.0427 0.5336 -0.8446
vn 0.2170 0.3250 -0.9205
vn -0.1420 0.2912 -0.9461
vn -0.2170 0.2947 -0.9306
vn 0.4348 0.1537 -0.8873
vn 0.1228 0.0344 -0.9918
vn 0.0432 0.1191 -0.9919
vn 0.5914 -0.0110 -0.8063
vn 0.3944 -0.2045 -0.8959
vn 0.4152 -0.2908 -0.8620
vn 0.9564 -0.2921 0.0000
vn 0.8172 -0.5763 0.0000
vn 0.7658 -0.6430 0.0000
vn 0.5914 -0.0110 0.8063
vn 0.4348 0.1537 0.8873
vn 0.3944 -0.2045 0.8959
vn 0.4152 -0.2908 0.8620
vn 0.1228 0.0344 0.9918
vn 0.0432 0.1191 0.9919
vn -0.1249 0.1512 0.9806
vn -0.3055 0.1969 0.9316
vn -0.0929 0.0247 0.9954
vn -0.7805 0.6251 0.0000
vn -0.8293 0.5589 0.0000
vn -0.1249 0.1512 -0.9806
vn -0.3055 0.1969 -0.9316
vn -0.0929 0.0247 -0.9954
vn -0.0983 0.1286 -0.9868
vn 0.1318 -0.0689 -0.9889
vn -0.0778 0.0105 -0.9969
vn 0.1089 -0.2044 -0.9728
vn 0.4101 -0.2886 -0.8652
vn 0.3391 -0.3718 -0.8642
vn 0.2226 -0.1643 -0.9610
vn 0.1565 -0.2501 -0.9555
vn 0.7033 -0.7109 0.0000
vn 0.6425 -0.7663 0.0000
vn 0.4101 -0.2886 0.8652
vn 0.3391 -0.3718 0.8642
vn 0.2226 -0.1643 0.9610
vn 0.1565 -0.2501 0.9555
vn 0.1318 -0.0689 0.9889
vn -0.0983 0.1286 0.9868
vn -0.0778 0.0105 0.9969
vn 0.1089 -0.2044 0.9728
vn -0.3494 0.0272 0.9366
vn -0.5603 -0.1537 0.8139
vn -0.3403 -0.2960 0.8925
vn -0.9749 0.2228 0.0000
vn -0.3494 0.0272 -0.9366
vn -0.5603 -0.1537 -0.8139
vn -0.3403 -0.2960 -0.8925
vn -0.0712 -0.0458 -0.9964
vn -0.0624 -0.2038 -0.9770
vn -0.1554 -0.4892 -0.8582
vn 0.1628 -0.4150 -0.8951
vn 0.0192 -0.6200 -0.7844
vn 0.3235 -0.9462 0.0000
vn 0.1628 -0.4150 0.8951
vn 0.0192 -0.6200 0.7844
vn -0.1554 -0.4892 0.8582
vn -0.0624 -0.2038 0.9770
vn -0.0712 -0.0458 0.9964
vn 0.6691 0.7431 0.0000
vn -0.6691 -0.7431 0.0000
s off
f 1/1/1 2/2/2 9/3/3
f 2/2/2 10/4/4 9/3/3
f 2/5/5 3/6/5 11/7/6
f 2/5/5 11/7/6 10/8/7
f 3/9/8 4/10/9 12/11/10
f 3/9/8 12/11/10 11/12/11
f 4/10/9 5/13/12 13/14/13
f 4/10/9 13/14/13 12/11/14
f 5/15/12 6/16/15 13/17/16
f 6/16/15 14/18/17 13/17/16
f 6/19/18 7/20/18 15/21/19
f 6/19/18 15/21/19 14/22/20
f 7/23/21 8/24/22 16/25/23
f 7/23/21 16/25/23 15/26/24
f 8/27/22 1/1/1 16/28/25
f 1/1/1 9/3/26 16/28/25
f 9/3/27 10/4/4 18/29/28
f 9/3/27 18/29/28 17/30/29
f 10/8/7 11/7/6 19/31/30
f 10/8/7 19/31/30 18/32/31
f 11/12/11 12/11/32 19/33/33
f 12/11/32 20/34/34 19/33/33
f 12/11/35 13/14/36 20/34/37
f 13/14/36 21/35/38 20/34/37
f 13/14/39 14/36/17 22/37/40
f 13/14/41 22/37/40 21/35/42
f 14/22/20 15/21/19 23/38/43
f 14/22/20 23/38/43 22/39/44
f 15/40/24 16/28/45 23/41/46
f 16/28/47 24/42/48 23/41/46
f 16/28/49 9/3/50 17/30/51
f 16/28/49 17/30/51 24/42/52
f 17/43/53 18/44/28 26/45/54
f 17/43/53 26/45/54 25/46/55
f 18/32/31 19/31/30 27/47/56
f 18/32/31 27/47/56 26/48/56
f 19/49/33 20/50/57 27/51/58
f 20/50/57 28/52/59 27/51/58
f 20/34/60 21/35/61 28/53/59
f 21/35/61 29/54/62 28/53/59
f 21/55/63 22/56/40 30/57/64
f 21/55/63 30/57/64 29/58/62
f 22/39/44 23/38/43 31/59/65
f 22/39/44 31/59/65 30/60/65
f 23/61/46 24/62/66 31/63/67
f 24/62/66 32/64/68 31/63/67
f 24/42/69 17/30/70 25/65/55
f 24/42/69 25/65/55 32/66/68
f 5/67/71 7/68/71 6/69/71
f 5/67/71 8/70/71 7/68/71
f 4/71/71 8/70/71 5/67/71
f 4/71/71 1/72/71 8/70/71
f 4/71/71 2/73/71 1/72/71
f 2/73/71 4/71/71 3/74/71
f 29/75/72 30/76/72 31/77/72
f 29/75/72 31/77/72 32/78/72
f 28/79/72 29/75/72 32/78/72
f 28/79/72 32/78/72 25/80/72
f 28/79/72 25/80/72 26/81/72
f 26/81/72 27/82/72 28/79/72
