# mech2 arm R, segment Lower, colour Gold #D4A93A
# arm space (origin = shoulder centre, studs); segment pivot [0.0, -3.13, 0.0]
# bbox centre [0.5553, -5.16, 0.2149] (Roblox recentres on import: place at armCF * CFrame.new(centre))
o Mech2Arm_R_Lower_Gold
v 1.61065 -4.38000 0.45641
v 1.57743 -4.38000 0.60284
v 1.51616 -4.38000 0.74030
v 1.43040 -4.38000 0.86365
v 1.32956 -4.38000 0.97358
v 1.28202 -4.38000 0.92925
v 1.37748 -4.38000 0.82590
v 1.45877 -4.38000 0.70979
v 1.51655 -4.38000 0.58007
v 1.54731 -4.38000 0.44179
v 1.59936 -4.53462 0.52645
v 1.55382 -4.53462 0.67004
v 1.47702 -4.53462 0.79962
v 1.38454 -4.53462 0.91727
v 1.27747 -4.53462 1.02038
v 1.23276 -4.53462 0.97320
v 1.33405 -4.53462 0.87633
v 1.42162 -4.53462 0.76562
v 1.49446 -4.53462 0.64356
v 1.53705 -4.53462 0.50795
v 1.58299 -4.68923 0.59582
v 1.51923 -4.68923 0.73232
v 1.43527 -4.68923 0.85676
v 1.33599 -4.68923 0.96811
v 1.22374 -4.68923 1.06487
v 1.18203 -4.68923 1.01503
v 1.28813 -4.68923 0.92413
v 1.38208 -4.68923 0.81940
v 1.46162 -4.68923 0.70223
v 1.52194 -4.68923 0.57351
v 1.55588 -4.84385 0.66164
v 1.48099 -4.84385 0.79213
v 1.39020 -4.84385 0.91103
v 1.28490 -4.84385 1.01607
v 1.16719 -4.84385 1.10546
v 1.12863 -4.84385 1.05314
v 1.23984 -4.84385 0.96922
v 1.33942 -4.84385 0.87047
v 1.42534 -4.84385 0.75854
v 1.49632 -4.84385 0.63560
v 1.52224 -4.99846 0.72432
v 1.43968 -4.99846 0.84955
v 1.34239 -4.99846 0.96259
v 1.23108 -4.99846 1.06066
v 1.10867 -4.99846 1.14280
v 1.07342 -4.99846 1.08820
v 1.18900 -4.99846 1.01112
v 1.29420 -4.99846 0.91897
v 1.38621 -4.99846 0.81259
v 1.46441 -4.99846 0.69466
v 1.48404 -5.15308 0.78410
v 1.39543 -5.15308 0.90444
v 1.29161 -5.15308 1.01097
v 1.17506 -5.15308 1.10212
v 1.04834 -5.15308 1.17682
v 1.01652 -5.15308 1.12014
v 1.13612 -5.15308 1.05008
v 1.24620 -5.15308 0.96446
v 1.34434 -5.15308 0.86425
v 1.42815 -5.15308 0.75092
v 1.44071 -5.30769 0.84004
v 1.34537 -5.30769 0.95401
v 1.23643 -5.30769 1.05409
v 1.11589 -5.30769 1.13870
v 0.98591 -5.30769 1.20654
v 0.95765 -5.30769 1.14800
v 1.08024 -5.30769 1.08436
v 1.19399 -5.30769 1.00486
v 1.29686 -5.30769 0.91074
v 1.38697 -5.30769 0.80348
v 1.39464 -5.46231 0.89319
v 1.29262 -5.46231 1.00010
v 1.17836 -5.46231 1.09271
v 1.05354 -5.46231 1.16925
v 0.92039 -5.46231 1.22855
v 0.89580 -5.46231 1.16839
v 1.02131 -5.46231 1.11281
v 1.13903 -5.46231 1.04096
v 1.24687 -5.46231 0.95392
v 1.34326 -5.46231 0.85338
v 1.34600 -5.61692 0.94343
v 1.23808 -5.61692 1.04333
v 1.11862 -5.61692 1.12786
v 0.98978 -5.61692 1.19570
v 0.85401 -5.61692 1.24635
v 0.83318 -5.61692 1.18478
v 0.96109 -5.61692 1.13737
v 1.08257 -5.61692 1.07377
v 1.19527 -5.61692 0.99442
v 1.29717 -5.61692 0.90052
v 1.29458 -5.77154 0.99033
v 1.18094 -5.77154 1.08250
v 1.05715 -5.77154 1.15905
v 0.92487 -5.77154 1.21800
v 0.78705 -5.77154 1.25989
v 0.77006 -5.77154 1.19715
v 0.89984 -5.77154 1.15801
v 1.02450 -5.77154 1.10284
v 1.14123 -5.77154 1.03104
v 1.24850 -5.77154 0.94449
v 1.23995 -5.92615 1.03297
v 1.12151 -5.92615 1.11743
v 0.99396 -5.92615 1.18576
v 0.85909 -5.92615 1.23610
v 0.71967 -5.92615 1.26869
v 0.70658 -5.92615 1.20502
v 0.83781 -5.92615 1.17469
v 0.96484 -5.92615 1.12765
v 1.08505 -5.92615 1.06362
v 1.19678 -5.92615 0.98438
v 1.18465 -6.08077 1.07389
v 1.06089 -6.08077 1.14928
v 0.92942 -6.08077 1.20789
v 0.79257 -6.08077 1.24951
v 0.65245 -6.08077 1.27424
v 0.64331 -6.08077 1.20988
v 0.77512 -6.08077 1.18690
v 0.90395 -6.08077 1.14809
v 1.02782 -6.08077 1.09332
v 1.14456 -6.08077 1.02272
v 1.12741 -6.23538 1.11158
v 0.99986 -6.23538 1.17940
v 0.86522 -6.23538 1.22916
v 0.72630 -6.23538 1.26114
v 0.58585 -6.23538 1.28160
v 0.58071 -6.23538 1.21680
v 0.71274 -6.23538 1.19757
v 0.84348 -6.23538 1.16790
v 0.97031 -6.23538 1.12150
v 1.09056 -6.23538 1.05803
v 1.06814 -6.39000 1.14554
v 0.93705 -6.39000 1.20516
v 0.80004 -6.39000 1.24635
v 0.66037 -6.39000 1.27308
v 0.51894 -6.39000 1.28483
v 0.51780 -6.39000 1.21984
v 0.65077 -6.39000 1.20880
v 0.78212 -6.39000 1.18387
v 0.91114 -6.39000 1.14555
v 1.03466 -6.39000 1.08983
v 0.50000 -3.93000 -0.85500
v -0.50000 -3.93000 -0.85500
v -0.47000 -3.93000 -0.76000
v 0.47000 -3.93000 -0.76000
v 0.36000 -4.88000 -0.85500
v -0.36000 -4.88000 -0.85500
v -0.33000 -4.88000 -0.76000
v 0.33000 -4.88000 -0.76000
vt 0.19033 1.09172
vt 0.15757 1.09179
vt 0.17564 1.13040
vt 0.14133 1.13049
vt 0.12177 1.09191
vt 0.10441 1.13065
vt 0.08451 1.09209
vt 0.06708 1.13083
vt 0.04722 1.09229
vt 0.03001 1.13105
vt 0.56261 0.83000
vt 0.54801 0.83533
vt 0.57562 0.87039
vt 0.56065 0.87540
vt -0.01729 1.09350
vt -0.05234 1.09339
vt -0.03583 1.13209
vt -0.00116 1.13221
vt -0.08773 1.09329
vt -0.07112 1.13199
vt -0.12218 1.09323
vt -0.10638 1.13191
vt -0.15416 1.09319
vt -0.13966 1.13186
vt -0.10329 1.01235
vt -0.11845 1.01411
vt -0.09892 1.05418
vt -0.11431 1.05642
vt 0.16021 1.16908
vt 0.12418 1.16921
vt 0.08702 1.16938
vt 0.04972 1.16958
vt 0.01297 1.16981
vt 0.58794 0.91097
vt 0.57266 0.91564
vt -0.01946 1.17080
vt 0.01478 1.17092
vt -0.05455 1.17069
vt -0.08988 1.17060
vt -0.12452 1.17053
vt -0.09345 1.09595
vt -0.10901 1.09864
vt 0.14366 1.20779
vt 0.10688 1.20794
vt 0.06960 1.20813
vt 0.03247 1.20834
vt -0.00382 1.20857
vt 0.59912 0.95186
vt 0.58359 0.95618
vt -0.00326 1.20951
vt -0.14589 1.16787
vt -0.16361 1.20672
vt -0.12943 1.20636
vt -0.03804 1.20939
vt -0.07331 1.20929
vt -0.10846 1.20921
vt -0.10101 1.14044
vt -0.08534 1.13729
vt 0.12659 1.24651
vt 0.08951 1.24668
vt 0.05223 1.24687
vt 0.01540 1.24710
vt -0.02034 1.24734
vt 0.60937 0.99297
vt 0.59364 0.99692
vt -0.14732 1.24519
vt -0.11290 1.24486
vt -0.02163 1.24810
vt 0.01271 1.24822
vt -0.05675 1.24799
vt -0.09202 1.24790
vt -0.09127 1.18185
vt -0.07555 1.17827
vt 0.10930 1.28524
vt 0.07212 1.28542
vt 0.03496 1.28563
vt -0.00147 1.28586
vt 0.14369 1.24449
vt 0.12628 1.28299
vt 0.16263 1.28331
vt 0.61869 1.03429
vt 0.60284 1.03785
vt -0.13088 1.28367
vt -0.09633 1.28338
vt -0.00540 1.28681
vt -0.16500 1.28403
vt -0.04024 1.28669
vt -0.07546 1.28660
vt -0.08022 1.22292
vt -0.06451 1.21892
vt 0.09187 1.32398
vt 0.05474 1.32417
vt 0.01793 1.32439
vt -0.01795 1.32464
vt 0.14525 1.32180
vt 0.10879 1.32151
vt 0.62685 1.07584
vt 0.61092 1.07900
vt -0.11428 1.32218
vt -0.07977 1.32191
vt -0.14855 1.32251
vt -0.02388 1.32540
vt 0.01049 1.32552
vt -0.05888 1.32530
vt -0.06763 1.26352
vt -0.05200 1.25911
vt 0.07449 1.36273
vt 0.03757 1.36293
vt 0.00125 1.36316
vt 0.12770 1.36032
vt 0.16377 1.36065
vt 0.09129 1.36006
vt 0.63297 1.11773
vt 0.61703 1.12049
vt -0.09764 1.36071
vt -0.06335 1.36047
vt -0.13196 1.36101
vt -0.00779 1.36411
vt -0.16573 1.36137
vt -0.04244 1.36400
vt -0.05415 1.30379
vt -0.03864 1.29899
vt 0.05723 1.40148
vt 0.02062 1.40169
vt -0.01506 1.40193
vt 0.14639 1.39915
vt 0.11019 1.39885
vt 0.07398 1.39864
vt 0.63805 1.15972
vt 0.62217 1.16206
vt -0.08113 1.39925
vt -0.04720 1.39905
vt -0.11540 1.39952
vt -0.14942 1.39985
vt -0.02617 1.40271
vt 0.00801 1.40283
vt -0.03978 1.34371
vt -0.02446 1.33853
vt 0.04013 1.44023
vt 0.00400 1.44046
vt 0.12898 1.43766
vt 0.16482 1.43799
vt 0.09281 1.43741
vt 0.05692 1.43723
vt 0.64213 1.20178
vt 0.62635 1.20368
vt -0.06482 1.43781
vt -0.03137 1.43765
vt -0.09888 1.43804
vt -0.13298 1.43835
vt -0.01012 1.44142
vt -0.16656 1.43871
vt -0.02444 1.38322
vt -0.00937 1.37769
vt 0.02327 1.47900
vt -0.01223 1.47923
vt 0.14753 1.47649
vt 0.11159 1.47619
vt 0.07561 1.47598
vt 0.04022 1.47584
vt 0.64509 1.24389
vt 0.62949 1.24535
vt -0.04877 1.47639
vt -0.01596 1.47626
vt -0.08247 1.47659
vt -0.11650 1.47686
vt -0.15028 1.47719
vt -0.00792 1.42222
vt 0.00684 1.41636
vt 0.00663 1.51776
vt 0.13026 1.51500
vt 0.16598 1.51532
vt 0.09431 1.51475
vt 0.05867 1.51457
vt 0.02384 1.51446
vt 0.64734 1.28597
vt 0.36233 1.29741
vt 0.36358 1.33917
vt 0.37979 1.33829
vt -0.03306 1.51499
vt -0.00092 1.51489
vt -0.06626 1.51515
vt -0.10010 1.51538
vt -0.13406 1.51568
vt 0.00893 1.46101
vt 0.02334 1.45484
vt 0.14895 1.55381
vt 0.11305 1.55352
vt 0.07718 1.55330
vt 0.04196 1.55316
vt 0.00745 1.55308
vt 0.38159 1.38037
vt 0.36535 1.38087
vt -0.01759 1.55359
vt 0.01419 1.55351
vt -0.05022 1.55372
vt -0.08380 1.55391
vt -0.11778 1.55418
vt 0.02657 1.49941
vt 0.04056 1.49295
vt 0.13180 1.59231
vt 0.09584 1.59205
vt 0.06020 1.59188
vt 0.02530 1.59176
vt -0.00864 1.59171
vt 0.36615 1.42260
vt 0.38236 1.42249
vt -0.00215 1.59219
vt -0.11767 1.55439
vt -0.13524 1.59307
vt -0.10189 1.59303
vt -0.03440 1.59230
vt -0.06759 1.59246
vt -0.10145 1.59269
vt 0.04507 1.53737
vt -0.67289 1.28356
vt -0.69776 1.32078
vt -0.68192 1.32443
vt -0.37914 0.14502
vt -0.40266 0.11410
vt -0.38683 0.11045
vt -0.39436 0.15071
vt -0.37904 0.18508
vt -0.36469 0.17745
vt -0.35760 0.21591
vt -0.34437 0.20647
vt -0.33239 0.24339
vt -0.32051 0.23231
vt -0.25867 -0.27246
vt -0.26704 -0.28639
vt -0.23426 -0.30129
vt -0.22778 -0.28639
vt -0.20001 -0.31159
vt -0.19553 -0.29597
vt -0.16509 -0.31827
vt -0.16269 -0.30220
vt -0.12973 -0.32121
vt -0.12945 -0.30496
vt -0.12500 0.98250
vt 0.09000 1.22000
vt 0.12500 0.98250
vt -0.09000 1.22000
vt -0.28362 0.95378
vt -0.28362 1.19384
vt -0.25873 0.95487
vt -0.25873 1.19494
vt -0.11750 0.98250
vt 0.08250 1.22000
vt 0.11750 0.98250
vt -0.08250 1.22000
vt 0.25873 0.95487
vt 0.28362 1.19384
vt 0.28362 0.95378
vt 0.25873 1.19494
vt -0.11750 -0.19000
vt -0.12500 -0.21375
vt 0.12500 -0.21375
vt 0.11750 -0.19000
vt -0.08250 0.19000
vt 0.09000 0.21375
vt -0.09000 0.21375
vt 0.08250 0.19000
vn 0.9748 0.0290 0.2211
vn 0.9502 0.0175 0.3112
vn 0.9612 0.0165 0.2755
vn 0.9117 0.0028 0.4109
vn 0.8675 0.0088 0.4974
vn 0.8251 -0.0030 0.5650
vn 0.7827 0.0027 0.6224
vn 0.7418 0.0002 0.6706
vn 0.7157 0.0001 0.6984
vn 0.6803 -0.0018 0.7329
vn -0.6217 0.4113 0.6666
vn -0.6448 0.4021 0.6500
vn -0.6506 0.4050 0.6425
vn -0.6786 0.3983 0.6171
vn -0.7133 -0.0001 -0.7009
vn -0.7806 -0.0024 -0.6250
vn -0.7396 -0.0002 -0.6730
vn -0.6779 0.0015 -0.7352
vn -0.8665 -0.0085 -0.4991
vn -0.8234 0.0030 -0.5675
vn -0.9509 -0.0172 -0.3090
vn -0.9116 -0.0028 -0.4111
vn -0.9758 -0.0281 -0.2171
vn -0.9620 -0.0162 -0.2724
vn 0.2065 -0.3964 -0.8945
vn 0.2330 -0.4055 -0.8839
vn 0.2424 -0.4032 -0.8824
vn 0.2776 -0.4098 -0.8689
vn 0.9235 0.0079 0.3836
vn 0.8681 -0.0043 0.4964
vn 0.7899 -0.0013 0.6132
vn 0.7009 0.0027 0.7133
vn 0.6372 -0.0006 0.7707
vn -0.6893 0.4040 0.6014
vn -0.7157 0.3973 0.5743
vn -0.6987 -0.0027 -0.7154
vn -0.6348 0.0003 -0.7727
vn -0.7881 0.0013 -0.6155
vn -0.8670 0.0043 -0.4984
vn -0.9235 -0.0076 -0.3835
vn 0.3134 -0.4081 -0.8575
vn 0.3120 -0.4171 -0.8536
vn 0.8809 0.0041 0.4732
vn 0.8326 -0.0036 0.5539
vn 0.7523 -0.0004 0.6588
vn 0.6571 0.0027 0.7538
vn 0.5892 -0.0011 0.8080
vn -0.7254 0.4032 0.5579
vn -0.7501 0.3965 0.5293
vn -0.6549 -0.0027 -0.7557
vn -0.5867 0.0008 -0.8098
vn -0.7505 0.0004 -0.6609
vn -0.8311 0.0036 -0.5561
vn -0.8799 -0.0038 -0.4751
vn 0.3479 -0.4112 -0.8425
vn 0.3835 -0.4047 -0.8302
vn 0.8461 0.0003 0.5331
vn 0.7988 -0.0036 0.6016
vn 0.7113 0.0004 0.7029
vn 0.6106 0.0036 0.7920
vn 0.5410 0.0006 0.8410
vn -0.7587 0.4024 0.5123
vn -0.7816 0.3957 0.4821
vn -0.6083 -0.0036 -0.7937
vn -0.5386 -0.0009 -0.8426
vn -0.7094 -0.0004 -0.7048
vn -0.7973 0.0036 -0.6036
vn -0.8447 -0.0000 -0.5353
vn 0.3994 -0.4104 -0.8198
vn 0.4342 -0.4038 -0.8053
vn 0.8154 -0.0082 0.5789
vn 0.7625 -0.0140 0.6469
vn 0.6681 -0.0093 0.7440
vn 0.5642 -0.0028 0.8257
vn 0.4929 -0.0052 0.8701
vn -0.7892 0.4017 0.4646
vn -0.8102 0.3950 0.4331
vn -0.5620 0.0028 -0.8271
vn -0.4907 0.0049 -0.8713
vn -0.6662 0.0092 -0.7457
vn -0.7610 0.0140 -0.6486
vn -0.8141 0.0085 -0.5807
vn 0.4496 -0.4089 -0.7942
vn 0.4834 -0.4023 -0.7775
vn 0.7800 -0.0206 0.6255
vn 0.7220 -0.0245 0.6915
vn 0.6255 -0.0213 0.7799
vn 0.5182 -0.0164 0.8551
vn 0.4442 -0.0234 0.8956
vn -0.8168 0.4006 0.4152
vn -0.8358 0.3939 0.3825
vn -0.5164 0.0164 -0.8562
vn -0.4423 0.0231 -0.8966
vn -0.6238 0.0213 -0.7813
vn -0.7205 0.0245 -0.6930
vn -0.7787 0.0209 -0.6271
vn 0.4981 -0.4072 -0.7656
vn 0.5309 -0.4005 -0.7468
vn 0.7383 -0.0174 0.6743
vn 0.6778 -0.0229 0.7349
vn 0.5769 -0.0245 0.8165
vn 0.4652 -0.0261 0.8848
vn 0.3878 -0.0320 0.9212
vn -0.8415 0.3990 0.3643
vn -0.8585 0.3923 0.3304
vn -0.4633 0.0261 -0.8858
vn -0.3858 0.0317 -0.9220
vn -0.5751 0.0245 -0.8177
vn -0.6762 0.0229 -0.7363
vn -0.7368 0.0177 -0.6759
vn 0.5449 -0.4053 -0.7340
vn 0.5765 -0.3987 -0.7132
vn 0.6943 -0.0137 0.7195
vn 0.6298 -0.0205 0.7765
vn 0.5233 -0.0229 0.8518
vn 0.4080 -0.0253 0.9126
vn 0.3300 -0.0320 0.9434
vn -0.8632 0.3969 0.3120
vn -0.8780 0.3902 0.2771
vn -0.4059 0.0253 -0.9136
vn -0.3280 0.0317 -0.9442
vn -0.5214 0.0229 -0.8530
vn -0.6280 0.0205 -0.7780
vn -0.6927 0.0140 -0.7211
vn 0.5897 -0.4036 -0.6996
vn 0.6199 -0.3969 -0.6769
vn 0.6467 -0.0159 0.7626
vn 0.5790 -0.0230 0.8150
vn 0.4680 -0.0238 0.8834
vn 0.3496 -0.0254 0.9366
vn 0.2698 -0.0325 0.9624
vn -0.8817 0.3949 0.2584
vn -0.8943 0.3881 0.2226
vn -0.3474 0.0254 -0.9374
vn -0.2676 0.0322 -0.9630
vn -0.4659 0.0238 -0.8845
vn -0.5771 0.0230 -0.8164
vn -0.6448 0.0162 -0.7642
vn 0.6323 -0.4018 -0.6624
vn 0.6611 -0.3951 -0.6378
vn 0.5973 -0.0133 0.8019
vn 0.5260 -0.0190 0.8503
vn 0.4103 -0.0238 0.9116
vn 0.2898 -0.0270 0.9567
vn 0.2097 -0.0325 0.9772
vn -0.8968 0.3928 0.2037
vn -0.9072 0.3861 0.1671
vn -0.2874 0.0270 -0.9574
vn -0.2075 0.0322 -0.9777
vn -0.4079 0.0238 -0.9127
vn -0.5238 0.0190 -0.8516
vn -0.5953 0.0136 -0.8034
vn 0.6725 -0.4001 -0.6226
vn 0.6997 -0.3934 -0.5963
vn 0.5407 -0.0016 0.8412
vn 0.4669 -0.0086 0.8843
vn 0.3493 -0.0134 0.9369
vn 0.2306 -0.0181 0.9729
vn 0.1639 -0.0185 0.9863
vn -0.9082 0.3915 0.1480
vn -0.9164 0.3847 0.1109
vn -0.2282 0.0181 -0.9735
vn -0.1626 0.0182 -0.9865
vn -0.3466 0.0134 -0.9379
vn -0.4642 0.0086 -0.8857
vn -0.5382 0.0019 -0.8428
vn 0.7101 -0.3987 -0.5803
vn 0.7357 -0.3920 -0.5523
vn 0.4866 0.0054 0.8736
vn 0.4097 0.0003 0.9122
vn 0.2873 -0.0021 0.9578
vn 0.1833 -0.0023 0.9831
vn 0.1238 -0.0050 0.9923
vn -0.9189 0.3876 0.0729
vn -0.9233 0.3771 0.0733
vn -0.1817 0.0023 -0.9834
vn -0.1238 0.0047 -0.9923
vn -0.2843 0.0021 -0.9587
vn -0.4068 -0.0003 -0.9135
vn -0.4839 -0.0051 -0.8751
vn 0.7450 -0.3976 -0.5357
vn 0.7688 -0.3908 -0.5061
vn 0.4420 -0.0012 0.8970
vn 0.3502 -0.0053 0.9367
vn 0.2337 -0.0018 0.9723
vn 0.1385 -0.0014 0.9904
vn 0.0828 -0.0150 0.9965
vn -0.9208 0.3875 0.0445
vn -0.9175 0.3974 0.0160
vn -0.1380 0.0011 -0.9904
vn -0.0828 0.0141 -0.9965
vn -0.2311 0.0015 -0.9729
vn -0.3472 0.0050 -0.9378
vn -0.4392 0.0012 -0.8984
vn 0.7730 -0.3937 -0.4975
vn 0.7915 -0.3839 -0.4756
vn 0.0000 1.0000 0.0000
vn 0.0000 -1.0000 0.0000
vn 0.0000 0.0000 -1.0000
vn -0.9443 -0.1392 0.2982
vn 0.0000 0.0000 1.0000
vn 0.9443 -0.1392 0.2982
s off
f 1/1/1 2/2/2 11/3/3
f 2/2/2 12/4/4 11/3/3
f 2/2/2 3/5/5 12/4/4
f 3/5/5 13/6/6 12/4/4
f 3/5/5 4/7/7 13/6/6
f 4/7/7 14/8/8 13/6/6
f 4/7/7 5/9/9 14/8/8
f 5/9/9 15/10/10 14/8/8
f 5/11/11 6/12/12 15/13/13
f 6/12/12 16/14/14 15/13/13
f 6/15/15 7/16/16 17/17/17
f 6/15/15 17/17/17 16/18/18
f 7/16/16 8/19/19 18/20/20
f 7/16/16 18/20/20 17/17/17
f 8/19/19 9/21/21 19/22/22
f 8/19/19 19/22/22 18/20/20
f 9/21/21 10/23/23 20/24/24
f 9/21/21 20/24/24 19/22/22
f 10/25/25 1/26/26 20/27/27
f 1/26/26 11/28/28 20/27/27
f 11/3/3 12/4/4 21/29/29
f 12/4/4 22/30/30 21/29/29
f 12/4/4 13/6/6 22/30/30
f 13/6/6 23/31/31 22/30/30
f 13/6/6 14/8/8 23/31/31
f 14/8/8 24/32/32 23/31/31
f 14/8/8 15/10/10 24/32/32
f 15/10/10 25/33/33 24/32/32
f 15/13/13 16/14/14 25/34/34
f 16/14/14 26/35/35 25/34/34
f 16/18/18 17/17/17 27/36/36
f 16/18/18 27/36/36 26/37/37
f 17/17/17 18/20/20 28/38/38
f 17/17/17 28/38/38 27/36/36
f 18/20/20 19/22/22 29/39/39
f 18/20/20 29/39/39 28/38/38
f 19/22/22 20/24/24 30/40/40
f 19/22/22 30/40/40 29/39/39
f 20/27/27 11/28/28 30/41/41
f 11/28/28 21/42/42 30/41/41
f 21/29/29 22/30/30 31/43/43
f 22/30/30 32/44/44 31/43/43
f 22/30/30 23/31/31 32/44/44
f 23/31/31 33/45/45 32/44/44
f 23/31/31 24/32/32 33/45/45
f 24/32/32 34/46/46 33/45/45
f 24/32/32 25/33/33 34/46/46
f 25/33/33 35/47/47 34/46/46
f 25/34/34 26/35/35 35/48/48
f 26/35/35 36/49/49 35/48/48
f 26/37/37 27/36/36 37/50/50
f 26/51/37 37/52/50 36/53/51
f 27/36/36 28/38/38 38/54/52
f 27/36/36 38/54/52 37/50/50
f 28/38/38 29/39/39 39/55/53
f 28/38/38 39/55/53 38/54/52
f 29/39/39 30/40/40 40/56/54
f 29/39/39 40/56/54 39/55/53
f 30/41/41 21/42/42 31/57/55
f 30/41/41 31/57/55 40/58/56
f 31/43/43 32/44/44 41/59/57
f 32/44/44 42/60/58 41/59/57
f 32/44/44 33/45/45 42/60/58
f 33/45/45 43/61/59 42/60/58
f 33/45/45 34/46/46 43/61/59
f 34/46/46 44/62/60 43/61/59
f 34/46/46 35/47/47 44/62/60
f 35/47/47 45/63/61 44/62/60
f 35/48/48 36/49/49 45/64/62
f 36/49/49 46/65/63 45/64/62
f 36/53/51 37/52/50 47/66/64
f 36/53/51 47/66/64 46/67/65
f 37/50/50 38/54/52 48/68/66
f 37/50/50 48/68/66 47/69/64
f 38/54/52 39/55/53 49/70/67
f 38/54/52 49/70/67 48/68/66
f 39/55/53 40/56/54 50/71/68
f 39/55/53 50/71/68 49/70/67
f 40/58/56 31/57/55 41/72/69
f 40/58/56 41/72/69 50/73/70
f 41/59/57 42/60/58 51/74/71
f 42/60/58 52/75/72 51/74/71
f 42/60/58 43/61/59 52/75/72
f 43/61/59 53/76/73 52/75/72
f 43/61/59 44/62/60 53/76/73
f 44/62/60 54/77/74 53/76/73
f 44/62/60 45/63/61 54/77/74
f 45/78/61 55/79/75 54/80/74
f 45/64/62 46/65/63 55/81/76
f 46/65/63 56/82/77 55/81/76
f 46/67/65 47/66/64 57/83/78
f 46/67/65 57/83/78 56/84/79
f 47/69/64 48/68/66 58/85/80
f 47/66/64 58/86/80 57/83/78
f 48/68/66 49/70/67 59/87/81
f 48/68/66 59/87/81 58/85/80
f 49/70/67 50/71/68 60/88/82
f 49/70/67 60/88/82 59/87/81
f 50/73/70 41/72/69 51/89/83
f 50/73/70 51/89/83 60/90/84
f 51/74/71 52/75/72 61/91/85
f 52/75/72 62/92/86 61/91/85
f 52/75/72 53/76/73 62/92/86
f 53/76/73 63/93/87 62/92/86
f 53/76/73 54/77/74 63/93/87
f 54/77/74 64/94/88 63/93/87
f 54/80/74 55/79/75 64/95/88
f 55/79/75 65/96/89 64/95/88
f 55/81/76 56/82/77 65/97/90
f 56/82/77 66/98/91 65/97/90
f 56/84/79 57/83/78 67/99/92
f 56/84/79 67/99/92 66/100/93
f 57/83/78 58/86/80 68/101/94
f 57/83/78 68/101/94 67/99/92
f 58/85/80 59/87/81 69/102/95
f 58/85/80 69/102/95 68/103/94
f 59/87/81 60/88/82 70/104/96
f 59/87/81 70/104/96 69/102/95
f 60/90/84 51/89/83 61/105/97
f 60/90/84 61/105/97 70/106/98
f 61/91/85 62/92/86 71/107/99
f 62/92/86 72/108/100 71/107/99
f 62/92/86 63/93/87 72/108/100
f 63/93/87 73/109/101 72/108/100
f 63/93/87 64/94/88 73/109/101
f 64/95/88 74/110/102 73/111/101
f 64/95/88 65/96/89 74/110/102
f 65/96/89 75/112/103 74/110/102
f 65/97/90 66/98/91 75/113/104
f 66/98/91 76/114/105 75/113/104
f 66/100/93 67/99/92 77/115/106
f 66/100/93 77/115/106 76/116/107
f 67/99/92 68/101/94 78/117/108
f 67/99/92 78/117/108 77/115/106
f 68/103/94 69/102/95 79/118/109
f 68/101/94 79/119/109 78/117/108
f 69/102/95 70/104/96 80/120/110
f 69/102/95 80/120/110 79/118/109
f 70/106/98 61/105/97 71/121/111
f 70/106/98 71/121/111 80/122/112
f 71/107/99 72/108/100 81/123/113
f 72/108/100 82/124/114 81/123/113
f 72/108/100 73/109/101 82/124/114
f 73/109/101 83/125/115 82/124/114
f 73/111/101 74/110/102 83/126/115
f 74/110/102 84/127/116 83/126/115
f 74/110/102 75/112/103 84/127/116
f 75/112/103 85/128/117 84/127/116
f 75/113/104 76/114/105 85/129/118
f 76/114/105 86/130/119 85/129/118
f 76/116/107 77/115/106 87/131/120
f 76/116/107 87/131/120 86/132/121
f 77/115/106 78/117/108 88/133/122
f 77/115/106 88/133/122 87/131/120
f 78/117/108 79/119/109 89/134/123
f 78/117/108 89/134/123 88/133/122
f 79/118/109 80/120/110 90/135/124
f 79/118/109 90/135/124 89/136/123
f 80/122/112 71/121/111 81/137/125
f 80/122/112 81/137/125 90/138/126
f 81/123/113 82/124/114 91/139/127
f 82/124/114 92/140/128 91/139/127
f 82/124/114 83/125/115 92/140/128
f 83/126/115 93/141/129 92/142/128
f 83/126/115 84/127/116 93/141/129
f 84/127/116 94/143/130 93/141/129
f 84/127/116 85/128/117 94/143/130
f 85/128/117 95/144/131 94/143/130
f 85/129/118 86/130/119 95/145/132
f 86/130/119 96/146/133 95/145/132
f 86/132/121 87/131/120 97/147/134
f 86/132/121 97/147/134 96/148/135
f 87/131/120 88/133/122 98/149/136
f 87/131/120 98/149/136 97/147/134
f 88/133/122 89/134/123 99/150/137
f 88/133/122 99/150/137 98/149/136
f 89/136/123 90/135/124 100/151/138
f 89/134/123 100/152/138 99/150/137
f 90/138/126 81/137/125 91/153/139
f 90/138/126 91/153/139 100/154/140
f 91/139/127 92/140/128 101/155/141
f 92/140/128 102/156/142 101/155/141
f 92/142/128 93/141/129 102/157/142
f 93/141/129 103/158/143 102/157/142
f 93/141/129 94/143/130 103/158/143
f 94/143/130 104/159/144 103/158/143
f 94/143/130 95/144/131 104/159/144
f 95/144/131 105/160/145 104/159/144
f 95/145/132 96/146/133 105/161/146
f 96/146/133 106/162/147 105/161/146
f 96/148/135 97/147/134 107/163/148
f 96/148/135 107/163/148 106/164/149
f 97/147/134 98/149/136 108/165/150
f 97/147/134 108/165/150 107/163/148
f 98/149/136 99/150/137 109/166/151
f 98/149/136 109/166/151 108/165/150
f 99/150/137 100/152/138 110/167/152
f 99/150/137 110/167/152 109/166/151
f 100/154/140 91/153/139 101/168/153
f 100/154/140 101/168/153 110/169/154
f 101/155/141 102/156/142 111/170/155
f 102/157/142 112/171/156 111/172/155
f 102/157/142 103/158/143 112/171/156
f 103/158/143 113/173/157 112/171/156
f 103/158/143 104/159/144 113/173/157
f 104/159/144 114/174/158 113/173/157
f 104/159/144 105/160/145 114/174/158
f 105/160/145 115/175/159 114/174/158
f 105/161/146 106/162/147 115/176/160
f 106/177/147 116/178/161 115/179/160
f 106/164/149 107/163/148 117/180/162
f 106/164/149 117/180/162 116/181/163
f 107/163/148 108/165/150 118/182/164
f 107/163/148 118/182/164 117/180/162
f 108/165/150 109/166/151 119/183/165
f 108/165/150 119/183/165 118/182/164
f 109/166/151 110/167/152 120/184/166
f 109/166/151 120/184/166 119/183/165
f 110/169/154 101/168/153 111/185/167
f 110/169/154 111/185/167 120/186/168
f 111/172/155 112/171/156 121/187/169
f 112/171/156 122/188/170 121/187/169
f 112/171/156 113/173/157 122/188/170
f 113/173/157 123/189/171 122/188/170
f 113/173/157 114/174/158 123/189/171
f 114/174/158 124/190/172 123/189/171
f 114/174/158 115/175/159 124/190/172
f 115/175/159 125/191/173 124/190/172
f 115/179/160 116/178/161 125/192/174
f 116/178/161 126/193/175 125/192/174
f 116/181/163 117/180/162 127/194/176
f 116/181/163 127/194/176 126/195/177
f 117/180/162 118/182/164 128/196/178
f 117/180/162 128/196/178 127/194/176
f 118/182/164 119/183/165 129/197/179
f 118/182/164 129/197/179 128/196/178
f 119/183/165 120/184/166 130/198/180
f 119/183/165 130/198/180 129/197/179
f 120/186/168 111/185/167 121/199/181
f 120/186/168 121/199/181 130/200/182
f 121/187/169 122/188/170 131/201/183
f 122/188/170 132/202/184 131/201/183
f 122/188/170 123/189/171 132/202/184
f 123/189/171 133/203/185 132/202/184
f 123/189/171 124/190/172 133/203/185
f 124/190/172 134/204/186 133/203/185
f 124/190/172 125/191/173 134/204/186
f 125/191/173 135/205/187 134/204/186
f 125/192/174 126/193/175 136/206/188
f 125/192/174 136/206/188 135/207/189
f 126/195/177 127/194/176 137/208/190
f 126/209/177 137/210/190 136/211/191
f 127/194/176 128/196/178 138/212/192
f 127/194/176 138/212/192 137/208/190
f 128/196/178 129/197/179 139/213/193
f 128/196/178 139/213/193 138/212/192
f 129/197/179 130/198/180 140/214/194
f 129/197/179 140/214/194 139/213/193
f 130/200/182 121/199/181 131/215/195
f 130/216/182 131/217/195 140/218/196
f 9/219/197 1/220/197 10/221/197
f 9/219/197 2/222/197 1/220/197
f 9/219/197 3/223/197 2/222/197
f 8/224/197 3/223/197 9/219/197
f 8/224/197 4/225/197 3/223/197
f 7/226/197 4/225/197 8/224/197
f 7/226/197 5/227/197 4/225/197
f 5/227/197 7/226/197 6/228/197
f 140/229/198 131/230/198 132/231/198
f 139/232/198 140/229/198 132/231/198
f 139/232/198 132/231/198 133/233/198
f 138/234/198 139/232/198 133/233/198
f 138/234/198 133/233/198 134/235/198
f 137/236/198 138/234/198 134/235/198
f 134/235/198 135/237/198 136/238/198
f 134/235/198 136/238/198 137/236/198
f 141/239/199 146/240/199 142/241/199
f 141/239/199 145/242/199 146/240/199
f 142/243/200 146/244/200 143/245/200
f 143/245/200 146/244/200 147/246/200
f 143/247/201 148/248/201 144/249/201
f 143/247/201 147/250/201 148/248/201
f 144/251/202 145/252/202 141/253/202
f 144/251/202 148/254/202 145/252/202
f 144/255/197 141/256/197 142/257/197
f 142/257/197 143/258/197 144/255/197
f 148/259/198 146/260/198 145/261/198
f 146/260/198 148/259/198 147/262/198
