# mech2 arm R, segment Ring1, colour White #F2F2F2
# arm space (origin = shoulder centre, studs); segment pivot [0.36, -7.87, 0.16]
# bbox centre [0.3541, -8.1355, 0.16] (Roblox recentres on import: place at armCF * CFrame.new(centre))
o Mech2Arm_R_Ring1_White
v 0.30511 -7.82401 0.25360
v 0.25677 -7.81893 0.23488
v 0.25677 -7.81893 0.08512
v 0.30511 -7.82401 0.06640
v 0.41251 -7.83530 0.06640
v 0.51137 -7.84569 0.11788
v 0.51137 -7.84569 0.20212
v 0.41251 -7.83530 0.25360
v 0.27273 -7.91110 0.29000
v 0.20560 -7.90405 0.26400
v 0.20560 -7.90405 0.05600
v 0.27273 -7.91110 0.03000
v 0.42190 -7.92678 0.03000
v 0.54373 -7.93959 0.10150
v 0.54373 -7.93959 0.21850
v 0.42190 -7.92678 0.29000
v 0.22897 -8.35898 0.28480
v 0.16452 -8.35221 0.25984
v 0.16452 -8.35221 0.06016
v 0.22897 -8.35898 0.03520
v 0.37218 -8.37403 0.03520
v 0.49073 -8.38649 0.10384
v 0.49073 -8.38649 0.21616
v 0.37218 -8.37403 0.28480
v 0.24299 -8.43084 0.25100
v 0.19599 -8.42590 0.23280
v 0.19599 -8.42590 0.08720
v 0.24299 -8.43084 0.06900
v 0.34741 -8.44182 0.06900
v 0.44462 -8.45203 0.11905
v 0.44462 -8.45203 0.20095
v 0.34741 -8.44182 0.25100
vt 0.07638 1.95514
vt 0.06429 1.95393
vt 0.06830 1.97681
vt 0.05151 1.97512
vt 0.05872 1.93829
vt 0.02128 1.93829
vt 0.01400 1.96075
vt 0.06600 1.96075
vt -0.06419 1.95485
vt -0.07628 1.95606
vt -0.06820 1.97773
vt -0.05141 1.97604
vt -0.10314 1.95889
vt -0.10549 1.98165
vt -0.46556 1.79946
vt -0.49341 1.79687
vt -0.46784 1.82407
vt -0.50307 1.82010
vt -0.02947 1.93607
vt -0.05053 1.93607
vt -0.05462 1.95853
vt -0.02538 1.95853
vt 0.45765 1.82786
vt 0.42979 1.83045
vt 0.43207 1.85506
vt 0.46730 1.85109
vt 0.10323 1.95797
vt 0.10559 1.98073
vt 0.04124 2.08717
vt 0.05736 2.08879
vt 0.01504 2.07326
vt 0.06496 2.07326
vt -0.04114 2.08809
vt -0.05726 2.08971
vt -0.09306 2.09347
vt -0.13593 1.98506
vt -0.12268 2.09678
vt -0.05404 2.07104
vt -0.02596 2.07104
vt 0.13603 1.98414
vt 0.12278 2.09586
vt 0.09316 2.09255
vt 0.44513 1.79072
vt 0.42784 1.79228
vt 0.43628 1.81167
vt 0.44889 1.81053
vt 0.02180 2.09079
vt 0.05820 2.09079
vt -0.40248 1.83123
vt -0.41977 1.82967
vt -0.41092 1.85061
vt -0.42353 1.84948
vt -0.06075 2.10777
vt -0.08686 2.11051
vt 0.33272 1.77987
vt 0.30041 1.79160
vt 0.31314 1.80751
vt 0.33914 1.79871
vt -0.05024 2.08858
vt -0.02976 2.08858
vt -0.32618 1.74920
vt -0.35850 1.73746
vt -0.33892 1.76511
vt -0.36491 1.75631
vt 0.06085 2.10685
vt 0.08696 2.10959
vt -0.30732 0.01660
vt -0.33217 0.05053
vt -0.33217 0.02947
vt -0.30732 0.06340
vt -0.28032 0.01660
vt -0.28032 0.06340
vt -0.26817 0.02128
vt -0.26817 0.05872
vt -0.30698 -0.01725
vt -0.33142 -0.02976
vt -0.33142 -0.05024
vt -0.30698 -0.06275
vt -0.28073 -0.06275
vt -0.28073 -0.01725
vt -0.26892 -0.05820
vt -0.26892 -0.02180
vn -0.0155 0.3905 0.9205
vn -0.2791 0.4568 0.8446
vn -0.2920 0.1430 0.9457
vn -0.3497 0.1041 0.9311
vn -0.8570 0.5153 0.0000
vn -0.9772 0.2122 0.0000
vn -0.9908 0.1354 0.0000
vn -0.2791 0.4568 -0.8446
vn -0.0155 0.3905 -0.9205
vn -0.2920 0.1430 -0.9457
vn -0.3497 0.1041 -0.9311
vn 0.2614 0.3799 -0.8873
vn 0.0726 0.0917 -0.9931
vn -0.0322 0.1119 -0.9932
vn 0.4849 0.3388 -0.8063
vn 0.4445 0.0566 -0.8940
vn 0.5064 0.0031 -0.8623
vn 0.9454 0.3258 0.0000
vn 1.0000 0.0044 0.0000
vn 0.9973 -0.0736 0.0000
vn 0.4849 0.3388 0.8063
vn 0.2614 0.3799 0.8873
vn 0.4445 0.0566 0.8940
vn 0.5064 0.0031 0.8623
vn 0.0726 0.0917 0.9931
vn -0.0322 0.1119 0.9932
vn -0.1886 0.0458 0.9810
vn -0.3624 -0.0143 0.9319
vn -0.0875 -0.0302 0.9957
vn -0.9986 0.0529 0.0000
vn -0.9997 -0.0232 0.0000
vn -0.1886 0.0458 -0.9810
vn -0.3624 -0.0143 -0.9319
vn -0.0875 -0.0302 -0.9957
vn -0.1573 0.0435 -0.9866
vn 0.1487 0.0179 -0.9887
vn -0.0691 -0.0326 -0.9971
vn 0.2124 -0.0941 -0.9726
vn 0.5012 0.0019 -0.8653
vn 0.4935 -0.0965 -0.8644
vn 0.2741 -0.0045 -0.9617
vn 0.2715 -0.1022 -0.9570
vn 0.9878 -0.1559 0.0000
vn 0.9731 -0.2305 0.0000
vn 0.5012 0.0019 0.8653
vn 0.4935 -0.0965 0.8644
vn 0.2741 -0.0045 0.9617
vn 0.2715 -0.1022 0.9570
vn 0.1487 0.0179 0.9887
vn -0.1573 0.0435 0.9866
vn -0.0691 -0.0326 0.9971
vn 0.2124 -0.0941 0.9726
vn -0.3032 -0.1684 0.9379
vn -0.3629 -0.4536 0.8139
vn -0.1013 -0.4396 0.8925
vn -0.9197 -0.3927 0.0000
vn -0.3032 -0.1684 -0.9379
vn -0.3629 -0.4536 -0.8139
vn -0.1013 -0.4396 -0.8925
vn -0.0277 -0.0712 -0.9971
vn 0.0644 -0.1872 -0.9802
vn 0.1618 -0.4871 -0.8582
vn 0.3849 -0.2271 -0.8946
vn 0.3799 -0.4903 -0.7844
vn 0.8179 -0.5753 0.0000
vn 0.3849 -0.2271 0.8946
vn 0.3799 -0.4903 0.7844
vn 0.1618 -0.4871 0.8582
vn 0.0644 -0.1872 0.9802
vn -0.0277 -0.0712 0.9971
vn 0.1045 0.9945 0.0000
vn -0.1045 -0.9945 0.0000
s off
f 1/1/1 2/2/2 9/3/3
f 2/2/2 10/4/4 9/3/3
f 2/5/5 3/6/5 11/7/6
f 2/5/5 11/7/6 10/8/7
f 3/9/8 4/10/9 12/11/10
f 3/9/8 12/11/10 11/12/11
f 4/10/9 5/13/12 13/14/13
f 4/10/9 13/14/13 12/11/14
f 5/15/12 6/16/15 13/17/16
f 6/16/15 14/18/17 13/17/16
f 6/19/18 7/20/18 15/21/19
f 6/19/18 15/21/19 14/22/20
f 7/23/21 8/24/22 16/25/23
f 7/23/21 16/25/23 15/26/24
f 8/27/22 1/1/1 16/28/25
f 1/1/1 9/3/26 16/28/25
f 9/3/27 10/4/4 18/29/28
f 9/3/27 18/29/28 17/30/29
f 10/8/7 11/7/6 19/31/30
f 10/8/7 19/31/30 18/32/31
f 11/12/11 12/11/32 19/33/33
f 12/11/32 20/34/34 19/33/33
f 12/11/35 13/14/36 20/34/37
f 13/14/36 21/35/38 20/34/37
f 13/14/39 14/36/17 22/37/40
f 13/14/41 22/37/40 21/35/42
f 14/22/20 15/21/19 23/38/43
f 14/22/20 23/38/43 22/39/44
f 15/40/24 16/28/45 23/41/46
f 16/28/47 24/42/48 23/41/46
f 16/28/49 9/3/50 17/30/51
f 16/28/49 17/30/51 24/42/52
f 17/43/53 18/44/28 26/45/54
f 17/43/53 26/45/54 25/46/55
f 18/32/31 19/31/30 27/47/56
f 18/32/31 27/47/56 26/48/56
f 19/49/33 20/50/57 27/51/58
f 20/50/57 28/52/59 27/51/58
f 20/34/60 21/35/61 28/53/59
f 21/35/61 29/54/62 28/53/59
f 21/55/63 22/56/40 30/57/64
f 21/55/63 30/57/64 29/58/62
f 22/39/44 23/38/43 31/59/65
f 22/39/44 31/59/65 30/60/65
f 23/61/46 24/62/66 31/63/67
f 24/62/66 32/64/68 31/63/67
f 24/42/69 17/30/70 25/65/55
f 24/42/69 25/65/55 32/66/68
f 5/67/71 7/68/71 6/69/71
f 5/67/71 8/70/71 7/68/71
f 4/71/71 8/70/71 5/67/71
f 4/71/71 1/72/71 8/70/71
f 3/73/71 1/72/71 4/71/71
f 1/72/71 3/73/71 2/74/71
f 29/75/72 30/76/72 31/77/72
f 29/75/72 31/77/72 32/78/72
f 29/75/72 32/78/72 25/79/72
f 28/80/72 29/75/72 25/79/72
f 28/80/72 25/79/72 26/81/72
f 26/81/72 27/82/72 28/80/72
