# mech2 arm R, segment Middle3, colour White #F2F2F2
# arm space (origin = shoulder centre, studs); segment pivot [-0.03762668867277147, -8.82426628716054, -0.16]
# bbox centre [-0.1641, -8.9173, -0.16] (Roblox recentres on import: place at armCF * CFrame.new(centre))
o Mech2Arm_R_Middle3_White
v -0.03893 -8.75267 -0.06640
v -0.06681 -8.71285 -0.08512
v -0.06681 -8.71285 -0.23488
v -0.03893 -8.75267 -0.25360
v 0.02302 -8.84113 -0.25360
v 0.08003 -8.92256 -0.20212
v 0.08003 -8.92256 -0.11788
v 0.02302 -8.84113 -0.06640
v -0.12590 -8.78537 -0.03000
v -0.16462 -8.73007 -0.05600
v -0.16462 -8.73007 -0.26400
v -0.12590 -8.78537 -0.29000
v -0.03987 -8.90824 -0.29000
v 0.03040 -9.00858 -0.21850
v 0.03040 -9.00858 -0.10150
v -0.03987 -8.90824 -0.03000
v -0.26279 -8.88625 -0.03650
v -0.29957 -8.83372 -0.06120
v -0.29957 -8.83372 -0.25880
v -0.26279 -8.88625 -0.28350
v -0.18106 -9.00298 -0.28350
v -0.11316 -9.09995 -0.21558
v -0.11316 -9.09995 -0.10443
v -0.18106 -9.00298 -0.03650
v -0.34926 -8.97198 -0.06900
v -0.37636 -8.93327 -0.08720
v -0.37636 -8.93327 -0.23280
v -0.34926 -8.97198 -0.25100
v -0.28904 -9.05799 -0.25100
v -0.24444 -9.12168 -0.20095
v -0.24444 -9.12168 -0.11905
v -0.28904 -9.05799 -0.06900
v -0.40831 -8.99226 -0.16000
vt 0.17559 1.86426
vt 0.16852 1.85333
vt 0.15355 1.87597
vt 0.14375 1.86077
vt 1.32398 -0.02128
vt 1.32398 -0.05872
vt 1.34610 -0.06600
vt 1.34610 -0.01400
vt -0.15746 1.89470
vt -0.16452 1.90564
vt -0.14249 1.91734
vt -0.13268 1.90215
vt 0.00868 2.17818
vt -0.00681 2.20024
vt 0.00886 2.21633
vt 0.03038 2.18569
vt 0.25366 2.16486
vt 0.23677 2.18716
vt 0.27337 2.17978
vt 0.25141 2.20761
vt 1.16122 0.05053
vt 1.16122 0.02947
vt 1.18311 0.02538
vt 1.18311 0.05462
vt -0.19158 2.20120
vt -0.20847 2.17890
vt -0.22818 2.19382
vt -0.20622 2.22165
vt 0.00643 2.20591
vt -0.00906 2.18384
vt -0.00924 2.22200
vt -0.03076 2.19135
vt -0.04048 2.17803
vt -0.07421 2.20397
vt -0.06498 2.21663
vt 1.38864 -0.06470
vt 1.38864 -0.01530
vt 0.04009 2.17236
vt 0.07383 2.19830
vt 0.06460 2.21096
vt 0.04415 2.24007
vt -0.00863 2.24262
vt 0.02725 2.26545
vt 1.22565 0.02611
vt 1.22565 0.05389
vt 0.00825 2.24829
vt -0.02764 2.27112
vt -0.04454 2.24574
vt -0.09343 2.22925
vt -0.08663 2.23858
vt 1.41894 -0.05820
vt 1.41894 -0.02180
vt 0.09305 2.22358
vt 0.08625 2.23291
vt 0.07118 2.25436
vt 0.08020 1.79212
vt 0.06324 1.82171
vt 0.09605 1.82826
vt 0.10722 1.80803
vt 1.25639 0.02976
vt 1.25639 0.05024
vt -0.06157 1.86813
vt -0.07853 1.83853
vt -0.09438 1.87467
vt -0.10555 1.85444
vt -0.07157 2.26003
vt 0.06340 1.81386
vt 0.02947 1.83871
vt 0.05053 1.83871
vt 0.01660 1.81386
vt 0.06340 1.78686
vt 0.01660 1.78686
vt 0.02128 1.77471
vt 0.05872 1.77471
vt -0.71692 1.88756
vt -0.68951 1.89065
vt -0.69381 1.87888
vt 1.43420 -0.04000
vt 0.65054 1.88756
vt 0.62743 1.87888
vt 0.62312 1.89065
vt 0.62194 1.91682
vt -1.38785 0.04000
vt -1.42117 0.06275
vt -1.44000 0.05024
vt -1.44000 0.02976
vt -1.42117 0.01725
vt -0.68833 1.91682
vn 0.2845 0.2678 0.9205
vn 0.1616 0.5103 0.8446
vn 0.0134 0.3245 0.9458
vn -0.0959 0.3678 0.9250
vn -0.1734 0.9849 0.0000
vn -0.4024 0.9155 0.0000
vn -0.5193 0.8546 0.0000
vn 0.1616 0.5103 -0.8446
vn 0.2845 0.2678 -0.9205
vn 0.0134 0.3245 -0.9458
vn -0.0959 0.3678 -0.9250
vn 0.4582 0.0520 -0.8873
vn 0.2139 0.0077 -0.9768
vn 0.1122 0.1757 -0.9780
vn 0.5738 -0.1437 -0.8063
vn 0.3665 -0.2016 -0.9083
vn 0.3782 -0.3468 -0.8583
vn 0.8662 -0.4997 0.0000
vn 0.7226 -0.6912 0.0000
vn 0.6255 -0.7803 0.0000
vn 0.5738 -0.1437 0.8063
vn 0.4582 0.0520 0.8873
vn 0.3665 -0.2016 0.9083
vn 0.3782 -0.3468 0.8583
vn 0.2139 0.0077 0.9768
vn 0.1122 0.1757 0.9780
vn -0.0772 0.2042 0.9759
vn -0.2972 0.2279 0.9272
vn -0.1606 0.0111 0.9869
vn -0.6618 0.7497 0.0000
vn -0.7177 0.6964 0.0000
vn -0.0772 0.2042 -0.9759
vn -0.2972 0.2279 -0.9272
vn -0.1606 0.0111 -0.9869
vn -0.0345 0.1453 -0.9888
vn 0.1270 -0.0610 -0.9900
vn -0.0204 -0.2007 -0.9794
vn 0.3721 -0.3410 -0.8633
vn 0.1887 -0.4742 -0.8600
vn 0.2127 -0.2166 -0.9528
vn 0.0788 -0.3723 -0.9248
vn 0.4409 -0.8975 0.0000
vn 0.3282 -0.9446 0.0000
vn 0.3721 -0.3410 0.8633
vn 0.1887 -0.4742 0.8600
vn 0.2127 -0.2166 0.9528
vn 0.0788 -0.3723 0.9248
vn 0.1270 -0.0610 0.9900
vn -0.0345 0.1453 0.9888
vn -0.0204 -0.2007 0.9794
vn -0.4424 0.1088 0.8902
vn -0.2556 -0.1065 0.9609
vn -0.8095 0.5871 0.0000
vn -0.8247 0.5656 0.0000
vn -0.4424 0.1088 -0.8902
vn -0.2556 -0.1065 -0.9609
vn -0.1039 -0.2146 -0.9712
vn -0.2141 -0.1499 -0.9652
vn -0.0005 -0.3936 -0.9193
vn 0.0256 -0.5800 -0.8142
vn 0.1268 -0.5189 -0.8454
vn 0.0589 -0.5910 -0.8045
vn 0.1633 -0.9866 0.0000
vn -0.0005 -0.3936 0.9193
vn 0.0256 -0.5800 0.8142
vn 0.1268 -0.5189 0.8454
vn 0.0589 -0.5910 0.8045
vn -0.1039 -0.2146 0.9712
vn -0.2141 -0.1499 0.9652
vn 0.8192 0.5736 0.0000
vn -0.6901 -0.5606 0.4578
vn -0.7158 -0.4198 0.5580
vn -0.7765 -0.2777 0.5657
vn -0.8794 0.4762 0.0000
vn -0.6901 -0.5606 -0.4578
vn -0.7765 -0.2777 -0.5657
vn -0.7158 -0.4198 -0.5580
vn -0.6650 -0.6098 -0.4312
vn -0.6859 -0.6623 -0.3014
vn -0.6356 -0.7572 -0.1506
vn -0.6518 -0.7584 -0.0000
vn -0.6356 -0.7572 0.1506
vn -0.6859 -0.6623 0.3014
vn -0.6650 -0.6098 0.4312
s off
f 1/1/1 2/2/2 9/3/3
f 2/2/2 10/4/4 9/3/3
f 2/5/5 3/6/5 11/7/6
f 2/5/5 11/7/6 10/8/7
f 3/9/8 4/10/9 12/11/10
f 3/9/8 12/11/10 11/12/11
f 4/13/9 5/14/12 13/15/13
f 4/13/9 13/15/13 12/16/14
f 5/17/12 6/18/15 13/19/16
f 6/18/15 14/20/17 13/19/16
f 6/21/18 7/22/18 15/23/19
f 6/21/18 15/23/19 14/24/20
f 7/25/21 8/26/22 16/27/23
f 7/25/21 16/27/23 15/28/24
f 8/29/22 1/30/1 16/31/25
f 1/30/1 9/32/26 16/31/25
f 9/32/27 10/33/4 18/34/28
f 9/32/27 18/34/28 17/35/29
f 10/8/7 11/7/6 19/36/30
f 10/8/7 19/36/30 18/37/31
f 11/38/11 12/16/32 19/39/33
f 12/16/32 20/40/34 19/39/33
f 12/16/35 13/15/36 20/40/34
f 13/15/36 21/41/37 20/40/34
f 13/15/38 14/42/17 22/43/39
f 13/15/40 22/43/39 21/41/41
f 14/24/20 15/23/19 23/44/42
f 14/24/20 23/44/42 22/45/43
f 15/46/24 16/31/44 23/47/45
f 16/31/46 24/48/47 23/47/45
f 16/31/48 9/32/49 17/35/29
f 16/31/48 17/35/29 24/48/50
f 17/35/29 18/34/28 26/49/51
f 17/35/29 26/49/51 25/50/52
f 18/37/31 19/36/30 27/51/53
f 18/37/31 27/51/53 26/52/54
f 19/39/33 20/40/34 27/53/55
f 20/40/34 28/54/56 27/53/55
f 20/40/34 21/41/57 28/54/56
f 21/41/57 29/55/58 28/54/56
f 21/56/59 22/57/39 30/58/60
f 21/56/61 30/58/60 29/59/62
f 22/45/43 23/44/42 31/60/63
f 22/45/43 31/60/63 30/61/63
f 23/62/45 24/63/64 31/64/65
f 24/63/66 32/65/67 31/64/65
f 24/48/68 17/35/29 25/50/52
f 24/48/68 25/50/52 32/66/69
f 5/67/70 7/68/70 6/69/70
f 5/67/70 8/70/70 7/68/70
f 4/71/70 8/70/70 5/67/70
f 4/71/70 1/72/70 8/70/70
f 4/71/70 2/73/70 1/72/70
f 2/73/70 4/71/70 3/74/70
f 33/75/71 25/76/72 26/77/73
f 33/78/74 26/52/54 27/51/53
f 33/79/75 27/80/76 28/81/77
f 33/79/75 28/81/77 29/82/78
f 33/83/79 29/84/78 30/85/80
f 33/83/81 30/85/80 31/86/82
f 33/83/83 31/86/82 32/87/84
f 33/75/71 32/88/84 25/76/72
