# mech2 arm R, segment Index2, colour Grey #8A8A8A
# arm space (origin = shoulder centre, studs); segment pivot [0.3202388099658486, -8.4386115086481, -0.48]
# bbox centre [-0.014, -8.837, -0.48] (Roblox recentres on import: place at armCF * CFrame.new(centre))
o Mech2Arm_R_Index2_Grey
v 0.05099 -8.83695 -0.33000
v 0.03858 -8.87516 -0.33000
v 0.00608 -8.89877 -0.33000
v -0.03410 -8.89877 -0.33000
v -0.06660 -8.87516 -0.33000
v -0.07901 -8.83695 -0.33000
v -0.06660 -8.79875 -0.33000
v -0.03410 -8.77514 -0.33000
v 0.00608 -8.77514 -0.33000
v 0.03858 -8.79875 -0.33000
v 0.07099 -8.83695 -0.35000
v 0.05476 -8.88692 -0.35000
v 0.01226 -8.91779 -0.35000
v -0.04028 -8.91779 -0.35000
v -0.08278 -8.88692 -0.35000
v -0.09901 -8.83695 -0.35000
v -0.08278 -8.78699 -0.35000
v -0.04028 -8.75611 -0.35000
v 0.01226 -8.75611 -0.35000
v 0.05476 -8.78699 -0.35000
v 0.07099 -8.83695 -0.61000
v 0.05476 -8.88692 -0.61000
v 0.01226 -8.91779 -0.61000
v -0.04028 -8.91779 -0.61000
v -0.08278 -8.88692 -0.61000
v -0.09901 -8.83695 -0.61000
v -0.08278 -8.78699 -0.61000
v -0.04028 -8.75611 -0.61000
v 0.01226 -8.75611 -0.61000
v 0.05476 -8.78699 -0.61000
v 0.05099 -8.83695 -0.63000
v 0.03858 -8.87516 -0.63000
v 0.00608 -8.89877 -0.63000
v -0.03410 -8.89877 -0.63000
v -0.06660 -8.87516 -0.63000
v -0.07901 -8.83695 -0.63000
v -0.06660 -8.79875 -0.63000
v -0.03410 -8.77514 -0.63000
v 0.00608 -8.77514 -0.63000
v 0.03858 -8.79875 -0.63000
vt 0.06735 2.20924
vt 0.06516 2.21879
vt 0.07155 2.22173
vt 0.07442 2.20924
vt 0.00964 1.69062
vt 0.00152 1.69497
vt 0.00306 1.70185
vt 0.01369 1.69616
vt -0.00852 1.69497
vt -0.01007 1.70185
vt -0.01665 1.69062
vt -0.02069 1.69616
vt -0.07011 2.21879
vt -0.07230 2.20924
vt -0.07650 2.22173
vt -0.07937 2.20924
vt -0.07011 2.19969
vt -0.07650 2.19675
vt -0.01665 1.56499
vt -0.00852 1.56064
vt -0.01007 1.55375
vt -0.02069 1.55944
vt 0.00152 1.56064
vt 0.00306 1.55375
vt 0.00964 1.56499
vt 0.01369 1.55944
vt 0.06516 2.19969
vt 0.07155 2.19675
vt 0.08750 2.09563
vt 0.08750 2.10876
vt 0.15250 2.10876
vt 0.15250 2.09563
vt 1.29483 0.08750
vt 1.30796 0.08750
vt 1.30796 0.15250
vt 1.29483 0.15250
vt -0.00306 0.08750
vt 0.01007 0.08750
vt 0.01007 0.15250
vt -0.00306 0.15250
vt -1.30229 0.08750
vt -1.28916 0.08750
vt -1.28916 0.15250
vt -1.30229 0.15250
vt -0.08750 2.10660
vt -0.08750 2.09346
vt -0.15250 2.09346
vt -0.15250 2.10660
vt -0.08750 2.10876
vt -0.08750 2.09563
vt -0.15250 2.09563
vt -0.15250 2.10876
vt 1.30796 -0.08750
vt 1.29483 -0.08750
vt 1.29483 -0.15250
vt 1.30796 -0.15250
vt 0.01007 -0.08750
vt -0.00306 -0.08750
vt -0.00306 -0.15250
vt 0.01007 -0.15250
vt -1.28916 -0.08750
vt -1.30229 -0.08750
vt -1.30229 -0.15250
vt -1.28916 -0.15250
vt 0.08750 2.09346
vt 0.08750 2.10660
vt 0.15250 2.10660
vt 0.15250 2.09346
vt 0.09528 2.20924
vt 0.09815 2.22173
vt 0.10236 2.20924
vt 0.10455 2.21879
vt -0.01369 1.53390
vt -0.00306 1.53959
vt -0.00964 1.52836
vt -0.00152 1.53270
vt 0.01007 1.53959
vt 0.00852 1.53270
vt 0.02069 1.53390
vt 0.01665 1.52836
vt -0.09320 2.22173
vt -0.09033 2.20924
vt -0.09740 2.20924
vt -0.09960 2.21879
vt -0.09320 2.19675
vt -0.09960 2.19969
vt 0.02069 1.72170
vt 0.01007 1.71602
vt 0.01665 1.72725
vt 0.00852 1.72290
vt -0.00306 1.71602
vt -0.00152 1.72290
vt -0.01369 1.72170
vt -0.00964 1.72725
vt 0.09815 2.19675
vt 0.10455 2.19969
vt -0.01665 2.21879
vt -0.01665 2.19969
vt -0.01975 2.20924
vt -0.00852 2.22469
vt -0.00852 2.19378
vt 0.00152 2.22469
vt 0.00152 2.19378
vt 0.00964 2.21879
vt 0.00964 2.19969
vt 0.01275 2.20924
vt 0.01665 2.21879
vt 0.01975 2.20924
vt 0.01665 2.19969
vt 0.00852 2.22469
vt 0.00852 2.19378
vt -0.00152 2.22469
vt -0.00152 2.19378
vt -0.00964 2.21879
vt -0.00964 2.19969
vt -0.01275 2.20924
vn 0.7071 0.0000 0.7071
vn 0.5165 -0.4871 0.7042
vn 0.6082 -0.3635 0.7057
vn 0.1316 -0.6977 0.7042
vn 0.2784 -0.6515 0.7057
vn -0.2185 -0.6725 0.7071
vn -0.5165 -0.4871 0.7042
vn -0.6082 -0.3635 0.7057
vn -0.7071 -0.0000 0.7071
vn -0.5165 0.4871 0.7042
vn -0.6082 0.3635 0.7057
vn -0.1316 0.6977 0.7042
vn -0.2784 0.6515 0.7057
vn 0.2185 0.6725 0.7071
vn 0.5165 0.4871 0.7042
vn 0.6082 0.3635 0.7057
vn 0.9511 -0.3090 0.0000
vn 0.5878 -0.8090 0.0000
vn 0.0000 -1.0000 0.0000
vn -0.5878 -0.8090 0.0000
vn -0.9511 -0.3090 0.0000
vn -0.9511 0.3090 0.0000
vn -0.5878 0.8090 0.0000
vn 0.0000 1.0000 0.0000
vn 0.5878 0.8090 0.0000
vn 0.9511 0.3090 0.0000
vn 0.7071 0.0000 -0.7071
vn 0.6082 -0.3635 -0.7057
vn 0.5165 -0.4871 -0.7042
vn 0.2185 -0.6725 -0.7071
vn -0.2784 -0.6515 -0.7057
vn -0.1316 -0.6977 -0.7042
vn -0.6082 -0.3635 -0.7057
vn -0.5165 -0.4871 -0.7042
vn -0.7071 -0.0000 -0.7071
vn -0.6082 0.3635 -0.7057
vn -0.5165 0.4871 -0.7042
vn -0.2784 0.6515 -0.7057
vn -0.1316 0.6977 -0.7042
vn 0.2185 0.6725 -0.7071
vn 0.6082 0.3635 -0.7057
vn 0.5165 0.4871 -0.7042
vn 0.0000 0.0000 1.0000
vn 0.0000 0.0000 -1.0000
s off
f 1/1/1 2/2/2 12/3/3
f 1/1/1 12/3/3 11/4/1
f 2/5/2 3/6/4 13/7/5
f 2/5/2 13/7/5 12/8/3
f 3/6/4 4/9/6 14/10/6
f 3/6/4 14/10/6 13/7/5
f 4/9/6 5/11/7 14/10/6
f 5/11/7 15/12/8 14/10/6
f 5/13/7 6/14/9 15/15/8
f 6/14/9 16/16/9 15/15/8
f 6/14/9 7/17/10 17/18/11
f 6/14/9 17/18/11 16/16/9
f 7/19/10 8/20/12 18/21/13
f 7/19/10 18/21/13 17/22/11
f 8/20/12 9/23/14 19/24/14
f 8/20/12 19/24/14 18/21/13
f 9/23/14 10/25/15 19/24/14
f 10/25/15 20/26/16 19/24/14
f 10/27/15 1/1/1 20/28/16
f 1/1/1 11/4/1 20/28/16
f 11/29/17 12/30/17 22/31/17
f 11/29/17 22/31/17 21/32/17
f 12/33/18 13/34/18 23/35/18
f 12/33/18 23/35/18 22/36/18
f 13/37/19 14/38/19 24/39/19
f 13/37/19 24/39/19 23/40/19
f 14/41/20 15/42/20 25/43/20
f 14/41/20 25/43/20 24/44/20
f 15/45/21 16/46/21 26/47/21
f 15/45/21 26/47/21 25/48/21
f 16/49/22 17/50/22 27/51/22
f 16/49/22 27/51/22 26/52/22
f 17/53/23 18/54/23 28/55/23
f 17/53/23 28/55/23 27/56/23
f 18/57/24 19/58/24 29/59/24
f 18/57/24 29/59/24 28/60/24
f 19/61/25 20/62/25 30/63/25
f 19/61/25 30/63/25 29/64/25
f 20/65/26 11/66/26 21/67/26
f 20/65/26 21/67/26 30/68/26
f 21/69/27 22/70/28 31/71/27
f 22/70/28 32/72/29 31/71/27
f 22/73/28 23/74/30 32/75/29
f 23/74/30 33/76/30 32/75/29
f 23/74/30 24/77/31 34/78/32
f 23/74/30 34/78/32 33/76/30
f 24/77/31 25/79/33 35/80/34
f 24/77/31 35/80/34 34/78/32
f 25/81/33 26/82/35 36/83/35
f 25/81/33 36/83/35 35/84/34
f 26/82/35 27/85/36 36/83/35
f 27/85/36 37/86/37 36/83/35
f 27/87/36 28/88/38 37/89/37
f 28/88/38 38/90/39 37/89/37
f 28/88/38 29/91/40 38/90/39
f 29/91/40 39/92/40 38/90/39
f 29/91/40 30/93/41 40/94/42
f 29/91/40 40/94/42 39/92/40
f 30/95/41 21/69/27 31/71/27
f 30/95/41 31/71/27 40/96/42
f 5/97/43 7/98/43 6/99/43
f 4/100/43 7/98/43 5/97/43
f 4/100/43 8/101/43 7/98/43
f 3/102/43 8/101/43 4/100/43
f 3/102/43 9/103/43 8/101/43
f 2/104/43 9/103/43 3/102/43
f 2/104/43 10/105/43 9/103/43
f 1/106/43 10/105/43 2/104/43
f 35/107/44 36/108/44 37/109/44
f 34/110/44 35/107/44 37/109/44
f 34/110/44 37/109/44 38/111/44
f 33/112/44 34/110/44 38/111/44
f 33/112/44 38/111/44 39/113/44
f 32/114/44 33/112/44 39/113/44
f 32/114/44 39/113/44 40/115/44
f 31/116/44 32/114/44 40/115/44
