# Titan_HeadMain - BRZ-01 Titan head/collar mesh (assets/meshes/head/source/build.py)
# units: studs (Scale 1.7), +Y up, face toward -Z, centred on the bounding box
# weld to bone 'Head' (MechHead) at bone.CFrame * CFrame.new(0.0000, 0.5957, -0.2596) * ImportRotation
# size 2.5786 x 3.8842 x 3.4628, role main
o Titan_HeadMain
v -0.81600 -0.35088 -0.73589
v 0.81600 -0.35088 -0.73589
v 1.19952 -0.35088 -0.73589
v 1.19952 -0.35088 1.12459
v 1.16101 -0.35088 1.31820
v 1.05134 -0.35088 1.48233
v 0.88721 -0.35088 1.59200
v 0.69360 -0.35088 1.63051
v -0.69360 -0.35088 1.63051
v -0.88721 -0.35088 1.59200
v -1.05134 -0.35088 1.48233
v -1.16101 -0.35088 1.31820
v -1.19952 -0.35088 1.12459
v -1.19952 -0.35088 -0.73589
v -0.81600 0.36720 -0.73589
v 0.81600 0.36720 -0.73589
v 1.22400 0.36720 -0.73589
v 1.22400 0.36720 1.18987
v 1.18549 0.36720 1.38348
v 1.07582 0.36720 1.54761
v 0.91169 0.36720 1.65728
v 0.71808 0.36720 1.69579
v -0.71808 0.36720 1.69579
v -0.91169 0.36720 1.65728
v -1.07582 0.36720 1.54761
v -1.18549 0.36720 1.38348
v -1.22400 0.36720 1.18987
v -1.22400 0.36720 -0.73589
v -0.81600 0.66096 -1.45397
v 0.81600 0.66096 -1.45397
v 1.23216 0.66096 -1.06229
v 1.23216 0.66096 1.21435
v 1.19365 0.66096 1.40796
v 1.08398 0.66096 1.57209
v 0.91985 0.66096 1.68176
v 0.72624 0.66096 1.72027
v -0.72624 0.66096 1.72027
v -0.91985 0.66096 1.68176
v -1.08398 0.66096 1.57209
v -1.19365 0.66096 1.40796
v -1.23216 0.66096 1.21435
v -1.23216 0.66096 -1.06229
v -0.81600 1.03632 -1.42949
v 0.81600 1.03632 -1.42949
v 1.23216 1.03632 -1.06229
v 1.23216 1.03632 1.19803
v 1.19365 1.03632 1.39164
v 1.08398 1.03632 1.55577
v 0.91985 1.03632 1.66544
v 0.72624 1.03632 1.70395
v -0.72624 1.03632 1.70395
v -0.91985 1.03632 1.66544
v -1.08398 1.03632 1.55577
v -1.19365 1.03632 1.39164
v -1.23216 1.03632 1.19803
v -1.23216 1.03632 -1.06229
v -0.81600 1.25664 -1.34789
v 0.81600 1.25664 -1.34789
v 1.23216 1.25664 -1.06229
v 1.23216 1.25664 1.10827
v 1.19365 1.25664 1.30188
v 1.08398 1.25664 1.46601
v 0.91985 1.25664 1.57568
v 0.72624 1.25664 1.61419
v -0.72624 1.25664 1.61419
v -0.91985 1.25664 1.57568
v -1.08398 1.25664 1.46601
v -1.19365 1.25664 1.30188
v -1.23216 1.25664 1.10827
v -1.23216 1.25664 -1.06229
v -0.81600 1.42800 -1.24181
v 0.81600 1.42800 -1.24181
v 1.14240 1.42800 -1.01333
v 1.14240 1.42800 1.01851
v 1.10389 1.42800 1.21212
v 0.99422 1.42800 1.37625
v 0.83009 1.42800 1.48592
v 0.63648 1.42800 1.52443
v -0.63648 1.42800 1.52443
v -0.83009 1.42800 1.48592
v -0.99422 1.42800 1.37625
v -1.10389 1.42800 1.21212
v -1.14240 1.42800 1.01851
v -1.14240 1.42800 -1.01333
v -0.81600 1.62384 -1.06229
v 0.81600 1.62384 -1.06229
v 1.01184 1.62384 -0.89909
v 1.01184 1.62384 0.83083
v 0.97333 1.62384 1.02444
v 0.86366 1.62384 1.18857
v 0.69953 1.62384 1.29824
v 0.50592 1.62384 1.33675
v -0.50592 1.62384 1.33675
v -0.69953 1.62384 1.29824
v -0.86366 1.62384 1.18857
v -0.97333 1.62384 1.02444
v -1.01184 1.62384 0.83083
v -1.01184 1.62384 -0.89909
v -0.78336 1.77072 -0.78485
v 0.78336 1.77072 -0.78485
v 0.88128 1.77072 -0.63797
v 0.88128 1.77072 0.58603
v 0.84277 1.77072 0.77964
v 0.73310 1.77072 0.94377
v 0.56897 1.77072 1.05344
v 0.37536 1.77072 1.09195
v -0.37536 1.77072 1.09195
v -0.56897 1.77072 1.05344
v -0.73310 1.77072 0.94377
v -0.84277 1.77072 0.77964
v -0.88128 1.77072 0.58603
v -0.88128 1.77072 -0.63797
v -0.48960 1.88496 -0.51557
v 0.48960 1.88496 -0.51557
v 0.58752 1.88496 -0.43397
v 0.58752 1.88496 0.39876
v 0.55339 1.88496 0.57035
v 0.45619 1.88496 0.71582
v 0.31072 1.88496 0.81302
v 0.13913 1.88496 0.84715
v -0.13913 1.88496 0.84715
v -0.31072 1.88496 0.81302
v -0.45619 1.88496 0.71582
v -0.55339 1.88496 0.57035
v -0.58752 1.88496 0.39876
v -0.58752 1.88496 -0.43397
v -0.19584 1.94208 -0.24629
v 0.19584 1.94208 -0.24629
v 0.29376 1.94208 -0.18917
v 0.29376 1.94208 0.30411
v 0.27354 1.94208 0.40575
v 0.21597 1.94208 0.49192
v 0.12980 1.94208 0.54950
v 0.02815 1.94208 0.56971
v -0.02815 1.94208 0.56971
v -0.12980 1.94208 0.54950
v -0.21597 1.94208 0.49192
v -0.27354 1.94208 0.40575
v -0.29376 1.94208 0.30411
v -0.29376 1.94208 -0.18917
v -0.94656 0.31008 -1.14454
v 0.00000 0.00000 -1.73141
v 0.00000 0.70992 -1.73141
v -0.94656 0.31008 -0.69574
v 0.00000 0.70992 -1.28261
v 0.00000 0.00000 -1.28261
v -0.91392 0.70992 -1.16477
v -0.91392 0.70992 -0.71597
v 0.94656 0.31008 -1.14454
v 0.94656 0.31008 -0.69574
v 0.91392 0.70992 -1.16477
v 0.91392 0.70992 -0.71597
v 0.83232 -0.58752 -1.02624
v 0.52224 -1.61568 -0.87458
v 1.21584 -0.92208 -0.60873
v 0.83232 -0.58752 -0.18917
v 1.21584 -0.92208 -0.18917
v 0.52224 -1.61568 -0.18917
v 1.20269 -0.48144 -0.78472
v 1.20269 -0.48144 -0.18917
v 0.83527 -0.48144 -1.06396
v 0.83527 -0.48144 -0.18917
v 1.19952 -0.37536 -0.64433
v 0.84864 0.00000 -0.76820
v 1.19952 -0.37536 -0.18917
v 0.84864 0.00000 -0.18917
v -0.83232 -0.58752 -1.02624
v -0.52224 -1.61568 -0.87458
v -1.21584 -0.92208 -0.60873
v -0.83232 -0.58752 -0.18917
v -1.21584 -0.92208 -0.18917
v -0.52224 -1.61568 -0.18917
v -1.20269 -0.48144 -0.78472
v -1.20269 -0.48144 -0.18917
v -0.83527 -0.48144 -1.06396
v -0.83527 -0.48144 -0.18917
v -1.19952 -0.37536 -0.64433
v -0.84864 0.00000 -0.76820
v -1.19952 -0.37536 -0.18917
v -0.84864 0.00000 -0.18917
v -0.35006 -1.67280 -0.76360
v 0.00000 -1.94208 -0.92427
v 0.00000 -1.67280 -1.02965
v -0.35006 -1.67280 0.09643
v 0.00000 -1.67280 0.09643
v 0.00000 -1.94208 0.09643
v 0.00000 -0.48144 -1.47845
v -1.15872 -0.48144 -0.59782
v -1.15872 -0.48144 0.09643
v 0.00000 -0.48144 0.09643
v -1.15872 -0.92208 -0.43182
v -1.15872 -0.92208 0.09643
v -0.42432 -1.61568 -0.72868
v -0.42432 -1.61568 0.09643
v -1.15872 0.01632 -0.31222
v -1.15872 0.01632 0.09643
v 0.00000 0.01632 -1.19285
v 0.00000 0.01632 0.09643
v 0.35006 -1.67280 -0.76360
v 0.35006 -1.67280 0.09643
v 1.15872 -0.48144 -0.59782
v 1.15872 -0.48144 0.09643
v 1.15872 -0.92208 -0.43182
v 1.15872 -0.92208 0.09643
v 0.42432 -1.61568 -0.72868
v 0.42432 -1.61568 0.09643
v 1.15872 0.01632 -0.31222
v 1.15872 0.01632 0.09643
v 1.16280 -0.30192 1.63867
v 1.16280 0.18768 1.63867
v 1.16280 0.47068 1.60142
v 1.16280 0.73440 1.49218
v 1.16280 0.96086 1.31841
v 1.16280 1.13463 1.09195
v 1.16280 1.24386 0.82824
v 1.16280 1.28112 0.54523
v 1.16280 1.24386 0.26223
v 1.16280 1.13463 -0.00149
v 1.16280 0.96086 -0.22794
v 1.16280 0.73440 -0.40171
v 1.16280 0.47068 -0.51095
v 1.16280 0.18768 -0.54821
v 1.16280 -0.30192 -0.54821
v 1.16280 -0.30110 -0.36869
v 1.16280 0.18768 -0.36869
v 1.16280 0.42422 -0.33754
v 1.16280 0.64464 -0.24624
v 1.16280 0.83392 -0.10100
v 1.16280 0.97916 0.08827
v 1.16280 1.07046 0.30869
v 1.16280 1.10160 0.54523
v 1.16280 1.07046 0.78177
v 1.16280 0.97916 1.00219
v 1.16280 0.83392 1.19147
v 1.16280 0.64464 1.33671
v 1.16280 0.42422 1.42801
v 1.16280 0.18768 1.45915
v 1.16280 -0.30110 1.45915
v 1.28928 -0.30192 1.63867
v 1.28928 0.18768 1.63867
v 1.28928 0.47068 1.60142
v 1.28928 0.73440 1.49218
v 1.28928 0.96086 1.31841
v 1.28928 1.13463 1.09195
v 1.28928 1.24386 0.82824
v 1.28928 1.28112 0.54523
v 1.28928 1.24386 0.26223
v 1.28928 1.13463 -0.00149
v 1.28928 0.96086 -0.22794
v 1.28928 0.73440 -0.40171
v 1.28928 0.47068 -0.51095
v 1.28928 0.18768 -0.54821
v 1.28928 -0.30192 -0.54821
v 1.28928 -0.30110 -0.36869
v 1.28928 0.18768 -0.36869
v 1.28928 0.42422 -0.33754
v 1.28928 0.64464 -0.24624
v 1.28928 0.83392 -0.10100
v 1.28928 0.97916 0.08827
v 1.28928 1.07046 0.30869
v 1.28928 1.10160 0.54523
v 1.28928 1.07046 0.78177
v 1.28928 0.97916 1.00219
v 1.28928 0.83392 1.19147
v 1.28928 0.64464 1.33671
v 1.28928 0.42422 1.42801
v 1.28928 0.18768 1.45915
v 1.28928 -0.30110 1.45915
v -1.16280 -0.30192 1.63867
v -1.16280 0.18768 1.63867
v -1.16280 0.47068 1.60142
v -1.16280 0.73440 1.49218
v -1.16280 0.96086 1.31841
v -1.16280 1.13463 1.09195
v -1.16280 1.24386 0.82824
v -1.16280 1.28112 0.54523
v -1.16280 1.24386 0.26223
v -1.16280 1.13463 -0.00149
v -1.16280 0.96086 -0.22794
v -1.16280 0.73440 -0.40171
v -1.16280 0.47068 -0.51095
v -1.16280 0.18768 -0.54821
v -1.16280 -0.30192 -0.54821
v -1.16280 -0.30110 -0.36869
v -1.16280 0.18768 -0.36869
v -1.16280 0.42422 -0.33754
v -1.16280 0.64464 -0.24624
v -1.16280 0.83392 -0.10100
v -1.16280 0.97916 0.08827
v -1.16280 1.07046 0.30869
v -1.16280 1.10160 0.54523
v -1.16280 1.07046 0.78177
v -1.16280 0.97916 1.00219
v -1.16280 0.83392 1.19147
v -1.16280 0.64464 1.33671
v -1.16280 0.42422 1.42801
v -1.16280 0.18768 1.45915
v -1.16280 -0.30110 1.45915
v -1.28928 -0.30192 1.63867
v -1.28928 0.18768 1.63867
v -1.28928 0.47068 1.60142
v -1.28928 0.73440 1.49218
v -1.28928 0.96086 1.31841
v -1.28928 1.13463 1.09195
v -1.28928 1.24386 0.82824
v -1.28928 1.28112 0.54523
v -1.28928 1.24386 0.26223
v -1.28928 1.13463 -0.00149
v -1.28928 0.96086 -0.22794
v -1.28928 0.73440 -0.40171
v -1.28928 0.47068 -0.51095
v -1.28928 0.18768 -0.54821
v -1.28928 -0.30192 -0.54821
v -1.28928 -0.30110 -0.36869
v -1.28928 0.18768 -0.36869
v -1.28928 0.42422 -0.33754
v -1.28928 0.64464 -0.24624
v -1.28928 0.83392 -0.10100
v -1.28928 0.97916 0.08827
v -1.28928 1.07046 0.30869
v -1.28928 1.10160 0.54523
v -1.28928 1.07046 0.78177
v -1.28928 0.97916 1.00219
v -1.28928 0.83392 1.19147
v -1.28928 0.64464 1.33671
v -1.28928 0.42422 1.42801
v -1.28928 0.18768 1.45915
v -1.28928 -0.30110 1.45915
v 1.18532 0.02448 1.46365
v 1.11017 0.02448 1.57465
v 0.94046 0.02448 1.68904
v 0.74094 0.02448 1.73141
v -0.74094 0.02448 1.73141
v -0.94046 0.02448 1.68904
v -1.11017 0.02448 1.57465
v -1.18532 0.02448 1.46365
v -0.98911 0.02448 1.29136
v -0.92896 0.02448 1.38664
v -0.78476 0.02448 1.47942
v -0.61228 0.02448 1.50418
v 0.61228 0.02448 1.50418
v 0.78476 0.02448 1.47942
v 0.92896 0.02448 1.38664
v 0.98911 0.02448 1.29136
v 1.18532 0.39984 1.46365
v 1.11017 0.39984 1.57465
v 0.94046 0.39984 1.68904
v 0.74094 0.39984 1.73141
v -0.74094 0.39984 1.73141
v -0.94046 0.39984 1.68904
v -1.11017 0.39984 1.57465
v -1.18532 0.39984 1.46365
v -0.98911 0.39984 1.29136
v -0.92896 0.39984 1.38664
v -0.78476 0.39984 1.47942
v -0.61228 0.39984 1.50418
v 0.61228 0.39984 1.50418
v 0.78476 0.39984 1.47942
v 0.92896 0.39984 1.38664
v 0.98911 0.39984 1.29136
vt 0.20400 0.08772
vt -0.20400 -0.09180
vt -0.20400 0.08772
vt 0.20400 -0.09180
vt -0.29988 0.08772
vt -0.30600 -0.09180
vt 0.18856 0.09666
vt 0.18874 -0.08260
vt -0.27650 0.09666
vt -0.29264 -0.08260
vt -0.32505 0.09637
vt -0.34119 -0.08289
vt -0.02839 0.08437
vt -0.03432 -0.09531
vt -0.07679 0.08395
vt -0.08272 -0.09572
vt -0.12520 0.08368
vt -0.13112 -0.09600
vt 0.22180 0.10683
vt 0.17952 -0.07123
vt 0.17340 0.10730
vt 0.22792 -0.07169
vt -0.17952 -0.07123
vt -0.17340 0.10730
vt -0.22180 0.10683
vt -0.22792 -0.07169
vt 0.12520 0.08368
vt 0.08272 -0.09572
vt 0.07679 0.08395
vt 0.13112 -0.09600
vt 0.03432 -0.09531
vt 0.02839 0.08437
vt 0.32505 0.09637
vt 0.29264 -0.08260
vt 0.27650 0.09666
vt 0.34119 -0.08289
vt -0.18874 -0.08260
vt -0.18856 0.09666
vt 0.29988 0.08772
vt 0.30600 -0.09180
vt 0.20400 0.20544
vt -0.20400 0.39928
vt -0.20400 0.20544
vt 0.20400 0.39928
vt -0.30804 0.30998
vt -0.30600 0.20544
vt -0.29870 -0.15594
vt 0.27039 -0.15594
vt -0.34724 -0.15623
vt -0.03667 -0.16880
vt -0.08507 -0.16922
vt -0.13348 -0.16950
vt 0.18156 -0.14429
vt 0.22996 -0.14475
vt -0.18156 -0.14429
vt -0.22996 -0.14475
vt 0.08507 -0.16922
vt 0.13348 -0.16950
vt 0.03667 -0.16880
vt 0.29870 -0.15594
vt 0.34724 -0.15623
vt -0.27039 -0.15594
vt 0.30600 0.20544
vt 0.30804 0.30998
vt 0.20400 -0.06236
vt -0.20400 -0.15443
vt -0.20400 -0.06236
vt 0.20400 -0.15443
vt 0.08709 -0.09064
vt 0.09493 -0.18386
vt -0.05421 -0.10987
vt -0.04258 -0.20188
vt -0.29457 -0.24974
vt 0.27044 -0.24974
vt -0.34312 -0.25003
vt -0.08152 -0.26302
vt -0.03312 -0.26260
vt -0.12992 -0.26329
vt 0.18156 -0.23821
vt 0.22996 -0.23868
vt -0.18156 -0.23821
vt -0.22996 -0.23868
vt 0.12992 -0.26329
vt 0.08152 -0.26302
vt 0.03312 -0.26260
vt 0.34312 -0.25003
vt 0.29457 -0.24974
vt -0.27044 -0.24974
vt 0.05421 -0.10987
vt -0.09493 -0.18386
vt -0.08709 -0.09064
vt 0.04258 -0.20188
vt -0.20400 -0.21296
vt 0.20400 -0.21296
vt 0.08913 -0.24187
vt -0.03575 -0.25589
vt -0.27211 -0.30480
vt 0.27046 -0.30480
vt -0.32066 -0.30509
vt -0.06525 -0.31786
vt -0.01685 -0.31745
vt -0.11366 -0.31814
vt 0.18156 -0.29431
vt 0.22996 -0.29478
vt -0.18156 -0.29431
vt -0.22996 -0.29478
vt 0.11366 -0.31814
vt 0.06525 -0.31786
vt 0.01685 -0.31745
vt 0.32066 -0.30509
vt 0.27211 -0.30480
vt -0.27046 -0.30480
vt -0.08913 -0.24187
vt 0.03575 -0.25589
vt -0.20400 -0.26132
vt 0.20400 -0.26132
vt 0.07804 -0.28908
vt -0.02061 -0.30030
vt -0.25000 -0.34829
vt 0.25790 -0.34829
vt -0.24903 -0.05397
vt -0.27484 -0.10746
vt -0.29781 -0.05997
vt -0.22606 -0.10147
vt -0.31714 -0.12454
vt -0.34011 -0.07704
vt -0.27099 0.05865
vt -0.24855 0.01319
vt -0.22996 0.07889
vt -0.20752 0.03343
vt -0.18156 0.08600
vt -0.15912 0.04054
vt -0.15912 -0.33819
vt 0.15912 -0.33819
vt 0.18156 0.08600
vt 0.20752 0.03343
vt 0.22996 0.07889
vt 0.15912 0.04054
vt 0.24855 0.01319
vt 0.27099 0.05865
vt 0.34011 -0.07704
vt 0.31714 -0.12454
vt 0.29781 -0.05997
vt 0.27484 -0.10746
vt 0.24903 -0.05397
vt 0.22606 -0.10147
vt 0.25000 -0.34829
vt -0.25790 -0.34829
vt -0.07804 -0.28908
vt 0.02061 -0.30030
vt 0.20400 -0.10734
vt -0.20400 -0.04477
vt -0.20400 -0.10734
vt 0.20400 -0.04477
vt 0.03427 -0.05338
vt 0.03427 -0.11980
vt -0.05755 -0.09198
vt -0.28560 -0.05686
vt -0.25296 -0.00871
vt 0.28089 -0.10147
vt -0.17892 -0.16010
vt 0.25270 -0.16010
vt -0.22770 -0.16610
vt -0.27000 -0.18317
vt -0.10437 0.26980
vt -0.06104 0.21442
vt -0.06379 0.29671
vt -0.02046 0.24133
vt -0.17488 -0.03423
vt -0.12648 -0.02713
vt 0.12648 -0.02713
vt 0.17488 -0.03423
vt 0.12528 0.28250
vt 0.12784 0.19912
vt 0.16674 0.25578
vt 0.08638 0.22584
vt 0.27000 -0.18317
vt 0.22770 -0.16610
vt 0.17892 -0.16010
vt -0.28089 -0.10147
vt -0.25270 -0.16010
vt 0.05755 -0.09198
vt -0.03427 -0.11980
vt -0.03427 -0.05338
vt 0.28560 -0.05686
vt 0.25296 -0.00871
vt -0.19584 0.03372
vt 0.19584 0.03372
vt -0.22032 0.06617
vt 0.18738 -0.20916
vt -0.11801 -0.20916
vt -0.16679 -0.21515
vt -0.08952 0.17413
vt -0.02236 0.14734
vt -0.05084 0.10706
vt 0.01822 0.17426
vt 0.02604 0.25078
vt 0.06472 0.18371
vt 0.09384 -0.09708
vt -0.09384 -0.09708
vt 0.03840 0.23523
vt 0.05024 0.15800
vt 0.00226 0.16738
vt 0.09170 0.13127
vt 0.15647 0.15912
vt 0.12033 0.09127
vt 0.16679 -0.21515
vt 0.11801 -0.20916
vt -0.18738 -0.20916
vt 0.22032 0.06617
vt -0.12240 0.10657
vt 0.12240 0.10657
vt -0.14688 0.12460
vt -0.08130 -0.24086
vt 0.00031 -0.19623
vt -0.06289 0.05954
vt 0.01283 0.00815
vt 0.02351 0.05026
vt 0.04875 0.08596
vt 0.08472 0.10982
vt -0.22945 0.15800
vt -0.16861 0.09304
vt -0.18225 0.16738
vt -0.12678 0.10135
vt -0.05839 0.10135
vt -0.01587 0.09304
vt 0.02088 0.06935
vt 0.04625 0.03390
vt 0.13177 0.04409
vt 0.05639 -0.00792
vt 0.06487 -0.21086
vt 0.14424 -0.25420
vt 0.14688 0.12460
vt -0.04896 0.17275
vt 0.04896 0.17275
vt -0.07344 0.18537
vt -0.14688 0.30859
vt -0.07344 0.29436
vt -0.06839 0.31682
vt -0.13835 0.34651
vt -0.22578 0.03390
vt -0.14459 0.01160
vt -0.20338 0.06935
vt -0.15787 -0.00940
vt -0.12400 0.02563
vt -0.09922 0.03056
vt -0.08539 0.03056
vt -0.06020 0.02563
vt -0.03843 0.01160
vt -0.02340 -0.00940
vt 0.13835 0.34651
vt 0.06839 0.31682
vt 0.14688 0.30859
vt 0.07344 0.29436
vt 0.07344 0.18537
vt -0.20400 0.18397
vt -0.29988 0.18397
vt -0.29988 -0.28115
vt 0.20400 0.18397
vt 0.29988 -0.28115
vt 0.29988 0.18397
vt -0.26283 -0.37058
vt -0.22180 -0.39800
vt -0.17340 -0.40763
vt -0.29025 -0.32955
vt 0.17340 -0.40763
vt 0.29025 -0.32955
vt 0.26283 -0.37058
vt 0.22180 -0.39800
vt -0.05399 0.33586
vt 0.05399 0.33586
vt 0.03245 0.34858
vt -0.03245 0.34858
vt -0.00704 0.35305
vt 0.00704 0.35305
vt 0.05035 -0.07752
vt -0.22809 -0.17748
vt -0.22809 -0.00000
vt -0.10947 -0.07752
vt 0.16896 -0.00000
vt 0.16896 -0.17748
vt 0.04074 -0.17748
vt -0.09987 -0.17748
vt 0.22809 -0.17748
vt -0.05035 -0.07752
vt 0.22809 -0.00000
vt -0.16896 -0.17748
vt -0.16896 -0.00000
vt 0.10947 -0.07752
vt -0.04074 -0.17748
vt 0.09987 -0.17748
vt 0.24901 0.28613
vt 0.00000 0.43285
vt 0.00000 0.32065
vt 0.24901 0.17393
vt 0.00000 -0.43285
vt 0.22848 -0.29119
vt 0.00000 -0.32065
vt 0.22848 -0.17899
vt -0.29119 -0.15830
vt -0.28613 -0.05801
vt -0.17899 -0.15830
vt -0.17393 -0.05801
vt -0.24901 0.28613
vt -0.24901 0.17393
vt 0.28613 -0.05801
vt 0.29119 -0.15830
vt 0.17899 -0.15830
vt 0.17393 -0.05801
vt -0.22848 -0.29119
vt -0.22848 -0.17899
vt -0.00041 0.04701
vt -0.11806 0.16207
vt 0.09472 0.30091
vt 0.20808 0.14688
vt 0.13056 0.40392
vt 0.30396 0.23052
vt -0.11403 0.04347
vt 0.30067 0.12036
vt -0.00131 0.01886
vt 0.20882 0.12036
vt -0.19306 0.17057
vt -0.07862 0.25367
vt -0.07470 0.11283
vt 0.29988 0.09384
vt 0.21216 -0.00000
vt -0.18593 0.21266
vt 0.19618 0.12928
vt 0.04729 0.12928
vt 0.15218 0.23949
vt 0.04729 0.23949
vt 0.15218 -0.05193
vt 0.04729 0.19329
vt 0.21865 0.19329
vt 0.04729 -0.05193
vt -0.21865 0.36988
vt -0.04729 0.10256
vt -0.25656 0.10256
vt -0.04729 0.36988
vt -0.04729 0.07642
vt -0.26599 0.07642
vt 0.19205 0.14488
vt 0.04729 0.14488
vt 0.16108 0.27334
vt 0.04729 0.27334
vt 0.16108 0.10275
vt 0.04729 0.10275
vt -0.19205 -0.04220
vt -0.04729 -0.04220
vt 0.00041 0.04701
vt -0.09472 0.30091
vt 0.11806 0.16207
vt -0.20808 0.14688
vt -0.30396 0.23052
vt -0.13056 0.40392
vt 0.11403 0.04347
vt -0.30067 0.12036
vt 0.00131 0.01886
vt -0.20882 0.12036
vt 0.19306 0.17057
vt 0.07470 0.11283
vt 0.07862 0.25367
vt -0.29988 0.09384
vt -0.21216 -0.00000
vt 0.18593 0.21266
vt -0.19618 0.12928
vt -0.15218 0.23949
vt -0.04729 0.12928
vt -0.04729 0.23949
vt -0.15218 -0.05193
vt -0.21865 0.19329
vt -0.04729 0.19329
vt -0.04729 -0.05193
vt 0.21865 0.36988
vt 0.25656 0.10256
vt 0.04729 0.10256
vt 0.04729 0.36988
vt 0.26599 0.07642
vt 0.04729 0.07642
vt -0.19205 0.14488
vt -0.16108 0.27334
vt -0.04729 0.14488
vt -0.04729 0.27334
vt -0.16108 0.10275
vt -0.04729 0.10275
vt 0.19205 -0.04220
vt 0.04729 -0.04220
vt -0.11773 0.32388
vt -0.22512 0.30040
vt -0.22461 0.37269
vt -0.08752 0.41820
vt 0.00000 0.48552
vt 0.00000 0.41820
vt 0.13043 0.05985
vt -0.22502 -0.01787
vt 0.00000 0.12036
vt -0.28968 0.12036
vt 0.13039 0.17757
vt -0.28968 0.23052
vt -0.09495 0.31360
vt -0.10608 0.40392
vt 0.20348 0.03531
vt -0.14348 0.28834
vt 0.20348 0.17878
vt -0.28968 -0.00408
vt -0.14348 0.14487
vt 0.00000 -0.00408
vt 0.22512 0.30040
vt 0.11773 0.32388
vt 0.22461 0.37269
vt 0.08752 0.41820
vt -0.13043 0.05985
vt 0.22502 -0.01787
vt 0.28968 0.12036
vt -0.13039 0.17757
vt 0.28968 0.23052
vt 0.09495 0.31360
vt 0.10608 0.40392
vt 0.14348 0.14487
vt -0.20348 0.17878
vt 0.14348 0.28834
vt -0.20348 0.03531
vt 0.28968 -0.00408
vt -0.31810 0.23107
vt -0.31810 -0.02411
vt -0.20787 0.19090
vt -0.20787 -0.02411
vt -0.18449 0.18217
vt -0.18449 -0.02411
vt 0.06782 0.10796
vt 0.06782 -0.02411
vt -0.10796 0.23052
vt 0.02411 0.12036
vt -0.14945 0.12036
vt 0.02411 0.23052
vt 0.28968 -0.07805
vt 0.00000 0.02411
vt 0.00000 -0.29821
vt 0.28968 0.02411
vt -0.07805 -0.00408
vt 0.02411 -0.00408
vt 0.20787 0.19090
vt 0.31810 -0.02411
vt 0.31810 0.23107
vt 0.20787 -0.02411
vt 0.14945 0.12036
vt -0.02411 0.12036
vt 0.10796 0.23052
vt -0.02411 0.23052
vt -0.06782 0.10796
vt 0.18449 -0.02411
vt 0.18449 0.18217
vt -0.06782 -0.02411
vt -0.28968 -0.07805
vt -0.28968 0.02411
vt 0.07805 -0.00408
vt -0.02411 -0.00408
vt 0.29070 0.13208
vt 0.32232 0.01088
vt 0.29070 0.01088
vt 0.32232 0.13208
vt 0.32232 -0.06048
vt 0.29070 -0.06048
vt 0.32232 -0.12958
vt 0.29070 -0.12958
vt -0.29070 0.23127
vt -0.32232 0.16534
vt -0.29070 0.16534
vt -0.32232 0.23127
vt -0.32232 0.09459
vt -0.29070 0.09459
vt -0.32232 0.02384
vt -0.29070 0.02384
vt -0.32232 -0.04209
vt -0.29070 -0.04209
vt -0.29070 0.27819
vt -0.32232 0.21226
vt -0.29070 0.21226
vt -0.32232 0.27819
vt -0.32232 0.14151
vt -0.29070 0.14151
vt -0.32232 0.07076
vt -0.29070 0.07076
vt -0.32232 0.00483
vt -0.29070 0.00483
vt -0.29070 -0.16774
vt -0.32232 -0.09863
vt -0.29070 -0.09863
vt -0.32232 -0.16774
vt -0.32232 -0.02728
vt -0.29070 -0.02728
vt -0.32232 0.09392
vt -0.29070 0.09392
vt -0.29070 0.13739
vt -0.32232 0.09251
vt -0.29070 0.09251
vt -0.32232 0.13739
vt 0.29070 0.08649
vt 0.32232 -0.03470
vt 0.29070 -0.03470
vt 0.32232 0.08649
vt 0.32232 -0.09434
vt 0.29070 -0.09434
vt 0.32232 -0.15192
vt 0.29070 -0.15192
vt -0.29070 -0.02727
vt -0.32232 -0.08237
vt -0.29070 -0.08237
vt -0.32232 -0.02727
vt -0.32232 -0.14151
vt -0.29070 -0.14151
vt -0.32232 -0.20064
vt -0.29070 -0.20064
vt -0.32232 -0.25575
vt -0.29070 -0.25575
vt -0.29070 -0.09920
vt -0.32232 -0.15884
vt -0.29070 -0.15884
vt -0.32232 -0.09920
vt -0.29070 0.00786
vt -0.32232 -0.04976
vt -0.29070 -0.04976
vt -0.32232 0.00786
vt -0.32232 -0.10940
vt -0.29070 -0.10940
vt -0.32232 -0.16701
vt -0.29070 -0.16701
vt -0.29070 -0.11692
vt -0.32232 -0.05934
vt -0.29070 -0.05934
vt -0.32232 -0.11692
vt -0.32232 0.00031
vt -0.29070 0.00031
vt -0.32232 0.12149
vt -0.29070 0.12149
vt -0.29070 -0.36513
vt -0.32232 -0.41001
vt -0.29070 -0.41001
vt -0.32232 -0.36513
vt -0.13705 -0.04692
vt -0.13705 0.07548
vt -0.09217 0.07528
vt -0.09217 -0.04692
vt -0.12774 -0.11767
vt -0.08439 -0.10605
vt -0.10043 -0.18360
vt -0.06156 -0.16116
vt -0.05699 -0.24021
vt -0.02525 -0.20848
vt -0.00037 -0.28366
vt 0.02207 -0.24479
vt 0.06556 -0.31097
vt 0.07717 -0.26761
vt 0.13631 -0.32028
vt 0.13631 -0.27540
vt 0.20706 -0.31097
vt 0.19544 -0.26761
vt 0.27299 -0.28366
vt 0.25055 -0.24479
vt 0.32960 -0.24021
vt 0.29787 -0.20848
vt 0.37305 -0.18360
vt 0.33418 -0.16116
vt 0.40035 -0.11767
vt 0.35700 -0.10605
vt 0.40967 -0.04692
vt 0.36479 -0.04692
vt 0.36479 0.07528
vt 0.40967 0.07548
vt 0.13705 -0.04692
vt 0.09217 0.07528
vt 0.13705 0.07548
vt 0.09217 -0.04692
vt 0.12774 -0.11767
vt 0.08439 -0.10605
vt 0.10043 -0.18360
vt 0.06156 -0.16116
vt 0.05699 -0.24021
vt 0.02525 -0.20848
vt 0.00037 -0.28366
vt -0.02207 -0.24479
vt -0.06556 -0.31097
vt -0.07717 -0.26761
vt -0.13631 -0.32028
vt -0.13631 -0.27540
vt -0.20706 -0.31097
vt -0.19544 -0.26761
vt -0.27299 -0.28366
vt -0.25055 -0.24479
vt -0.32960 -0.24021
vt -0.29787 -0.20848
vt -0.37305 -0.18360
vt -0.33418 -0.16116
vt -0.40035 -0.11767
vt -0.35700 -0.10605
vt -0.40967 -0.04692
vt -0.36479 -0.04692
vt -0.36479 0.07528
vt -0.40967 0.07548
vt -0.29070 0.13208
vt -0.29070 0.01088
vt -0.32232 0.01088
vt -0.32232 0.13208
vt -0.29070 -0.06048
vt -0.32232 -0.06048
vt -0.29070 -0.12958
vt -0.32232 -0.12958
vt 0.29070 0.23127
vt 0.29070 0.16534
vt 0.32232 0.16534
vt 0.32232 0.23127
vt 0.29070 0.09459
vt 0.32232 0.09459
vt 0.29070 0.02384
vt 0.32232 0.02384
vt 0.29070 -0.04209
vt 0.32232 -0.04209
vt 0.29070 0.27819
vt 0.29070 0.21226
vt 0.32232 0.21226
vt 0.32232 0.27819
vt 0.29070 0.14151
vt 0.32232 0.14151
vt 0.29070 0.07076
vt 0.32232 0.07076
vt 0.29070 0.00483
vt 0.32232 0.00483
vt 0.29070 -0.16774
vt 0.29070 -0.09863
vt 0.32232 -0.09863
vt 0.32232 -0.16774
vt 0.29070 -0.02728
vt 0.32232 -0.02728
vt 0.29070 0.09392
vt 0.32232 0.09392
vt 0.29070 0.13739
vt 0.29070 0.09251
vt 0.32232 0.09251
vt 0.32232 0.13739
vt -0.29070 0.08649
vt -0.29070 -0.03470
vt -0.32232 -0.03470
vt -0.32232 0.08649
vt -0.29070 -0.09434
vt -0.32232 -0.09434
vt -0.29070 -0.15192
vt -0.32232 -0.15192
vt 0.29070 -0.02727
vt 0.29070 -0.08237
vt 0.32232 -0.08237
vt 0.32232 -0.02727
vt 0.29070 -0.14151
vt 0.32232 -0.14151
vt 0.29070 -0.20064
vt 0.32232 -0.20064
vt 0.29070 -0.25575
vt 0.32232 -0.25575
vt 0.29070 -0.09920
vt 0.29070 -0.15884
vt 0.32232 -0.15884
vt 0.32232 -0.09920
vt 0.29070 0.00786
vt 0.29070 -0.04976
vt 0.32232 -0.04976
vt 0.32232 0.00786
vt 0.29070 -0.10940
vt 0.32232 -0.10940
vt 0.29070 -0.16701
vt 0.32232 -0.16701
vt 0.29070 -0.11692
vt 0.29070 -0.05934
vt 0.32232 -0.05934
vt 0.32232 -0.11692
vt 0.29070 0.00031
vt 0.32232 0.00031
vt 0.29070 0.12149
vt 0.32232 0.12149
vt 0.29070 -0.36513
vt 0.29070 -0.41001
vt 0.32232 -0.41001
vt 0.32232 -0.36513
vt -0.02979 -0.00612
vt -0.06240 -0.09996
vt -0.06240 -0.00612
vt -0.02979 -0.09996
vt -0.11299 -0.09996
vt -0.11299 -0.00612
vt 0.23512 -0.00612
vt 0.18523 -0.09996
vt 0.18523 -0.00612
vt 0.23512 -0.09996
vt -0.18523 -0.09996
vt -0.18523 -0.00612
vt -0.23512 -0.09996
vt -0.23512 -0.00612
vt 0.11299 -0.00612
vt 0.06240 -0.09996
vt 0.06240 -0.00612
vt 0.11299 -0.09996
vt 0.02979 -0.09996
vt 0.02979 -0.00612
vt 0.46411 -0.00612
vt 0.39883 -0.09996
vt 0.39883 -0.00612
vt 0.46411 -0.09996
vt -0.14100 -0.00612
vt -0.16917 -0.09996
vt -0.16917 -0.00612
vt -0.14100 -0.09996
vt 0.23224 -0.00612
vt 0.19619 -0.09996
vt 0.19619 -0.00612
vt 0.23224 -0.09996
vt 0.15307 -0.09996
vt 0.15307 -0.00612
vt -0.15307 -0.09996
vt -0.15307 -0.00612
vt -0.19619 -0.09996
vt -0.19619 -0.00612
vt -0.23224 -0.09996
vt -0.23224 -0.00612
vt 0.16917 -0.00612
vt 0.14100 -0.09996
vt 0.14100 -0.00612
vt 0.16917 -0.09996
vt -0.39883 -0.00612
vt -0.46411 -0.09996
vt -0.46411 -0.00612
vt -0.39883 -0.09996
vt 0.29633 -0.36591
vt 0.24728 -0.32284
vt 0.23224 -0.34666
vt 0.27754 -0.39366
vt 0.23512 -0.42226
vt 0.19619 -0.36986
vt 0.18523 -0.43285
vt 0.15307 -0.37605
vt -0.23224 -0.34666
vt -0.24728 -0.32284
vt -0.29633 -0.36591
vt -0.27754 -0.39366
vt -0.23512 -0.42226
vt -0.19619 -0.36986
vt -0.18523 -0.43285
vt -0.15307 -0.37605
vt 0.29633 0.36591
vt 0.23224 0.34666
vt 0.24728 0.32284
vt 0.27754 0.39366
vt 0.23512 0.42226
vt 0.19619 0.36986
vt 0.18523 0.43285
vt 0.15307 0.37605
vt -0.23224 0.34666
vt -0.29633 0.36591
vt -0.24728 0.32284
vt -0.27754 0.39366
vt -0.23512 0.42226
vt -0.19619 0.36986
vt -0.18523 0.43285
vt -0.15307 0.37605
vn 0.0000 0.0000 -1.0000
vn 0.9994 -0.0341 0.0000
vn 0.9995 -0.0321 0.0000
vn 0.9993 -0.0349 0.0097
vn 0.9990 -0.0349 0.0291
vn 0.9454 -0.0613 0.3201
vn 0.9109 -0.0656 0.4073
vn 0.7496 -0.0852 0.6564
vn 0.6846 -0.0863 0.7238
vn 0.3809 -0.0966 0.9196
vn 0.3810 -0.0924 0.9199
vn 0.0299 -0.0884 0.9956
vn 0.0127 -0.0910 0.9958
vn -0.0238 -0.0900 0.9957
vn -0.0243 -0.0913 0.9955
vn -0.3809 -0.0966 0.9196
vn -0.3810 -0.0924 0.9199
vn -0.6846 -0.0863 0.7238
vn -0.7496 -0.0852 0.6564
vn -0.9109 -0.0656 0.4073
vn -0.9454 -0.0613 0.3201
vn -0.9990 -0.0349 0.0291
vn -0.9993 -0.0349 0.0097
vn -0.9995 -0.0321 0.0000
vn -0.9994 -0.0341 0.0000
vn -0.0380 -0.9171 -0.3968
vn 0.0403 -0.9248 -0.3783
vn 0.0653 -0.9100 -0.4094
vn -0.0722 -0.9231 -0.3776
vn 0.2263 -0.8497 -0.4762
vn 0.0000 -0.7433 -0.6690
vn 0.9996 -0.0162 0.0219
vn 1.0000 -0.0078 0.0000
vn 0.8964 -0.0163 0.4429
vn 0.6587 -0.0172 0.7522
vn 0.3421 -0.0029 0.9397
vn 0.0218 0.0029 0.9998
vn -0.0234 -0.0341 0.9991
vn -0.3421 -0.0029 0.9397
vn -0.6587 -0.0172 0.7522
vn -0.8964 -0.0163 0.4429
vn -0.9996 -0.0162 0.0219
vn -1.0000 -0.0078 0.0000
vn -0.2263 -0.8497 -0.4762
vn 0.0000 0.0651 -0.9979
vn 0.0000 0.1333 -0.9911
vn 0.0000 0.2241 -0.9746
vn 0.6846 0.0474 -0.7274
vn 0.6689 0.0807 -0.7390
vn 0.6736 0.0241 -0.7387
vn 0.6365 0.0767 -0.7674
vn 0.9999 0.0032 0.0133
vn 1.0000 0.0000 0.0000
vn 0.9277 0.0755 0.3656
vn 0.7130 0.1306 0.6889
vn 0.3931 0.1653 0.9045
vn 0.0266 0.2189 0.9754
vn -0.0232 0.1250 0.9919
vn -0.3931 0.1653 0.9045
vn -0.7130 0.1306 0.6889
vn -0.9277 0.0755 0.3656
vn -0.9999 0.0032 0.0133
vn -1.0000 0.0000 0.0000
vn -0.6736 0.0241 -0.7387
vn -0.6689 0.0807 -0.7390
vn -0.6846 0.0474 -0.7274
vn -0.6365 0.0767 -0.7674
vn 0.0000 0.4027 -0.9153
vn 0.0000 0.4626 -0.8866
vn 0.5862 0.2375 -0.7745
vn 0.5434 0.2901 -0.7878
vn 0.9900 0.1411 0.0060
vn 0.9539 0.3003 0.0000
vn 0.9307 0.2262 0.2873
vn 0.9866 0.1625 0.0147
vn 0.7234 0.3425 0.5995
vn 0.8662 0.3563 0.3504
vn 0.3942 0.4560 0.7979
vn 0.6774 0.3948 0.6207
vn 0.0290 0.4332 0.9008
vn -0.0264 0.4097 0.9118
vn -0.3942 0.4560 0.7979
vn -0.6774 0.3948 0.6207
vn -0.7234 0.3425 0.5995
vn -0.8662 0.3563 0.3504
vn -0.9307 0.2262 0.2873
vn -0.9866 0.1625 0.0147
vn -0.9900 0.1411 0.0060
vn -0.9539 0.3003 0.0000
vn -0.5862 0.2375 -0.7745
vn -0.5434 0.2901 -0.7878
vn 0.0381 0.5945 -0.8032
vn -0.0350 0.6392 -0.7683
vn 0.4897 0.5133 -0.7048
vn 0.4823 0.5776 -0.6586
vn 0.8598 0.5104 0.0152
vn 0.8496 0.5274 0.0000
vn 0.8941 0.4461 0.0403
vn 0.7002 0.6507 0.2937
vn 0.7669 0.4875 0.4174
vn 0.5284 0.6645 0.5284
vn 0.5613 0.5045 0.6561
vn 0.2835 0.6801 0.6761
vn 0.0215 0.6407 0.7675
vn -0.0214 0.5795 0.8147
vn -0.2835 0.6801 0.6761
vn -0.5284 0.6645 0.5284
vn -0.5613 0.5045 0.6561
vn -0.7669 0.4875 0.4174
vn -0.7002 0.6507 0.2937
vn -0.8941 0.4461 0.0403
vn -0.8598 0.5104 0.0152
vn -0.8496 0.5274 0.0000
vn -0.4897 0.5133 -0.7048
vn -0.4823 0.5776 -0.6586
vn 0.0640 0.7637 -0.6424
vn -0.0617 0.8232 -0.5644
vn 0.0999 0.5853 -0.8046
vn 0.0934 0.6936 -0.7143
vn 0.4168 0.7964 -0.4383
vn 0.7909 0.6118 0.0118
vn 0.7954 0.6060 0.0000
vn 0.5946 0.7674 0.2397
vn 0.4013 0.8135 0.4210
vn 0.2009 0.8087 0.5529
vn 0.0199 0.8118 0.5836
vn -0.0175 0.7657 0.6430
vn -0.2009 0.8087 0.5529
vn -0.4013 0.8135 0.4210
vn -0.5946 0.7674 0.2397
vn -0.7909 0.6118 0.0118
vn -0.7954 0.6060 0.0000
vn -0.1553 0.7018 -0.6952
vn -0.0926 0.6264 -0.7740
vn -0.4168 0.7964 -0.4383
vn -0.0161 0.8346 -0.5507
vn 0.0425 0.9050 -0.4233
vn 0.0168 0.7707 -0.6369
vn -0.0490 0.9148 -0.4009
vn 0.6548 0.7384 -0.1609
vn 0.5828 0.8123 -0.0243
vn 0.7777 0.6284 -0.0182
vn 0.6017 0.7986 -0.0145
vn 0.4664 0.8845 0.0134
vn 0.3976 0.9036 0.1592
vn 0.3016 0.9125 0.2763
vn 0.1641 0.9133 0.3729
vn 0.0210 0.8938 0.4479
vn -0.0159 0.8814 0.4722
vn -0.1641 0.9133 0.3729
vn -0.3016 0.9125 0.2763
vn -0.3976 0.9036 0.1592
vn -0.4664 0.8845 0.0134
vn -0.6017 0.7986 -0.0145
vn -0.7777 0.6284 -0.0182
vn -0.6548 0.7384 -0.1609
vn -0.5828 0.8123 -0.0243
vn 0.0150 0.9471 -0.3206
vn -0.0215 0.9641 -0.2647
vn 0.2961 0.9548 -0.0264
vn 0.3557 0.9332 -0.0510
vn 0.2566 0.9665 0.0087
vn 0.2403 0.9666 0.0892
vn 0.1881 0.9640 0.1881
vn 0.0946 0.9623 0.2550
vn 0.0229 0.9591 0.2820
vn -0.0143 0.9390 0.3435
vn -0.0946 0.9623 0.2550
vn -0.1881 0.9640 0.1881
vn -0.2403 0.9666 0.0892
vn -0.2566 0.9665 0.0087
vn -0.2961 0.9548 -0.0264
vn -0.3557 0.9332 -0.0510
vn 0.0033 0.9965 -0.0836
vn -0.0079 0.9977 -0.0676
vn 0.1562 0.9875 -0.0209
vn 0.0558 0.9984 0.0019
vn 0.0727 0.9971 0.0226
vn 0.0723 0.9948 0.0723
vn 0.0467 0.9876 0.1500
vn 0.0217 0.9853 0.1695
vn -0.0091 0.9805 0.1964
vn -0.0393 0.9912 0.1263
vn -0.0907 0.9917 0.0907
vn -0.0790 0.9966 0.0246
vn -0.0386 0.9993 0.0013
vn -0.1562 0.9875 -0.0209
vn 0.0000 -1.0000 0.0000
vn -0.5269 -0.0000 -0.8499
vn 0.5269 0.0000 0.8499
vn 0.5269 -0.0000 -0.8499
vn -0.5269 0.0000 0.8499
vn -0.3113 -0.9503 0.0000
vn 0.0000 1.0000 0.0000
vn -0.9967 0.0814 0.0000
vn 0.3113 -0.9503 0.0000
vn 0.9967 0.0814 0.0000
vn 0.5796 -0.2873 -0.7626
vn 0.0000 0.0000 1.0000
vn 0.6057 0.4675 -0.6439
vn 0.6459 0.3865 -0.6584
vn 0.4128 0.7312 -0.5431
vn 0.9996 0.0298 0.0000
vn 0.7071 -0.7071 0.0000
vn -0.9574 0.2887 0.0000
vn -0.9612 0.2758 0.0000
vn -0.9693 0.2461 0.0000
vn -0.9996 0.0278 0.0000
vn 0.7305 0.6829 0.0000
vn -0.5796 -0.2873 -0.7626
vn -0.6057 0.4675 -0.6439
vn -0.6459 0.3865 -0.6584
vn -0.4128 0.7312 -0.5431
vn -0.9996 0.0298 0.0000
vn -0.7071 -0.7071 0.0000
vn 0.9574 0.2887 0.0000
vn 0.9693 0.2461 0.0000
vn 0.9612 0.2758 0.0000
vn 0.9996 0.0278 0.0000
vn -0.7305 0.6829 0.0000
vn -0.5780 -0.2957 -0.7606
vn -0.5795 -0.2877 -0.7625
vn -0.5777 -0.2974 -0.7601
vn -0.5504 0.4155 -0.7242
vn 0.5795 -0.2877 -0.7625
vn 0.5780 -0.2957 -0.7606
vn 0.5777 -0.2974 -0.7601
vn 0.5504 0.4155 -0.7242
vn -0.6097 -0.7926 0.0000
vn -0.6748 -0.7380 0.0000
vn -0.6827 -0.7307 0.0000
vn -0.6866 -0.7270 0.0000
vn 0.6097 -0.7926 0.0000
vn 0.6866 -0.7270 0.0000
vn 0.6827 -0.7307 0.0000
vn 0.6748 -0.7380 0.0000
vn 0.0000 0.0295 0.9996
vn 0.0000 0.0704 0.9975
vn 0.0000 0.2162 0.9763
vn 0.0000 0.3009 0.9536
vn 0.0000 0.4616 0.8871
vn 0.0000 0.5375 0.8433
vn 0.0000 0.6754 0.7374
vn 0.0000 0.7374 0.6754
vn 0.0000 0.8433 0.5375
vn 0.0000 0.8871 0.4616
vn 0.0000 0.9536 0.3009
vn 0.0000 0.9763 0.2162
vn 0.0000 0.9990 0.0438
vn 0.0000 0.9990 -0.0438
vn 0.0000 0.9763 -0.2162
vn 0.0000 0.9536 -0.3009
vn 0.0000 0.8871 -0.4616
vn 0.0000 0.8433 -0.5375
vn 0.0000 0.7374 -0.6754
vn 0.0000 0.6754 -0.7374
vn 0.0000 0.5375 -0.8433
vn 0.0000 0.4616 -0.8871
vn 0.0000 0.3009 -0.9536
vn 0.0000 0.2162 -0.9763
vn 0.0000 0.0704 -0.9975
vn 0.0000 0.0295 -0.9996
vn 0.0000 -1.0000 0.0045
vn 0.0000 -0.0256 0.9997
vn 0.0000 -0.0646 0.9979
vn 0.0000 -0.2162 0.9763
vn 0.0000 -0.3009 0.9536
vn 0.0000 -0.4616 0.8871
vn 0.0000 -0.5375 0.8433
vn 0.0000 -0.6754 0.7374
vn 0.0000 -0.7374 0.6754
vn 0.0000 -0.8433 0.5375
vn 0.0000 -0.8871 0.4616
vn 0.0000 -0.9536 0.3009
vn 0.0000 -0.9763 0.2162
vn 0.0000 -0.9990 0.0438
vn 0.0000 -0.9990 -0.0438
vn 0.0000 -0.9763 -0.2162
vn 0.0000 -0.9536 -0.3009
vn 0.0000 -0.8871 -0.4616
vn 0.0000 -0.8433 -0.5375
vn 0.0000 -0.7374 -0.6754
vn 0.0000 -0.6754 -0.7374
vn 0.0000 -0.5375 -0.8433
vn 0.0000 -0.4616 -0.8871
vn 0.0000 -0.3009 -0.9536
vn 0.0000 -0.2162 -0.9763
vn 0.0000 -0.0646 -0.9979
vn 0.0000 -0.0256 -0.9997
vn 0.0000 -1.0000 -0.0045
vn 0.8281 0.0000 0.5606
vn 0.7245 0.0000 0.6893
vn 0.6339 0.0000 0.7734
vn 0.4494 0.0000 0.8933
vn 0.3304 0.0000 0.9438
vn 0.0450 0.0000 0.9990
vn 0.0134 0.0000 0.9999
vn -0.0134 0.0000 0.9999
vn -0.0450 0.0000 0.9990
vn -0.3304 0.0000 0.9438
vn -0.4494 0.0000 0.8933
vn -0.6339 0.0000 0.7734
vn -0.7245 0.0000 0.6893
vn -0.8281 0.0000 0.5606
vn -0.6598 0.0000 -0.7514
vn 0.8456 0.0000 -0.5338
vn 0.7310 0.0000 -0.6824
vn 0.6274 0.0000 -0.7787
vn 0.4152 0.0000 -0.9097
vn 0.2793 0.0000 -0.9602
vn 0.0315 0.0000 -0.9995
vn 0.0094 0.0000 -1.0000
vn -0.0094 0.0000 -1.0000
vn -0.0315 0.0000 -0.9995
vn -0.2793 0.0000 -0.9602
vn -0.4152 0.0000 -0.9097
vn -0.6274 0.0000 -0.7787
vn -0.7310 0.0000 -0.6824
vn -0.8456 0.0000 -0.5338
vn 0.6598 0.0000 -0.7514
s off
f 1/1/1 16/2/1 2/3/1
f 1/1/1 15/4/1 16/2/1
f 2/3/1 16/2/1 3/5/1
f 3/5/1 16/2/1 17/6/1
f 3/7/2 17/8/3 4/9/4
f 4/9/4 17/8/3 18/10/5
f 4/9/4 18/10/5 5/11/6
f 5/11/6 18/10/5 19/12/7
f 5/13/6 19/14/7 6/15/8
f 6/15/8 19/14/7 20/16/9
f 6/15/8 20/16/9 7/17/10
f 7/17/10 20/16/9 21/18/11
f 7/19/10 22/20/12 8/21/13
f 7/19/10 21/22/11 22/20/12
f 8/21/13 23/23/14 9/24/15
f 8/21/13 22/20/12 23/23/14
f 9/24/15 23/23/14 10/25/16
f 10/25/16 23/23/14 24/26/17
f 10/27/16 25/28/18 11/29/19
f 10/27/16 24/30/17 25/28/18
f 11/29/19 26/31/20 12/32/21
f 11/29/19 25/28/18 26/31/20
f 12/33/21 27/34/22 13/35/23
f 12/33/21 26/36/20 27/34/22
f 13/35/23 28/37/24 14/38/25
f 13/35/23 27/34/22 28/37/24
f 14/39/1 15/4/1 1/1/1
f 14/39/1 28/40/1 15/4/1
f 15/41/26 30/42/27 16/43/28
f 15/41/26 29/44/29 30/42/27
f 16/43/28 31/45/30 17/46/31
f 16/43/28 30/42/27 31/45/30
f 17/8/3 32/47/32 18/10/5
f 17/8/3 31/48/33 32/47/32
f 18/10/5 32/47/32 19/12/7
f 19/12/7 32/47/32 33/49/34
f 19/14/7 33/50/34 20/16/9
f 20/16/9 33/50/34 34/51/35
f 20/16/9 34/51/35 21/18/11
f 21/18/11 34/51/35 35/52/36
f 21/22/11 36/53/37 22/20/12
f 21/22/11 35/54/36 36/53/37
f 22/20/12 37/55/38 23/23/14
f 22/20/12 36/53/37 37/55/38
f 23/23/14 37/55/38 24/26/17
f 24/26/17 37/55/38 38/56/39
f 24/30/17 39/57/40 25/28/18
f 24/30/17 38/58/39 39/57/40
f 25/28/18 40/59/41 26/31/20
f 25/28/18 39/57/40 40/59/41
f 26/36/20 41/60/42 27/34/22
f 26/36/20 40/61/41 41/60/42
f 27/34/22 41/60/42 28/37/24
f 28/37/24 41/60/42 42/62/43
f 28/63/31 42/64/44 15/41/26
f 15/41/26 42/64/44 29/44/29
f 29/65/45 44/66/46 30/67/45
f 29/65/45 43/68/47 44/66/46
f 30/69/48 44/70/49 31/71/50
f 31/71/50 44/70/49 45/72/51
f 31/48/33 46/73/52 32/47/32
f 31/48/33 45/74/53 46/73/52
f 32/47/32 47/75/54 33/49/34
f 32/47/32 46/73/52 47/75/54
f 33/50/34 48/76/55 34/51/35
f 33/50/34 47/77/54 48/76/55
f 34/51/35 49/78/56 35/52/36
f 34/51/35 48/76/55 49/78/56
f 35/54/36 50/79/57 36/53/37
f 35/54/36 49/80/56 50/79/57
f 36/53/37 51/81/58 37/55/38
f 36/53/37 50/79/57 51/81/58
f 37/55/38 51/81/58 38/56/39
f 38/56/39 51/81/58 52/82/59
f 38/58/39 52/83/59 39/57/40
f 39/57/40 52/83/59 53/84/60
f 39/57/40 53/84/60 40/59/41
f 40/59/41 53/84/60 54/85/61
f 40/61/41 54/86/61 41/60/42
f 41/60/42 54/86/61 55/87/62
f 41/60/42 55/87/62 42/62/43
f 42/62/43 55/87/62 56/88/63
f 42/89/64 43/90/65 29/91/66
f 42/89/64 56/92/67 43/90/65
f 43/68/47 58/93/68 44/66/46
f 43/68/47 57/94/69 58/93/68
f 44/70/49 58/95/70 45/72/51
f 45/72/51 58/95/70 59/96/71
f 45/74/53 60/97/72 46/73/52
f 45/74/53 59/98/73 60/97/72
f 46/73/52 61/99/74 47/75/54
f 46/73/52 60/97/75 61/99/74
f 47/77/54 62/100/76 48/76/55
f 47/77/54 61/101/77 62/100/76
f 48/76/55 63/102/78 49/78/56
f 48/76/55 62/100/79 63/102/78
f 49/80/56 64/103/80 50/79/57
f 49/80/56 63/104/78 64/103/80
f 50/79/57 65/105/81 51/81/58
f 50/79/57 64/103/80 65/105/81
f 51/81/58 65/105/81 52/82/59
f 52/82/59 65/105/81 66/106/82
f 52/83/59 66/107/82 53/84/60
f 53/84/60 66/107/82 67/108/83
f 53/84/60 67/108/84 54/85/61
f 54/85/61 67/108/84 68/109/85
f 54/86/61 68/110/86 55/87/62
f 55/87/62 68/110/86 69/111/87
f 55/87/62 69/111/88 56/88/63
f 56/88/63 69/111/88 70/112/89
f 56/92/67 57/113/90 43/90/65
f 56/92/67 70/114/91 57/113/90
f 57/94/69 72/115/92 58/93/68
f 57/94/69 71/116/93 72/115/92
f 58/95/70 72/117/94 59/96/71
f 59/96/71 72/117/94 73/118/95
f 59/98/73 74/119/96 60/97/75
f 59/98/73 73/120/97 74/119/96
f 60/121/98 75/122/99 61/123/77
f 60/121/98 74/124/96 75/122/99
f 61/123/100 76/125/101 62/126/79
f 61/123/100 75/122/99 76/125/101
f 62/127/102 76/128/101 63/129/78
f 63/129/78 76/128/101 77/130/103
f 63/129/78 77/130/103 64/131/80
f 64/131/80 77/130/103 78/132/104
f 64/103/80 79/133/105 65/105/81
f 64/103/80 78/134/104 79/133/105
f 65/135/81 80/136/106 66/137/82
f 65/135/81 79/138/105 80/136/106
f 66/137/82 81/139/107 67/140/108
f 66/137/82 80/136/106 81/139/107
f 67/141/83 81/142/107 68/143/109
f 68/143/109 81/142/107 82/144/110
f 68/143/85 82/144/110 69/145/111
f 69/145/111 82/144/110 83/146/112
f 69/111/87 83/147/112 70/112/89
f 70/112/89 83/147/112 84/148/113
f 70/114/91 71/149/114 57/113/90
f 70/114/91 84/150/115 71/149/114
f 71/151/93 86/152/116 72/153/92
f 71/151/93 85/154/117 86/152/116
f 72/155/118 86/156/119 73/157/95
f 73/158/95 86/152/119 87/159/120
f 73/160/97 88/161/121 74/124/96
f 73/160/97 87/162/122 88/161/121
f 74/124/96 89/163/123 75/122/99
f 74/124/96 88/161/121 89/163/123
f 75/122/99 90/164/124 76/125/101
f 75/122/99 89/163/123 90/164/124
f 76/165/101 90/166/124 77/167/103
f 77/167/103 90/166/124 91/168/125
f 77/130/103 91/169/125 78/132/104
f 78/132/104 91/169/125 92/170/126
f 78/132/104 93/171/127 79/138/105
f 78/132/104 92/170/126 93/171/127
f 79/138/105 94/172/128 80/136/106
f 79/138/105 93/171/127 94/172/128
f 80/173/106 95/174/129 81/175/107
f 80/173/106 94/176/128 95/174/129
f 81/142/107 95/177/129 82/144/110
f 82/144/110 95/177/129 96/178/130
f 82/144/110 96/178/130 83/146/112
f 83/146/112 96/178/130 97/179/131
f 83/146/112 97/179/131 84/180/113
f 84/180/113 97/179/131 98/181/132
f 84/182/115 85/183/133 71/184/134
f 84/185/115 98/186/135 85/154/133
f 85/154/136 100/187/137 86/152/138
f 85/154/136 99/188/139 100/187/137
f 86/152/116 100/187/137 87/159/120
f 87/159/140 100/187/137 101/189/141
f 87/162/142 101/190/143 88/161/121
f 88/161/121 101/190/143 102/191/144
f 88/161/121 103/192/145 89/163/123
f 88/161/121 102/191/144 103/192/145
f 89/193/123 104/194/146 90/166/124
f 89/193/123 103/195/145 104/194/146
f 90/166/124 105/196/147 91/168/125
f 90/166/124 104/194/146 105/196/147
f 91/168/125 105/196/147 92/197/126
f 92/197/126 105/196/147 106/198/148
f 92/170/126 107/199/149 93/171/127
f 92/170/126 106/200/148 107/199/149
f 93/201/127 108/202/150 94/176/128
f 93/201/127 107/203/149 108/202/150
f 94/176/128 108/202/150 95/174/129
f 95/174/129 108/202/150 109/204/151
f 95/174/129 109/204/151 96/205/130
f 96/205/130 109/204/151 110/206/152
f 96/178/130 110/207/152 97/179/131
f 97/179/131 110/207/152 111/208/153
f 97/179/131 112/209/154 98/181/155
f 97/179/131 111/208/153 112/209/154
f 98/186/135 99/188/139 85/154/117
f 98/186/156 112/210/157 99/188/139
f 99/188/139 114/211/158 100/187/137
f 99/188/139 113/212/159 114/211/158
f 100/187/137 115/213/160 101/189/161
f 100/187/137 114/211/158 115/213/160
f 101/214/141 115/215/160 102/216/144
f 102/216/144 115/215/160 116/217/162
f 102/216/144 117/218/163 103/195/145
f 102/216/144 116/217/162 117/218/163
f 103/195/145 118/219/164 104/194/146
f 103/195/145 117/218/163 118/219/164
f 104/194/146 118/219/164 105/196/147
f 105/196/147 118/219/164 119/220/165
f 105/221/147 119/222/165 106/223/148
f 106/223/148 119/222/165 120/224/166
f 106/223/148 121/225/167 107/203/149
f 106/223/148 120/224/166 121/225/167
f 107/203/149 122/226/168 108/202/150
f 107/203/149 121/225/167 122/226/168
f 108/202/150 123/227/169 109/204/151
f 108/202/150 122/226/168 123/227/169
f 109/204/151 123/227/169 110/206/152
f 110/206/152 123/227/169 124/228/170
f 110/206/152 124/228/170 111/229/153
f 111/229/153 124/228/170 125/230/171
f 111/229/153 126/231/172 112/232/157
f 111/229/153 125/230/171 126/231/172
f 112/210/173 126/233/172 99/188/139
f 99/188/139 126/233/172 113/212/159
f 113/212/159 128/234/174 114/211/158
f 113/212/159 127/235/175 128/234/174
f 114/211/158 129/236/176 115/213/160
f 114/211/158 128/234/174 129/236/176
f 115/213/160 129/236/176 116/237/162
f 116/237/162 129/236/176 130/238/177
f 116/237/162 131/239/178 117/240/163
f 116/237/162 130/238/177 131/239/178
f 117/241/163 132/242/179 118/243/164
f 117/241/163 131/244/178 132/242/179
f 118/243/164 132/242/179 119/222/165
f 119/222/165 132/242/179 133/245/180
f 119/222/165 133/245/180 120/224/166
f 120/224/166 133/245/180 134/246/181
f 120/224/166 135/247/182 121/225/167
f 120/224/166 134/246/181 135/247/182
f 121/225/167 136/248/183 122/226/168
f 121/225/167 135/247/182 136/248/183
f 122/226/168 137/249/184 123/227/169
f 122/226/168 136/248/183 137/249/184
f 123/227/169 137/249/184 124/228/170
f 124/228/170 137/249/184 138/250/185
f 124/251/170 138/252/185 125/253/171
f 125/253/171 138/252/185 139/254/186
f 125/253/171 140/255/187 126/233/172
f 125/253/171 139/254/186 140/255/187
f 126/233/172 140/255/187 113/212/159
f 113/212/159 140/255/187 127/235/175
f 2/256/188 3/257/188 4/258/188
f 1/259/188 2/256/188 4/258/188
f 13/260/188 14/261/188 1/259/188
f 13/260/188 1/259/188 4/258/188
f 6/262/188 7/263/188 8/264/188
f 5/265/188 6/262/188 8/264/188
f 4/258/188 5/265/188 8/264/188
f 13/260/188 4/258/188 8/264/188
f 13/260/188 8/264/188 9/266/188
f 12/267/188 13/260/188 9/266/188
f 11/268/188 12/267/188 9/266/188
f 9/266/188 10/269/188 11/268/188
f 139/254/186 127/235/175 140/255/187
f 139/254/186 128/234/174 127/235/175
f 128/234/174 130/238/177 129/236/176
f 139/254/186 130/238/177 128/234/174
f 139/254/186 131/239/178 130/238/177
f 138/252/185 131/239/178 139/254/186
f 138/252/185 132/270/179 131/239/178
f 137/271/184 132/270/179 138/252/185
f 136/272/183 132/270/179 137/271/184
f 136/272/183 133/273/180 132/270/179
f 136/272/183 134/274/181 133/273/180
f 134/274/181 136/272/183 135/275/182
f 141/276/189 143/277/189 142/278/189
f 144/279/190 146/280/190 145/281/190
f 141/276/189 147/282/189 143/277/189
f 144/279/190 145/281/190 148/283/190
f 143/284/191 149/285/191 142/286/191
f 145/287/192 146/288/192 150/289/192
f 149/285/191 143/284/191 151/290/191
f 150/289/192 152/291/192 145/287/192
f 141/292/193 142/293/193 146/294/193
f 141/292/193 146/294/193 144/295/193
f 143/296/194 147/297/194 145/298/194
f 147/297/194 148/299/194 145/298/194
f 147/300/195 141/301/195 148/302/195
f 141/301/195 144/303/195 148/302/195
f 142/293/196 149/304/196 146/294/196
f 149/304/196 150/305/196 146/294/196
f 149/306/197 151/307/197 152/308/197
f 149/306/197 152/308/197 150/309/197
f 151/310/194 143/296/194 145/298/194
f 151/310/194 145/298/194 152/311/194
f 153/312/198 155/313/198 154/314/198
f 156/315/199 158/316/199 157/317/199
f 153/312/198 159/318/198 155/313/198
f 156/315/199 157/317/199 160/319/199
f 161/320/198 159/318/198 153/312/198
f 162/321/199 156/315/199 160/319/199
f 163/322/200 161/323/200 164/324/201
f 165/325/199 166/326/199 162/321/199
f 161/323/200 163/322/200 159/327/202
f 162/321/199 160/319/199 165/325/199
f 159/328/203 160/329/203 155/330/203
f 155/330/203 160/329/203 157/331/203
f 155/332/204 158/333/204 154/334/204
f 155/332/204 157/335/204 158/333/204
f 154/336/205 156/337/206 153/338/207
f 154/336/205 158/339/205 156/337/206
f 153/338/207 162/340/208 161/341/208
f 153/338/207 156/337/206 162/340/208
f 164/342/209 166/343/209 163/344/209
f 163/344/209 166/343/209 165/345/209
f 163/346/203 160/329/203 159/328/203
f 163/346/203 165/347/203 160/329/203
f 161/341/208 162/340/208 164/348/208
f 164/348/208 162/340/208 166/349/208
f 167/350/210 168/351/210 169/352/210
f 170/353/199 171/354/199 172/355/199
f 167/350/210 169/352/210 173/356/210
f 170/353/199 174/357/199 171/354/199
f 175/358/210 167/350/210 173/356/210
f 176/359/199 174/357/199 170/353/199
f 177/360/211 178/361/212 175/362/211
f 179/363/199 176/359/199 180/364/199
f 175/362/211 173/365/213 177/360/211
f 176/359/199 179/363/199 174/357/199
f 173/366/214 169/367/214 174/368/214
f 169/367/214 171/369/214 174/368/214
f 169/370/215 168/371/215 172/372/215
f 169/370/215 172/372/215 171/373/215
f 168/374/216 167/375/217 170/376/218
f 168/374/216 170/376/218 172/377/216
f 167/375/217 175/378/219 176/379/219
f 167/375/217 176/379/219 170/376/218
f 178/380/220 177/381/220 180/382/220
f 177/381/220 179/383/220 180/382/220
f 177/384/214 173/366/214 174/368/214
f 177/384/214 174/368/214 179/385/214
f 175/378/219 178/386/219 176/379/219
f 178/386/219 180/387/219 176/379/219
f 181/388/221 183/389/222 182/390/223
f 184/391/199 186/392/199 185/393/199
f 183/389/222 188/394/210 187/395/210
f 185/393/199 190/396/199 189/397/199
f 183/389/222 191/398/210 188/394/210
f 185/393/199 189/397/199 192/399/199
f 183/389/222 193/400/210 191/398/210
f 185/393/199 192/399/199 194/401/199
f 193/400/210 183/389/222 181/388/221
f 194/401/199 184/391/199 185/393/199
f 195/402/224 187/403/224 188/404/224
f 196/405/199 189/397/199 190/396/199
f 187/403/224 195/402/224 197/406/224
f 190/396/199 198/407/199 196/405/199
f 183/408/225 199/409/226 182/410/227
f 185/393/199 186/392/199 200/411/199
f 201/412/198 183/408/225 187/413/198
f 202/414/199 190/396/199 185/393/199
f 203/415/198 183/408/225 201/412/198
f 204/416/199 202/414/199 185/393/199
f 205/417/198 183/408/225 203/415/198
f 206/418/199 204/416/199 185/393/199
f 183/408/225 205/417/198 199/409/226
f 185/393/199 200/411/199 206/418/199
f 197/419/228 201/420/228 187/421/228
f 198/407/199 190/396/199 202/414/199
f 201/420/228 197/419/228 207/422/228
f 202/414/199 208/423/199 198/407/199
f 182/424/229 186/425/229 181/426/229
f 181/426/229 186/425/229 184/427/229
f 181/426/229 184/427/229 193/428/230
f 193/428/230 184/427/229 194/429/231
f 193/428/230 194/429/231 191/430/232
f 191/430/232 194/429/231 192/431/232
f 191/432/63 189/433/63 188/434/63
f 191/432/63 192/435/63 189/433/63
f 195/436/194 198/437/194 197/438/194
f 195/436/194 196/439/194 198/437/194
f 188/434/63 189/433/63 195/440/63
f 195/440/63 189/433/63 196/441/63
f 199/442/233 186/443/233 182/444/233
f 199/442/233 200/445/233 186/443/233
f 201/446/53 202/447/53 203/448/53
f 203/448/53 202/447/53 204/449/53
f 203/450/234 206/451/235 205/452/236
f 203/450/234 204/453/234 206/451/235
f 205/452/236 200/445/233 199/442/233
f 205/452/236 206/451/235 200/445/233
f 197/438/194 198/437/194 207/454/194
f 207/454/194 198/437/194 208/455/194
f 207/456/53 202/447/53 201/446/53
f 207/456/53 208/457/53 202/447/53
f 209/458/199 240/459/237 210/460/238
f 209/458/199 239/461/199 240/459/237
f 210/460/238 241/462/239 211/463/240
f 210/460/238 240/459/237 241/462/239
f 211/463/240 242/464/241 212/465/242
f 211/463/240 241/462/239 242/464/241
f 212/466/242 243/467/243 213/468/244
f 212/466/242 242/469/241 243/467/243
f 213/468/244 244/470/245 214/471/246
f 213/468/244 243/467/243 244/470/245
f 214/471/246 245/472/247 215/473/248
f 214/471/246 244/470/245 245/472/247
f 215/473/248 246/474/249 216/475/250
f 215/473/248 245/472/247 246/474/249
f 216/476/250 247/477/251 217/478/252
f 216/476/250 246/479/249 247/477/251
f 217/478/252 248/480/253 218/481/254
f 217/478/252 247/477/251 248/480/253
f 218/481/254 249/482/255 219/483/256
f 218/481/254 248/480/253 249/482/255
f 219/483/256 250/484/257 220/485/258
f 219/483/256 249/482/255 250/484/257
f 220/486/258 251/487/259 221/488/260
f 220/486/258 250/489/257 251/487/259
f 221/488/260 252/490/261 222/491/262
f 221/488/260 251/487/259 252/490/261
f 222/491/262 253/492/1 223/493/1
f 222/491/262 252/490/261 253/492/1
f 223/494/263 254/495/263 224/496/263
f 223/494/263 253/497/263 254/495/263
f 224/498/199 255/499/264 225/500/265
f 224/498/199 254/501/199 255/499/264
f 225/500/265 256/502/266 226/503/267
f 225/500/265 255/499/264 256/502/266
f 226/503/267 257/504/268 227/505/269
f 226/503/267 256/502/266 257/504/268
f 227/506/269 258/507/270 228/508/271
f 227/506/269 257/509/268 258/507/270
f 228/508/271 259/510/272 229/511/273
f 228/508/271 258/507/270 259/510/272
f 229/511/273 260/512/274 230/513/275
f 229/511/273 259/510/272 260/512/274
f 230/513/275 261/514/276 231/515/277
f 230/513/275 260/512/274 261/514/276
f 231/516/277 262/517/278 232/518/279
f 231/516/277 261/519/276 262/517/278
f 232/520/279 263/521/280 233/522/281
f 232/520/279 262/523/278 263/521/280
f 233/522/281 264/524/282 234/525/283
f 233/522/281 263/521/280 264/524/282
f 234/525/283 265/526/284 235/527/285
f 234/525/283 264/524/282 265/526/284
f 235/528/285 266/529/286 236/530/287
f 235/528/285 265/531/284 266/529/286
f 236/530/287 267/532/288 237/533/289
f 236/530/287 266/529/286 267/532/288
f 237/533/289 268/534/1 238/535/1
f 237/533/289 267/532/288 268/534/1
f 238/536/290 239/537/290 209/538/290
f 238/536/290 268/539/290 239/537/290
f 222/540/63 223/541/63 224/542/63
f 222/540/63 224/542/63 225/543/63
f 221/544/63 222/540/63 225/543/63
f 221/544/63 225/543/63 226/545/63
f 220/546/63 221/544/63 226/545/63
f 220/546/63 226/545/63 227/547/63
f 219/548/63 220/546/63 227/547/63
f 219/548/63 227/547/63 228/549/63
f 218/550/63 219/548/63 228/549/63
f 218/550/63 228/549/63 229/551/63
f 217/552/63 218/550/63 229/551/63
f 217/552/63 229/551/63 230/553/63
f 216/554/63 217/552/63 230/553/63
f 216/554/63 230/553/63 231/555/63
f 215/556/63 216/554/63 231/555/63
f 215/556/63 231/555/63 232/557/63
f 214/558/63 215/556/63 232/557/63
f 214/558/63 232/557/63 233/559/63
f 213/560/63 214/558/63 233/559/63
f 213/560/63 233/559/63 234/561/63
f 212/562/63 213/560/63 234/561/63
f 212/562/63 234/561/63 235/563/63
f 211/564/63 212/562/63 235/563/63
f 211/564/63 235/563/63 236/565/63
f 210/566/63 211/564/63 236/565/63
f 210/566/63 236/565/63 237/567/63
f 238/568/63 209/569/63 210/566/63
f 210/566/63 237/567/63 238/568/63
f 252/570/53 254/571/53 253/572/53
f 252/570/53 255/573/53 254/571/53
f 251/574/53 255/573/53 252/570/53
f 251/574/53 256/575/53 255/573/53
f 250/576/53 256/575/53 251/574/53
f 250/576/53 257/577/53 256/575/53
f 249/578/53 257/577/53 250/576/53
f 249/578/53 258/579/53 257/577/53
f 248/580/53 258/579/53 249/578/53
f 248/580/53 259/581/53 258/579/53
f 247/582/53 259/581/53 248/580/53
f 247/582/53 260/583/53 259/581/53
f 246/584/53 260/583/53 247/582/53
f 246/584/53 261/585/53 260/583/53
f 245/586/53 261/585/53 246/584/53
f 245/586/53 262/587/53 261/585/53
f 244/588/53 262/587/53 245/586/53
f 244/588/53 263/589/53 262/587/53
f 243/590/53 263/589/53 244/588/53
f 243/590/53 264/591/53 263/589/53
f 242/592/53 264/591/53 243/590/53
f 242/592/53 265/593/53 264/591/53
f 241/594/53 265/593/53 242/592/53
f 241/594/53 266/595/53 265/593/53
f 240/596/53 266/595/53 241/594/53
f 240/596/53 267/597/53 266/595/53
f 268/598/53 240/596/53 239/599/53
f 240/596/53 268/598/53 267/597/53
f 269/600/199 270/601/238 300/602/237
f 269/600/199 300/602/237 299/603/199
f 270/601/238 271/604/240 301/605/239
f 270/601/238 301/605/239 300/602/237
f 271/604/240 272/606/242 302/607/241
f 271/604/240 302/607/241 301/605/239
f 272/608/242 273/609/244 303/610/243
f 272/608/242 303/610/243 302/611/241
f 273/609/244 274/612/246 304/613/245
f 273/609/244 304/613/245 303/610/243
f 274/612/246 275/614/248 305/615/247
f 274/612/246 305/615/247 304/613/245
f 275/614/248 276/616/250 306/617/249
f 275/614/248 306/617/249 305/615/247
f 276/618/250 277/619/252 307/620/251
f 276/618/250 307/620/251 306/621/249
f 277/619/252 278/622/254 308/623/253
f 277/619/252 308/623/253 307/620/251
f 278/622/254 279/624/256 309/625/255
f 278/622/254 309/625/255 308/623/253
f 279/624/256 280/626/258 310/627/257
f 279/624/256 310/627/257 309/625/255
f 280/628/258 281/629/260 311/630/259
f 280/628/258 311/630/259 310/631/257
f 281/629/260 282/632/262 312/633/261
f 281/629/260 312/633/261 311/630/259
f 282/632/262 283/634/1 313/635/1
f 282/632/262 313/635/1 312/633/261
f 283/636/263 284/637/263 314/638/263
f 283/636/263 314/638/263 313/639/263
f 284/640/199 285/641/265 315/642/264
f 284/640/199 315/642/264 314/643/199
f 285/641/265 286/644/267 316/645/266
f 285/641/265 316/645/266 315/642/264
f 286/644/267 287/646/269 317/647/268
f 286/644/267 317/647/268 316/645/266
f 287/648/269 288/649/271 318/650/270
f 287/648/269 318/650/270 317/651/268
f 288/649/271 289/652/273 319/653/272
f 288/649/271 319/653/272 318/650/270
f 289/652/273 290/654/275 320/655/274
f 289/652/273 320/655/274 319/653/272
f 290/654/275 291/656/277 321/657/276
f 290/654/275 321/657/276 320/655/274
f 291/658/277 292/659/279 322/660/278
f 291/658/277 322/660/278 321/661/276
f 292/662/279 293/663/281 323/664/280
f 292/662/279 323/664/280 322/665/278
f 293/663/281 294/666/283 324/667/282
f 293/663/281 324/667/282 323/664/280
f 294/666/283 295/668/285 325/669/284
f 294/666/283 325/669/284 324/667/282
f 295/670/285 296/671/287 326/672/286
f 295/670/285 326/672/286 325/673/284
f 296/671/287 297/674/289 327/675/288
f 296/671/287 327/675/288 326/672/286
f 297/674/289 298/676/1 328/677/1
f 297/674/289 328/677/1 327/675/288
f 298/678/290 269/679/290 299/680/290
f 298/678/290 299/680/290 328/681/290
f 282/570/53 284/571/53 283/572/53
f 282/570/53 285/573/53 284/571/53
f 281/574/53 285/573/53 282/570/53
f 281/574/53 286/575/53 285/573/53
f 280/576/53 286/575/53 281/574/53
f 280/576/53 287/577/53 286/575/53
f 279/578/53 287/577/53 280/576/53
f 279/578/53 288/579/53 287/577/53
f 278/580/53 288/579/53 279/578/53
f 278/580/53 289/581/53 288/579/53
f 277/582/53 289/581/53 278/580/53
f 277/582/53 290/583/53 289/581/53
f 276/584/53 290/583/53 277/582/53
f 276/584/53 291/585/53 290/583/53
f 275/586/53 291/585/53 276/584/53
f 275/586/53 292/587/53 291/585/53
f 274/588/53 292/587/53 275/586/53
f 274/588/53 293/589/53 292/587/53
f 273/590/53 293/589/53 274/588/53
f 273/590/53 294/591/53 293/589/53
f 272/592/53 294/591/53 273/590/53
f 272/592/53 295/593/53 294/591/53
f 271/594/53 295/593/53 272/592/53
f 271/594/53 296/595/53 295/593/53
f 270/596/53 296/595/53 271/594/53
f 270/596/53 297/597/53 296/595/53
f 298/598/53 270/596/53 269/599/53
f 270/596/53 298/598/53 297/597/53
f 312/540/63 313/541/63 314/542/63
f 312/540/63 314/542/63 315/543/63
f 311/544/63 312/540/63 315/543/63
f 311/544/63 315/543/63 316/545/63
f 310/546/63 311/544/63 316/545/63
f 310/546/63 316/545/63 317/547/63
f 309/548/63 310/546/63 317/547/63
f 309/548/63 317/547/63 318/549/63
f 308/550/63 309/548/63 318/549/63
f 308/550/63 318/549/63 319/551/63
f 307/552/63 308/550/63 319/551/63
f 307/552/63 319/551/63 320/553/63
f 306/554/63 307/552/63 320/553/63
f 306/554/63 320/553/63 321/555/63
f 305/556/63 306/554/63 321/555/63
f 305/556/63 321/555/63 322/557/63
f 304/558/63 305/556/63 322/557/63
f 304/558/63 322/557/63 323/559/63
f 303/560/63 304/558/63 323/559/63
f 303/560/63 323/559/63 324/561/63
f 302/562/63 303/560/63 324/561/63
f 302/562/63 324/561/63 325/563/63
f 301/564/63 302/562/63 325/563/63
f 301/564/63 325/563/63 326/565/63
f 300/566/63 301/564/63 326/565/63
f 300/566/63 326/565/63 327/567/63
f 328/568/63 299/569/63 300/566/63
f 300/566/63 327/567/63 328/568/63
f 329/682/291 346/683/292 330/684/293
f 329/682/291 345/685/291 346/683/292
f 330/684/293 347/686/294 331/687/295
f 330/684/293 346/683/292 347/686/294
f 331/688/295 348/689/296 332/690/297
f 331/688/295 347/691/294 348/689/296
f 332/690/297 349/692/298 333/693/299
f 332/690/297 348/689/296 349/692/298
f 333/693/299 350/694/300 334/695/301
f 333/693/299 349/692/298 350/694/300
f 334/696/301 351/697/302 335/698/303
f 334/696/301 350/699/300 351/697/302
f 335/698/303 352/700/304 336/701/304
f 335/698/303 351/697/302 352/700/304
f 336/702/305 353/703/305 337/704/305
f 336/702/305 352/705/305 353/703/305
f 337/706/306 354/707/307 338/708/308
f 337/706/306 353/709/306 354/707/307
f 338/710/308 355/711/309 339/712/310
f 338/710/308 354/713/307 355/711/309
f 339/712/310 356/714/311 340/715/312
f 339/712/310 355/711/309 356/714/311
f 340/715/312 357/716/313 341/717/314
f 340/715/312 356/714/311 357/716/313
f 341/717/314 358/718/315 342/719/316
f 341/717/314 357/716/313 358/718/315
f 342/719/316 359/720/317 343/721/318
f 342/719/316 358/718/315 359/720/317
f 343/722/318 360/723/319 344/724/319
f 343/722/318 359/725/317 360/723/319
f 344/726/320 345/727/320 329/728/320
f 344/726/320 360/729/320 345/727/320
f 336/730/188 337/731/188 338/732/188
f 335/733/188 336/730/188 338/732/188
f 334/734/188 335/733/188 338/732/188
f 334/734/188 338/732/188 339/735/188
f 333/736/188 334/734/188 339/735/188
f 333/736/188 339/735/188 340/737/188
f 343/738/188 344/739/188 329/740/188
f 343/738/188 329/740/188 330/741/188
f 343/738/188 330/741/188 331/742/188
f 342/743/188 343/738/188 331/742/188
f 342/743/188 331/742/188 332/744/188
f 341/745/188 342/743/188 332/744/188
f 341/745/188 332/744/188 333/736/188
f 333/736/188 340/737/188 341/745/188
f 352/746/194 354/747/194 353/748/194
f 351/749/194 354/747/194 352/746/194
f 350/750/194 354/747/194 351/749/194
f 350/750/194 355/751/194 354/747/194
f 349/752/194 355/751/194 350/750/194
f 349/752/194 356/753/194 355/751/194
f 359/754/194 345/755/194 360/756/194
f 359/754/194 346/757/194 345/755/194
f 359/754/194 347/758/194 346/757/194
f 358/759/194 347/758/194 359/754/194
f 358/759/194 348/760/194 347/758/194
f 357/761/194 348/760/194 358/759/194
f 357/761/194 349/752/194 348/760/194
f 349/752/194 357/761/194 356/753/194
