# Titan_ThroatFold - BRZ-01 Titan head/collar mesh (assets/meshes/head/source/build.py)
# units: studs (Scale 1.7), +Y up, face toward -Z, centred on the bounding box
# weld to bone 'Chest' (MechChest) at bone.CFrame * CFrame.new(0.0000, 6.3811, -1.7952) * ImportRotation
# size 2.1542 x 1.2403 x 1.1424, role main
o Titan_ThroatFold
v -0.89760 0.62016 0.57120
v -0.89760 0.55488 0.27744
v -1.07712 0.07344 -0.57120
v -1.07712 -0.62016 -0.52224
v -1.07712 -0.22032 0.24480
v -1.07712 -0.22032 0.57120
v 0.89760 0.62016 0.57120
v 0.89760 0.55488 0.27744
v 1.07712 0.07344 -0.57120
v 1.07712 -0.62016 -0.52224
v 1.07712 -0.22032 0.24480
v 1.07712 -0.22032 0.57120
vt 0.22440 0.19612
vt -0.22440 0.12292
vt 0.22440 0.12292
vt -0.22440 0.19612
vt -0.26928 -0.12049
vt 0.26928 -0.12049
vt 0.26928 -0.02837
vt -0.26928 0.14546
vt 0.26928 0.14546
vt -0.26928 -0.02837
vt 0.26928 0.17586
vt -0.26928 -0.03856
vt 0.26928 -0.03856
vt -0.26928 0.17586
vt -0.26928 -0.11520
vt 0.26928 -0.11520
vt -0.26928 0.05508
vt 0.22440 -0.15504
vt -0.22440 -0.15504
vt 0.26928 0.05508
vt -0.14920 0.02237
vt -0.13634 0.19380
vt 0.05501 0.09498
vt 0.06353 -0.10337
vt 0.13659 0.09498
vt 0.13689 -0.11950
vt 0.14920 0.02237
vt -0.05501 0.09498
vt 0.13634 0.19380
vt -0.06353 -0.10337
vt -0.13659 0.09498
vt -0.13689 -0.11950
vn 0.0000 0.9762 -0.2169
vn 0.0000 0.9200 -0.3920
vn 0.0000 0.8871 -0.4616
vn 0.0000 0.8698 -0.4934
vn 0.0000 -0.0704 -0.9975
vn 0.0000 -0.8868 0.4622
vn 0.0000 -0.9187 0.3949
vn 0.0000 -0.9626 0.2711
vn 0.0000 -1.0000 0.0000
vn 0.0000 0.0000 1.0000
vn -0.9916 0.1217 0.0438
vn -1.0000 0.0000 0.0000
vn -0.9895 0.1403 0.0361
vn -0.9749 0.2201 0.0350
vn -0.9758 0.2173 -0.0229
vn -0.9769 0.2087 -0.0464
vn 0.9916 0.1217 0.0438
vn 0.9895 0.1403 0.0361
vn 1.0000 0.0000 0.0000
vn 0.9749 0.2201 0.0350
vn 0.9758 0.2173 -0.0229
vn 0.9769 0.2087 -0.0464
s off
f 1/1/1 8/2/2 2/3/3
f 1/1/1 7/4/1 8/2/2
f 2/3/3 9/5/4 3/6/4
f 2/3/3 8/2/2 9/5/4
f 3/7/5 10/8/5 4/9/5
f 3/7/5 9/10/5 10/8/5
f 4/11/6 11/12/7 5/13/8
f 4/11/6 10/14/6 11/12/7
f 5/13/8 12/15/9 6/16/9
f 5/13/8 11/12/7 12/15/9
f 6/17/10 7/18/10 1/19/10
f 6/17/10 12/20/10 7/18/10
f 3/21/11 4/22/12 5/23/13
f 2/24/14 3/21/11 5/23/13
f 2/24/14 5/23/13 6/25/15
f 1/26/16 2/24/14 6/25/15
f 9/27/17 11/28/18 10/29/19
f 8/30/20 11/28/18 9/27/17
f 8/30/20 12/31/21 11/28/18
f 7/32/22 12/31/21 8/30/20
