# Titan_HeadRecess - BRZ-01 Titan head/collar mesh (assets/meshes/head/source/build.py)
# units: studs (Scale 1.7), +Y up, face toward -Z, centred on the bounding box
# weld to bone 'Head' (MechHead) at bone.CFrame * CFrame.new(0.0000, 0.9792, -0.0830) * ImportRotation
# size 2.5214 x 1.4688 x 3.1469, role recess
o Titan_HeadRecess
v -0.88128 -0.38352 -0.95330
v 0.00000 -0.73440 -1.57346
v 0.00000 -0.38352 -1.57346
v -0.88128 -0.38352 -0.66770
v 0.00000 -0.38352 -1.28786
v 0.00000 -0.73440 -1.28786
v -0.91392 -0.07344 -0.95330
v -0.91392 -0.07344 -0.66770
v 0.88128 -0.38352 -0.95330
v 0.88128 -0.38352 -0.66770
v 0.91392 -0.07344 -0.95330
v 0.91392 -0.07344 -0.66770
v 1.16280 -0.68544 1.29886
v 1.16280 -0.19584 1.29886
v 1.16280 0.04492 1.26716
v 1.16280 0.26928 1.17423
v 1.16280 0.46194 1.02640
v 1.16280 0.60977 0.83374
v 1.16280 0.70270 0.60938
v 1.16280 0.73440 0.36862
v 1.16280 0.70270 0.12785
v 1.16280 0.60977 -0.09650
v 1.16280 0.46194 -0.28916
v 1.16280 0.26928 -0.43699
v 1.16280 0.04492 -0.52993
v 1.16280 -0.19584 -0.56162
v 1.16280 -0.68544 -0.56162
v 1.26072 -0.68544 1.29886
v 1.26072 -0.19584 1.29886
v 1.26072 0.04492 1.26716
v 1.26072 0.26928 1.17423
v 1.26072 0.46194 1.02640
v 1.26072 0.60977 0.83374
v 1.26072 0.70270 0.60938
v 1.26072 0.73440 0.36862
v 1.26072 0.70270 0.12785
v 1.26072 0.60977 -0.09650
v 1.26072 0.46194 -0.28916
v 1.26072 0.26928 -0.43699
v 1.26072 0.04492 -0.52993
v 1.26072 -0.19584 -0.56162
v 1.26072 -0.68544 -0.56162
v -1.16280 -0.68544 1.29886
v -1.16280 -0.19584 1.29886
v -1.16280 0.04492 1.26716
v -1.16280 0.26928 1.17423
v -1.16280 0.46194 1.02640
v -1.16280 0.60977 0.83374
v -1.16280 0.70270 0.60938
v -1.16280 0.73440 0.36862
v -1.16280 0.70270 0.12785
v -1.16280 0.60977 -0.09650
v -1.16280 0.46194 -0.28916
v -1.16280 0.26928 -0.43699
v -1.16280 0.04492 -0.52993
v -1.16280 -0.19584 -0.56162
v -1.16280 -0.68544 -0.56162
v -1.26072 -0.68544 1.29886
v -1.26072 -0.19584 1.29886
v -1.26072 0.04492 1.26716
v -1.26072 0.26928 1.17423
v -1.26072 0.46194 1.02640
v -1.26072 0.60977 0.83374
v -1.26072 0.70270 0.60938
v -1.26072 0.73440 0.36862
v -1.26072 0.70270 0.12785
v -1.26072 0.60977 -0.09650
v -1.26072 0.46194 -0.28916
v -1.26072 0.26928 -0.43699
v -1.26072 0.04492 -0.52993
v -1.26072 -0.19584 -0.56162
v -1.26072 -0.68544 -0.56162
v 1.17240 0.03264 1.32703
v 1.11010 0.03264 1.41933
v 0.94203 0.03264 1.53228
v 0.74427 0.03264 1.57346
v -0.74427 0.03264 1.57346
v -0.94203 0.03264 1.53228
v -1.11010 0.03264 1.41933
v -1.17240 0.03264 1.32703
v -0.99241 0.03264 1.16111
v -0.94184 0.03264 1.24152
v -0.79737 0.03264 1.33479
v -0.62454 0.03264 1.35994
v 0.62454 0.03264 1.35994
v 0.79737 0.03264 1.33479
v 0.94184 0.03264 1.24152
v 0.99241 0.03264 1.16111
v 1.17240 0.38352 1.32703
v 1.11010 0.38352 1.41933
v 0.94203 0.38352 1.53228
v 0.74427 0.38352 1.57346
v -0.74427 0.38352 1.57346
v -0.94203 0.38352 1.53228
v -1.11010 0.38352 1.41933
v -1.17240 0.38352 1.32703
v -0.99241 0.38352 1.16111
v -0.94184 0.38352 1.24152
v -0.79737 0.38352 1.33479
v -0.62454 0.38352 1.35994
v 0.62454 0.38352 1.35994
v 0.79737 0.38352 1.33479
v 0.94184 0.38352 1.24152
v 0.99241 0.38352 1.16111
vt 0.04128 0.08755
vt -0.22807 0.08216
vt -0.22982 0.16983
vt -0.08233 0.09002
vt 0.18877 0.17231
vt 0.18702 0.08464
vt 0.04951 0.01007
vt -0.09055 0.01255
vt 0.22807 0.08216
vt -0.04128 0.08755
vt 0.22982 0.16983
vt -0.18702 0.08464
vt -0.18877 0.17231
vt 0.08233 0.09002
vt -0.04951 0.01007
vt 0.09055 0.01255
vt 0.21047 -0.23833
vt -0.03081 -0.32197
vt -0.03081 -0.39337
vt 0.21047 -0.16693
vt -0.06791 0.39337
vt -0.06791 0.32197
vt 0.16923 0.23833
vt 0.16923 0.16693
vt -0.23833 0.07229
vt -0.16693 -0.00566
vt -0.23833 -0.00566
vt -0.16693 0.07229
vt 0.03081 -0.39337
vt 0.03081 -0.32197
vt -0.21047 -0.23833
vt -0.21047 -0.16693
vt 0.23833 -0.00566
vt 0.16693 0.07229
vt 0.23833 0.07229
vt 0.16693 -0.00566
vt -0.16923 0.23833
vt 0.06791 0.32197
vt 0.06791 0.39337
vt -0.16923 0.16693
vt 0.29070 0.21195
vt 0.31518 0.09058
vt 0.29070 0.09058
vt 0.31518 0.21195
vt 0.31518 0.02987
vt 0.29070 0.02987
vt 0.31518 -0.02876
vt 0.29070 -0.02876
vt -0.29070 0.19191
vt -0.31518 0.13327
vt -0.29070 0.13327
vt -0.31518 0.19191
vt -0.31518 0.07256
vt -0.29070 0.07256
vt -0.31518 0.01392
vt -0.29070 0.01392
vt -0.29070 0.15235
vt -0.31518 0.09215
vt -0.29070 0.09215
vt -0.31518 0.15235
vt -0.31518 0.03196
vt -0.29070 0.03196
vt -0.29070 0.13230
vt -0.31518 0.07366
vt -0.29070 0.07366
vt -0.31518 0.13230
vt -0.31518 0.01295
vt -0.29070 0.01295
vt -0.31518 -0.04569
vt -0.29070 -0.04569
vt -0.29070 -0.05261
vt -0.31518 0.00601
vt -0.29070 0.00601
vt -0.31518 -0.05261
vt -0.31518 0.06672
vt -0.29070 0.06672
vt -0.31518 0.18809
vt -0.29070 0.18809
vt -0.29070 0.14041
vt -0.31518 -0.32471
vt -0.29070 -0.32471
vt -0.31518 0.14041
vt -0.14041 0.17136
vt 0.32471 0.17136
vt 0.32471 0.04896
vt -0.14041 0.04896
vt -0.13248 -0.01123
vt -0.10925 -0.06732
vt -0.07229 -0.11548
vt -0.02413 -0.15244
vt 0.03196 -0.17568
vt 0.09215 -0.18360
vt 0.15235 -0.17568
vt 0.20843 -0.15244
vt 0.25660 -0.11548
vt 0.29356 -0.06732
vt 0.31679 -0.01123
vt 0.14041 0.17136
vt -0.32471 0.04896
vt -0.32471 0.17136
vt 0.14041 0.04896
vt 0.13248 -0.01123
vt 0.10925 -0.06732
vt 0.07229 -0.11548
vt 0.02413 -0.15244
vt -0.03196 -0.17568
vt -0.09215 -0.18360
vt -0.15235 -0.17568
vt -0.20843 -0.15244
vt -0.25660 -0.11548
vt -0.29356 -0.06732
vt -0.31679 -0.01123
vt -0.29070 0.21195
vt -0.29070 0.09058
vt -0.31518 0.09058
vt -0.31518 0.21195
vt -0.29070 0.02987
vt -0.31518 0.02987
vt -0.29070 -0.02876
vt -0.31518 -0.02876
vt 0.29070 0.19191
vt 0.29070 0.13327
vt 0.31518 0.13327
vt 0.31518 0.19191
vt 0.29070 0.07256
vt 0.31518 0.07256
vt 0.29070 0.01392
vt 0.31518 0.01392
vt 0.29070 0.15235
vt 0.29070 0.09215
vt 0.31518 0.09215
vt 0.31518 0.15235
vt 0.29070 0.03196
vt 0.31518 0.03196
vt 0.29070 0.13230
vt 0.29070 0.07366
vt 0.31518 0.07366
vt 0.31518 0.13230
vt 0.29070 0.01295
vt 0.31518 0.01295
vt 0.29070 -0.04569
vt 0.31518 -0.04569
vt 0.29070 -0.05261
vt 0.29070 0.00601
vt 0.31518 0.00601
vt 0.31518 -0.05261
vt 0.29070 0.06672
vt 0.31518 0.06672
vt 0.29070 0.18809
vt 0.31518 0.18809
vt 0.29070 0.14041
vt 0.29070 -0.32471
vt 0.31518 -0.32471
vt 0.31518 0.14041
vt -0.00185 -0.00816
vt -0.02883 -0.09588
vt -0.02883 -0.00816
vt -0.00185 -0.09588
vt -0.07899 -0.09588
vt -0.07899 -0.00816
vt 0.23551 -0.00816
vt 0.18607 -0.09588
vt 0.18607 -0.00816
vt 0.23551 -0.09588
vt -0.18607 -0.09588
vt -0.18607 -0.00816
vt -0.23551 -0.09588
vt -0.23551 -0.00816
vt 0.07899 -0.00816
vt 0.02883 -0.09588
vt 0.02883 -0.00816
vt 0.07899 -0.09588
vt 0.00185 -0.09588
vt 0.00185 -0.00816
vt 0.44037 -0.00816
vt 0.37917 -0.09588
vt 0.37917 -0.00816
vt 0.44037 -0.09588
vt -0.11364 -0.00816
vt -0.13739 -0.09588
vt -0.13739 -0.00816
vt -0.11364 -0.09588
vt 0.23546 -0.00816
vt 0.19934 -0.09588
vt 0.19934 -0.00816
vt 0.23546 -0.09588
vt 0.15613 -0.09588
vt 0.15613 -0.00816
vt -0.15613 -0.09588
vt -0.15613 -0.00816
vt -0.19934 -0.09588
vt -0.19934 -0.00816
vt -0.23546 -0.09588
vt -0.23546 -0.00816
vt 0.13739 -0.00816
vt 0.11364 -0.09588
vt 0.11364 -0.00816
vt 0.13739 -0.09588
vt -0.37917 -0.00816
vt -0.44037 -0.09588
vt -0.44037 -0.00816
vt -0.37917 -0.09588
vt -0.23546 -0.31038
vt -0.24810 -0.29028
vt -0.29310 -0.33176
vt -0.27752 -0.35483
vt -0.23551 -0.38307
vt -0.19934 -0.33370
vt -0.18607 -0.39337
vt -0.15613 -0.33999
vt 0.29310 -0.33176
vt 0.24810 -0.29028
vt 0.23546 -0.31038
vt 0.27752 -0.35483
vt 0.23551 -0.38307
vt 0.19934 -0.33370
vt 0.18607 -0.39337
vt 0.15613 -0.33999
vt -0.23546 0.31038
vt -0.29310 0.33176
vt -0.24810 0.29028
vt -0.27752 0.35483
vt -0.23551 0.38307
vt -0.19934 0.33370
vt -0.18607 0.39337
vt -0.15613 0.33999
vt 0.29310 0.33176
vt 0.23546 0.31038
vt 0.24810 0.29028
vt 0.27752 0.35483
vt 0.23551 0.38307
vt 0.19934 0.33370
vt 0.18607 0.39337
vt 0.15613 0.33999
vn -0.5753 -0.0284 -0.8175
vn -0.5755 0.0000 -0.8178
vn 0.5753 0.0284 0.8175
vn 0.5755 0.0000 0.8178
vn -0.5744 -0.0605 -0.8163
vn 0.5744 0.0605 0.8163
vn 0.5753 -0.0284 -0.8175
vn 0.5755 0.0000 -0.8178
vn -0.5753 0.0284 0.8175
vn -0.5755 0.0000 0.8178
vn 0.5744 -0.0605 -0.8163
vn -0.5744 0.0605 0.8163
vn 0.3213 0.9470 0.0000
vn -0.3699 -0.9291 0.0000
vn -0.9945 -0.1047 0.0000
vn -0.3213 0.9470 0.0000
vn 0.9945 -0.1047 0.0000
vn 0.3699 -0.9291 0.0000
vn 0.0000 0.0000 1.0000
vn 0.0000 0.0260 0.9997
vn 0.0000 0.0651 0.9979
vn 0.0000 0.2162 0.9763
vn 0.0000 0.3009 0.9536
vn 0.0000 0.4616 0.8871
vn 0.0000 0.5375 0.8433
vn 0.0000 0.6754 0.7374
vn 0.0000 0.7374 0.6754
vn 0.0000 0.8433 0.5375
vn 0.0000 0.8871 0.4616
vn 0.0000 0.9536 0.3009
vn 0.0000 0.9763 0.2162
vn 0.0000 0.9990 0.0438
vn 0.0000 0.9990 -0.0438
vn 0.0000 0.9763 -0.2162
vn 0.0000 0.9536 -0.3009
vn 0.0000 0.8871 -0.4616
vn 0.0000 0.8433 -0.5375
vn 0.0000 0.7374 -0.6754
vn 0.0000 0.6754 -0.7374
vn 0.0000 0.5375 -0.8433
vn 0.0000 0.4616 -0.8871
vn 0.0000 0.3009 -0.9536
vn 0.0000 0.2162 -0.9763
vn 0.0000 0.0651 -0.9979
vn 0.0000 0.0260 -0.9997
vn 0.0000 0.0000 -1.0000
vn 0.0000 -1.0000 0.0000
vn -1.0000 0.0000 0.0000
vn 1.0000 0.0000 0.0000
vn 0.8288 0.0000 0.5595
vn 0.7129 0.0000 0.7012
vn 0.6240 0.0000 0.7814
vn 0.4474 0.0000 0.8943
vn 0.3275 0.0000 0.9449
vn 0.0437 0.0000 0.9990
vn 0.0130 0.0000 0.9999
vn -0.0130 0.0000 0.9999
vn -0.0437 0.0000 0.9990
vn -0.3275 0.0000 0.9449
vn -0.4474 0.0000 0.8943
vn -0.6240 0.0000 0.7814
vn -0.7129 0.0000 0.7012
vn -0.8288 0.0000 0.5595
vn -0.6778 0.0000 -0.7352
vn 0.8465 0.0000 -0.5324
vn 0.7190 0.0000 -0.6950
vn 0.6181 0.0000 -0.7861
vn 0.4167 0.0000 -0.9090
vn 0.2811 0.0000 -0.9597
vn 0.0315 0.0000 -0.9995
vn 0.0094 0.0000 -1.0000
vn -0.0094 0.0000 -1.0000
vn -0.0315 0.0000 -0.9995
vn -0.2811 0.0000 -0.9597
vn -0.4167 0.0000 -0.9090
vn -0.6181 0.0000 -0.7861
vn -0.7190 0.0000 -0.6950
vn -0.8465 0.0000 -0.5324
vn 0.6778 0.0000 -0.7352
vn 0.0000 1.0000 0.0000
s off
f 1/1/1 3/2/1 2/3/2
f 4/4/3 6/5/4 5/6/3
f 1/1/1 7/7/5 3/2/1
f 4/4/3 5/6/3 8/8/6
f 3/9/7 9/10/7 2/11/8
f 5/12/9 6/13/10 10/14/9
f 9/10/7 3/9/7 11/15/11
f 10/14/9 12/16/12 5/12/9
f 7/17/13 5/18/13 3/19/13
f 7/17/13 8/20/13 5/18/13
f 2/21/14 6/22/14 1/23/14
f 1/23/14 6/22/14 4/24/14
f 1/25/15 8/26/15 7/27/15
f 1/25/15 4/28/15 8/26/15
f 3/29/16 5/30/16 11/31/16
f 11/31/16 5/30/16 12/32/16
f 11/33/17 10/34/17 9/35/17
f 11/33/17 12/36/17 10/34/17
f 9/37/18 6/38/18 2/39/18
f 9/37/18 10/40/18 6/38/18
f 13/41/19 29/42/20 14/43/21
f 13/41/19 28/44/19 29/42/20
f 14/43/21 30/45/22 15/46/23
f 14/43/21 29/42/20 30/45/22
f 15/46/23 31/47/24 16/48/25
f 15/46/23 30/45/22 31/47/24
f 16/49/25 32/50/26 17/51/27
f 16/49/25 31/52/24 32/50/26
f 17/51/27 33/53/28 18/54/29
f 17/51/27 32/50/26 33/53/28
f 18/54/29 34/55/30 19/56/31
f 18/54/29 33/53/28 34/55/30
f 19/57/31 35/58/32 20/59/33
f 19/57/31 34/60/30 35/58/32
f 20/59/33 36/61/34 21/62/35
f 20/59/33 35/58/32 36/61/34
f 21/63/35 37/64/36 22/65/37
f 21/63/35 36/66/34 37/64/36
f 22/65/37 38/67/38 23/68/39
f 22/65/37 37/64/36 38/67/38
f 23/68/39 39/69/40 24/70/41
f 23/68/39 38/67/38 39/69/40
f 24/71/41 40/72/42 25/73/43
f 24/71/41 39/74/40 40/72/42
f 25/73/43 41/75/44 26/76/45
f 25/73/43 40/72/42 41/75/44
f 26/76/45 42/77/46 27/78/46
f 26/76/45 41/75/44 42/77/46
f 27/79/47 28/80/47 13/81/47
f 27/79/47 42/82/47 28/80/47
f 27/83/48 13/84/48 14/85/48
f 26/86/48 27/83/48 14/85/48
f 25/87/48 26/86/48 14/85/48
f 24/88/48 25/87/48 14/85/48
f 23/89/48 24/88/48 14/85/48
f 22/90/48 23/89/48 14/85/48
f 21/91/48 22/90/48 14/85/48
f 20/92/48 21/91/48 14/85/48
f 19/93/48 20/92/48 14/85/48
f 18/94/48 19/93/48 14/85/48
f 17/95/48 18/94/48 14/85/48
f 16/96/48 17/95/48 14/85/48
f 14/85/48 15/97/48 16/96/48
f 42/98/49 29/99/49 28/100/49
f 41/101/49 29/99/49 42/98/49
f 40/102/49 29/99/49 41/101/49
f 39/103/49 29/99/49 40/102/49
f 38/104/49 29/99/49 39/103/49
f 37/105/49 29/99/49 38/104/49
f 36/106/49 29/99/49 37/105/49
f 35/107/49 29/99/49 36/106/49
f 34/108/49 29/99/49 35/107/49
f 33/109/49 29/99/49 34/108/49
f 32/110/49 29/99/49 33/109/49
f 31/111/49 29/99/49 32/110/49
f 29/99/49 31/111/49 30/112/49
f 43/113/19 44/114/21 59/115/20
f 43/113/19 59/115/20 58/116/19
f 44/114/21 45/117/23 60/118/22
f 44/114/21 60/118/22 59/115/20
f 45/117/23 46/119/25 61/120/24
f 45/117/23 61/120/24 60/118/22
f 46/121/25 47/122/27 62/123/26
f 46/121/25 62/123/26 61/124/24
f 47/122/27 48/125/29 63/126/28
f 47/122/27 63/126/28 62/123/26
f 48/125/29 49/127/31 64/128/30
f 48/125/29 64/128/30 63/126/28
f 49/129/31 50/130/33 65/131/32
f 49/129/31 65/131/32 64/132/30
f 50/130/33 51/133/35 66/134/34
f 50/130/33 66/134/34 65/131/32
f 51/135/35 52/136/37 67/137/36
f 51/135/35 67/137/36 66/138/34
f 52/136/37 53/139/39 68/140/38
f 52/136/37 68/140/38 67/137/36
f 53/139/39 54/141/41 69/142/40
f 53/139/39 69/142/40 68/140/38
f 54/143/41 55/144/43 70/145/42
f 54/143/41 70/145/42 69/146/40
f 55/144/43 56/147/45 71/148/44
f 55/144/43 71/148/44 70/145/42
f 56/147/45 57/149/46 72/150/46
f 56/147/45 72/150/46 71/148/44
f 57/151/47 43/152/47 58/153/47
f 57/151/47 58/153/47 72/154/47
f 57/98/49 44/99/49 43/100/49
f 56/101/49 44/99/49 57/98/49
f 55/102/49 44/99/49 56/101/49
f 54/103/49 44/99/49 55/102/49
f 53/104/49 44/99/49 54/103/49
f 52/105/49 44/99/49 53/104/49
f 51/106/49 44/99/49 52/105/49
f 50/107/49 44/99/49 51/106/49
f 49/108/49 44/99/49 50/107/49
f 48/109/49 44/99/49 49/108/49
f 47/110/49 44/99/49 48/109/49
f 46/111/49 44/99/49 47/110/49
f 44/99/49 46/111/49 45/112/49
f 72/83/48 58/84/48 59/85/48
f 71/86/48 72/83/48 59/85/48
f 70/87/48 71/86/48 59/85/48
f 69/88/48 70/87/48 59/85/48
f 68/89/48 69/88/48 59/85/48
f 67/90/48 68/89/48 59/85/48
f 66/91/48 67/90/48 59/85/48
f 65/92/48 66/91/48 59/85/48
f 64/93/48 65/92/48 59/85/48
f 63/94/48 64/93/48 59/85/48
f 62/95/48 63/94/48 59/85/48
f 61/96/48 62/95/48 59/85/48
f 59/85/48 60/97/48 61/96/48
f 73/155/50 90/156/51 74/157/52
f 73/155/50 89/158/50 90/156/51
f 74/157/52 91/159/53 75/160/54
f 74/157/52 90/156/51 91/159/53
f 75/161/54 92/162/55 76/163/56
f 75/161/54 91/164/53 92/162/55
f 76/163/56 93/165/57 77/166/58
f 76/163/56 92/162/55 93/165/57
f 77/166/58 94/167/59 78/168/60
f 77/166/58 93/165/57 94/167/59
f 78/169/60 95/170/61 79/171/62
f 78/169/60 94/172/59 95/170/61
f 79/171/62 96/173/63 80/174/63
f 79/171/62 95/170/61 96/173/63
f 80/175/64 97/176/64 81/177/64
f 80/175/64 96/178/64 97/176/64
f 81/179/65 98/180/66 82/181/67
f 81/179/65 97/182/65 98/180/66
f 82/183/67 99/184/68 83/185/69
f 82/183/67 98/186/66 99/184/68
f 83/185/69 100/187/70 84/188/71
f 83/185/69 99/184/68 100/187/70
f 84/188/71 101/189/72 85/190/73
f 84/188/71 100/187/70 101/189/72
f 85/190/73 102/191/74 86/192/75
f 85/190/73 101/189/72 102/191/74
f 86/192/75 103/193/76 87/194/77
f 86/192/75 102/191/74 103/193/76
f 87/195/77 104/196/78 88/197/78
f 87/195/77 103/198/76 104/196/78
f 88/199/79 89/200/79 73/201/79
f 88/199/79 104/202/79 89/200/79
f 87/203/47 88/204/47 73/205/47
f 87/203/47 73/205/47 74/206/47
f 87/203/47 74/206/47 75/207/47
f 86/208/47 87/203/47 75/207/47
f 86/208/47 75/207/47 76/209/47
f 85/210/47 86/208/47 76/209/47
f 80/211/47 81/212/47 82/213/47
f 79/214/47 80/211/47 82/213/47
f 78/215/47 79/214/47 82/213/47
f 78/215/47 82/213/47 83/216/47
f 77/217/47 78/215/47 83/216/47
f 77/217/47 83/216/47 84/218/47
f 85/210/47 76/209/47 77/217/47
f 77/217/47 84/218/47 85/210/47
f 103/219/80 89/220/80 104/221/80
f 103/219/80 90/222/80 89/220/80
f 103/219/80 91/223/80 90/222/80
f 102/224/80 91/223/80 103/219/80
f 102/224/80 92/225/80 91/223/80
f 101/226/80 92/225/80 102/224/80
f 96/227/80 98/228/80 97/229/80
f 95/230/80 98/228/80 96/227/80
f 94/231/80 98/228/80 95/230/80
f 94/231/80 99/232/80 98/228/80
f 93/233/80 99/232/80 94/231/80
f 93/233/80 100/234/80 99/232/80
f 101/226/80 93/233/80 92/225/80
f 93/233/80 101/226/80 100/234/80
