# Titan_GorgetRecess - BRZ-01 Titan head/collar mesh (assets/meshes/head/source/build.py)
# units: studs (Scale 1.7), +Y up, face toward -Z, centred on the bounding box
# weld to bone 'Collar' (MechHead) at bone.CFrame * CFrame.new(0.0000, 1.0608, 0.6528) * ImportRotation
# size 3.8189 x 2.6112 x 3.5904, role recess
o Titan_GorgetRecess
v 0.00000 -0.67027 -1.79520
v 0.00000 -0.78121 -1.79520
v 0.00000 -0.78121 -1.72992
v 0.00000 -0.67027 -1.72992
v 0.48960 -0.67027 -1.79520
v 0.48960 -0.78121 -1.79520
v 0.48960 -0.78121 -1.72992
v 0.48960 -0.67027 -1.72992
v 0.89760 -0.67027 -1.79520
v 0.89760 -0.78121 -1.79520
v 0.87149 -0.78121 -1.72992
v 0.87149 -0.67027 -1.72992
v 1.20768 -0.55512 -1.33824
v 1.20768 -0.55121 -1.33824
v 1.15546 -0.55121 -1.26643
v 1.15546 -0.55512 -1.26643
v 1.56672 -0.40540 -0.76704
v 1.56672 -0.24006 -0.76704
v 1.50470 -0.24006 -0.69197
v 1.50470 -0.40540 -0.69197
v 1.89312 -0.30590 -0.40800
v 1.89312 -0.02143 -0.40800
v 1.82784 -0.02143 -0.40800
v 1.82784 -0.30590 -0.40800
v 1.90944 -0.16320 0.04080
v 1.90944 0.34272 0.04080
v 1.84416 0.34272 0.04080
v 1.84416 -0.16320 0.04080
v 1.84438 -0.06526 0.49487
v 1.84438 0.49230 0.49487
v 1.78132 0.49230 0.47798
v 1.78132 -0.06526 0.47798
v 1.65362 0.02600 0.91800
v 1.65362 0.63168 0.91800
v 1.59709 0.63168 0.88536
v 1.59709 0.02600 0.88536
v 1.35018 0.10437 1.28135
v 1.35018 0.75137 1.28135
v 1.30402 0.75137 1.23519
v 1.30402 0.10437 1.23519
v 0.95472 0.16450 1.56015
v 0.95472 0.84321 1.56015
v 0.92208 0.84321 1.50362
v 0.92208 0.16450 1.50362
v 0.49420 0.20231 1.73542
v 0.49420 0.90095 1.73542
v 0.47730 0.90095 1.67236
v 0.47730 0.20231 1.67236
v 0.00000 0.21520 1.79520
v 0.00000 0.92064 1.79520
v 0.00000 0.92064 1.72992
v 0.00000 0.21520 1.72992
v -0.49420 0.20231 1.73542
v -0.49420 0.90095 1.73542
v -0.47730 0.90095 1.67236
v -0.47730 0.20231 1.67236
v -0.95472 0.16450 1.56015
v -0.95472 0.84321 1.56015
v -0.92208 0.84321 1.50362
v -0.92208 0.16450 1.50362
v -1.35018 0.10437 1.28135
v -1.35018 0.75137 1.28135
v -1.30402 0.75137 1.23519
v -1.30402 0.10437 1.23519
v -1.65362 0.02600 0.91800
v -1.65362 0.63168 0.91800
v -1.59709 0.63168 0.88536
v -1.59709 0.02600 0.88536
v -1.84438 -0.06526 0.49487
v -1.84438 0.49230 0.49487
v -1.78132 0.49230 0.47798
v -1.78132 -0.06526 0.47798
v -1.90944 -0.16320 0.04080
v -1.90944 0.34272 0.04080
v -1.84416 0.34272 0.04080
v -1.84416 -0.16320 0.04080
v -1.89312 -0.30590 -0.40800
v -1.89312 -0.02143 -0.40800
v -1.82784 -0.02143 -0.40800
v -1.82784 -0.30590 -0.40800
v -1.56672 -0.40540 -0.76704
v -1.56672 -0.24006 -0.76704
v -1.50470 -0.24006 -0.69197
v -1.50470 -0.40540 -0.69197
v -1.20768 -0.55512 -1.33824
v -1.20768 -0.55121 -1.33824
v -1.15546 -0.55121 -1.26643
v -1.15546 -0.55512 -1.26643
v -0.89760 -0.67027 -1.79520
v -0.89760 -0.78121 -1.79520
v -0.87149 -0.78121 -1.72992
v -0.87149 -0.67027 -1.72992
v -0.48960 -0.67027 -1.79520
v -0.48960 -0.78121 -1.79520
v -0.48960 -0.78121 -1.72992
v -0.48960 -0.67027 -1.72992
v 0.00000 -1.30560 -1.42800
v 0.44342 -1.30560 -1.34725
v 0.81934 -1.30560 -1.11730
v 1.07052 -1.30560 -0.77315
v 1.15872 -1.30560 -0.36720
v 1.07052 -1.30560 0.03875
v 0.81934 -1.30560 0.38290
v 0.44342 -1.30560 0.61285
v 0.00000 -1.30560 0.69360
v -0.44342 -1.30560 0.61285
v -0.81934 -1.30560 0.38290
v -1.07052 -1.30560 0.03875
v -1.15872 -1.30560 -0.36720
v -1.07052 -1.30560 -0.77315
v -0.81934 -1.30560 -1.11730
v -0.44342 -1.30560 -1.34725
v 0.00000 1.30560 -1.42800
v 0.44342 1.30560 -1.34725
v 0.81934 1.30560 -1.11730
v 1.07052 1.30560 -0.77315
v 1.15872 1.30560 -0.36720
v 1.07052 1.30560 0.03875
v 0.81934 1.30560 0.38290
v 0.44342 1.30560 0.61285
v 0.00000 1.30560 0.69360
v -0.44342 1.30560 0.61285
v -0.81934 1.30560 0.38290
v -1.07052 1.30560 0.03875
v -1.15872 1.30560 -0.36720
v -1.07052 1.30560 -0.77315
v -0.81934 1.30560 -1.11730
v -0.44342 1.30560 -1.34725
vt 0.00000 0.16757
vt 0.00000 0.19530
vt 0.12240 0.19530
vt 0.12240 0.16757
vt 0.00612 -0.48084
vt 0.00636 -0.46492
vt -0.11576 -0.46492
vt -0.11600 -0.48084
vt -0.12240 0.16757
vt -0.12240 0.19530
vt -0.00000 0.44936
vt -0.00000 0.46556
vt -0.12240 0.46556
vt -0.12240 0.44936
vt 0.22440 0.19530
vt 0.22440 0.16757
vt -0.21102 -0.46492
vt -0.21777 -0.48084
vt -0.21787 0.16757
vt -0.21787 0.19530
vt -0.21787 0.44936
vt -0.22440 0.46556
vt -0.24537 0.16757
vt -0.24537 0.19530
vt -0.10731 0.13780
vt 0.20939 0.16757
vt 0.07178 0.13780
vt 0.07178 0.13878
vt -0.29719 -0.35672
vt -0.28389 -0.33921
vt 0.25495 0.19530
vt 0.25495 0.16757
vt 0.11906 0.13780
vt -0.17409 0.16757
vt -0.04057 0.13878
vt -0.04057 0.13780
vt -0.30192 0.34871
vt -0.28886 0.33088
vt -0.09577 0.10135
vt -0.09577 0.06001
vt -0.38972 -0.20028
vt -0.37397 -0.18197
vt 0.12448 0.10135
vt 0.12448 0.06001
vt -0.39168 0.20247
vt -0.37618 0.18383
vt -0.21685 0.07648
vt -0.21685 0.00536
vt -0.45709 -0.10067
vt -0.47338 -0.10067
vt 0.23133 0.07648
vt 0.23133 0.00536
vt -0.45696 0.11038
vt -0.47328 0.11038
vt 0.13351 0.07648
vt 0.13351 0.00536
vt 0.02183 0.04080
vt 0.02183 -0.08568
vt -0.46545 0.02886
vt -0.48173 0.02886
vt -0.13178 0.00536
vt -0.13178 0.07648
vt -0.02009 0.04080
vt -0.02009 -0.08568
vt -0.46104 -0.00527
vt -0.47736 -0.00527
vt -0.09252 0.01632
vt -0.09252 -0.12307
vt -0.46627 0.14783
vt -0.45060 0.14371
vt 0.09000 0.01632
vt 0.09000 -0.12307
vt -0.46109 -0.12089
vt -0.44533 -0.11670
vt 0.20566 0.01632
vt 0.20566 -0.12307
vt 0.09427 -0.00650
vt 0.09427 -0.15792
vt -0.41940 0.25870
vt -0.40542 0.25074
vt -0.19927 -0.12307
vt -0.19927 0.01632
vt -0.09198 -0.00650
vt -0.09198 -0.15792
vt -0.41341 -0.22864
vt -0.39927 -0.22054
vt -0.02407 -0.02609
vt -0.02407 -0.18784
vt -0.34432 0.35390
vt -0.33298 0.34264
vt 0.02210 -0.02609
vt 0.02210 -0.18784
vt -0.33754 -0.32116
vt -0.32600 -0.30971
vt -0.14130 -0.04113
vt -0.14130 -0.21080
vt -0.24615 0.42695
vt -0.23822 0.41316
vt 0.13521 -0.04113
vt 0.13521 -0.21080
vt -0.23868 -0.39216
vt -0.23052 -0.37813
vt 0.28211 -0.04113
vt 0.28211 -0.21080
vt 0.17280 -0.05058
vt 0.17280 -0.22524
vt -0.13157 0.47287
vt -0.12759 0.45749
vt -0.27225 -0.21080
vt -0.27225 -0.04113
vt -0.16665 -0.05058
vt -0.16665 -0.22524
vt -0.12355 -0.43679
vt -0.11933 -0.42114
vt 0.05181 -0.05380
vt 0.05181 -0.23016
vt -0.00840 0.48853
vt -0.00864 0.47261
vt -0.04977 -0.05380
vt -0.04977 -0.23016
vt -0.00000 -0.45201
vt -0.00000 -0.43581
vt -0.07264 -0.22524
vt -0.07264 -0.05058
vt 0.11053 0.45749
vt 0.11497 0.47287
vt 0.07042 -0.22524
vt 0.07042 -0.05058
vt 0.11933 -0.42114
vt 0.12355 -0.43679
vt -0.19206 -0.21080
vt -0.19206 -0.04113
vt 0.22179 0.41316
vt 0.23014 0.42695
vt 0.18573 -0.21080
vt 0.18573 -0.04113
vt 0.23052 -0.37813
vt 0.23868 -0.39216
vt -0.29831 -0.18784
vt -0.29831 -0.02609
vt 0.31757 0.34264
vt 0.32925 0.35390
vt 0.28830 -0.18784
vt 0.28830 -0.02609
vt 0.32600 -0.30971
vt 0.33754 -0.32116
vt 0.14659 -0.02609
vt 0.14659 -0.18784
vt 0.03213 -0.15792
vt 0.03213 -0.00650
vt 0.39133 0.25074
vt 0.40555 0.25870
vt -0.14053 -0.18784
vt -0.14053 -0.02609
vt -0.03020 -0.15792
vt -0.03020 -0.00650
vt 0.39927 -0.22054
vt 0.41341 -0.22864
vt -0.08389 -0.12307
vt -0.08389 0.01632
vt 0.43806 0.14371
vt 0.45385 0.14783
vt 0.08157 -0.12307
vt 0.08157 0.01632
vt 0.44533 -0.11670
vt 0.46109 -0.12089
vt -0.19357 -0.08568
vt -0.19357 0.04080
vt 0.45456 0.02886
vt 0.47084 0.02886
vt 0.18714 -0.08568
vt 0.18714 0.04080
vt 0.46104 -0.00527
vt 0.47736 -0.00527
vt 0.02754 0.04080
vt 0.02754 -0.08568
vt -0.08473 0.00536
vt -0.08473 0.07648
vt 0.47106 -0.10067
vt 0.45478 -0.10067
vt -0.02695 -0.08568
vt -0.02695 0.04080
vt 0.08533 0.00536
vt 0.08533 0.07648
vt 0.47328 0.11038
vt 0.45696 0.11038
vt 0.21685 0.07648
vt 0.21685 0.00536
vt 0.09577 0.06001
vt 0.09577 0.10135
vt 0.39189 -0.20028
vt 0.43505 -0.09958
vt 0.34775 -0.18281
vt 0.36407 -0.20086
vt -0.23133 0.00536
vt -0.23133 0.07648
vt -0.12448 0.06001
vt -0.12448 0.10135
vt 0.39168 0.20247
vt 0.37618 0.18383
vt -0.07178 0.13780
vt -0.07178 0.13878
vt 0.25350 -0.34222
vt 0.26745 -0.35949
vt 0.04057 0.13780
vt 0.04057 0.13878
vt 0.28886 0.33088
vt 0.30192 0.34871
vt -0.20939 0.16757
vt 0.10731 0.13780
vt 0.24537 0.19530
vt 0.24537 0.16757
vt 0.17875 -0.46940
vt 0.18644 -0.48510
vt 0.17409 0.16757
vt -0.11906 0.13780
vt -0.25495 0.16757
vt -0.25495 0.19530
vt 0.21787 0.44936
vt 0.22440 0.46556
vt -0.22440 0.16757
vt -0.22440 0.19530
vt 0.23002 -0.48084
vt 0.22375 -0.46492
vt 0.12825 -0.48084
vt 0.12849 -0.46492
vt 0.21787 0.19530
vt 0.21787 0.16757
vt 0.12240 0.46556
vt 0.12240 0.44936
vt -0.06396 0.32640
vt -0.16940 -0.32640
vt -0.16940 0.32640
vt -0.06396 -0.32640
vt 0.14567 0.32640
vt 0.03753 -0.32640
vt 0.03753 0.32640
vt 0.14567 -0.32640
vt -0.06688 -0.32640
vt -0.06688 0.32640
vt 0.19329 0.32640
vt 0.09180 -0.32640
vt 0.09180 0.32640
vt 0.19329 -0.32640
vt -0.00969 -0.32640
vt -0.00969 0.32640
vt 0.19086 0.32640
vt 0.08644 -0.32640
vt 0.08644 0.32640
vt 0.19086 -0.32640
vt -0.02169 -0.32640
vt -0.02169 0.32640
vt 0.13651 0.32640
vt 0.03107 -0.32640
vt 0.03107 0.32640
vt 0.13651 -0.32640
vt -0.08161 -0.32640
vt -0.08161 0.32640
vt -0.18437 -0.32640
vt -0.18437 0.32640
vt 0.00278 0.32640
vt -0.10150 -0.32640
vt -0.10150 0.32640
vt 0.00278 -0.32640
vt -0.20305 -0.32640
vt -0.20305 0.32640
vt 0.03577 0.32640
vt -0.06578 -0.32640
vt -0.06578 0.32640
vt 0.03577 -0.32640
vt -0.17005 -0.32640
vt -0.17005 0.32640
vt 0.15148 0.32640
vt 0.04872 -0.32640
vt 0.04872 0.32640
vt 0.15148 -0.32640
vt -0.26763 0.19329
vt -0.28968 0.09180
vt -0.26763 -0.00969
vt -0.20483 0.27932
vt -0.20483 -0.09572
vt -0.11086 0.33681
vt -0.11086 -0.15321
vt -0.00000 -0.17340
vt 0.00000 0.35700
vt 0.11086 0.33681
vt 0.11086 -0.15321
vt 0.20483 -0.09572
vt 0.20483 0.27932
vt 0.26763 0.19329
vt 0.26763 -0.00969
vt 0.28968 0.09180
vt -0.26763 -0.19329
vt -0.26763 0.00969
vt -0.28968 -0.09180
vt -0.20483 -0.27932
vt -0.20483 0.09572
vt -0.11086 -0.33681
vt -0.11086 0.15321
vt -0.00000 0.17340
vt 0.00000 -0.35700
vt 0.11086 -0.33681
vt 0.11086 0.15321
vt 0.20483 0.09572
vt 0.20483 -0.27932
vt 0.26763 -0.19329
vt 0.26763 0.00969
vt 0.28968 -0.09180
vn 0.0000 0.0000 1.0000
vn 0.0000 1.0000 0.0000
vn 0.0000 0.0000 -1.0000
vn 0.0000 -1.0000 0.0000
vn -0.2364 0.9622 -0.1351
vn -0.2462 0.9642 -0.0985
vn 0.1218 -0.9901 0.0696
vn 0.1266 -0.9907 0.0506
vn -0.8275 0.0000 0.5615
vn 0.8275 0.0000 -0.5615
vn 0.8463 0.0000 -0.5327
vn 0.8381 0.0000 -0.5455
vn -0.3665 0.9007 -0.2331
vn -0.3457 0.9004 -0.2642
vn 0.8527 0.0000 -0.5224
vn -0.8527 0.0000 0.5224
vn -0.8537 0.0000 0.5208
vn -0.8544 0.0000 0.5195
vn 0.1950 -0.9730 0.1238
vn 0.1818 -0.9735 0.1389
vn 0.8057 0.0000 -0.5924
vn 0.7787 0.0000 -0.6273
vn -0.3057 0.8996 -0.3119
vn -0.3433 0.8954 -0.2836
vn -0.7883 0.0000 0.6153
vn -0.7389 0.0000 0.6738
vn 0.1571 -0.9747 0.1588
vn 0.1757 -0.9737 0.1451
vn 0.7399 0.0000 -0.6727
vn -0.1506 0.8679 -0.4734
vn 0.0000 0.7986 -0.6018
vn -0.6601 0.0000 0.7512
vn 0.0767 -0.9712 0.2257
vn 0.0000 -0.9562 0.2929
vn 0.9993 0.0000 -0.0363
vn 0.9994 0.0000 0.0342
vn 0.9963 0.0000 0.0855
vn 0.0188 0.8682 -0.4958
vn 0.0000 0.8692 -0.4945
vn -0.9993 0.0000 0.0363
vn -0.9995 0.0000 -0.0328
vn -0.9964 0.0000 -0.0843
vn -0.0137 -0.9661 0.2579
vn 0.0000 -0.9663 0.2575
vn 0.9714 0.0000 0.2372
vn 0.9449 0.0000 0.3273
vn 0.0527 0.9518 -0.3021
vn 0.1027 0.9533 -0.2841
vn -0.9713 0.0000 -0.2380
vn -0.9446 0.0000 -0.3282
vn -0.0355 -0.9785 0.2033
vn -0.0690 -0.9791 0.1911
vn 0.8689 0.0000 0.4949
vn 0.8205 0.0000 0.5716
vn 0.1162 0.9608 -0.2519
vn 0.1512 0.9641 -0.2181
vn -0.8683 0.0000 -0.4961
vn -0.8197 0.0000 -0.5728
vn -0.0778 -0.9826 0.1687
vn -0.1010 -0.9841 0.1458
vn 0.7069 0.0000 0.7073
vn 0.6428 0.0000 0.7660
vn 0.1458 0.9735 -0.1764
vn 0.1604 0.9775 -0.1369
vn -0.7058 0.0000 -0.7085
vn -0.6416 0.0000 -0.7670
vn -0.0970 -0.9884 0.1172
vn -0.1064 -0.9902 0.0908
vn 0.5042 0.0000 0.8636
vn 0.4306 0.0000 0.9026
vn 0.1343 0.9862 -0.0965
vn 0.1287 0.9897 -0.0623
vn -0.5030 0.0000 -0.8643
vn -0.4295 0.0000 -0.9031
vn -0.0886 -0.9940 0.0637
vn -0.0848 -0.9956 0.0411
vn 0.2777 0.0000 0.9607
vn 0.1991 0.0000 0.9800
vn 0.0855 0.9958 -0.0335
vn 0.0653 0.9978 -0.0139
vn -0.2769 0.0000 -0.9609
vn -0.1985 0.0000 -0.9801
vn -0.0561 -0.9982 0.0220
vn -0.0428 -0.9990 0.0091
vn 0.0000 1.0000 -0.0053
vn -0.0000 -1.0000 0.0034
vn -0.1991 0.0000 0.9800
vn -0.2777 0.0000 0.9607
vn -0.0653 0.9978 -0.0139
vn -0.0855 0.9958 -0.0335
vn 0.1985 0.0000 -0.9801
vn 0.2769 0.0000 -0.9609
vn 0.0428 -0.9990 0.0091
vn 0.0561 -0.9982 0.0220
vn -0.4306 0.0000 0.9026
vn -0.5042 0.0000 0.8636
vn -0.1287 0.9897 -0.0623
vn -0.1343 0.9862 -0.0965
vn 0.4295 0.0000 -0.9031
vn 0.5030 0.0000 -0.8643
vn 0.0848 -0.9956 0.0411
vn 0.0886 -0.9940 0.0637
vn -0.6428 0.0000 0.7660
vn -0.7069 0.0000 0.7073
vn -0.1604 0.9775 -0.1369
vn -0.1458 0.9735 -0.1764
vn 0.6416 0.0000 -0.7670
vn 0.7058 0.0000 -0.7085
vn 0.1064 -0.9902 0.0908
vn 0.0970 -0.9884 0.1172
vn -0.8205 0.0000 0.5716
vn -0.8689 0.0000 0.4949
vn -0.1512 0.9641 -0.2181
vn -0.1162 0.9608 -0.2519
vn 0.8197 0.0000 -0.5728
vn 0.8683 0.0000 -0.4961
vn 0.1010 -0.9841 0.1458
vn 0.0778 -0.9826 0.1687
vn -0.9449 0.0000 0.3273
vn -0.9714 0.0000 0.2372
vn -0.1027 0.9533 -0.2841
vn -0.0527 0.9518 -0.3021
vn 0.9446 0.0000 -0.3282
vn 0.9713 0.0000 -0.2380
vn 0.0690 -0.9791 0.1911
vn 0.0355 -0.9785 0.2033
vn -0.9963 0.0000 0.0855
vn -0.9994 0.0000 0.0342
vn -0.0188 0.8682 -0.4958
vn 0.9964 0.0000 -0.0843
vn 0.9995 0.0000 -0.0328
vn 0.0137 -0.9661 0.2579
vn -0.9993 0.0000 -0.0363
vn 0.1506 0.8679 -0.4734
vn 0.9993 0.0000 0.0363
vn -0.0767 -0.9712 0.2257
vn -0.7399 0.0000 -0.6727
vn -0.7787 0.0000 -0.6273
vn -0.8057 0.0000 -0.5924
vn 0.3057 0.8996 -0.3119
vn 0.3433 0.8954 -0.2836
vn 0.6601 0.0000 0.7512
vn 0.7389 0.0000 0.6738
vn 0.7883 0.0000 0.6153
vn -0.1571 -0.9747 0.1588
vn -0.1757 -0.9737 0.1451
vn -0.8463 0.0000 -0.5327
vn -0.8381 0.0000 -0.5455
vn 0.3457 0.9004 -0.2642
vn 0.3665 0.9007 -0.2331
vn 0.8544 0.0000 0.5195
vn 0.8537 0.0000 0.5208
vn -0.1818 -0.9735 0.1389
vn -0.1950 -0.9730 0.1238
vn -0.8275 0.0000 -0.5615
vn 0.8275 0.0000 0.5615
vn 0.2364 0.9622 -0.1351
vn 0.2462 0.9642 -0.0985
vn 0.8527 0.0000 0.5224
vn -0.8527 0.0000 -0.5224
vn -0.1218 -0.9901 0.0696
vn -0.1266 -0.9907 0.0506
vn 0.0606 0.0000 -0.9982
vn 0.2961 0.0000 -0.9552
vn 0.4121 0.0000 -0.9111
vn -0.0606 0.0000 -0.9982
vn 0.6255 0.0000 -0.7802
vn 0.7227 0.0000 -0.6912
vn 0.8800 0.0000 -0.4749
vn 0.9379 0.0000 -0.3469
vn 0.9974 0.0000 -0.0722
vn 0.9974 0.0000 0.0722
vn 0.9379 0.0000 0.3469
vn 0.8800 0.0000 0.4749
vn 0.7227 0.0000 0.6912
vn 0.6255 0.0000 0.7802
vn 0.4121 0.0000 0.9111
vn 0.2961 0.0000 0.9552
vn 0.0606 0.0000 0.9982
vn -0.0606 0.0000 0.9982
vn -0.2961 0.0000 0.9552
vn -0.4121 0.0000 0.9111
vn -0.6255 0.0000 0.7802
vn -0.7227 0.0000 0.6912
vn -0.8800 0.0000 0.4749
vn -0.9379 0.0000 0.3469
vn -0.9974 0.0000 0.0722
vn -0.9974 0.0000 -0.0722
vn -0.9379 0.0000 -0.3469
vn -0.8800 0.0000 -0.4749
vn -0.7227 0.0000 -0.6912
vn -0.6255 0.0000 -0.7802
vn -0.4121 0.0000 -0.9111
vn -0.2961 0.0000 -0.9552
s off
f 1/1/1 2/2/1 6/3/1
f 1/1/1 6/3/1 5/4/1
f 2/5/2 3/6/2 7/7/2
f 2/5/2 7/7/2 6/8/2
f 3/2/3 4/1/3 8/9/3
f 3/2/3 8/9/3 7/10/3
f 4/11/4 1/12/4 5/13/4
f 4/11/4 5/13/4 8/14/4
f 5/4/1 6/3/1 10/15/1
f 5/4/1 10/15/1 9/16/1
f 6/8/2 7/7/2 11/17/5
f 6/8/2 11/17/5 10/18/6
f 7/10/3 8/9/3 12/19/3
f 7/10/3 12/19/3 11/20/3
f 8/14/4 5/13/4 12/21/7
f 5/13/4 9/22/8 12/21/7
f 9/23/9 10/24/9 14/25/9
f 9/26/10 14/27/11 13/28/12
f 10/18/6 11/17/5 14/29/13
f 11/17/5 15/30/14 14/29/13
f 11/31/15 12/32/15 15/33/15
f 12/34/16 16/35/17 15/36/18
f 12/21/7 9/22/8 13/37/19
f 12/21/7 13/37/19 16/38/20
f 13/28/12 14/27/11 17/39/21
f 14/27/11 18/40/22 17/39/21
f 14/29/13 15/30/14 18/41/23
f 15/30/14 19/42/24 18/41/23
f 15/36/18 16/35/17 20/43/25
f 15/36/18 20/43/25 19/44/26
f 16/38/20 13/37/19 17/45/27
f 16/38/20 17/45/27 20/46/28
f 17/39/21 18/40/22 21/47/29
f 18/40/22 22/48/29 21/47/29
f 18/41/23 19/42/24 23/49/30
f 18/41/23 23/49/30 22/50/31
f 19/44/26 20/43/25 24/51/32
f 19/44/26 24/51/32 23/52/32
f 20/46/28 17/45/27 24/53/33
f 17/45/27 21/54/34 24/53/33
f 21/55/35 22/56/35 25/57/36
f 22/56/35 26/58/37 25/57/36
f 22/50/31 23/49/30 27/59/38
f 22/50/31 27/59/38 26/60/39
f 23/61/40 24/62/40 28/63/41
f 23/61/40 28/63/41 27/64/42
f 24/53/33 21/54/34 28/65/43
f 21/54/34 25/66/44 28/65/43
f 25/57/36 26/58/37 29/67/45
f 26/58/37 30/68/46 29/67/45
f 26/60/39 27/59/38 30/69/47
f 27/59/38 31/70/48 30/69/47
f 27/64/42 28/63/41 32/71/49
f 27/64/42 32/71/49 31/72/50
f 28/65/43 25/66/44 29/73/51
f 28/65/43 29/73/51 32/74/52
f 29/75/45 30/76/46 33/77/53
f 30/76/46 34/78/54 33/77/53
f 30/69/47 31/70/48 34/79/55
f 31/70/48 35/80/56 34/79/55
f 31/81/50 32/82/49 36/83/57
f 31/81/50 36/83/57 35/84/58
f 32/74/52 29/73/51 33/85/59
f 32/74/52 33/85/59 36/86/60
f 33/77/53 34/78/54 37/87/61
f 34/78/54 38/88/62 37/87/61
f 34/79/55 35/80/56 38/89/63
f 35/80/56 39/90/64 38/89/63
f 35/84/58 36/83/57 40/91/65
f 35/84/58 40/91/65 39/92/66
f 36/86/60 33/85/59 37/93/67
f 36/86/60 37/93/67 40/94/68
f 37/87/61 38/88/62 41/95/69
f 38/88/62 42/96/70 41/95/69
f 38/89/63 39/90/64 42/97/71
f 39/90/64 43/98/72 42/97/71
f 39/92/66 40/91/65 44/99/73
f 39/92/66 44/99/73 43/100/74
f 40/94/68 37/93/67 41/101/75
f 40/94/68 41/101/75 44/102/76
f 41/103/69 42/104/70 45/105/77
f 42/104/70 46/106/78 45/105/77
f 42/97/71 43/98/72 46/107/79
f 43/98/72 47/108/80 46/107/79
f 43/109/74 44/110/73 48/111/81
f 43/109/74 48/111/81 47/112/82
f 44/102/76 41/101/75 45/113/83
f 44/102/76 45/113/83 48/114/84
f 45/105/77 46/106/78 49/115/1
f 46/106/78 50/116/1 49/115/1
f 46/107/79 47/108/80 50/117/85
f 47/108/80 51/118/2 50/117/85
f 47/112/82 48/111/81 52/119/3
f 47/112/82 52/119/3 51/120/3
f 48/114/84 45/113/83 49/121/86
f 48/114/84 49/121/86 52/122/4
f 49/115/1 50/116/1 54/123/87
f 49/115/1 54/123/87 53/124/88
f 50/117/85 51/118/2 55/125/89
f 50/117/85 55/125/89 54/126/90
f 51/120/3 52/119/3 55/127/91
f 52/119/3 56/128/92 55/127/91
f 52/122/4 49/121/86 56/129/93
f 49/121/86 53/130/94 56/129/93
f 53/124/88 54/123/87 58/131/95
f 53/124/88 58/131/95 57/132/96
f 54/126/90 55/125/89 59/133/97
f 54/126/90 59/133/97 58/134/98
f 55/127/91 56/128/92 59/135/99
f 56/128/92 60/136/100 59/135/99
f 56/129/93 53/130/94 60/137/101
f 53/130/94 57/138/102 60/137/101
f 57/132/96 58/131/95 62/139/103
f 57/132/96 62/139/103 61/140/104
f 58/134/98 59/133/97 63/141/105
f 58/134/98 63/141/105 62/142/106
f 59/135/99 60/136/100 63/143/107
f 60/136/100 64/144/108 63/143/107
f 60/137/101 57/138/102 64/145/109
f 57/138/102 61/146/110 64/145/109
f 61/147/104 62/148/103 66/149/111
f 61/147/104 66/149/111 65/150/112
f 62/142/106 63/141/105 67/151/113
f 62/142/106 67/151/113 66/152/114
f 63/153/107 64/154/108 67/155/115
f 64/154/108 68/156/116 67/155/115
f 64/145/109 61/146/110 68/157/117
f 61/146/110 65/158/118 68/157/117
f 65/150/112 66/149/111 70/159/119
f 65/150/112 70/159/119 69/160/120
f 66/152/114 67/151/113 71/161/121
f 66/152/114 71/161/121 70/162/122
f 67/155/115 68/156/116 71/163/123
f 68/156/116 72/164/124 71/163/123
f 68/157/117 65/158/118 72/165/125
f 65/158/118 69/166/126 72/165/125
f 69/160/120 70/159/119 74/167/127
f 69/160/120 74/167/127 73/168/128
f 70/162/122 71/161/121 75/169/129
f 70/162/122 75/169/129 74/170/39
f 71/163/123 72/164/124 75/171/130
f 72/164/124 76/172/131 75/171/130
f 72/165/125 69/166/126 76/173/132
f 69/166/126 73/174/44 76/173/132
f 73/175/128 74/176/127 78/177/133
f 73/175/128 78/177/133 77/178/133
f 74/170/39 75/169/129 78/179/31
f 75/169/129 79/180/134 78/179/31
f 75/181/130 76/182/131 79/183/135
f 76/182/131 80/184/135 79/183/135
f 76/173/132 73/174/44 77/185/34
f 76/173/132 77/185/34 80/186/136
f 77/187/137 78/188/137 82/189/138
f 77/187/137 82/189/138 81/190/139
f 78/179/31 79/180/134 82/191/140
f 79/192/134 83/193/141 82/194/140
f 79/195/142 80/196/142 83/197/143
f 80/196/142 84/198/144 83/197/143
f 80/186/136 77/185/34 81/199/145
f 80/186/136 81/199/145 84/200/146
f 81/190/139 82/189/138 86/201/147
f 81/190/139 86/201/147 85/202/148
f 82/194/140 83/193/141 87/203/149
f 82/194/140 87/203/149 86/204/150
f 83/197/143 84/198/144 87/205/151
f 84/198/144 88/206/152 87/205/151
f 84/200/146 81/199/145 88/207/153
f 81/199/145 85/208/154 88/207/153
f 85/202/148 86/201/147 89/209/155
f 86/210/156 90/211/156 89/212/156
f 86/204/150 87/203/149 91/213/157
f 86/204/150 91/213/157 90/214/158
f 87/205/151 88/206/152 92/215/159
f 87/216/160 92/217/160 91/218/160
f 88/207/153 85/208/154 92/219/161
f 85/208/154 89/220/162 92/219/161
f 89/221/1 90/222/1 94/10/1
f 89/221/1 94/10/1 93/9/1
f 90/223/158 91/224/157 94/225/2
f 91/224/157 95/226/2 94/225/2
f 91/227/3 92/228/3 96/4/3
f 91/227/3 96/4/3 95/3/3
f 92/219/161 89/220/162 93/229/4
f 92/219/161 93/229/4 96/230/4
f 93/9/1 94/10/1 2/2/1
f 93/9/1 2/2/1 1/1/1
f 94/225/2 95/226/2 3/6/2
f 94/225/2 3/6/2 2/5/2
f 95/3/3 96/4/3 4/1/3
f 95/3/3 4/1/3 3/2/3
f 96/230/4 93/229/4 1/12/4
f 96/230/4 1/12/4 4/11/4
f 97/231/163 114/232/164 98/233/165
f 97/231/163 113/234/166 114/232/164
f 98/235/165 115/236/167 99/237/168
f 98/235/165 114/238/164 115/236/167
f 99/237/168 116/239/169 100/240/170
f 99/237/168 115/236/167 116/239/169
f 100/241/170 117/242/171 101/243/172
f 100/241/170 116/244/169 117/242/171
f 101/243/172 118/245/173 102/246/174
f 101/243/172 117/242/171 118/245/173
f 102/247/174 119/248/175 103/249/176
f 102/247/174 118/250/173 119/248/175
f 103/249/176 120/251/177 104/252/178
f 103/249/176 119/248/175 120/251/177
f 104/253/178 121/254/179 105/255/180
f 104/253/178 120/256/177 121/254/179
f 105/255/180 122/257/181 106/258/182
f 105/255/180 121/254/179 122/257/181
f 106/258/182 123/259/183 107/260/184
f 106/258/182 122/257/181 123/259/183
f 107/261/184 124/262/185 108/263/186
f 107/261/184 123/264/183 124/262/185
f 108/263/186 125/265/187 109/266/188
f 108/263/186 124/262/185 125/265/187
f 109/267/188 126/268/189 110/269/190
f 109/267/188 125/270/187 126/268/189
f 110/269/190 127/271/191 111/272/192
f 110/269/190 126/268/189 127/271/191
f 111/273/192 128/274/193 112/275/194
f 111/273/192 127/276/191 128/274/193
f 112/275/194 113/234/166 97/231/163
f 112/275/194 128/274/193 113/234/166
f 100/277/4 101/278/4 102/279/4
f 99/280/4 100/277/4 102/279/4
f 99/280/4 102/279/4 103/281/4
f 98/282/4 99/280/4 103/281/4
f 98/282/4 103/281/4 104/283/4
f 98/282/4 104/283/4 105/284/4
f 97/285/4 98/282/4 105/284/4
f 112/286/4 97/285/4 105/284/4
f 112/286/4 105/284/4 106/287/4
f 112/286/4 106/287/4 107/288/4
f 111/289/4 112/286/4 107/288/4
f 110/290/4 111/289/4 107/288/4
f 110/290/4 107/288/4 108/291/4
f 108/291/4 109/292/4 110/290/4
f 116/293/2 118/294/2 117/295/2
f 115/296/2 118/294/2 116/293/2
f 115/296/2 119/297/2 118/294/2
f 114/298/2 119/297/2 115/296/2
f 114/298/2 120/299/2 119/297/2
f 114/298/2 121/300/2 120/299/2
f 113/301/2 121/300/2 114/298/2
f 128/302/2 121/300/2 113/301/2
f 128/302/2 122/303/2 121/300/2
f 128/302/2 123/304/2 122/303/2
f 127/305/2 123/304/2 128/302/2
f 126/306/2 123/304/2 127/305/2
f 126/306/2 124/307/2 123/304/2
f 124/307/2 126/306/2 125/308/2
