# Titan_HeadVisor - BRZ-01 Titan head/collar mesh (assets/meshes/head/source/build.py)
# units: studs (Scale 1.7), +Y up, face toward -Z, centred on the bounding box
# weld to bone 'Head' (MechHead) at bone.CFrame * CFrame.new(0.0000, 0.5467, -1.3250) * ImportRotation
# size 1.6157 x 0.4896 x 0.7119, role glow
o Titan_HeadVisor
v -0.80784 0.08976 0.25802
v 0.00000 -0.24480 -0.35594
v 0.00000 -0.04896 -0.35594
v -0.80784 0.08976 0.35594
v 0.00000 -0.04896 -0.25802
v 0.00000 -0.24480 -0.25802
v -0.80784 0.24480 0.25802
v -0.80784 0.24480 0.35594
v 0.80784 0.08976 0.25802
v 0.80784 0.08976 0.35594
v 0.80784 0.24480 0.25802
v 0.80784 0.24480 0.35594
vt 0.19982 -0.02244
vt -0.05384 0.01224
vt -0.05384 0.06120
vt -0.21464 -0.02244
vt 0.03903 0.06120
vt 0.03903 0.01224
vt 0.19982 -0.06120
vt -0.21464 -0.06120
vt 0.05384 0.01224
vt -0.19982 -0.02244
vt 0.05384 0.06120
vt -0.03903 0.01224
vt -0.03903 0.06120
vt 0.21464 -0.02244
vt -0.19982 -0.06120
vt 0.21464 -0.06120
vt 0.21072 0.06450
vt -0.00418 -0.06450
vt -0.00418 -0.08898
vt 0.21072 0.08898
vt -0.02342 0.08898
vt -0.02342 0.06450
vt 0.19518 -0.06450
vt 0.19518 -0.08898
vt 0.06450 -0.02244
vt 0.08898 -0.06120
vt 0.06450 -0.06120
vt 0.08898 -0.02244
vt 0.00418 -0.08898
vt 0.00418 -0.06450
vt -0.21072 0.06450
vt -0.21072 0.08898
vt -0.06450 -0.06120
vt -0.08898 -0.02244
vt -0.06450 -0.02244
vt -0.08898 -0.06120
vt -0.19518 -0.06450
vt 0.02342 0.06450
vt 0.02342 0.08898
vt -0.19518 -0.08898
vn -0.6051 0.0000 -0.7962
vn 0.6051 0.0000 0.7962
vn 0.6051 0.0000 -0.7962
vn -0.6051 0.0000 0.7962
vn 0.3417 0.9398 0.0000
vn -0.3826 -0.9239 0.0000
vn -1.0000 0.0000 0.0000
vn -0.3417 0.9398 0.0000
vn 1.0000 0.0000 0.0000
vn 0.3826 -0.9239 0.0000
s off
f 1/1/1 3/2/1 2/3/1
f 4/4/2 6/5/2 5/6/2
f 1/1/1 7/7/1 3/2/1
f 4/4/2 5/6/2 8/8/2
f 3/9/3 9/10/3 2/11/3
f 5/12/4 6/13/4 10/14/4
f 9/10/3 3/9/3 11/15/3
f 10/14/4 12/16/4 5/12/4
f 7/17/5 5/18/5 3/19/5
f 7/17/5 8/20/5 5/18/5
f 2/21/6 6/22/6 1/23/6
f 1/23/6 6/22/6 4/24/6
f 1/25/7 8/26/7 7/27/7
f 1/25/7 4/28/7 8/26/7
f 3/29/8 5/30/8 11/31/8
f 11/31/8 5/30/8 12/32/8
f 11/33/9 10/34/9 9/35/9
f 11/33/9 12/36/9 10/34/9
f 9/37/10 6/38/10 2/39/10
f 9/37/10 10/40/10 6/38/10
