# Titan_HeadCrest - BRZ-01 Titan head/collar mesh (assets/meshes/head/source/build.py)
# units: studs (Scale 1.7), +Y up, face toward -Z, centred on the bounding box
# weld to bone 'Head' (MechHead) at bone.CFrame * CFrame.new(0.0000, 2.0971, -1.6565) * ImportRotation
# size 0.6202 x 2.8886 x 0.7834, role trim
o Titan_HeadCrest
v 0.00000 0.66096 -0.19584
v 0.16320 0.66096 0.06528
v 0.00000 0.66096 0.13056
v -0.16320 0.66096 0.06528
v 0.00000 0.12240 -0.24480
v 0.23664 0.12240 0.32640
v 0.00000 0.12240 0.39168
v -0.23664 0.12240 0.32640
v 0.00000 -0.46512 -0.30192
v 0.29376 -0.46512 0.00000
v 0.00000 -0.46512 0.06528
v -0.29376 -0.46512 0.00000
v 0.00000 -0.79152 -0.35088
v 0.31008 -0.79152 -0.02129
v 0.00000 -0.79152 0.04399
v -0.31008 -0.79152 -0.02129
v 0.00000 -0.93840 -0.38352
v 0.26928 -0.93840 -0.15129
v 0.00000 -0.93840 -0.11049
v -0.26928 -0.93840 -0.15129
v 0.00000 -1.19952 -0.39168
v 0.16320 -1.19952 -0.21706
v 0.00000 -1.19952 -0.17626
v -0.16320 -1.19952 -0.21706
v 0.00000 1.44432 -0.13872
v 0.00000 -1.44432 -0.35904
vt 0.02996 -0.16390
vt -0.04684 -0.15872
vt 0.04948 -0.03035
vt -0.10245 -0.02284
vt 0.02651 -0.14353
vt -0.01618 -0.13675
vt 0.04405 0.00606
vt -0.01675 0.01284
vt 0.03266 -0.13943
vt -0.01082 -0.14580
vt -0.02542 0.00364
vt -0.07266 0.00606
vt 0.04684 -0.15872
vt -0.02996 -0.16390
vt -0.04948 -0.03035
vt 0.10245 -0.02284
vt -0.03128 0.12466
vt 0.07155 0.11534
vt 0.05609 -0.06021
vt -0.00372 -0.06662
vt -0.00290 0.10051
vt 0.07118 0.10693
vt -0.06210 -0.06021
vt -0.07554 0.10693
vt 0.03128 0.12466
vt -0.07155 0.11534
vt -0.02339 0.20612
vt 0.08744 0.19628
vt -0.00419 0.17764
vt 0.07395 0.18405
vt 0.00490 0.11510
vt -0.07032 0.11607
vt 0.00481 0.19687
vt -0.07440 0.19784
vt 0.02339 0.20612
vt -0.08744 0.19628
vt 0.01195 0.24125
vt 0.09683 0.23270
vt 0.07569 0.17437
vt -0.00209 0.16626
vt -0.00179 0.21731
vt 0.06569 0.22238
vt -0.02168 0.12838
vt 0.05666 0.14021
vt -0.02168 0.18167
vt -0.07932 0.17437
vt -0.06893 0.22238
vt -0.01195 0.24125
vt -0.09683 0.23270
vt 0.07831 0.22717
vt -0.01033 0.23131
vt 0.02336 0.29525
vt 0.08297 0.29214
vt 0.03882 0.28720
vt -0.00214 0.28213
vt -0.04276 0.28720
vt 0.01033 0.23131
vt -0.07831 0.22717
vt -0.02336 0.29525
vt -0.08297 0.29214
vt 0.00454 -0.35816
vt -0.01949 -0.34285
vt 0.03763 -0.34602
vt -0.00454 -0.35816
vt 0.08034 0.35377
vt -0.00196 0.35795
vt -0.08034 0.35377
vn 0.8472 0.0425 -0.5295
vn 0.8851 -0.0034 -0.4653
vn 0.8721 0.1042 -0.4781
vn 0.9162 0.1282 -0.3796
vn 0.3456 0.3659 0.8641
vn 0.3075 0.3878 0.8689
vn 0.2796 0.4342 0.8563
vn 0.1645 0.4098 0.8972
vn 0.0000 0.4363 0.8998
vn -0.3075 0.3878 0.8689
vn -0.3456 0.3659 0.8641
vn -0.2796 0.4342 0.8563
vn -0.1645 0.4098 0.8972
vn -0.8851 -0.0034 -0.4653
vn -0.8472 0.0425 -0.5295
vn -0.8721 0.1042 -0.4781
vn -0.9162 0.1282 -0.3796
vn 0.8179 0.1843 -0.5450
vn 0.7176 0.0807 -0.6917
vn 0.2114 -0.4668 0.8587
vn 0.0000 -0.4856 0.8742
vn 0.0267 -0.4324 0.9013
vn 0.2063 -0.2648 0.9420
vn -0.2114 -0.4668 0.8587
vn -0.0267 -0.4324 0.9013
vn -0.2063 -0.2648 0.9420
vn -0.8179 0.1843 -0.5450
vn -0.7176 0.0807 -0.6917
vn 0.7157 0.1497 -0.6822
vn 0.7015 0.1876 -0.6875
vn 0.1419 -0.3364 0.9310
vn 0.0000 -0.0597 0.9982
vn 0.2057 -0.0534 0.9772
vn -0.1419 -0.3364 0.9310
vn -0.2057 -0.0534 0.9772
vn -0.7157 0.1497 -0.6822
vn -0.7015 0.1876 -0.6875
vn 0.6714 0.1347 -0.7288
vn 0.6772 0.0154 -0.7357
vn 0.1288 -0.6990 0.7034
vn 0.0000 -0.7247 0.6891
vn 0.0347 -0.6219 0.7823
vn 0.0255 -0.5351 0.8444
vn 0.1325 -0.4671 0.8742
vn -0.1288 -0.6990 0.7034
vn -0.0347 -0.6219 0.7823
vn -0.1325 -0.4671 0.8742
vn -0.0255 -0.5351 0.8444
vn -0.6714 0.1347 -0.7288
vn -0.6772 0.0154 -0.7357
vn 0.6970 -0.0511 -0.7152
vn 0.7302 -0.0330 -0.6824
vn 0.0241 -0.4702 0.8823
vn 0.1861 -0.3723 0.9092
vn 0.0211 -0.3593 0.9330
vn 0.0736 -0.3782 0.9228
vn -0.0241 -0.4702 0.8823
vn -0.1861 -0.3723 0.9092
vn -0.0211 -0.3593 0.9330
vn -0.0736 -0.3782 0.9228
vn -0.6970 -0.0511 -0.7152
vn -0.7302 -0.0330 -0.6824
vn 0.8474 0.0386 -0.5296
vn 0.3538 0.3041 0.8845
vn -0.3538 0.3041 0.8845
vn -0.8474 0.0386 -0.5296
vn 0.7276 -0.0907 -0.6800
vn 0.0000 -0.5983 0.8013
vn 0.0752 -0.4968 0.8646
vn -0.0752 -0.4968 0.8646
vn -0.7276 -0.0907 -0.6800
s off
f 1/1/1 2/2/2 5/3/3
f 2/2/2 6/4/4 5/3/3
f 2/5/5 3/6/6 6/7/7
f 3/6/8 7/8/9 6/7/7
f 3/9/10 4/10/11 8/11/12
f 3/6/13 8/12/12 7/8/9
f 4/13/14 1/14/15 5/15/16
f 4/13/14 5/15/16 8/16/17
f 5/3/3 6/4/4 10/17/18
f 5/3/3 10/17/18 9/18/19
f 6/19/20 7/20/21 11/21/22
f 6/19/20 11/21/22 10/22/23
f 7/20/21 8/23/24 11/21/25
f 8/23/24 12/24/26 11/21/25
f 8/16/17 5/15/16 12/25/27
f 5/15/16 9/26/28 12/25/27
f 9/18/19 10/17/18 14/27/29
f 9/18/19 14/27/29 13/28/30
f 10/22/23 11/21/31 15/29/32
f 10/22/23 15/29/32 14/30/33
f 11/31/34 12/32/26 15/33/32
f 12/32/26 16/34/35 15/33/32
f 12/25/27 9/26/28 16/35/36
f 9/26/28 13/36/37 16/35/36
f 13/28/30 14/27/29 18/37/38
f 13/28/30 18/37/38 17/38/39
f 14/39/40 15/40/41 19/41/42
f 14/39/40 19/41/43 18/42/44
f 15/43/41 16/44/45 19/45/46
f 16/46/45 20/47/47 19/41/48
f 16/35/36 13/36/37 20/48/49
f 13/36/37 17/49/50 20/48/49
f 17/50/39 18/51/38 22/52/51
f 17/50/39 22/52/51 21/53/52
f 18/42/44 19/41/53 22/54/54
f 19/41/55 23/55/56 22/54/54
f 19/41/57 20/47/47 24/56/58
f 19/41/59 24/56/58 23/55/60
f 20/57/49 17/58/50 24/59/61
f 17/58/50 21/60/62 24/59/61
f 25/61/63 2/2/2 1/1/1
f 25/62/64 3/6/6 2/5/5
f 25/63/65 4/10/11 3/9/10
f 25/64/66 1/14/15 4/13/14
f 26/65/67 21/53/52 22/52/51
f 26/66/68 22/54/54 23/55/69
f 26/66/68 23/55/70 24/56/58
f 26/67/71 24/59/61 21/60/62
