# Titan_Gorget - BRZ-01 Titan head/collar mesh (assets/meshes/head/source/build.py)
# units: studs (Scale 1.7), +Y up, face toward -Z, centred on the bounding box
# weld to bone 'Collar' (MechHead) at bone.CFrame * CFrame.new(0.0000, 0.8609, 0.6528) * ImportRotation
# size 4.4717 x 2.9458 x 4.2432, role main
o Titan_Gorget
v 0.00000 -1.47288 -2.12160
v 0.00000 -0.49368 -2.12160
v 0.00000 -0.69768 -1.77888
v 0.00000 -1.47288 -1.77888
v 0.48960 -1.47288 -2.12160
v 0.48960 -0.49368 -2.12160
v 0.48960 -0.69768 -1.77888
v 0.48960 -1.47288 -1.77888
v 1.02816 -1.47288 -2.12160
v 1.02816 -0.49368 -2.12160
v 0.89107 -0.69768 -1.77888
v 0.89107 -1.47288 -1.77888
v 1.46880 -1.24714 -1.69728
v 1.46880 -0.28827 -1.69728
v 1.19462 -0.49227 -1.32029
v 1.19462 -1.24714 -1.32029
v 1.87680 -0.94316 -1.14240
v 1.87680 -0.00340 -1.14240
v 1.55122 -0.20740 -0.74827
v 1.55122 -0.94316 -0.74827
v 2.21952 -0.51528 -0.40800
v 2.21952 0.42329 -0.40800
v 1.87680 0.21929 -0.40800
v 1.87680 -0.51528 -0.40800
v 2.23584 -0.20808 0.04080
v 2.23584 0.78744 0.04080
v 1.89312 0.58344 0.04080
v 1.89312 -0.20808 0.04080
v 2.15966 -0.33480 0.57935
v 2.15966 0.96484 0.57935
v 1.82861 0.76084 0.49065
v 1.82861 -0.33480 0.49065
v 1.93629 -0.45288 1.08120
v 1.93629 1.13016 1.08120
v 1.63949 0.92616 0.90984
v 1.63949 -0.45288 0.90984
v 1.58098 -0.55428 1.51215
v 1.58098 1.27212 1.51215
v 1.33864 1.06812 1.26981
v 1.33864 -0.55428 1.26981
v 1.11792 -0.63209 1.84283
v 1.11792 1.38105 1.84283
v 0.94656 1.17705 1.54602
v 0.94656 -0.63209 1.54602
v 0.57868 -0.68100 2.05070
v 0.57868 1.44952 2.05070
v 0.48998 1.24552 1.71966
v 0.48998 -0.68100 1.71966
v 0.00000 -0.69768 2.12160
v 0.00000 1.47288 2.12160
v 0.00000 1.26888 1.77888
v 0.00000 -0.69768 1.77888
v -0.57868 -0.68100 2.05070
v -0.57868 1.44952 2.05070
v -0.48998 1.24552 1.71966
v -0.48998 -0.68100 1.71966
v -1.11792 -0.63209 1.84283
v -1.11792 1.38105 1.84283
v -0.94656 1.17705 1.54602
v -0.94656 -0.63209 1.54602
v -1.58098 -0.55428 1.51215
v -1.58098 1.27212 1.51215
v -1.33864 1.06812 1.26981
v -1.33864 -0.55428 1.26981
v -1.93629 -0.45288 1.08120
v -1.93629 1.13016 1.08120
v -1.63949 0.92616 0.90984
v -1.63949 -0.45288 0.90984
v -2.15966 -0.33480 0.57935
v -2.15966 0.96484 0.57935
v -1.82861 0.76084 0.49065
v -1.82861 -0.33480 0.49065
v -2.23584 -0.20808 0.04080
v -2.23584 0.78744 0.04080
v -1.89312 0.58344 0.04080
v -1.89312 -0.20808 0.04080
v -2.21952 -0.51528 -0.40800
v -2.21952 0.42329 -0.40800
v -1.87680 0.21929 -0.40800
v -1.87680 -0.51528 -0.40800
v -1.87680 -0.94316 -1.14240
v -1.87680 -0.00340 -1.14240
v -1.55122 -0.20740 -0.74827
v -1.55122 -0.94316 -0.74827
v -1.46880 -1.24714 -1.69728
v -1.46880 -0.28827 -1.69728
v -1.19462 -0.49227 -1.32029
v -1.19462 -1.24714 -1.32029
v -1.02816 -1.47288 -2.12160
v -1.02816 -0.49368 -2.12160
v -0.89107 -0.69768 -1.77888
v -0.89107 -1.47288 -1.77888
v -0.48960 -1.47288 -2.12160
v -0.48960 -0.49368 -2.12160
v -0.48960 -0.69768 -1.77888
v -0.48960 -1.47288 -1.77888
v 0.00000 -0.66216 -1.74624
v 0.00000 -0.37656 -1.74624
v 0.00000 -0.31128 -1.36272
v 0.00000 -0.66216 -1.36272
v 0.48960 -0.66216 -1.74624
v 0.48960 -0.37656 -1.74624
v 0.35491 -0.31128 -1.30535
v 0.35491 -0.66216 -1.30535
v 0.87802 -0.66216 -1.74624
v 0.87802 -0.37656 -1.74624
v 0.56972 -0.31128 -1.20696
v 0.56972 -0.66216 -1.20696
v 1.16851 -0.54540 -1.28438
v 1.16851 -0.25980 -1.28438
v 0.83445 -0.19452 -0.98187
v 0.83445 -0.54540 -0.98187
v 1.52021 -0.39423 -0.71074
v 1.52021 -0.10863 -0.71074
v 1.03471 -0.04335 -0.58663
v 1.03471 -0.39423 -0.58663
v 1.84416 -0.30998 -0.40800
v 1.84416 -0.02438 -0.40800
v 1.06054 0.04090 -0.38922
v 1.06054 -0.30998 -0.38922
v 1.86048 -0.16728 0.04080
v 1.86048 0.11832 0.04080
v 1.03618 0.18360 -0.15395
v 1.03618 -0.16728 -0.15395
v 1.79709 -0.07208 0.48220
v 1.79709 0.21352 0.48220
v 0.95907 0.27880 0.05821
v 0.95907 -0.07208 0.05821
v 1.61122 0.01664 0.89352
v 1.61122 0.30224 0.89352
v 0.83544 0.36752 0.24628
v 0.83544 0.01664 0.24628
v 1.31556 0.09282 1.24673
v 1.31556 0.37842 1.24673
v 0.67023 0.44370 0.40444
v 0.67023 0.09282 0.40444
v 0.93024 0.15128 1.51775
v 0.93024 0.43688 1.51775
v 0.46946 0.50216 0.52553
v 0.46946 0.15128 0.52553
v 0.48153 0.18803 1.68813
v 0.48153 0.47363 1.68813
v 0.24197 0.53891 0.60207
v 0.24197 0.18803 0.60207
v 0.00000 0.20056 1.74624
v 0.00000 0.48616 1.74624
v 0.00000 0.55144 0.62832
v 0.00000 0.20056 0.62832
v -0.48153 0.18803 1.68813
v -0.48153 0.47363 1.68813
v -0.24197 0.53891 0.60207
v -0.24197 0.18803 0.60207
v -0.93024 0.15128 1.51775
v -0.93024 0.43688 1.51775
v -0.46946 0.50216 0.52553
v -0.46946 0.15128 0.52553
v -1.31556 0.09282 1.24673
v -1.31556 0.37842 1.24673
v -0.67023 0.44370 0.40444
v -0.67023 0.09282 0.40444
v -1.61122 0.01664 0.89352
v -1.61122 0.30224 0.89352
v -0.83544 0.36752 0.24628
v -0.83544 0.01664 0.24628
v -1.79709 -0.07208 0.48220
v -1.79709 0.21352 0.48220
v -0.95907 0.27880 0.05821
v -0.95907 -0.07208 0.05821
v -1.86048 -0.16728 0.04080
v -1.86048 0.11832 0.04080
v -1.03618 0.18360 -0.15395
v -1.03618 -0.16728 -0.15395
v -1.84416 -0.30998 -0.40800
v -1.84416 -0.02438 -0.40800
v -1.06054 0.04090 -0.38922
v -1.06054 -0.30998 -0.38922
v -1.52021 -0.39423 -0.71074
v -1.52021 -0.10863 -0.71074
v -1.03471 -0.04335 -0.58663
v -1.03471 -0.39423 -0.58663
v -1.16851 -0.54540 -1.28438
v -1.16851 -0.25980 -1.28438
v -0.83445 -0.19452 -0.98187
v -0.83445 -0.54540 -0.98187
v -0.87802 -0.66216 -1.74624
v -0.87802 -0.37656 -1.74624
v -0.56972 -0.31128 -1.20696
v -0.56972 -0.66216 -1.20696
v -0.48960 -0.66216 -1.74624
v -0.48960 -0.37656 -1.74624
v -0.35491 -0.31128 -1.30535
v -0.35491 -0.66216 -1.30535
vt 0.00000 0.36822
vt 0.00000 0.12342
vt -0.12240 0.12342
vt -0.12240 0.36822
vt 0.00000 -0.39264
vt 0.00000 -0.29293
vt -0.12240 -0.29293
vt -0.12240 -0.39264
vt 0.00000 0.17442
vt 0.12240 0.36822
vt 0.12240 0.17442
vt 0.06108 0.49650
vt 0.05832 0.58114
vt -0.06142 0.58114
vt -0.05866 0.49650
vt -0.25704 0.12342
vt -0.25704 0.36822
vt -0.22277 -0.29293
vt -0.25704 -0.39264
vt 0.22277 0.36822
vt 0.22277 0.17442
vt -0.15685 0.49650
vt -0.19313 0.58114
vt 0.33764 0.36822
vt 0.33764 0.12342
vt 0.19131 0.31179
vt 0.19131 0.07207
vt -0.22562 -0.54434
vt -0.15859 -0.47449
vt -0.33078 -0.42867
vt -0.23363 -0.35054
vt -0.23140 0.17442
vt -0.23140 0.36822
vt -0.09401 0.31179
vt -0.09401 0.12307
vt -0.30904 0.46759
vt -0.23895 0.37448
vt 0.02046 0.23579
vt 0.02046 0.00085
vt -0.43488 -0.27638
vt -0.32628 -0.19411
vt 0.07415 0.23579
vt 0.07415 0.05185
vt -0.41992 0.31875
vt -0.33712 0.22141
vt -0.18161 0.12882
vt -0.18161 -0.10582
vt -0.43864 -0.08466
vt -0.53741 -0.07166
vt 0.19072 0.12882
vt 0.19072 -0.05482
vt -0.43592 0.12077
vt -0.46920 0.36761
vt -0.55488 0.15530
vt -0.46920 0.15530
vt -0.28155 0.05202
vt -0.28155 -0.19686
vt -0.47389 0.04704
vt -0.57266 0.06004
vt -0.13136 -0.05482
vt -0.13136 0.12882
vt -0.01964 0.05202
vt -0.01964 -0.14586
vt -0.47328 0.01940
vt -0.55896 0.01940
vt 0.06819 0.05202
vt 0.06819 -0.19686
vt -0.06779 0.08370
vt -0.06779 -0.24121
vt -0.46788 0.16709
vt -0.56116 0.20154
vt 0.09362 0.08370
vt 0.09362 -0.19021
vt -0.47328 -0.01648
vt -0.55896 -0.01648
vt -0.53991 -0.15399
vt -0.45715 -0.13198
vt 0.24454 0.08370
vt 0.24454 -0.24121
vt 0.11319 0.11322
vt 0.11319 -0.28254
vt -0.43503 0.27896
vt -0.51826 0.33339
vt -0.21138 -0.19021
vt -0.21138 0.08370
vt -0.10158 0.11322
vt -0.10158 -0.23154
vt -0.48407 -0.28212
vt -0.40987 -0.23960
vt -0.02640 0.13857
vt -0.02640 -0.31803
vt -0.48407 0.37773
vt -0.40987 0.31463
vt -0.33466 0.40997
vt -0.39524 0.48823
vt 0.01565 0.13857
vt 0.01565 -0.26703
vt -0.39524 -0.39214
vt -0.33466 -0.33201
vt -0.16471 0.15802
vt -0.16471 -0.34526
vt -0.23664 0.48312
vt -0.27948 0.57302
vt 0.13234 0.15802
vt 0.13234 -0.29426
vt -0.27948 -0.47657
vt -0.23664 -0.40293
vt 0.32949 0.15802
vt 0.32949 -0.34526
vt 0.20138 0.17025
vt 0.20138 -0.36238
vt -0.12249 0.52911
vt -0.14467 0.62632
vt -0.27769 -0.29426
vt -0.27769 0.15802
vt -0.16900 0.17025
vt -0.16900 -0.31138
vt -0.14467 -0.52965
vt -0.12249 -0.44751
vt 0.05961 0.17442
vt 0.05961 -0.36822
vt -0.00000 0.54479
vt -0.00000 0.64450
vt -0.04888 0.17442
vt -0.04888 -0.31722
vt -0.00000 -0.54775
vt -0.00000 -0.46271
vt -0.08613 -0.36238
vt -0.08613 0.17025
vt 0.14467 0.62632
vt 0.12249 0.52911
vt 0.07450 -0.31138
vt 0.07450 0.17025
vt 0.12249 -0.44751
vt 0.14467 -0.52965
vt -0.22593 -0.34526
vt -0.22593 0.15802
vt 0.27948 0.57302
vt 0.23664 0.48312
vt 0.19273 -0.29426
vt 0.19273 0.15802
vt 0.23664 -0.40293
vt 0.27948 -0.47657
vt -0.35025 -0.31803
vt -0.35025 0.13857
vt 0.39524 0.48823
vt 0.33466 0.40997
vt 0.29774 -0.26703
vt 0.29774 0.13857
vt 0.33466 -0.33201
vt 0.39524 -0.39214
vt 0.16600 0.13857
vt 0.16600 -0.31803
vt 0.03019 -0.28254
vt 0.03019 0.11322
vt 0.48407 0.37773
vt 0.40987 0.31463
vt -0.13316 -0.26703
vt -0.13316 0.13857
vt -0.01896 -0.23154
vt -0.01896 0.11322
vt 0.40987 -0.23960
vt 0.48407 -0.28212
vt -0.10705 -0.24121
vt -0.10705 0.08370
vt 0.51826 0.33339
vt 0.43503 0.27896
vt 0.56116 0.20154
vt 0.46788 0.16709
vt 0.09590 -0.19021
vt 0.09590 0.08370
vt 0.45715 -0.13198
vt 0.53991 -0.15399
vt -0.23637 -0.19686
vt -0.23637 0.05202
vt 0.57266 0.06004
vt 0.47389 0.04704
vt 0.20361 -0.14586
vt 0.20361 0.05202
vt 0.47328 -0.01648
vt 0.55896 -0.01648
vt 0.28155 0.05202
vt 0.28155 -0.19686
vt 0.18161 -0.10582
vt 0.18161 0.12882
vt 0.53741 -0.07166
vt 0.43864 -0.08466
vt -0.02739 -0.14586
vt -0.02739 0.05202
vt 0.08488 -0.05482
vt 0.08488 0.12882
vt 0.47328 0.01940
vt 0.55896 0.01940
vt 0.55488 0.15530
vt 0.46920 0.15530
vt -0.02046 0.00085
vt -0.02046 0.23579
vt 0.43488 -0.27638
vt 0.32628 -0.19411
vt -0.19072 -0.05482
vt -0.19072 0.12882
vt -0.07415 0.05185
vt -0.07415 0.23579
vt 0.46920 0.36761
vt 0.39944 0.13588
vt 0.38163 0.34308
vt 0.29513 0.24907
vt -0.19131 0.07207
vt -0.19131 0.31179
vt 0.23363 -0.35054
vt 0.33078 -0.42867
vt 0.09401 0.12307
vt 0.09401 0.31179
vt 0.20136 0.40826
vt 0.27548 0.49819
vt -0.33764 0.12342
vt -0.33764 0.36822
vt 0.15859 -0.47449
vt 0.22562 -0.54434
vt 0.23140 0.17442
vt 0.23140 0.36822
vt 0.12372 0.53455
vt 0.16515 0.61630
vt 0.25704 0.36822
vt 0.25704 0.12342
vt 0.12240 0.12342
vt 0.25704 -0.39264
vt 0.22277 -0.29293
vt 0.12240 -0.39264
vt 0.12240 -0.29293
vt -0.22277 0.17442
vt -0.22277 0.36822
vt -0.12240 0.17442
vt 0.27901 0.49650
vt 0.30978 0.58114
vt 0.17807 0.58114
vt 0.18082 0.49650
vt 0.00000 0.16554
vt 0.00000 0.09414
vt -0.12240 0.09414
vt -0.12240 0.16554
vt 0.00000 -0.44578
vt 0.00000 -0.34905
vt -0.08873 -0.33524
vt -0.12240 -0.44578
vt 0.03605 0.07782
vt 0.03605 0.16554
vt 0.12276 0.16554
vt 0.12276 0.07782
vt 0.00000 0.36170
vt 0.00000 0.45649
vt -0.08873 0.34752
vt -0.12240 0.45649
vt -0.21950 0.09414
vt -0.21950 0.16554
vt -0.14243 -0.31155
vt -0.21950 -0.44578
vt -0.05523 0.07782
vt -0.05523 0.16554
vt 0.00384 0.16554
vt 0.00384 0.07782
vt -0.14243 0.32321
vt -0.21950 0.45649
vt 0.22547 0.16554
vt 0.22547 0.09414
vt 0.08934 0.13635
vt 0.08934 0.06495
vt -0.29213 -0.32672
vt -0.20861 -0.24949
vt -0.21820 0.07782
vt -0.21820 0.16554
vt -0.13994 0.13635
vt -0.13994 0.04863
vt -0.29213 0.33795
vt -0.20861 0.26318
vt -0.07840 0.09856
vt -0.07840 0.02716
vt -0.38005 -0.17843
vt -0.25868 -0.14415
vt -0.02932 0.09856
vt -0.02932 0.01084
vt -0.25868 0.15981
vt -0.38005 0.19049
vt -0.18717 0.07750
vt -0.18717 0.00610
vt -0.26514 -0.09095
vt -0.46104 -0.09987
vt 0.01842 0.07750
vt 0.01842 -0.01022
vt -0.26514 0.10785
vt -0.46104 0.11250
vt 0.12620 0.07750
vt 0.12620 0.00610
vt 0.01438 0.04182
vt 0.01438 -0.02958
vt -0.25904 -0.02470
vt -0.46104 -0.10213
vt -0.25904 -0.03408
vt -0.46512 0.01289
vt 0.06973 0.04182
vt 0.06973 -0.04590
vt -0.25904 0.04434
vt -0.46512 -0.00379
vt -0.09666 0.01802
vt -0.09666 -0.05338
vt -0.23977 0.02093
vt -0.44927 0.12497
vt -0.12466 -0.04590
vt -0.12466 0.04182
vt -0.06822 0.01802
vt -0.06822 -0.06970
vt -0.23977 -0.01168
vt -0.44927 -0.11647
vt 0.19594 0.01802
vt 0.19594 -0.05338
vt 0.08726 -0.00416
vt 0.08726 -0.07556
vt -0.20886 0.06980
vt -0.40281 0.22941
vt -0.16340 -0.06970
vt -0.16340 0.01802
vt -0.10858 -0.00416
vt -0.10858 -0.09188
vt -0.20886 -0.06149
vt -0.40281 -0.22146
vt -0.02789 -0.02321
vt -0.02789 -0.09461
vt -0.16756 0.11093
vt -0.32889 0.31909
vt -0.05140 -0.02321
vt -0.05140 -0.11093
vt -0.16756 -0.10345
vt -0.32889 -0.31163
vt -0.14168 -0.03782
vt -0.14168 -0.10922
vt -0.11736 0.14242
vt -0.23256 0.38791
vt 0.00581 -0.03782
vt 0.00581 -0.12554
vt -0.11736 -0.13558
vt -0.23256 -0.38081
vt 0.27635 -0.03782
vt 0.27635 -0.10922
vt 0.17008 -0.04701
vt 0.17008 -0.11841
vt -0.06049 0.16233
vt -0.12038 0.43117
vt -0.13059 -0.12554
vt -0.13059 -0.03782
vt -0.07606 -0.04701
vt -0.07606 -0.13473
vt -0.06049 -0.15588
vt -0.12038 -0.42430
vt 0.05231 -0.05014
vt 0.05231 -0.12154
vt -0.00000 0.16915
vt -0.00000 0.44593
vt -0.01660 -0.05014
vt -0.01660 -0.13786
vt -0.00000 -0.16283
vt -0.00000 -0.43914
vt -0.06895 -0.11841
vt -0.06895 -0.04701
vt 0.12038 0.43117
vt 0.06049 0.16233
vt 0.04425 -0.13473
vt 0.04425 -0.04701
vt 0.12038 -0.42430
vt 0.06049 -0.15588
vt -0.18542 -0.10922
vt -0.18542 -0.03782
vt 0.23256 0.38791
vt 0.11736 0.14242
vt 0.10283 -0.12554
vt 0.10283 -0.03782
vt 0.23256 -0.38081
vt 0.11736 -0.13558
vt -0.28918 -0.09461
vt -0.28918 -0.02321
vt 0.32889 0.31909
vt 0.16756 0.11093
vt 0.15594 -0.11093
vt 0.15594 -0.02321
vt 0.32889 -0.31163
vt 0.16756 -0.10345
vt 0.14860 -0.02321
vt 0.14860 -0.09461
vt 0.03769 -0.07556
vt 0.03769 -0.00416
vt 0.40281 0.22941
vt 0.20886 0.06980
vt 0.00728 -0.11093
vt 0.00728 -0.02321
vt 0.06299 -0.09188
vt 0.06299 -0.00416
vt 0.40281 -0.22146
vt 0.20886 -0.06149
vt -0.07515 -0.05338
vt -0.07515 0.01802
vt 0.44927 0.12497
vt 0.23977 0.02093
vt 0.11925 -0.06970
vt 0.11925 0.01802
vt 0.44927 -0.11647
vt 0.23977 -0.01168
vt -0.18223 -0.02958
vt -0.18223 0.04182
vt 0.46512 0.01289
vt 0.25904 -0.03408
vt 0.17418 -0.04590
vt 0.17418 0.04182
vt 0.46512 -0.00379
vt 0.25904 0.04434
vt 0.02710 0.04182
vt 0.02710 -0.02958
vt -0.08518 0.00610
vt -0.08518 0.07750
vt 0.46104 -0.10213
vt 0.25904 -0.02470
vt 0.26514 -0.09095
vt 0.46104 -0.09987
vt -0.06973 -0.04590
vt -0.06973 0.04182
vt -0.01842 -0.01022
vt -0.01842 0.07750
vt 0.46104 0.11250
vt 0.26514 0.10785
vt 0.18717 0.07750
vt 0.18717 0.00610
vt 0.07840 0.02716
vt 0.07840 0.09856
vt 0.38005 -0.17843
vt 0.25868 -0.14415
vt 0.02932 0.01084
vt 0.02932 0.09856
vt 0.38005 0.19049
vt 0.25868 0.15981
vt -0.08934 0.06495
vt -0.08934 0.13635
vt 0.20861 -0.24949
vt 0.29213 -0.32672
vt 0.13994 0.04863
vt 0.13994 0.13635
vt 0.29213 0.33795
vt 0.20861 0.26318
vt -0.22547 0.09414
vt -0.22547 0.16554
vt 0.14243 -0.31155
vt 0.21950 -0.44578
vt 0.21820 0.07782
vt 0.21820 0.16554
vt 0.14243 0.32321
vt 0.21950 0.45649
vt 0.21950 0.16554
vt 0.21950 0.09414
vt 0.12240 0.09414
vt 0.12240 0.16554
vt 0.12240 -0.44578
vt 0.08873 -0.33524
vt -0.10970 0.07782
vt -0.10970 0.16554
vt -0.05370 0.16554
vt -0.05370 0.07782
vt 0.12240 0.45649
vt 0.08873 0.34752
vn 0.0000 0.0000 -1.0000
vn 0.0000 0.8593 0.5115
vn 0.0000 0.0000 1.0000
vn 0.0000 -1.0000 0.0000
vn 0.2046 -0.9718 0.1169
vn 0.1922 -0.9783 0.0769
vn 0.6936 0.0000 -0.7203
vn 0.7362 0.0000 -0.6768
vn 0.7734 0.0000 -0.6340
vn -0.5841 0.7785 0.2297
vn -0.5852 0.8019 0.1202
vn -0.5859 0.8067 0.0774
vn -0.5794 0.8150 -0.0087
vn -0.8339 0.0000 0.5520
vn -0.8395 0.0000 0.5434
vn -0.8444 0.0000 0.5358
vn 0.3364 -0.9171 0.2139
vn 0.3324 -0.9082 0.2541
vn 0.8465 0.0000 -0.5324
vn 0.8798 0.0000 -0.4754
vn -0.5934 0.7965 -0.1161
vn -0.6311 0.7655 -0.1251
vn -0.8196 0.0000 0.5730
vn -0.7792 0.0000 0.6268
vn 0.3143 -0.8763 0.3652
vn 0.4252 -0.8342 0.3512
vn 0.9391 0.0000 -0.3437
vn 0.9752 0.0000 -0.2212
vn -0.5652 0.7608 -0.3190
vn -0.4592 0.7715 -0.4404
vn -0.7225 0.0000 0.6913
vn 0.3979 -0.8607 0.3175
vn 0.5204 -0.7378 0.4299
vn 0.2411 -0.9096 0.3383
vn 0.0000 -0.8428 0.5382
vn 0.0000 -0.8494 0.5277
vn 0.9995 0.0000 0.0315
vn 0.9956 0.0000 0.0938
vn -0.4406 0.7402 -0.5079
vn -0.4427 0.7867 -0.4303
vn -0.9993 0.0000 0.0363
vn -0.9997 0.0000 -0.0251
vn -0.9959 0.0000 -0.0900
vn 0.0000 -0.8252 0.5648
vn 0.9710 0.0000 0.2392
vn 0.9450 0.0000 0.3270
vn -0.4226 0.8144 -0.3976
vn -0.3758 0.8299 -0.4123
vn -0.9698 0.0000 -0.2439
vn -0.9433 0.0000 -0.3321
vn 0.0321 -0.9693 -0.2440
vn 0.0000 -0.9734 -0.2290
vn 0.0402 -0.9723 -0.2304
vn 0.0819 -0.9706 -0.2265
vn 0.8700 0.0000 0.4930
vn 0.8226 0.0000 0.5687
vn -0.3173 0.8198 -0.4767
vn -0.2753 0.8356 -0.4754
vn -0.8667 0.0000 -0.4989
vn -0.8186 0.0000 -0.5744
vn 0.0884 -0.9775 -0.1917
vn 0.1202 -0.9775 -0.1734
vn 0.7099 0.0000 0.7043
vn 0.6465 0.0000 0.7629
vn -0.2154 0.8299 -0.5146
vn -0.1831 0.8441 -0.5040
vn -0.7047 0.0000 -0.7095
vn -0.6411 0.0000 -0.7674
vn 0.1106 -0.9848 -0.1338
vn 0.1271 -0.9860 -0.1084
vn 0.5079 0.0000 0.8614
vn 0.4344 0.0000 0.9007
vn -0.1295 0.8419 -0.5239
vn -0.1072 0.8524 -0.5119
vn -0.5025 0.0000 -0.8646
vn -0.4294 0.0000 -0.9031
vn 0.1015 -0.9922 -0.0730
vn 0.1016 -0.9936 -0.0492
vn 0.2803 0.0000 0.9599
vn 0.2014 0.0000 0.9795
vn -0.0630 0.8521 -0.5196
vn -0.0466 0.8576 -0.5123
vn -0.2766 0.0000 -0.9610
vn -0.1987 0.0000 -0.9801
vn 0.0645 -0.9976 -0.0253
vn 0.0515 -0.9986 -0.0109
vn 0.0000 0.8569 -0.5155
vn -0.0000 0.8593 -0.5115
vn 0.0000 -1.0000 -0.0040
vn -0.2014 0.0000 0.9795
vn -0.2803 0.0000 0.9599
vn 0.0466 0.8576 -0.5123
vn 0.0630 0.8521 -0.5196
vn 0.1987 0.0000 -0.9801
vn 0.2766 0.0000 -0.9610
vn -0.0515 -0.9986 -0.0109
vn -0.0645 -0.9976 -0.0253
vn -0.4344 0.0000 0.9007
vn -0.5079 0.0000 0.8614
vn 0.1072 0.8524 -0.5119
vn 0.1295 0.8419 -0.5239
vn 0.4294 0.0000 -0.9031
vn 0.5025 0.0000 -0.8646
vn -0.1016 -0.9936 -0.0492
vn -0.1015 -0.9922 -0.0730
vn -0.6465 0.0000 0.7629
vn -0.7099 0.0000 0.7043
vn 0.1831 0.8441 -0.5040
vn 0.2154 0.8299 -0.5146
vn 0.6411 0.0000 -0.7674
vn 0.7047 0.0000 -0.7095
vn -0.1271 -0.9860 -0.1084
vn -0.1106 -0.9848 -0.1338
vn -0.8226 0.0000 0.5687
vn -0.8700 0.0000 0.4930
vn 0.2753 0.8356 -0.4754
vn 0.3173 0.8198 -0.4767
vn 0.8186 0.0000 -0.5744
vn 0.8667 0.0000 -0.4989
vn -0.1202 -0.9775 -0.1734
vn -0.0884 -0.9775 -0.1917
vn -0.9450 0.0000 0.3270
vn -0.9710 0.0000 0.2392
vn 0.3758 0.8299 -0.4123
vn 0.4226 0.8144 -0.3976
vn 0.9433 0.0000 -0.3321
vn 0.9698 0.0000 -0.2439
vn -0.0819 -0.9706 -0.2265
vn -0.0402 -0.9723 -0.2304
vn -0.9956 0.0000 0.0938
vn -0.9995 0.0000 0.0315
vn 0.4427 0.7867 -0.4303
vn 0.4406 0.7402 -0.5079
vn 0.9959 0.0000 -0.0900
vn 0.9997 0.0000 -0.0251
vn -0.0321 -0.9693 -0.2440
vn -0.9752 0.0000 -0.2212
vn -0.9391 0.0000 -0.3437
vn 0.4592 0.7715 -0.4404
vn 0.5652 0.7608 -0.3190
vn 0.9993 0.0000 0.0363
vn -0.8798 0.0000 -0.4754
vn -0.8465 0.0000 -0.5324
vn 0.5934 0.7965 -0.1161
vn 0.6311 0.7655 -0.1251
vn 0.7225 0.0000 0.6913
vn 0.7792 0.0000 0.6268
vn 0.8196 0.0000 0.5730
vn -0.2411 -0.9096 0.3383
vn -0.5204 -0.7378 0.4299
vn -0.3979 -0.8607 0.3175
vn -0.4252 -0.8342 0.3512
vn -0.7734 0.0000 -0.6340
vn -0.7362 0.0000 -0.6768
vn 0.5794 0.8150 -0.0087
vn 0.5859 0.8067 0.0774
vn 0.8444 0.0000 0.5358
vn 0.8395 0.0000 0.5434
vn -0.3143 -0.8763 0.3652
vn -0.3324 -0.9082 0.2541
vn -0.3364 -0.9171 0.2139
vn -0.6936 0.0000 -0.7203
vn 0.5852 0.8019 0.1202
vn 0.5841 0.7785 0.2297
vn 0.8339 0.0000 0.5520
vn -0.2046 -0.9718 0.1169
vn -0.1922 -0.9783 0.0769
vn 0.0000 0.9880 -0.1547
vn 0.0000 0.9858 -0.1678
vn 0.0219 0.9886 -0.1486
vn 0.0119 0.9911 -0.1326
vn -0.0538 0.0000 0.9986
vn 0.0538 0.0000 0.9986
vn -0.2246 0.0000 0.9744
vn -0.3082 0.0000 0.9513
vn -0.0597 0.9797 -0.1912
vn -0.0636 0.9858 -0.1557
vn -0.5193 0.0000 0.8546
vn -0.5933 0.0000 0.8050
vn 0.1258 -0.9874 0.0960
vn 0.1226 -0.9900 0.0701
vn 0.8488 0.0000 -0.5287
vn 0.8508 0.0000 -0.5255
vn -0.0794 0.9681 -0.2377
vn -0.0310 0.9512 -0.3069
vn -0.7570 0.0000 0.6534
vn -0.8365 0.0000 0.5480
vn 0.1624 -0.9666 0.1984
vn 0.2201 -0.9447 0.2431
vn 0.8160 0.0000 -0.5781
vn 0.7628 0.0000 -0.6467
vn 0.0214 0.9471 -0.3201
vn 0.0278 0.9253 -0.3782
vn -0.9181 0.0000 0.3963
vn -0.9527 0.0000 0.3038
vn 0.1171 -0.9592 0.2575
vn 0.0447 -0.9641 0.2616
vn 0.6828 0.0000 -0.7306
vn 0.0575 0.9084 -0.4142
vn 0.1024 0.9242 -0.3679
vn -0.9991 0.0000 0.0433
vn -0.9994 0.0000 -0.0343
vn 0.0258 -0.9231 0.3837
vn -0.0278 -0.9368 0.3486
vn 0.9993 0.0000 -0.0363
vn 0.9997 0.0000 0.0230
vn 0.9966 0.0000 0.0827
vn 0.1267 0.9183 -0.3750
vn 0.1582 0.9506 -0.2670
vn -0.9834 0.0000 -0.1813
vn -0.9652 0.0000 -0.2613
vn -0.0543 -0.9220 0.3834
vn -0.0870 -0.9570 0.2769
vn 0.9720 0.0000 0.2348
vn 0.9455 0.0000 0.3255
vn 0.1805 0.9495 -0.2567
vn 0.1876 0.9650 -0.1832
vn -0.9107 0.0000 -0.4132
vn -0.8757 0.0000 -0.4828
vn -0.1155 -0.9535 0.2784
vn -0.1256 -0.9703 0.2068
vn 0.8697 0.0000 0.4936
vn 0.8210 0.0000 0.5709
vn 0.2115 0.9593 -0.1869
vn 0.1964 0.9738 -0.1146
vn -0.7916 0.0000 -0.6111
vn -0.7432 0.0000 -0.6690
vn -0.1580 -0.9623 0.2214
vn -0.1458 -0.9777 0.1511
vn 0.7074 0.0000 0.7068
vn 0.6430 0.0000 0.7659
vn 0.2080 0.9725 -0.1048
vn 0.1757 0.9834 -0.0449
vn -0.6357 0.0000 -0.7720
vn -0.5769 0.0000 -0.8168
vn -0.1663 -0.9747 0.1492
vn -0.1373 -0.9863 0.0912
vn 0.5045 0.0000 0.8634
vn 0.4305 0.0000 0.9026
vn 0.1691 0.9852 -0.0276
vn 0.1287 0.9916 0.0127
vn -0.4520 0.0000 -0.8920
vn -0.3858 0.0000 -0.9226
vn -0.1397 -0.9870 0.0793
vn -0.1030 -0.9939 0.0404
vn 0.2779 0.0000 0.9606
vn 0.1989 0.0000 0.9800
vn 0.1013 0.9944 0.0293
vn 0.0628 0.9969 0.0483
vn -0.2492 0.0000 -0.9684
vn -0.1785 0.0000 -0.9839
vn -0.0847 -0.9960 0.0270
vn -0.0505 -0.9987 0.0088
vn -0.0000 0.9985 0.0547
vn 0.0000 0.9983 0.0583
vn 0.0000 -1.0000 0.0037
vn -0.1989 0.0000 0.9800
vn -0.2779 0.0000 0.9606
vn -0.0628 0.9969 0.0483
vn -0.1013 0.9944 0.0293
vn 0.1785 0.0000 -0.9839
vn 0.2492 0.0000 -0.9684
vn 0.0505 -0.9987 0.0088
vn 0.0847 -0.9960 0.0270
vn -0.4305 0.0000 0.9026
vn -0.5045 0.0000 0.8634
vn -0.1287 0.9916 0.0127
vn -0.1691 0.9852 -0.0276
vn 0.3858 0.0000 -0.9226
vn 0.4520 0.0000 -0.8920
vn 0.1030 -0.9939 0.0404
vn 0.1397 -0.9870 0.0793
vn -0.6430 0.0000 0.7659
vn -0.7074 0.0000 0.7068
vn -0.1757 0.9834 -0.0449
vn -0.2080 0.9725 -0.1048
vn 0.5769 0.0000 -0.8168
vn 0.6357 0.0000 -0.7720
vn 0.1373 -0.9863 0.0912
vn 0.1663 -0.9747 0.1492
vn -0.8210 0.0000 0.5709
vn -0.8697 0.0000 0.4936
vn -0.1964 0.9738 -0.1146
vn -0.2115 0.9593 -0.1869
vn 0.7432 0.0000 -0.6690
vn 0.7916 0.0000 -0.6111
vn 0.1458 -0.9777 0.1511
vn 0.1580 -0.9623 0.2214
vn -0.9455 0.0000 0.3255
vn -0.9720 0.0000 0.2348
vn -0.1876 0.9650 -0.1832
vn -0.1805 0.9495 -0.2567
vn 0.8757 0.0000 -0.4828
vn 0.9107 0.0000 -0.4132
vn 0.1256 -0.9703 0.2068
vn 0.1155 -0.9535 0.2784
vn -0.9966 0.0000 0.0827
vn -0.9997 0.0000 0.0230
vn -0.1582 0.9506 -0.2670
vn -0.1267 0.9183 -0.3750
vn 0.9652 0.0000 -0.2613
vn 0.9834 0.0000 -0.1813
vn 0.0870 -0.9570 0.2769
vn 0.0543 -0.9220 0.3834
vn -0.9993 0.0000 -0.0363
vn -0.1024 0.9242 -0.3679
vn -0.0575 0.9084 -0.4142
vn 0.9994 0.0000 -0.0343
vn 0.9991 0.0000 0.0433
vn 0.0278 -0.9368 0.3486
vn -0.0258 -0.9231 0.3837
vn -0.6828 0.0000 -0.7306
vn -0.7628 0.0000 -0.6467
vn -0.8160 0.0000 -0.5781
vn -0.0214 0.9471 -0.3201
vn -0.0278 0.9253 -0.3782
vn 0.9527 0.0000 0.3038
vn 0.9181 0.0000 0.3963
vn -0.0447 -0.9641 0.2616
vn -0.1171 -0.9592 0.2575
vn -0.8508 0.0000 -0.5255
vn -0.8488 0.0000 -0.5287
vn 0.0310 0.9512 -0.3069
vn 0.0794 0.9681 -0.2377
vn 0.8365 0.0000 0.5480
vn 0.7570 0.0000 0.6534
vn -0.1624 -0.9666 0.1984
vn -0.2201 -0.9447 0.2431
vn 0.0597 0.9797 -0.1912
vn 0.0636 0.9858 -0.1557
vn 0.5592 0.0000 0.8290
vn -0.1258 -0.9874 0.0960
vn -0.1226 -0.9900 0.0701
vn -0.0119 0.9911 -0.1326
vn -0.0219 0.9886 -0.1486
vn 0.3082 0.0000 0.9513
vn 0.2246 0.0000 0.9744
s off
f 1/1/1 2/2/1 6/3/1
f 1/1/1 6/3/1 5/4/1
f 2/5/2 3/6/2 7/7/2
f 2/5/2 7/7/2 6/8/2
f 3/9/3 4/1/3 8/10/3
f 3/9/3 8/10/3 7/11/3
f 4/12/4 1/13/4 5/14/4
f 4/12/4 5/14/4 8/15/4
f 5/4/1 6/3/1 10/16/1
f 5/4/1 10/16/1 9/17/1
f 6/8/2 7/7/2 11/18/2
f 6/8/2 11/18/2 10/19/2
f 7/11/3 8/10/3 12/20/3
f 7/11/3 12/20/3 11/21/3
f 8/15/4 5/14/4 12/22/5
f 5/14/4 9/23/6 12/22/5
f 9/24/7 10/25/7 13/26/8
f 10/25/7 14/27/9 13/26/8
f 10/28/10 11/29/11 14/30/12
f 11/29/11 15/31/13 14/30/12
f 11/32/14 12/33/14 16/34/15
f 11/32/14 16/34/15 15/35/16
f 12/22/5 9/23/6 13/36/17
f 12/22/5 13/36/17 16/37/18
f 13/26/8 14/27/9 17/38/19
f 14/27/9 18/39/20 17/38/19
f 14/30/12 15/31/13 18/40/21
f 15/31/13 19/41/22 18/40/21
f 15/35/16 16/34/15 20/42/23
f 15/35/16 20/42/23 19/43/24
f 16/37/18 13/36/17 17/44/25
f 16/37/18 17/44/25 20/45/26
f 17/38/19 18/39/20 21/46/27
f 18/39/20 22/47/28 21/46/27
f 18/40/21 19/41/22 23/48/29
f 18/40/21 23/48/29 22/49/30
f 19/43/24 20/42/23 24/50/31
f 19/43/24 24/50/31 23/51/31
f 20/45/26 17/44/32 24/52/33
f 17/53/34 21/54/35 24/55/36
f 21/46/27 22/47/28 25/56/37
f 22/47/28 26/57/38 25/56/37
f 22/49/30 23/48/29 27/58/39
f 22/49/30 27/58/39 26/59/40
f 23/60/41 24/61/41 28/62/42
f 23/60/41 28/62/42 27/63/43
f 24/55/36 21/54/35 28/64/44
f 21/54/35 25/65/44 28/64/44
f 25/66/37 26/67/38 29/68/45
f 26/67/38 30/69/46 29/68/45
f 26/59/40 27/58/39 31/70/47
f 26/59/40 31/70/47 30/71/48
f 27/63/43 28/62/42 32/72/49
f 27/63/43 32/72/49 31/73/50
f 28/74/51 25/75/52 29/76/53
f 28/74/51 29/76/53 32/77/54
f 29/78/45 30/79/46 33/80/55
f 30/79/46 34/81/56 33/80/55
f 30/71/48 31/70/47 35/82/57
f 30/71/48 35/82/57 34/83/58
f 31/84/50 32/85/49 36/86/59
f 31/84/50 36/86/59 35/87/60
f 32/77/54 29/76/53 33/88/61
f 32/77/54 33/88/61 36/89/62
f 33/80/55 34/81/56 37/90/63
f 34/81/56 38/91/64 37/90/63
f 34/92/58 35/93/57 39/94/65
f 34/92/58 39/94/65 38/95/66
f 35/87/60 36/86/59 40/96/67
f 35/87/60 40/96/67 39/97/68
f 36/89/62 33/88/61 37/98/69
f 36/89/62 37/98/69 40/99/70
f 37/90/63 38/91/64 41/100/71
f 38/91/64 42/101/72 41/100/71
f 38/95/66 39/94/65 43/102/73
f 38/95/66 43/102/73 42/103/74
f 39/97/68 40/96/67 44/104/75
f 39/97/68 44/104/75 43/105/76
f 40/99/70 37/98/69 41/106/77
f 40/99/70 41/106/77 44/107/78
f 41/108/71 42/109/72 45/110/79
f 42/109/72 46/111/80 45/110/79
f 42/103/74 43/102/73 47/112/81
f 42/103/74 47/112/81 46/113/82
f 43/114/76 44/115/75 48/116/83
f 43/114/76 48/116/83 47/117/84
f 44/107/78 41/106/77 45/118/85
f 44/107/78 45/118/85 48/119/86
f 45/110/79 46/111/80 49/120/3
f 46/111/80 50/121/3 49/120/3
f 46/113/82 47/112/81 51/122/87
f 46/113/82 51/122/87 50/123/88
f 47/117/84 48/116/83 52/124/1
f 47/117/84 52/124/1 51/125/1
f 48/119/86 45/118/85 49/126/89
f 48/119/86 49/126/89 52/127/4
f 49/120/3 50/121/3 54/128/90
f 49/120/3 54/128/90 53/129/91
f 50/123/88 51/122/87 54/130/92
f 51/122/87 55/131/93 54/130/92
f 51/125/1 52/124/1 55/132/94
f 52/124/1 56/133/95 55/132/94
f 52/127/4 49/126/89 56/134/96
f 49/126/89 53/135/97 56/134/96
f 53/129/91 54/128/90 58/136/98
f 53/129/91 58/136/98 57/137/99
f 54/130/92 55/131/93 58/138/100
f 55/131/93 59/139/101 58/138/100
f 55/132/94 56/133/95 59/140/102
f 56/133/95 60/141/103 59/140/102
f 56/134/96 53/135/97 60/142/104
f 53/135/97 57/143/105 60/142/104
f 57/137/99 58/136/98 62/144/106
f 57/137/99 62/144/106 61/145/107
f 58/138/100 59/139/101 62/146/108
f 59/139/101 63/147/109 62/146/108
f 59/140/102 60/141/103 63/148/110
f 60/141/103 64/149/111 63/148/110
f 60/142/104 57/143/105 64/150/112
f 57/143/105 61/151/113 64/150/112
f 61/152/107 62/153/106 66/154/114
f 61/152/107 66/154/114 65/155/115
f 62/146/108 63/147/109 66/156/116
f 63/147/109 67/157/117 66/156/116
f 63/158/110 64/159/111 67/160/118
f 64/159/111 68/161/119 67/160/118
f 64/150/112 61/151/113 68/162/120
f 61/151/113 65/163/121 68/162/120
f 65/155/115 66/154/114 70/164/122
f 65/155/115 70/164/122 69/165/123
f 66/166/116 67/167/117 70/168/124
f 67/167/117 71/169/125 70/168/124
f 67/160/118 68/161/119 71/170/126
f 68/161/119 72/171/127 71/170/126
f 68/162/120 65/163/121 72/172/128
f 65/163/121 69/173/129 72/172/128
f 69/165/123 70/164/122 74/174/130
f 69/165/123 74/174/130 73/175/131
f 70/168/124 71/169/125 74/176/132
f 71/169/125 75/177/133 74/176/132
f 71/170/126 72/171/127 75/178/134
f 72/171/127 76/179/135 75/178/134
f 72/172/128 69/173/129 76/180/136
f 69/173/129 73/181/52 76/180/136
f 73/182/131 74/183/130 78/184/137
f 73/182/131 78/184/137 77/185/138
f 74/176/132 75/177/133 78/186/139
f 75/177/133 79/187/140 78/186/139
f 75/188/134 76/189/135 79/190/141
f 76/189/135 80/191/141 79/190/141
f 76/192/44 73/193/44 77/194/35
f 76/192/44 77/194/35 80/195/36
f 77/185/138 78/184/137 82/196/142
f 77/185/138 82/196/142 81/197/143
f 78/186/139 79/187/140 82/198/144
f 79/187/140 83/199/145 82/198/144
f 79/200/146 80/201/146 83/202/147
f 80/201/146 84/203/148 83/202/147
f 80/195/36 77/194/35 81/204/149
f 80/205/150 81/206/151 84/207/152
f 81/197/143 82/196/142 86/208/153
f 81/197/143 86/208/153 85/209/154
f 82/198/144 83/199/145 87/210/155
f 82/198/144 87/210/155 86/211/156
f 83/202/147 84/203/148 87/212/157
f 84/203/148 88/213/158 87/212/157
f 84/207/152 81/206/159 88/214/160
f 81/206/159 85/215/161 88/214/160
f 85/209/154 86/208/153 90/216/162
f 85/209/154 90/216/162 89/217/162
f 86/211/156 87/210/155 91/218/163
f 86/211/156 91/218/163 90/219/164
f 87/212/157 88/213/158 91/220/165
f 88/213/158 92/221/165 91/220/165
f 88/214/160 85/215/161 92/222/166
f 85/215/161 89/223/167 92/222/166
f 89/224/1 90/225/1 94/226/1
f 89/224/1 94/226/1 93/10/1
f 90/227/2 91/228/2 94/229/2
f 91/228/2 95/230/2 94/229/2
f 91/231/3 92/232/3 96/4/3
f 91/231/3 96/4/3 95/233/3
f 92/234/166 89/235/167 93/236/4
f 92/234/166 93/236/4 96/237/4
f 93/10/1 94/226/1 2/2/1
f 93/10/1 2/2/1 1/1/1
f 94/229/2 95/230/2 3/6/2
f 94/229/2 3/6/2 2/5/2
f 95/233/3 96/4/3 4/1/3
f 95/233/3 4/1/3 3/9/3
f 96/237/4 93/236/4 1/13/4
f 96/237/4 1/13/4 4/12/4
f 97/238/1 98/239/1 102/240/1
f 97/238/1 102/240/1 101/241/1
f 98/242/168 99/243/169 103/244/170
f 98/242/168 103/244/170 102/245/171
f 99/246/172 100/247/173 104/248/174
f 99/246/172 104/248/174 103/249/175
f 100/250/4 97/251/4 104/252/4
f 97/251/4 101/253/4 104/252/4
f 101/241/1 102/240/1 106/254/1
f 101/241/1 106/254/1 105/255/1
f 102/245/171 103/244/170 107/256/176
f 102/245/171 107/256/176 106/257/177
f 103/258/175 104/259/174 108/260/178
f 103/258/175 108/260/178 107/261/179
f 104/252/4 101/253/4 108/262/180
f 101/253/4 105/263/181 108/262/180
f 105/264/19 106/265/19 109/266/182
f 106/265/19 110/267/183 109/266/182
f 106/257/177 107/256/176 110/268/184
f 107/256/176 111/269/185 110/268/184
f 107/270/179 108/271/178 112/272/186
f 107/270/179 112/272/186 111/273/187
f 108/262/180 105/263/181 109/274/188
f 108/262/180 109/274/188 112/275/189
f 109/266/182 110/267/183 113/276/190
f 110/267/183 114/277/191 113/276/190
f 110/268/184 111/269/185 114/278/192
f 111/269/185 115/279/193 114/278/192
f 111/273/187 112/272/186 116/280/194
f 111/273/187 116/280/194 115/281/195
f 112/275/189 109/274/188 116/282/196
f 109/274/188 113/283/197 116/282/196
f 113/276/190 114/277/191 117/284/198
f 114/277/191 118/285/198 117/284/198
f 114/278/192 115/279/193 119/286/199
f 114/278/192 119/286/199 118/287/200
f 115/281/195 116/280/194 120/288/201
f 115/281/195 120/288/201 119/289/202
f 116/282/196 113/283/197 120/290/203
f 113/283/197 117/291/204 120/290/203
f 117/292/205 118/293/205 121/294/206
f 118/293/205 122/295/207 121/294/206
f 118/287/200 119/286/199 123/296/208
f 118/297/200 123/298/208 122/299/209
f 119/289/202 120/288/201 124/300/210
f 119/289/202 124/300/210 123/301/211
f 120/290/203 117/291/204 124/302/212
f 117/291/204 121/303/213 124/302/212
f 121/294/206 122/295/207 125/304/214
f 122/295/207 126/305/215 125/304/214
f 122/299/209 123/298/208 127/306/216
f 122/299/209 127/306/216 126/307/217
f 123/308/211 124/309/210 128/310/218
f 123/308/211 128/310/218 127/311/219
f 124/302/212 121/303/213 128/312/220
f 121/303/213 125/313/221 128/312/220
f 125/314/214 126/315/215 129/316/222
f 126/315/215 130/317/223 129/316/222
f 126/307/217 127/306/216 131/318/224
f 126/307/217 131/318/224 130/319/225
f 127/320/219 128/321/218 132/322/226
f 127/320/219 132/322/226 131/323/227
f 128/312/220 125/313/221 132/324/228
f 125/313/221 129/325/229 132/324/228
f 129/316/222 130/317/223 133/326/230
f 130/317/223 134/327/231 133/326/230
f 130/319/225 131/318/224 135/328/232
f 130/319/225 135/328/232 134/329/233
f 131/323/227 132/322/226 136/330/234
f 131/323/227 136/330/234 135/331/235
f 132/324/228 129/325/229 136/332/236
f 129/325/229 133/333/237 136/332/236
f 133/326/230 134/327/231 137/334/238
f 134/327/231 138/335/239 137/334/238
f 134/329/233 135/328/232 139/336/240
f 134/329/233 139/336/240 138/337/241
f 135/331/235 136/330/234 140/338/242
f 135/331/235 140/338/242 139/339/243
f 136/332/236 133/333/237 140/340/244
f 133/333/237 137/341/245 140/340/244
f 137/342/238 138/343/239 141/344/246
f 138/343/239 142/345/247 141/344/246
f 138/337/241 139/336/240 143/346/248
f 138/337/241 143/346/248 142/347/249
f 139/348/243 140/349/242 144/350/250
f 139/348/243 144/350/250 143/351/251
f 140/340/244 137/341/245 144/352/252
f 137/341/245 141/353/253 144/352/252
f 141/344/246 142/345/247 145/354/3
f 142/345/247 146/355/3 145/354/3
f 142/347/249 143/346/248 147/356/254
f 142/347/249 147/356/254 146/357/255
f 143/351/251 144/350/250 148/358/1
f 143/351/251 148/358/1 147/359/1
f 144/352/252 141/353/253 148/360/256
f 141/353/253 145/361/4 148/360/256
f 145/354/3 146/355/3 150/362/257
f 145/354/3 150/362/257 149/363/258
f 146/357/255 147/356/254 150/364/259
f 147/356/254 151/365/260 150/364/259
f 147/359/1 148/358/1 151/366/261
f 148/358/1 152/367/262 151/366/261
f 148/360/256 145/361/4 149/368/263
f 148/360/256 149/368/263 152/369/264
f 149/363/258 150/362/257 154/370/265
f 149/363/258 154/370/265 153/371/266
f 150/364/259 151/365/260 154/372/267
f 151/365/260 155/373/268 154/372/267
f 151/366/261 152/367/262 155/374/269
f 152/367/262 156/375/270 155/374/269
f 152/369/264 149/368/263 153/376/271
f 152/369/264 153/376/271 156/377/272
f 153/371/266 154/370/265 158/378/273
f 153/371/266 158/378/273 157/379/274
f 154/372/267 155/373/268 158/380/275
f 155/373/268 159/381/276 158/380/275
f 155/374/269 156/375/270 159/382/277
f 156/375/270 160/383/278 159/382/277
f 156/377/272 153/376/271 157/384/279
f 156/377/272 157/384/279 160/385/280
f 157/386/274 158/387/273 162/388/281
f 157/386/274 162/388/281 161/389/282
f 158/380/275 159/381/276 162/390/283
f 159/381/276 163/391/284 162/390/283
f 159/392/277 160/393/278 163/394/285
f 160/393/278 164/395/286 163/394/285
f 160/385/280 157/384/279 161/396/287
f 160/385/280 161/396/287 164/397/288
f 161/389/282 162/388/281 166/398/289
f 161/389/282 166/398/289 165/399/290
f 162/390/283 163/391/284 166/400/291
f 163/391/284 167/401/292 166/400/291
f 163/394/285 164/395/286 167/402/293
f 164/395/286 168/403/294 167/402/293
f 164/397/288 161/396/287 165/404/295
f 164/397/288 165/404/295 168/405/296
f 165/399/290 166/398/289 170/406/297
f 165/399/290 170/406/297 169/407/298
f 166/400/291 167/401/292 170/408/299
f 167/401/292 171/409/300 170/408/299
f 167/402/293 168/403/294 171/410/301
f 168/403/294 172/411/302 171/410/301
f 168/405/296 165/404/295 169/412/303
f 168/405/296 169/412/303 172/413/304
f 169/414/298 170/415/297 174/416/305
f 169/414/298 174/416/305 173/417/305
f 170/408/299 171/409/300 174/418/306
f 171/419/300 175/420/307 174/421/306
f 171/422/301 172/423/302 175/424/308
f 172/423/302 176/425/309 175/424/308
f 172/413/304 169/412/303 173/426/310
f 172/413/304 173/426/310 176/427/311
f 173/428/312 174/429/312 178/430/313
f 173/428/312 178/430/313 177/431/314
f 174/421/306 175/420/307 178/432/315
f 175/420/307 179/433/316 178/432/315
f 175/424/308 176/425/309 179/434/317
f 176/425/309 180/435/318 179/434/317
f 176/427/311 173/426/310 177/436/319
f 176/427/311 177/436/319 180/437/320
f 177/431/314 178/430/313 182/438/321
f 177/431/314 182/438/321 181/439/322
f 178/432/315 179/433/316 183/440/323
f 178/432/315 183/440/323 182/441/324
f 179/434/317 180/435/318 183/442/325
f 180/435/318 184/443/326 183/442/325
f 180/437/320 177/436/319 181/444/327
f 180/437/320 181/444/327 184/445/328
f 181/439/322 182/438/321 186/446/143
f 181/439/322 186/446/143 185/447/143
f 182/441/324 183/440/323 187/448/329
f 182/441/324 187/448/329 186/449/330
f 183/442/325 184/443/326 187/450/331
f 184/443/326 188/451/331 187/450/331
f 184/445/328 181/444/327 188/452/332
f 181/444/327 185/453/333 188/452/332
f 185/454/1 186/455/1 190/456/1
f 185/454/1 190/456/1 189/457/1
f 186/449/330 187/448/329 190/458/334
f 187/448/329 191/459/335 190/458/334
f 187/460/331 188/461/331 192/462/336
f 187/460/331 192/462/336 191/463/337
f 188/452/332 185/453/333 189/464/4
f 188/452/332 189/464/4 192/465/4
f 189/457/1 190/456/1 98/239/1
f 189/457/1 98/239/1 97/238/1
f 190/458/334 191/459/335 98/242/168
f 191/459/335 99/243/169 98/242/168
f 191/463/337 192/462/336 100/247/173
f 191/463/337 100/247/173 99/246/172
f 192/465/4 189/464/4 97/251/4
f 192/465/4 97/251/4 100/250/4
