# Titan_HeadTrim - BRZ-01 Titan head/collar mesh (assets/meshes/head/source/build.py)
# units: studs (Scale 1.7), +Y up, face toward -Z, centred on the bounding box
# weld to bone 'Head' (MechHead) at bone.CFrame * CFrame.new(0.0000, -0.0326, -0.5467) * ImportRotation
# size 2.9539 x 2.8397 x 2.8723, role hi
o Titan_HeadTrim
v -0.32640 -1.19136 -0.68182
v 0.00000 -1.41984 -0.84048
v 0.00000 -1.04448 -0.98736
v -0.32640 -1.19136 -0.35542
v 0.00000 -1.04448 -0.66096
v 0.00000 -1.41984 -0.51408
v -0.37198 -1.04448 -0.70465
v -0.37198 -1.04448 -0.37825
v 0.00000 0.14688 -1.43616
v 0.00000 0.14688 -1.10976
v -0.83527 0.14688 -0.80136
v -0.83232 0.04080 -0.76364
v -0.57936 -0.02448 -0.93129
v -0.83527 0.14688 -0.47496
v -0.57936 -0.02448 -0.60489
v -0.83232 0.04080 -0.43724
v -0.39984 -0.95472 -0.71730
v -0.39984 -0.95472 -0.39090
v 0.00000 0.27744 -1.26041
v -0.84864 0.62832 -0.50559
v 0.00000 0.27744 -0.93401
v -0.84864 0.62832 -0.17919
v 0.32640 -1.19136 -0.68182
v 0.32640 -1.19136 -0.35542
v 0.37198 -1.04448 -0.70465
v 0.37198 -1.04448 -0.37825
v 0.57936 -0.02448 -0.93129
v 0.83232 0.04080 -0.76364
v 0.83527 0.14688 -0.80136
v 0.57936 -0.02448 -0.60489
v 0.83527 0.14688 -0.47496
v 0.83232 0.04080 -0.43724
v 0.39984 -0.95472 -0.71730
v 0.39984 -0.95472 -0.39090
v 0.84864 0.62832 -0.50559
v 0.84864 0.62832 -0.17919
v 0.53856 -0.97104 -0.67916
v 0.83232 0.04080 -0.83708
v 0.57936 -0.02448 -1.00473
v 0.53856 -0.97104 -0.43436
v 0.57936 -0.02448 -0.75993
v 0.83232 0.04080 -0.59228
v 0.39984 -0.95472 -0.79074
v 0.39984 -0.95472 -0.54594
v -0.53856 -0.97104 -0.67916
v -0.83232 0.04080 -0.83708
v -0.57936 -0.02448 -1.00473
v -0.53856 -0.97104 -0.43436
v -0.57936 -0.02448 -0.75993
v -0.83232 0.04080 -0.59228
v -0.39984 -0.95472 -0.79074
v -0.39984 -0.95472 -0.54594
v 1.18728 0.81600 1.43616
v 1.18728 1.00260 1.40661
v 1.18728 1.17093 1.32084
v 1.18728 1.30452 1.18725
v 1.18728 1.39029 1.01892
v 1.18728 1.41984 0.83232
v 1.18728 1.39029 0.64572
v 1.18728 1.30452 0.47739
v 1.18728 1.17093 0.34380
v 1.18728 1.00260 0.25803
v 1.18728 0.81600 0.22848
v 1.18728 0.62940 0.25803
v 1.18728 0.46107 0.34380
v 1.18728 0.32748 0.47739
v 1.18728 0.24171 0.64572
v 1.18728 0.21216 0.83232
v 1.18728 0.24171 1.01892
v 1.18728 0.32748 1.18725
v 1.18728 0.46107 1.32084
v 1.18728 0.62940 1.40661
v 1.40352 0.81600 1.43616
v 1.40352 1.00260 1.40661
v 1.40352 1.17093 1.32084
v 1.40352 1.30452 1.18725
v 1.40352 1.39029 1.01892
v 1.40352 1.41984 0.83232
v 1.40352 1.39029 0.64572
v 1.40352 1.30452 0.47739
v 1.40352 1.17093 0.34380
v 1.40352 1.00260 0.25803
v 1.40352 0.81600 0.22848
v 1.40352 0.62940 0.25803
v 1.40352 0.46107 0.34380
v 1.40352 0.32748 0.47739
v 1.40352 0.24171 0.64572
v 1.40352 0.21216 0.83232
v 1.40352 0.24171 1.01892
v 1.40352 0.32748 1.18725
v 1.40352 0.46107 1.32084
v 1.40352 0.62940 1.40661
v 1.47696 0.81600 1.30560
v 1.47696 0.96225 1.28244
v 1.47696 1.09419 1.21521
v 1.47696 1.19889 1.11051
v 1.47696 1.26612 0.97857
v 1.47696 1.28928 0.83232
v 1.47696 1.26612 0.68607
v 1.47696 1.19889 0.55413
v 1.47696 1.09419 0.44943
v 1.47696 0.96225 0.38220
v 1.47696 0.81600 0.35904
v 1.47696 0.66975 0.38220
v 1.47696 0.53781 0.44943
v 1.47696 0.43311 0.55413
v 1.47696 0.36588 0.68607
v 1.47696 0.34272 0.83232
v 1.47696 0.36588 0.97857
v 1.47696 0.43311 1.11051
v 1.47696 0.53781 1.21521
v 1.47696 0.66975 1.28244
v -1.18728 0.81600 1.43616
v -1.18728 1.00260 1.40661
v -1.18728 1.17093 1.32084
v -1.18728 1.30452 1.18725
v -1.18728 1.39029 1.01892
v -1.18728 1.41984 0.83232
v -1.18728 1.39029 0.64572
v -1.18728 1.30452 0.47739
v -1.18728 1.17093 0.34380
v -1.18728 1.00260 0.25803
v -1.18728 0.81600 0.22848
v -1.18728 0.62940 0.25803
v -1.18728 0.46107 0.34380
v -1.18728 0.32748 0.47739
v -1.18728 0.24171 0.64572
v -1.18728 0.21216 0.83232
v -1.18728 0.24171 1.01892
v -1.18728 0.32748 1.18725
v -1.18728 0.46107 1.32084
v -1.18728 0.62940 1.40661
v -1.40352 0.81600 1.43616
v -1.40352 1.00260 1.40661
v -1.40352 1.17093 1.32084
v -1.40352 1.30452 1.18725
v -1.40352 1.39029 1.01892
v -1.40352 1.41984 0.83232
v -1.40352 1.39029 0.64572
v -1.40352 1.30452 0.47739
v -1.40352 1.17093 0.34380
v -1.40352 1.00260 0.25803
v -1.40352 0.81600 0.22848
v -1.40352 0.62940 0.25803
v -1.40352 0.46107 0.34380
v -1.40352 0.32748 0.47739
v -1.40352 0.24171 0.64572
v -1.40352 0.21216 0.83232
v -1.40352 0.24171 1.01892
v -1.40352 0.32748 1.18725
v -1.40352 0.46107 1.32084
v -1.40352 0.62940 1.40661
v -1.47696 0.81600 1.30560
v -1.47696 0.96225 1.28244
v -1.47696 1.09419 1.21521
v -1.47696 1.19889 1.11051
v -1.47696 1.26612 0.97857
v -1.47696 1.28928 0.83232
v -1.47696 1.26612 0.68607
v -1.47696 1.19889 0.55413
v -1.47696 1.09419 0.44943
v -1.47696 0.96225 0.38220
v -1.47696 0.81600 0.35904
v -1.47696 0.66975 0.38220
v -1.47696 0.53781 0.44943
v -1.47696 0.43311 0.55413
v -1.47696 0.36588 0.68607
v -1.47696 0.34272 0.83232
v -1.47696 0.36588 0.97857
v -1.47696 0.43311 1.11051
v -1.47696 0.53781 1.21521
v -1.47696 0.66975 1.28244
vt -0.08693 0.21821
vt -0.18730 0.15683
vt -0.18665 0.25759
vt 0.04272 0.24710
vt 0.14244 0.28648
vt 0.14309 0.18571
vt -0.07321 0.18185
vt 0.02899 0.21073
vt -0.18701 -0.16145
vt 0.14279 -0.13256
vt 0.06918 -0.10526
vt -0.00935 -0.07670
vt 0.06825 -0.07712
vt -0.11340 -0.07638
vt -0.11247 -0.04824
vt -0.03486 -0.04781
vt -0.06464 0.15974
vt 0.02043 0.18863
vt -0.13784 0.13467
vt 0.09875 0.09151
vt 0.09531 -0.04909
vt 0.10724 0.08547
vt -0.12592 -0.09830
vt -0.12936 0.04231
vt -0.14507 0.18720
vt 0.11446 0.13800
vt 0.18730 0.15683
vt 0.08693 0.21821
vt 0.18665 0.25759
vt -0.14309 0.18571
vt -0.14244 0.28648
vt -0.04272 0.24710
vt 0.07321 0.18185
vt -0.02899 0.21073
vt 0.18701 -0.16145
vt -0.14279 -0.13256
vt 0.00935 -0.07670
vt -0.06918 -0.10526
vt -0.06825 -0.07712
vt 0.03486 -0.04781
vt 0.11247 -0.04824
vt 0.11340 -0.07638
vt 0.06464 0.15974
vt -0.02043 0.18863
vt -0.09875 0.09151
vt 0.13784 0.13467
vt -0.09531 -0.04909
vt 0.12936 0.04231
vt 0.12592 -0.09830
vt -0.10724 0.08547
vt 0.14507 0.18720
vt -0.11446 0.13800
vt -0.20356 0.21012
vt -0.20356 0.12852
vt -0.10395 0.17046
vt -0.10395 0.08886
vt -0.17046 0.27379
vt -0.09456 0.23549
vt -0.17616 0.23549
vt -0.08886 0.27379
vt -0.09772 0.21208
vt -0.17932 0.21208
vt -0.15122 -0.02471
vt -0.23282 -0.02471
vt 0.13872 0.23282
vt 0.13872 0.15122
vt 0.20403 0.19091
vt 0.20403 0.10931
vt -0.19091 -0.01597
vt -0.11874 -0.04250
vt -0.20034 -0.04250
vt -0.10931 -0.01597
vt -0.12640 -0.16291
vt -0.04480 -0.16291
vt 0.25608 -0.12640
vt 0.02650 -0.23350
vt 0.02650 -0.31510
vt 0.25608 -0.04480
vt 0.17616 0.23549
vt 0.09456 0.23549
vt 0.17046 0.27379
vt 0.08886 0.27379
vt 0.10395 0.17046
vt 0.20356 0.12852
vt 0.20356 0.21012
vt 0.10395 0.08886
vt 0.20034 -0.04250
vt 0.11874 -0.04250
vt 0.19091 -0.01597
vt 0.10931 -0.01597
vt -0.20403 0.19091
vt -0.13872 0.15122
vt -0.13872 0.23282
vt -0.20403 0.10931
vt 0.23282 -0.02471
vt 0.15122 -0.02471
vt 0.17932 0.21208
vt 0.09772 0.21208
vt -0.02650 -0.31510
vt -0.02650 -0.23350
vt -0.25608 -0.12640
vt -0.25608 -0.04480
vt 0.12640 -0.16291
vt 0.04480 -0.16291
vt 0.03197 0.16732
vt 0.01945 -0.08282
vt -0.05815 -0.08332
vt 0.00122 0.18889
vt 0.09134 -0.06174
vt 0.01374 -0.06125
vt 0.07452 0.15367
vt -0.04133 0.17524
vt -0.20403 -0.20927
vt -0.13872 -0.25118
vt -0.13872 -0.18998
vt -0.20403 -0.14807
vt -0.25118 -0.02144
vt -0.19768 0.21541
vt -0.18998 -0.02144
vt -0.13648 0.21541
vt -0.12716 0.19768
vt -0.16208 0.16979
vt -0.12716 0.13648
vt -0.16208 0.10859
vt 0.16979 0.19559
vt 0.20927 -0.06781
vt 0.14807 -0.06781
vt 0.10859 0.19559
vt -0.03197 0.16732
vt 0.05815 -0.08332
vt -0.01945 -0.08282
vt -0.00122 0.18889
vt -0.01374 -0.06125
vt -0.09134 -0.06174
vt -0.07452 0.15367
vt 0.04133 0.17524
vt 0.20403 -0.20927
vt 0.13872 -0.18998
vt 0.13872 -0.25118
vt 0.20403 -0.14807
vt 0.25118 -0.02144
vt 0.18998 -0.02144
vt 0.19768 0.21541
vt 0.13648 0.21541
vt 0.12716 0.19768
vt 0.12716 0.13648
vt 0.16208 0.16979
vt 0.16208 0.10859
vt -0.16979 0.19559
vt -0.14807 -0.06781
vt -0.20927 -0.06781
vt -0.10859 0.19559
vt 0.29682 -0.14532
vt 0.35088 -0.19255
vt 0.29682 -0.19255
vt 0.35088 -0.14532
vt -0.29682 0.07142
vt -0.35088 0.02650
vt -0.29682 0.02650
vt -0.35088 0.07142
vt -0.35088 -0.02073
vt -0.29682 -0.02073
vt -0.35088 -0.06565
vt -0.29682 -0.06565
vt -0.29682 0.30597
vt -0.35088 0.26105
vt -0.29682 0.26105
vt -0.35088 0.30597
vt -0.35088 0.21382
vt -0.29682 0.21382
vt -0.35088 0.16890
vt -0.29682 0.16890
vt -0.29682 0.31500
vt -0.35088 0.26777
vt -0.29682 0.26777
vt -0.35088 0.31500
vt -0.29682 -0.30496
vt -0.35088 -0.25832
vt -0.29682 -0.25832
vt -0.35088 -0.30496
vt -0.35088 -0.21167
vt -0.29682 -0.21167
vt -0.29682 -0.15583
vt -0.35088 -0.11091
vt -0.29682 -0.11091
vt -0.35088 -0.15583
vt -0.35088 -0.06368
vt -0.29682 -0.06368
vt -0.35088 -0.01876
vt -0.29682 -0.01876
vt -0.29682 -0.08821
vt -0.35088 -0.13486
vt -0.29682 -0.13486
vt -0.35088 -0.08821
vt -0.35088 -0.18151
vt -0.29682 -0.18151
vt -0.29682 -0.21429
vt -0.35088 -0.26094
vt -0.29682 -0.26094
vt -0.35088 -0.21429
vt -0.35088 -0.30758
vt -0.29682 -0.30758
vt 0.29682 -0.20770
vt 0.35088 -0.25262
vt 0.29682 -0.25262
vt 0.35088 -0.20770
vt 0.35088 -0.29985
vt 0.29682 -0.29985
vt 0.35088 -0.34477
vt 0.29682 -0.34477
vt -0.35904 -0.20400
vt -0.32061 -0.24056
vt -0.35165 -0.25065
vt -0.32640 -0.20400
vt -0.30380 -0.27355
vt -0.33021 -0.29273
vt -0.29681 -0.32613
vt -0.27763 -0.29972
vt -0.24464 -0.31653
vt -0.25473 -0.34757
vt -0.20808 -0.32232
vt -0.20808 -0.35496
vt -0.16143 -0.34757
vt -0.17152 -0.31653
vt -0.11935 -0.32613
vt -0.13853 -0.29972
vt -0.11236 -0.27355
vt -0.08595 -0.29273
vt -0.09555 -0.24056
vt -0.06451 -0.25065
vt -0.08976 -0.20400
vt -0.05712 -0.20400
vt -0.06451 -0.15735
vt -0.09555 -0.16744
vt -0.08595 -0.11527
vt -0.11236 -0.13445
vt -0.11935 -0.08187
vt -0.13853 -0.10828
vt -0.17152 -0.09147
vt -0.16143 -0.06043
vt -0.20808 -0.08568
vt -0.20808 -0.05304
vt -0.25473 -0.06043
vt -0.24464 -0.09147
vt -0.27763 -0.10828
vt -0.29681 -0.08187
vt -0.30380 -0.13445
vt -0.33021 -0.11527
vt -0.32061 -0.16744
vt -0.35165 -0.15735
vt 0.06451 -0.25065
vt 0.05712 -0.20400
vt 0.06451 -0.15735
vt 0.08595 -0.11527
vt 0.08595 -0.29273
vt 0.11935 -0.32613
vt 0.11935 -0.08187
vt 0.16143 -0.06043
vt 0.16143 -0.34757
vt 0.20808 -0.35496
vt 0.20808 -0.05304
vt 0.25473 -0.34757
vt 0.25473 -0.06043
vt 0.29681 -0.08187
vt 0.29681 -0.32613
vt 0.33021 -0.29273
vt 0.33021 -0.11527
vt 0.35165 -0.15735
vt 0.35165 -0.25065
vt 0.35904 -0.20400
vt -0.29682 -0.14532
vt -0.29682 -0.19255
vt -0.35088 -0.19255
vt -0.35088 -0.14532
vt 0.29682 0.07142
vt 0.29682 0.02650
vt 0.35088 0.02650
vt 0.35088 0.07142
vt 0.29682 -0.02073
vt 0.35088 -0.02073
vt 0.29682 -0.06565
vt 0.35088 -0.06565
vt 0.29682 0.30597
vt 0.29682 0.26105
vt 0.35088 0.26105
vt 0.35088 0.30597
vt 0.29682 0.21382
vt 0.35088 0.21382
vt 0.29682 0.16890
vt 0.35088 0.16890
vt 0.29682 0.31500
vt 0.29682 0.26777
vt 0.35088 0.26777
vt 0.35088 0.31500
vt 0.29682 -0.30496
vt 0.29682 -0.25832
vt 0.35088 -0.25832
vt 0.35088 -0.30496
vt 0.29682 -0.21167
vt 0.35088 -0.21167
vt 0.29682 -0.15583
vt 0.29682 -0.11091
vt 0.35088 -0.11091
vt 0.35088 -0.15583
vt 0.29682 -0.06368
vt 0.35088 -0.06368
vt 0.29682 -0.01876
vt 0.35088 -0.01876
vt 0.29682 -0.08821
vt 0.29682 -0.13486
vt 0.35088 -0.13486
vt 0.35088 -0.08821
vt 0.29682 -0.18151
vt 0.35088 -0.18151
vt 0.29682 -0.21429
vt 0.29682 -0.26094
vt 0.35088 -0.26094
vt 0.35088 -0.21429
vt 0.29682 -0.30758
vt 0.35088 -0.30758
vt -0.29682 -0.20770
vt -0.29682 -0.25262
vt -0.35088 -0.25262
vt -0.35088 -0.20770
vt -0.29682 -0.29985
vt -0.35088 -0.29985
vt -0.29682 -0.34477
vt -0.35088 -0.34477
vt 0.32061 -0.24056
vt 0.32640 -0.20400
vt 0.30380 -0.27355
vt 0.27763 -0.29972
vt 0.24464 -0.31653
vt 0.20808 -0.32232
vt 0.17152 -0.31653
vt 0.13853 -0.29972
vt 0.11236 -0.27355
vt 0.09555 -0.24056
vt 0.08976 -0.20400
vt 0.09555 -0.16744
vt 0.11236 -0.13445
vt 0.13853 -0.10828
vt 0.17152 -0.09147
vt 0.20808 -0.08568
vt 0.24464 -0.09147
vt 0.27763 -0.10828
vt 0.30380 -0.13445
vt 0.32061 -0.16744
vn -0.5777 -0.2974 -0.7601
vn -0.5790 -0.2902 -0.7619
vn 0.5777 0.2974 0.7601
vn 0.5790 0.2902 0.7619
vn -0.5795 -0.2878 -0.7625
vn 0.5795 0.2878 0.7625
vn -0.5796 -0.2873 -0.7626
vn 0.5796 0.2873 0.7626
vn -0.4701 0.5322 -0.7041
vn -0.4833 0.4485 -0.7519
vn 0.4701 -0.5322 0.7041
vn 0.4833 -0.4485 0.7519
vn -0.4128 0.7312 -0.5431
vn 0.4128 -0.7312 0.5431
vn 0.5790 -0.2902 -0.7619
vn 0.5777 -0.2974 -0.7601
vn -0.5790 0.2902 0.7619
vn -0.5777 0.2974 0.7601
vn 0.5795 -0.2878 -0.7625
vn -0.5795 0.2878 0.7625
vn 0.5796 -0.2873 -0.7626
vn -0.5796 0.2873 0.7626
vn 0.4701 0.5322 -0.7041
vn 0.4833 0.4485 -0.7519
vn -0.4701 -0.5322 0.7041
vn -0.4833 -0.4485 0.7519
vn 0.4128 0.7312 -0.5431
vn -0.4128 -0.7312 0.5431
vn -0.5735 -0.8192 0.0000
vn -0.9551 -0.2964 0.0000
vn -0.9783 -0.2074 0.0000
vn -0.9809 -0.1946 0.0000
vn -0.9819 -0.1895 0.0000
vn -0.2499 -0.9683 0.0000
vn -0.9996 -0.0278 0.0000
vn 0.3821 0.9241 0.0000
vn 0.9551 -0.2964 0.0000
vn 0.5735 -0.8192 0.0000
vn 0.9996 -0.0278 0.0000
vn 0.2499 -0.9683 0.0000
vn 0.9819 -0.1895 0.0000
vn 0.9809 -0.1946 0.0000
vn 0.9783 -0.2074 0.0000
vn -0.3821 0.9241 0.0000
vn -0.2499 0.9683 0.0000
vn -0.9819 0.1895 0.0000
vn -0.1168 -0.9932 0.0000
vn 0.9603 -0.2788 0.0000
vn 0.2499 0.9683 0.0000
vn 0.9819 0.1895 0.0000
vn 0.1168 -0.9932 0.0000
vn -0.9603 -0.2788 0.0000
vn 0.0000 0.0527 0.9986
vn 0.0000 0.2584 0.9660
vn 0.0000 0.3587 0.9334
vn 0.0000 -0.0527 0.9986
vn 0.0000 0.5443 0.8389
vn 0.0000 0.6296 0.7769
vn 0.0000 0.7769 0.6296
vn 0.0000 0.8389 0.5443
vn 0.0000 0.9334 0.3587
vn 0.0000 0.9660 0.2584
vn 0.0000 0.9986 0.0527
vn 0.0000 0.9986 -0.0527
vn 0.0000 0.9660 -0.2584
vn 0.0000 0.9334 -0.3587
vn 0.0000 0.8389 -0.5443
vn 0.0000 0.7769 -0.6296
vn 0.0000 0.6296 -0.7769
vn 0.0000 0.5443 -0.8389
vn 0.0000 0.3587 -0.9334
vn 0.0000 0.2584 -0.9660
vn 0.0000 0.0527 -0.9986
vn 0.0000 -0.0527 -0.9986
vn 0.0000 -0.2584 -0.9660
vn 0.0000 -0.3587 -0.9334
vn 0.0000 -0.5443 -0.8389
vn 0.0000 -0.6296 -0.7769
vn 0.0000 -0.7769 -0.6296
vn 0.0000 -0.8389 -0.5443
vn 0.0000 -0.9334 -0.3587
vn 0.0000 -0.9660 -0.2584
vn 0.0000 -0.9986 -0.0527
vn 0.0000 -0.9986 0.0527
vn 0.0000 -0.9660 0.2584
vn 0.0000 -0.9334 0.3587
vn 0.0000 -0.8389 0.5443
vn 0.0000 -0.7769 0.6296
vn 0.0000 -0.6296 0.7769
vn 0.0000 -0.5443 0.8389
vn 0.0000 -0.3587 0.9334
vn 0.0000 -0.2584 0.9660
vn 0.8716 -0.0000 0.4903
vn 0.9632 0.0671 0.2601
vn 0.8714 0.1723 0.4594
vn 0.9023 -0.0000 0.4311
vn 0.9660 0.1520 0.2093
vn 0.8716 0.2882 0.3966
vn 0.8716 0.3966 0.2882
vn 0.9985 0.0438 0.0318
vn 0.9970 0.0724 0.0286
vn 0.8714 0.4729 0.1307
vn 0.9911 0.1332 0.0000
vn 0.8716 0.4903 0.0000
vn 0.8714 0.4729 -0.1307
vn 0.9970 0.0724 -0.0286
vn 0.8716 0.3966 -0.2882
vn 0.9980 0.0513 -0.0373
vn 0.9908 0.0861 -0.1044
vn 0.8714 0.2704 -0.4094
vn 0.9297 0.1352 -0.3426
vn 0.8714 0.1307 -0.4729
vn 0.8866 0.0000 -0.4626
vn 0.8716 0.0000 -0.4903
vn 0.8714 -0.1307 -0.4729
vn 0.9632 -0.0986 -0.2499
vn 0.8714 -0.2704 -0.4094
vn 0.9761 -0.1384 -0.1677
vn 0.8716 -0.3966 -0.2882
vn 0.9970 -0.0624 -0.0453
vn 0.9964 -0.0789 -0.0311
vn 0.8714 -0.4729 -0.1307
vn 0.9970 -0.0777 0.0000
vn 0.8716 -0.4903 0.0000
vn 0.8716 -0.4663 0.1515
vn 0.9985 -0.0524 0.0170
vn 0.9897 -0.1208 0.0768
vn 0.8714 -0.3837 0.3058
vn 0.9908 -0.0861 0.1044
vn 0.8714 -0.2704 0.4094
vn 0.9182 -0.1224 0.3767
vn 0.8716 -0.1515 0.4663
vn -1.0000 0.0000 0.0000
vn -0.8716 -0.0000 0.4903
vn -0.8714 0.1723 0.4594
vn -0.9632 0.0671 0.2601
vn -0.9023 -0.0000 0.4311
vn -0.8716 0.2882 0.3966
vn -0.9660 0.1520 0.2093
vn -0.8716 0.3966 0.2882
vn -0.9985 0.0438 0.0318
vn -0.8714 0.4729 0.1307
vn -0.9970 0.0724 0.0286
vn -0.8716 0.4903 0.0000
vn -0.9911 0.1332 0.0000
vn -0.8714 0.4729 -0.1307
vn -0.9970 0.0724 -0.0286
vn -0.8716 0.3966 -0.2882
vn -0.9980 0.0513 -0.0373
vn -0.8714 0.2704 -0.4094
vn -0.9908 0.0861 -0.1044
vn -0.8714 0.1307 -0.4729
vn -0.9297 0.1352 -0.3426
vn -0.8716 0.0000 -0.4903
vn -0.8866 0.0000 -0.4626
vn -0.8714 -0.1307 -0.4729
vn -0.9632 -0.0986 -0.2499
vn -0.8714 -0.2704 -0.4094
vn -0.9761 -0.1384 -0.1677
vn -0.8716 -0.3966 -0.2882
vn -0.9970 -0.0624 -0.0453
vn -0.8714 -0.4729 -0.1307
vn -0.9964 -0.0789 -0.0311
vn -0.8716 -0.4903 0.0000
vn -0.9970 -0.0777 0.0000
vn -0.8716 -0.4663 0.1515
vn -0.9985 -0.0524 0.0170
vn -0.8714 -0.3837 0.3058
vn -0.9897 -0.1208 0.0768
vn -0.8714 -0.2704 0.4094
vn -0.9908 -0.0861 0.1044
vn -0.8716 -0.1515 0.4663
vn -0.9182 -0.1224 0.3767
vn 1.0000 0.0000 0.0000
s off
f 1/1/1 3/2/2 2/3/1
f 4/4/3 6/5/3 5/6/4
f 7/7/5 3/2/2 1/1/1
f 8/8/6 4/4/3 5/6/4
f 7/7/5 9/9/7 3/2/2
f 8/8/6 5/6/4 10/10/8
f 11/11/7 13/12/7 12/13/7
f 14/14/8 16/15/8 15/16/8
f 9/9/7 13/12/7 11/11/7
f 10/10/8 14/14/8 15/16/8
f 7/7/5 13/12/7 9/9/7
f 8/8/6 10/10/8 15/16/8
f 13/12/7 7/7/5 17/17/7
f 15/16/8 18/18/8 8/8/6
f 19/19/9 11/20/9 20/21/10
f 21/22/11 22/23/12 14/24/11
f 11/20/9 19/19/9 9/25/13
f 14/24/11 10/26/14 21/22/11
f 3/27/15 23/28/16 2/29/16
f 5/30/17 6/31/18 24/32/18
f 3/27/15 25/33/19 23/28/16
f 5/30/17 24/32/18 26/34/20
f 9/35/21 25/33/19 3/27/15
f 10/36/22 5/30/17 26/34/20
f 27/37/21 29/38/21 28/39/21
f 30/40/22 32/41/22 31/42/22
f 27/37/21 9/35/21 29/38/21
f 30/40/22 31/42/22 10/36/22
f 27/37/21 25/33/19 9/35/21
f 30/40/22 10/36/22 26/34/20
f 25/33/19 27/37/21 33/43/21
f 26/34/20 34/44/22 30/40/22
f 29/45/23 19/46/23 35/47/24
f 31/48/25 36/49/26 21/50/25
f 9/51/27 19/46/23 29/45/23
f 10/52/28 31/48/25 21/50/25
f 2/53/29 6/54/29 1/55/29
f 1/55/29 6/54/29 4/56/29
f 1/57/30 8/58/30 7/59/30
f 1/57/30 4/60/30 8/58/30
f 7/59/30 18/61/31 17/62/32
f 7/59/30 8/58/30 18/61/31
f 17/62/32 15/63/33 13/64/33
f 17/62/32 18/61/31 15/63/33
f 13/65/34 15/66/34 12/67/34
f 12/67/34 15/66/34 16/68/34
f 12/69/35 14/70/35 11/71/35
f 12/69/35 16/72/35 14/70/35
f 11/71/35 14/70/35 20/73/35
f 20/73/35 14/70/35 22/74/35
f 20/75/36 21/76/36 19/77/36
f 20/75/36 22/78/36 21/76/36
f 25/79/37 26/80/37 23/81/37
f 23/81/37 26/80/37 24/82/37
f 23/83/38 6/84/38 2/85/38
f 23/83/38 24/86/38 6/84/38
f 29/87/39 31/88/39 28/89/39
f 28/89/39 31/88/39 32/90/39
f 28/91/40 30/92/40 27/93/40
f 28/91/40 32/94/40 30/92/40
f 27/95/41 30/96/41 33/97/42
f 33/97/42 30/96/41 34/98/43
f 33/97/42 34/98/43 25/79/37
f 25/79/37 34/98/43 26/80/37
f 19/99/44 21/100/44 35/101/44
f 35/101/44 21/100/44 36/102/44
f 35/103/39 31/88/39 29/87/39
f 35/103/39 36/104/39 31/88/39
f 37/105/21 39/106/21 38/107/21
f 40/108/22 42/109/22 41/110/22
f 39/106/21 37/105/21 43/111/21
f 41/110/22 44/112/22 40/108/22
f 38/113/45 39/114/45 41/115/45
f 38/113/45 41/115/45 42/116/45
f 39/117/46 43/118/46 41/119/46
f 43/118/46 44/120/46 41/119/46
f 43/121/47 37/122/47 44/123/47
f 37/122/47 40/124/47 44/123/47
f 37/125/48 38/126/48 42/127/48
f 37/125/48 42/127/48 40/128/48
f 45/129/7 46/130/7 47/131/7
f 48/132/8 49/133/8 50/134/8
f 47/131/7 51/135/7 45/129/7
f 49/133/8 48/132/8 52/136/8
f 46/137/49 49/138/49 47/139/49
f 46/137/49 50/140/49 49/138/49
f 47/141/50 49/142/50 51/143/50
f 51/143/50 49/142/50 52/144/50
f 51/145/51 52/146/51 45/147/51
f 45/147/51 52/146/51 48/148/51
f 45/149/52 50/150/52 46/151/52
f 45/149/52 48/152/52 50/150/52
f 53/153/53 74/154/54 54/155/55
f 53/153/53 73/156/56 74/154/54
f 54/157/55 75/158/57 55/159/58
f 54/157/55 74/160/54 75/158/57
f 55/159/58 76/161/59 56/162/60
f 55/159/58 75/158/57 76/161/59
f 56/162/60 77/163/61 57/164/62
f 56/162/60 76/161/59 77/163/61
f 57/165/62 78/166/63 58/167/64
f 57/165/62 77/168/61 78/166/63
f 58/167/64 79/169/65 59/170/66
f 58/167/64 78/166/63 79/169/65
f 59/170/66 80/171/67 60/172/68
f 59/170/66 79/169/65 80/171/67
f 60/173/68 81/174/69 61/175/70
f 60/173/68 80/176/67 81/174/69
f 61/177/70 82/178/71 62/179/72
f 61/177/70 81/180/69 82/178/71
f 62/179/72 83/181/73 63/182/74
f 62/179/72 82/178/71 83/181/73
f 63/183/74 84/184/75 64/185/76
f 63/183/74 83/186/73 84/184/75
f 64/185/76 85/187/77 65/188/78
f 64/185/76 84/184/75 85/187/77
f 65/188/78 86/189/79 66/190/80
f 65/188/78 85/187/77 86/189/79
f 66/191/80 87/192/81 67/193/82
f 66/191/80 86/194/79 87/192/81
f 67/193/82 88/195/83 68/196/84
f 67/193/82 87/192/81 88/195/83
f 68/197/84 89/198/85 69/199/86
f 68/197/84 88/200/83 89/198/85
f 69/199/86 90/201/87 70/202/88
f 69/199/86 89/198/85 90/201/87
f 70/203/88 91/204/89 71/205/90
f 70/203/88 90/206/87 91/204/89
f 71/205/90 92/207/91 72/208/92
f 71/205/90 91/204/89 92/207/91
f 72/208/92 73/209/56 53/210/53
f 72/208/92 92/207/91 73/209/56
f 73/211/93 94/212/94 74/213/95
f 73/211/93 93/214/96 94/212/94
f 74/213/95 95/215/97 75/216/98
f 74/213/95 94/212/94 95/215/97
f 75/216/98 95/215/97 76/217/99
f 76/217/99 95/215/97 96/218/100
f 76/217/99 97/219/101 77/220/102
f 76/217/99 96/218/100 97/219/101
f 77/220/102 98/221/103 78/222/104
f 77/220/102 97/219/101 98/221/103
f 78/222/104 98/221/103 79/223/105
f 79/223/105 98/221/103 99/224/106
f 79/223/105 99/224/106 80/225/107
f 80/225/107 99/224/106 100/226/108
f 80/225/107 101/227/109 81/228/110
f 80/225/107 100/226/108 101/227/109
f 81/228/110 102/229/111 82/230/112
f 81/228/110 101/227/109 102/229/111
f 82/230/112 103/231/113 83/232/114
f 82/230/112 102/229/111 103/231/113
f 83/232/114 103/231/113 84/233/115
f 84/233/115 103/231/113 104/234/116
f 84/233/115 104/234/116 85/235/117
f 85/235/117 104/234/116 105/236/118
f 85/235/117 105/236/118 86/237/119
f 86/237/119 105/236/118 106/238/120
f 86/237/119 107/239/121 87/240/122
f 86/237/119 106/238/120 107/239/121
f 87/240/122 108/241/123 88/242/124
f 87/240/122 107/239/121 108/241/123
f 88/242/124 108/241/123 89/243/125
f 89/243/125 108/241/123 109/244/126
f 89/243/125 110/245/127 90/246/128
f 89/243/125 109/244/126 110/245/127
f 90/246/128 111/247/129 91/248/130
f 90/246/128 110/245/127 111/247/129
f 91/248/130 112/249/131 92/250/132
f 91/248/130 111/247/129 112/249/131
f 92/250/132 112/249/131 73/211/93
f 73/211/93 112/249/131 93/214/96
f 62/251/133 63/252/133 64/253/133
f 62/251/133 64/253/133 65/254/133
f 61/255/133 62/251/133 65/254/133
f 60/256/133 61/255/133 65/254/133
f 60/256/133 65/254/133 66/257/133
f 60/256/133 66/257/133 67/258/133
f 59/259/133 60/256/133 67/258/133
f 58/260/133 59/259/133 67/258/133
f 58/260/133 67/258/133 68/261/133
f 57/262/133 58/260/133 68/261/133
f 57/262/133 68/261/133 69/263/133
f 57/262/133 69/263/133 70/264/133
f 56/265/133 57/262/133 70/264/133
f 55/266/133 56/265/133 70/264/133
f 55/266/133 70/264/133 71/267/133
f 55/266/133 71/267/133 72/268/133
f 54/269/133 55/266/133 72/268/133
f 53/270/133 54/269/133 72/268/133
f 112/249/131 94/212/94 93/214/96
f 111/247/129 94/212/94 112/249/131
f 111/247/129 95/215/97 94/212/94
f 111/247/129 96/218/100 95/215/97
f 110/245/127 96/218/100 111/247/129
f 109/244/126 96/218/100 110/245/127
f 109/244/126 97/219/101 96/218/100
f 108/241/123 97/219/101 109/244/126
f 108/241/123 98/221/103 97/219/101
f 108/241/123 99/224/106 98/221/103
f 107/239/121 99/224/106 108/241/123
f 107/239/121 100/226/108 99/224/106
f 106/238/120 100/226/108 107/239/121
f 106/238/120 101/227/109 100/226/108
f 105/236/118 101/227/109 106/238/120
f 104/234/116 101/227/109 105/236/118
f 104/234/116 102/229/111 101/227/109
f 102/229/111 104/234/116 103/231/113
f 113/271/53 114/272/55 134/273/54
f 113/271/53 134/273/54 133/274/56
f 114/275/55 115/276/58 135/277/57
f 114/275/55 135/277/57 134/278/54
f 115/276/58 116/279/60 136/280/59
f 115/276/58 136/280/59 135/277/57
f 116/279/60 117/281/62 137/282/61
f 116/279/60 137/282/61 136/280/59
f 117/283/62 118/284/64 138/285/63
f 117/283/62 138/285/63 137/286/61
f 118/284/64 119/287/66 139/288/65
f 118/284/64 139/288/65 138/285/63
f 119/287/66 120/289/68 140/290/67
f 119/287/66 140/290/67 139/288/65
f 120/291/68 121/292/70 141/293/69
f 120/291/68 141/293/69 140/294/67
f 121/295/70 122/296/72 142/297/71
f 121/295/70 142/297/71 141/298/69
f 122/296/72 123/299/74 143/300/73
f 122/296/72 143/300/73 142/297/71
f 123/301/74 124/302/76 144/303/75
f 123/301/74 144/303/75 143/304/73
f 124/302/76 125/305/78 145/306/77
f 124/302/76 145/306/77 144/303/75
f 125/305/78 126/307/80 146/308/79
f 125/305/78 146/308/79 145/306/77
f 126/309/80 127/310/82 147/311/81
f 126/309/80 147/311/81 146/312/79
f 127/310/82 128/313/84 148/314/83
f 127/310/82 148/314/83 147/311/81
f 128/315/84 129/316/86 149/317/85
f 128/315/84 149/317/85 148/318/83
f 129/316/86 130/319/88 150/320/87
f 129/316/86 150/320/87 149/317/85
f 130/321/88 131/322/90 151/323/89
f 130/321/88 151/323/89 150/324/87
f 131/322/90 132/325/92 152/326/91
f 131/322/90 152/326/91 151/323/89
f 132/325/92 113/327/53 133/328/56
f 132/325/92 133/328/56 152/326/91
f 133/270/134 134/269/135 154/329/136
f 133/270/134 154/329/136 153/330/137
f 134/269/135 135/266/138 155/331/139
f 134/269/135 155/331/139 154/329/136
f 135/266/138 136/265/140 155/331/139
f 136/265/140 156/332/141 155/331/139
f 136/265/140 137/262/142 157/333/143
f 136/265/140 157/333/143 156/332/141
f 137/262/142 138/260/144 158/334/145
f 137/262/142 158/334/145 157/333/143
f 138/260/144 139/259/146 158/334/145
f 139/259/146 159/335/147 158/334/145
f 139/259/146 140/256/148 159/335/147
f 140/256/148 160/336/149 159/335/147
f 140/256/148 141/255/150 161/337/151
f 140/256/148 161/337/151 160/336/149
f 141/255/150 142/251/152 162/338/153
f 141/255/150 162/338/153 161/337/151
f 142/251/152 143/252/154 163/339/155
f 142/251/152 163/339/155 162/338/153
f 143/252/154 144/253/156 163/339/155
f 144/253/156 164/340/157 163/339/155
f 144/253/156 145/254/158 164/340/157
f 145/254/158 165/341/159 164/340/157
f 145/254/158 146/257/160 165/341/159
f 146/257/160 166/342/161 165/341/159
f 146/257/160 147/258/162 167/343/163
f 146/257/160 167/343/163 166/342/161
f 147/258/162 148/261/164 168/344/165
f 147/258/162 168/344/165 167/343/163
f 148/261/164 149/263/166 168/344/165
f 149/263/166 169/345/167 168/344/165
f 149/263/166 150/264/168 170/346/169
f 149/263/166 170/346/169 169/345/167
f 150/264/168 151/267/170 171/347/171
f 150/264/168 171/347/171 170/346/169
f 151/267/170 152/268/172 172/348/173
f 151/267/170 172/348/173 171/347/171
f 152/268/172 133/270/134 172/348/173
f 133/270/134 153/330/137 172/348/173
f 122/230/174 124/233/174 123/232/174
f 122/230/174 125/235/174 124/233/174
f 121/228/174 125/235/174 122/230/174
f 120/225/174 125/235/174 121/228/174
f 120/225/174 126/237/174 125/235/174
f 120/225/174 127/240/174 126/237/174
f 119/223/174 127/240/174 120/225/174
f 118/222/174 127/240/174 119/223/174
f 118/222/174 128/242/174 127/240/174
f 117/220/174 128/242/174 118/222/174
f 117/220/174 129/243/174 128/242/174
f 117/220/174 130/246/174 129/243/174
f 116/217/174 130/246/174 117/220/174
f 115/216/174 130/246/174 116/217/174
f 115/216/174 131/248/174 130/246/174
f 115/216/174 132/250/174 131/248/174
f 114/213/174 132/250/174 115/216/174
f 113/211/174 132/250/174 114/213/174
f 172/348/173 153/330/137 154/329/136
f 171/347/171 172/348/173 154/329/136
f 171/347/171 154/329/136 155/331/139
f 171/347/171 155/331/139 156/332/141
f 170/346/169 171/347/171 156/332/141
f 169/345/167 170/346/169 156/332/141
f 169/345/167 156/332/141 157/333/143
f 168/344/165 169/345/167 157/333/143
f 168/344/165 157/333/143 158/334/145
f 168/344/165 158/334/145 159/335/147
f 167/343/163 168/344/165 159/335/147
f 167/343/163 159/335/147 160/336/149
f 166/342/161 167/343/163 160/336/149
f 166/342/161 160/336/149 161/337/151
f 165/341/159 166/342/161 161/337/151
f 164/340/157 165/341/159 161/337/151
f 164/340/157 161/337/151 162/338/153
f 162/338/153 163/339/155 164/340/157
