# Titan_ShoulderPad_L: BRZ-01 Titan left shoulder pad (PadShell), exported from the wedge build (MechConfig.Scale 1.7)
# units: studs, in the "Chest" bone frame (+Y up, front = -Z); UV: 1 repeat = 4.0 studs (crosshatch largeTile)
# vertices centred on their bounding box: place the MeshPart at bone.CFrame * CFrame.new(-5.3285, 6.5076, 0.6936)
o Titan_ShoulderPad_L
v 1.55856 -3.16200 -2.24400
v 0.06528 -3.16200 -2.24400
v -0.17952 -2.50920 -2.24400
v 1.35612 -3.13417 -1.42880
v -0.17952 -2.50920 -1.42800
v 0.06528 -3.16200 -1.42800
v 1.64832 -2.50920 -2.24400
v 1.44592 -2.48198 -1.42850
v 1.55856 -3.16200 2.24400
v -0.17952 -2.50920 2.24400
v 0.06528 -3.16200 2.24400
v 1.35575 -3.13411 1.42857
v 0.06528 -3.16200 1.42800
v -0.17952 -2.50920 1.42800
v 1.64832 -2.50920 2.24400
v 1.44596 -2.48171 1.42850
v -0.70992 -1.77480 -2.24400
v -0.70992 -1.77480 -1.42800
v 1.74624 -1.77480 -2.24400
v 1.54397 -1.74687 -1.42846
v -0.70992 -1.77480 2.24400
v -0.70992 -1.77480 1.42800
v 1.74624 -1.77480 2.24400
v 1.54391 -1.74730 1.42845
v -1.52592 -0.95880 -2.24400
v -1.52592 -0.95880 -1.42800
v 1.86048 -0.95880 -2.24400
v 1.65829 -0.93049 -1.42841
v -1.52592 -0.95880 2.24400
v -1.52592 -0.95880 1.42800
v 1.86048 -0.95880 2.24400
v 1.65829 -0.93049 1.42841
v -2.24400 -0.14280 -2.24400
v -2.02092 -0.23806 -1.86640
v 1.97472 -0.14280 -2.24400
v 1.75170 -0.11995 -2.03573
v -2.24400 -0.14280 2.24400
v -2.09975 -0.20824 1.75922
v 1.97472 -0.14280 2.24400
v 1.73970 -0.11702 2.04974
v -2.01552 0.42840 -2.21136
v -1.81243 0.38112 -2.01081
v 2.04816 0.42840 -2.21136
v 1.83862 0.40121 -2.00832
v -2.01552 0.42840 2.21136
v -1.81330 0.38188 2.01073
v 2.04816 0.42840 2.21136
v 1.83881 0.40111 2.00834
v -1.81152 0.83640 -2.11344
v -1.61097 0.77969 -1.91678
v 2.10528 0.83640 -2.11344
v 1.89454 0.77928 -1.91635
v -1.81152 0.83640 2.11344
v -1.61149 0.77936 1.91689
v 2.10528 0.83640 2.11344
v 1.89300 0.77968 1.91621
v -1.78704 1.24440 -1.93392
v -1.58809 1.14543 -1.75464
v 2.13792 1.24440 -1.93392
v 1.92587 1.14633 -1.75412
v -1.78704 1.24440 1.93392
v -1.58837 1.14538 1.75467
v 2.13792 1.24440 1.93392
v 1.92567 1.14636 1.75411
v -1.77072 1.57080 -1.71360
v -1.57485 1.44831 -1.55004
v 2.16240 1.57080 -1.71360
v 1.94820 1.44750 -1.55053
v -1.77072 1.57080 1.71360
v -1.57373 1.44852 1.54990
v 2.16240 1.57080 1.71360
v 1.94841 1.44744 1.55059
v -1.75440 1.77480 -1.53408
v -1.55977 1.66740 -1.35400
v 2.17872 1.77480 -1.53408
v 1.96403 1.63029 -1.38936
v -1.75440 1.77480 1.53408
v -1.55905 1.66694 1.35442
v 2.17872 1.77480 1.53408
v 1.96332 1.63037 1.38929
v -1.44432 2.01960 -1.24848
v -1.33301 1.84775 -1.13624
v 2.19504 2.01960 -1.24848
v 1.97805 1.85380 -1.12833
v -1.44432 2.01960 1.24848
v -1.33292 1.84777 1.13622
v 2.19504 2.01960 1.24848
v 1.97884 1.85377 1.12838
v -1.18320 2.22360 -0.90576
v -1.09392 2.03457 -0.82542
v 2.21136 2.22360 -0.90576
v 1.99256 2.04492 -0.80695
v -1.18320 2.22360 0.90576
v -1.09389 2.03458 0.82542
v 2.21136 2.22360 0.90576
v 1.99255 2.04492 0.80694
v -0.92208 2.42760 -0.48960
v -0.75420 2.29977 -0.28615
v 2.22768 2.42760 -0.48960
v 2.01107 2.30051 -0.28564
v -0.92208 2.42760 0.48960
v -0.75439 2.29979 0.28616
v 2.22768 2.42760 0.48960
v 2.01202 2.30051 0.28564
v -0.70992 2.59080 -0.48960
v -0.57912 2.43423 -0.28563
v 2.24400 2.59080 -0.48960
v 2.02386 2.43525 -0.28575
v -0.70992 2.59080 0.48960
v -0.58067 2.43296 0.28562
v 2.24400 2.59080 0.48960
v 2.02364 2.43539 0.28568
v -0.05712 3.16200 -0.48960
v -0.00318 2.93839 -0.28585
v -0.05712 3.16200 0.48960
v -0.00306 2.93836 0.28597
vt 0.94330 1.80900
vt 1.31662 1.80934
vt 1.37767 1.97260
vt 0.92071 1.97217
vt -0.94330 1.80900
vt -1.37767 1.97260
vt -1.31662 1.80934
vt -0.92071 1.97217
vt 0.38778 1.83077
vt -0.73426 1.99519
vt -0.73422 1.83046
vt 0.38774 1.99551
vt 1.51010 2.15632
vt 0.89606 2.15575
vt -1.51010 2.15632
vt -0.89606 2.15575
vt -0.73431 2.18042
vt 0.38769 2.18073
vt 1.71391 2.36052
vt 0.86731 2.35972
vt -1.71391 2.36052
vt -0.86731 2.35972
vt -0.73437 2.38641
vt 0.38763 2.38672
vt 1.89324 2.56468
vt 0.83856 2.56370
vt -1.89324 2.56468
vt -0.83856 2.56370
vt -0.73443 2.59240
vt 0.38757 2.59271
vt 1.83598 2.70766
vt 0.82006 2.70671
vt -1.83598 2.70766
vt -0.82006 2.70671
vt -0.72631 2.73637
vt 0.37937 2.73669
vt -0.38417 2.45477
vt 0.73781 2.46190
vt 0.72867 2.61564
vt -0.37699 2.60861
vt 1.78488 2.81251
vt 0.80568 2.81160
vt -1.78488 2.81251
vt -0.80568 2.81160
vt -0.70186 2.83938
vt 0.35486 2.83967
vt 0.70347 2.72952
vt -0.35323 2.72281
vt 1.77866 2.92394
vt 0.79742 2.92303
vt -1.77866 2.92394
vt -0.79742 2.92303
vt -0.65701 2.94171
vt 0.30995 2.94199
vt 0.65794 2.83142
vt -0.30900 2.82527
vt 1.77449 3.02239
vt 0.79121 3.02147
vt -1.77449 3.02239
vt -0.79121 3.02147
vt -0.60195 3.02356
vt 0.25485 3.02380
vt 0.60234 2.91277
vt -0.25444 2.90732
vt 1.77034 3.09032
vt 0.78706 3.08940
vt -1.77034 3.09032
vt -0.78706 3.08940
vt -0.55709 3.07473
vt 0.20995 3.07495
vt 0.55713 2.96365
vt -0.20989 2.95877
vt 1.69274 3.18429
vt 0.78290 3.18344
vt -1.69274 3.18429
vt -0.78290 3.18344
vt -0.48570 3.13609
vt 0.13854 3.13627
vt 0.48511 3.06196
vt -0.13912 3.05799
vt 1.62736 3.28394
vt 0.77872 3.28314
vt -1.62736 3.28394
vt -0.77872 3.28314
vt -0.40004 3.18728
vt 0.05284 3.18740
vt 0.39890 3.14425
vt -0.05397 3.14137
vt 1.56198 3.39974
vt 0.77454 3.39901
vt -1.56198 3.39974
vt -0.77454 3.39901
vt -0.29601 3.23847
vt -0.05121 3.23854
vt 0.29434 3.22643
vt 0.04954 3.22487
vt 1.56264 3.23380
vt 1.50960 3.27460
vt 0.77520 3.23380
vt 0.77112 3.27460
vt -1.56264 3.23380
vt -0.77520 3.23380
vt -1.50960 3.27460
vt -0.77112 3.27460
vt -0.29602 3.27947
vt -0.05122 3.27954
vt 0.29391 3.29334
vt 0.04912 3.29179
vt 1.34640 3.41740
vt -1.34640 3.41740
vt 0.04397 4.10137
vt 0.29253 3.51019
vt 0.28877 4.10292
vt 0.04774 3.50864
vt 0.94330 1.80900
vt 1.31681 1.60534
vt 1.31662 1.80934
vt 0.94349 1.60500
vt 1.31662 1.80934
vt 1.56875 1.90115
vt 1.37767 1.97260
vt 1.50770 1.73789
vt -1.37767 1.97260
vt -1.50770 1.73789
vt -1.31662 1.80934
vt -1.56875 1.90115
vt -1.31662 1.80934
vt -0.94349 1.60500
vt -0.94330 1.80900
vt -1.31681 1.60534
vt -0.73422 1.83046
vt 0.38780 1.77977
vt 0.38778 1.83077
vt -0.73420 1.77946
vt 1.37767 1.97260
vt 1.67559 2.03704
vt 1.51010 2.15632
vt 1.54316 1.85332
vt -1.51010 2.15632
vt -1.54316 1.85332
vt -1.37767 1.97260
vt -1.67559 2.03704
vt 1.51010 2.15632
vt 1.85829 2.21640
vt 1.71391 2.36052
vt 1.65448 2.01221
vt -1.71391 2.36052
vt -1.65448 2.01221
vt -1.51010 2.15632
vt -1.85829 2.21640
vt 1.71391 2.36052
vt 2.04651 2.43006
vt 1.89324 2.56468
vt 1.86718 2.22589
vt -1.89324 2.56468
vt -1.86718 2.22589
vt -1.71391 2.36052
vt -2.04651 2.43006
vt -0.38417 2.45477
vt 0.73813 2.41090
vt 0.73781 2.46190
vt -0.38385 2.40377
vn 0.00000 0.00000 -1.00000
vn 0.00045 -0.00017 1.00000
vn 0.00039 -0.00002 1.00000
vn 0.00061 0.00023 1.00000
vn 0.00027 -0.00010 1.00000
vn 0.00000 0.00000 1.00000
vn 0.00037 -0.00001 -1.00000
vn 0.00044 0.00016 -1.00000
vn 0.00034 0.00008 -1.00000
vn 0.00026 -0.00001 -1.00000
vn 0.99068 -0.13622 0.00000
vn 0.99088 -0.13476 0.00000
vn -0.99061 0.13669 -0.00007
vn -0.99057 0.13698 -0.00013
vn -0.99084 0.13508 -0.00004
vn 0.99106 -0.13341 0.00000
vn -0.99105 0.13349 0.00000
vn 0.00023 0.00010 1.00000
vn 0.00017 0.00001 1.00000
vn 0.00023 0.00010 -1.00000
vn 0.00017 0.00001 -1.00000
vn 0.99092 -0.13448 0.00000
vn -0.99091 0.13452 0.00000
vn 0.99062 -0.13664 0.00000
vn -0.99062 0.13667 0.00000
vn -0.00165 0.20208 0.97937
vn 0.00614 0.41916 0.90789
vn -0.00120 0.15190 -0.98839
vn 0.01940 0.38777 -0.92155
vn 0.99034 -0.13865 0.00000
vn -0.99206 0.12575 0.00000
vn -0.99321 0.11634 -0.00125
vn 0.00000 0.01598 -0.99987
vn 0.01617 0.47869 0.87783
vn 0.00000 0.03306 -0.99945
vn 0.01971 0.34684 0.93772
vn 0.00000 0.01598 0.99987
vn 0.03594 0.48423 -0.87420
vn 0.00000 0.03306 0.99945
vn 0.05233 0.51742 -0.85413
vn 0.99074 -0.13577 0.00000
vn -0.99160 0.12933 -0.00211
vn 0.99123 -0.13218 0.00000
vn -0.98895 0.14825 -0.00216
vn -0.00000 0.10403 -0.99457
vn 0.01552 0.01180 0.99981
vn -0.00000 0.16174 -0.98683
vn -0.00001 -0.16140 0.98689
vn -0.00000 0.10403 0.99457
vn 0.02662 0.06960 -0.99722
vn 0.04156 0.39229 -0.91890
vn -0.00000 0.16174 0.98683
vn 0.00004 -0.17231 -0.98504
vn 0.03528 0.17429 -0.98406
vn 0.99146 -0.13044 0.00000
vn -0.98594 0.16709 -0.00109
vn 0.99098 -0.13401 -0.00000
vn -0.98830 0.15250 -0.00008
vn -0.92848 0.37139 -0.00000
vn -0.91994 0.39206 -0.00000
vn 0.92508 -0.37961 0.01116
vn 0.91685 -0.39915 0.00829
vn 0.89546 -0.44453 0.02313
vn -0.90908 0.41661 -0.00000
vn 0.91825 -0.39600 0.00022
vn -0.00000 0.29247 -0.95627
vn 0.00011 -0.29080 0.95679
vn 0.00000 0.34979 -0.93683
vn -0.00011 -0.35099 0.93638
vn -0.00000 0.29247 0.95627
vn 0.00010 -0.29089 -0.95676
vn 0.00000 0.34979 0.93683
vn -0.00011 -0.35096 -0.93639
vn 0.99284 -0.11944 -0.00000
vn -0.99199 0.12632 -0.00025
vn 0.99498 -0.10008 -0.00000
vn -0.99417 0.10786 -0.00030
vn -0.94221 0.33502 -0.00000
vn 0.93810 -0.34636 0.00017
vn -0.97847 0.20640 -0.00000
vn 0.97596 -0.21796 0.00010
vn 0.00000 0.45234 -0.89185
vn -0.00006 -0.45490 0.89054
vn 0.00000 0.50473 -0.86327
vn -0.00001 -0.50653 0.86222
vn 0.00000 0.45234 0.89185
vn -0.00005 -0.45492 -0.89053
vn 0.00000 0.50473 0.86327
vn -0.00001 -0.50658 -0.86219
vn 0.99692 -0.07838 0.00000
vn -0.99650 0.08363 -0.00019
vn 0.99705 -0.07677 0.00000
vn -0.99690 0.07873 -0.00002
vn -0.99837 0.05714 -0.00000
vn 0.99828 -0.05861 0.00010
vn -0.99855 0.05391 -0.00000
vn 0.99863 -0.05241 -0.00004
vn 0.00000 0.58636 -0.81005
vn -0.00001 -0.59177 0.80611
vn 0.00000 0.61936 -0.78511
vn 0.00013 -0.62360 0.78175
vn 0.00000 0.58636 0.81005
vn -0.00001 -0.59171 -0.80615
vn 0.00000 0.61936 0.78511
vn 0.00013 -0.62360 -0.78175
vn 0.99711 -0.07592 0.00000
vn -0.99710 0.07611 0.00002
vn 0.99699 -0.07748 -0.00000
vn -0.99686 0.07917 -0.00001
vn -0.99839 0.05672 -0.00000
vn 0.99868 -0.05138 -0.00018
vn -0.99781 0.06612 0.00000
vn 0.99835 -0.05750 -0.00034
vn 0.00000 0.70264 -0.71154
vn -0.00044 -0.70260 0.71158
vn 0.00000 0.73378 -0.67938
vn -0.00047 -0.73639 0.67655
vn 0.00000 0.70264 0.71154
vn -0.00043 -0.70264 -0.71154
vn 0.00000 0.73378 0.67938
vn -0.00046 -0.73634 -0.67661
vn 0.99719 -0.07497 -0.00000
vn -0.99693 0.07836 -0.00015
vn 0.99750 -0.07069 -0.00000
vn -0.99738 0.07236 -0.00007
vn -0.99682 0.07974 0.00000
vn 0.99769 -0.06789 -0.00032
vn 0.99765 -0.06844 -0.00028
vn 0.00000 0.79565 -0.60576
vn -0.00045 -0.79987 0.60018
vn 0.00000 0.82918 -0.55898
vn 0.00000 -0.82875 0.55962
vn 0.00000 0.79565 0.60576
vn -0.00044 -0.79980 -0.60026
vn 0.00000 0.82918 0.55898
vn 0.00000 -0.82876 -0.55961
vn 0.99754 -0.07012 -0.00000
vn -0.99771 0.06767 0.00011
vn 0.99723 -0.07432 -0.00000
vn -0.99762 0.06900 0.00026
vn -0.61964 0.78488 0.00000
vn -0.61855 0.78574 -0.00000
vn 0.62436 -0.78113 -0.00030
vn 0.62351 -0.78182 -0.00017
vn 0.62101 -0.78380 -0.00012
vn -0.61728 0.78674 -0.00000
vn 0.61815 -0.78606 -0.00002
vn 0.00000 0.87383 -0.48622
vn 0.00021 -0.87627 0.48183
vn 0.00000 0.88662 -0.46249
vn 0.00016 -0.88864 0.45861
vn 0.00000 0.87383 0.48622
vn 0.00021 -0.87626 -0.48183
vn 0.00000 0.88662 0.46249
vn 0.00015 -0.88863 -0.45862
vn 0.99682 -0.07975 -0.00000
vn -0.99722 0.07445 0.00013
vn -0.99721 0.07466 0.00027
vn -0.61564 0.78803 -0.00000
vn 0.61569 -0.78799 -0.00001
vn 0.61556 -0.78809 0.00003
vn -0.00000 0.89792 -0.44016
vn 0.00027 -0.89765 0.44070
vn 0.00016 -0.89789 0.44022
vn -0.00000 0.89792 0.44016
vn 0.00027 -0.89765 -0.44070
vn 0.00015 -0.89789 -0.44022
vn 0.99646 -0.08409 -0.00000
vn -0.99714 0.07551 0.00058
vn 0.99577 -0.09192 -0.00000
vn -0.99681 0.07981 0.00113
vn -0.61433 0.78905 -0.00000
vn 0.61467 -0.78879 0.00007
vn -0.61198 0.79087 0.00000
vn 0.61191 -0.79093 0.00013
vn -0.00019 -0.00362 0.99999
vn -0.00007 -0.00147 1.00000
vn 0.00000 -0.00027 1.00000
vn 0.00004 0.00048 1.00000
vn -0.00019 -0.00379 -0.99999
vn -0.00001 -0.00020 -1.00000
vn -0.00008 -0.00178 -1.00000
vn 0.00002 0.00059 -1.00000
vn 0.99504 -0.09950 -0.00000
vn -0.99592 0.09019 0.00063
vn -0.99552 0.09452 -0.00040
vn -0.64019 0.76822 0.00000
vn 0.64066 -0.76782 0.00010
vn -0.65213 0.75810 0.00000
vn 0.65249 -0.75779 -0.00004
vn 0.00004 0.00039 1.00000
vn 0.00002 0.00066 -1.00000
vn 0.24092 0.97055 0.00000
vn -0.24088 -0.97055 0.00007
vn -0.24086 -0.97056 0.00015
vn -0.24091 -0.97055 -0.00001
vn -0.65851 0.75258 0.00000
vn 0.65858 -0.75251 -0.00003
vn 0.65866 -0.75244 -0.00018
vn -0.03213 -0.99940 0.01307
vn 0.01000 -0.99978 0.01830
vn -0.00000 -1.00000 0.00000
vn -0.07142 -0.99731 0.01632
vn -0.93633 -0.35112 0.00000
vn -0.89443 -0.44721 0.00000
vn -0.85166 -0.52410 0.00000
vn 0.01002 -0.99978 -0.01834
vn -0.01998 -0.99969 -0.01460
vn -0.07540 -0.99704 -0.01534
vn 0.02160 -0.99977 0.00000
vn -0.77273 -0.63474 0.00000
vn -0.73821 -0.67457 0.00000
vn -0.74180 -0.67063 0.00000
vn -0.75763 -0.65036 0.05511
vn -0.72139 -0.69253 0.00000
vn -0.74830 -0.66261 -0.03161
vn -0.63659 -0.76907 0.05729
vn -0.47813 -0.87648 0.05625
vn -0.66412 -0.74676 -0.03607
vn -0.50029 -0.86511 -0.03607
s off
f 1/1/1 2/2/1 3/3/1
f 4/1/2 5/3/3 6/2/4
f 3/3/1 7/4/1 1/1/1
f 5/3/3 4/1/2 8/4/5
f 9/5/6 10/6/6 11/7/6
f 12/5/7 13/7/8 14/6/9
f 10/6/6 9/5/6 15/8/6
f 14/6/9 16/8/10 12/5/7
f 1/9/11 15/10/12 9/11/11
f 4/9/13 12/11/14 16/10/15
f 15/10/12 1/9/11 7/12/16
f 16/10/15 8/12/17 4/9/13
f 7/4/1 3/3/1 17/13/1
f 8/4/5 18/13/18 5/3/3
f 17/13/1 19/14/1 7/4/1
f 18/13/18 8/4/5 20/14/19
f 15/8/6 21/15/6 10/6/6
f 16/8/10 14/6/9 22/15/20
f 21/15/6 15/8/6 23/16/6
f 22/15/20 24/16/21 16/8/10
f 7/12/16 23/17/22 15/10/12
f 8/12/17 16/10/15 24/17/23
f 23/17/22 7/12/16 19/18/24
f 24/17/23 20/18/25 8/12/17
f 19/14/1 17/13/1 25/19/1
f 20/14/19 26/19/26 18/13/18
f 25/19/1 27/20/1 19/14/1
f 26/19/26 20/14/19 28/20/27
f 23/16/6 29/21/6 21/15/6
f 24/16/21 22/15/20 30/21/28
f 29/21/6 23/16/6 31/22/6
f 30/21/28 32/22/29 24/16/21
f 19/18/24 31/23/30 23/17/22
f 20/18/25 24/17/23 32/23/31
f 31/23/30 19/18/24 27/24/30
f 32/23/31 28/24/32 20/18/25
f 27/20/1 25/19/1 33/25/33
f 28/20/27 34/25/34 26/19/26
f 33/25/33 35/26/35 27/20/1
f 34/25/34 28/20/27 36/26/36
f 31/22/6 37/27/37 29/21/6
f 32/22/29 30/21/28 38/27/38
f 37/27/37 31/22/6 39/28/39
f 38/27/38 40/28/40 32/22/29
f 27/24/30 39/29/41 31/23/30
f 28/24/32 32/23/31 40/29/42
f 39/29/41 27/24/30 35/30/43
f 40/29/42 36/30/44 28/24/32
f 33/25/33 41/31/45 35/26/35
f 34/25/34 36/26/36 42/31/46
f 41/31/45 43/32/47 35/26/35
f 42/31/46 36/26/36 44/32/48
f 37/27/37 39/28/39 45/33/49
f 38/27/38 46/33/50 40/28/51
f 45/33/49 39/28/39 47/34/52
f 46/33/50 48/34/53 40/28/54
f 35/30/43 47/35/55 39/29/41
f 36/30/44 40/29/42 48/35/56
f 47/35/55 35/30/43 43/36/57
f 48/35/56 44/36/58 36/30/44
f 33/37/59 37/38/59 45/39/60
f 34/37/61 46/39/62 38/38/63
f 45/39/60 41/40/64 33/37/59
f 46/39/62 34/37/61 42/40/65
f 41/31/45 49/41/66 43/32/47
f 42/31/46 44/32/48 50/41/67
f 49/41/66 51/42/68 43/32/47
f 50/41/67 44/32/48 52/42/69
f 45/33/49 47/34/52 53/43/70
f 46/33/50 54/43/71 48/34/53
f 53/43/70 47/34/52 55/44/72
f 54/43/71 56/44/73 48/34/53
f 47/35/55 43/36/57 55/45/74
f 48/35/56 56/45/75 44/36/58
f 55/45/74 43/36/57 51/46/76
f 56/45/75 52/46/77 44/36/58
f 45/39/60 53/47/78 41/40/64
f 46/39/62 42/40/65 54/47/79
f 53/47/78 49/48/80 41/40/64
f 54/47/79 42/40/65 50/48/81
f 51/42/68 49/41/66 57/49/82
f 52/42/69 58/49/83 50/41/67
f 57/49/82 59/50/84 51/42/68
f 58/49/83 52/42/69 60/50/85
f 55/44/72 61/51/86 53/43/70
f 56/44/73 54/43/71 62/51/87
f 61/51/86 55/44/72 63/52/88
f 62/51/87 64/52/89 56/44/73
f 55/45/74 51/46/76 63/53/90
f 56/45/75 64/53/91 52/46/77
f 63/53/90 51/46/76 59/54/92
f 64/53/91 60/54/93 52/46/77
f 53/47/78 61/55/94 49/48/80
f 54/47/79 50/48/81 62/55/95
f 61/55/94 57/56/96 49/48/80
f 62/55/95 50/48/81 58/56/97
f 59/50/84 57/49/82 65/57/98
f 60/50/85 66/57/99 58/49/83
f 65/57/98 67/58/100 59/50/84
f 66/57/99 60/50/85 68/58/101
f 63/52/88 69/59/102 61/51/86
f 64/52/89 62/51/87 70/59/103
f 69/59/102 63/52/88 71/60/104
f 70/59/103 72/60/105 64/52/89
f 63/53/90 59/54/92 71/61/106
f 64/53/91 72/61/107 60/54/93
f 71/61/106 59/54/92 67/62/108
f 72/61/107 68/62/109 60/54/93
f 61/55/94 69/63/110 57/56/96
f 62/55/95 58/56/97 70/63/111
f 69/63/110 65/64/112 57/56/96
f 70/63/111 58/56/97 66/64/113
f 65/57/98 73/65/114 67/58/100
f 66/57/99 68/58/101 74/65/115
f 73/65/114 75/66/116 67/58/100
f 74/65/115 68/58/101 76/66/117
f 69/59/102 71/60/104 77/67/118
f 70/59/103 78/67/119 72/60/105
f 77/67/118 71/60/104 79/68/120
f 78/67/119 80/68/121 72/60/105
f 71/61/106 67/62/108 79/69/122
f 72/61/107 80/69/123 68/62/109
f 79/69/122 67/62/108 75/70/124
f 80/69/123 76/70/125 68/62/109
f 69/63/110 77/71/126 65/64/112
f 70/63/111 66/64/113 78/71/127
f 77/71/126 73/72/126 65/64/112
f 78/71/127 66/64/113 74/72/128
f 73/65/114 81/73/129 75/66/116
f 74/65/115 76/66/117 82/73/130
f 81/73/129 83/74/131 75/66/116
f 82/73/130 76/66/117 84/74/132
f 77/67/118 79/68/120 85/75/133
f 78/67/119 86/75/134 80/68/121
f 85/75/133 79/68/120 87/76/135
f 86/75/134 88/76/136 80/68/121
f 79/69/122 75/70/124 87/77/137
f 80/69/123 88/77/138 76/70/125
f 87/77/137 75/70/124 83/78/139
f 88/77/138 84/78/140 76/70/125
f 77/71/141 85/79/142 73/72/141
f 78/71/143 74/72/144 86/79/145
f 85/79/142 81/80/146 73/72/141
f 86/79/145 74/72/144 82/80/147
f 81/73/129 89/81/148 83/74/131
f 82/73/130 84/74/132 90/81/149
f 89/81/148 91/82/150 83/74/131
f 90/81/149 84/74/132 92/82/151
f 85/75/133 87/76/135 93/83/152
f 86/75/134 94/83/153 88/76/136
f 93/83/152 87/76/135 95/84/154
f 94/83/153 96/84/155 88/76/136
f 87/77/137 83/78/139 95/85/156
f 88/77/138 96/85/157 84/78/140
f 95/85/156 83/78/139 91/86/156
f 96/85/157 92/86/158 84/78/140
f 85/79/142 93/87/159 81/80/146
f 86/79/145 82/80/147 94/87/160
f 93/87/159 89/88/159 81/80/146
f 94/87/160 82/80/147 90/88/161
f 89/81/148 97/89/162 91/82/150
f 90/81/149 92/82/151 98/89/163
f 97/89/162 99/90/162 91/82/150
f 98/89/163 92/82/151 100/90/164
f 93/83/152 95/84/154 101/91/165
f 94/83/153 102/91/166 96/84/155
f 101/91/165 95/84/154 103/92/165
f 102/91/166 104/92/167 96/84/155
f 95/85/156 91/86/156 103/93/168
f 96/85/157 104/93/169 92/86/158
f 103/93/168 91/86/156 99/94/170
f 104/93/169 100/94/171 92/86/158
f 93/87/159 101/95/172 89/88/159
f 94/87/160 90/88/161 102/95/173
f 101/95/172 97/96/174 89/88/159
f 102/95/173 90/88/161 98/96/175
f 97/97/1 105/98/1 99/99/1
f 98/97/176 100/99/177 106/98/178
f 105/98/1 107/100/1 99/99/1
f 106/98/178 100/99/177 108/100/179
f 101/101/6 103/102/6 109/103/6
f 102/101/180 110/103/181 104/102/182
f 109/103/6 103/102/6 111/104/6
f 110/103/181 112/104/183 104/102/182
f 99/94/170 111/105/184 103/93/168
f 100/94/171 104/93/169 112/105/185
f 111/105/184 99/94/170 107/106/184
f 112/105/185 108/106/186 100/94/171
f 97/96/174 101/95/172 109/107/187
f 98/96/175 110/107/188 102/95/173
f 109/107/187 105/108/189 97/96/174
f 110/107/188 98/96/175 106/108/190
f 105/98/1 113/109/1 107/100/1
f 106/98/178 108/100/179 114/109/191
f 109/103/6 111/104/6 115/110/6
f 110/103/181 116/110/192 112/104/183
f 107/111/193 115/112/193 111/113/193
f 108/111/194 112/113/195 116/112/194
f 115/112/193 107/111/193 113/114/193
f 116/112/194 114/114/196 108/111/194
f 105/108/189 109/107/187 115/112/197
f 106/108/190 116/112/198 110/107/188
f 115/112/197 113/114/197 105/108/189
f 116/112/198 106/108/190 114/114/199
f 1/115/200 6/116/201 2/117/202
f 1/115/200 4/118/203 6/116/201
f 2/119/204 5/120/205 3/121/206
f 2/119/204 6/122/204 5/120/205
f 10/123/205 13/124/204 11/125/204
f 10/123/205 14/126/206 13/124/204
f 11/127/207 12/128/208 9/129/209
f 11/127/207 13/130/210 12/128/208
f 9/131/209 4/132/203 1/133/200
f 9/131/209 12/134/208 4/132/203
f 3/135/206 18/136/211 17/137/212
f 3/135/206 5/138/205 18/136/211
f 21/139/211 14/140/206 10/141/205
f 21/139/211 22/142/212 14/140/206
f 17/143/212 26/144/213 25/145/214
f 17/143/212 18/146/211 26/144/213
f 29/147/215 22/148/212 21/149/211
f 29/147/215 30/150/216 22/148/212
f 25/151/214 34/152/217 33/153/218
f 25/151/214 26/154/213 34/152/217
f 37/155/219 30/156/216 29/157/215
f 37/155/219 38/158/220 30/156/216
f 33/159/218 38/160/220 37/161/219
f 33/159/218 34/162/217 38/160/220
