# Titan_Helmet: BRZ-01 Titan helmet shell (HelmetShell), exported from the wedge build (MechConfig.Scale 1.7)
# units: studs, in the "Head" bone frame (+Y up, front = -Z); UV: 1 repeat = 4.0 studs (crosshatch largeTile)
# vertices centred on their bounding box: place the MeshPart at bone.CFrame * CFrame.new(0.0000, 1.4059, 0.0082)
o Titan_Helmet
v -1.07712 -0.95713 -1.72176
v -1.07712 -0.11397 -1.61193
v -1.07712 -0.25588 -1.72176
v -0.96288 -0.95713 -1.72176
v -0.96333 -0.22838 -1.64448
v -0.96301 -0.09948 -1.54942
v -1.07712 -0.95712 -1.61193
v -0.96288 -0.95712 -1.61193
v -0.88128 0.26928 -1.61193
v -0.88128 0.06287 -1.72176
v -0.84291 0.00919 -1.62086
v -0.83568 0.16257 -1.54149
v 0.88128 0.26928 -1.61193
v 0.88128 0.06287 -1.72176
v 0.83636 -0.00816 -1.63010
v 0.83193 0.17522 -1.53345
v 1.07712 -0.25588 -1.72176
v 1.07712 -0.11397 -1.61193
v 0.96285 -0.28481 -1.68437
v 0.96300 -0.11433 -1.55536
v 1.07712 -0.95713 -1.61193
v 1.07712 -0.95713 -1.72176
v 0.96288 -0.95713 -1.72176
v 0.96288 -0.95713 -1.61193
v -1.07712 0.03167 -1.48699
v -0.96294 0.03401 -1.43950
v -1.07712 -0.95713 -1.48699
v -0.96288 -0.95713 -1.48699
v -0.88128 0.48112 -1.48699
v -0.82670 0.37651 -1.41908
v 0.88128 0.48112 -1.48699
v 0.82425 0.38065 -1.41499
v 1.07712 0.03167 -1.48699
v 0.96296 0.02946 -1.43927
v 1.07712 -0.95713 -1.48699
v 0.96288 -0.95713 -1.48699
v -1.07712 0.12899 -1.38983
v -0.96289 0.11589 -1.36143
v -1.07712 -0.95713 -1.38983
v -0.96288 -0.95713 -1.38983
v -0.88128 0.62267 -1.38983
v -0.81435 0.52859 -1.32062
v 0.88128 0.62267 -1.38983
v 0.80985 0.52632 -1.32055
v 1.07712 0.12899 -1.38983
v 0.96287 0.11681 -1.35534
v 1.07712 -0.95713 -1.38983
v 0.96288 -0.95713 -1.38983
v -1.07712 0.21984 -1.13613
v -0.96288 0.20122 -1.12604
v -1.07712 -0.95713 -1.13613
v -0.96288 -0.95713 -1.13613
v -0.88128 0.75482 -1.13613
v -0.80431 0.64625 -1.09908
v 0.88128 0.75482 -1.13613
v 0.80257 0.64612 -1.09836
v 1.07712 0.21984 -1.13613
v 0.96287 0.20045 -1.12427
v 1.07712 -0.95713 -1.13613
v 0.96288 -0.95713 -1.13613
v -1.07712 0.29911 -0.74374
v -0.96287 0.28057 -0.73936
v -1.07712 -0.95713 -0.74374
v -0.96288 -0.95713 -0.74374
v -0.88128 0.87013 -0.74374
v -0.80097 0.75751 -0.72319
v 0.88128 0.87013 -0.74374
v 0.79991 0.75774 -0.72138
v 1.07712 0.29911 -0.74374
v 0.96287 0.27994 -0.73837
v 1.07712 -0.95713 -0.74374
v 0.96288 -0.95713 -0.74374
v -1.07712 0.34790 -0.27634
v -0.96286 0.32967 -0.27503
v -1.07712 -0.95713 -0.27634
v -0.96288 -0.95713 -0.27634
v -0.88128 0.94109 -0.27634
v -0.79923 0.82698 -0.26793
v 0.88128 0.94109 -0.27634
v 0.79877 0.82706 -0.26637
v 1.07712 0.34790 -0.27634
v 0.96287 0.32940 -0.27405
v 1.07712 -0.95713 -0.27634
v 0.96288 -0.95713 -0.27634
v -1.07712 0.35899 0.20587
v -0.96286 0.34064 0.20409
v -1.07712 -0.95713 0.20587
v -0.96288 -0.95713 0.20587
v -0.88128 0.95723 0.20587
v -0.79869 0.84273 0.20012
v 0.88128 0.95723 0.20587
v 0.79893 0.84270 0.20148
v 1.07712 0.35899 0.20587
v 0.96286 0.34076 0.20557
v 1.07712 -0.95713 0.20587
v 0.96288 -0.95713 0.20587
v -1.07712 0.31788 0.65307
v -0.96286 0.29901 0.65099
v -1.07712 -0.95713 0.65307
v -0.96288 -0.95713 0.65307
v -0.88128 0.89743 0.65307
v -0.79927 0.78428 0.63727
v 0.88128 0.89743 0.65307
v 0.79984 0.78392 0.63987
v 1.07712 0.31788 0.65307
v 0.96287 0.29942 0.65058
v 1.07712 -0.95713 0.65307
v 0.96288 -0.95713 0.65307
v -1.07712 0.28006 1.01805
v -0.96286 0.26067 1.01473
v -1.07712 -0.95713 1.01805
v -0.96288 -0.95713 1.01805
v -0.88128 0.84242 1.01805
v -0.80020 0.72957 0.99968
v 0.88128 0.84242 1.01805
v 0.80082 0.72929 1.00157
v 1.07712 0.28006 1.01805
v 0.96287 0.26109 1.01479
v 1.07712 -0.95713 1.01805
v 0.96288 -0.95713 1.01805
v -1.07712 0.24038 1.29335
v -0.96287 0.22319 1.27019
v -1.07712 -0.95713 1.29335
v -0.96288 -0.95713 1.29335
v -0.88128 0.78470 1.29335
v -0.80474 0.67733 1.23804
v 0.88128 0.78470 1.29335
v 0.80844 0.67822 1.23952
v 1.07712 0.24038 1.29335
v 0.96287 0.22304 1.27590
v 1.07712 -0.95713 1.29335
v 0.96288 -0.95713 1.29335
v -1.07712 0.09625 1.47915
v -0.96297 0.10519 1.41944
v -1.07712 -0.95713 1.47915
v -0.96288 -0.95713 1.47915
v -0.88128 0.57505 1.47915
v -0.81863 0.49467 1.39197
v 0.88128 0.57505 1.47915
v 0.82527 0.49901 1.39214
v 1.07712 0.09625 1.47915
v 0.96294 0.10345 1.42825
v 1.07712 -0.95713 1.47915
v 0.96288 -0.95713 1.47915
v -1.07712 -0.10871 1.59216
v -0.96316 -0.03541 1.49270
v -1.07712 -0.95713 1.59216
v -0.96288 -0.95713 1.59216
v -0.88128 0.27693 1.59216
v -0.84091 0.22702 1.48670
v 0.88128 0.27693 1.59216
v 0.84979 0.23359 1.48590
v 1.07712 -0.10871 1.59216
v 0.96312 -0.03087 1.49866
v 1.07712 -0.95713 1.59216
v 0.96288 -0.95713 1.59216
v -1.07712 -0.34865 1.64543
v -0.96312 -0.27703 1.53857
v -1.07712 -0.95713 1.64543
v -0.96288 -0.95713 1.64543
v -0.88128 -0.07207 1.64543
v -0.86630 -0.09658 1.53341
v 0.88128 -0.07207 1.64543
v 0.86993 -0.09188 1.53285
v 1.07712 -0.34865 1.64543
v 0.96327 -0.23940 1.53774
v 1.07712 -0.95713 1.64543
v 0.96288 -0.95713 1.64543
v -1.07712 -0.55111 1.67756
v -0.96298 -0.54894 1.57427
v -1.07712 -0.95713 1.67756
v -0.96288 -0.95713 1.67756
v -0.88128 -0.36655 1.67756
v -0.87356 -0.38121 1.56423
v 0.88128 -0.36655 1.67756
v 0.87483 -0.38303 1.56445
v 1.07712 -0.55111 1.67756
v 0.96311 -0.50202 1.57164
v 1.07712 -0.95713 1.67756
v 0.96288 -0.95713 1.67757
v -1.07712 -0.69501 1.70023
v -0.96299 -0.67434 1.58941
v -1.07712 -0.95713 1.70023
v -0.96288 -0.95713 1.70023
v -0.88128 -0.57587 1.70023
v -0.87660 -0.58915 1.58670
v 0.88128 -0.57587 1.70023
v 0.87843 -0.58794 1.58660
v 1.07712 -0.69501 1.70023
v 0.96305 -0.64854 1.58934
v 1.07712 -0.95713 1.70023
v 0.96288 -0.95713 1.70023
v -1.07712 -0.81641 1.71472
v -0.96297 -0.80926 1.60196
v -1.07712 -0.95713 1.71472
v -0.96288 -0.95713 1.71472
v -0.88128 -0.75245 1.71472
v -0.87966 -0.76168 1.60081
v 0.88128 -0.75245 1.71472
v 0.88079 -0.76104 1.60078
v 1.07712 -0.81641 1.71472
v 0.96307 -0.79202 1.60231
v 1.07712 -0.95723 1.71472
v 0.96288 -0.95723 1.71472
v -1.07712 -0.90103 1.72176
v -0.96315 -0.91040 1.60913
v -0.88128 -0.87552 1.72176
v -0.88094 -0.88241 1.60771
v 0.88128 -0.87553 1.72176
v 0.88123 -0.88205 1.60771
v 1.07712 -0.90102 1.72176
v 0.96317 -0.89863 1.60901
vt -0.43021 1.11247
vt -0.40101 1.32293
vt -0.42903 1.28788
vt -0.40269 1.11221
vt -0.41085 1.43050
vt -0.44259 1.38102
vt 0.22361 0.43618
vt -0.21733 0.49238
vt -0.21703 0.43393
vt 0.22331 0.49463
vt 0.42873 1.28740
vt 0.44288 1.38091
vt 0.40099 1.32266
vt 0.41108 1.43059
vt 0.40200 1.11183
vt 0.42946 1.11195
vt -0.36927 1.35879
vt -0.37133 1.11186
vt -0.37558 1.48133
vt -0.21764 0.55387
vt 0.22299 0.55611
vt 0.36948 1.35867
vt 0.37545 1.48149
vt 0.37073 1.11165
vt -0.34473 1.38271
vt -0.34694 1.11160
vt -0.34882 1.51517
vt -0.21786 0.59679
vt 0.22278 0.59903
vt 0.34501 1.38265
vt 0.34843 1.51526
vt 0.34640 1.11149
vt -0.28158 1.40517
vt -0.28332 1.11114
vt -0.28432 1.54741
vt -0.21822 0.66830
vt 0.22241 0.67055
vt 0.28180 1.40515
vt 0.28394 1.54755
vt 0.28283 1.11109
vt -0.18383 1.42478
vt -0.18503 1.11074
vt -0.18533 1.57570
vt -0.21874 0.77054
vt 0.22189 0.77279
vt 0.18400 1.42484
vt 0.18499 1.57587
vt 0.18456 1.11071
vt -0.06729 1.43680
vt -0.06801 1.11048
vt -0.06778 1.59304
vt -0.21935 0.88873
vt 0.22129 0.89098
vt 0.06748 1.43690
vt 0.06737 1.59330
vt 0.06752 1.11043
vt 0.05297 1.43941
vt 0.05270 1.11033
vt 0.05336 1.59684
vt -0.21996 1.00935
vt 0.22067 1.01160
vt -0.05264 1.43953
vt -0.05408 1.59717
vt -0.05325 1.11022
vt 0.16444 1.42905
vt 0.16466 1.11034
vt 0.16583 1.58208
vt -0.22054 1.12214
vt 0.22010 1.12439
vt -0.16381 1.42912
vt -0.16701 1.58233
vt -0.16538 1.11011
vt 0.25532 1.41938
vt 0.25610 1.11054
vt 0.25772 1.56814
vt -0.22101 1.21442
vt 0.21963 1.21666
vt -0.25411 1.41935
vt -0.25986 1.56795
vt -0.25706 1.11021
vt 0.32373 1.40924
vt 0.32515 1.11097
vt 0.32718 1.55329
vt -0.22136 1.28474
vt 0.21927 1.28698
vt -0.32174 1.40909
vt -0.33054 1.55205
vt -0.32640 1.11065
vt 0.36996 1.37358
vt 0.37181 1.11152
vt 0.37656 1.50246
vt -0.22172 1.35477
vt 0.21891 1.35702
vt -0.36735 1.37350
vt -0.37919 1.50065
vt -0.37335 1.11136
vt 0.39841 1.32296
vt 0.40023 1.11198
vt 0.41398 1.43054
vt -0.22213 1.43447
vt 0.21851 1.43672
vt -0.39593 1.32330
vt -0.41455 1.42877
vt -0.40211 1.11213
vt 0.41229 1.26360
vt 0.41363 1.11221
vt 0.44481 1.34415
vt -0.22258 1.52273
vt 0.21806 1.52498
vt -0.41149 1.26416
vt -0.44110 1.34348
vt -0.41586 1.11261
vt 0.42079 1.21341
vt 0.42171 1.11234
vt 0.46159 1.26848
vt -0.22295 1.59679
vt 0.21768 1.59904
vt -0.42129 1.21399
vt -0.45893 1.27005
vt -0.42412 1.11287
vt 0.42675 1.17769
vt 0.42743 1.11244
vt 0.47047 1.21511
vt -0.22322 1.64942
vt 0.21741 1.65167
vt -0.42802 1.17835
vt -0.47014 1.21737
vt -0.42990 1.11306
vt 0.43069 1.14756
vt 0.43113 1.11251
vt 0.47713 1.17046
vt -0.22345 1.69372
vt 0.21719 1.69596
vt -0.43259 1.14824
vt -0.47800 1.17284
vt -0.43362 1.11315
vt 0.43277 1.12652
vt 0.48119 1.13959
vt -0.22361 1.72454
vt 0.21703 1.72678
vt -0.43508 1.12720
vt -0.48287 1.14219
vt -0.42903 1.28788
vt -0.45877 1.11266
vt -0.43021 1.11247
vt -0.45759 1.28807
vt -0.43021 1.11247
vt -0.40296 1.08365
vt -0.40269 1.11221
vt -0.43049 1.08391
vt -0.44259 1.38102
vt -0.45730 1.28377
vt -0.42903 1.28788
vt -0.47085 1.37691
vt -0.21703 0.43393
vt 0.22375 0.40762
vt 0.22361 0.43618
vt -0.21688 0.40537
vt 0.42873 1.28740
vt 0.47111 1.37663
vt 0.44288 1.38091
vt 0.45697 1.28313
vt 0.40200 1.11183
vt 0.42958 1.08339
vt 0.42946 1.11195
vt 0.40213 1.08327
vt 0.42946 1.11195
vt 0.45729 1.28752
vt 0.42873 1.28740
vt 0.45802 1.11207
vt -0.40269 1.11221
vt -0.37164 1.08330
vt -0.37133 1.11186
vt -0.40300 1.08365
vt 0.37073 1.11165
vt 0.40216 1.08327
vt 0.40200 1.11183
vt 0.37090 1.08309
vt -0.37133 1.11186
vt -0.34724 1.08304
vt -0.34694 1.11160
vt -0.37164 1.08330
vt 0.34640 1.11149
vt 0.37092 1.08309
vt 0.37073 1.11165
vt 0.34659 1.08293
vt -0.34694 1.11160
vt -0.28353 1.08258
vt -0.28332 1.11114
vt -0.34714 1.08304
vt 0.28283 1.11109
vt 0.34658 1.08293
vt 0.34640 1.11149
vt 0.28301 1.08253
vt -0.28332 1.11114
vt -0.18514 1.08218
vt -0.18503 1.11074
vt -0.28344 1.08258
vt 0.18456 1.11071
vt 0.28294 1.08253
vt 0.28283 1.11109
vt 0.18467 1.08215
vt -0.18503 1.11074
vt -0.06807 1.08192
vt -0.06801 1.11048
vt -0.18509 1.08218
vt 0.06752 1.11043
vt 0.18462 1.08215
vt 0.18456 1.11071
vt 0.06759 1.08187
vt -0.06801 1.11048
vt 0.05266 1.08177
vt 0.05270 1.11033
vt -0.06804 1.08192
vt -0.05325 1.11022
vt 0.06757 1.08187
vt 0.06752 1.11043
vt -0.05320 1.08166
vt 0.05270 1.11033
vt 0.16466 1.08178
vt 0.16466 1.11034
vt 0.05270 1.08177
vt -0.16538 1.11011
vt -0.05323 1.08166
vt -0.05325 1.11022
vt -0.16535 1.08155
vt 0.16466 1.11034
vt 0.25617 1.08198
vt 0.25610 1.11054
vt 0.16472 1.08178
vt -0.25706 1.11021
vt -0.16541 1.08155
vt -0.16538 1.11011
vt -0.25709 1.08165
vt 0.25610 1.11054
vt 0.32532 1.08241
vt 0.32515 1.11097
vt 0.25628 1.08198
vt -0.32640 1.11065
vt -0.25724 1.08165
vt -0.25706 1.11021
vt -0.32658 1.08209
vt 0.32515 1.11097
vt 0.37214 1.08296
vt 0.37181 1.11152
vt 0.32548 1.08241
vt -0.37335 1.11136
vt -0.32683 1.08209
vt -0.32640 1.11065
vt -0.37378 1.08281
vt 0.37181 1.11152
vt 0.40070 1.08342
vt 0.40023 1.11198
vt 0.37228 1.08296
vt -0.40211 1.11213
vt -0.37411 1.08281
vt -0.37335 1.11136
vt -0.40287 1.08358
vt 0.40023 1.11198
vt 0.41411 1.08365
vt 0.41363 1.11221
vt 0.40071 1.08342
vt -0.41586 1.11261
vt -0.40311 1.08359
vt -0.40211 1.11213
vt -0.41686 1.08407
vt 0.41363 1.11221
vt 0.42218 1.08378
vt 0.42171 1.11234
vt 0.41410 1.08365
vt -0.42412 1.11287
vt -0.41675 1.08407
vt -0.41586 1.11261
vt -0.42502 1.08433
vt 0.42171 1.11234
vt 0.42795 1.08389
vt 0.42743 1.11244
vt 0.42222 1.08378
vt -0.42990 1.11306
vt -0.42503 1.08433
vt -0.42412 1.11287
vt -0.43081 1.08451
vt 0.42743 1.11244
vt 0.43163 1.08395
vt 0.43113 1.11251
vt 0.42794 1.08389
vt -0.43362 1.11315
vt -0.43062 1.08451
vt -0.42990 1.11306
vt -0.43434 1.08460
vt 0.43113 1.11251
vt 0.46113 1.12320
vt 0.43277 1.12652
vt 0.45949 1.10919
vt 0.43277 1.12652
vt 0.48863 1.11202
vt 0.48119 1.13959
vt 0.44021 1.09895
vt 0.21703 1.72678
vt -0.22375 1.75310
vt -0.22361 1.72454
vt 0.21688 1.75534
vt -0.48287 1.14219
vt -0.44363 1.09995
vt -0.43508 1.12720
vt -0.49142 1.11494
vt -0.43508 1.12720
vt -0.46203 1.11020
vt -0.43362 1.11315
vt -0.46349 1.12425
vn -1.00000 0.00000 0.00000
vn -0.98155 0.12092 -0.14810
vn -0.95913 0.17320 -0.22379
vn 1.00000 0.00053 -0.00191
vn 0.99999 0.00114 -0.00494
vn 0.99645 -0.05402 0.06463
vn 1.00000 0.00013 -0.00025
vn -0.69104 0.38556 -0.61140
vn -0.08845 0.49643 -0.86356
vn -0.04021 0.46935 -0.88210
vn 0.70419 -0.38679 0.59541
vn 0.02292 -0.46385 0.88562
vn 0.05923 -0.49013 0.86963
vn -0.69640 0.37603 -0.61125
vn -0.88603 0.24731 -0.39217
vn -0.96139 0.16083 -0.22329
vn 0.71084 -0.37845 0.59286
vn 0.77354 -0.36938 0.51498
vn -0.00000 0.48303 -0.87560
vn -0.00000 0.46973 -0.88281
vn 0.00005 -0.46625 0.88465
vn -0.00035 -0.47725 0.87877
vn -0.02642 0.49472 -0.86865
vn 0.01305 -0.48795 0.87278
vn 0.70575 0.43361 -0.56026
vn 0.69104 0.38556 -0.61140
vn 0.72727 0.39270 -0.56290
vn -0.69859 -0.43139 0.57086
vn -0.72392 -0.39487 0.56570
vn -0.68956 -0.39531 0.60682
vn 0.74463 0.35897 -0.56273
vn -0.74917 -0.36231 0.55451
vn 1.00000 -0.00000 -0.00000
vn -1.00000 0.00002 0.00062
vn -1.00000 -0.00005 -0.00000
vn -1.00000 0.00006 0.00038
vn 0.99486 0.06590 -0.07682
vn -0.99751 -0.04421 0.05503
vn -0.97923 0.12951 -0.15598
vn 0.98709 -0.10376 0.12198
vn 1.00000 0.00005 -0.00017
vn -0.77145 0.37189 -0.51630
vn -0.77862 0.35827 -0.51516
vn 0.79245 -0.36062 0.49191
vn 0.97638 -0.12624 0.17533
vn 0.00000 0.52323 -0.85219
vn -0.00067 -0.51030 0.86000
vn 0.00000 0.54207 -0.84034
vn -0.00082 -0.52451 0.85140
vn 0.96683 0.14614 -0.20948
vn 0.97306 0.13986 -0.18329
vn -0.98129 -0.11008 0.15797
vn -0.98338 -0.11001 0.14447
vn 0.79674 0.36660 -0.48043
vn 0.80696 0.34139 -0.48194
vn -0.81836 -0.35087 0.45518
vn -1.00000 0.00011 -0.00015
vn 0.98824 0.10316 -0.11284
vn -0.98578 0.14847 -0.07867
vn 0.99038 -0.12483 0.05970
vn 1.00000 0.00001 -0.00003
vn -0.88530 0.35815 -0.29659
vn 0.89947 -0.35243 0.25834
vn -0.00000 0.73343 -0.67977
vn -0.00099 -0.70431 0.70989
vn -0.00000 0.83027 -0.55736
vn -0.00080 -0.81181 0.58392
vn 0.99270 0.09715 -0.07150
vn -0.99557 -0.07792 0.05264
vn 0.91277 0.34981 -0.21093
vn -0.91734 -0.35135 0.18721
vn -1.00000 0.00002 -0.00022
vn -0.99148 0.12558 -0.03452
vn 0.99351 -0.10992 0.02930
vn 1.00000 -0.00001 -0.00001
vn -0.92854 0.34747 -0.13065
vn 0.93300 -0.34148 0.11356
vn 0.00000 0.92136 -0.38871
vn -0.00053 -0.92011 0.39166
vn 0.00000 0.94406 -0.32978
vn -0.00022 -0.94398 0.32999
vn 0.99424 0.10161 -0.03413
vn -0.99603 -0.08496 0.02658
vn 0.93656 0.33434 -0.10519
vn -0.93731 -0.33492 0.09629
vn -1.00000 -0.00001 0.00000
vn -0.99359 0.11179 -0.01676
vn 0.99500 -0.09884 0.01456
vn 1.00000 -0.00001 -0.00000
vn -0.94159 0.32945 -0.06986
vn 0.94254 -0.32753 0.06593
vn 0.00000 0.97220 -0.23415
vn -0.00013 -0.97195 0.23519
vn 0.00000 0.98173 -0.19027
vn -0.00009 -0.98162 0.19087
vn 0.99459 0.10201 -0.01983
vn -0.99587 -0.08917 0.01691
vn 0.94573 0.31998 -0.05667
vn -0.94577 -0.32028 0.05414
vn -0.99455 0.10413 -0.00553
vn 0.99572 -0.09224 0.00484
vn -0.94798 0.31688 -0.03039
vn 0.94835 -0.31589 0.02898
vn 0.00000 0.99384 -0.11085
vn -0.00003 -0.99378 0.11138
vn 0.00000 0.99741 -0.07191
vn -0.00004 -0.99738 0.07231
vn 0.99473 0.10208 -0.00943
vn -0.99588 -0.09031 0.00817
vn 0.94964 0.31262 -0.02144
vn -0.94973 -0.31239 0.02080
vn -0.99491 0.10055 0.00656
vn 0.99600 -0.08913 -0.00571
vn -0.95008 0.31192 0.00719
vn 0.95022 -0.31150 -0.00713
vn -0.00000 0.99981 0.01949
vn 0.00002 -0.99980 -0.01993
vn -0.00000 0.99719 0.07494
vn 0.00001 -0.99716 -0.07533
vn 0.99454 0.10433 0.00103
vn -0.99571 -0.09249 -0.00092
vn 0.94925 0.31393 0.01933
vn -0.94944 -0.31340 -0.01882
vn -0.99495 0.09972 0.01135
vn 0.99604 -0.08835 -0.00994
vn -0.94774 0.31663 0.03920
vn 0.94771 -0.31684 -0.03819
vn 0.00000 0.99053 0.13733
vn 0.00003 -0.99049 -0.13758
vn 0.00000 0.98975 0.14279
vn 0.00000 -0.98972 -0.14300
vn 0.99384 0.11015 0.01213
vn -0.99514 -0.09787 -0.01064
vn 0.94564 0.32252 0.04182
vn -0.94587 -0.32201 -0.04042
vn -0.99478 0.10092 0.01490
vn 0.99626 -0.08567 -0.01148
vn 1.00000 -0.00001 0.00001
vn -0.94437 0.32526 0.04871
vn 0.94455 -0.32545 -0.04370
vn 0.00000 0.98636 0.16460
vn 0.00002 -0.98638 -0.16446
vn 0.00000 0.98311 0.18302
vn 0.00023 -0.98270 -0.18520
vn 0.99319 0.11547 0.01522
vn -0.99463 -0.10267 -0.01332
vn 0.94194 0.33122 0.05514
vn -0.94401 -0.32681 -0.04513
vn -0.99284 0.10204 0.06206
vn 0.99570 -0.08194 -0.04331
vn 1.00000 0.00002 0.00017
vn -0.93321 0.33165 0.13828
vn 0.93628 -0.33271 -0.11264
vn 0.00000 0.91483 0.40385
vn 0.00065 -0.91196 -0.41028
vn 0.00000 0.80485 0.59348
vn 0.00125 -0.79532 -0.60619
vn 0.99146 0.12394 0.04065
vn -0.99411 -0.10425 -0.02949
vn 0.91475 0.34090 0.21685
vn -0.92840 -0.33123 -0.16839
vn -1.00000 -0.00001 0.00001
vn -0.99731 0.05795 0.04495
vn 0.99849 -0.04337 -0.03361
vn 1.00000 0.00018 0.00056
vn -0.83790 0.32563 0.43804
vn 0.85294 -0.33606 -0.39944
vn -0.97914 0.10908 0.17144
vn 0.99005 -0.07934 -0.11624
vn 0.02745 0.55204 0.83337
vn 0.00128 -0.53721 -0.84345
vn -0.00000 0.45504 0.89047
vn 0.00118 -0.43062 -0.90253
vn 0.97640 0.14151 0.16315
vn -0.98701 -0.11251 -0.11469
vn 0.75681 0.32701 0.56595
vn -0.80534 -0.33098 -0.49180
vn -1.00000 0.00004 0.00015
vn 0.98630 0.11948 0.11375
vn -0.99200 -0.09739 -0.08031
vn 1.00000 0.00030 0.00125
vn 1.00000 0.00033 0.00020
vn -0.77901 0.33660 0.52900
vn -0.55850 0.25837 0.78824
vn 0.56702 -0.26844 -0.77873
vn 0.79858 -0.33832 -0.49780
vn -0.43919 0.23947 0.86589
vn 0.42621 -0.22607 -0.87592
vn 0.04112 0.27912 0.95937
vn -0.01599 -0.53444 -0.84505
vn -0.02135 -0.26296 -0.96457
vn -0.01100 0.21286 0.97702
vn 0.00663 -0.20007 -0.97976
vn 0.60538 0.28005 0.74504
vn 0.86009 0.33426 0.38538
vn -0.87966 -0.33238 -0.34019
vn -0.59689 -0.27994 -0.75191
vn 0.10998 0.55083 0.82734
vn -0.03290 -0.32676 -0.94453
vn -0.18050 -0.35881 -0.91579
vn -1.00000 0.00024 0.00089
vn -0.99999 0.00072 0.00358
vn 1.00000 0.00039 0.00057
vn 1.00000 0.00032 0.00000
vn -0.05983 0.22350 0.97287
vn -0.02398 0.12723 0.99158
vn 0.03492 -0.20703 -0.97771
vn 0.01294 -0.12216 -0.99243
vn -0.19821 0.15439 0.96792
vn 0.18903 -0.13902 -0.97208
vn 0.01528 0.13830 0.99027
vn -0.00784 -0.26068 -0.96539
vn -0.00623 -0.13193 -0.99124
vn 0.27025 0.16618 0.94834
vn -0.21369 -0.15174 -0.96504
vn -1.00000 0.00072 0.00240
vn -0.99998 0.00152 0.00654
vn -0.99998 -0.00120 -0.00541
vn -1.00000 -0.00029 -0.00082
vn 1.00000 0.00025 -0.00000
vn 1.00000 0.00030 0.00000
vn -0.01354 0.10938 0.99391
vn 0.00698 -0.10804 -0.99412
vn -0.11583 0.13713 0.98376
vn 0.10916 -0.12008 -0.98674
vn 0.00830 0.10912 0.99399
vn -0.00246 -0.10783 -0.99417
vn 0.14836 0.13293 0.97996
vn -0.10152 -0.11807 -0.98780
vn -1.00000 0.00053 -0.00000
vn 1.00000 -0.00069 -0.00075
vn 1.00000 -0.00056 -0.00023
vn -1.00000 0.00010 0.00146
vn -1.00000 0.00036 0.00243
vn 1.00000 0.00040 0.00000
vn 1.00000 0.00046 0.00000
vn -0.00783 0.09340 0.99560
vn 0.00331 -0.09180 -0.99577
vn -0.06132 0.11586 0.99137
vn 0.05751 -0.09647 -0.99367
vn 0.00464 0.10010 0.99497
vn -0.00124 -0.09962 -0.99502
vn 0.09151 0.12451 0.98799
vn -0.05231 -0.10644 -0.99294
vn -1.00000 0.00051 -0.00000
vn -1.00000 0.00052 0.00000
vn 1.00000 -0.00041 0.00037
vn 1.00000 0.00001 0.00137
vn -1.00000 0.00089 0.00206
vn -1.00000 -0.00005 0.00088
vn 1.00000 0.00064 -0.00000
vn -0.00374 0.06922 0.99759
vn 0.00179 -0.06781 -0.99770
vn -0.02406 0.08648 0.99596
vn 0.02323 -0.07450 -0.99695
vn 0.00170 0.07532 0.99716
vn -0.00020 -0.07503 -0.99718
vn 0.04120 0.09365 0.99475
vn -0.01739 -0.07989 -0.99665
vn -1.00000 0.00054 0.00000
vn 1.00000 0.00072 0.00271
vn -0.99999 0.00193 0.00336
vn -0.00244 0.05879 0.99827
vn 0.00107 -0.05758 -0.99834
vn -0.01080 0.08294 0.99650
vn 0.00686 -0.07074 -0.99747
vn 0.00039 0.05713 0.99837
vn 0.00011 -0.05709 -0.99837
vn 0.01545 0.06765 0.99759
vn -0.00011 -0.05973 -0.99821
vn 1.00000 0.00000 0.00001
vn 0.99999 0.00122 0.00345
vn 0.31499 0.05131 -0.94771
vn 0.00000 0.00000 -1.00000
vn 0.37637 -0.03011 -0.92598
vn 0.62321 -0.10510 -0.77496
vn 0.00000 -1.00000 0.00001
vn 0.00000 -1.00000 0.00000
vn 0.68234 -0.36091 -0.63573
vn 0.56874 -0.04550 -0.82126
vn 0.79568 -0.35448 -0.49116
vn -0.00569 -0.83923 -0.54375
vn 0.00000 -0.88281 -0.46973
vn -0.01152 -0.78764 -0.61603
vn -0.42226 -0.10331 -0.90057
vn -0.53117 -0.21280 -0.82011
vn -0.65780 -0.40415 -0.63558
vn -0.19450 0.02930 -0.98046
vn -0.00000 -1.00000 -0.00001
vn -0.16471 0.02683 -0.98598
vn -0.00000 0.05552 -0.99846
vn 0.00000 -1.00000 -0.00002
vn 0.00000 -1.00000 -0.00167
vn 0.00000 -0.99999 -0.00387
vn 0.00000 -1.00000 0.00002
vn 0.00000 -0.99998 -0.00690
vn 0.69635 -0.08939 0.71211
vn 0.00000 0.91446 0.40468
vn 0.18716 -0.96856 0.16388
vn 0.02623 -0.99685 0.07489
vn 0.00694 -0.99824 0.05882
vn 0.30394 -0.87350 0.38028
vn -0.00451 -0.99827 0.05868
vn -0.02050 -0.99786 0.06214
vn -0.14955 -0.98436 0.09312
vn -0.12835 -0.98574 0.10881
vn -0.00000 -0.12423 0.99225
vn -0.41817 0.79499 0.43946
s off
f 1/1/1 2/2/2 3/3/3
f 4/1/4 5/3/5 6/2/6
f 2/2/2 1/1/1 7/4/1
f 6/2/6 8/4/7 4/1/4
f 3/3/8 9/5/9 10/6/10
f 5/3/11 11/6/12 12/5/13
f 9/5/14 3/3/15 2/2/16
f 12/5/17 6/2/18 5/3/11
f 10/7/10 13/8/19 14/9/20
f 11/7/12 15/9/21 16/8/22
f 13/8/19 10/7/10 9/10/23
f 16/8/22 12/10/24 11/7/12
f 17/11/25 14/12/26 18/13/27
f 19/11/28 20/13/29 15/12/30
f 18/13/27 14/12/26 13/14/31
f 20/13/29 16/14/32 15/12/30
f 17/11/33 21/15/33 22/16/33
f 19/11/34 23/16/35 24/15/36
f 21/15/33 17/11/33 18/13/37
f 24/15/36 20/13/38 19/11/34
f 7/4/1 25/17/39 2/2/2
f 8/4/7 6/2/6 26/17/40
f 25/17/39 7/4/1 27/18/1
f 26/17/40 28/18/41 8/4/7
f 2/2/42 29/19/43 9/5/14
f 6/2/18 12/5/17 30/19/44
f 29/19/43 2/2/16 25/17/39
f 30/19/44 26/17/40 6/2/45
f 9/10/23 31/20/46 13/8/19
f 12/10/24 16/8/22 32/20/47
f 31/20/46 9/10/23 29/21/48
f 32/20/47 30/21/49 12/10/24
f 18/13/50 13/14/31 33/22/51
f 20/13/52 34/22/53 16/14/32
f 33/22/54 13/14/31 31/23/55
f 34/22/53 32/23/56 16/14/32
f 18/13/37 35/24/33 21/15/33
f 20/13/38 24/15/36 36/24/57
f 35/24/33 18/13/37 33/22/58
f 36/24/57 34/22/53 20/13/38
f 27/18/1 37/25/59 25/17/39
f 28/18/41 26/17/40 38/25/60
f 37/25/59 27/18/1 39/26/1
f 38/25/60 40/26/61 28/18/41
f 25/17/39 41/27/62 29/19/43
f 26/17/40 30/19/44 42/27/63
f 41/27/62 25/17/39 37/25/59
f 42/27/63 38/25/60 26/17/40
f 29/21/48 43/28/64 31/20/46
f 30/21/49 32/20/47 44/28/65
f 43/28/64 29/21/48 41/29/66
f 44/28/65 42/29/67 30/21/49
f 33/22/51 31/23/55 45/30/68
f 34/22/53 46/30/69 32/23/56
f 45/30/68 31/23/55 43/31/70
f 46/30/69 44/31/71 32/23/56
f 33/22/58 47/32/33 35/24/33
f 34/22/53 36/24/57 48/32/72
f 47/32/33 33/22/58 45/30/68
f 48/32/72 46/30/69 34/22/53
f 39/26/1 49/33/73 37/25/59
f 40/26/61 38/25/60 50/33/74
f 49/33/73 39/26/1 51/34/1
f 50/33/74 52/34/75 40/26/61
f 37/25/59 53/35/76 41/27/62
f 38/25/60 42/27/63 54/35/77
f 53/35/76 37/25/59 49/33/73
f 54/35/77 50/33/74 38/25/60
f 41/29/66 55/36/78 43/28/64
f 42/29/67 44/28/65 56/36/79
f 55/36/78 41/29/66 53/37/80
f 56/36/79 54/37/81 42/29/67
f 45/30/68 43/31/70 57/38/82
f 46/30/69 58/38/83 44/31/71
f 57/38/82 43/31/70 55/39/84
f 58/38/83 56/39/85 44/31/71
f 45/30/68 59/40/33 47/32/33
f 46/30/69 48/32/72 60/40/86
f 59/40/33 45/30/68 57/38/82
f 60/40/86 58/38/83 46/30/69
f 51/34/1 61/41/87 49/33/73
f 52/34/75 50/33/74 62/41/88
f 61/41/87 51/34/1 63/42/1
f 62/41/88 64/42/89 52/34/75
f 49/33/73 65/43/90 53/35/76
f 50/33/74 54/35/77 66/43/91
f 65/43/90 49/33/73 61/41/87
f 66/43/91 62/41/88 50/33/74
f 53/37/80 67/44/92 55/36/78
f 54/37/81 56/36/79 68/44/93
f 67/44/92 53/37/80 65/45/94
f 68/44/93 66/45/95 54/37/81
f 55/39/84 69/46/96 57/38/82
f 56/39/85 58/38/83 70/46/97
f 69/46/96 55/39/84 67/47/98
f 70/46/97 68/47/99 56/39/85
f 57/38/82 71/48/33 59/40/33
f 58/38/83 60/40/86 72/48/86
f 71/48/33 57/38/82 69/46/96
f 72/48/86 70/46/97 58/38/83
f 63/42/1 73/49/100 61/41/87
f 64/42/89 62/41/88 74/49/101
f 73/49/100 63/42/1 75/50/1
f 74/49/101 76/50/89 64/42/89
f 61/41/87 77/51/102 65/43/90
f 62/41/88 66/43/91 78/51/103
f 77/51/102 61/41/87 73/49/100
f 78/51/103 74/49/101 62/41/88
f 65/45/94 79/52/104 67/44/92
f 66/45/95 68/44/93 80/52/105
f 79/52/104 65/45/94 77/53/106
f 80/52/105 78/53/107 66/45/95
f 67/47/98 81/54/108 69/46/96
f 68/47/99 70/46/97 82/54/109
f 81/54/108 67/47/98 79/55/110
f 82/54/109 80/55/111 68/47/99
f 69/46/96 83/56/33 71/48/33
f 70/46/97 72/48/86 84/56/86
f 83/56/33 69/46/96 81/54/108
f 84/56/86 82/54/109 70/46/97
f 75/50/1 85/57/112 73/49/100
f 76/50/89 74/49/101 86/57/113
f 85/57/112 75/50/1 87/58/1
f 86/57/113 88/58/89 76/50/89
f 73/49/100 89/59/114 77/51/102
f 74/49/101 78/51/103 90/59/115
f 89/59/114 73/49/100 85/57/112
f 90/59/115 86/57/113 74/49/101
f 77/53/106 91/60/116 79/52/104
f 78/53/107 80/52/105 92/60/117
f 91/60/116 77/53/106 89/61/118
f 92/60/117 90/61/119 78/53/107
f 79/55/110 93/62/120 81/54/108
f 80/55/111 82/54/109 94/62/121
f 93/62/120 79/55/110 91/63/122
f 94/62/121 92/63/123 80/55/111
f 81/54/108 95/64/33 83/56/33
f 82/54/109 84/56/86 96/64/86
f 95/64/33 81/54/108 93/62/120
f 96/64/86 94/62/121 82/54/109
f 87/58/1 97/65/124 85/57/112
f 88/58/89 86/57/113 98/65/125
f 97/65/124 87/58/1 99/66/1
f 98/65/125 100/66/89 88/58/89
f 85/57/112 101/67/126 89/59/114
f 86/57/113 90/59/115 102/67/127
f 101/67/126 85/57/112 97/65/124
f 102/67/127 98/65/125 86/57/113
f 89/61/118 103/68/128 91/60/116
f 90/61/119 92/60/117 104/68/129
f 103/68/128 89/61/118 101/69/130
f 104/68/129 102/69/131 90/61/119
f 91/63/122 105/70/132 93/62/120
f 92/63/123 94/62/121 106/70/133
f 105/70/132 91/63/122 103/71/134
f 106/70/133 104/71/135 92/63/123
f 93/62/120 107/72/33 95/64/33
f 94/62/121 96/64/86 108/72/86
f 107/72/33 93/62/120 105/70/132
f 108/72/86 106/70/133 94/62/121
f 99/66/1 109/73/136 97/65/124
f 100/66/89 98/65/125 110/73/137
f 109/73/136 99/66/1 111/74/1
f 110/73/137 112/74/138 100/66/89
f 97/65/124 113/75/139 101/67/126
f 98/65/125 102/67/127 114/75/140
f 113/75/139 97/65/124 109/73/136
f 114/75/140 110/73/137 98/65/125
f 101/69/130 115/76/141 103/68/128
f 102/69/131 104/68/129 116/76/142
f 115/76/141 101/69/130 113/77/143
f 116/76/142 114/77/144 102/69/131
f 103/71/134 117/78/145 105/70/132
f 104/71/135 106/70/133 118/78/146
f 117/78/145 103/71/134 115/79/147
f 118/78/146 116/79/148 104/71/135
f 105/70/132 119/80/33 107/72/33
f 106/70/133 108/72/86 120/80/86
f 119/80/33 105/70/132 117/78/145
f 120/80/86 118/78/146 106/70/133
f 109/73/136 111/74/1 121/81/149
f 110/73/137 122/81/150 112/74/138
f 121/81/149 111/74/1 123/82/1
f 122/81/150 124/82/151 112/74/138
f 109/73/136 125/83/152 113/75/139
f 110/73/137 114/75/140 126/83/153
f 125/83/152 109/73/136 121/81/149
f 126/83/153 122/81/150 110/73/137
f 113/77/143 127/84/154 115/76/141
f 114/77/144 116/76/142 128/84/155
f 127/84/154 113/77/143 125/85/156
f 128/84/155 126/85/157 114/77/144
f 115/79/147 129/86/158 117/78/145
f 116/79/148 118/78/146 130/86/159
f 129/86/158 115/79/147 127/87/160
f 130/86/159 128/87/161 116/79/148
f 117/78/145 131/88/33 119/80/33
f 118/78/146 120/80/86 132/88/162
f 131/88/33 117/78/145 129/86/158
f 132/88/162 130/86/159 118/78/146
f 121/81/149 123/82/1 133/89/163
f 122/81/150 134/89/164 124/82/151
f 133/89/163 123/82/1 135/90/1
f 134/89/164 136/90/165 124/82/151
f 125/83/152 121/81/149 137/91/166
f 126/83/153 138/91/167 122/81/150
f 137/91/166 121/81/149 133/89/168
f 138/91/167 134/89/169 122/81/150
f 125/85/156 139/92/170 127/84/154
f 126/85/157 128/84/155 140/92/171
f 139/92/170 125/85/156 137/93/172
f 140/92/171 138/93/173 126/85/157
f 127/87/160 141/94/174 129/86/158
f 128/87/161 130/86/159 142/94/175
f 141/94/174 127/87/160 139/95/176
f 142/94/175 140/95/177 128/87/161
f 129/86/158 143/96/33 131/88/33
f 130/86/159 132/88/162 144/96/178
f 143/96/33 129/86/158 141/94/179
f 144/96/178 142/94/180 130/86/159
f 133/89/163 135/90/1 145/97/1
f 134/89/164 146/97/181 136/90/165
f 145/97/1 135/90/1 147/98/1
f 146/97/181 148/98/182 136/90/165
f 137/91/166 133/89/183 149/99/184
f 138/91/167 150/99/185 134/89/186
f 149/99/184 133/89/183 145/97/187
f 150/99/185 146/97/188 134/89/186
f 137/93/172 151/100/189 139/92/170
f 138/93/173 140/92/190 152/100/191
f 151/100/189 137/93/172 149/101/192
f 152/100/191 150/101/193 138/93/173
f 139/95/176 153/102/194 141/94/195
f 140/95/177 142/94/196 154/102/197
f 153/102/194 139/95/198 151/103/189
f 154/102/197 152/103/199 140/95/200
f 141/94/179 155/104/33 143/96/33
f 142/94/180 144/96/178 156/104/201
f 155/104/33 141/94/179 153/102/33
f 156/104/201 154/102/202 142/94/180
f 145/97/1 147/98/1 157/105/1
f 146/97/181 158/105/203 148/98/182
f 157/105/1 147/98/1 159/106/1
f 158/105/203 160/106/204 148/98/182
f 149/99/205 145/97/187 161/107/206
f 150/99/207 162/107/208 146/97/188
f 161/107/206 145/97/187 157/105/209
f 162/107/208 158/105/210 146/97/188
f 149/101/192 163/108/211 151/100/189
f 150/101/193 152/100/212 164/108/213
f 163/108/211 149/101/192 161/109/206
f 164/108/213 162/109/208 150/101/193
f 151/103/189 165/110/214 153/102/194
f 152/103/191 154/102/197 166/110/215
f 165/110/214 151/103/189 163/111/211
f 166/110/215 164/111/213 152/103/191
f 153/102/33 167/112/33 155/104/33
f 154/102/202 156/104/201 168/112/216
f 167/112/33 153/102/33 165/110/33
f 168/112/216 166/110/217 154/102/202
f 157/105/1 159/106/1 169/113/1
f 158/105/218 170/113/219 160/106/218
f 169/113/1 159/106/1 171/114/1
f 170/113/220 172/114/221 160/106/204
f 161/107/206 157/105/209 173/115/222
f 162/107/208 174/115/223 158/105/210
f 173/115/222 157/105/209 169/113/224
f 174/115/223 170/113/225 158/105/210
f 161/109/206 175/116/226 163/108/211
f 162/109/208 164/108/213 176/116/227
f 175/116/226 161/109/206 173/117/222
f 176/116/227 174/117/223 162/109/208
f 163/111/211 177/118/228 165/110/214
f 164/111/213 166/110/215 178/118/229
f 177/118/228 163/111/211 175/119/226
f 178/118/229 176/119/227 164/111/213
f 165/110/33 179/120/33 167/112/33
f 166/110/217 168/112/216 180/120/230
f 179/120/33 165/110/33 177/118/33
f 180/120/231 178/118/232 166/110/231
f 169/113/1 171/114/1 181/121/1
f 170/113/219 182/121/233 172/114/234
f 181/121/1 171/114/1 183/122/1
f 182/121/235 184/122/236 172/114/221
f 173/115/222 169/113/224 185/123/237
f 174/115/223 186/123/238 170/113/225
f 185/123/237 169/113/224 181/121/239
f 186/123/238 182/121/240 170/113/225
f 173/117/222 187/124/241 175/116/226
f 174/117/223 176/116/227 188/124/242
f 187/124/241 173/117/222 185/125/237
f 188/124/242 186/125/238 174/117/223
f 175/119/226 189/126/243 177/118/228
f 176/119/227 178/118/229 190/126/244
f 189/126/243 175/119/226 187/127/241
f 190/126/244 188/127/242 176/119/227
f 177/118/33 191/128/33 179/120/33
f 178/118/245 180/120/230 192/128/246
f 191/128/33 177/118/33 189/126/33
f 192/128/247 190/126/248 178/118/232
f 181/121/1 183/122/1 193/129/1
f 182/121/233 194/129/249 184/122/250
f 193/129/1 183/122/1 195/130/1
f 194/129/251 196/130/251 184/122/236
f 185/123/237 181/121/239 197/131/252
f 186/123/238 198/131/253 182/121/240
f 197/131/252 181/121/239 193/129/254
f 198/131/253 194/129/255 182/121/240
f 185/125/237 199/132/256 187/124/241
f 186/125/238 188/124/242 200/132/257
f 199/132/256 185/125/237 197/133/252
f 200/132/257 198/133/253 186/125/238
f 187/127/241 201/134/258 189/126/243
f 188/127/242 190/126/244 202/134/259
f 201/134/258 187/127/241 199/135/256
f 202/134/259 200/135/257 188/127/242
f 189/126/33 203/136/33 191/128/33
f 190/126/260 192/128/246 204/136/260
f 203/136/33 189/126/33 201/134/33
f 204/136/261 202/134/261 190/126/248
f 193/129/1 195/130/1 205/137/1
f 194/129/249 206/137/262 196/130/262
f 197/131/252 193/129/254 207/138/263
f 198/131/253 208/138/264 194/129/255
f 207/138/263 193/129/254 205/137/265
f 208/138/264 206/137/266 194/129/255
f 197/133/252 209/139/267 199/132/256
f 198/133/253 200/132/257 210/139/268
f 209/139/267 197/133/252 207/140/263
f 210/139/268 208/140/264 198/133/253
f 199/135/256 211/141/269 201/134/258
f 200/135/257 202/134/259 212/141/270
f 211/141/269 199/135/256 209/142/267
f 212/141/270 210/142/268 200/135/257
f 203/136/33 201/134/33 211/141/271
f 204/136/261 212/141/272 202/134/261
f 3/143/273 4/144/273 1/145/274
f 3/143/275 5/146/276 4/144/273
f 1/147/277 8/148/278 7/149/278
f 1/147/277 4/150/277 8/148/278
f 10/151/279 5/152/276 3/153/280
f 10/151/279 11/154/281 5/152/276
f 14/155/282 11/156/282 10/157/283
f 14/155/282 15/158/284 11/156/282
f 17/159/285 15/160/286 14/161/287
f 17/159/285 19/162/288 15/160/286
f 21/163/289 23/164/289 22/165/289
f 21/163/289 24/166/278 23/164/289
f 22/167/290 19/168/288 17/169/285
f 22/167/290 23/170/291 19/168/288
f 7/171/278 28/172/278 27/173/278
f 7/171/278 8/174/278 28/172/278
f 35/175/278 24/176/278 21/177/289
f 35/175/278 36/178/278 24/176/278
f 27/179/278 40/180/278 39/181/278
f 27/179/278 28/182/278 40/180/278
f 47/183/278 36/184/278 35/185/278
f 47/183/278 48/186/278 36/184/278
f 39/187/278 52/188/278 51/189/278
f 39/187/278 40/190/278 52/188/278
f 59/191/278 48/192/278 47/193/278
f 59/191/278 60/194/278 48/192/278
f 51/195/278 64/196/278 63/197/278
f 51/195/278 52/198/278 64/196/278
f 71/199/278 60/200/278 59/201/278
f 71/199/278 72/202/278 60/200/278
f 63/203/278 76/204/278 75/205/278
f 63/203/278 64/206/278 76/204/278
f 83/207/278 72/208/278 71/209/278
f 83/207/278 84/210/278 72/208/278
f 75/211/278 88/212/278 87/213/278
f 75/211/278 76/214/278 88/212/278
f 95/215/278 84/216/278 83/217/278
f 95/215/278 96/218/278 84/216/278
f 87/219/278 100/220/278 99/221/278
f 87/219/278 88/222/278 100/220/278
f 107/223/278 96/224/278 95/225/278
f 107/223/278 108/226/278 96/224/278
f 99/227/278 112/228/278 111/229/278
f 99/227/278 100/230/278 112/228/278
f 119/231/278 108/232/278 107/233/278
f 119/231/278 120/234/278 108/232/278
f 111/235/278 124/236/278 123/237/278
f 111/235/278 112/238/278 124/236/278
f 131/239/278 120/240/278 119/241/278
f 131/239/278 132/242/278 120/240/278
f 123/243/278 136/244/278 135/245/278
f 123/243/278 124/246/278 136/244/278
f 143/247/278 132/248/278 131/249/278
f 143/247/278 144/250/278 132/248/278
f 135/251/278 148/252/278 147/253/278
f 135/251/278 136/254/278 148/252/278
f 155/255/278 144/256/278 143/257/278
f 155/255/278 156/258/278 144/256/278
f 147/259/278 160/260/289 159/261/277
f 147/259/278 148/262/278 160/260/289
f 167/263/278 156/264/278 155/265/278
f 167/263/278 168/266/278 156/264/278
f 159/267/277 172/268/277 171/269/289
f 159/267/277 160/270/289 172/268/277
f 179/271/278 168/272/278 167/273/278
f 179/271/278 180/274/278 168/272/278
f 171/275/289 184/276/292 183/277/278
f 171/275/289 172/278/277 184/276/292
f 191/279/293 180/280/278 179/281/278
f 191/279/293 192/282/294 180/280/278
f 183/283/278 196/284/295 195/285/295
f 183/283/278 184/286/292 196/284/295
f 203/287/296 192/288/294 191/289/293
f 203/287/296 204/290/296 192/288/294
f 195/291/297 206/292/297 205/293/297
f 195/291/298 196/294/298 206/292/298
f 205/295/299 208/296/300 207/297/301
f 205/295/299 206/298/302 208/296/300
f 207/299/301 210/300/303 209/301/304
f 207/299/301 208/302/300 210/300/303
f 209/303/304 212/304/305 211/305/306
f 209/303/304 210/306/303 212/304/305
f 211/307/307 204/308/307 203/309/307
f 211/307/308 212/310/308 204/308/308
