# Titan_ChestCrescent: BRZ-01 Titan chest bulge (ChestPlate/ChestLower/ChestSide = main, ChestCrescent = hi), exported from the wedge build (MechConfig.Scale 1.7)
# units: studs, in the "Hatch" bone frame (+Y up, front = -Z); UV: 1 repeat = 4.0 studs (crosshatch largeTile)
# vertices centred on their bounding box: place the MeshPart at bone.CFrame * CFrame.new(0.0000, 2.1756, -1.0007)
o Titan_ChestCrescent
v -3.22320 0.44880 0.65427
v -2.41740 0.67320 -0.00618
v -2.32560 -0.13260 0.13662
v -3.03747 0.47644 0.75153
v -2.24505 -0.06899 0.29954
v -2.32248 0.67146 0.16361
v -3.10080 -0.44880 0.65427
v -2.92716 -0.37217 0.76819
v -1.61160 0.81855 -0.47793
v -1.55040 0.01020 -0.23313
v -1.49602 0.09047 -0.06779
v -1.54778 0.81296 -0.28791
v -0.80580 0.90482 -0.76098
v -0.77520 0.09010 -0.45498
v -0.74662 0.18033 -0.28928
v -0.77521 0.89566 -0.55790
v -0.00000 0.93840 -0.85533
v 0.00000 0.12240 -0.52893
v 0.00315 0.21549 -0.36330
v -0.00146 0.92628 -0.64819
v 0.80580 0.90482 -0.76098
v 0.77520 0.09010 -0.45498
v 0.75202 0.18041 -0.28983
v 0.77268 0.89127 -0.55863
v 1.61160 0.81855 -0.47793
v 1.55040 0.01020 -0.23313
v 1.50177 0.09158 -0.06907
v 1.54553 0.80479 -0.28939
v 2.41740 0.67320 -0.00618
v 2.32560 -0.13260 0.13662
v 2.25313 -0.06894 0.29954
v 2.32108 0.65999 0.16188
v 3.22320 0.44880 0.65427
v 3.10080 -0.44880 0.65427
v 2.92634 -0.37390 0.75567
v 3.03457 0.44873 0.74811
v -2.14200 -0.82474 0.45027
v -2.08730 -0.74833 0.61392
v -2.85600 -0.93840 0.73587
v -2.69624 -0.83861 0.85533
v -1.42800 -0.73848 0.24627
v -1.39179 -0.63903 0.40227
v -0.71400 -0.68255 0.12387
v -0.69655 -0.57030 0.27382
v -0.00000 -0.65280 0.08307
v 0.00111 -0.55539 0.24518
v 0.71400 -0.68255 0.12387
v 0.70398 -0.56815 0.27243
v 1.42800 -0.73848 0.24627
v 1.40267 -0.63044 0.39791
v 2.14200 -0.82474 0.45027
v 2.09651 -0.72868 0.60568
v 2.85600 -0.93840 0.73587
v 2.72549 -0.78053 0.83014
vt 0.85638 1.67304
vt 0.60209 1.71472
vt 0.60495 1.50810
vt 0.83781 1.44711
vt 0.38146 1.73882
vt 0.39151 1.52968
vt 0.18495 1.75238
vt 0.19224 1.54024
vt 0.00097 1.75806
vt 0.00033 1.54491
vt -0.18336 1.75299
vt -0.19175 1.54056
vt -0.38061 1.73956
vt -0.39123 1.52994
vt -0.60249 1.71537
vt -0.60484 1.50812
vt -0.85934 1.67419
vt -0.83775 1.44718
vt 0.60605 1.31246
vt 0.81249 1.31479
vt 0.40371 1.30777
vt 0.20152 1.30226
vt -0.00078 1.30178
vt -0.20216 1.30154
vt -0.40302 1.30636
vt -0.60450 1.31117
vt -0.80934 1.31174
vt 0.60605 1.31246
vt 0.81302 1.26788
vt 0.81249 1.31479
vt 0.60658 1.26554
vt 0.40371 1.30777
vt 0.60713 1.26555
vt 0.60605 1.31246
vt 0.40480 1.26086
vt 0.20152 1.30226
vt 0.40499 1.26087
vt 0.40371 1.30777
vt 0.20279 1.25536
vt -0.00078 1.30178
vt 0.20163 1.25534
vt 0.20152 1.30226
vt -0.00067 1.25486
vt -0.20216 1.30154
vt -0.00073 1.25486
vt -0.00078 1.30178
vt -0.20210 1.25462
vt -0.40302 1.30636
vt -0.20328 1.25463
vt -0.20216 1.30154
vt -0.40415 1.25945
vt -0.60450 1.31117
vt -0.40415 1.25945
vt -0.40302 1.30636
vt -0.60562 1.26427
vt -0.80934 1.31174
vt -0.60463 1.26425
vt -0.60450 1.31117
vt -0.80947 1.26482
vn -0.58947 -0.06740 -0.80498
vn -0.55506 0.01307 -0.83171
vn -0.41507 -0.31863 -0.85217
vn 0.59101 0.07417 0.80325
vn 0.40859 0.32816 0.85169
vn 0.55250 -0.01331 0.83341
vn -0.43134 -0.26746 -0.86163
vn 0.43279 0.27647 0.85806
vn -0.41238 0.07222 -0.90815
vn -0.27722 -0.42485 -0.86177
vn 0.27316 0.43061 0.86021
vn 0.41298 -0.07890 0.90732
vn -0.40305 -0.13874 -0.90460
vn -0.15153 -0.35813 -0.92129
vn -0.13897 -0.48188 -0.86515
vn 0.40487 0.13261 0.90471
vn 0.13521 0.48931 0.86156
vn 0.15135 0.35870 0.92110
vn 0.02406 -0.36570 -0.93042
vn -0.01232 -0.49937 -0.86630
vn 0.01145 0.50769 0.86146
vn -0.02337 0.36661 0.93008
vn 0.20338 -0.33444 -0.92021
vn 0.11878 -0.47862 -0.86995
vn -0.11750 0.48541 0.86636
vn -0.20204 0.33540 0.92016
vn 0.37718 -0.26569 -0.88721
vn 0.25884 -0.41964 -0.87000
vn -0.25645 0.42511 0.86805
vn -0.37637 0.26584 0.88751
vn 0.40110 0.12891 -0.90692
vn 0.55282 0.09364 -0.82802
vn 0.39401 -0.32249 -0.86067
vn -0.40090 -0.13586 0.90599
vn -0.38977 0.32577 0.86137
vn -0.55101 -0.10176 0.82827
vn 0.44652 -0.06149 -0.89266
vn -0.44791 0.05421 0.89244
vn 0.62847 0.10117 -0.77123
vn 0.52954 -0.19053 -0.82661
vn -0.53004 0.18970 0.82648
vn -0.62989 -0.10453 0.76962
vn -0.29185 -0.42159 -0.85854
vn 0.28718 0.42643 0.85772
vn -0.31129 -0.30561 -0.89983
vn 0.30784 0.31981 0.89608
vn -0.19507 -0.52154 -0.83063
vn 0.19300 0.52124 0.83130
vn -0.09680 -0.58538 -0.80496
vn 0.09534 0.58539 0.80513
vn -0.00523 -0.50835 -0.86113
vn 0.00474 0.50679 0.86205
vn 0.05287 -0.60769 -0.79241
vn -0.05220 0.60805 0.79218
vn 0.14438 -0.56860 -0.80984
vn -0.14335 0.56914 0.80965
vn 0.24921 -0.49102 -0.83474
vn -0.24681 0.49321 0.83416
vn 0.33992 -0.40682 -0.84791
vn -0.33017 0.41354 0.84851
vn 0.25457 -0.90134 0.35039
vn 0.32477 -0.89989 0.29108
vn 0.38789 -0.90107 0.19392
vn 0.25084 -0.88646 0.38893
vn 0.21430 -0.86971 0.44462
vn 0.20542 -0.83048 0.51779
vn 0.13549 -0.81815 0.55881
vn 0.09772 -0.82088 0.56268
vn 0.01361 -0.84022 0.54207
vn -0.02159 -0.83707 0.54667
vn -0.08974 -0.81405 0.57382
vn -0.12542 -0.80025 0.58641
vn -0.19614 -0.80437 0.56082
vn -0.22724 -0.82729 0.51377
vn -0.27261 -0.83749 0.47360
vn -0.29183 -0.79777 0.52764
vn -0.42710 -0.77577 0.46450
vn -0.30826 -0.76697 0.56278
vn -0.30026 -0.65963 0.68901
s off
f 1/1/1 2/2/2 3/3/3
f 4/1/4 5/3/5 6/2/6
f 3/3/3 7/4/7 1/1/1
f 5/3/5 4/1/4 8/4/8
f 2/2/2 9/5/9 10/6/10
f 6/2/6 11/6/11 12/5/12
f 10/6/10 3/3/3 2/2/2
f 11/6/11 6/2/6 5/3/5
f 9/5/13 13/7/14 14/8/15
f 12/5/16 15/8/17 16/7/18
f 14/8/15 10/6/10 9/5/13
f 15/8/17 12/5/16 11/6/11
f 13/7/14 17/9/19 18/10/20
f 16/7/18 19/10/21 20/9/22
f 18/10/20 14/8/15 13/7/14
f 19/10/21 16/7/18 15/8/17
f 17/9/19 21/11/23 22/12/24
f 20/9/22 23/12/25 24/11/26
f 22/12/24 18/10/20 17/9/19
f 23/12/25 20/9/22 19/10/21
f 21/11/23 25/13/27 26/14/28
f 24/11/26 27/14/29 28/13/30
f 26/14/28 22/12/24 21/11/23
f 27/14/29 24/11/26 23/12/25
f 25/13/31 29/15/32 30/16/33
f 28/13/34 31/16/35 32/15/36
f 30/16/33 26/14/28 25/13/37
f 31/16/35 28/13/38 27/14/29
f 29/15/32 33/17/39 34/18/40
f 32/15/36 35/18/41 36/17/42
f 34/18/40 30/16/33 29/15/32
f 35/18/41 32/15/36 31/16/35
f 7/4/7 3/3/3 37/19/43
f 8/4/8 38/19/44 5/3/5
f 37/19/43 39/20/45 7/4/7
f 38/19/44 8/4/8 40/20/46
f 3/3/3 10/6/10 41/21/47
f 5/3/5 42/21/48 11/6/11
f 41/21/47 37/19/43 3/3/3
f 42/21/48 5/3/5 38/19/44
f 10/6/10 14/8/15 43/22/49
f 11/6/11 44/22/50 15/8/17
f 43/22/49 41/21/47 10/6/10
f 44/22/50 11/6/11 42/21/48
f 14/8/15 18/10/20 45/23/51
f 15/8/17 46/23/52 19/10/21
f 45/23/51 43/22/49 14/8/15
f 46/23/52 15/8/17 44/22/50
f 18/10/20 22/12/24 47/24/53
f 19/10/21 48/24/54 23/12/25
f 47/24/53 45/23/51 18/10/20
f 48/24/54 19/10/21 46/23/52
f 22/12/24 26/14/28 49/25/55
f 23/12/25 50/25/56 27/14/29
f 49/25/55 47/24/53 22/12/24
f 50/25/56 23/12/25 48/24/54
f 26/14/28 30/16/33 51/26/57
f 27/14/29 52/26/58 31/16/35
f 51/26/57 49/25/55 26/14/28
f 52/26/58 27/14/29 50/25/56
f 30/16/33 34/18/40 53/27/59
f 31/16/35 54/27/60 35/18/41
f 53/27/59 51/26/57 30/16/33
f 54/27/60 31/16/35 52/26/58
f 37/28/61 40/29/62 39/30/63
f 37/28/61 38/31/64 40/29/62
f 41/32/65 38/33/64 37/34/61
f 41/32/65 42/35/66 38/33/64
f 43/36/67 42/37/66 41/38/65
f 43/36/67 44/39/68 42/37/66
f 45/40/69 44/41/68 43/42/67
f 45/40/69 46/43/70 44/41/68
f 47/44/71 46/45/70 45/46/69
f 47/44/71 48/47/72 46/45/70
f 49/48/73 48/49/72 47/50/71
f 49/48/73 50/51/74 48/49/72
f 51/52/75 50/53/74 49/54/73
f 51/52/75 52/55/76 50/53/74
f 53/56/77 52/57/76 51/58/75
f 53/56/78 54/59/79 52/57/76
