# Titan_ChestDome: BRZ-01 Titan chest bulge (ChestPlate/ChestLower/ChestSide = main, ChestCrescent = hi), exported from the wedge build (MechConfig.Scale 1.7)
# units: studs, in the "Hatch" bone frame (+Y up, front = -Z); UV: 1 repeat = 4.0 studs (crosshatch largeTile)
# vertices centred on their bounding box: place the MeshPart at bone.CFrame * CFrame.new(0.0000, 2.5224, -0.8768)
o Titan_ChestDome
v -2.43576 1.97064 0.56610
v -2.43576 1.31784 0.20655
v -3.24768 1.04040 0.81600
v -2.33531 1.87609 0.69683
v -3.06011 0.99930 0.89477
v -2.33270 1.25040 0.34996
v -3.24768 0.67320 0.65280
v -3.05908 0.64133 0.73604
v -1.62384 2.29432 0.38760
v -1.62384 1.58576 -0.11220
v -1.55698 1.49891 0.04164
v -1.56610 2.18762 0.53144
v -0.81192 2.46840 0.28050
v -0.81192 1.70017 -0.30345
v -0.77897 1.60163 -0.14571
v -0.78597 2.34980 0.42465
v 0.00000 2.46840 0.24480
v 0.00000 1.73400 -0.36720
v -0.00354 1.63088 -0.20846
v -0.00502 2.34865 0.38959
v 0.81192 2.46840 0.28050
v 0.81192 1.70017 -0.30345
v 0.77667 1.60152 -0.14487
v 0.78401 2.35354 0.42772
v 1.62384 2.29432 0.38760
v 1.62384 1.58576 -0.11220
v 1.55329 1.50086 0.04297
v 1.55901 2.19107 0.53204
v 2.43576 1.97064 0.56610
v 2.43576 1.31784 0.20655
v 2.33535 1.25145 0.35465
v 2.33831 1.88345 0.70466
v 3.24768 1.04040 0.81600
v 3.24768 0.67320 0.65280
v 3.06001 0.67397 0.75380
v 3.06007 1.00213 0.90211
v -2.41740 0.32640 -0.13005
v -2.32248 0.32466 0.03973
v -3.22320 0.10200 0.53040
v -3.03747 0.12964 0.62765
v -1.61160 0.47175 -0.60180
v -1.54778 0.46616 -0.41178
v -0.80580 0.55802 -0.88485
v -0.77521 0.54886 -0.68177
v -0.00000 0.59160 -0.97920
v -0.00146 0.57948 -0.77207
v 0.80580 0.55802 -0.88485
v 0.77268 0.54447 -0.68250
v 1.61160 0.47175 -0.60180
v 1.54553 0.45799 -0.41327
v 2.41740 0.32640 -0.13005
v 2.32108 0.31319 0.03800
v 3.22320 0.10200 0.53040
v 3.03457 0.10193 0.62424
v -1.99920 -1.12200 0.24480
v -1.49940 -1.08202 0.11985
v -1.49940 -2.44759 0.70380
v -1.96714 -1.05079 0.41553
v -1.47091 -2.37494 0.87463
v -1.47110 -1.00882 0.29048
v -1.99920 -2.42760 0.77520
v -1.97183 -2.35772 0.94722
v -0.99960 -1.04203 0.03060
v -0.99960 -2.46758 0.65280
v -0.98177 -2.39303 0.82421
v -0.98222 -0.96701 0.20185
v -0.49980 -1.02042 -0.02295
v -0.49980 -2.46840 0.62220
v -0.49036 -2.39237 0.79360
v -0.49164 -0.94413 0.14842
v -0.00000 -0.99960 -0.04080
v -0.00000 -2.46840 0.61200
v 0.00069 -2.39211 0.78351
v 0.00111 -0.90219 0.12131
v 0.49980 -1.02043 -0.02295
v 0.49980 -2.46840 0.62220
v 0.49377 -2.39209 0.79360
v 0.49059 -0.94461 0.14856
v 0.99960 -1.04203 0.03060
v 0.99960 -2.46758 0.65280
v 0.98416 -2.39225 0.82405
v 0.97962 -0.96783 0.20187
v 1.49940 -1.08202 0.11985
v 1.49940 -2.44759 0.70380
v 1.47538 -2.37392 0.87476
v 1.46892 -1.01046 0.29075
v 1.99920 -1.12200 0.24480
v 1.99920 -2.42760 0.77520
v 1.96705 -2.35639 0.94592
v 1.96213 -1.05275 0.41525
v 3.24768 0.67320 0.97920
v 3.06000 0.67727 0.97920
v 3.24768 1.04040 0.97920
v 3.06000 1.04040 0.97920
v 3.22320 0.10200 0.97920
v 3.03606 0.11862 0.97920
v 3.10080 -0.79560 0.97920
v 3.10080 -0.79560 0.53040
v 2.92634 -0.72070 0.63179
v 2.91890 -0.74001 0.97920
v 2.85600 -1.28520 0.97920
v 2.85600 -1.28520 0.61200
v 2.72549 -1.12733 0.70627
v 2.68813 -1.20127 0.97920
v -3.24768 0.67320 0.97920
v -3.06000 0.67727 0.97920
v -3.24768 1.04040 0.97920
v -3.06000 1.04040 0.97920
v -3.22320 0.10200 0.97920
v -3.03606 0.11862 0.97920
v -3.10080 -0.79560 0.53040
v -3.10080 -0.79560 0.97920
v -2.91890 -0.74001 0.97920
v -2.92716 -0.71897 0.64431
v -2.85600 -1.28520 0.61200
v -2.85600 -1.28520 0.97920
v -2.68813 -1.20127 0.97920
v -2.69624 -1.18541 0.73145
vt 0.66604 2.16430
vt 0.63380 1.97769
vt 0.89643 1.91997
vt 0.87483 1.82053
vt 0.44328 2.25485
vt 0.41300 2.04011
vt 0.22083 2.30465
vt 0.20366 2.06592
vt -0.00176 2.30944
vt -0.00033 2.07328
vt -0.22496 2.30285
vt -0.20401 2.06515
vt -0.44659 2.25119
vt -0.41309 2.03835
vt -0.66692 2.15978
vt -0.63350 1.97571
vt -0.89324 1.91904
vt -0.87572 1.81982
vt 0.60209 1.71472
vt 0.85638 1.67304
vt 0.38146 1.73882
vt 0.18495 1.75238
vt 0.00097 1.75806
vt -0.18336 1.75299
vt -0.38061 1.73956
vt -0.60249 1.71537
vt -0.85934 1.67419
vt 0.50402 1.34723
vt 0.37672 1.36918
vt 0.37534 0.99788
vt 0.50162 0.99494
vt 0.25074 1.38762
vt 0.24964 0.99877
vt 0.12541 1.39830
vt 0.12450 1.00200
vt 0.00046 1.40516
vt -0.00047 1.00332
vt -0.12452 1.39888
vt -0.12545 1.00258
vt -0.24989 1.38880
vt -0.25060 0.99994
vt -0.37596 1.37095
vt -0.37630 0.99965
vt -0.50337 1.34965
vt -0.50260 0.99735
vt -0.95494 1.82915
vt -0.93416 1.92531
vt -0.96946 1.67209
vt -0.94667 1.42888
vt -0.83775 1.44718
vt -0.90261 1.28858
vt -0.80934 1.31174
vt 0.95454 1.82824
vt 0.93751 1.92479
vt 0.96673 1.67178
vt 0.83781 1.44711
vt 0.94705 1.43066
vt 0.81249 1.31479
vt 0.90584 1.29162
vt 0.89643 1.91997
vt 0.70018 2.19649
vt 0.66604 2.16430
vt 0.93057 1.95216
vt 0.66604 2.16430
vt 0.46095 2.29831
vt 0.44328 2.25485
vt 0.68371 2.20777
vt 0.44328 2.25485
vt 0.23108 2.35044
vt 0.22083 2.30465
vt 0.45353 2.30063
vt 0.22083 2.30465
vt -0.00075 2.35635
vt -0.00176 2.30944
vt 0.22184 2.35156
vt -0.00176 2.30944
vt -0.22634 2.34975
vt -0.22496 2.30285
vt -0.00314 2.35634
vt -0.22496 2.30285
vt -0.45724 2.29689
vt -0.44659 2.25119
vt -0.23561 2.34855
vt -0.44659 2.25119
vt -0.68490 2.20312
vt -0.66692 2.15978
vt -0.46457 2.29453
vt -0.66692 2.15978
vt -0.92743 1.95118
vt -0.89324 1.91904
vt -0.70110 2.19192
vt 0.50402 1.34723
vt 0.38469 1.41542
vt 0.37672 1.36918
vt 0.51199 1.39347
vt 0.37534 0.99788
vt 0.50052 0.94803
vt 0.50162 0.99494
vt 0.37424 0.95098
vt 0.50162 0.99494
vt 0.55094 1.34691
vt 0.50402 1.34723
vt 0.54854 0.99462
vt 0.37672 1.36918
vt 0.25754 1.43405
vt 0.25074 1.38762
vt 0.38351 1.41561
vt 0.24964 0.99877
vt 0.37500 0.95097
vt 0.37534 0.99788
vt 0.24931 0.95185
vt 0.25074 1.38762
vt 0.12939 1.44505
vt 0.12541 1.39830
vt 0.25472 1.43437
vt 0.12450 1.00200
vt 0.24843 0.95187
vt 0.24964 0.99877
vt 0.12329 0.95509
vt 0.12541 1.39830
vt 0.00303 1.45201
vt 0.00046 1.40516
vt 0.12798 1.44515
vt -0.00047 1.00332
vt 0.12400 0.95508
vt 0.12450 1.00200
vt -0.00097 0.95641
vt 0.00046 1.40516
vt -0.12687 1.44574
vt -0.12452 1.39888
vt -0.00189 1.45202
vt -0.12545 1.00258
vt -0.00019 0.95640
vt -0.00047 1.00332
vt -0.12517 0.95566
vt -0.12452 1.39888
vt -0.25365 1.43557
vt -0.24989 1.38880
vt -0.12828 1.44565
vt -0.25060 0.99994
vt -0.12446 0.95567
vt -0.12545 1.00258
vt -0.24961 0.95303
vt -0.24989 1.38880
vt -0.38253 1.41741
vt -0.37596 1.37095
vt -0.25647 1.43526
vt -0.37630 0.99965
vt -0.25049 0.95302
vt -0.25060 0.99994
vt -0.37619 0.95273
vt -0.37596 1.37095
vt -0.51111 1.39593
vt -0.50337 1.34965
vt -0.38369 1.41723
vt -0.50337 1.34965
vt -0.54952 0.99724
vt -0.50260 0.99735
vt -0.55029 1.34955
vt -0.50260 0.99735
vt -0.37544 0.95274
vt -0.37630 0.99965
vt -0.50174 0.95043
vt -0.89324 1.91904
vt -0.92706 1.97169
vt -0.93416 1.92531
vt -0.88614 1.96542
vt -0.93416 1.92531
vt -1.00080 1.83905
vt -0.95494 1.82915
vt -0.98002 1.93522
vt -0.95494 1.82915
vt -1.01618 1.67641
vt -0.96946 1.67209
vt -1.00166 1.83347
vt -0.96946 1.67209
vt -0.99338 1.42451
vt -0.94667 1.42888
vt -1.01618 1.66771
vt -0.90261 1.28858
vt -0.79803 1.26620
vt -0.80934 1.31174
vt -0.89131 1.24304
vt -0.94667 1.42888
vt -0.94738 1.27452
vt -0.90261 1.28858
vt -0.99143 1.41483
vt 0.95454 1.82824
vt 0.98372 1.93294
vt 0.93751 1.92479
vt 1.00075 1.83639
vt 0.93751 1.92479
vt 0.89096 1.96657
vt 0.89643 1.91997
vt 0.93204 1.97139
vt 0.96673 1.67178
vt 1.00132 1.83189
vt 0.95454 1.82824
vt 1.01351 1.67543
vt 0.94705 1.43066
vt 1.01350 1.66796
vt 0.96673 1.67178
vt 0.99381 1.42684
vt 0.81249 1.31479
vt 0.89454 1.24608
vt 0.90584 1.29162
vt 0.80118 1.26926
vt 0.90584 1.29162
vt 0.99203 1.41732
vt 0.94705 1.43066
vt 0.95083 1.27829
vn -0.49545 0.44973 -0.74315
vn -0.54406 0.32596 -0.77314
vn -0.63586 0.35201 -0.68685
vn 0.49163 -0.45165 0.74452
vn 0.63594 -0.35094 0.68733
vn 0.54169 -0.32758 0.77412
vn -0.62802 0.22614 -0.74461
vn 0.62735 -0.22808 0.74459
vn -0.29036 0.56149 -0.77487
vn -0.35716 0.44018 -0.82382
vn 0.35690 -0.44200 0.82296
vn 0.28965 -0.56167 0.77500
vn -0.11821 0.61256 -0.78153
vn -0.17412 0.51072 -0.84193
vn 0.17445 -0.51288 0.84055
vn 0.11796 -0.61270 0.78146
vn 0.02942 0.62830 -0.77741
vn 0.01833 0.53776 -0.84290
vn -0.01813 -0.54026 0.84130
vn -0.02930 -0.62833 0.77740
vn 0.17519 0.58709 -0.79033
vn 0.19070 0.50773 -0.84015
vn -0.18898 -0.51015 0.83907
vn -0.17354 -0.58728 0.79056
vn 0.35178 0.51379 -0.78248
vn 0.37447 0.43576 -0.81846
vn -0.37387 -0.43724 0.81795
vn -0.35145 -0.51392 0.78254
vn 0.54556 0.39098 -0.74128
vn 0.53738 0.33344 -0.77462
vn -0.53465 -0.33707 0.77494
vn -0.54099 -0.39435 0.74285
vn 0.59825 0.32544 -0.73225
vn 0.61671 0.28742 -0.73284
vn -0.61878 -0.28777 0.73096
vn -0.60103 -0.32904 0.72835
vn -0.55506 0.01307 -0.83171
vn 0.55250 -0.01331 0.83341
vn -0.58947 -0.06740 -0.80498
vn 0.59101 0.07417 0.80325
vn -0.45171 0.21739 -0.86527
vn 0.45058 -0.22120 0.86490
vn -0.41238 0.07222 -0.90815
vn 0.41298 -0.07890 0.90732
vn -0.24455 0.42247 -0.87276
vn 0.24398 -0.42282 0.87275
vn -0.02954 0.46574 -0.88443
vn 0.02896 -0.46600 0.88431
vn 0.18727 0.45113 -0.87259
vn -0.18757 -0.45122 0.87248
vn 0.40959 0.27987 -0.86828
vn -0.40863 -0.28235 0.86793
vn 0.55282 0.09364 -0.82802
vn -0.55101 -0.10176 0.82827
vn 0.41199 0.19464 -0.89016
vn -0.41163 -0.19968 0.88921
vn 0.62847 0.10117 -0.77123
vn -0.62989 -0.10453 0.76962
vn -0.17103 -0.37934 -0.90931
vn -0.14477 -0.39137 -0.90878
vn -0.15015 -0.38339 -0.91130
vn 0.17086 0.37931 0.90936
vn 0.15022 0.38332 0.91132
vn 0.14506 0.39134 0.90874
vn -0.14583 -0.37235 -0.91656
vn 0.14564 0.37237 0.91659
vn -0.08915 -0.40077 -0.91183
vn -0.09869 -0.39587 -0.91299
vn 0.09856 0.39588 0.91300
vn 0.08919 0.40078 0.91182
vn -0.03808 -0.40640 -0.91290
vn -0.05179 -0.40415 -0.91322
vn 0.05177 0.40414 0.91323
vn 0.03798 0.40640 0.91291
vn -0.00523 -0.50835 -0.86113
vn -0.00517 -0.40641 -0.91368
vn 0.00504 0.40640 0.91368
vn 0.00474 0.50679 0.86205
vn 0.05080 -0.40417 -0.91327
vn 0.03023 -0.40651 -0.91314
vn -0.03017 0.40651 0.91315
vn -0.05077 0.40418 0.91327
vn 0.10673 -0.39554 -0.91223
vn 0.08190 -0.40102 -0.91240
vn -0.08193 0.40101 0.91240
vn -0.10674 0.39555 0.91222
vn 0.15773 -0.38293 -0.91021
vn 0.12839 -0.39226 -0.91085
vn -0.12841 0.39224 0.91085
vn -0.15786 0.38290 0.91020
vn 0.19754 -0.36896 -0.90821
vn 0.17103 -0.37934 -0.90931
vn -0.17112 0.37931 0.90931
vn -0.19762 0.36895 0.90820
vn 0.99943 -0.03371 -0.00000
vn 1.00000 -0.00000 -0.00000
vn 0.99976 -0.02181 -0.00000
vn -0.99937 0.03557 0.00084
vn -0.99972 0.02379 -0.00049
vn -1.00000 0.00014 -0.00027
vn -1.00000 -0.00000 -0.00088
vn 0.99620 -0.08707 0.00000
vn 0.99359 -0.11306 0.00000
vn -0.99386 0.11048 -0.00538
vn -0.99612 0.08804 -0.00054
vn 0.97780 -0.20953 0.00000
vn 0.95313 -0.30255 0.00000
vn -0.95571 0.29424 -0.00578
vn -0.97820 0.20759 -0.00479
vn 0.89443 -0.44721 0.00000
vn -0.89680 0.44243 -0.00288
vn -0.89530 0.44545 0.00232
vn -0.99943 -0.03371 -0.00000
vn -0.99976 -0.02181 -0.00000
vn -1.00000 -0.00000 -0.00000
vn 0.99941 0.03432 -0.00135
vn 1.00000 0.00093 0.00225
vn 0.99971 0.02391 -0.00038
vn 1.00000 -0.00000 -0.00132
vn -0.99359 -0.11306 -0.00000
vn -0.99620 -0.08707 -0.00000
vn 0.99611 0.08815 -0.00121
vn 0.99378 0.11112 -0.00660
vn -0.95313 -0.30255 0.00000
vn -0.97780 -0.20953 -0.00000
vn 0.97869 0.20531 -0.00471
vn 0.95547 0.29502 -0.00650
vn -0.89443 -0.44721 0.00000
vn 0.89514 0.44578 0.00310
vn 0.89625 0.44354 -0.00092
vn -0.34768 0.49329 0.79736
vn -0.30221 0.56275 0.76941
vn -0.27145 0.67691 0.68419
vn -0.27163 0.42003 0.86590
vn -0.13550 0.76141 0.63396
vn -0.10919 0.76947 0.62928
vn -0.04408 0.77507 0.63034
vn -0.00833 0.76992 0.63809
vn 0.00743 0.77200 0.63558
vn -0.01125 0.77751 0.62877
vn 0.00569 0.78119 0.62427
vn 0.04774 0.78785 0.61401
vn 0.11232 0.77893 0.61696
vn 0.14393 0.77716 0.61262
vn 0.29937 0.69425 0.65451
vn 0.33019 0.59020 0.73664
vn 0.38094 0.51254 0.76954
vn 0.28586 0.47333 0.83321
vn -0.16576 0.91842 -0.35919
vn -0.15915 0.91826 -0.36260
vn -0.15075 0.91531 -0.37346
vn -0.16682 0.92075 -0.35268
vn 0.01467 -0.92310 0.38428
vn 0.02043 -0.92437 0.38095
vn 0.01635 -0.92725 0.37409
vn 0.01164 -0.91978 0.39227
vn -0.98739 0.06114 0.14603
vn -0.98531 0.06427 0.15821
vn -0.98930 0.05800 0.13384
vn -0.12452 0.91551 -0.38255
vn -0.10353 0.91354 -0.39336
vn 0.01101 -0.91849 0.39529
vn 0.01880 -0.91645 0.39971
vn -0.08915 0.91284 -0.39848
vn -0.07872 0.89451 -0.44006
vn 0.01913 -0.91544 0.40201
vn 0.01447 -0.91411 0.40522
vn -0.01733 0.87777 -0.47877
vn 0.03330 0.87774 -0.47797
vn 0.00290 -0.91388 0.40597
vn -0.00263 -0.91368 0.40643
vn 0.08063 0.89506 -0.43859
vn 0.07347 0.91523 -0.39618
vn -0.01334 -0.91365 0.40628
vn -0.01895 -0.91440 0.40437
vn 0.10556 0.91531 -0.38867
vn 0.12270 0.91839 -0.37617
vn -0.01759 -0.91503 0.40300
vn -0.01197 -0.91672 0.39935
vn 0.15176 0.91859 -0.36492
vn 0.15547 0.92275 -0.35265
vn -0.01016 -0.91781 0.39690
vn -0.01609 -0.92072 0.38989
vn 0.16396 0.92295 -0.34826
vn 0.15949 0.92622 -0.34159
vn 0.98285 0.07106 0.17017
vn 0.98523 0.06446 0.15866
vn 0.98029 0.07765 0.18167
vn -0.02082 -0.92169 0.38738
vn -0.02224 -0.92419 0.38128
vn -0.13553 0.97844 -0.15584
vn -0.00000 1.00000 0.00002
vn -0.36080 0.83527 -0.41491
vn 0.00000 0.00000 1.00000
vn -0.64817 -0.75123 -0.12459
vn -0.49033 -0.81765 0.30170
vn -0.42794 -0.85587 -0.29043
vn 0.14100 0.97664 -0.16214
vn 0.21402 0.97683 0.00000
vn -0.00000 0.89914 -0.43767
vn 0.38789 -0.90107 0.19392
vn 0.49690 -0.86732 -0.02891
vn 0.44721 -0.89443 0.00000
vn 0.32477 -0.89989 0.29108
s off
f 1/1/1 2/2/2 3/3/3
f 4/1/4 5/3/5 6/2/6
f 2/2/2 7/4/7 3/3/3
f 6/2/6 5/3/5 8/4/8
f 1/1/1 9/5/9 10/6/10
f 4/1/4 11/6/11 12/5/12
f 10/6/10 2/2/2 1/1/1
f 11/6/11 4/1/4 6/2/6
f 9/5/9 13/7/13 14/8/14
f 12/5/12 15/8/15 16/7/16
f 14/8/14 10/6/10 9/5/9
f 15/8/15 12/5/12 11/6/11
f 13/7/13 17/9/17 18/10/18
f 16/7/16 19/10/19 20/9/20
f 18/10/18 14/8/14 13/7/13
f 19/10/19 16/7/16 15/8/15
f 17/9/17 21/11/21 22/12/22
f 20/9/20 23/12/23 24/11/24
f 22/12/22 18/10/18 17/9/17
f 23/12/23 20/9/20 19/10/19
f 21/11/21 25/13/25 26/14/26
f 24/11/24 27/14/27 28/13/28
f 26/14/26 22/12/22 21/11/21
f 27/14/27 24/11/24 23/12/23
f 25/13/25 29/15/29 30/16/30
f 28/13/28 31/16/31 32/15/32
f 30/16/30 26/14/26 25/13/25
f 31/16/31 28/13/28 27/14/27
f 29/15/29 33/17/33 34/18/34
f 32/15/32 35/18/35 36/17/36
f 34/18/34 30/16/30 29/15/29
f 35/18/35 32/15/32 31/16/31
f 7/4/7 2/2/2 37/19/37
f 8/4/8 38/19/38 6/2/6
f 37/19/37 39/20/39 7/4/7
f 38/19/38 8/4/8 40/20/40
f 2/2/2 10/6/10 41/21/41
f 6/2/6 42/21/42 11/6/11
f 41/21/43 37/19/37 2/2/2
f 42/21/44 6/2/6 38/19/38
f 10/6/10 14/8/14 43/22/45
f 11/6/11 44/22/46 15/8/15
f 43/22/45 41/21/41 10/6/10
f 44/22/46 11/6/11 42/21/42
f 14/8/14 18/10/18 45/23/47
f 15/8/15 46/23/48 19/10/19
f 45/23/47 43/22/45 14/8/14
f 46/23/48 15/8/15 44/22/46
f 18/10/18 22/12/22 47/24/49
f 19/10/19 48/24/50 23/12/23
f 47/24/49 45/23/47 18/10/18
f 48/24/50 19/10/19 46/23/48
f 22/12/22 26/14/26 49/25/51
f 23/12/23 50/25/52 27/14/27
f 49/25/51 47/24/49 22/12/22
f 50/25/52 23/12/23 48/24/50
f 26/14/26 30/16/30 51/26/53
f 27/14/27 52/26/54 31/16/31
f 51/26/53 49/25/55 26/14/26
f 52/26/54 27/14/27 50/25/56
f 30/16/30 34/18/34 53/27/57
f 31/16/31 54/27/58 35/18/35
f 53/27/57 51/26/53 30/16/30
f 54/27/58 31/16/31 52/26/54
f 55/28/59 56/29/60 57/30/61
f 58/28/62 59/30/63 60/29/64
f 57/30/61 61/31/65 55/28/59
f 59/30/63 58/28/62 62/31/66
f 56/29/60 63/32/67 64/33/68
f 60/29/64 65/33/69 66/32/70
f 64/33/68 57/30/61 56/29/60
f 65/33/69 60/29/64 59/30/63
f 63/32/67 67/34/71 68/35/72
f 66/32/70 69/35/73 70/34/74
f 68/35/72 64/33/68 63/32/67
f 69/35/73 66/32/70 65/33/69
f 67/34/71 71/36/75 72/37/76
f 70/34/74 73/37/77 74/36/78
f 72/37/76 68/35/72 67/34/71
f 73/37/77 70/34/74 69/35/73
f 71/36/75 75/38/79 76/39/80
f 74/36/78 77/39/81 78/38/82
f 76/39/80 72/37/76 71/36/75
f 77/39/81 74/36/78 73/37/77
f 75/38/79 79/40/83 80/41/84
f 78/38/82 81/41/85 82/40/86
f 80/41/84 76/39/80 75/38/79
f 81/41/85 78/38/82 77/39/81
f 79/40/83 83/42/87 84/43/88
f 82/40/86 85/43/89 86/42/90
f 84/43/88 80/41/84 79/40/83
f 85/43/89 82/40/86 81/41/85
f 83/42/87 87/44/91 88/45/92
f 86/42/90 89/45/93 90/44/94
f 88/45/92 84/43/88 83/42/87
f 89/45/93 86/42/90 85/43/89
f 34/18/95 33/17/96 91/46/97
f 35/18/98 92/46/99 36/17/100
f 91/46/97 33/17/96 93/47/96
f 92/46/99 94/47/101 36/17/100
f 34/18/95 95/48/102 53/27/103
f 35/18/98 54/27/104 96/48/105
f 95/48/102 34/18/95 91/46/97
f 96/48/105 92/46/99 35/18/98
f 53/27/103 97/49/106 98/50/107
f 54/27/104 99/50/108 100/49/109
f 97/49/106 53/27/103 95/48/102
f 100/49/109 96/48/105 54/27/104
f 98/50/107 101/51/110 102/52/110
f 99/50/108 103/52/111 104/51/112
f 101/51/110 98/50/107 97/49/106
f 104/51/112 100/49/109 99/50/108
f 7/4/113 105/53/114 3/3/115
f 8/4/116 5/3/117 106/53/118
f 105/53/114 107/54/115 3/3/115
f 106/53/118 5/3/117 108/54/119
f 7/4/113 39/20/120 109/55/121
f 8/4/116 110/55/122 40/20/123
f 109/55/121 105/53/114 7/4/113
f 110/55/122 8/4/116 106/53/118
f 39/20/120 111/56/124 112/57/125
f 40/20/123 113/57/126 114/56/127
f 112/57/125 109/55/121 39/20/120
f 113/57/126 40/20/123 110/55/122
f 111/56/124 115/58/128 116/59/128
f 114/56/127 117/59/129 118/58/130
f 116/59/128 112/57/125 111/56/124
f 117/59/129 114/56/127 113/57/126
f 3/60/131 4/61/132 1/62/133
f 3/60/131 5/63/134 4/61/132
f 1/64/133 12/65/135 9/66/136
f 1/64/133 4/67/132 12/65/135
f 9/68/136 16/69/137 13/70/138
f 9/68/136 12/71/135 16/69/137
f 13/72/138 20/73/139 17/74/140
f 13/72/138 16/75/137 20/73/139
f 17/76/140 24/77/141 21/78/142
f 17/76/140 20/79/139 24/77/141
f 21/80/142 28/81/143 25/82/144
f 21/80/142 24/83/141 28/81/143
f 25/84/144 32/85/145 29/86/146
f 25/84/144 28/87/143 32/85/145
f 29/88/146 36/89/147 33/90/148
f 29/88/146 32/91/145 36/89/147
f 55/92/149 60/93/150 56/94/151
f 55/92/149 58/95/152 60/93/150
f 57/96/153 62/97/154 61/98/155
f 57/96/153 59/99/156 62/97/154
f 61/100/157 58/101/157 55/102/158
f 61/100/157 62/103/159 58/101/157
f 56/104/151 66/105/160 63/106/161
f 56/104/151 60/107/150 66/105/160
f 64/108/162 59/109/156 57/110/153
f 64/108/162 65/111/163 59/109/156
f 63/112/161 70/113/164 67/114/165
f 63/112/161 66/115/160 70/113/164
f 68/116/166 65/117/163 64/118/162
f 68/116/166 69/119/167 65/117/163
f 67/120/165 74/121/168 71/122/169
f 67/120/165 70/123/164 74/121/168
f 72/124/170 69/125/167 68/126/166
f 72/124/170 73/127/171 69/125/167
f 71/128/169 78/129/172 75/130/173
f 71/128/169 74/131/168 78/129/172
f 76/132/174 73/133/171 72/134/170
f 76/132/174 77/135/175 73/133/171
f 75/136/173 82/137/176 79/138/177
f 75/136/173 78/139/172 82/137/176
f 80/140/178 77/141/175 76/142/174
f 80/140/178 81/143/179 77/141/175
f 79/144/177 86/145/180 83/146/181
f 79/144/177 82/147/176 86/145/180
f 84/148/182 81/149/179 80/150/178
f 84/148/182 85/151/183 81/149/179
f 83/152/181 90/153/184 87/154/185
f 83/152/181 86/155/180 90/153/184
f 87/156/186 89/157/186 88/158/187
f 87/156/186 90/159/188 89/157/186
f 88/160/189 85/161/183 84/162/182
f 88/160/189 89/163/190 85/161/183
f 33/164/191 94/165/191 93/166/192
f 33/164/191 36/167/193 94/165/191
f 93/168/194 92/169/194 91/170/194
f 93/168/194 94/171/194 92/169/194
f 91/172/194 96/173/194 95/174/194
f 91/172/194 92/175/194 96/173/194
f 95/176/194 100/177/194 97/178/194
f 95/176/194 96/179/194 100/177/194
f 101/180/195 103/181/195 102/182/196
f 101/180/195 104/183/197 103/181/195
f 97/184/194 104/185/194 101/186/194
f 97/184/194 100/187/194 104/185/194
f 105/188/194 108/189/194 107/190/194
f 105/188/194 106/191/194 108/189/194
f 107/192/198 5/193/198 3/194/199
f 107/192/198 108/195/200 5/193/198
f 109/196/194 106/197/194 105/198/194
f 109/196/194 110/199/194 106/197/194
f 112/200/194 110/201/194 109/202/194
f 112/200/194 113/203/194 110/201/194
f 115/204/201 117/205/202 116/206/203
f 115/204/201 118/207/204 117/205/202
f 116/208/194 113/209/194 112/210/194
f 116/208/194 117/211/194 113/209/194
