# Titan_HelmetCap: BRZ-01 Titan helmet end caps (HelmetCap), exported from the wedge build (MechConfig.Scale 1.7)
# units: studs, in the "Head" bone frame (+Y up, front = -Z); UV: 1 repeat = 4.0 studs (crosshatch largeTile)
# vertices centred on their bounding box: place the MeshPart at bone.CFrame * CFrame.new(-0.0000, 0.9588, 0.0082)
o Titan_HelmetCap
v -1.07712 -0.51000 1.68912
v -0.88128 -0.42840 1.68912
v -1.07712 -0.45390 1.68912
v -1.07712 -0.51000 1.57488
v -1.07712 -0.45390 1.57488
v -0.88128 -0.42840 1.57488
v 0.88128 -0.42840 1.68912
v 0.88128 -0.42840 1.57488
v 1.07712 -0.45390 1.68912
v 1.07712 -0.45390 1.57488
v 1.07712 -0.51000 1.68912
v 1.07712 -0.51000 1.57488
v -1.07712 0.06120 -1.68912
v -1.07712 0.19125 -1.68912
v -0.88128 0.51000 -1.68912
v -1.07712 0.06120 -1.57488
v -0.88128 0.51000 -1.57488
v -1.07712 0.19125 -1.57488
v 0.88128 0.51000 -1.68912
v 0.88128 0.51000 -1.57488
v 1.07712 0.19125 -1.68912
v 1.07712 0.19125 -1.57488
v 1.07712 0.06120 -1.68912
v 1.07712 0.06120 -1.57488
vt -0.26928 1.11220
vt -0.22032 1.13260
vt -0.26928 1.12623
vt 0.22032 1.13260
vt 0.26928 1.12622
vt 0.26928 1.11220
vt 0.26928 1.25500
vt 0.26928 1.28751
vt 0.22032 1.36720
vt -0.22032 1.36720
vt -0.26928 1.28751
vt -0.26928 1.25500
vt -0.22032 1.13260
vt -0.27297 1.15455
vt -0.26928 1.12623
vt -0.22401 1.16092
vt -0.26928 1.12623
vt -0.29784 1.11220
vt -0.26928 1.11220
vt -0.29784 1.12623
vt 0.22032 1.13260
vt -0.22032 1.16116
vt -0.22032 1.13260
vt 0.22032 1.16116
vt 0.26928 1.12622
vt 0.22401 1.16092
vt 0.22032 1.13260
vt 0.27297 1.15455
vt -0.26928 1.11220
vt 0.26928 1.08364
vt 0.26928 1.11220
vt -0.26928 1.08364
vt 0.26928 1.11220
vt 0.29784 1.12622
vt 0.26928 1.12622
vt 0.29784 1.11220
vt 0.26928 1.25500
vt 0.29784 1.28751
vt 0.26928 1.28751
vt 0.29784 1.25500
vt 0.26928 1.28751
vt 0.24465 1.38215
vt 0.22032 1.36720
vt 0.29361 1.30246
vt 0.22032 1.36720
vt -0.22032 1.39576
vt -0.22032 1.36720
vt 0.22032 1.39576
vt -0.22032 1.36720
vt -0.29361 1.30246
vt -0.26928 1.28751
vt -0.24465 1.38215
vt -0.26928 1.28751
vt -0.29784 1.25500
vt -0.26928 1.25500
vt -0.29784 1.28751
vt -0.26928 1.25500
vt 0.26928 1.22644
vt 0.26928 1.25500
vt -0.26928 1.22644
vn 0.00000 -0.00000 1.00000
vn -0.00000 0.00000 -1.00000
vn -0.02367 0.99972 0.00000
vn -0.12911 0.99163 0.00000
vn -0.00685 0.99998 0.00000
vn -1.00000 -0.00000 0.00000
vn 0.00685 0.99998 0.00000
vn 0.02367 0.99972 0.00000
vn 0.12912 0.99163 0.00000
vn 0.00000 -1.00000 -0.00000
vn 1.00000 0.00000 -0.00000
vn -0.94726 0.32048 -0.00000
vn -0.89073 0.45454 -0.00000
vn -0.85203 0.52349 -0.00000
vn 0.00000 1.00000 0.00000
vn 0.85203 0.52349 0.00000
vn 0.89073 0.45454 0.00000
vn 0.94726 0.32048 0.00000
s off
f 1/1/1 2/2/1 3/3/1
f 4/1/2 5/3/2 6/2/2
f 1/1/1 7/4/1 2/2/1
f 4/1/2 6/2/2 8/4/2
f 1/1/1 9/5/1 7/4/1
f 4/1/2 8/4/2 10/5/2
f 9/5/1 1/1/1 11/6/1
f 10/5/2 12/6/2 4/1/2
f 13/7/2 14/8/2 15/9/2
f 16/7/1 17/9/1 18/8/1
f 13/7/2 15/9/2 19/10/2
f 16/7/1 20/10/1 17/9/1
f 13/7/2 19/10/2 21/11/2
f 16/7/1 22/11/1 20/10/1
f 21/11/2 23/12/2 13/7/2
f 22/11/1 16/7/1 24/12/1
f 2/13/3 5/14/4 3/15/4
f 2/13/3 6/16/5 5/14/4
f 3/17/6 4/18/6 1/19/6
f 3/17/6 5/20/6 4/18/6
f 7/21/7 6/22/5 2/23/3
f 7/21/7 8/24/8 6/22/5
f 9/25/9 8/26/8 7/27/7
f 9/25/9 10/28/9 8/26/8
f 1/29/10 12/30/10 11/31/10
f 1/29/10 4/32/10 12/30/10
f 11/33/11 10/34/11 9/35/11
f 11/33/11 12/36/11 10/34/11
f 13/37/6 18/38/12 14/39/13
f 13/37/6 16/40/6 18/38/12
f 14/41/13 17/42/14 15/43/14
f 14/41/13 18/44/12 17/42/14
f 15/45/15 20/46/15 19/47/15
f 15/45/15 17/48/15 20/46/15
f 19/49/16 22/50/17 21/51/18
f 19/49/16 20/52/16 22/50/17
f 21/53/18 24/54/11 23/55/11
f 21/53/18 22/56/17 24/54/11
f 23/57/10 16/58/10 13/59/10
f 23/57/10 24/60/10 16/58/10
