# mech2 legs - Leg_L_Foot_Gold.obj  (generated by source/build.py; do not edit by hand)
# frame: Leg_L hip-joint centre = origin, studs, +Y up, -Z forward
# segment: Foot  colour: Gold RGB (212, 169, 58)  pieces: toe_tip, heel
# bbox centre in leg frame: [-0.5059, -7.7389, -0.1346]  size: [1.6973, 1.4427, 3.3864]
# segment pivot (Ankle) in leg frame: [-0.5059, -7.548, 0.1632]
o Leg_L_Foot_Gold
v -0.50592 -7.54800 -0.39168
v -1.27296 -7.54800 -0.39168
v -1.35456 -7.54800 -0.31008
v -1.35456 -7.54800 -0.23664
v -1.30560 -7.54800 -0.18768
v -0.50592 -7.54800 -0.18768
v 0.29376 -7.54800 -0.18768
v 0.34272 -7.54800 -0.23664
v 0.34272 -7.54800 -0.31008
v 0.26112 -7.54800 -0.39168
v -0.50592 -7.85808 -0.72796
v -1.27296 -7.85808 -0.72796
v -1.35456 -7.85808 -0.64636
v -1.35456 -7.85808 -0.21216
v -1.30560 -7.85808 -0.16320
v -0.50592 -7.85808 -0.16320
v 0.29376 -7.85808 -0.16320
v 0.34272 -7.85808 -0.21216
v 0.34272 -7.85808 -0.64636
v 0.26112 -7.85808 -0.72796
v -0.50592 -8.12736 -1.02000
v -1.27296 -8.12736 -1.02000
v -1.35456 -8.12736 -0.93840
v -1.35456 -8.12736 -0.44203
v -1.30560 -8.12736 -0.39307
v -0.50592 -8.12736 -0.39307
v 0.29376 -8.12736 -0.39307
v 0.34272 -8.12736 -0.44203
v 0.34272 -8.12736 -0.93840
v 0.26112 -8.12736 -1.02000
v -0.50592 -8.16000 -1.62384
v -1.27296 -8.16000 -1.62384
v -1.35456 -8.16000 -1.54224
v -1.35456 -8.16000 -0.46990
v -1.30560 -8.16000 -0.42094
v -0.50592 -8.16000 -0.42094
v 0.29376 -8.16000 -0.42094
v 0.34272 -8.16000 -0.46990
v 0.34272 -8.16000 -1.54224
v 0.26112 -8.16000 -1.62384
v -0.50592 -8.46029 -1.82784
v -1.27296 -8.46029 -1.82784
v -1.35456 -8.46029 -1.74624
v -1.35456 -8.46029 -0.72624
v -1.30560 -8.46029 -0.67728
v -0.50592 -8.46029 -0.67728
v 0.29376 -8.46029 -0.67728
v 0.34272 -8.46029 -0.72624
v 0.34272 -8.46029 -1.74624
v 0.26112 -8.46029 -1.82784
v -0.51000 -7.01760 1.08120
v -1.28846 -7.01760 1.08120
v -1.30560 -7.01760 1.09834
v -1.30560 -7.01760 1.10486
v -1.28846 -7.01760 1.12200
v -0.51000 -7.01760 1.12200
v 0.26846 -7.01760 1.12200
v 0.28560 -7.01760 1.10486
v 0.28560 -7.01760 1.09834
v 0.26846 -7.01760 1.08120
v -0.50938 -7.23792 0.53040
v -1.21017 -7.23792 0.53040
v -1.30809 -7.23792 0.62832
v -1.30809 -7.23792 1.12150
v -1.17753 -7.23792 1.25206
v -0.50938 -7.23792 1.25206
v 0.15878 -7.23792 1.25206
v 0.28934 -7.23792 1.12150
v 0.28934 -7.23792 0.62832
v 0.19142 -7.23792 0.53040
v -0.50811 -7.68672 0.48906
v -1.21525 -7.68672 0.48906
v -1.31317 -7.68672 0.58698
v -1.31317 -7.68672 1.42800
v -1.18261 -7.68672 1.55856
v -0.50811 -7.68672 1.55856
v 0.16639 -7.68672 1.55856
v 0.29695 -7.68672 1.42800
v 0.29695 -7.68672 0.58698
v 0.19903 -7.68672 0.48906
v -0.50762 -7.85808 0.47328
v -1.21719 -7.85808 0.47328
v -1.31511 -7.85808 0.57120
v -1.31511 -7.85808 1.36473
v -1.18455 -7.85808 1.49529
v -0.50762 -7.85808 1.49529
v 0.16930 -7.85808 1.49529
v 0.29986 -7.85808 1.36473
v 0.29986 -7.85808 0.57120
v 0.20194 -7.85808 0.47328
v -0.50684 -8.13552 0.21216
v -1.22033 -8.13552 0.21216
v -1.31825 -8.13552 0.31008
v -1.31825 -8.13552 1.26230
v -1.18769 -8.13552 1.39286
v -0.50684 -8.13552 1.39286
v 0.17401 -8.13552 1.39286
v 0.30457 -8.13552 1.26230
v 0.30457 -8.13552 0.31008
v 0.20665 -8.13552 0.21216
v -0.50592 -8.46029 0.41616
v -1.22400 -8.46029 0.41616
v -1.32192 -8.46029 0.51408
v -1.32192 -8.46029 1.14240
v -1.19136 -8.46029 1.27296
v -0.50592 -8.46029 1.27296
v 0.17952 -8.46029 1.27296
v 0.31008 -8.46029 1.14240
v 0.31008 -8.46029 0.51408
v 0.21216 -8.46029 0.41616
vt 0.12648 -1.35115
vt 0.31824 -1.46551
vt 0.31824 -1.35115
vt 0.12648 -1.46551
vt 1.00458 -1.35115
vt 1.02923 -1.45051
vt 1.02923 -1.33616
vt 1.00458 -1.46551
vt -0.07752 1.88700
vt -0.05304 1.96452
vt -0.05916 1.88700
vt -0.16159 1.96452
vt -0.17539 1.90780
vt -0.16675 1.98508
vt -0.15810 1.90684
vt -0.14946 1.98411
vt -0.32640 1.87745
vt -0.12648 1.95522
vt -0.12648 1.87745
vt -0.32640 1.95522
vt 0.07344 1.95522
vt 0.07344 1.87745
vt 0.18988 1.87745
vt 0.20717 1.95425
vt 0.20717 1.87649
vt 0.18988 1.95522
vt 0.05916 1.88700
vt 0.05304 1.96452
vt 0.07752 1.88700
vt 0.16159 1.96452
vt -0.81984 -1.33616
vt -0.81984 -1.45051
vt -0.79520 -1.35115
vt -0.79520 -1.46551
vt -0.06528 -1.35115
vt -0.06528 -1.46551
vt 0.31824 -1.56482
vt 0.12648 -1.56482
vt 1.02923 -1.54982
vt 1.00458 -1.56482
vt -0.11051 2.03184
vt -0.23460 2.03184
vt -0.97027 1.27428
vt -1.02710 1.33343
vt -0.95490 1.28222
vt -1.04248 1.32548
vt -0.32640 1.52063
vt -0.12648 1.60915
vt -0.12648 1.52063
vt -0.32640 1.60915
vt 0.07344 1.60915
vt 0.07344 1.52063
vt 0.83843 1.44646
vt 0.91063 1.49766
vt 0.85381 1.43852
vt 0.92601 1.48972
vt 0.11051 2.03184
vt 0.23460 2.03184
vt -0.81984 -1.54982
vt -0.79520 -1.56482
vt -0.06528 -1.56482
vt 0.12648 -0.36430
vt 0.31824 -0.51548
vt 0.31824 -0.36430
vt 0.12648 -0.51548
vt 0.33864 -0.49511
vt 0.33864 -0.34393
vt -0.11747 2.04000
vt -0.38556 2.04000
vt -1.03585 1.33963
vt -1.05123 1.33169
vt -0.12648 1.61988
vt -0.32640 1.61988
vt 0.07344 1.61988
vt 0.91938 1.50387
vt 0.93476 1.49592
vt 0.11747 2.04000
vt 0.38556 2.04000
vt -0.08568 -0.34393
vt -0.08568 -0.49511
vt -0.06528 -0.36430
vt -0.06528 -0.51548
vt 0.12648 1.91557
vt 0.31824 2.00632
vt 0.31824 1.91557
vt 0.12648 2.00632
vt -0.87570 1.86627
vt -0.91541 1.93984
vt -0.84922 1.87774
vt -0.94188 1.92837
vt -0.18156 2.11507
vt -0.43656 2.11507
vt -1.11636 1.39673
vt -1.13174 1.38878
vt -0.12648 1.71858
vt -0.32640 1.71858
vt 0.07344 1.71858
vt 0.99990 1.56097
vt 1.01527 1.55302
vt 0.18156 2.11507
vt 0.43656 2.11507
vt 0.98259 1.73559
vt 1.04877 1.79769
vt 1.00906 1.72413
vt 1.07525 1.78622
vt -0.06528 1.91557
vt -0.06528 2.00632
vt 0.33864 -0.07752
vt 0.33864 -0.05916
vt 0.32640 -0.04692
vt 0.31824 -0.09792
vt 0.12648 -0.04692
vt 0.12648 -0.09792
vt -0.06528 -0.09792
vt -0.07344 -0.04692
vt -0.08568 -0.07752
vt -0.08568 -0.05916
vt 0.12648 0.45696
vt 0.33864 0.43656
vt 0.31824 0.45696
vt 0.33864 0.18156
vt -0.06528 0.45696
vt -0.08568 0.18156
vt -0.08568 0.43656
vt 0.12648 0.16932
vt 0.32640 0.16932
vt -0.07344 0.16932
vt 0.12750 -0.36485
vt 0.30254 -0.51312
vt 0.32212 -0.36485
vt 0.12734 -0.51312
vt 0.32702 -0.49021
vt 0.32640 -0.36084
vt 0.27458 1.75798
vt 0.28038 1.81306
vt 0.27622 1.75798
vt 0.15708 1.81306
vt -0.65280 1.66464
vt -0.66863 1.71469
vt -0.64712 1.66673
vt -0.62533 1.73068
vt -0.32212 1.62338
vt -0.29438 1.68728
vt -0.12750 1.62338
vt -0.12734 1.68728
vt 0.03969 1.68728
vt 0.06712 1.62338
vt 0.45908 1.66408
vt 0.48094 1.71192
vt 0.46476 1.66197
vt 0.43768 1.72803
vt -0.27622 1.75536
vt -0.28038 1.81045
vt -0.27458 1.75536
vt -0.15708 1.81045
vt -0.07140 -0.36084
vt -0.07233 -0.49021
vt -0.06712 -0.36485
vt -0.04785 -0.51312
vt 0.12734 1.78969
vt 0.12703 1.90237
vt 0.30254 1.78969
vt 0.30381 1.90237
vt 0.73139 1.65376
vt 0.78564 1.75427
vt 0.76497 1.64535
vt 0.75206 1.76268
vt 0.14675 1.92527
vt 0.35700 1.92527
vt -0.66183 1.85004
vt -0.61853 1.86604
vt -0.12703 1.82312
vt -0.29565 1.82312
vt 0.04160 1.82312
vt 0.47501 1.84732
vt 0.43175 1.86344
vt -0.14675 1.92266
vt -0.35700 1.92266
vt 0.27000 1.72140
vt 0.30304 1.82724
vt 0.30355 1.71287
vt 0.33659 1.81871
vt -0.04785 1.78969
vt -0.04976 1.90237
vt 0.12691 1.94539
vt 0.30430 1.94539
vt 0.79354 1.79586
vt 0.75995 1.80427
vt 0.34118 1.96811
vt 0.14280 1.96811
vt 0.43527 1.68901
vt 0.47943 1.72367
vt 0.48010 1.67801
vt 0.43460 1.73467
vt -0.29565 1.66779
vt -0.12691 1.71346
vt -0.12703 1.66779
vt -0.29614 1.71346
vt 0.04160 1.66779
vt 0.04233 1.71346
vt -0.65996 1.68308
vt -0.65896 1.72874
vt -0.61509 1.69393
vt -0.61409 1.73959
vt -0.34118 1.96551
vt -0.14280 1.96551
vt 0.31565 1.86765
vt 0.34921 1.85912
vt -0.05049 1.94539
vt 0.12691 1.34947
vt 0.12671 1.44472
vt 0.30430 1.34947
vt 0.30508 1.44472
vt 0.76845 1.88343
vt 0.73487 1.89184
vt 0.31558 2.03748
vt 0.07752 2.03748
vt 0.47835 1.79761
vt 0.43352 1.80860
vt -0.12671 1.78739
vt -0.29692 1.78739
vt 0.04350 1.78739
vt -0.65734 1.80267
vt -0.61247 1.81352
vt -0.31558 2.03488
vt -0.07752 2.03488
vt 0.37905 1.93307
vt 0.41260 1.92455
vt -0.05049 1.34947
vt -0.05166 1.44472
vt 0.12671 1.75050
vt 0.12648 1.84638
vt 0.30508 1.75050
vt 0.30600 1.84638
vt -0.43047 1.75890
vt -0.42927 1.85478
vt -0.39833 1.77175
vt -0.39712 1.86763
vt 0.12852 2.11867
vt 0.28560 2.11867
vt 0.47709 1.88415
vt 0.43226 1.89515
vt -0.12648 1.87394
vt -0.29784 1.87394
vt 0.04488 1.87394
vt -0.65545 1.88921
vt -0.61058 1.90005
vt -0.12852 2.11608
vt -0.28560 2.11608
vt -0.78959 1.69572
vt -0.82445 1.77704
vt -0.75741 1.70848
vt -0.85663 1.76428
vt -0.05166 1.75050
vt -0.05304 1.84638
vt 0.32640 -0.35931
vt 0.32212 -0.35530
vt -0.06712 -0.35530
vt -0.07140 -0.35931
vt 0.12750 -0.35530
vt 0.33048 -0.12852
vt 0.29784 -0.31824
vt 0.33048 -0.28560
vt 0.12648 -0.31824
vt -0.04488 -0.31824
vt -0.07752 -0.12852
vt -0.07752 -0.28560
vt 0.12648 -0.10404
vt -0.05304 -0.10404
vt 0.30600 -0.10404
vn 0.0000 0.7352 -0.6779
vn -0.5611 0.6085 -0.5611
vn -1.0000 0.0000 0.0000
vn -0.7060 0.0557 0.7060
vn 0.0000 0.0787 0.9969
vn 0.7060 0.0557 0.7060
vn 1.0000 0.0000 0.0000
vn 0.5611 0.6085 -0.5611
vn -0.6054 -0.5168 0.6054
vn 0.0000 -0.6493 0.7606
vn 0.6054 -0.5168 0.6054
vn 0.0000 0.9985 -0.0540
vn -0.0027 0.9985 -0.0540
vn -0.0095 0.9985 -0.0540
vn -0.0539 0.9971 -0.0539
vn 0.0539 0.9971 -0.0539
vn 0.0052 0.9985 -0.0540
vn 0.0000 0.5619 -0.8272
vn -0.6374 0.4330 -0.6374
vn 0.6374 0.4330 -0.6374
vn 0.0000 1.0000 0.0000
vn 0.0000 -1.0000 0.0000
vn 0.0000 0.9354 -0.3535
vn -0.0232 0.9271 -0.3741
vn -0.0459 0.9333 -0.3562
vn 0.0000 0.9285 -0.3714
vn -0.0485 0.9250 -0.3769
vn -0.3893 0.8348 -0.3893
vn -0.9999 0.0113 0.0000
vn -0.7058 0.0613 0.7058
vn -0.6700 0.3198 0.6700
vn -0.6551 0.3764 0.6551
vn 0.0000 0.5084 0.8611
vn 0.0000 0.5455 0.8381
vn 0.0000 0.5464 0.8375
vn 0.7056 0.0653 0.7056
vn 0.6692 0.3232 0.6692
vn 0.6542 0.3796 0.6542
vn 0.9999 0.0170 0.0000
vn 0.3885 0.8355 -0.3885
vn 0.0485 0.9250 -0.3768
vn 0.0232 0.9271 -0.3741
vn 0.0435 0.9401 -0.3380
vn 0.0000 0.0917 -0.9958
vn -0.7052 0.0729 -0.7052
vn -0.6347 0.4407 0.6347
vn 0.0000 0.5640 0.8258
vn 0.6337 0.4436 0.6337
vn 0.7050 0.0769 -0.7050
vn -0.6691 0.3234 -0.6691
vn -0.6243 0.4696 -0.6243
vn -0.6855 -0.2453 0.6855
vn 0.0000 -0.3463 0.9381
vn 0.6861 -0.2417 0.6861
vn 0.6683 0.3267 -0.6683
vn 0.6233 0.4723 -0.6233
vn 0.0000 0.6854 -0.7282
vn -0.5865 0.5586 -0.5865
vn 0.5854 0.5609 -0.5854
vn 0.0000 -0.5319 -0.8468
vn -0.6481 -0.3998 -0.6481
vn 0.6491 -0.3967 -0.6491
vn 0.0000 0.9373 -0.3485
vn 0.0000 0.9445 -0.3286
s off
f 1/1/1 12/2/1 2/3/1
f 1/1/1 11/4/1 12/2/1
f 2/5/2 13/6/2 3/7/2
f 2/5/2 12/8/2 13/6/2
f 3/9/3 14/10/3 4/11/3
f 3/9/3 13/12/3 14/10/3
f 4/13/4 14/14/4 5/15/4
f 5/15/4 14/14/4 15/16/4
f 5/17/5 16/18/5 6/19/5
f 5/17/5 15/20/5 16/18/5
f 6/19/5 17/21/5 7/22/5
f 6/19/5 16/18/5 17/21/5
f 7/23/6 18/24/6 8/25/6
f 7/23/6 17/26/6 18/24/6
f 8/27/7 18/28/7 9/29/7
f 9/29/7 18/28/7 19/30/7
f 9/31/8 19/32/8 10/33/8
f 10/33/8 19/32/8 20/34/8
f 10/35/1 11/4/1 1/1/1
f 10/35/1 20/36/1 11/4/1
f 11/4/1 22/37/1 12/2/1
f 11/4/1 21/38/1 22/37/1
f 12/8/2 23/39/2 13/6/2
f 12/8/2 22/40/2 23/39/2
f 13/12/3 24/41/3 14/10/3
f 13/12/3 23/42/3 24/41/3
f 14/43/9 25/44/9 15/45/9
f 14/43/9 24/46/9 25/44/9
f 15/47/10 26/48/10 16/49/10
f 15/47/10 25/50/10 26/48/10
f 16/49/10 27/51/10 17/52/10
f 16/49/10 26/48/10 27/51/10
f 17/53/11 27/54/11 18/55/11
f 18/55/11 27/54/11 28/56/11
f 18/28/7 28/57/7 19/30/7
f 19/30/7 28/57/7 29/58/7
f 19/32/8 29/59/8 20/34/8
f 20/34/8 29/59/8 30/60/8
f 20/36/1 21/38/1 11/4/1
f 20/36/1 30/61/1 21/38/1
f 21/62/12 32/63/13 22/64/14
f 21/62/12 31/65/12 32/63/13
f 22/64/14 33/66/15 23/67/15
f 22/64/14 32/63/13 33/66/15
f 23/42/3 34/68/3 24/41/3
f 23/42/3 33/69/3 34/68/3
f 24/46/9 35/70/9 25/44/9
f 24/46/9 34/71/9 35/70/9
f 25/50/10 36/72/10 26/48/10
f 25/50/10 35/73/10 36/72/10
f 26/48/10 37/74/10 27/51/10
f 26/48/10 36/72/10 37/74/10
f 27/54/11 37/75/11 28/56/11
f 28/56/11 37/75/11 38/76/11
f 28/57/7 38/77/7 29/58/7
f 29/58/7 38/77/7 39/78/7
f 29/79/16 39/80/16 30/81/17
f 30/81/17 39/80/16 40/82/17
f 30/81/17 31/65/12 21/62/12
f 30/81/17 40/82/17 31/65/12
f 31/83/18 42/84/18 32/85/18
f 31/83/18 41/86/18 42/84/18
f 32/87/19 43/88/19 33/89/19
f 32/87/19 42/90/19 43/88/19
f 33/69/3 44/91/3 34/68/3
f 33/69/3 43/92/3 44/91/3
f 34/71/9 45/93/9 35/70/9
f 34/71/9 44/94/9 45/93/9
f 35/73/10 46/95/10 36/72/10
f 35/73/10 45/96/10 46/95/10
f 36/72/10 47/97/10 37/74/10
f 36/72/10 46/95/10 47/97/10
f 37/75/11 47/98/11 38/76/11
f 38/76/11 47/98/11 48/99/11
f 38/77/7 48/100/7 39/78/7
f 39/78/7 48/100/7 49/101/7
f 39/102/20 49/103/20 40/104/20
f 40/104/20 49/103/20 50/105/20
f 40/106/18 41/86/18 31/83/18
f 40/106/18 50/107/18 41/86/18
f 3/108/21 4/109/21 5/110/21
f 2/111/21 3/108/21 5/110/21
f 2/111/21 5/110/21 6/112/21
f 1/113/21 2/111/21 6/112/21
f 10/114/21 1/113/21 6/112/21
f 10/114/21 6/112/21 7/115/21
f 9/116/21 10/114/21 7/115/21
f 7/115/21 8/117/21 9/116/21
f 41/118/22 43/119/22 42/120/22
f 41/118/22 44/121/22 43/119/22
f 50/122/22 44/121/22 41/118/22
f 48/123/22 50/122/22 49/124/22
f 48/123/22 44/121/22 50/122/22
f 44/121/22 46/125/22 45/126/22
f 48/123/22 46/125/22 44/121/22
f 46/125/22 48/123/22 47/127/22
f 51/128/23 62/129/24 52/130/25
f 51/128/23 61/131/26 62/129/24
f 52/130/27 63/132/28 53/133/28
f 52/130/27 62/129/24 63/132/28
f 53/134/29 64/135/29 54/136/29
f 53/134/29 63/137/29 64/135/29
f 54/138/30 64/139/31 55/140/30
f 55/140/30 64/139/31 65/141/32
f 55/142/33 65/143/34 56/144/33
f 56/144/33 65/143/34 66/145/35
f 56/144/33 67/146/34 57/147/33
f 56/144/33 66/145/35 67/146/34
f 57/148/36 68/149/37 58/150/36
f 57/148/36 67/151/38 68/149/37
f 58/152/39 68/153/39 59/154/39
f 59/154/39 68/153/39 69/155/39
f 59/156/40 69/157/40 60/158/41
f 60/158/41 69/157/40 70/159/42
f 60/158/43 70/159/42 51/128/23
f 51/128/23 70/159/42 61/131/26
f 61/160/44 71/161/44 62/162/44
f 62/162/44 71/161/44 72/163/44
f 62/164/45 73/165/45 63/166/45
f 62/164/45 72/167/45 73/165/45
f 63/137/29 73/168/29 64/135/29
f 64/135/29 73/168/29 74/169/29
f 64/139/31 74/170/46 65/141/32
f 65/141/32 74/170/46 75/171/46
f 65/143/34 76/172/47 66/145/35
f 65/143/34 75/173/47 76/172/47
f 66/145/35 76/172/47 67/146/34
f 67/146/34 76/172/47 77/174/47
f 67/151/38 78/175/48 68/149/37
f 67/151/38 77/176/48 78/175/48
f 68/153/39 79/177/39 69/155/39
f 68/153/39 78/178/39 79/177/39
f 69/179/49 79/180/49 70/181/49
f 70/181/49 79/180/49 80/182/49
f 70/183/44 71/161/44 61/160/44
f 70/183/44 80/184/44 71/161/44
f 71/161/44 81/185/44 72/163/44
f 72/163/44 81/185/44 82/186/44
f 72/167/45 83/187/50 73/165/45
f 72/167/45 82/188/51 83/187/50
f 73/168/29 84/189/29 74/169/29
f 73/168/29 83/190/29 84/189/29
f 74/191/52 85/192/52 75/193/52
f 74/191/52 84/194/52 85/192/52
f 75/195/53 86/196/53 76/197/53
f 75/195/53 85/198/53 86/196/53
f 76/197/53 86/196/53 77/199/53
f 77/199/53 86/196/53 87/200/53
f 77/201/54 87/202/54 78/203/54
f 78/203/54 87/202/54 88/204/54
f 78/178/39 88/205/39 79/177/39
f 79/177/39 88/205/39 89/206/39
f 79/180/49 89/207/55 80/182/49
f 80/182/49 89/207/55 90/208/56
f 80/184/44 81/185/44 71/161/44
f 80/184/44 90/209/44 81/185/44
f 81/210/57 91/211/57 82/212/57
f 82/212/57 91/211/57 92/213/57
f 82/188/51 93/214/58 83/187/50
f 82/188/51 92/215/58 93/214/58
f 83/190/29 94/216/29 84/189/29
f 83/190/29 93/217/29 94/216/29
f 84/194/52 95/218/52 85/192/52
f 84/194/52 94/219/52 95/218/52
f 85/198/53 96/220/53 86/196/53
f 85/198/53 95/221/53 96/220/53
f 86/196/53 96/220/53 87/200/53
f 87/200/53 96/220/53 97/222/53
f 87/202/54 97/223/54 88/204/54
f 88/204/54 97/223/54 98/224/54
f 88/205/39 98/225/39 89/206/39
f 89/206/39 98/225/39 99/226/39
f 89/207/55 99/227/59 90/208/56
f 90/208/56 99/227/59 100/228/59
f 90/229/57 91/211/57 81/210/57
f 90/229/57 100/230/57 91/211/57
f 91/231/60 101/232/60 92/233/60
f 92/233/60 101/232/60 102/234/60
f 92/235/61 102/236/61 93/237/61
f 93/237/61 102/236/61 103/238/61
f 93/217/29 103/239/29 94/216/29
f 94/216/29 103/239/29 104/240/29
f 94/219/52 105/241/52 95/218/52
f 94/219/52 104/242/52 105/241/52
f 95/221/53 106/243/53 96/220/53
f 95/221/53 105/244/53 106/243/53
f 96/220/53 106/243/53 97/222/53
f 97/222/53 106/243/53 107/245/53
f 97/223/54 107/246/54 98/224/54
f 98/224/54 107/246/54 108/247/54
f 98/225/39 109/248/39 99/226/39
f 98/225/39 108/249/39 109/248/39
f 99/250/62 110/251/62 100/252/62
f 99/250/62 109/253/62 110/251/62
f 100/254/60 101/232/60 91/231/60
f 100/254/60 110/255/60 101/232/60
f 52/130/63 53/133/21 54/256/21
f 52/130/63 54/256/21 55/257/21
f 57/258/21 58/259/21 59/156/21
f 57/258/21 59/156/21 60/158/64
f 51/128/23 52/130/63 55/257/21
f 51/128/23 55/257/21 56/260/21
f 60/158/64 51/128/23 56/260/21
f 56/260/21 57/258/21 60/158/64
f 103/261/22 105/262/22 104/263/22
f 103/261/22 106/264/22 105/262/22
f 103/261/22 107/265/22 106/264/22
f 107/265/22 109/266/22 108/267/22
f 103/261/22 109/266/22 107/265/22
f 109/266/22 101/268/22 110/269/22
f 103/261/22 101/268/22 109/266/22
f 101/268/22 103/261/22 102/270/22
