# mech2 legs - Leg_R_Shin_Blue.obj  (generated by source/build.py; do not edit by hand)
# frame: Leg_R hip-joint centre = origin, studs, +Y up, -Z forward
# segment: Shin  colour: Blue RGB (47, 111, 191)  pieces: calf, ankle_front
# bbox centre in leg frame: [0.3758, -6.018, -0.0898]  size: [1.6639, 2.4888, 2.2358]
# segment pivot (Knee) in leg frame: [0.2856, -4.4064, 0.1632]
o Leg_R_Shin_Blue
v 0.22848 -4.77360 0.24348
v 0.78336 -4.77360 0.24348
v 0.86496 -4.77360 0.32508
v 0.86496 -4.77360 0.78336
v 0.75072 -4.77360 0.89760
v 0.22848 -4.77360 0.89760
v -0.29376 -4.77360 0.89760
v -0.40800 -4.77360 0.78336
v -0.40800 -4.77360 0.32508
v -0.32640 -4.77360 0.24348
v 0.26929 -5.38560 0.22374
v 0.87683 -5.38560 0.22374
v 0.95843 -5.38560 0.30534
v 0.95843 -5.38560 0.86496
v 0.84419 -5.38560 0.97920
v 0.26929 -5.38560 0.97920
v -0.30561 -5.38560 0.97920
v -0.41985 -5.38560 0.86496
v -0.41985 -5.38560 0.30534
v -0.33825 -5.38560 0.22374
v 0.31282 -6.03840 0.20268
v 0.97653 -6.03840 0.20268
v 1.05813 -6.03840 0.28428
v 1.05813 -6.03840 0.91392
v 0.94389 -6.03840 1.02816
v 0.31282 -6.03840 1.02816
v -0.31824 -6.03840 1.02816
v -0.43248 -6.03840 0.91392
v -0.43248 -6.03840 0.28428
v -0.35088 -6.03840 0.20268
v 0.33187 -6.32400 0.19347
v 1.02015 -6.32400 0.19347
v 1.10175 -6.32400 0.27507
v 1.10175 -6.32400 0.78336
v 0.98751 -6.32400 0.89760
v 0.33187 -6.32400 0.89760
v -0.32377 -6.32400 0.89760
v -0.43801 -6.32400 0.78336
v -0.43801 -6.32400 0.27507
v -0.35641 -6.32400 0.19347
v 0.34275 -6.48720 0.18821
v 1.04507 -6.48720 0.18821
v 1.12667 -6.48720 0.26981
v 1.12667 -6.48720 0.53856
v 1.01243 -6.48720 0.65280
v 0.34275 -6.48720 0.65280
v -0.32693 -6.48720 0.65280
v -0.44117 -6.48720 0.53856
v -0.44117 -6.48720 0.26981
v -0.35957 -6.48720 0.18821
v 0.37812 -7.01760 0.17110
v 1.12608 -7.01760 0.17110
v 1.20768 -7.01760 0.25270
v 1.20768 -7.01760 0.51064
v 1.09344 -7.01760 0.62488
v 0.37812 -7.01760 0.62488
v -0.33719 -7.01760 0.62488
v -0.45143 -7.01760 0.51064
v -0.45143 -7.01760 0.25270
v -0.36983 -7.01760 0.17110
v 0.31281 -7.26240 0.16320
v 1.00018 -7.26240 0.16320
v 1.08178 -7.26240 0.24480
v 1.08178 -7.26240 0.49776
v 0.96754 -7.26240 0.61200
v 0.31281 -7.26240 0.61200
v -0.34193 -7.26240 0.61200
v -0.45617 -7.26240 0.49776
v -0.45617 -7.26240 0.24480
v -0.37457 -7.26240 0.16320
v 0.40800 -6.16080 -1.06080
v 0.41126 -6.16080 -1.06080
v 0.42840 -6.16080 -1.04366
v 0.42840 -6.16080 -0.34354
v 0.41126 -6.16080 -0.32640
v 0.40800 -6.16080 -0.32640
v 0.40474 -6.16080 -0.32640
v 0.38760 -6.16080 -0.34354
v 0.38760 -6.16080 -1.04366
v 0.40474 -6.16080 -1.06080
v 0.41356 -6.44640 -1.12934
v 0.66393 -6.44640 -1.12934
v 0.74553 -6.44640 -1.04774
v 0.74553 -6.44640 -0.36720
v 0.70473 -6.44640 -0.32640
v 0.41356 -6.44640 -0.32640
v 0.12240 -6.44640 -0.32640
v 0.08160 -6.44640 -0.36720
v 0.08160 -6.44640 -1.04774
v 0.16320 -6.44640 -1.12934
v 0.46920 -6.60960 -1.16851
v 0.85680 -6.60960 -1.16851
v 0.93840 -6.60960 -1.08691
v 0.93840 -6.60960 -0.36720
v 0.89760 -6.60960 -0.32640
v 0.46920 -6.60960 -0.32640
v 0.04080 -6.60960 -0.32640
v 0.00000 -6.60960 -0.36720
v 0.00000 -6.60960 -1.08691
v 0.08160 -6.60960 -1.16851
v 0.43656 -6.77280 -1.20768
v 0.87312 -6.77280 -1.20768
v 0.95472 -6.77280 -1.12608
v 0.95472 -6.77280 -0.36720
v 0.91392 -6.77280 -0.32640
v 0.43656 -6.77280 -0.32640
v -0.04080 -6.77280 -0.32640
v -0.08160 -6.77280 -0.36720
v -0.08160 -6.77280 -1.12608
v -0.00000 -6.77280 -1.20768
v 0.42024 -6.85440 -1.13647
v 0.88128 -6.85440 -1.13647
v 0.96288 -6.85440 -1.05487
v 0.96288 -6.85440 -0.36720
v 0.92208 -6.85440 -0.32640
v 0.42024 -6.85440 -0.32640
v -0.08160 -6.85440 -0.32640
v -0.12240 -6.85440 -0.36720
v -0.12240 -6.85440 -1.05487
v -0.04080 -6.85440 -1.13647
v 0.45560 -7.01760 -0.99404
v 0.89760 -7.01760 -0.99404
v 0.97920 -7.01760 -0.91244
v 0.97920 -7.01760 -0.36720
v 0.93840 -7.01760 -0.32640
v 0.45560 -7.01760 -0.32640
v -0.02720 -7.01760 -0.32640
v -0.06800 -7.01760 -0.36720
v -0.06800 -7.01760 -0.91244
v 0.01360 -7.01760 -0.99404
v 0.40800 -7.22160 -0.81600
v 0.73440 -7.22160 -0.81600
v 0.81600 -7.22160 -0.73440
v 0.81600 -7.22160 -0.36720
v 0.77520 -7.22160 -0.32640
v 0.40800 -7.22160 -0.32640
v 0.04080 -7.22160 -0.32640
v 0.00000 -7.22160 -0.36720
v 0.00000 -7.22160 -0.73440
v 0.08160 -7.22160 -0.81600
vt -0.05712 1.19082
vt -0.19584 1.19082
vt -0.06732 1.34390
vt -0.21921 1.34390
vt -0.28123 1.17777
vt -0.30998 1.17535
vt -0.30714 1.33028
vt -0.33589 1.32786
vt -0.08127 1.21237
vt -0.19584 1.21237
vt -0.07634 1.36714
vt -0.21624 1.36714
vt 0.14435 1.20929
vt 0.10419 1.21360
vt 0.12287 1.36793
vt 0.16303 1.36361
vt 0.18768 1.19095
vt 0.05712 1.19095
vt 0.06732 1.34372
vt 0.21105 1.34372
vt -0.07344 1.19095
vt -0.07640 1.34372
vt 0.09037 1.19752
vt 0.04998 1.19697
vt 0.06021 1.35033
vt 0.10060 1.35089
vt 0.19584 1.19515
vt 0.08127 1.19515
vt 0.07634 1.34818
vt 0.21624 1.34818
vt 0.17299 1.18762
vt 0.14416 1.18868
vt 0.17718 1.34068
vt 0.14835 1.34173
vt 0.08160 1.19082
vt 0.08456 1.34390
vt -0.07821 1.50718
vt -0.24413 1.50718
vt -0.33477 1.49295
vt -0.36352 1.49053
vt -0.07107 1.53223
vt -0.22848 1.53223
vt 0.14941 1.53110
vt 0.18957 1.52679
vt 0.07821 1.50678
vt 0.23597 1.50678
vt -0.07956 1.50678
vt 0.06440 1.51374
vt 0.10479 1.51429
vt 0.07107 1.51141
vt 0.22848 1.51141
vt 0.18164 1.50393
vt 0.15281 1.50498
vt 0.08772 1.50718
vt -0.08297 1.57862
vt -0.25504 1.57862
vt -0.34686 1.56412
vt -0.37561 1.56170
vt -0.19584 1.60446
vt -0.06877 1.60446
vt 0.18743 1.59676
vt 0.22759 1.59244
vt 0.08297 1.57852
vt 0.24688 1.57852
vt -0.08094 1.57852
vt 0.07976 1.58505
vt 0.03937 1.58449
vt 0.19584 1.58282
vt 0.06877 1.58282
vt 0.18360 1.57535
vt 0.15476 1.57641
vt 0.08910 1.57862
vt -0.08569 1.61944
vt -0.26127 1.61944
vt -0.35377 1.60479
vt -0.38252 1.60237
vt -0.13464 1.64574
vt -0.06745 1.64574
vt 0.47311 0.78503
vt 0.50636 0.76209
vt 0.49910 0.83555
vt 0.46586 0.85849
vt -0.30999 0.69095
vt -0.14624 0.69095
vt -0.14896 0.76450
vt -0.31622 0.76450
vt 0.01751 0.69095
vt 0.01830 0.76450
vt 0.04674 0.71471
vt 0.04753 0.78826
vt 0.13464 1.62363
vt 0.06745 1.62363
vt 0.18471 1.61617
vt 0.15588 1.61722
vt 0.08989 1.61944
vt -0.09453 1.75211
vt -0.28152 1.75211
vt -0.37622 1.73696
vt -0.40497 1.73454
vt -0.12766 1.77987
vt -0.06317 1.77987
vt -0.02018 1.59719
vt -0.06045 1.59405
vt -0.05147 1.72661
vt -0.01120 1.72975
vt 0.25311 1.61098
vt 0.08569 1.61098
vt 0.09453 1.74376
vt 0.27336 1.74376
vt -0.08173 1.61098
vt -0.08430 1.74376
vt 0.01956 1.61818
vt -0.02082 1.61723
vt 0.00969 1.75063
vt -0.03069 1.74968
vt 0.12766 1.75626
vt 0.06317 1.75626
vt 0.18834 1.74881
vt 0.15951 1.74986
vt 0.09246 1.75211
vt -0.25005 1.81334
vt -0.07820 1.81334
vt -0.38637 1.79555
vt -0.35762 1.79796
vt -0.06317 1.42208
vt -0.12766 1.42208
vt -0.12444 1.49090
vt -0.06120 1.49090
vt -0.03601 1.79094
vt -0.07627 1.78780
vt 0.24189 1.80505
vt 0.07820 1.80505
vt -0.08548 1.80505
vt 0.00514 1.81175
vt -0.03524 1.81080
vt 0.12444 1.81747
vt 0.06120 1.81747
vt 0.19001 1.81003
vt 0.16118 1.81108
vt 0.09364 1.81334
vt -0.21624 0.08127
vt -0.18768 0.22440
vt -0.21624 0.19584
vt -0.05712 0.22440
vt 0.07344 0.22440
vt 0.10200 0.08127
vt 0.10200 0.19584
vt -0.05712 0.06087
vt -0.19584 0.06087
vt 0.08160 0.06087
vt -0.27045 -0.06120
vt -0.27045 -0.12444
vt -0.24189 -0.15300
vt -0.07820 -0.15300
vt 0.08548 -0.15300
vt 0.11404 -0.12444
vt 0.11404 -0.06120
vt -0.07820 -0.04080
vt -0.25005 -0.04080
vt 0.09364 -0.04080
vt -0.10200 1.55956
vt -0.10282 1.55956
vt -0.10339 1.63299
vt -0.16598 1.63299
vt -0.63771 -1.16159
vt -0.64274 -1.15822
vt -0.71535 -1.21924
vt -0.73934 -1.20322
vt -1.09779 -0.26092
vt -1.09779 -0.08588
vt -1.20448 -0.09180
vt -1.20448 -0.26194
vt -0.75709 0.97449
vt -0.75192 0.97766
vt -0.84224 1.02577
vt -0.85454 1.01824
vt 0.10282 1.54020
vt 0.10200 1.54020
vt 0.10339 1.61160
vt 0.17618 1.61160
vt 0.10118 1.54020
vt 0.03060 1.61160
vt -0.51042 1.23911
vt -0.51600 1.23674
vt -0.58987 1.29864
vt -0.60316 1.29301
vt -0.08588 1.18724
vt -0.26092 1.18724
vt -0.09180 1.29001
vt -0.26194 1.29001
vt -0.85897 1.10478
vt -0.86435 1.10199
vt -0.87846 1.19550
vt -0.85286 1.20880
vt -0.10118 1.55956
vt -0.04080 1.63299
vt -0.11730 1.67495
vt -0.21420 1.67495
vt -0.77003 -1.25218
vt -0.79402 -1.23616
vt -1.26763 -0.09180
vt -1.26763 -0.27173
vt -0.89908 1.05327
vt -0.91138 1.04573
vt 0.11730 1.65240
vt 0.22440 1.65240
vt 0.01020 1.65240
vt -0.61997 1.33266
vt -0.63325 1.32703
vt -0.09180 1.33500
vt -0.27173 1.33500
vt -0.89299 1.23973
vt -0.86738 1.25303
vt -0.02040 1.67495
vt -0.21828 1.71691
vt -0.10914 1.71691
vt 0.43841 1.63340
vt 0.41031 1.63997
vt 0.42380 1.67991
vt 0.45189 1.67334
vt 0.27173 1.66754
vt 0.09180 1.66754
vt 0.09180 1.70855
vt 0.28152 1.70855
vt 0.34670 1.63507
vt 0.33231 1.63608
vt 0.33807 1.67668
vt 0.35246 1.67566
vt 0.22848 1.69320
vt 0.10914 1.69320
vt -0.01020 1.69320
vt -0.65006 1.36668
vt -0.66334 1.36104
vt -0.09180 1.37998
vt -0.28152 1.37998
vt -0.90751 1.28397
vt -0.88191 1.29727
vt 0.00000 1.71691
vt -0.10914 1.07718
vt -0.21828 1.07718
vt -0.22032 1.10425
vt -0.10506 1.10425
vt 0.62380 -0.86323
vt 0.59951 -0.87880
vt 0.62429 -0.89000
vt 0.60001 -0.90557
vt 0.26372 1.72905
vt 0.09180 1.72905
vt 0.34095 1.69698
vt 0.35534 1.69596
vt 0.23052 1.71360
vt 0.10506 1.71360
vt -0.02040 1.71360
vt -0.66511 1.38368
vt -0.67839 1.37805
vt -0.26372 1.40247
vt -0.09180 1.40247
vt -0.78946 -0.96080
vt -0.81422 -0.94600
vt -0.80727 -0.97295
vt -0.78250 -0.98775
vt 0.00000 1.07718
vt 0.01020 1.10425
vt -0.11390 1.15840
vt -0.22440 1.15840
vt 0.62529 -0.94353
vt 0.60100 -0.95911
vt 0.22811 1.77005
vt 0.09180 1.77005
vt 0.34670 1.73757
vt 0.36109 1.73656
vt 0.11390 1.75440
vt 0.23460 1.75440
vt -0.00680 1.75440
vt 0.30487 1.65147
vt 0.29081 1.65469
vt 0.30956 1.69340
vt 0.32362 1.69017
vt -0.09180 1.61599
vt -0.26372 1.61599
vt -0.22811 1.65899
vt -0.09180 1.65899
vt -0.82136 -1.02686
vt -0.79660 -1.04167
vt -0.00340 1.15840
vt -0.18360 1.22610
vt -0.10200 1.22610
vt 0.66508 -1.01045
vt 0.64080 -1.02603
vt 0.22811 1.21703
vt 0.09180 1.21703
vt 0.18360 1.28234
vt 0.09180 1.28234
vt -0.43746 1.42730
vt -0.45040 1.42093
vt -0.48922 1.46713
vt -0.50216 1.46076
vt 0.19380 1.80540
vt 0.10200 1.80540
vt 0.01020 1.80540
vt 0.33299 1.74178
vt 0.34705 1.73856
vt -0.18360 1.71275
vt -0.09180 1.71275
vt -0.83899 -1.09425
vt -0.81422 -1.10906
vt -0.02040 1.22610
vt -0.09690 -0.26092
vt -0.10200 -0.26520
vt -0.10118 -0.26520
vt -0.10710 -0.26092
vt -0.10282 -0.26520
vt -0.10710 -0.08588
vt -0.10200 -0.08160
vt -0.10282 -0.08160
vt -0.09690 -0.08588
vt -0.10118 -0.08160
vt -0.10200 0.20400
vt -0.18360 0.20400
vt -0.20400 0.18360
vt -0.20400 0.09180
vt -0.02040 0.20400
vt 0.00000 0.09180
vt 0.00000 0.18360
vt -0.10200 0.08160
vt -0.01020 0.08160
vt -0.19380 0.08160
vn 0.0000 0.0322 -0.9995
vn 0.7011 0.1297 -0.7011
vn 0.9885 0.1510 0.0000
vn 0.6931 0.1983 0.6931
vn 0.6949 0.1847 0.6949
vn 0.6966 0.1716 0.6966
vn 0.0000 0.1322 0.9912
vn 0.0000 0.1018 0.9948
vn 0.0000 0.0926 0.9957
vn 0.0000 0.1117 0.9937
vn -0.7030 0.1073 0.7030
vn -0.7040 0.0932 0.7040
vn -0.7049 0.0796 0.7049
vn -0.9998 0.0194 0.0000
vn -0.7066 0.0365 -0.7066
vn 0.7040 0.0931 0.7040
vn 0.7070 -0.0146 0.7070
vn 0.0000 -0.0915 0.9958
vn 0.0000 -0.1732 0.9849
vn 0.0000 -0.0241 0.9997
vn -0.7063 -0.0477 0.7063
vn 0.6913 -0.2104 0.6913
vn 0.0000 -0.4158 0.9095
vn -0.6391 -0.4279 0.6391
vn -0.5785 -0.5750 0.5785
vn 0.5120 -0.6898 0.5120
vn 0.0000 -0.8321 0.5547
vn -0.0821 -0.8287 0.5536
vn -0.0814 -0.8288 0.5536
vn -0.2790 -0.7205 0.6348
vn -0.4884 -0.7231 0.4884
vn 0.7070 -0.0181 -0.7070
vn 0.7053 0.0706 0.7053
vn 0.7050 -0.0779 0.7050
vn 0.0000 -0.0526 0.9986
vn -0.7069 -0.0235 0.7069
vn 0.6693 -0.3226 -0.6693
vn 0.8893 -0.4573 0.0000
vn 0.6563 -0.3721 0.6563
vn 0.0000 1.0000 0.0000
vn 0.0000 -1.0000 0.0000
vn 0.0000 0.2334 -0.9724
vn 0.5534 0.6224 -0.5534
vn 0.5354 0.6532 -0.5354
vn 0.5237 0.6720 -0.5237
vn 0.6692 0.7431 0.0000
vn 0.6640 0.7477 0.0000
vn 0.6565 0.7543 0.0000
vn 0.5721 0.5878 0.5721
vn 0.5635 0.6040 0.5635
vn 0.5563 0.6174 0.5563
vn 0.0000 0.0000 1.0000
vn -0.5795 0.5729 0.5795
vn -0.6064 0.5144 0.6064
vn -0.6287 0.4577 0.6287
vn -0.6823 0.7311 0.0000
vn -0.7265 0.6872 0.0000
vn -0.7952 0.6064 0.0000
vn -0.5609 0.6090 -0.5609
vn -0.5822 0.5675 -0.5822
vn -0.5963 0.5375 -0.5963
vn 0.4987 0.7090 -0.4987
vn 0.6459 0.7634 0.0000
vn 0.5426 0.6412 0.5426
vn -0.6667 0.3333 0.6667
vn -0.8944 0.4472 0.0000
vn -0.6265 0.4636 -0.6265
vn 0.6875 0.2338 -0.6875
vn 0.9950 0.0995 0.0000
vn 0.7053 0.0705 0.7053
vn 0.0000 -0.6575 -0.7534
vn 0.6205 -0.4795 -0.6205
vn -0.6838 -0.2549 -0.6838
vn -0.6174 -0.4874 -0.6174
vn -0.5698 -0.5922 -0.5698
vn 0.5545 -0.6205 -0.5545
vn 0.4998 -0.7074 -0.4998
vn -0.6882 -0.2294 0.6882
vn -0.9487 -0.3162 0.0000
vn -0.5380 -0.6489 -0.5380
vn 0.4565 -0.7636 -0.4565
vn 0.7809 -0.6247 0.0000
vn 0.6155 -0.4924 0.6155
s off
f 1/1/1 2/2/1 11/3/1
f 2/2/1 12/4/1 11/3/1
f 2/5/2 3/6/2 12/7/2
f 3/6/2 13/8/2 12/7/2
f 3/9/3 4/10/3 13/11/3
f 4/10/3 14/12/3 13/11/3
f 4/13/4 5/14/4 15/15/5
f 4/13/4 15/15/5 14/16/6
f 5/17/7 6/18/7 16/19/8
f 5/17/7 16/19/8 15/20/9
f 6/18/7 7/21/7 17/22/10
f 6/18/7 17/22/10 16/19/8
f 7/23/11 8/24/11 18/25/12
f 7/23/11 18/25/12 17/26/13
f 8/27/14 9/28/14 19/29/14
f 8/27/14 19/29/14 18/30/14
f 9/31/15 10/32/15 19/33/15
f 10/32/15 20/34/15 19/33/15
f 10/35/1 1/1/1 20/36/1
f 1/1/1 11/3/1 20/36/1
f 11/3/1 12/4/1 21/37/1
f 12/4/1 22/38/1 21/37/1
f 12/7/2 13/8/2 22/39/2
f 13/8/2 23/40/2 22/39/2
f 13/11/3 14/12/3 23/41/3
f 14/12/3 24/42/3 23/41/3
f 14/16/6 15/15/5 25/43/16
f 14/16/6 25/43/16 24/44/17
f 15/20/9 16/19/8 26/45/18
f 15/20/9 26/45/18 25/46/19
f 16/19/8 17/22/10 27/47/20
f 16/19/8 27/47/20 26/45/18
f 17/26/13 18/25/12 28/48/21
f 17/26/13 28/48/21 27/49/21
f 18/30/14 19/29/14 29/50/14
f 18/30/14 29/50/14 28/51/14
f 19/33/15 20/34/15 29/52/15
f 20/34/15 30/53/15 29/52/15
f 20/36/1 11/3/1 30/54/1
f 11/3/1 21/37/1 30/54/1
f 21/37/1 22/38/1 31/55/1
f 22/38/1 32/56/1 31/55/1
f 22/39/2 23/40/2 32/57/2
f 23/40/2 33/58/2 32/57/2
f 23/41/3 24/42/3 34/59/3
f 23/41/3 34/59/3 33/60/3
f 24/44/17 25/43/16 35/61/22
f 24/44/17 35/61/22 34/62/22
f 25/46/19 26/45/18 36/63/23
f 25/46/19 36/63/23 35/64/23
f 26/45/18 27/47/20 37/65/23
f 26/45/18 37/65/23 36/63/23
f 27/49/21 28/48/21 37/66/24
f 28/48/21 38/67/25 37/66/24
f 28/51/14 29/50/14 38/68/14
f 29/50/14 39/69/14 38/68/14
f 29/52/15 30/53/15 39/70/15
f 30/53/15 40/71/15 39/70/15
f 30/54/1 21/37/1 40/72/1
f 21/37/1 31/55/1 40/72/1
f 31/55/1 32/56/1 41/73/1
f 32/56/1 42/74/1 41/73/1
f 32/57/2 33/58/2 42/75/2
f 33/58/2 43/76/2 42/75/2
f 33/60/3 34/59/3 44/77/3
f 33/60/3 44/77/3 43/78/3
f 34/79/26 35/80/26 45/81/26
f 34/79/26 45/81/26 44/82/26
f 35/83/27 36/84/27 46/85/27
f 35/83/27 46/85/27 45/86/27
f 36/84/27 37/87/28 47/88/29
f 36/84/27 47/88/29 46/85/27
f 37/87/30 38/89/25 47/88/29
f 38/89/25 48/90/31 47/88/29
f 38/68/14 39/69/14 48/91/14
f 39/69/14 49/92/14 48/91/14
f 39/70/15 40/71/15 49/93/15
f 40/71/15 50/94/15 49/93/15
f 40/72/1 31/55/1 50/95/1
f 31/55/1 41/73/1 50/95/1
f 41/73/1 42/74/1 51/96/1
f 42/74/1 52/97/1 51/96/1
f 42/75/2 43/76/2 52/98/32
f 43/76/2 53/99/32 52/98/32
f 43/78/3 44/77/3 54/100/3
f 43/78/3 54/100/3 53/101/3
f 44/102/33 45/103/33 55/104/34
f 44/102/33 55/104/34 54/105/34
f 45/106/35 46/107/35 56/108/35
f 45/106/35 56/108/35 55/109/35
f 46/107/35 47/110/35 57/111/35
f 46/107/35 57/111/35 56/108/35
f 47/112/36 48/113/36 57/114/36
f 48/113/36 58/115/36 57/114/36
f 48/91/14 49/92/14 58/116/14
f 49/92/14 59/117/14 58/116/14
f 49/93/15 50/94/15 59/118/15
f 50/94/15 60/119/15 59/118/15
f 50/95/1 41/73/1 60/120/1
f 41/73/1 51/96/1 60/120/1
f 51/96/1 52/97/1 62/121/1
f 51/96/1 62/121/1 61/122/1
f 52/98/32 53/99/32 63/123/37
f 52/98/32 63/123/37 62/124/37
f 53/125/38 54/126/38 64/127/38
f 53/125/38 64/127/38 63/128/38
f 54/105/34 55/104/34 64/129/39
f 55/104/34 65/130/39 64/129/39
f 55/109/35 56/108/35 65/131/35
f 56/108/35 66/132/35 65/131/35
f 56/108/35 57/111/35 66/132/35
f 57/111/35 67/133/35 66/132/35
f 57/114/36 58/115/36 67/134/36
f 58/115/36 68/135/36 67/134/36
f 58/116/14 59/117/14 68/136/14
f 59/117/14 69/137/14 68/136/14
f 59/118/15 60/119/15 69/138/15
f 60/119/15 70/139/15 69/138/15
f 60/120/1 51/96/1 61/122/1
f 60/120/1 61/122/1 70/140/1
f 3/141/40 5/142/40 4/143/40
f 3/141/40 6/144/40 5/142/40
f 3/141/40 7/145/40 6/144/40
f 7/145/40 9/146/40 8/147/40
f 3/141/40 9/146/40 7/145/40
f 1/148/40 3/141/40 2/149/40
f 1/148/40 9/146/40 3/141/40
f 1/148/40 10/150/40 9/146/40
f 63/151/41 64/152/41 65/153/41
f 63/151/41 65/153/41 66/154/41
f 67/155/41 68/156/41 69/157/41
f 66/154/41 67/155/41 69/157/41
f 63/151/41 66/154/41 69/157/41
f 61/158/41 62/159/41 63/151/41
f 61/158/41 63/151/41 69/157/41
f 61/158/41 69/157/41 70/160/41
f 71/161/42 72/162/42 81/163/42
f 72/162/42 82/164/42 81/163/42
f 72/165/43 73/166/43 82/167/44
f 73/166/43 83/168/45 82/167/44
f 73/169/46 74/170/46 84/171/47
f 73/169/46 84/171/47 83/172/48
f 74/173/49 75/174/49 85/175/50
f 74/173/49 85/175/50 84/176/51
f 75/177/52 76/178/52 86/179/52
f 75/177/52 86/179/52 85/180/52
f 76/178/52 77/181/52 86/179/52
f 77/181/52 87/182/52 86/179/52
f 77/183/53 78/184/53 87/185/54
f 78/184/53 88/186/55 87/185/54
f 78/187/56 79/188/56 88/189/57
f 79/188/56 89/190/58 88/189/57
f 79/191/59 80/192/59 90/193/60
f 79/191/59 90/193/60 89/194/61
f 80/195/42 71/161/42 81/163/42
f 80/195/42 81/163/42 90/196/42
f 81/163/42 82/164/42 91/197/42
f 82/164/42 92/198/42 91/197/42
f 82/167/44 83/168/45 92/199/62
f 83/168/45 93/200/62 92/199/62
f 83/172/48 84/171/47 94/201/63
f 83/172/48 94/201/63 93/202/63
f 84/176/51 85/175/50 95/203/64
f 84/176/51 95/203/64 94/204/64
f 85/180/52 86/179/52 96/205/52
f 85/180/52 96/205/52 95/206/52
f 86/179/52 87/182/52 96/205/52
f 87/182/52 97/207/52 96/205/52
f 87/185/54 88/186/55 97/208/65
f 88/186/55 98/209/65 97/208/65
f 88/189/57 89/190/58 98/210/66
f 89/190/58 99/211/66 98/210/66
f 89/194/61 90/193/60 100/212/67
f 89/194/61 100/212/67 99/213/67
f 90/196/42 81/163/42 91/197/42
f 90/196/42 91/197/42 100/214/42
f 91/197/42 92/198/42 102/215/42
f 91/197/42 102/215/42 101/216/42
f 92/217/68 93/218/68 103/219/68
f 92/217/68 103/219/68 102/220/68
f 93/221/69 94/222/69 104/223/69
f 93/221/69 104/223/69 103/224/69
f 94/225/70 95/226/70 105/227/70
f 94/225/70 105/227/70 104/228/70
f 95/206/52 96/205/52 105/229/52
f 96/205/52 106/230/52 105/229/52
f 96/205/52 97/207/52 106/230/52
f 97/207/52 107/231/52 106/230/52
f 97/208/65 98/209/65 107/232/65
f 98/209/65 108/233/65 107/232/65
f 98/210/66 99/211/66 108/234/66
f 99/211/66 109/235/66 108/234/66
f 99/213/67 100/212/67 110/236/67
f 99/213/67 110/236/67 109/237/67
f 100/214/42 91/197/42 101/216/42
f 100/214/42 101/216/42 110/238/42
f 101/239/71 102/240/71 112/241/71
f 101/239/71 112/241/71 111/242/71
f 102/243/72 103/244/72 112/245/72
f 103/244/72 113/246/72 112/245/72
f 103/224/69 104/223/69 113/247/69
f 104/223/69 114/248/69 113/247/69
f 104/228/70 105/227/70 115/249/70
f 104/228/70 115/249/70 114/250/70
f 105/229/52 106/230/52 115/251/52
f 106/230/52 116/252/52 115/251/52
f 106/230/52 107/231/52 116/252/52
f 107/231/52 117/253/52 116/252/52
f 107/232/65 108/233/65 117/254/65
f 108/233/65 118/255/65 117/254/65
f 108/234/66 109/235/66 119/256/66
f 108/234/66 119/256/66 118/257/66
f 109/258/73 110/259/73 120/260/74
f 109/258/73 120/260/74 119/261/75
f 110/262/71 101/239/71 111/242/71
f 110/262/71 111/242/71 120/263/71
f 111/242/71 112/241/71 121/264/71
f 112/241/71 122/265/71 121/264/71
f 112/245/72 113/246/72 122/266/76
f 113/246/72 123/267/77 122/266/76
f 113/247/69 114/248/69 123/268/69
f 114/248/69 124/269/69 123/268/69
f 114/250/70 115/249/70 125/270/70
f 114/250/70 125/270/70 124/271/70
f 115/251/52 116/252/52 126/272/52
f 115/251/52 126/272/52 125/273/52
f 116/252/52 117/253/52 127/274/52
f 116/252/52 127/274/52 126/272/52
f 117/275/78 118/276/78 128/277/78
f 117/275/78 128/277/78 127/278/78
f 118/279/79 119/280/79 129/281/79
f 118/279/79 129/281/79 128/282/79
f 119/261/75 120/260/74 130/283/80
f 119/261/75 130/283/80 129/284/80
f 120/263/71 111/242/71 130/285/71
f 111/242/71 121/264/71 130/285/71
f 121/264/71 122/265/71 132/286/71
f 121/264/71 132/286/71 131/287/71
f 122/266/76 123/267/77 132/288/81
f 123/267/77 133/289/81 132/288/81
f 123/290/82 124/291/82 133/292/82
f 124/291/82 134/293/82 133/292/82
f 124/294/83 125/295/83 134/296/83
f 125/295/83 135/297/83 134/296/83
f 125/273/52 126/272/52 135/298/52
f 126/272/52 136/299/52 135/298/52
f 126/272/52 127/274/52 137/300/52
f 126/272/52 137/300/52 136/299/52
f 127/278/78 128/277/78 138/301/78
f 127/278/78 138/301/78 137/302/78
f 128/282/79 129/281/79 139/303/79
f 128/282/79 139/303/79 138/304/79
f 129/284/80 130/283/80 140/305/80
f 129/284/80 140/305/80 139/306/80
f 130/285/71 121/264/71 140/307/71
f 121/264/71 131/287/71 140/307/71
f 79/308/40 71/309/40 80/310/40
f 71/309/40 73/311/40 72/312/40
f 79/308/40 73/311/40 71/309/40
f 74/313/40 76/314/40 75/315/40
f 76/314/40 78/316/40 77/317/40
f 74/313/40 78/316/40 76/314/40
f 79/308/40 74/313/40 73/311/40
f 74/313/40 79/308/40 78/316/40
f 131/318/41 132/319/41 133/320/41
f 131/318/41 133/320/41 134/321/41
f 140/322/41 131/318/41 134/321/41
f 138/323/41 139/324/41 140/322/41
f 138/323/41 140/322/41 134/321/41
f 136/325/41 137/326/41 138/323/41
f 136/325/41 138/323/41 134/321/41
f 134/321/41 135/327/41 136/325/41
