# mech2 legs - Leg_R_Thigh_White.obj  (generated by source/build.py; do not edit by hand)
# frame: Leg_R hip-joint centre = origin, studs, +Y up, -Z forward
# segment: Thigh  colour: White RGB (236, 236, 232)  pieces: thigh_plate_out, thigh_plate_in, knee_block
# bbox centre in leg frame: [0.1224, -2.4398, -0.9792]  size: [2.701, 4.2595, 2.8397]
# segment pivot (Hip) in leg frame: [0.0, 0.0, 0.0]
o Leg_R_Thigh_White
v 1.43208 -0.31008 -1.17983
v 1.45574 -0.31008 -1.14420
v 1.47288 -0.31008 -1.12706
v 1.47288 -0.31008 -1.05445
v 1.45574 -0.31008 -1.03731
v 1.43208 -0.31008 -1.03731
v 0.67842 -0.81600 -1.61426
v 1.22400 -0.81600 -1.43474
v 1.37088 -0.81600 -1.28786
v 1.37088 -0.81600 -0.66973
v 1.28928 -0.81600 -0.58813
v 0.67842 -0.81600 -0.58813
v 0.20400 -1.12608 -1.88053
v 1.10617 -1.12608 -1.70101
v 1.25305 -1.12608 -1.55413
v 1.25305 -1.12608 -0.39443
v 1.17145 -1.12608 -0.31283
v 0.20400 -1.12608 -0.31283
v 0.21288 -1.63200 -2.31496
v 0.91392 -1.63200 -2.13544
v 1.06080 -1.63200 -1.98856
v 1.06080 -1.63200 0.05476
v 0.97920 -1.63200 0.13636
v 0.21288 -1.63200 0.13636
v 0.21459 -1.72992 -2.39904
v 0.89140 -1.72992 -2.21952
v 1.03828 -1.72992 -2.07264
v 1.03828 -1.72992 0.14169
v 0.95668 -1.72992 0.22329
v 0.21459 -1.72992 0.22329
v 0.21889 -1.97472 -2.18169
v 0.83509 -1.97472 -2.00217
v 0.98197 -1.97472 -1.85529
v 0.98197 -1.97472 0.35904
v 0.90037 -1.97472 0.44064
v 0.21889 -1.97472 0.44064
v 0.22719 -2.44800 -1.76149
v 0.72624 -2.44800 -1.58197
v 0.87312 -2.44800 -1.43509
v 0.87312 -2.44800 -0.04736
v 0.79152 -2.44800 0.03424
v 0.22719 -2.44800 0.03424
v 0.23507 -2.89680 -1.36303
v 0.66912 -2.89680 -1.18351
v 0.81600 -2.89680 -1.03663
v 0.81600 -2.89680 -0.43275
v 0.73440 -2.89680 -0.35115
v 0.23507 -2.89680 -0.35115
v 0.22440 -3.45168 -0.87037
v 0.24806 -3.45168 -0.85969
v 0.26520 -3.45168 -0.84255
v 0.26520 -3.45168 -0.84476
v 0.24806 -3.45168 -0.82762
v 0.22440 -3.45168 -0.82762
v -1.18728 -0.42432 -1.27793
v -1.18728 -0.42432 -0.93588
v -1.21094 -0.42432 -0.93588
v -1.22808 -0.42432 -0.95302
v -1.22808 -0.42432 -1.17528
v -1.21094 -0.42432 -1.19242
v 0.20400 -1.12608 -1.88053
v 0.20400 -1.12608 -0.31283
v -0.91271 -1.12608 -0.31283
v -0.99431 -1.12608 -0.39443
v -0.99431 -1.12608 -1.55413
v -0.84743 -1.12608 -1.70101
v 0.21288 -1.63200 -2.31496
v 0.21288 -1.63200 0.13636
v -0.75888 -1.63200 0.13636
v -0.84048 -1.63200 0.05476
v -0.84048 -1.63200 -1.98856
v -0.69360 -1.63200 -2.13544
v 0.21459 -1.72992 -2.39904
v 0.21459 -1.72992 0.22329
v -0.72755 -1.72992 0.22329
v -0.80915 -1.72992 0.14169
v -0.80915 -1.72992 -2.07264
v -0.66227 -1.72992 -2.21952
v 0.21889 -1.97472 -2.18169
v 0.21889 -1.97472 0.44064
v -0.64921 -1.97472 0.44064
v -0.73081 -1.97472 0.35904
v -0.73081 -1.97472 -1.85529
v -0.58393 -1.97472 -2.00217
v 0.22719 -2.44800 -1.76149
v 0.22719 -2.44800 0.03424
v -0.49776 -2.44800 0.03424
v -0.57936 -2.44800 -0.04736
v -0.57936 -2.44800 -1.43509
v -0.43248 -2.44800 -1.58197
v 0.23507 -2.89680 -1.36303
v 0.23507 -2.89680 -0.35115
v -0.40800 -2.89680 -0.35115
v -0.48960 -2.89680 -0.43275
v -0.48960 -2.89680 -1.03663
v -0.34272 -2.89680 -1.18351
v 0.26520 -3.45168 -0.87037
v 0.26520 -3.45168 -0.82762
v 0.24154 -3.45168 -0.82762
v 0.22440 -3.45168 -0.84476
v 0.22440 -3.45168 -0.84255
v 0.24154 -3.45168 -0.85969
v 0.15738 -2.92128 -0.36312
v 0.80220 -2.92128 -0.35292
v 0.81934 -2.92128 -0.33578
v 0.81934 -2.92128 -0.33946
v 0.80220 -2.92128 -0.32232
v 0.15738 -2.92128 -0.32232
v -0.48745 -2.92128 -0.32232
v -0.50458 -2.92128 -0.33946
v -0.50458 -2.92128 -0.33578
v -0.48745 -2.92128 -0.35292
v 0.15906 -3.02736 -0.42180
v 0.72383 -3.02736 -0.32388
v 0.82175 -3.02736 -0.22596
v 0.82175 -3.02736 -0.03264
v 0.78095 -3.02736 0.00816
v 0.15906 -3.02736 0.00816
v -0.46282 -3.02736 0.00816
v -0.50362 -3.02736 -0.03264
v -0.50362 -3.02736 -0.22596
v -0.40570 -3.02736 -0.32388
v 0.16452 -3.37008 -0.67728
v 0.73162 -3.37008 -0.57936
v 0.82954 -3.37008 -0.48144
v 0.82954 -3.37008 0.00544
v 0.78874 -3.37008 0.04624
v 0.16452 -3.37008 0.04624
v -0.45970 -3.37008 0.04624
v -0.50050 -3.37008 0.00544
v -0.50050 -3.37008 -0.48144
v -0.40258 -3.37008 -0.57936
v 0.17737 -4.17792 -0.50592
v 0.74998 -4.17792 -0.40800
v 0.84790 -4.17792 -0.31008
v 0.84790 -4.17792 0.09520
v 0.80710 -4.17792 0.13600
v 0.17737 -4.17792 0.13600
v -0.45236 -4.17792 0.13600
v -0.49316 -4.17792 0.09520
v -0.49316 -4.17792 -0.31008
v -0.39524 -4.17792 -0.40800
v 0.18360 -4.56960 0.15912
v 0.83966 -4.56960 0.16932
v 0.85680 -4.56960 0.18646
v 0.85680 -4.56960 0.18278
v 0.83966 -4.56960 0.19992
v 0.18360 -4.56960 0.19992
v -0.47246 -4.56960 0.19992
v -0.48960 -4.56960 0.18278
v -0.48960 -4.56960 0.18646
v -0.47246 -4.56960 0.16932
vt 0.00600 0.19449
vt -0.00432 0.19650
vt 0.11516 0.29579
vt -0.30784 0.23147
vt -0.26113 0.37175
vt -0.12001 0.39726
vt -0.01020 0.19795
vt 0.06475 0.30826
vt 0.28177 -0.01898
vt 0.26361 -0.01898
vt 0.32197 0.10982
vt 0.16743 0.10982
vt 0.45371 -0.05985
vt 0.44802 -0.05778
vt 0.41945 0.09738
vt 0.39234 0.10726
vt 0.36394 -0.11421
vt 0.35802 -0.11421
vt 0.32232 0.05493
vt 0.16961 0.05493
vt -0.25593 -0.25933
vt -0.25593 -0.29496
vt -0.02900 -0.40357
vt -0.02900 -0.14703
vt -0.23008 0.47336
vt -0.00183 0.49888
vt 0.15031 0.37117
vt 0.20072 0.35870
vt 0.38853 0.19229
vt 0.09861 0.19229
vt 0.38235 0.19854
vt 0.35525 0.20842
vt 0.29286 0.15860
vt 0.05100 0.15860
vt 0.11269 -0.47013
vt 0.11269 -0.07821
vt -0.17941 0.63916
vt -0.00031 0.66468
vt 0.28991 0.47381
vt 0.34031 0.46134
vt 0.49714 0.32685
vt -0.01369 0.32685
vt 0.32182 0.36358
vt 0.29472 0.37346
vt 0.24480 0.32773
vt 0.05322 0.32773
vt -0.07821 0.28224
vt -0.47013 0.28224
vt -0.57874 0.40874
vt 0.03409 0.40874
vt -0.17319 0.67125
vt -0.00001 0.69677
vt -0.22170 0.61829
vt -0.21548 0.65037
vt 0.51816 0.35195
vt -0.03542 0.35195
vt 0.31287 0.39553
vt 0.28577 0.40541
vt 0.23917 0.36047
vt 0.05365 0.36047
vt -0.59976 0.43323
vt 0.05582 0.43323
vt 0.19367 -0.10426
vt 0.02338 -0.07314
vt 0.19376 -0.02248
vt 0.03774 0.00864
vt -0.02007 -0.04767
vt -0.00570 0.03410
vt 0.46382 0.41472
vt -0.08976 0.41472
vt 0.29050 0.47539
vt 0.26339 0.48527
vt 0.22509 0.44231
vt 0.05472 0.44231
vt -0.54542 0.49443
vt 0.11016 0.49443
vt 0.19392 0.13562
vt 0.06552 0.16674
vt 0.02207 0.19220
vt 0.35877 0.53607
vt 0.01184 0.53607
vt 0.02728 0.24273
vt 0.05142 0.22693
vt 0.08905 0.38046
vt 0.06491 0.39626
vt 0.22509 0.30278
vt 0.05472 0.30278
vt 0.19788 0.45873
vt 0.05680 0.45873
vt -0.44037 0.61277
vt 0.00856 0.61277
vt 0.19407 0.28554
vt 0.08099 0.31666
vt 0.03754 0.34212
vt 0.25916 0.64820
vt 0.10819 0.64820
vt 0.11500 0.52606
vt 0.09086 0.54186
vt 0.18360 0.60662
vt 0.05877 0.60662
vt -0.34076 0.72499
vt -0.08779 0.72499
vt 0.19285 0.47275
vt 0.19907 0.47089
vt 0.18778 0.47572
vt 0.25916 0.37026
vt 0.10819 0.37026
vt 0.21119 0.56572
vt -0.25916 0.37026
vt -0.21119 0.56572
vt -0.21064 0.56572
vt 0.22985 0.70938
vt 0.23492 0.70606
vt 0.06202 0.78947
vt 0.05610 0.78947
vt -0.21759 0.86365
vt -0.20690 0.86365
vt -0.36822 -0.26361
vt -0.35802 -0.25933
vt -0.36394 -0.25933
vt -0.36822 -0.28177
vt -0.36394 -0.28605
vt -0.35802 -0.29496
vt -0.06630 0.21119
vt -0.06202 0.20690
vt -0.05610 0.20690
vt -0.05610 0.21759
vt -0.06202 0.21492
vt -0.06630 0.21064
vt -0.05610 -0.21759
vt -0.06630 -0.21064
vt -0.06630 -0.21119
vt 0.21801 -0.31948
vt 0.21801 -0.23397
vt -0.17155 -0.47013
vt -0.17155 -0.07821
vt -0.29682 -0.07601
vt -0.30274 -0.07601
vt -0.22818 0.15860
vt -0.39658 -0.01767
vt -0.40228 -0.01970
vt -0.33221 0.20100
vt -0.30504 0.21068
vt -0.23825 0.01279
vt -0.29382 0.01279
vt -0.38853 0.19763
vt -0.09861 0.19763
vt -0.05125 0.21590
vt -0.05708 0.21425
vt -0.20317 0.35542
vt -0.25314 0.34131
vt -0.20647 0.00951
vt -0.22858 0.01130
vt -0.33796 0.20422
vt 0.26470 0.27132
vt -0.08254 0.50157
vt 0.18284 0.47561
vt 0.47013 0.28250
vt 0.07821 0.28250
vt 0.57874 0.40900
vt -0.03409 0.40900
vt -0.18972 0.32773
vt -0.27770 0.36562
vt -0.25052 0.37530
vt -0.49714 0.32983
vt 0.01369 0.32983
vt -0.34001 0.45741
vt -0.38999 0.44331
vt 0.14255 0.64160
vt -0.08698 0.66756
vt 0.59976 0.43348
vt -0.05582 0.43348
vt -0.18189 0.36047
vt -0.26685 0.39748
vt -0.23968 0.40717
vt -0.51816 0.35553
vt 0.03542 0.35553
vt -0.36674 0.47701
vt -0.41672 0.46290
vt 0.13436 0.67373
vt -0.08784 0.69969
vt 0.54542 0.49469
vt -0.11016 0.49469
vt -0.16230 0.44231
vt -0.23974 0.47714
vt -0.21257 0.48682
vt -0.46382 0.41978
vt 0.08976 0.41978
vt 0.01232 -0.05480
vt -0.03012 -0.08054
vt -0.05010 0.00120
vt -0.00765 0.02694
vt -0.24980 -0.11200
vt -0.25196 -0.03026
vt 0.44037 0.61303
vt -0.00856 0.61303
vt -0.16230 0.30278
vt -0.12444 0.45873
vt -0.10971 0.24657
vt -0.08520 0.26179
vt -0.15264 0.40116
vt -0.12813 0.41638
vt -0.35877 0.54399
vt -0.01184 0.54399
vt -0.08872 0.15922
vt -0.04627 0.18496
vt -0.25614 0.12776
vt 0.34076 0.72524
vt 0.08779 0.72524
vt -0.10200 0.60662
vt -0.18216 0.54775
vt -0.15765 0.56297
vt -0.25916 0.65789
vt -0.10819 0.65789
vt -0.11238 0.30907
vt -0.06994 0.33481
vt -0.26009 0.27760
vt 0.21759 0.86409
vt 0.20690 0.86409
vt 0.06038 0.78947
vt 0.06630 0.78947
vt -0.33106 0.16013
vt -0.31328 0.18043
vt -0.53273 0.29685
vt -0.53647 0.29259
vt -0.30445 0.33063
vt -0.34774 -0.25916
vt -0.57381 -0.21064
vt -0.57381 -0.21119
vt -0.25873 0.46775
vt -0.26368 0.46474
vt -0.26990 0.46287
vt 0.22713 -0.23825
vt 0.22330 -0.23397
vt 0.22713 -0.29382
vt 0.22330 -0.29810
vt -0.06630 0.20690
vt -0.06038 0.20690
vt -0.05610 0.21119
vt -0.05610 0.21064
vt -0.06038 0.21492
vt -0.06630 0.21759
vt -0.06630 -0.21759
vt -0.05610 -0.21119
vt -0.05610 -0.21064
vt -0.03496 0.67735
vt -0.19619 0.67805
vt -0.17659 0.70554
vt -0.03934 0.64567
vt -0.18096 0.66145
vt -0.03977 0.67576
vt 0.17030 -0.45040
vt 0.16507 -0.45345
vt 0.19425 -0.47420
vt 0.16433 -0.49162
vt -0.08395 0.73479
vt -0.08486 0.73479
vt -0.05649 0.76131
vt 0.08486 0.73479
vt 0.00816 0.76131
vt 0.05649 0.76131
vt -0.20483 0.13271
vt -0.20055 0.13681
vt -0.20544 0.21382
vt -0.19524 0.22357
vt -0.03934 0.13681
vt -0.03977 0.22357
vt 0.12186 0.13681
vt 0.11571 0.22357
vt 0.12615 0.13271
vt 0.12591 0.21382
vt 0.08486 0.72914
vt 0.08395 0.72914
vt 0.05649 0.75566
vt -0.08486 0.72914
vt -0.05649 0.75566
vt -0.00816 0.75566
vt -0.22932 -0.44444
vt -0.23453 -0.44135
vt -0.25938 -0.46494
vt -0.22961 -0.48262
vt 0.11750 0.67792
vt -0.04372 0.67721
vt 0.09707 0.70541
vt 0.10143 0.66145
vt -0.18290 0.76831
vt -0.04113 0.78261
vt 0.26076 0.71043
vt 0.22951 0.72534
vt 0.31103 0.79448
vt 0.34227 0.77956
vt -0.00136 0.84701
vt 0.12036 0.84701
vt 0.06662 0.77944
vt 0.05228 0.77787
vt 0.05193 0.86440
vt 0.03759 0.86283
vt 0.19524 0.75128
vt 0.03977 0.75128
vt 0.04113 0.83748
vt 0.19718 0.83748
vt -0.11571 0.75128
vt -0.11493 0.83748
vt -0.14626 0.75135
vt -0.16063 0.75009
vt -0.16085 0.83629
vt -0.14648 0.83755
vt 0.00136 0.84135
vt -0.12036 0.84135
vt 0.35099 0.64293
vt 0.31956 0.65745
vt 0.34999 0.74980
vt 0.31856 0.76431
vt 0.10065 0.76831
vt -0.04113 0.78924
vt -0.18290 0.79430
vt -0.04434 0.99569
vt -0.18749 1.00076
vt -0.13251 0.79377
vt -0.16683 0.78921
vt -0.19257 0.99135
vt -0.22689 0.98679
vt 0.07752 1.04903
vt -0.02380 1.04903
vt 0.01732 1.06466
vt 0.00298 1.06309
vt 0.04434 1.04067
vt 0.20177 1.04067
vt -0.11309 1.04067
vt -0.16135 1.03948
vt -0.14698 1.04073
vt -0.07752 1.04332
vt 0.02380 1.04332
vt 0.12636 0.79561
vt 0.09215 0.80089
vt 0.15202 0.99848
vt 0.18624 0.99320
vt 0.10065 0.79430
vt 0.09881 1.00076
vt -0.04434 -0.45265
vt -0.18749 -0.47332
vt -0.04590 -0.64550
vt -0.20992 -0.64765
vt 0.30719 -0.57456
vt 0.27831 -0.59364
vt 0.28074 -0.74840
vt 0.27568 -0.75174
vt -0.04661 1.14697
vt 0.02380 1.04903
vt 0.04570 1.14697
vt 0.04661 1.14697
vt -0.00730 1.16175
vt -0.01333 1.16110
vt 0.04590 1.13981
vt 0.20992 1.13981
vt -0.11812 1.13981
vt -0.15390 1.13935
vt -0.14786 1.13987
vt 0.04661 1.14124
vt -0.02380 1.04332
vt -0.04661 1.14124
vt -0.04570 1.14124
vt -0.35172 -0.58300
vt -0.38048 -0.56373
vt -0.35780 -0.73773
vt -0.35277 -0.74110
vt 0.09881 -0.47332
vt 0.11812 -0.64765
vt 0.12615 -0.08395
vt -0.03934 -0.09078
vt 0.12186 -0.08823
vt -0.20483 -0.08395
vt -0.20055 -0.08823
vt -0.20483 0.08395
vt 0.12615 0.08486
vt -0.20483 0.08486
vt 0.12615 0.08395
vt -0.21420 -0.04570
vt -0.20992 -0.04998
vt -0.04590 -0.04998
vt 0.11812 -0.04998
vt 0.12240 -0.04570
vt 0.12240 -0.04661
vt 0.11812 -0.04233
vt -0.04590 -0.03978
vt -0.20992 -0.04233
vt -0.21420 -0.04661
vt -0.21420 0.04661
vt -0.21420 0.04570
vt 0.12240 0.04570
vt 0.12240 0.04661
vn 0.8313 -0.0637 -0.5521
vn 0.7273 0.0595 -0.6837
vn 0.7050 0.1955 -0.6817
vn 0.2950 0.3304 -0.8966
vn 0.4215 0.3758 -0.8253
vn 0.2397 0.4516 -0.8595
vn 0.7047 0.0819 -0.7047
vn 0.6968 0.1705 -0.6968
vn 0.4974 0.2767 -0.8222
vn 0.9803 -0.1976 0.0000
vn 0.9667 -0.2560 0.0000
vn 0.9537 -0.3008 0.0000
vn 0.6576 0.3675 0.6576
vn 0.6603 0.3577 0.6603
vn 0.6620 0.3514 0.6620
vn 0.0000 0.6639 0.7478
vn -0.5574 0.8303 0.0000
vn -0.5537 0.8327 0.0000
vn -0.5511 0.8344 0.0000
vn 0.3681 0.4174 -0.8308
vn 0.2877 0.5295 -0.7980
vn 0.1797 0.5658 -0.8047
vn 0.1714 0.5913 -0.7880
vn 0.4358 0.3655 -0.8225
vn 0.6698 0.3206 -0.6698
vn 0.5083 0.4417 -0.7393
vn 0.9348 -0.3552 0.0000
vn 0.6655 0.3380 0.6655
vn -0.5471 0.8371 0.0000
vn 0.1728 0.6230 -0.7629
vn 0.1920 0.6375 -0.7462
vn 0.6679 0.3285 -0.6679
vn 0.6636 0.3454 -0.6636
vn 0.9398 -0.3416 0.0000
vn 0.9477 -0.3193 0.0000
vn 0.6635 0.3457 0.6635
vn 0.6591 0.3623 0.6591
vn -0.9998 -0.0175 0.0000
vn 0.1913 0.6181 -0.7624
vn 0.2495 0.6102 -0.7519
vn 0.1968 0.6407 -0.7421
vn 0.5106 0.4594 -0.7268
vn 0.6461 0.4062 -0.6461
vn 0.9746 -0.2241 0.0000
vn 0.6411 0.4218 0.6411
vn 0.1950 -0.6493 -0.7351
vn 0.2483 -0.6626 -0.7066
vn 0.2066 -0.6548 -0.7270
vn 0.2981 -0.6617 -0.6880
vn 0.5547 -0.6201 -0.5547
vn 0.2393 -0.6535 -0.7181
vn 0.3527 -0.6508 -0.6724
vn 0.5676 -0.5963 -0.5676
vn 0.9801 -0.1985 0.0000
vn 0.9857 -0.1683 0.0000
vn 0.5603 -0.6100 0.5603
vn 0.5666 -0.5982 0.5666
vn 0.5732 -0.5855 0.5732
vn 0.0000 -0.6515 0.7587
vn 0.2820 -0.6436 -0.7115
vn 0.3980 -0.6471 -0.6502
vn 0.5399 -0.6458 -0.5399
vn 0.9920 -0.1263 0.0000
vn 0.5194 -0.6786 0.5194
vn 0.5025 -0.7036 0.5025
vn -1.0000 -0.0062 0.0000
vn -1.0000 0.0032 0.0000
vn 0.3068 -0.6419 -0.7027
vn 0.3188 -0.6327 -0.7057
vn 0.5129 -0.6885 -0.5129
vn 0.7097 -0.7045 0.0000
vn -0.7097 0.7045 0.0000
vn 0.4467 -0.7752 0.4467
vn -0.9998 0.0192 0.0000
vn 0.0000 1.0000 0.0000
vn 0.0000 -1.0000 0.0000
vn 0.4443 0.8959 0.0000
vn 0.4473 0.8944 0.0000
vn 0.4504 0.8929 0.0000
vn -0.6720 0.3111 0.6720
vn -0.6655 0.3381 0.6655
vn -0.6615 0.3534 0.6615
vn -0.9487 -0.3160 0.0000
vn -0.9518 -0.3066 0.0000
vn -0.9541 -0.2994 0.0000
vn -0.6997 0.1446 -0.6997
vn -0.6872 0.2358 -0.6872
vn -0.6789 0.2798 -0.6789
vn -0.9216 -0.2926 -0.2550
vn -0.1498 0.4563 -0.8771
vn -0.1445 0.5660 -0.8117
vn -0.1423 0.5337 -0.8336
vn 0.9998 0.0175 0.0000
vn -0.6538 0.3808 0.6538
vn -0.6543 0.3791 0.6543
vn -0.9563 -0.2924 0.0000
vn -0.9555 -0.2949 0.0000
vn -0.6585 0.3643 -0.6585
vn -0.6590 0.3626 -0.6590
vn -0.1409 0.6307 -0.7631
vn -0.1501 0.6389 -0.7545
vn -0.6562 0.3726 0.6562
vn -0.9524 -0.3048 0.0000
vn -0.6608 0.3560 -0.6608
vn -0.1535 0.6287 -0.7623
vn -0.1537 0.6422 -0.7510
vn -0.5377 -0.6494 -0.5377
vn -0.1972 -0.6740 -0.7119
vn -0.2399 -0.6771 -0.6957
vn -0.1511 -0.6578 -0.7379
vn -0.1596 -0.6638 -0.7307
vn -0.5432 -0.6402 0.5432
vn -0.5505 -0.6276 0.5505
vn -0.5581 -0.6140 0.5581
vn -0.9610 -0.2767 0.0000
vn -0.9700 -0.2433 0.0000
vn -0.2872 -0.6716 -0.6830
vn -0.5526 -0.6240 -0.5526
vn -0.1835 -0.6649 -0.7240
vn 0.9996 0.0289 -0.0000
vn 0.9993 0.0382 0.0000
vn -0.4895 -0.7216 0.4895
vn -0.4691 -0.7483 0.4691
vn -0.9806 -0.1961 0.0000
vn -0.3294 -0.6790 -0.6561
vn -0.5041 -0.7013 -0.5041
vn -0.2159 -0.6596 -0.7199
vn 0.9985 0.0542 0.0000
vn -0.5919 -0.7976 0.1163
vn -0.5817 -0.8093 0.0817
vn -0.4043 -0.8204 0.4043
vn -0.5867 -0.8068 0.0698
vn -0.5898 -0.7993 -0.1154
vn 0.6136 0.7896 0.0000
vn -0.5942 -0.7836 -0.1815
vn -0.4623 -0.7566 -0.4623
vn -0.2383 -0.6617 -0.7109
vn -0.3165 -0.6393 -0.7007
vn -0.0000 -0.2747 -0.9615
vn 0.0152 -0.2745 -0.9615
vn 0.0000 0.4840 -0.8751
vn 0.1404 0.5698 -0.8097
vn 0.0000 0.5844 -0.8114
vn 0.5749 -0.5822 -0.5749
vn -0.9997 -0.0227 0.0000
vn 0.9997 0.0227 0.0000
vn 0.0465 0.9978 0.0465
vn 0.0243 0.9554 0.2942
vn 0.3086 0.8997 0.3086
vn 0.0096 0.9519 0.3062
vn 0.0000 0.9566 0.2915
vn 0.0000 0.9522 0.3056
vn -0.0243 0.9554 0.2945
vn -0.0096 0.9519 0.3063
vn -0.0465 0.9978 0.0465
vn -0.3114 0.8978 0.3114
vn 1.0000 0.0091 0.0000
vn -1.0000 -0.0091 0.0000
vn -0.5688 -0.5941 -0.5688
vn -0.0152 -0.2749 -0.9613
vn -0.1407 0.5667 -0.8118
vn 0.1372 0.5937 -0.7929
vn 0.0000 0.5977 -0.8017
vn 0.6214 0.4773 -0.6214
vn 0.7040 0.0942 0.7040
vn 0.0000 0.1104 0.9939
vn -0.7053 0.0720 0.7053
vn -0.6272 0.4618 -0.6272
vn -0.1375 0.5909 -0.7949
vn -0.0000 -0.2075 -0.9782
vn 0.1659 -0.2016 -0.9653
vn -0.0000 -0.2070 -0.9784
vn 0.1651 -0.2011 -0.9656
vn 0.7008 -0.1327 -0.7008
vn 0.7029 0.1095 0.7029
vn 0.7015 0.1261 0.7015
vn 0.0000 0.1229 0.9924
vn 0.0000 0.1358 0.9907
vn 0.0000 0.1274 0.9919
vn -0.7044 0.0873 0.7044
vn -0.7033 0.1040 0.7033
vn -0.6986 -0.1545 -0.6986
vn -0.1657 -0.2066 -0.9643
vn -0.1649 -0.2061 -0.9645
vn -0.0000 -0.8617 -0.5075
vn 0.0839 -0.8375 -0.5400
vn -0.0000 -0.8445 -0.5356
vn 0.0471 -0.8433 -0.5354
vn 0.0087 -0.8269 -0.5623
vn 0.1510 -0.8425 -0.5171
vn 0.5307 -0.6608 -0.5307
vn 0.6966 0.1716 0.6966
vn 0.0000 0.1611 0.9869
vn -0.6991 0.1500 0.6991
vn -0.5248 -0.6701 -0.5248
vn -0.1504 -0.8439 -0.5150
vn -0.0837 -0.8383 -0.5388
vn -0.0471 -0.8437 -0.5347
vn -0.0087 -0.8269 -0.5622
s off
f 1/1/1 2/2/2 8/3/3
f 1/4/4 8/5/5 7/6/6
f 2/2/2 3/7/7 9/8/8
f 2/2/2 9/8/8 8/3/9
f 3/9/10 4/10/10 9/11/11
f 4/10/10 10/12/12 9/11/11
f 4/13/13 5/14/13 10/15/14
f 5/14/13 11/16/15 10/15/14
f 5/17/16 6/18/16 11/19/16
f 6/18/16 12/20/16 11/19/16
f 6/21/17 1/22/17 7/23/18
f 6/21/17 7/23/18 12/24/19
f 7/6/6 8/5/20 14/25/21
f 7/6/6 14/25/22 13/26/23
f 8/3/24 9/8/8 15/27/25
f 8/3/24 15/27/25 14/28/26
f 9/11/11 10/12/12 15/29/27
f 10/12/12 16/30/27 15/29/27
f 10/15/14 11/16/15 16/31/28
f 11/16/15 17/32/28 16/31/28
f 11/19/16 12/20/16 17/33/16
f 12/20/16 18/34/16 17/33/16
f 12/24/19 7/23/18 13/35/29
f 12/24/19 13/35/29 18/36/29
f 13/26/23 14/25/22 20/37/30
f 13/26/23 20/37/30 19/38/31
f 14/28/26 15/27/25 21/39/32
f 14/28/26 21/39/32 20/40/33
f 15/29/27 16/30/27 21/41/34
f 16/30/27 22/42/35 21/41/34
f 16/31/28 17/32/28 22/43/36
f 17/32/28 23/44/37 22/43/36
f 17/33/16 18/34/16 23/45/16
f 18/34/16 24/46/16 23/45/16
f 18/47/38 13/48/38 19/49/38
f 18/47/38 19/49/38 24/50/38
f 19/38/31 20/37/39 26/51/40
f 19/38/31 26/51/40 25/52/41
f 20/37/42 21/53/32 27/54/43
f 20/37/42 27/54/43 26/51/40
f 21/41/34 22/42/35 27/55/44
f 22/42/35 28/56/44 27/55/44
f 22/43/36 23/44/37 28/57/45
f 23/44/37 29/58/45 28/57/45
f 23/45/16 24/46/16 29/59/16
f 24/46/16 30/60/16 29/59/16
f 24/50/38 19/49/38 25/61/38
f 24/50/38 25/61/38 30/62/38
f 25/63/46 26/64/47 31/65/48
f 26/64/47 32/66/49 31/65/48
f 26/64/47 27/67/50 32/66/49
f 27/67/50 33/68/50 32/66/49
f 27/55/44 28/56/44 33/69/44
f 28/56/44 34/70/44 33/69/44
f 28/57/45 29/58/45 34/71/45
f 29/58/45 35/72/45 34/71/45
f 29/59/16 30/60/16 35/73/16
f 30/60/16 36/74/16 35/73/16
f 30/62/38 25/61/38 31/75/38
f 30/62/38 31/75/38 36/76/38
f 31/65/48 32/66/49 37/77/51
f 32/66/49 38/78/52 37/77/51
f 32/66/49 33/68/50 38/78/52
f 33/68/50 39/79/53 38/78/52
f 33/69/44 34/70/44 39/80/54
f 34/70/44 40/81/55 39/80/54
f 34/82/56 35/83/56 41/84/57
f 34/82/56 41/84/57 40/85/58
f 35/86/59 36/87/59 41/88/59
f 36/87/59 42/89/59 41/88/59
f 36/76/38 31/75/38 37/90/38
f 36/76/38 37/90/38 42/91/38
f 37/77/51 38/78/52 43/92/60
f 38/78/52 44/93/61 43/92/60
f 38/78/52 39/79/53 44/93/61
f 39/79/53 45/94/62 44/93/61
f 39/80/54 40/81/55 45/95/63
f 40/81/55 46/96/63 45/95/63
f 40/85/58 41/84/57 47/97/64
f 40/85/58 47/97/64 46/98/65
f 41/88/59 42/89/59 47/99/59
f 42/89/59 48/100/59 47/99/59
f 42/91/38 37/90/38 43/101/66
f 42/91/38 43/101/66 48/102/67
f 43/92/60 44/93/61 50/103/68
f 43/92/60 50/103/68 49/104/69
f 44/93/61 45/94/62 51/105/70
f 44/93/61 51/105/70 50/103/68
f 45/106/71 46/107/71 52/108/71
f 45/109/72 52/110/72 51/111/72
f 46/98/65 47/97/64 52/112/73
f 47/97/64 53/113/73 52/112/73
f 47/99/59 48/100/59 53/114/59
f 48/100/59 54/115/59 53/114/59
f 48/102/67 43/101/66 49/116/74
f 48/102/67 49/116/74 54/117/74
f 4/118/75 6/119/75 5/120/75
f 3/121/75 6/119/75 4/118/75
f 2/122/75 6/119/75 3/121/75
f 1/123/75 6/119/75 2/122/75
f 52/124/76 53/125/76 54/126/76
f 49/127/76 50/128/76 51/129/76
f 49/130/75 51/131/75 52/132/75
f 49/127/76 52/124/76 54/126/76
f 55/133/77 56/134/78 61/135/79
f 56/134/78 62/136/79 61/135/79
f 56/137/16 57/138/16 63/139/16
f 56/137/16 63/139/16 62/34/16
f 57/140/80 58/141/80 64/142/81
f 57/140/80 64/142/81 63/143/82
f 58/144/83 59/145/83 65/146/84
f 58/144/83 65/146/84 64/147/85
f 59/148/86 60/149/86 65/150/87
f 60/149/86 66/151/88 65/150/87
f 60/152/89 55/153/89 66/154/89
f 55/155/90 61/156/91 66/157/92
f 61/158/93 62/159/93 67/160/93
f 62/159/93 68/161/93 67/160/93
f 62/34/16 63/139/16 69/162/16
f 62/34/16 69/162/16 68/46/16
f 63/143/82 64/142/81 70/163/94
f 63/143/82 70/163/94 69/164/95
f 64/147/85 65/146/84 71/165/96
f 64/147/85 71/165/96 70/166/97
f 65/150/87 66/151/88 71/167/98
f 66/151/88 72/168/99 71/167/98
f 66/157/92 61/156/91 72/169/100
f 61/156/91 67/170/101 72/169/100
f 67/160/93 68/161/93 73/171/93
f 68/161/93 74/172/93 73/171/93
f 68/46/16 69/162/16 75/173/16
f 68/46/16 75/173/16 74/60/16
f 69/164/95 70/163/94 76/174/102
f 69/164/95 76/174/102 75/175/102
f 70/166/97 71/165/96 77/176/103
f 70/166/97 77/176/103 76/177/103
f 71/167/98 72/168/99 77/178/104
f 72/168/99 78/179/104 77/178/104
f 72/169/100 67/170/101 78/180/105
f 67/170/101 73/181/106 78/180/105
f 73/171/93 74/172/93 79/182/93
f 74/172/93 80/183/93 79/182/93
f 74/60/16 75/173/16 81/184/16
f 74/60/16 81/184/16 80/74/16
f 75/175/102 76/174/102 82/185/102
f 75/175/102 82/185/102 81/186/102
f 76/177/103 77/176/103 83/187/103
f 76/177/103 83/187/103 82/188/103
f 77/189/107 78/190/108 84/191/109
f 77/189/107 84/191/109 83/192/107
f 78/190/108 73/193/110 79/194/111
f 78/190/108 79/194/111 84/191/109
f 79/182/93 80/183/93 85/195/93
f 80/183/93 86/196/93 85/195/93
f 80/87/59 81/197/59 87/198/59
f 80/87/59 87/198/59 86/89/59
f 81/199/112 82/200/112 87/201/113
f 82/200/112 88/202/114 87/201/113
f 82/188/103 83/187/103 89/203/115
f 82/188/103 89/203/115 88/204/116
f 83/192/107 84/191/109 90/205/117
f 83/192/107 90/205/117 89/206/118
f 84/191/109 79/194/111 85/207/119
f 84/191/109 85/207/119 90/205/117
f 85/195/93 86/196/93 91/208/120
f 86/196/93 92/209/121 91/208/120
f 86/89/59 87/198/59 93/210/59
f 86/89/59 93/210/59 92/100/59
f 87/201/113 88/202/114 93/211/122
f 88/202/114 94/212/123 93/211/122
f 88/204/116 89/203/115 95/213/124
f 88/204/116 95/213/124 94/214/124
f 89/206/118 90/205/117 96/215/125
f 89/206/118 96/215/125 95/216/126
f 90/205/117 85/207/119 91/217/127
f 90/205/117 91/217/127 96/215/125
f 91/208/120 92/209/121 97/218/128
f 92/209/121 98/219/128 97/218/128
f 92/100/59 93/210/59 99/220/59
f 92/100/59 99/220/59 98/221/59
f 93/222/122 94/223/129 100/224/130
f 93/222/122 100/224/130 99/225/131
f 94/223/132 95/226/133 100/224/130
f 95/227/134 101/228/134 100/229/134
f 95/216/135 96/215/125 101/230/136
f 96/215/125 102/231/137 101/230/136
f 96/215/125 91/217/127 102/231/137
f 91/217/127 97/232/138 102/231/137
f 56/134/78 58/233/75 57/234/75
f 56/134/78 59/235/75 58/233/75
f 56/134/78 60/236/75 59/235/75
f 56/134/78 55/133/77 60/236/75
f 98/237/76 99/238/76 100/239/76
f 101/240/76 102/241/76 97/242/76
f 97/242/76 98/237/76 100/239/76
f 97/243/75 100/244/75 101/245/75
f 103/246/139 104/247/140 114/248/140
f 103/249/141 114/250/142 113/251/143
f 104/252/144 105/253/144 114/254/144
f 105/253/144 115/255/144 114/254/144
f 105/256/145 106/257/145 115/258/145
f 106/259/146 116/260/146 115/261/146
f 106/262/147 107/263/148 116/264/149
f 107/263/148 117/265/150 116/264/149
f 107/263/148 108/266/151 117/265/150
f 108/266/151 118/267/152 117/265/150
f 108/266/151 109/268/153 119/269/154
f 108/266/151 119/269/154 118/267/152
f 109/268/153 110/270/155 120/271/156
f 109/268/153 120/271/156 119/269/154
f 110/272/157 111/273/157 121/274/157
f 110/275/158 121/276/158 120/277/158
f 111/278/159 112/279/159 122/280/159
f 111/278/159 122/280/159 121/281/159
f 112/282/160 103/283/139 122/284/160
f 103/249/141 113/251/143 122/285/161
f 113/251/143 114/250/142 124/286/162
f 113/251/143 124/286/162 123/287/163
f 114/288/164 115/289/164 125/290/164
f 114/288/164 125/290/164 124/291/164
f 115/261/146 116/260/146 126/292/146
f 115/261/146 126/292/146 125/293/146
f 116/294/165 117/295/165 126/296/165
f 117/295/165 127/297/165 126/296/165
f 117/298/166 118/299/166 128/300/166
f 117/298/166 128/300/166 127/301/166
f 118/299/166 119/302/166 129/303/166
f 118/299/166 129/303/166 128/300/166
f 119/304/167 120/305/167 130/306/167
f 119/304/167 130/306/167 129/307/167
f 120/277/158 121/276/158 130/308/158
f 121/276/158 131/309/158 130/308/158
f 121/310/168 122/311/168 131/312/168
f 122/311/168 132/313/168 131/312/168
f 122/285/161 113/251/143 132/314/169
f 113/251/143 123/287/163 132/314/169
f 123/315/170 124/316/171 133/317/172
f 124/316/171 134/318/173 133/317/172
f 124/319/174 125/320/174 134/321/174
f 125/320/174 135/322/174 134/321/174
f 125/293/146 126/292/146 135/323/146
f 126/292/146 136/324/146 135/323/146
f 126/296/165 127/297/165 136/325/175
f 127/297/165 137/326/176 136/325/175
f 127/301/166 128/300/166 138/327/177
f 127/301/166 138/327/177 137/328/178
f 128/300/166 129/303/166 139/329/179
f 128/300/166 139/329/179 138/327/177
f 129/307/167 130/306/167 140/330/180
f 129/307/167 140/330/180 139/331/181
f 130/308/158 131/309/158 141/332/158
f 130/308/158 141/332/158 140/333/158
f 131/334/182 132/335/182 142/336/182
f 131/334/182 142/336/182 141/337/182
f 132/338/183 123/315/170 133/317/172
f 132/338/183 133/317/172 142/339/184
f 133/340/185 134/341/186 143/342/187
f 134/341/188 144/343/189 143/342/187
f 134/344/190 135/345/191 144/346/191
f 135/345/191 145/347/191 144/346/191
f 135/323/146 136/324/146 145/348/146
f 136/349/145 146/350/145 145/351/145
f 136/325/175 137/326/176 146/352/192
f 137/326/176 147/353/192 146/352/192
f 137/328/178 138/327/177 148/354/193
f 137/328/178 148/354/193 147/355/193
f 138/327/177 139/329/179 148/354/193
f 139/329/179 149/356/193 148/354/193
f 139/331/181 140/330/180 150/357/194
f 139/331/181 150/357/194 149/358/194
f 140/333/158 141/332/158 151/359/158
f 140/360/157 151/361/157 150/362/157
f 141/363/195 142/364/196 152/365/195
f 141/363/195 152/365/195 151/366/195
f 142/367/197 133/340/185 143/342/187
f 142/367/198 143/342/187 152/368/199
f 108/266/151 110/270/155 109/268/153
f 106/262/147 108/266/151 107/263/148
f 111/369/75 103/370/75 112/371/75
f 103/370/75 105/372/75 104/373/75
f 111/369/75 105/372/75 103/370/75
f 106/262/147 110/270/155 108/266/151
f 105/374/76 110/375/76 106/376/76
f 105/374/76 111/377/76 110/375/76
f 146/378/76 147/379/76 148/380/76
f 148/380/76 149/381/76 150/382/76
f 151/383/76 152/384/76 143/385/76
f 143/385/76 144/386/76 145/387/76
f 151/383/76 143/385/76 145/387/76
f 146/378/76 148/380/76 150/382/76
f 145/388/75 146/389/75 150/390/75
f 145/388/75 150/390/75 151/391/75
