# mech2 legs - Leg_L_Thigh_Blue.obj  (generated by source/build.py; do not edit by hand)
# frame: Leg_L hip-joint centre = origin, studs, +Y up, -Z forward
# segment: Thigh  colour: Blue RGB (47, 111, 191)  pieces: thigh_core, kneeback_inset
# bbox centre in leg frame: [0.0286, -2.6112, 0.3264]  size: [1.4933, 4.488, 1.9584]
# segment pivot (Hip) in leg frame: [-0.0, 0.0, 0.0]
o Leg_L_Thigh_Blue
v 0.04080 -0.36720 -0.65280
v -0.61200 -0.36720 -0.65280
v -0.69360 -0.36720 -0.57120
v -0.69360 -0.36720 0.40800
v -0.61200 -0.36720 0.48960
v 0.04080 -0.36720 0.48960
v 0.69360 -0.36720 0.48960
v 0.77520 -0.36720 0.40800
v 0.77520 -0.36720 -0.57120
v 0.69360 -0.36720 -0.65280
v 0.02612 -0.81600 -0.63329
v -0.61200 -0.81600 -0.63329
v -0.69360 -0.81600 -0.55169
v -0.69360 -0.81600 0.97920
v -0.61200 -0.81600 1.06080
v 0.02612 -0.81600 1.06080
v 0.66424 -0.81600 1.06080
v 0.74584 -0.81600 0.97920
v 0.74584 -0.81600 -0.55169
v 0.66424 -0.81600 -0.63329
v 0.01010 -1.30560 -0.61200
v -0.61200 -1.30560 -0.61200
v -0.69360 -1.30560 -0.53040
v -0.69360 -1.30560 0.97920
v -0.61200 -1.30560 1.06080
v 0.01010 -1.30560 1.06080
v 0.63221 -1.30560 1.06080
v 0.71381 -1.30560 0.97920
v 0.71381 -1.30560 -0.53040
v 0.63221 -1.30560 -0.61200
v -0.04328 -2.93760 -0.36720
v -0.61200 -2.93760 -0.36720
v -0.69360 -2.93760 -0.28560
v -0.69360 -2.93760 0.97920
v -0.61200 -2.93760 1.06080
v -0.04328 -2.93760 1.06080
v 0.52544 -2.93760 1.06080
v 0.60704 -2.93760 0.97920
v 0.60704 -2.93760 -0.28560
v 0.52544 -2.93760 -0.36720
v -0.08065 -4.08000 -0.16320
v -0.61200 -4.08000 -0.16320
v -0.69360 -4.08000 -0.08160
v -0.69360 -4.08000 0.97920
v -0.61200 -4.08000 1.06080
v -0.08065 -4.08000 1.06080
v 0.45071 -4.08000 1.06080
v 0.53231 -4.08000 0.97920
v 0.53231 -4.08000 -0.08160
v 0.45071 -4.08000 -0.16320
v -0.09666 -4.56960 0.05440
v -0.61200 -4.56960 0.05440
v -0.69360 -4.56960 0.13600
v -0.69360 -4.56960 0.97920
v -0.61200 -4.56960 1.06080
v -0.09666 -4.56960 1.06080
v 0.41868 -4.56960 1.06080
v 0.50028 -4.56960 0.97920
v 0.50028 -4.56960 0.13600
v 0.41868 -4.56960 0.05440
v -0.10200 -4.73280 0.12693
v -0.61200 -4.73280 0.12693
v -0.69360 -4.73280 0.20853
v -0.69360 -4.73280 0.38080
v -0.61200 -4.73280 0.46240
v -0.10200 -4.73280 0.46240
v 0.40800 -4.73280 0.46240
v 0.48960 -4.73280 0.38080
v 0.48960 -4.73280 0.20853
v 0.40800 -4.73280 0.12693
v -0.09792 -3.59040 0.16320
v -0.44880 -3.59040 0.16320
v -0.48960 -3.59040 0.20400
v -0.48960 -3.59040 1.22400
v -0.44880 -3.59040 1.26480
v -0.09792 -3.59040 1.26480
v 0.25296 -3.59040 1.26480
v 0.29376 -3.59040 1.22400
v 0.29376 -3.59040 0.20400
v 0.25296 -3.59040 0.16320
v -0.11582 -3.75360 0.16320
v -0.47828 -3.75360 0.16320
v -0.51908 -3.75360 0.20400
v -0.51908 -3.75360 1.26480
v -0.47828 -3.75360 1.30560
v -0.11582 -3.75360 1.30560
v 0.24664 -3.75360 1.30560
v 0.28744 -3.75360 1.26480
v 0.28744 -3.75360 0.20400
v 0.24664 -3.75360 0.16320
v -0.16057 -4.16160 0.16320
v -0.55198 -4.16160 0.16320
v -0.59278 -4.16160 0.20400
v -0.59278 -4.16160 1.02000
v -0.55198 -4.16160 1.06080
v -0.16057 -4.16160 1.06080
v 0.23085 -4.16160 1.06080
v 0.27165 -4.16160 1.02000
v 0.27165 -4.16160 0.20400
v 0.23085 -4.16160 0.16320
v -0.19637 -4.48800 0.16320
v -0.61095 -4.48800 0.16320
v -0.65175 -4.48800 0.20400
v -0.65175 -4.48800 0.87312
v -0.61095 -4.48800 0.91392
v -0.19637 -4.48800 0.91392
v 0.21821 -4.48800 0.91392
v 0.25901 -4.48800 0.87312
v 0.25901 -4.48800 0.20400
v 0.21821 -4.48800 0.16320
v -0.23664 -4.85520 0.16320
v -0.67728 -4.85520 0.16320
v -0.71808 -4.85520 0.20400
v -0.71808 -4.85520 0.70992
v -0.67728 -4.85520 0.75072
v -0.23664 -4.85520 0.75072
v 0.20400 -4.85520 0.75072
v 0.24480 -4.85520 0.70992
v 0.24480 -4.85520 0.20400
v 0.20400 -4.85520 0.16320
vt -0.01020 0.06291
vt -0.00653 0.17432
vt 0.15300 0.06291
vt 0.15300 0.17432
vt 0.00068 0.06347
vt 0.01800 0.17392
vt 0.02931 0.05988
vt 0.04663 0.17033
vt -0.14280 0.09180
vt -0.13792 0.20400
vt 0.10200 0.09180
vt 0.24480 0.20400
vt 0.15233 0.13692
vt 0.15233 0.31853
vt 0.12836 0.15296
vt 0.12836 0.33457
vt 0.15300 0.15296
vt -0.00653 0.33457
vt -0.01020 0.15296
vt 0.15300 0.33457
vt -0.16606 0.33457
vt -0.17340 0.15296
vt -0.14222 0.15282
vt -0.15771 0.31866
vt -0.16642 0.13711
vt -0.13351 0.33437
vt -0.10200 0.07895
vt 0.13792 0.19139
vt 0.14280 0.07895
vt -0.24480 0.19139
vt -0.04393 0.04324
vt -0.06100 0.15398
vt -0.01549 0.04807
vt -0.03256 0.15882
vt -0.17340 0.06291
vt -0.16606 0.17432
vt -0.00253 0.29586
vt 0.15300 0.29586
vt 0.03689 0.29441
vt 0.06552 0.29083
vt -0.13260 0.32640
vt 0.24480 0.32640
vt 0.05049 0.20400
vt 0.07934 0.32640
vt 0.07934 0.20400
vt 0.05049 0.32640
vt -0.15300 0.20400
vt 0.00253 0.32640
vt 0.00653 0.20400
vt -0.15300 0.32640
vt 0.15805 0.32640
vt 0.16606 0.20400
vt -0.06127 0.19272
vt -0.03245 0.31405
vt -0.03245 0.19139
vt -0.06127 0.31539
vt 0.13260 0.31405
vt -0.24480 0.31405
vt -0.07961 0.27479
vt -0.05117 0.27963
vt -0.15805 0.29586
vt 0.01082 0.70834
vt 0.15300 0.70834
vt 0.13083 0.69606
vt 0.15946 0.69247
vt -0.07140 0.73440
vt 0.24480 0.73440
vt 0.07934 0.73440
vt 0.05049 0.73440
vt -0.01082 0.73440
vt -0.15300 0.73440
vt 0.13136 0.73440
vt -0.03245 0.72293
vt -0.06127 0.72426
vt 0.07140 0.72293
vt -0.24480 0.72293
vt -0.14440 0.68232
vt -0.17284 0.67749
vt -0.13136 0.70834
vt 0.02016 0.99845
vt 0.15300 0.99845
vt 0.20240 0.97721
vt 0.23103 0.97362
vt -0.02040 1.02000
vt 0.24480 1.02000
vt 0.07934 1.02000
vt 0.05049 1.02000
vt -0.02016 1.02000
vt -0.15300 1.02000
vt 0.11268 1.02000
vt -0.03245 1.00914
vt -0.06127 1.01047
vt 0.02040 1.00914
vt -0.24480 1.00914
vt -0.21551 0.96421
vt -0.24395 0.95937
vt -0.11268 0.99845
vt 0.02417 1.12828
vt 0.15300 1.12828
vt 0.25627 1.09770
vt 0.28489 1.09411
vt 0.03400 1.14240
vt 0.24480 1.14240
vt 0.07934 1.14240
vt 0.05049 1.14240
vt -0.02417 1.14240
vt -0.15300 1.14240
vt 0.10467 1.14240
vt -0.03245 1.13180
vt -0.06127 1.13313
vt -0.03400 1.13180
vt -0.24480 1.13180
vt -0.26933 1.08502
vt -0.29777 1.08018
vt -0.10467 1.12828
vt 0.02550 1.17155
vt 0.15300 1.17155
vt 0.27422 1.13787
vt 0.30285 1.13428
vt 0.09520 1.18320
vt 0.05213 1.18320
vt 0.17340 -0.04191
vt 0.15300 0.09242
vt 0.15300 -0.06200
vt 0.17340 0.11251
vt 0.02550 0.09242
vt 0.02417 -0.06200
vt -0.10200 0.09242
vt -0.10467 -0.06200
vt -0.12507 -0.04191
vt -0.12240 0.11251
vt -0.09520 1.17269
vt -0.05213 1.17269
vt -0.28727 1.12529
vt -0.31571 1.12045
vt -0.10200 1.17155
vt -0.01020 0.12240
vt -0.17340 0.12240
vt -0.19380 0.10200
vt -0.19380 -0.14280
vt 0.15300 0.12240
vt -0.17340 -0.16320
vt -0.01020 -0.16320
vt 0.15300 -0.16320
vt 0.17340 -0.14280
vt 0.17340 0.10200
vt 0.15300 0.17501
vt 0.17340 0.15492
vt 0.02550 0.17501
vt -0.12240 0.15492
vt -0.10200 0.17501
vt 0.02448 0.89760
vt 0.02895 0.93840
vt 0.11220 0.89760
vt 0.11957 0.93840
vt 0.22005 0.87605
vt 0.23039 0.91620
vt 0.23436 0.87424
vt 0.24470 0.91439
vt 0.05100 0.90506
vt 0.05100 0.94652
vt 0.30600 0.90506
vt 0.31620 0.94652
vt 0.38948 0.87282
vt 0.40333 0.91321
vt 0.40333 0.86878
vt 0.41718 0.90917
vt -0.11220 0.94749
vt -0.02895 0.98955
vt -0.02448 0.94749
vt -0.11957 0.98955
vt 0.06166 0.98955
vt 0.06324 0.94749
vt -0.31251 0.89128
vt -0.31251 0.93298
vt -0.29824 0.89339
vt -0.32678 0.93088
vt -0.30600 0.89409
vt -0.05100 0.93492
vt -0.05100 0.89409
vt -0.31620 0.93492
vt -0.06343 0.89890
vt -0.06120 0.93967
vt -0.04901 0.89851
vt -0.04678 0.93928
vt -0.06324 0.89760
vt -0.06166 0.93840
vt 0.04014 1.04040
vt 0.13800 1.04040
vt 0.25624 1.01658
vt 0.27056 1.01476
vt 0.25500 1.05017
vt 0.05100 1.05017
vt 0.31227 0.79575
vt 0.29447 0.90849
vt 0.32635 0.79262
vt 0.28039 0.91163
vt -0.11957 0.69326
vt -0.04014 0.81186
vt -0.02895 0.69326
vt -0.13800 0.81186
vt 0.05771 0.81186
vt 0.06166 0.69326
vt 0.08602 0.79547
vt 0.16181 0.88701
vt 0.09960 0.79061
vt 0.17539 0.88215
vt -0.25500 1.03699
vt -0.05100 1.03699
vt -0.05562 1.04159
vt -0.04120 1.04120
vt -0.05771 1.04040
vt 0.04909 1.12200
vt 0.15274 1.12200
vt 0.27693 1.09688
vt 0.29124 1.09506
vt 0.21828 1.13309
vt 0.05100 1.13309
vt 0.27700 0.99743
vt 0.26292 1.00057
vt -0.04909 0.90127
vt -0.15274 0.90127
vt 0.05455 0.90127
vt 0.21324 0.96025
vt 0.22682 0.95538
vt -0.21828 1.11866
vt -0.05100 1.11866
vt -0.05115 1.12313
vt -0.03673 1.12274
vt -0.05455 1.12200
vt 0.05916 1.21380
vt 0.16932 1.21380
vt 0.30019 1.18721
vt 0.31450 1.18540
vt 0.17748 1.22638
vt 0.05100 1.22638
vt 0.25768 1.09733
vt 0.24360 1.10046
vt -0.05916 1.00162
vt -0.16932 1.00162
vt 0.05100 1.00162
vt 0.27072 1.04263
vt 0.28430 1.03777
vt -0.17748 1.21052
vt -0.05100 1.21052
vt -0.04613 1.21486
vt -0.03171 1.21447
vt -0.05100 1.21380
vt 0.02448 0.31620
vt -0.06324 0.31620
vt -0.07344 0.30600
vt -0.07344 0.05100
vt 0.11220 0.31620
vt -0.06324 0.04080
vt 0.02448 0.04080
vt 0.11220 0.04080
vt 0.12240 0.30600
vt 0.12240 0.05100
vt 0.17952 -0.17748
vt 0.05916 -0.18768
vt 0.16932 -0.18768
vt 0.17952 -0.05100
vt -0.05100 -0.18768
vt 0.05916 -0.04080
vt 0.16932 -0.04080
vt -0.05100 -0.04080
vt -0.06120 -0.17748
vt -0.06120 -0.05100
vn 0.0000 -0.0434 -0.9991
vn -0.7068 -0.0307 -0.7068
vn -1.0000 0.0000 0.0000
vn -0.5256 0.6689 0.5256
vn 0.0000 0.7863 0.6178
vn 0.5378 0.6493 0.5378
vn 0.9979 -0.0653 0.0000
vn 0.7050 -0.0768 -0.7050
vn 0.0000 -0.1237 -0.9923
vn 0.0000 -0.1343 -0.9909
vn -0.7050 -0.0776 -0.7050
vn -0.7039 -0.0958 -0.7039
vn -0.7071 0.0000 0.7071
vn 0.0000 0.0000 1.0000
vn 0.7064 -0.0462 0.7064
vn 0.7008 -0.1337 -0.7008
vn 0.0000 -0.1091 -0.9940
vn 0.0000 -0.1593 -0.9872
vn 0.0000 -0.1642 -0.9864
vn -0.7028 -0.1106 -0.7028
vn -0.7022 -0.1170 -0.7022
vn 0.6985 -0.1556 -0.6985
vn 0.6978 -0.1619 -0.6978
vn 0.0000 -0.1553 -0.9879
vn 0.0000 -0.2484 -0.9686
vn 0.0000 -0.2876 -0.9578
vn -0.6983 -0.1575 -0.6983
vn -0.6916 -0.2084 -0.6916
vn 0.6926 -0.2015 -0.6926
vn 0.6845 -0.2510 -0.6845
vn 0.0000 -0.2187 -0.9758
vn 0.0000 -0.4061 -0.9138
vn -0.6746 -0.2998 -0.6746
vn 0.6652 -0.3392 -0.6652
vn -0.2545 -0.9330 0.2545
vn -0.0408 -0.9849 0.1683
vn -0.0194 -0.9646 0.2631
vn -0.0508 -0.9974 0.0508
vn 0.0000 -0.9847 0.1740
vn 0.0000 -0.9648 0.2631
vn 0.0303 -0.9749 0.2208
vn 0.0359 -0.9643 0.2624
vn 0.2506 -0.9351 0.2506
vn 0.2003 -0.9590 0.2003
vn 0.0000 1.0000 0.0000
vn 0.0000 -1.0000 0.0000
vn 0.0000 0.0000 -1.0000
vn -0.7014 0.1267 -0.7014
vn -0.9841 0.1778 0.0000
vn -0.6764 0.2913 0.6764
vn 0.0000 0.2425 0.9701
vn 0.6993 0.1478 0.6993
vn 0.9993 -0.0387 0.0000
vn 0.7068 -0.0274 -0.7068
vn -0.6779 -0.2843 0.6779
vn -0.6833 -0.2573 0.6833
vn -0.6889 -0.2253 0.6889
vn 0.0000 -0.5145 0.8575
vn 0.0000 -0.4695 0.8830
vn 0.0000 -0.4520 0.8920
vn 0.0000 -0.4859 0.8740
vn 0.6444 -0.4116 0.6444
vn 0.6516 -0.3883 0.6516
vn 0.6596 -0.3604 0.6596
vn -0.6948 -0.1858 0.6948
vn -0.6950 -0.1845 0.6950
vn 0.0000 -0.4081 0.9129
vn 0.0000 -0.4074 0.9132
vn 0.0000 -0.4088 0.9126
vn 0.6686 -0.3254 0.6686
vn 0.6689 -0.3243 0.6689
vn -0.6951 -0.1834 0.6951
vn 0.0000 -0.4061 0.9138
vn 0.6691 -0.3233 0.6691
s off
f 1/1/1 11/2/1 2/3/1
f 2/3/1 11/2/1 12/4/1
f 2/5/2 12/6/2 3/7/2
f 3/7/2 12/6/2 13/8/2
f 3/9/3 13/10/3 4/11/3
f 4/11/3 13/10/3 14/12/3
f 4/13/4 14/14/4 5/15/4
f 5/15/4 14/14/4 15/16/4
f 5/17/5 16/18/5 6/19/5
f 5/17/5 15/20/5 16/18/5
f 6/19/5 17/21/5 7/22/5
f 6/19/5 16/18/5 17/21/5
f 7/23/6 18/24/6 8/25/6
f 7/23/6 17/26/6 18/24/6
f 8/27/7 19/28/7 9/29/7
f 8/27/7 18/30/7 19/28/7
f 9/31/8 19/32/8 10/33/8
f 10/33/8 19/32/8 20/34/8
f 10/35/1 20/36/1 1/1/1
f 1/1/1 20/36/1 11/2/1
f 11/2/1 21/37/9 12/4/1
f 12/4/1 21/37/9 22/38/10
f 12/6/2 22/39/11 13/8/2
f 13/8/2 22/39/11 23/40/12
f 13/10/3 23/41/3 14/12/3
f 14/12/3 23/41/3 24/42/3
f 14/43/13 25/44/13 15/45/13
f 14/43/13 24/46/13 25/44/13
f 15/47/14 26/48/14 16/49/14
f 15/47/14 25/50/14 26/48/14
f 16/49/14 27/51/14 17/52/14
f 16/49/14 26/48/14 27/51/14
f 17/53/15 28/54/15 18/55/15
f 17/53/15 27/56/15 28/54/15
f 18/30/7 29/57/7 19/28/7
f 18/30/7 28/58/7 29/57/7
f 19/32/8 29/59/16 20/34/8
f 20/34/8 29/59/16 30/60/16
f 20/36/1 30/61/17 11/2/1
f 11/2/1 30/61/17 21/37/9
f 21/37/9 31/62/18 22/38/10
f 22/38/10 31/62/18 32/63/19
f 22/39/11 32/64/20 23/40/12
f 23/40/12 32/64/20 33/65/21
f 23/41/3 33/66/3 24/42/3
f 24/42/3 33/66/3 34/67/3
f 24/46/13 35/68/13 25/44/13
f 24/46/13 34/69/13 35/68/13
f 25/50/14 36/70/14 26/48/14
f 25/50/14 35/71/14 36/70/14
f 26/48/14 37/72/14 27/51/14
f 26/48/14 36/70/14 37/72/14
f 27/56/15 38/73/15 28/54/15
f 27/56/15 37/74/15 38/73/15
f 28/58/7 39/75/7 29/57/7
f 28/58/7 38/76/7 39/75/7
f 29/59/16 40/77/22 30/60/16
f 29/59/16 39/78/23 40/77/22
f 30/61/17 40/79/24 21/37/9
f 21/37/9 40/79/24 31/62/18
f 31/62/18 41/80/25 32/63/19
f 32/63/19 41/80/25 42/81/26
f 32/64/20 42/82/27 33/65/21
f 33/65/21 42/82/27 43/83/28
f 33/66/3 43/84/3 34/67/3
f 34/67/3 43/84/3 44/85/3
f 34/69/13 45/86/13 35/68/13
f 34/69/13 44/87/13 45/86/13
f 35/71/14 46/88/14 36/70/14
f 35/71/14 45/89/14 46/88/14
f 36/70/14 47/90/14 37/72/14
f 36/70/14 46/88/14 47/90/14
f 37/74/15 48/91/15 38/73/15
f 37/74/15 47/92/15 48/91/15
f 38/76/7 49/93/7 39/75/7
f 38/76/7 48/94/7 49/93/7
f 39/78/23 50/95/29 40/77/22
f 39/78/23 49/96/30 50/95/29
f 40/79/24 50/97/31 31/62/18
f 31/62/18 50/97/31 41/80/25
f 41/80/25 51/98/32 42/81/26
f 42/81/26 51/98/32 52/99/32
f 42/82/27 52/100/33 43/83/28
f 43/83/28 52/100/33 53/101/33
f 43/84/3 53/102/3 44/85/3
f 44/85/3 53/102/3 54/103/3
f 44/87/13 55/104/13 45/86/13
f 44/87/13 54/105/13 55/104/13
f 45/89/14 56/106/14 46/88/14
f 45/89/14 55/107/14 56/106/14
f 46/88/14 57/108/14 47/90/14
f 46/88/14 56/106/14 57/108/14
f 47/92/15 58/109/15 48/91/15
f 47/92/15 57/110/15 58/109/15
f 48/94/7 59/111/7 49/93/7
f 48/94/7 58/112/7 59/111/7
f 49/96/30 60/113/34 50/95/29
f 49/96/30 59/114/34 60/113/34
f 50/97/31 60/115/32 41/80/25
f 41/80/25 60/115/32 51/98/32
f 51/98/32 61/116/32 52/99/32
f 52/99/32 61/116/32 62/117/32
f 52/100/33 62/118/33 53/101/33
f 53/101/33 62/118/33 63/119/33
f 53/102/3 64/120/3 54/103/3
f 53/102/3 63/121/3 64/120/3
f 54/122/35 65/123/36 55/124/37
f 54/122/35 64/125/38 65/123/36
f 55/124/37 66/126/39 56/127/40
f 55/124/37 65/123/36 66/126/39
f 56/127/40 67/128/41 57/129/42
f 56/127/40 66/126/39 67/128/41
f 57/129/42 67/128/41 58/130/43
f 58/130/43 67/128/41 68/131/44
f 58/112/7 68/132/7 59/111/7
f 59/111/7 68/132/7 69/133/7
f 59/114/34 70/134/34 60/113/34
f 59/114/34 69/135/34 70/134/34
f 60/115/32 70/136/32 51/98/32
f 51/98/32 70/136/32 61/116/32
f 6/137/45 7/138/45 8/139/45
f 6/137/45 8/139/45 9/140/45
f 5/141/45 6/137/45 9/140/45
f 9/140/45 10/142/45 1/143/45
f 5/141/45 9/140/45 1/143/45
f 5/141/45 1/143/45 2/144/45
f 5/141/45 2/144/45 3/145/45
f 3/145/45 4/146/45 5/141/45
f 62/147/46 64/125/38 63/148/46
f 61/149/46 64/125/38 62/147/46
f 67/128/41 69/150/46 68/131/44
f 66/126/39 69/150/46 67/128/41
f 61/149/46 65/123/36 64/125/38
f 61/149/46 66/126/39 65/123/36
f 61/149/46 69/150/46 66/126/39
f 61/149/46 70/151/46 69/150/46
f 71/152/47 81/153/47 72/154/47
f 72/154/47 81/153/47 82/155/47
f 72/156/48 82/157/48 73/158/48
f 73/158/48 82/157/48 83/159/48
f 73/160/49 83/161/49 74/162/49
f 74/162/49 83/161/49 84/163/49
f 74/164/50 84/165/50 75/166/50
f 75/166/50 84/165/50 85/167/50
f 75/168/51 86/169/51 76/170/51
f 75/168/51 85/171/51 86/169/51
f 76/170/51 87/172/51 77/173/51
f 76/170/51 86/169/51 87/172/51
f 77/174/52 88/175/52 78/176/52
f 77/174/52 87/177/52 88/175/52
f 78/178/53 89/179/53 79/180/53
f 78/178/53 88/181/53 89/179/53
f 79/182/54 89/183/54 80/184/54
f 80/184/54 89/183/54 90/185/54
f 80/186/47 90/187/47 71/152/47
f 71/152/47 90/187/47 81/153/47
f 81/153/47 91/188/47 82/155/47
f 82/155/47 91/188/47 92/189/47
f 82/157/48 92/190/48 83/159/48
f 83/159/48 92/190/48 93/191/48
f 83/161/49 94/192/49 84/163/49
f 83/161/49 93/193/49 94/192/49
f 84/194/55 95/195/56 85/196/55
f 84/194/55 94/197/57 95/195/56
f 85/198/58 96/199/59 86/200/58
f 85/198/58 95/201/60 96/199/59
f 86/200/58 97/202/61 87/203/58
f 86/200/58 96/199/59 97/202/61
f 87/204/62 97/205/63 88/206/62
f 88/206/62 97/205/63 98/207/64
f 88/181/53 98/208/53 89/179/53
f 89/179/53 98/208/53 99/209/53
f 89/183/54 99/210/54 90/185/54
f 90/185/54 99/210/54 100/211/54
f 90/187/47 100/212/47 81/153/47
f 81/153/47 100/212/47 91/188/47
f 91/188/47 101/213/47 92/189/47
f 92/189/47 101/213/47 102/214/47
f 92/190/48 102/215/48 93/191/48
f 93/191/48 102/215/48 103/216/48
f 93/193/49 104/217/49 94/192/49
f 93/193/49 103/218/49 104/217/49
f 94/197/57 105/219/65 95/195/56
f 94/197/57 104/220/66 105/219/65
f 95/201/60 106/221/67 96/199/59
f 95/201/60 105/222/68 106/221/67
f 96/199/59 107/223/69 97/202/61
f 96/199/59 106/221/67 107/223/69
f 97/205/63 107/224/70 98/207/64
f 98/207/64 107/224/70 108/225/71
f 98/208/53 108/226/53 99/209/53
f 99/209/53 108/226/53 109/227/53
f 99/210/54 109/228/54 100/211/54
f 100/211/54 109/228/54 110/229/54
f 100/212/47 110/230/47 91/188/47
f 91/188/47 110/230/47 101/213/47
f 101/213/47 111/231/47 102/214/47
f 102/214/47 111/231/47 112/232/47
f 102/215/48 112/233/48 103/216/48
f 103/216/48 112/233/48 113/234/48
f 103/218/49 114/235/49 104/217/49
f 103/218/49 113/236/49 114/235/49
f 104/220/66 115/237/72 105/219/65
f 104/220/66 114/238/72 115/237/72
f 105/222/68 116/239/73 106/221/67
f 105/222/68 115/240/73 116/239/73
f 106/221/67 117/241/73 107/223/69
f 106/221/67 116/239/73 117/241/73
f 107/224/70 117/242/74 108/225/71
f 108/225/71 117/242/74 118/243/74
f 108/226/53 118/244/53 109/227/53
f 109/227/53 118/244/53 119/245/53
f 109/228/54 119/246/54 110/229/54
f 110/229/54 119/246/54 120/247/54
f 110/230/47 120/248/47 101/213/47
f 101/213/47 120/248/47 111/231/47
f 76/249/45 77/250/45 78/251/45
f 76/249/45 78/251/45 79/252/45
f 75/253/45 76/249/45 79/252/45
f 79/252/45 80/254/45 71/255/45
f 75/253/45 79/252/45 71/255/45
f 75/253/45 71/255/45 72/256/45
f 74/257/45 75/253/45 72/256/45
f 72/256/45 73/258/45 74/257/45
f 114/259/46 116/260/46 115/261/46
f 113/262/46 116/260/46 114/259/46
f 113/262/46 117/263/46 116/260/46
f 111/264/46 113/262/46 112/265/46
f 111/264/46 117/263/46 113/262/46
f 120/266/46 117/263/46 111/264/46
f 120/266/46 118/267/46 117/263/46
f 118/267/46 120/266/46 119/268/46
