# mech2 legs - Leg_R_Thigh_Joint.obj  (generated by source/build.py; do not edit by hand)
# frame: Leg_R hip-joint centre = origin, studs, +Y up, -Z forward
# segment: Thigh  colour: Joint RGB (128, 128, 128)  pieces: hip_ball
# bbox centre in leg frame: [0.0, 0.0, -0.0]  size: [1.3822, 1.4035, 1.3475]
# segment pivot (Hip) in leg frame: [0.0, 0.0, 0.0]
o Leg_R_Thigh_Joint
v 0.24002 0.65944 0.00000
v 0.21625 0.65944 0.10414
v 0.14965 0.65944 0.18765
v 0.05341 0.65944 0.23400
v -0.05341 0.65944 0.23400
v -0.14965 0.65944 0.18765
v -0.21625 0.65944 0.10414
v -0.24002 0.65944 0.00000
v -0.21625 0.65944 -0.10414
v -0.14965 0.65944 -0.18765
v -0.05341 0.65944 -0.23400
v 0.05341 0.65944 -0.23400
v 0.14965 0.65944 -0.18765
v 0.21625 0.65944 -0.10414
v 0.45108 0.53758 0.00000
v 0.40641 0.53758 0.19572
v 0.28125 0.53758 0.35267
v 0.10038 0.53758 0.43977
v -0.10038 0.53758 0.43977
v -0.28125 0.53758 0.35267
v -0.40641 0.53758 0.19572
v -0.45108 0.53758 0.00000
v -0.40641 0.53758 -0.19572
v -0.28125 0.53758 -0.35267
v -0.10038 0.53758 -0.43977
v 0.10038 0.53758 -0.43977
v 0.28125 0.53758 -0.35267
v 0.40641 0.53758 -0.19572
v 0.60774 0.35088 0.00000
v 0.54756 0.35088 0.26369
v 0.37892 0.35088 0.47515
v 0.13524 0.35088 0.59250
v -0.13524 0.35088 0.59250
v -0.37892 0.35088 0.47515
v -0.54756 0.35088 0.26369
v -0.60774 0.35088 0.00000
v -0.54756 0.35088 -0.26369
v -0.37892 0.35088 -0.47515
v -0.13524 0.35088 -0.59250
v 0.13524 0.35088 -0.59250
v 0.37892 0.35088 -0.47515
v 0.54756 0.35088 -0.26369
v 0.69110 0.12186 0.00000
v 0.62266 0.12186 0.29986
v 0.43089 0.12186 0.54032
v 0.15378 0.12186 0.67377
v -0.15378 0.12186 0.67377
v -0.43089 0.12186 0.54032
v -0.62266 0.12186 0.29986
v -0.69110 0.12186 0.00000
v -0.62266 0.12186 -0.29986
v -0.43089 0.12186 -0.54032
v -0.15378 0.12186 -0.67377
v 0.15378 0.12186 -0.67377
v 0.43089 0.12186 -0.54032
v 0.62266 0.12186 -0.29986
v 0.69110 -0.12186 0.00000
v 0.62266 -0.12186 0.29986
v 0.43089 -0.12186 0.54032
v 0.15378 -0.12186 0.67377
v -0.15378 -0.12186 0.67377
v -0.43089 -0.12186 0.54032
v -0.62266 -0.12186 0.29986
v -0.69110 -0.12186 0.00000
v -0.62266 -0.12186 -0.29986
v -0.43089 -0.12186 -0.54032
v -0.15378 -0.12186 -0.67377
v 0.15378 -0.12186 -0.67377
v 0.43089 -0.12186 -0.54032
v 0.62266 -0.12186 -0.29986
v 0.60774 -0.35088 0.00000
v 0.54756 -0.35088 0.26369
v 0.37892 -0.35088 0.47515
v 0.13524 -0.35088 0.59250
v -0.13524 -0.35088 0.59250
v -0.37892 -0.35088 0.47515
v -0.54756 -0.35088 0.26369
v -0.60774 -0.35088 0.00000
v -0.54756 -0.35088 -0.26369
v -0.37892 -0.35088 -0.47515
v -0.13524 -0.35088 -0.59250
v 0.13524 -0.35088 -0.59250
v 0.37892 -0.35088 -0.47515
v 0.54756 -0.35088 -0.26369
v 0.45108 -0.53758 0.00000
v 0.40641 -0.53758 0.19572
v 0.28125 -0.53758 0.35267
v 0.10038 -0.53758 0.43977
v -0.10038 -0.53758 0.43977
v -0.28125 -0.53758 0.35267
v -0.40641 -0.53758 0.19572
v -0.45108 -0.53758 0.00000
v -0.40641 -0.53758 -0.19572
v -0.28125 -0.53758 -0.35267
v -0.10038 -0.53758 -0.43977
v 0.10038 -0.53758 -0.43977
v 0.28125 -0.53758 -0.35267
v 0.40641 -0.53758 -0.19572
v 0.24002 -0.65944 0.00000
v 0.21625 -0.65944 0.10414
v 0.14965 -0.65944 0.18765
v 0.05341 -0.65944 0.23400
v -0.05341 -0.65944 0.23400
v -0.14965 -0.65944 0.18765
v -0.21625 -0.65944 0.10414
v -0.24002 -0.65944 0.00000
v -0.21625 -0.65944 -0.10414
v -0.14965 -0.65944 -0.18765
v -0.05341 -0.65944 -0.23400
v 0.05341 -0.65944 -0.23400
v 0.14965 -0.65944 -0.18765
v 0.21625 -0.65944 -0.10414
v 0.00000 0.70176 0.00000
v 0.00000 -0.70176 0.00000
vt 0.04493 -0.06021
vt 0.05541 -0.03598
vt -0.01425 -0.04909
vt 0.00545 -0.00354
vt 0.07329 -0.01654
vt 0.03904 0.03299
vt -0.01391 -0.07383
vt 0.01103 -0.06514
vt 0.00108 -0.00640
vt -0.04578 -0.02274
vt 0.03743 -0.06514
vt 0.05071 -0.00640
vt -0.03564 -0.06083
vt -0.01046 -0.06972
vt -0.02725 -0.00182
vt 0.02007 -0.01853
vt -0.08021 0.01486
vt -0.06487 -0.00564
vt -0.01194 0.02261
vt -0.04077 0.06114
vt -0.05715 -0.03121
vt 0.00256 -0.02544
vt -0.05858 -0.05677
vt -0.00012 -0.07348
vt 0.01036 0.08091
vt -0.00925 0.06445
vt 0.02190 0.01319
vt 0.05877 0.04412
vt -0.03434 0.05532
vt -0.02526 -0.00398
vt -0.05995 0.05532
vt -0.07338 -0.00398
vt 0.07702 0.02687
vt 0.05353 0.03707
vt 0.02158 -0.01371
vt 0.06572 -0.03287
vt 0.03415 0.05544
vt -0.01484 0.02082
vt 0.02271 0.07835
vt -0.03634 0.06387
vt -0.07171 -0.03204
vt -0.04517 0.02933
vt 0.00009 0.07854
vt -0.00899 0.05310
vt -0.07212 0.03110
vt 0.05787 0.05310
vt 0.04818 0.03490
vt -0.01558 0.05741
vt 0.04242 0.04813
vt 0.00358 0.10004
vt 0.06197 -0.01660
vt 0.05835 -0.08133
vt 0.05042 -0.03967
vt 0.10008 0.00200
vt -0.01312 -0.06280
vt -0.07795 -0.06280
vt -0.01297 -0.06283
vt 0.04650 -0.08864
vt -0.06204 -0.01632
vt -0.09101 0.04169
vt 0.09473 -0.08772
vt 0.03381 -0.08772
vt 0.03845 -0.03046
vt 0.10772 -0.03046
vt -0.03381 -0.08772
vt -0.03845 -0.03046
vt -0.09473 -0.08772
vt -0.10772 -0.03046
vt 0.06592 -0.08772
vt 0.00000 -0.08772
vt 0.07496 -0.03046
vt 0.00000 -0.03046
vt -0.06592 -0.08772
vt -0.07496 -0.03046
vt 0.03845 0.03046
vt 0.10772 0.03046
vt -0.03845 0.03046
vt -0.10772 0.03046
vt 0.00000 0.03046
vt 0.07496 0.03046
vt -0.07496 0.03046
vt 0.03381 0.08772
vt 0.09473 0.08772
vt -0.03381 0.08772
vt -0.09473 0.08772
vt 0.00000 0.08772
vt 0.06592 0.08772
vt -0.06592 0.08772
vt -0.06197 0.01660
vt -0.04242 -0.04813
vt -0.00256 0.02544
vt 0.01194 -0.02261
vt -0.00358 -0.10004
vt 0.04077 -0.06114
vt -0.09473 -0.03235
vt -0.03381 -0.05452
vt -0.02509 0.00490
vt -0.07031 0.02136
vt 0.03381 -0.05452
vt 0.02509 0.00490
vt 0.09473 -0.03235
vt 0.07031 0.02136
vt 0.00358 -0.10004
vt 0.04242 -0.04813
vt -0.01194 -0.02261
vt -0.04077 -0.06114
vt 0.06197 0.01660
vt 0.00256 0.02544
vt 0.05835 0.08133
vt -0.00012 0.07348
vt 0.07848 0.00319
vt 0.02742 0.04636
vt -0.00331 -0.00559
vt 0.03459 -0.03763
vt -0.03500 0.07031
vt -0.04964 0.01219
vt 0.07795 0.06280
vt 0.01312 0.06280
vt 0.07338 0.00398
vt 0.02526 0.00398
vt -0.05042 0.03967
vt -0.02190 -0.01319
vt -0.10008 -0.00200
vt -0.05877 -0.04412
vt -0.05835 0.08133
vt 0.00012 0.07348
vt 0.06487 0.00564
vt 0.05715 0.03121
vt 0.08021 -0.01486
vt -0.01335 0.06373
vt -0.03741 0.07249
vt 0.01335 0.06373
vt 0.03741 0.07249
vt -0.08021 -0.01486
vt -0.06487 0.00564
vt -0.05715 0.03121
vt -0.05858 0.05677
vt -0.03364 -0.05686
vt -0.01347 -0.07391
vt -0.05829 -0.04740
vt 0.05995 -0.05532
vt 0.03434 -0.05532
vt 0.00925 -0.06445
vt -0.01036 -0.08091
vt 0.05858 0.05677
vt -0.00000 -0.00000
vt -0.05406 0.02603
vt -0.06000 -0.00000
vt -0.03741 0.04691
vt -0.01335 0.05850
vt 0.01335 0.05850
vt 0.03741 0.04691
vt 0.05406 0.02603
vt 0.06000 0.00000
vt 0.05406 -0.02603
vt 0.03741 -0.04691
vt 0.01335 -0.05850
vt -0.01335 -0.05850
vt -0.03741 -0.04691
vt -0.05406 -0.02603
vn 0.3420 0.9397 0.0000
vn 0.3791 0.9072 0.1826
vn 0.6483 0.7605 -0.0373
vn 0.6280 0.7360 0.2529
vn 0.2168 0.9183 0.3312
vn 0.4320 0.7311 0.5281
vn 0.0517 0.9183 0.3924
vn 0.1177 0.7498 0.6512
vn -0.0761 0.9397 0.3334
vn -0.1806 0.7605 0.6237
vn -0.2623 0.9072 0.3290
vn -0.4561 0.7360 0.5003
vn -0.3711 0.9183 0.1377
vn -0.6086 0.7498 0.2596
vn -0.3420 0.9397 0.0000
vn -0.6483 0.7605 -0.0373
vn -0.3791 0.9072 -0.1826
vn -0.5892 0.7360 -0.3333
vn -0.2168 0.9183 -0.3312
vn -0.3885 0.7498 -0.5356
vn -0.0761 0.9397 -0.3334
vn -0.1079 0.7605 -0.6403
vn 0.0936 0.9072 -0.4102
vn 0.1938 0.7360 -0.6486
vn 0.2746 0.9183 -0.2851
vn 0.4357 0.7498 -0.4980
vn 0.3711 0.9183 -0.1377
vn 0.5588 0.7791 -0.2842
vn 0.8701 0.4887 0.0644
vn 0.7560 0.4887 0.4355
vn 0.5134 0.4653 0.7210
vn 0.1748 0.4896 0.8542
vn -0.1624 0.5235 0.8364
vn -0.5368 0.4662 0.7032
vn -0.7939 0.4896 0.3605
vn -0.8717 0.4896 -0.0197
vn -0.7768 0.4896 -0.3960
vn -0.5527 0.5235 -0.6485
vn -0.2151 0.4662 -0.8581
vn 0.1624 0.5235 -0.8364
vn 0.5368 0.4662 -0.7032
vn 0.7917 0.5076 -0.3398
vn 0.9125 0.2553 0.3195
vn 0.9773 0.2045 0.0556
vn 0.6835 0.2553 0.6838
vn 0.8564 0.2045 0.4741
vn 0.3192 0.2553 0.9127
vn 0.5658 0.2045 0.7988
vn -0.1666 0.2726 0.9476
vn 0.1632 0.2045 0.9652
vn -0.2942 0.2256 0.9287
vn -0.5447 0.2304 0.8064
vn -0.8188 0.2553 0.5142
vn -0.6999 0.1725 0.6931
vn -0.9608 0.2553 0.1081
vn -0.9046 0.2045 0.3739
vn -0.9125 0.2553 -0.3195
vn -0.9773 0.2045 -0.0556
vn -0.6370 0.2726 -0.7211
vn -0.8564 0.2045 -0.4741
vn -0.5427 0.2256 -0.8090
vn -0.2908 0.2304 -0.9286
vn 0.1666 0.2726 -0.9476
vn -0.1055 0.1725 -0.9793
vn 0.2942 0.2256 -0.9287
vn 0.5447 0.2304 -0.8064
vn 0.8188 0.2553 -0.5142
vn 0.6999 0.1725 -0.6931
vn 0.9608 0.2553 -0.1081
vn 0.9046 0.2045 -0.3739
vn 0.9901 0.0860 0.1113
vn 0.9081 0.1336 0.3970
vn 0.9403 -0.0860 0.3293
vn 0.9904 -0.1336 0.0363
vn 0.8437 0.0860 0.5298
vn 0.6459 0.1336 0.7517
vn 0.7043 -0.0860 0.7047
vn 0.8765 -0.1336 0.4624
vn 0.5303 0.0860 0.8434
vn 0.2558 0.1336 0.9575
vn 0.3455 -0.1325 0.9290
vn 0.6239 -0.0865 0.7767
vn 0.1118 0.0860 0.9900
vn -0.1850 0.1336 0.9736
vn -0.0918 -0.1325 0.9869
vn 0.2251 -0.0865 0.9705
vn -0.3455 0.1325 0.9290
vn -0.6239 0.0865 0.7767
vn -0.5303 -0.0860 0.8434
vn -0.2558 -0.1336 0.9575
vn -0.7043 0.0860 0.7047
vn -0.8765 0.1336 0.4624
vn -0.8288 -0.1325 0.5436
vn -0.6184 -0.0865 0.7811
vn -0.9403 0.0860 0.3293
vn -0.9904 0.1336 0.0363
vn -0.9901 -0.0860 0.1113
vn -0.9081 -0.1336 0.3970
vn -0.9901 0.0860 -0.1113
vn -0.9081 0.1336 -0.3970
vn -0.9418 -0.1325 -0.3091
vn -0.9962 -0.0865 0.0035
vn -0.8437 0.0860 -0.5298
vn -0.6459 0.1336 -0.7517
vn -0.7043 -0.0860 -0.7047
vn -0.8765 -0.1336 -0.4624
vn -0.5109 0.1325 -0.8494
vn -0.2183 0.0865 -0.9720
vn -0.3288 -0.0860 -0.9405
vn -0.5891 -0.1336 -0.7970
vn -0.1118 0.0860 -0.9900
vn 0.1850 0.1336 -0.9736
vn 0.1118 -0.0860 -0.9900
vn -0.1850 -0.1336 -0.9736
vn 0.3455 0.1325 -0.9290
vn 0.6239 0.0865 -0.7767
vn 0.5109 -0.1325 -0.8494
vn 0.2183 -0.0865 -0.9720
vn 0.7043 0.0860 -0.7047
vn 0.8765 0.1336 -0.4624
vn 0.8288 -0.1325 -0.5436
vn 0.6184 -0.0865 -0.7811
vn 0.9403 0.0860 -0.3293
vn 0.9904 0.1336 -0.0363
vn 0.9901 -0.0860 -0.1113
vn 0.9081 -0.1336 -0.3970
vn 0.9608 -0.2553 0.1081
vn 0.9046 -0.2045 0.3739
vn 0.7917 -0.5076 0.3398
vn 0.8838 -0.4653 -0.0481
vn 0.8188 -0.2553 0.5142
vn 0.6999 -0.1725 0.6931
vn 0.5368 -0.4662 0.7032
vn 0.5447 -0.2304 0.8064
vn 0.3455 -0.2030 0.9162
vn 0.1308 -0.4887 0.8626
vn 0.2050 -0.2568 0.9445
vn -0.1379 -0.2256 0.9644
vn -0.2166 -0.5235 0.8240
vn -0.2610 -0.2726 0.9261
vn -0.5199 -0.1725 0.8366
vn -0.5661 -0.4662 0.6798
vn -0.6649 -0.2304 0.7105
vn -0.8400 -0.2256 0.4934
vn -0.7793 -0.5235 0.3445
vn -0.8868 -0.2726 0.3733
vn -0.9783 -0.1725 0.1151
vn -0.8962 -0.4437 0.0000
vn -0.9700 -0.2304 -0.0769
vn -0.9095 -0.2256 -0.3491
vn -0.7579 -0.5407 -0.3650
vn -0.8448 -0.2726 -0.4605
vn -0.6528 -0.2045 -0.7294
vn -0.5589 -0.4896 -0.6693
vn -0.5145 -0.2553 -0.8186
vn -0.2717 -0.2045 -0.9404
vn -0.2436 -0.4653 -0.8510
vn -0.1084 -0.2553 -0.9608
vn 0.1055 -0.1725 -0.9793
vn 0.1947 -0.4844 -0.8529
vn 0.2908 -0.2304 -0.9286
vn 0.5009 -0.2030 -0.8414
vn 0.5928 -0.4887 -0.6401
vn 0.6106 -0.2568 -0.7491
vn 0.8400 -0.2256 -0.4934
vn 0.7793 -0.5235 -0.3445
vn 0.8868 -0.2726 -0.3733
vn 0.9773 -0.2045 -0.0556
vn 0.6822 -0.7311 0.0085
vn 0.5588 -0.7791 0.2842
vn 0.4357 -0.7498 0.4980
vn 0.1765 -0.7498 0.6377
vn -0.1177 -0.7498 0.6512
vn -0.3863 -0.7360 0.5559
vn -0.5679 -0.7605 0.3149
vn -0.6822 -0.7311 -0.0085
vn -0.5588 -0.7791 -0.2842
vn -0.4357 -0.7498 -0.4980
vn -0.1547 -0.7186 -0.6780
vn 0.1366 -0.7893 -0.5986
vn 0.3885 -0.7498 -0.5356
vn 0.5825 -0.7498 -0.3140
vn 0.3711 -0.9183 0.1377
vn 0.3941 -0.9183 -0.0370
vn 0.2746 -0.9183 0.2851
vn 0.1237 -0.9183 0.3760
vn -0.0517 -0.9183 0.3924
vn -0.2623 -0.9072 0.3290
vn -0.3081 -0.9397 0.1484
vn -0.3941 -0.9183 0.0370
vn -0.3711 -0.9183 -0.1377
vn -0.2746 -0.9183 -0.2851
vn -0.0936 -0.9072 -0.4102
vn 0.0761 -0.9397 -0.3334
vn 0.2168 -0.9183 -0.3312
vn 0.3390 -0.9183 -0.2043
vn -0.0000 1.0000 0.0000
vn 0.0000 -1.0000 -0.0000
s off
f 1/1/1 2/2/2 15/3/3
f 2/2/2 16/4/4 15/3/3
f 2/2/2 3/5/5 17/6/6
f 2/2/2 17/6/6 16/4/4
f 3/7/5 4/8/7 18/9/8
f 3/7/5 18/9/8 17/10/6
f 4/8/7 5/11/9 19/12/10
f 4/8/7 19/12/10 18/9/8
f 5/13/9 6/14/11 19/15/10
f 6/14/11 20/16/12 19/15/10
f 6/17/11 7/18/13 21/19/14
f 6/17/11 21/19/14 20/20/12
f 7/18/13 8/21/15 22/22/16
f 7/18/13 22/22/16 21/19/14
f 8/21/15 9/23/17 22/22/16
f 9/23/17 23/24/18 22/22/16
f 9/25/17 10/26/19 24/27/20
f 9/25/17 24/27/20 23/28/18
f 10/26/19 11/29/21 25/30/22
f 10/26/19 25/30/22 24/27/20
f 11/29/21 12/31/23 25/30/22
f 12/31/23 26/32/24 25/30/22
f 12/33/23 13/34/25 27/35/26
f 12/33/23 27/35/26 26/36/24
f 13/34/25 14/37/27 28/38/28
f 13/34/25 28/38/28 27/35/26
f 14/37/27 1/39/1 15/40/3
f 14/37/27 15/40/3 28/38/28
f 15/3/3 16/4/4 29/41/29
f 16/4/4 30/42/30 29/41/29
f 16/4/4 17/6/6 30/42/30
f 17/6/6 31/43/31 30/42/30
f 17/10/6 18/9/8 32/44/32
f 17/10/6 32/44/32 31/45/31
f 18/9/8 19/12/10 33/46/33
f 18/9/8 33/46/33 32/44/32
f 19/15/10 20/16/12 34/47/34
f 19/15/10 34/47/34 33/48/33
f 20/20/12 21/19/14 35/49/35
f 20/20/12 35/49/35 34/50/34
f 21/19/14 22/22/16 36/51/36
f 21/19/14 36/51/36 35/49/35
f 22/22/16 23/24/18 37/52/37
f 22/22/16 37/52/37 36/51/36
f 23/28/18 24/27/20 38/53/38
f 23/28/18 38/53/38 37/54/37
f 24/27/20 25/30/22 39/55/39
f 24/27/20 39/55/39 38/53/38
f 25/30/22 26/32/24 40/56/40
f 25/30/22 40/56/40 39/55/39
f 26/36/24 27/35/26 41/57/41
f 26/36/24 41/57/41 40/58/40
f 27/35/26 28/38/28 42/59/42
f 27/35/26 42/59/42 41/57/41
f 28/38/28 15/40/3 42/59/42
f 15/40/3 29/60/29 42/59/42
f 29/61/29 30/62/30 44/63/43
f 29/61/29 44/63/43 43/64/44
f 30/62/30 31/65/31 45/66/45
f 30/62/30 45/66/45 44/63/46
f 31/65/31 32/67/32 46/68/47
f 31/65/31 46/68/47 45/66/48
f 32/61/32 33/62/33 47/63/49
f 32/61/32 47/63/49 46/64/50
f 33/62/33 34/65/34 47/63/51
f 34/65/34 48/66/52 47/63/51
f 34/65/34 35/67/35 49/68/53
f 34/65/34 49/68/53 48/66/54
f 35/61/35 36/62/36 50/63/55
f 35/61/35 50/63/55 49/64/56
f 36/62/36 37/65/37 51/66/57
f 36/62/36 51/66/57 50/63/58
f 37/65/37 38/67/38 52/68/59
f 37/65/37 52/68/59 51/66/60
f 38/69/38 39/70/39 52/71/61
f 39/70/39 53/72/62 52/71/61
f 39/70/39 40/73/40 54/74/63
f 39/70/39 54/74/63 53/72/64
f 40/61/40 41/62/41 54/64/65
f 41/62/41 55/63/66 54/64/65
f 41/62/41 42/65/42 56/66/67
f 41/62/41 56/66/67 55/63/68
f 42/65/42 29/67/29 43/68/69
f 42/65/42 43/68/69 56/66/70
f 43/64/71 44/63/72 58/75/73
f 43/64/71 58/75/73 57/76/74
f 44/63/75 45/66/76 59/77/77
f 44/63/75 59/77/77 58/75/78
f 45/66/79 46/68/80 60/78/81
f 45/66/79 60/78/81 59/77/82
f 46/64/83 47/63/84 61/75/85
f 46/64/83 61/75/85 60/76/86
f 47/63/87 48/66/88 62/77/89
f 47/63/87 62/77/89 61/75/90
f 48/66/91 49/68/92 63/78/93
f 48/66/91 63/78/93 62/77/94
f 49/64/95 50/63/96 64/75/97
f 49/64/95 64/75/97 63/76/98
f 50/63/99 51/66/100 65/77/101
f 50/63/99 65/77/101 64/75/102
f 51/66/103 52/68/104 66/78/105
f 51/66/103 66/78/105 65/77/106
f 52/71/107 53/72/108 67/79/109
f 52/71/107 67/79/109 66/80/110
f 53/72/111 54/74/112 68/81/113
f 53/72/111 68/81/113 67/79/114
f 54/64/115 55/63/116 69/75/117
f 54/64/115 69/75/117 68/76/118
f 55/63/119 56/66/120 70/77/121
f 55/63/119 70/77/121 69/75/122
f 56/66/123 43/68/124 57/78/125
f 56/66/123 57/78/125 70/77/126
f 57/76/127 58/75/128 72/82/129
f 57/76/127 72/82/129 71/83/130
f 58/75/131 59/77/132 73/84/133
f 58/75/131 73/84/133 72/82/129
f 59/77/134 60/78/135 73/84/133
f 60/78/135 74/85/136 73/84/133
f 60/76/137 61/75/138 74/83/136
f 61/75/138 75/82/139 74/83/136
f 61/75/140 62/77/141 76/84/142
f 61/75/140 76/84/142 75/82/139
f 62/77/143 63/78/144 76/84/142
f 63/78/144 77/85/145 76/84/142
f 63/76/146 64/75/147 78/82/148
f 63/76/146 78/82/148 77/83/145
f 64/75/149 65/77/150 78/82/148
f 65/77/150 79/84/151 78/82/148
f 65/77/152 66/78/153 80/85/154
f 65/77/152 80/85/154 79/84/151
f 66/80/155 67/79/156 81/86/157
f 66/80/155 81/86/157 80/87/154
f 67/79/158 68/81/159 82/88/160
f 67/79/158 82/88/160 81/86/157
f 68/76/161 69/75/162 82/83/160
f 69/75/162 83/82/163 82/83/160
f 69/75/164 70/77/165 83/82/163
f 70/77/165 84/84/166 83/82/163
f 70/77/167 57/78/168 71/85/130
f 70/77/167 71/85/130 84/84/166
f 71/89/130 72/90/129 85/91/169
f 72/90/129 86/92/170 85/91/169
f 72/90/129 73/93/133 87/94/171
f 72/90/129 87/94/171 86/92/170
f 73/95/133 74/96/136 88/97/172
f 73/95/133 88/97/172 87/98/171
f 74/96/136 75/99/139 89/100/173
f 74/96/136 89/100/173 88/97/172
f 75/99/139 76/101/142 90/102/174
f 75/99/139 90/102/174 89/100/173
f 76/103/142 77/104/145 91/105/175
f 76/103/142 91/105/175 90/106/174
f 77/104/145 78/107/148 92/108/176
f 77/104/145 92/108/176 91/105/175
f 78/107/148 79/109/151 92/108/176
f 79/109/151 93/110/177 92/108/176
f 79/111/151 80/112/154 94/113/178
f 79/111/151 94/113/178 93/114/177
f 80/112/154 81/115/157 95/116/179
f 80/112/154 95/116/179 94/113/178
f 81/117/157 82/118/160 95/119/179
f 82/118/160 96/120/180 95/119/179
f 82/118/160 83/121/163 97/122/181
f 82/118/160 97/122/181 96/120/180
f 83/121/163 84/123/166 98/124/182
f 83/121/163 98/124/182 97/122/181
f 84/125/166 71/89/130 85/91/169
f 84/125/166 85/91/169 98/126/182
f 85/91/169 86/92/170 100/127/183
f 85/91/169 100/127/183 99/128/184
f 86/92/170 87/94/171 101/129/185
f 86/92/170 101/129/185 100/127/183
f 87/98/171 88/97/172 102/130/186
f 87/98/171 102/130/186 101/131/185
f 88/97/172 89/100/173 103/132/187
f 88/97/172 103/132/187 102/130/186
f 89/100/173 90/102/174 104/133/188
f 89/100/173 104/133/188 103/132/187
f 90/106/174 91/105/175 104/134/188
f 91/105/175 105/135/189 104/134/188
f 91/105/175 92/108/176 106/136/190
f 91/105/175 106/136/190 105/135/189
f 92/108/176 93/110/177 107/137/191
f 92/108/176 107/137/191 106/136/190
f 93/114/177 94/113/178 108/138/192
f 93/114/177 108/138/192 107/139/191
f 94/113/178 95/116/179 109/140/193
f 94/113/178 109/140/193 108/138/192
f 95/119/179 96/120/180 109/141/193
f 96/120/180 110/142/194 109/141/193
f 96/120/180 97/122/181 111/143/195
f 96/120/180 111/143/195 110/142/194
f 97/122/181 98/124/182 112/144/196
f 97/122/181 112/144/196 111/143/195
f 98/126/182 85/91/169 99/128/184
f 98/126/182 99/128/184 112/145/196
f 113/146/197 2/147/2 1/148/1
f 113/146/197 3/149/5 2/147/2
f 113/146/197 4/150/7 3/149/5
f 113/146/197 5/151/9 4/150/7
f 113/146/197 6/152/11 5/151/9
f 113/146/197 7/153/13 6/152/11
f 113/146/197 8/154/15 7/153/13
f 113/146/197 9/155/17 8/154/15
f 113/146/197 10/156/19 9/155/17
f 113/146/197 11/157/21 10/156/19
f 113/146/197 12/158/23 11/157/21
f 113/146/197 13/159/25 12/158/23
f 113/146/197 14/160/27 13/159/25
f 113/146/197 1/148/1 14/160/27
f 114/146/198 99/148/184 100/160/183
f 114/146/198 100/160/183 101/159/185
f 114/146/198 101/159/185 102/158/186
f 114/146/198 102/158/186 103/157/187
f 114/146/198 103/157/187 104/156/188
f 114/146/198 104/156/188 105/155/189
f 114/146/198 105/155/189 106/154/190
f 114/146/198 106/154/190 107/153/191
f 114/146/198 107/153/191 108/152/192
f 114/146/198 108/152/192 109/151/193
f 114/146/198 109/151/193 110/150/194
f 114/146/198 110/150/194 111/149/195
f 114/146/198 111/149/195 112/147/196
f 114/146/198 112/147/196 99/148/184
