# mech2 legs - Leg_R_Shin_Joint.obj  (generated by source/build.py; do not edit by hand)
# frame: Leg_R hip-joint centre = origin, studs, +Y up, -Z forward
# segment: Shin  colour: Joint RGB (128, 128, 128)  pieces: knee_axle, ankle_disc, ankle_cover
# bbox centre in leg frame: [0.4488, -6.0481, 0.3916]  size: [1.632, 3.914, 1.3711]
# segment pivot (Knee) in leg frame: [0.2856, -4.4064, 0.1632]
o Leg_R_Shin_Joint
v -0.36720 -4.13841 0.23501
v -0.36720 -4.21022 0.35938
v -0.36720 -4.33459 0.43119
v -0.36720 -4.47821 0.43119
v -0.36720 -4.60258 0.35938
v -0.36720 -4.67439 0.23501
v -0.36720 -4.67439 0.09139
v -0.36720 -4.60258 -0.03298
v -0.36720 -4.47821 -0.10479
v -0.36720 -4.33459 -0.10479
v -0.36720 -4.21022 -0.03298
v -0.36720 -4.13841 0.09139
v -0.31824 -4.09112 0.24768
v -0.31824 -4.17560 0.39400
v -0.31824 -4.32192 0.47848
v -0.31824 -4.49088 0.47848
v -0.31824 -4.63720 0.39400
v -0.31824 -4.72168 0.24768
v -0.31824 -4.72168 0.07872
v -0.31824 -4.63720 -0.06760
v -0.31824 -4.49088 -0.15208
v -0.31824 -4.32192 -0.15208
v -0.31824 -4.17560 -0.06760
v -0.31824 -4.09112 0.07872
v 0.72624 -4.09112 0.24768
v 0.72624 -4.17560 0.39400
v 0.72624 -4.32192 0.47848
v 0.72624 -4.49088 0.47848
v 0.72624 -4.63720 0.39400
v 0.72624 -4.72168 0.24768
v 0.72624 -4.72168 0.07872
v 0.72624 -4.63720 -0.06760
v 0.72624 -4.49088 -0.15208
v 0.72624 -4.32192 -0.15208
v 0.72624 -4.17560 -0.06760
v 0.72624 -4.09112 0.07872
v 0.77520 -4.13841 0.23501
v 0.77520 -4.21022 0.35938
v 0.77520 -4.33459 0.43119
v 0.77520 -4.47821 0.43119
v 0.77520 -4.60258 0.35938
v 0.77520 -4.67439 0.23501
v 0.77520 -4.67439 0.09139
v 0.77520 -4.60258 -0.03298
v 0.77520 -4.47821 -0.10479
v 0.77520 -4.33459 -0.10479
v 0.77520 -4.21022 -0.03298
v 0.77520 -4.13841 0.09139
v -0.24480 -7.13814 0.27302
v -0.24480 -7.24796 0.46324
v -0.24480 -7.43818 0.57306
v -0.24480 -7.65782 0.57306
v -0.24480 -7.84804 0.46324
v -0.24480 -7.95786 0.27302
v -0.24480 -7.95786 0.05338
v -0.24480 -7.84804 -0.13684
v -0.24480 -7.65782 -0.24666
v -0.24480 -7.43818 -0.24666
v -0.24480 -7.24796 -0.13684
v -0.24480 -7.13814 0.05338
v -0.19584 -7.09085 0.28569
v -0.19584 -7.21334 0.49786
v -0.19584 -7.42551 0.62035
v -0.19584 -7.67049 0.62035
v -0.19584 -7.88266 0.49786
v -0.19584 -8.00515 0.28569
v -0.19584 -8.00515 0.04071
v -0.19584 -7.88266 -0.17146
v -0.19584 -7.67049 -0.29395
v -0.19584 -7.42551 -0.29395
v -0.19584 -7.21334 -0.17146
v -0.19584 -7.09085 0.04071
v 1.21584 -7.09085 0.28569
v 1.21584 -7.21334 0.49786
v 1.21584 -7.42551 0.62035
v 1.21584 -7.67049 0.62035
v 1.21584 -7.88266 0.49786
v 1.21584 -8.00515 0.28569
v 1.21584 -8.00515 0.04071
v 1.21584 -7.88266 -0.17146
v 1.21584 -7.67049 -0.29395
v 1.21584 -7.42551 -0.29395
v 1.21584 -7.21334 -0.17146
v 1.21584 -7.09085 0.04071
v 1.26480 -7.13814 0.27302
v 1.26480 -7.24796 0.46324
v 1.26480 -7.43818 0.57306
v 1.26480 -7.65782 0.57306
v 1.26480 -7.84804 0.46324
v 1.26480 -7.95786 0.27302
v 1.26480 -7.95786 0.05338
v 1.26480 -7.84804 -0.13684
v 1.26480 -7.65782 -0.24666
v 1.26480 -7.43818 -0.24666
v 1.26480 -7.24796 -0.13684
v 1.26480 -7.13814 0.05338
v 0.59160 -6.62592 0.68136
v 1.24766 -6.62592 0.68136
v 1.26480 -6.62592 0.69850
v 1.26480 -6.62592 0.70502
v 1.24766 -6.62592 0.72216
v 0.59160 -6.62592 0.72216
v -0.06446 -6.62592 0.72216
v -0.08160 -6.62592 0.70502
v -0.08160 -6.62592 0.69850
v -0.06446 -6.62592 0.68136
v 0.59160 -6.92784 0.37600
v 1.21584 -6.92784 0.37600
v 1.26480 -6.92784 0.42496
v 1.26480 -6.92784 1.02816
v 1.21584 -6.92784 1.07712
v 0.59160 -6.92784 1.07712
v -0.03264 -6.92784 1.07712
v -0.08160 -6.92784 1.02816
v -0.08160 -6.92784 0.42496
v -0.03264 -6.92784 0.37600
v 0.59160 -6.93600 0.36720
v 1.21584 -6.93600 0.36720
v 1.26480 -6.93600 0.41616
v 1.26480 -6.93600 1.01545
v 1.21584 -6.93600 1.06441
v 0.59160 -6.93600 1.06441
v -0.03264 -6.93600 1.06441
v -0.08160 -6.93600 1.01545
v -0.08160 -6.93600 0.41616
v -0.03264 -6.93600 0.36720
v 0.59160 -7.27872 0.51000
v 1.24766 -7.27872 0.51000
v 1.26480 -7.27872 0.52714
v 1.26480 -7.27872 0.53366
v 1.24766 -7.27872 0.55080
v 0.59160 -7.27872 0.55080
v -0.06446 -7.27872 0.55080
v -0.08160 -7.27872 0.53366
v -0.08160 -7.27872 0.52714
v -0.06446 -7.27872 0.51000
vt 0.05875 0.81576
vt 0.08984 0.82882
vt 0.09850 0.81413
vt 0.06192 0.79876
vt 0.00240 1.05256
vt 0.01546 1.08365
vt 0.03246 1.08048
vt 0.01709 1.04390
vt 0.01546 1.11955
vt 0.03246 1.12272
vt 0.00240 1.15064
vt 0.01709 1.15930
vt 0.08984 0.77424
vt 0.05875 0.78730
vt 0.09850 0.78894
vt 0.06192 0.80430
vt 0.02285 0.78730
vt 0.01968 0.80430
vt -0.00824 0.77424
vt -0.01690 0.78894
vt 0.05698 1.15064
vt 0.04391 1.11955
vt 0.02691 1.12272
vt 0.04228 1.15930
vt 0.04391 1.08365
vt 0.02691 1.08048
vt 0.05698 1.05256
vt 0.04228 1.04390
vt -0.00824 0.82882
vt 0.02285 0.81576
vt -0.01690 0.81413
vt 0.01968 0.79876
vt 0.07956 0.56501
vt 0.07956 0.60725
vt -0.18156 0.60725
vt -0.18156 0.56501
vt -0.07956 0.95329
vt -0.07956 0.99553
vt 0.18156 0.99553
vt 0.18156 0.95329
vt -0.07956 1.08048
vt -0.07956 1.12272
vt 0.18156 1.12272
vt 0.18156 1.08048
vt -0.07956 0.91249
vt -0.07956 0.95473
vt 0.18156 0.95473
vt 0.18156 0.91249
vt 0.07956 0.49435
vt 0.07956 0.53659
vt -0.18156 0.53659
vt -0.18156 0.49435
vt 0.07956 -0.06192
vt 0.07956 -0.01968
vt -0.18156 -0.01968
vt -0.18156 -0.06192
vt 0.07956 -0.60725
vt 0.07956 -0.56501
vt -0.18156 -0.56501
vt -0.18156 -0.60725
vt 0.07956 0.99553
vt 0.07956 0.95329
vt -0.18156 0.95329
vt -0.18156 0.99553
vt 0.07956 1.12272
vt 0.07956 1.08048
vt -0.18156 1.08048
vt -0.18156 1.12272
vt 0.07956 0.95473
vt 0.07956 0.91249
vt -0.18156 0.91249
vt -0.18156 0.95473
vt 0.07956 -0.53659
vt 0.07956 -0.49435
vt -0.18156 -0.49435
vt -0.18156 -0.53659
vt 0.07956 0.01968
vt 0.07956 0.06192
vt -0.18156 0.06192
vt -0.18156 0.01968
vt -0.06192 0.86873
vt -0.09850 0.88410
vt -0.05875 0.88573
vt -0.08984 0.89879
vt 0.05288 1.04390
vt 0.03751 1.08048
vt 0.06757 1.05256
vt 0.05451 1.08365
vt 0.03751 1.12272
vt 0.05451 1.11955
vt 0.05288 1.15930
vt 0.06757 1.15064
vt -0.09850 0.71897
vt -0.06192 0.73433
vt -0.05875 0.71733
vt -0.08984 0.70427
vt -0.01968 0.73433
vt -0.02285 0.71733
vt 0.01690 0.71897
vt 0.00824 0.70427
vt -0.11225 1.15930
vt -0.09689 1.12272
vt -0.12695 1.15064
vt -0.11388 1.11955
vt -0.09689 1.08048
vt -0.11388 1.08365
vt -0.11225 1.04390
vt -0.12695 1.05256
vt 0.01690 0.88410
vt -0.01968 0.86873
vt -0.02285 0.88573
vt 0.00824 0.89879
vt -0.02620 1.11955
vt -0.00824 1.05256
vt -0.02620 1.08365
vt -0.00824 1.15064
vt 0.02285 1.16860
vt 0.02285 1.03460
vt 0.05875 1.03460
vt 0.05875 1.16860
vt 0.08984 1.05256
vt 0.08984 1.15064
vt 0.10780 1.08365
vt 0.10780 1.11955
vt 0.02620 1.11955
vt 0.02620 1.08365
vt 0.00824 1.05256
vt 0.00824 1.15064
vt -0.02285 1.16860
vt -0.02285 1.03460
vt -0.05875 1.03460
vt -0.05875 1.16860
vt -0.08984 1.05256
vt -0.08984 1.15064
vt -0.10780 1.08365
vt -0.10780 1.11955
vt 0.47408 1.64027
vt 0.51928 1.66510
vt 0.48021 1.62435
vt 0.53063 1.65205
vt 0.55342 1.70812
vt 0.56870 1.70003
vt 0.56733 1.75779
vt 0.58422 1.75543
vt -0.45357 1.52781
vt -0.49107 1.56664
vt -0.48108 1.58077
vt -0.43925 1.53747
vt -0.54018 1.58906
vt -0.53586 1.60578
vt -1.33816 -0.06826
vt -1.33816 -0.01334
vt -1.35517 -0.01018
vt -1.35517 -0.07142
vt 0.61085 1.58906
vt 0.56174 1.56664
vt 0.60652 1.60578
vt 0.55175 1.58077
vt 0.52424 1.52781
vt 0.50992 1.53747
vt -0.50169 1.75779
vt -0.48778 1.70812
vt -0.51858 1.75543
vt -0.50306 1.70003
vt -0.45364 1.66510
vt -0.46499 1.65205
vt -0.40844 1.64027
vt -0.41457 1.62435
vt 1.28382 0.01334
vt 1.28382 0.06826
vt 1.26680 0.07142
vt 1.26680 0.01018
vt 0.04896 0.94821
vt 0.04896 1.00946
vt -0.30396 1.00946
vt -0.30396 0.94821
vt -0.04896 1.62397
vt -0.04896 1.68521
vt 0.30396 1.68521
vt 0.30396 1.62397
vt -0.04896 1.85638
vt -0.04896 1.91762
vt 0.30396 1.91762
vt 0.30396 1.85638
vt -0.04896 1.58317
vt -0.04896 1.64441
vt 0.30396 1.64441
vt 0.30396 1.58317
vt 0.04896 0.87754
vt 0.04896 0.93879
vt -0.30396 0.93879
vt -0.30396 0.87754
vt 0.04896 -0.07142
vt 0.04896 -0.01018
vt -0.30396 -0.01018
vt -0.30396 -0.07142
vt 0.04896 -1.00946
vt 0.04896 -0.94821
vt -0.30396 -0.94821
vt -0.30396 -1.00946
vt 0.04896 1.68521
vt 0.04896 1.62397
vt -0.30396 1.62397
vt -0.30396 1.68521
vt 0.04896 1.91762
vt 0.04896 1.85638
vt -0.30396 1.85638
vt -0.30396 1.91762
vt 0.04896 1.64441
vt 0.04896 1.58317
vt -0.30396 1.58317
vt -0.30396 1.64441
vt 0.04896 -0.93879
vt 0.04896 -0.87754
vt -0.30396 -0.87754
vt -0.30396 -0.93879
vt 0.04896 0.01018
vt 0.04896 0.07142
vt -0.30396 0.07142
vt -0.30396 0.01018
vt -0.34318 1.73309
vt -0.39360 1.76079
vt -0.38225 1.77383
vt -0.33705 1.74900
vt -0.43167 1.80876
vt -0.41639 1.81685
vt -0.44719 1.86416
vt -0.43030 1.86652
vt 0.54335 1.39024
vt 0.58518 1.43355
vt 0.55767 1.38059
vt 0.59518 1.41942
vt 0.63996 1.45855
vt 0.64429 1.44183
vt 1.17176 -0.07142
vt 1.17176 -0.01018
vt 1.15475 -0.01334
vt 1.15475 -0.06826
vt -0.71063 1.45855
vt -0.65585 1.43355
vt -0.66584 1.41942
vt -0.71495 1.44183
vt -0.61402 1.39024
vt -0.62834 1.38059
vt 0.38155 1.86416
vt 0.36603 1.80876
vt 0.35075 1.81685
vt 0.36466 1.86652
vt 0.32796 1.76079
vt 0.31661 1.77383
vt 0.27754 1.73309
vt 0.27141 1.74900
vt -1.45021 0.01018
vt -1.45021 0.07142
vt -1.46723 0.06826
vt -1.46723 0.01334
vt -0.06167 1.91446
vt -0.03421 1.81199
vt -0.06167 1.85954
vt -0.03421 1.96201
vt 0.01334 1.78453
vt 0.01334 1.98947
vt 0.06826 1.78453
vt 0.06826 1.98947
vt 0.11581 1.81199
vt 0.11581 1.96201
vt 0.14327 1.85954
vt 0.14327 1.91446
vt 0.06167 1.91446
vt 0.06167 1.85954
vt 0.03421 1.81199
vt 0.03421 1.96201
vt -0.01334 1.78453
vt -0.01334 1.98947
vt -0.06826 1.78453
vt -0.06826 1.98947
vt -0.11581 1.81199
vt -0.11581 1.96201
vt -0.14327 1.85954
vt -0.14327 1.91446
vt -0.14790 -1.04242
vt -0.31192 -1.04242
vt -0.30396 -1.14978
vt -0.14790 -1.14978
vt -0.98908 1.10871
vt -0.99441 1.10582
vt -0.99463 1.20767
vt -0.97941 1.21592
vt -0.17462 1.65648
vt -0.17626 1.65648
vt -0.10624 1.73196
vt -0.25704 1.73196
vt -0.87575 1.25969
vt -0.87056 1.26282
vt -0.87575 1.37025
vt -0.86093 1.37919
vt -0.31192 1.21076
vt -0.14790 1.21076
vt -0.30396 1.32726
vt -0.14790 1.32726
vt 0.01612 1.21076
vt 0.00816 1.32726
vt 0.62627 1.26282
vt 0.63146 1.25969
vt 0.63146 1.37025
vt 0.61663 1.37919
vt 0.17626 1.65648
vt 0.17462 1.65648
vt 0.10624 1.73196
vt 0.25704 1.73196
vt 0.75648 1.10582
vt 0.75115 1.10871
vt 0.75670 1.20767
vt 0.74148 1.21592
vt 0.01612 -1.04242
vt 0.00816 -1.14978
vt -0.30396 -1.15278
vt -0.14790 -1.15278
vt -0.99448 1.21066
vt -0.97926 1.21891
vt -0.25386 1.73400
vt -0.10404 1.73400
vt -0.31620 0.74902
vt -0.30396 0.73885
vt -0.30396 0.74262
vt -0.31620 0.75280
vt -0.14790 0.73885
vt -0.14790 0.74262
vt 0.00816 0.73885
vt 0.00816 0.74262
vt 0.02040 0.74902
vt 0.02040 0.75280
vt 0.25386 1.73400
vt 0.10404 1.73400
vt 0.75655 1.21066
vt 0.74133 1.21891
vt 0.00816 -1.15278
vt -0.14790 1.63592
vt -0.30396 1.63592
vt -0.14790 1.72874
vt -0.31192 1.72874
vt 0.08777 1.67795
vt 0.07088 1.68172
vt 0.07679 1.77046
vt 0.07088 1.77178
vt -0.13342 1.81968
vt -0.13178 1.81968
vt -0.31192 0.89699
vt -0.31620 0.90055
vt -0.14790 0.89699
vt 0.01612 0.89699
vt 0.02040 0.90055
vt 0.13342 1.81968
vt 0.13178 1.81968
vt -0.28519 1.68172
vt -0.30208 1.67795
vt -0.29110 1.77046
vt -0.28519 1.77178
vt 0.00816 1.63592
vt 0.01612 1.72874
vt -0.31620 0.17462
vt -0.31192 0.18054
vt -0.31620 0.17626
vt -0.31192 0.17034
vt 0.01612 0.18054
vt 0.02040 0.17462
vt 0.02040 0.17626
vt 0.01612 0.17034
vt -0.14790 0.17034
vt -0.14790 0.18054
vt -0.31620 -0.13178
vt -0.31620 -0.13342
vt -0.31192 -0.13770
vt -0.31192 -0.12750
vt 0.01612 -0.13770
vt 0.02040 -0.13342
vt 0.02040 -0.13178
vt 0.01612 -0.12750
vt -0.14790 -0.12750
vt -0.14790 -0.13770
vn -0.7054 0.6632 0.2502
vn -0.7054 0.4493 0.5483
vn -0.7060 0.5391 0.4593
vn -0.7060 0.6965 0.1282
vn -0.7054 0.1149 0.6995
vn -0.7060 0.2372 0.6673
vn -0.7071 -0.1830 0.6830
vn -0.7054 -0.4493 0.5483
vn -0.7060 -0.5391 0.4593
vn -0.7071 -0.6830 0.1830
vn -0.7071 -0.6830 -0.1830
vn -0.7071 -0.5000 -0.5000
vn -0.7071 -0.1830 -0.6830
vn -0.7054 0.1149 -0.6995
vn -0.7060 0.2372 -0.6673
vn -0.7054 0.4493 -0.5483
vn -0.7060 0.5391 -0.4593
vn -0.7071 0.6830 -0.1830
vn 0.0000 0.8660 0.5000
vn 0.0000 0.5000 0.8660
vn 0.0000 0.0000 1.0000
vn 0.0000 -0.5000 0.8660
vn 0.0000 -0.8660 0.5000
vn 0.0000 -1.0000 0.0000
vn 0.0000 -0.8660 -0.5000
vn 0.0000 -0.5000 -0.8660
vn 0.0000 -0.0000 -1.0000
vn 0.0000 0.5000 -0.8660
vn 0.0000 0.8660 -0.5000
vn 0.0000 1.0000 0.0000
vn 0.7060 0.6965 0.1282
vn 0.7060 0.5391 0.4593
vn 0.7054 0.6632 0.2502
vn 0.7054 0.4493 0.5483
vn 0.7071 0.1830 0.6830
vn 0.7060 -0.2372 0.6673
vn 0.7054 -0.1149 0.6995
vn 0.7060 -0.5391 0.4593
vn 0.7054 -0.4493 0.5483
vn 0.7060 -0.6965 0.1282
vn 0.7054 -0.6632 0.2502
vn 0.7060 -0.6673 -0.2372
vn 0.7054 -0.6995 -0.1149
vn 0.7071 -0.5000 -0.5000
vn 0.7071 -0.1830 -0.6830
vn 0.7060 0.2372 -0.6673
vn 0.7054 0.1149 -0.6995
vn 0.7060 0.5391 -0.4593
vn 0.7054 0.4493 -0.5483
vn 0.7071 0.6830 -0.1830
vn -1.0000 0.0000 0.0000
vn 1.0000 0.0000 0.0000
vn -0.7071 0.6830 0.1830
vn -0.7055 0.5467 0.4510
vn -0.7059 0.4577 0.5405
vn -0.7071 0.1830 0.6830
vn -0.7055 -0.2480 0.6639
vn -0.7059 -0.1261 0.6970
vn -0.7055 -0.5467 0.4510
vn -0.7059 -0.4577 0.5405
vn -0.7055 -0.6990 0.1172
vn -0.7059 -0.6667 0.2392
vn -0.7055 -0.5467 -0.4510
vn -0.7059 -0.4577 -0.5405
vn -0.7055 -0.2480 -0.6639
vn -0.7059 -0.1261 -0.6970
vn -0.7071 0.1830 -0.6830
vn -0.7055 0.5467 -0.4510
vn -0.7059 0.4577 -0.5405
vn -0.7055 0.6990 -0.1172
vn -0.7059 0.6667 -0.2392
vn 0.7059 0.6667 0.2392
vn 0.7059 0.4577 0.5405
vn 0.7055 0.5467 0.4510
vn 0.7055 0.6990 0.1172
vn 0.7059 0.1261 0.6970
vn 0.7055 0.2480 0.6639
vn 0.7071 -0.1830 0.6830
vn 0.7059 -0.4577 0.5405
vn 0.7055 -0.5467 0.4510
vn 0.7071 -0.6830 0.1830
vn 0.7059 -0.6667 -0.2392
vn 0.7055 -0.6990 -0.1172
vn 0.7059 -0.4577 -0.5405
vn 0.7055 -0.5467 -0.4510
vn 0.7059 -0.1261 -0.6970
vn 0.7055 -0.2480 -0.6639
vn 0.7071 0.1830 -0.6830
vn 0.7059 0.4577 -0.5405
vn 0.7055 0.5467 -0.4510
vn 0.0000 0.7111 -0.7031
vn 0.0000 0.7114 -0.7028
vn 0.0000 0.7120 -0.7022
vn 0.5954 0.5394 -0.5954
vn 0.5948 0.5409 -0.5948
vn 0.5937 0.5432 -0.5937
vn 0.5638 0.6035 0.5638
vn 0.0000 0.7617 0.6479
vn -0.5638 0.6035 0.5638
vn -0.5954 0.5394 -0.5954
vn -0.5948 0.5409 -0.5948
vn -0.5937 0.5432 -0.5937
vn 0.0000 0.7117 -0.7025
vn 0.0000 0.7334 -0.6798
vn 0.5622 0.6066 -0.5622
vn 0.4752 -0.7405 0.4752
vn 0.0204 -0.8414 0.5400
vn 0.0212 -0.8312 0.5556
vn 0.5010 -0.7056 0.5010
vn 0.0000 -0.8416 0.5401
vn 0.0000 -0.8322 0.5545
vn 0.0010 -0.8319 0.5549
vn -0.0393 -0.8409 0.5397
vn -0.0010 -0.8321 0.5547
vn -0.4752 -0.7405 0.4752
vn -0.0209 -0.8313 0.5554
vn -0.5010 -0.7056 0.5010
vn -0.5622 0.6066 -0.5622
vn 0.0000 -0.3846 -0.9231
vn 0.6893 -0.2232 -0.6893
vn 0.5003 -0.7067 0.5003
vn 0.5015 -0.7050 0.5015
vn 0.0000 -0.8318 0.5551
vn -0.5003 -0.7067 0.5003
vn -0.5015 -0.7050 0.5015
vn -0.6893 -0.2232 -0.6893
s off
f 1/1/1 2/2/2 14/3/3
f 1/1/1 14/3/3 13/4/4
f 2/5/2 3/6/5 15/7/6
f 2/5/2 15/7/6 14/8/3
f 3/6/5 4/9/7 16/10/7
f 3/6/5 16/10/7 15/7/6
f 4/9/7 5/11/8 16/10/7
f 5/11/8 17/12/9 16/10/7
f 5/13/8 6/14/10 17/15/9
f 6/14/10 18/16/10 17/15/9
f 6/14/10 7/17/11 19/18/11
f 6/14/10 19/18/11 18/16/10
f 7/17/11 8/19/12 19/18/11
f 8/19/12 20/20/12 19/18/11
f 8/21/12 9/22/13 21/23/13
f 8/21/12 21/23/13 20/24/12
f 9/22/13 10/25/14 21/23/13
f 10/25/14 22/26/15 21/23/13
f 10/25/14 11/27/16 22/26/15
f 11/27/16 23/28/17 22/26/15
f 11/29/16 12/30/18 23/31/17
f 12/30/18 24/32/18 23/31/17
f 12/30/18 1/1/1 13/4/4
f 12/30/18 13/4/4 24/32/18
f 13/33/19 14/34/19 26/35/19
f 13/33/19 26/35/19 25/36/19
f 14/37/20 15/38/20 27/39/20
f 14/37/20 27/39/20 26/40/20
f 15/41/21 16/42/21 28/43/21
f 15/41/21 28/43/21 27/44/21
f 16/45/22 17/46/22 29/47/22
f 16/45/22 29/47/22 28/48/22
f 17/49/23 18/50/23 30/51/23
f 17/49/23 30/51/23 29/52/23
f 18/53/24 19/54/24 31/55/24
f 18/53/24 31/55/24 30/56/24
f 19/57/25 20/58/25 32/59/25
f 19/57/25 32/59/25 31/60/25
f 20/61/26 21/62/26 33/63/26
f 20/61/26 33/63/26 32/64/26
f 21/65/27 22/66/27 34/67/27
f 21/65/27 34/67/27 33/68/27
f 22/69/28 23/70/28 35/71/28
f 22/69/28 35/71/28 34/72/28
f 23/73/29 24/74/29 36/75/29
f 23/73/29 36/75/29 35/76/29
f 24/77/30 13/78/30 25/79/30
f 24/77/30 25/79/30 36/80/30
f 25/81/31 26/82/32 37/83/33
f 26/82/32 38/84/34 37/83/33
f 26/85/32 27/86/35 38/87/34
f 27/86/35 39/88/35 38/87/34
f 27/86/35 28/89/36 40/90/37
f 27/86/35 40/90/37 39/88/35
f 28/89/36 29/91/38 41/92/39
f 28/89/36 41/92/39 40/90/37
f 29/93/38 30/94/40 42/95/41
f 29/93/38 42/95/41 41/96/39
f 30/94/40 31/97/42 43/98/43
f 30/94/40 43/98/43 42/95/41
f 31/97/42 32/99/44 44/100/44
f 31/97/42 44/100/44 43/98/43
f 32/101/44 33/102/45 44/103/44
f 33/102/45 45/104/45 44/103/44
f 33/102/45 34/105/46 46/106/47
f 33/102/45 46/106/47 45/104/45
f 34/105/46 35/107/48 47/108/49
f 34/105/46 47/108/49 46/106/47
f 35/109/48 36/110/50 48/111/50
f 35/109/48 48/111/50 47/112/49
f 36/110/50 25/81/31 48/111/50
f 25/81/31 37/83/33 48/111/50
f 9/113/51 11/114/51 10/115/51
f 8/116/51 11/114/51 9/113/51
f 7/117/51 11/114/51 8/116/51
f 7/117/51 12/118/51 11/114/51
f 7/117/51 1/119/51 12/118/51
f 6/120/51 1/119/51 7/117/51
f 6/120/51 2/121/51 1/119/51
f 5/122/51 2/121/51 6/120/51
f 5/122/51 3/123/51 2/121/51
f 3/123/51 5/122/51 4/124/51
f 45/125/52 46/126/52 47/127/52
f 44/128/52 45/125/52 47/127/52
f 43/129/52 44/128/52 47/127/52
f 43/129/52 47/127/52 48/130/52
f 43/129/52 48/130/52 37/131/52
f 42/132/52 43/129/52 37/131/52
f 42/132/52 37/131/52 38/133/52
f 41/134/52 42/132/52 38/133/52
f 41/134/52 38/133/52 39/135/52
f 39/135/52 40/136/52 41/134/52
f 49/137/53 50/138/54 61/139/53
f 50/138/54 62/140/55 61/139/53
f 50/138/54 51/141/56 62/140/55
f 51/141/56 63/142/56 62/140/55
f 51/141/56 52/143/57 64/144/58
f 51/141/56 64/144/58 63/142/56
f 52/145/57 53/146/59 65/147/60
f 52/145/57 65/147/60 64/148/58
f 53/146/59 54/149/61 66/150/62
f 53/146/59 66/150/62 65/147/60
f 54/151/61 55/152/11 67/153/11
f 54/151/61 67/153/11 66/154/62
f 55/155/11 56/156/63 67/157/11
f 56/156/63 68/158/64 67/157/11
f 56/156/63 57/159/65 68/158/64
f 57/159/65 69/160/66 68/158/64
f 57/161/65 58/162/67 69/163/66
f 58/162/67 70/164/67 69/163/66
f 58/162/67 59/165/68 71/166/69
f 58/162/67 71/166/69 70/164/67
f 59/165/68 60/167/70 72/168/71
f 59/165/68 72/168/71 71/166/69
f 60/169/70 49/170/53 61/171/53
f 60/169/70 61/171/53 72/172/71
f 61/173/19 62/174/19 74/175/19
f 61/173/19 74/175/19 73/176/19
f 62/177/20 63/178/20 75/179/20
f 62/177/20 75/179/20 74/180/20
f 63/181/21 64/182/21 76/183/21
f 63/181/21 76/183/21 75/184/21
f 64/185/22 65/186/22 77/187/22
f 64/185/22 77/187/22 76/188/22
f 65/189/23 66/190/23 78/191/23
f 65/189/23 78/191/23 77/192/23
f 66/193/24 67/194/24 79/195/24
f 66/193/24 79/195/24 78/196/24
f 67/197/25 68/198/25 80/199/25
f 67/197/25 80/199/25 79/200/25
f 68/201/26 69/202/26 81/203/26
f 68/201/26 81/203/26 80/204/26
f 69/205/27 70/206/27 82/207/27
f 69/205/27 82/207/27 81/208/27
f 70/209/28 71/210/28 83/211/28
f 70/209/28 83/211/28 82/212/28
f 71/213/29 72/214/29 84/215/29
f 71/213/29 84/215/29 83/216/29
f 72/217/30 61/218/30 73/219/30
f 72/217/30 73/219/30 84/220/30
f 73/221/72 74/222/73 86/223/74
f 73/221/72 86/223/74 85/224/75
f 74/222/73 75/225/76 87/226/77
f 74/222/73 87/226/77 86/223/74
f 75/225/76 76/227/78 88/228/78
f 75/225/76 88/228/78 87/226/77
f 76/229/78 77/230/79 88/231/78
f 77/230/79 89/232/80 88/231/78
f 77/230/79 78/233/81 89/232/80
f 78/233/81 90/234/81 89/232/80
f 78/235/81 79/236/82 91/237/83
f 78/235/81 91/237/83 90/238/81
f 79/239/82 80/240/84 92/241/85
f 79/239/82 92/241/85 91/242/83
f 80/240/84 81/243/86 93/244/87
f 80/240/84 93/244/87 92/241/85
f 81/245/86 82/246/88 94/247/88
f 81/245/86 94/247/88 93/248/87
f 82/246/88 83/249/89 94/247/88
f 83/249/89 95/250/90 94/247/88
f 83/249/89 84/251/50 95/250/90
f 84/251/50 96/252/50 95/250/90
f 84/253/50 73/254/72 85/255/75
f 84/253/50 85/255/75 96/256/50
f 57/257/51 59/258/51 58/259/51
f 56/260/51 59/258/51 57/257/51
f 56/260/51 60/261/51 59/258/51
f 55/262/51 60/261/51 56/260/51
f 55/262/51 49/263/51 60/261/51
f 54/264/51 49/263/51 55/262/51
f 54/264/51 50/265/51 49/263/51
f 53/266/51 50/265/51 54/264/51
f 53/266/51 51/267/51 50/265/51
f 51/267/51 53/266/51 52/268/51
f 93/269/52 94/270/52 95/271/52
f 92/272/52 93/269/52 95/271/52
f 92/272/52 95/271/52 96/273/52
f 91/274/52 92/272/52 96/273/52
f 91/274/52 96/273/52 85/275/52
f 90/276/52 91/274/52 85/275/52
f 90/276/52 85/275/52 86/277/52
f 89/278/52 90/276/52 86/277/52
f 89/278/52 86/277/52 87/279/52
f 87/279/52 88/280/52 89/278/52
f 97/281/91 98/282/91 108/283/92
f 97/281/91 108/283/92 107/284/93
f 98/285/94 99/286/94 109/287/95
f 98/285/94 109/287/95 108/288/96
f 99/289/52 100/290/52 109/291/52
f 100/290/52 110/292/52 109/291/52
f 100/293/97 101/294/97 110/295/97
f 101/294/97 111/296/97 110/295/97
f 101/297/98 102/298/98 111/299/98
f 102/298/98 112/300/98 111/299/98
f 102/298/98 103/301/98 113/302/98
f 102/298/98 113/302/98 112/300/98
f 103/303/99 104/304/99 114/305/99
f 103/303/99 114/305/99 113/306/99
f 104/307/51 105/308/51 115/309/51
f 104/307/51 115/309/51 114/310/51
f 105/311/100 106/312/100 115/313/101
f 106/312/100 116/314/102 115/313/101
f 106/315/91 97/281/91 116/316/103
f 97/281/91 107/284/93 116/316/103
f 107/284/93 108/283/92 118/317/104
f 107/284/93 118/317/104 117/318/104
f 108/288/96 109/287/95 119/319/105
f 108/288/96 119/319/105 118/320/105
f 109/291/52 110/292/52 120/321/52
f 109/291/52 120/321/52 119/322/52
f 110/323/106 111/324/107 121/325/108
f 110/323/106 121/325/108 120/326/109
f 111/324/107 112/327/110 122/328/111
f 111/324/107 122/328/111 121/325/112
f 112/327/110 113/329/113 123/330/114
f 112/327/110 123/330/114 122/328/111
f 113/329/113 114/331/115 123/330/116
f 114/331/115 124/332/117 123/330/116
f 114/310/51 115/309/51 124/333/51
f 115/309/51 125/334/51 124/333/51
f 115/313/101 116/314/102 125/335/118
f 116/314/102 126/336/118 125/335/118
f 116/316/103 107/284/93 117/318/104
f 116/316/103 117/318/104 126/337/104
f 117/338/119 118/339/119 127/340/119
f 118/339/119 128/341/119 127/340/119
f 118/342/120 119/343/120 128/344/120
f 119/343/120 129/345/120 128/344/120
f 119/322/52 120/321/52 130/346/52
f 119/322/52 130/346/52 129/347/52
f 120/326/109 121/325/121 131/348/122
f 120/326/109 131/348/122 130/349/122
f 121/325/112 122/328/111 132/350/123
f 121/325/112 132/350/123 131/348/123
f 122/328/111 123/330/114 132/350/123
f 123/330/114 133/351/123 132/350/123
f 123/330/124 124/332/117 133/351/125
f 124/332/117 134/352/125 133/351/125
f 124/333/51 125/334/51 134/353/51
f 125/334/51 135/354/51 134/353/51
f 125/355/126 126/356/126 136/357/126
f 125/355/126 136/357/126 135/358/126
f 126/359/119 117/338/119 127/340/119
f 126/359/119 127/340/119 136/360/119
f 99/361/30 101/362/30 100/363/30
f 98/364/30 101/362/30 99/361/30
f 103/365/30 105/366/30 104/367/30
f 103/365/30 106/368/30 105/366/30
f 97/369/30 101/362/30 98/364/30
f 97/369/30 102/370/30 101/362/30
f 106/368/30 102/370/30 97/369/30
f 102/370/30 106/368/30 103/365/30
f 129/371/24 130/372/24 131/373/24
f 128/374/24 129/371/24 131/373/24
f 133/375/24 134/376/24 135/377/24
f 133/375/24 135/377/24 136/378/24
f 127/379/24 128/374/24 131/373/24
f 127/379/24 131/373/24 132/380/24
f 136/378/24 127/379/24 132/380/24
f 132/380/24 133/375/24 136/378/24
