# mech2 legs - Leg_L_Foot_White.obj  (generated by source/build.py; do not edit by hand)
# frame: Leg_L hip-joint centre = origin, studs, +Y up, -Z forward
# segment: Foot  colour: White RGB (236, 236, 232)  pieces: toe_plate
# bbox centre in leg frame: [-0.5059, -7.8001, -1.583]  size: [1.6646, 1.3203, 2.6765]
# segment pivot (Ankle) in leg frame: [-0.5059, -7.548, 0.1632]
o Leg_L_Foot_White
v -0.51816 -7.14000 -1.36181
v -1.22400 -7.14000 -1.28021
v -1.32192 -7.14000 -1.18229
v -1.32192 -7.14000 -0.78728
v -1.27296 -7.14000 -0.73832
v -0.51816 -7.14000 -0.73832
v 0.23664 -7.14000 -0.73832
v 0.28560 -7.14000 -0.78728
v 0.28560 -7.14000 -1.18229
v 0.18768 -7.14000 -1.28021
v -0.50621 -7.83360 -2.23388
v -1.23661 -7.83360 -2.15228
v -1.33453 -7.83360 -2.05436
v -1.33453 -7.83360 -0.29376
v -1.28557 -7.83360 -0.24480
v -0.50621 -7.83360 -0.24480
v 0.27315 -7.83360 -0.24480
v 0.32211 -7.83360 -0.29376
v 0.32211 -7.83360 -2.05436
v 0.22419 -7.83360 -2.15228
v -0.50481 -7.91520 -2.33648
v -1.23809 -7.91520 -2.25488
v -1.33601 -7.91520 -2.15696
v -1.33601 -7.91520 -0.35751
v -1.28705 -7.91520 -0.30855
v -0.50481 -7.91520 -0.30855
v 0.27744 -7.91520 -0.30855
v 0.32640 -7.91520 -0.35751
v 0.32640 -7.91520 -2.15696
v 0.22848 -7.91520 -2.25488
v -0.54257 -8.03760 -2.49037
v -1.24032 -8.03760 -2.40877
v -1.33824 -8.03760 -2.31085
v -1.33824 -8.03760 -0.45313
v -1.28928 -8.03760 -0.40417
v -0.54257 -8.03760 -0.40417
v 0.20415 -8.03760 -0.40417
v 0.25311 -8.03760 -0.45313
v 0.25311 -8.03760 -2.31085
v 0.15519 -8.03760 -2.40877
v -0.54263 -8.38032 -2.92128
v -1.03522 -8.38032 -2.83968
v -1.13314 -8.38032 -2.74176
v -1.13314 -8.38032 -0.72088
v -1.08418 -8.38032 -0.67192
v -0.54263 -8.38032 -0.67192
v -0.00107 -8.38032 -0.67192
v 0.04789 -8.38032 -0.72088
v 0.04789 -8.38032 -2.74176
v -0.05003 -8.38032 -2.83968
v -0.54264 -8.46029 -2.81520
v -0.98736 -8.46029 -2.73360
v -1.08528 -8.46029 -2.63568
v -1.08528 -8.46029 -0.78336
v -1.03632 -8.46029 -0.73440
v -0.54264 -8.46029 -0.73440
v -0.04896 -8.46029 -0.73440
v -0.00000 -8.46029 -0.78336
v -0.00000 -8.46029 -2.63568
v -0.09792 -8.46029 -2.73360
vt 0.09794 -1.38104
vt 0.27717 -1.64368
vt 0.27400 -1.36511
vt 0.09498 -1.65961
vt 0.87190 -1.43499
vt 0.89413 -1.69484
vt 0.90138 -1.41684
vt 0.86465 -1.71299
vt -0.29557 1.79071
vt -0.07344 1.96414
vt -0.19682 1.79071
vt -0.51359 1.96414
vt 0.34032 1.63672
vt 0.49893 1.77865
vt 0.35606 1.62950
vt 0.51466 1.77143
vt -0.31824 1.34739
vt -0.12655 1.56021
vt -0.12954 1.34739
vt -0.32139 1.56021
vt 0.05916 1.34739
vt 0.06829 1.56021
vt -0.50048 1.45422
vt -0.64243 1.60497
vt -0.48485 1.46165
vt -0.65807 1.59753
vt 0.19682 1.78629
vt 0.07344 1.95993
vt 0.29557 1.78629
vt 0.51359 1.95993
vt -0.10367 -1.34600
vt -0.11278 -1.62457
vt -0.07879 -1.36511
vt -0.08790 -1.64368
vt 0.27755 -1.67645
vt 0.09463 -1.69238
vt 0.89328 -1.72755
vt 0.86380 -1.74570
vt -0.08938 1.98454
vt -0.53924 1.98454
vt -0.50523 1.32279
vt -0.52235 1.33881
vt -0.51981 1.31346
vt -0.50777 1.34814
vt -0.32139 1.58094
vt -0.12620 1.60683
vt -0.12655 1.58094
vt -0.32176 1.60683
vt 0.06829 1.58094
vt 0.06936 1.60683
vt 0.73056 1.24526
vt 0.73299 1.27034
vt 0.71622 1.25495
vt 0.71864 1.28003
vt 0.08938 1.98035
vt 0.53924 1.98035
vt -0.11385 -1.65734
vt -0.08897 -1.67645
vt 0.10407 -1.74154
vt 0.27811 -1.72561
vt 0.89200 -1.77661
vt 0.86252 -1.79476
vt -0.11328 2.01515
vt -0.57771 2.01515
vt -0.52616 1.37683
vt -0.51158 1.38617
vt -0.13564 1.64566
vt -0.32232 1.64566
vt 0.05104 1.64566
vt 0.75364 1.30796
vt 0.73929 1.31765
vt 0.08938 1.65578
vt 0.11328 1.69145
vt 0.53924 1.65578
vt 0.57771 1.69145
vt 1.06781 1.69754
vt 1.11794 1.71302
vt 1.09970 1.68407
vt 1.14983 1.69955
vt -0.07065 -1.72561
vt 0.22686 -1.86325
vt 0.10410 -1.87918
vt 0.84454 -1.91397
vt 0.81506 -1.93212
vt -0.57771 1.55242
vt -0.18022 1.65227
vt -0.11328 1.55242
vt -0.68544 1.65227
vt -0.58118 1.48330
vt -0.56660 1.49264
vt -0.27104 1.75439
vt -0.13566 1.75439
vt -0.00027 1.75439
vt 0.81145 1.41331
vt 0.79710 1.42299
vt 0.18022 1.79132
vt 0.68544 1.79132
vt 1.25829 1.75636
vt 1.29019 1.74289
vt -0.01935 -1.86325
vt 0.13566 -0.57246
vt 0.24684 -0.62251
vt 0.25880 -0.58934
vt 0.13566 -0.60563
vt 0.28328 -0.60960
vt 0.27132 -0.64277
vt -0.65892 1.67557
vt -0.19584 1.67557
vt -0.59402 1.50815
vt -0.57944 1.51748
vt -0.25908 1.77976
vt -0.13566 1.77976
vt -0.01224 1.77976
vt 0.82494 1.43789
vt 0.81059 1.44757
vt 0.65892 1.81462
vt 0.19584 1.81462
vt -0.01197 -0.60960
vt 0.02448 -0.62251
vt 0.01251 -0.58934
vt 0.00000 -0.64277
vt 0.30600 -0.32005
vt 0.33048 -0.29557
vt 0.33048 -0.19682
vt 0.12954 -0.34045
vt -0.04692 -0.32005
vt -0.07140 -0.19682
vt -0.07140 -0.29557
vt 0.31824 -0.18458
vt 0.12954 -0.18458
vt -0.05916 -0.18458
vt 0.00000 0.65892
vt 0.13566 0.70380
vt 0.02448 0.68340
vt 0.00000 0.19584
vt 0.24684 0.68340
vt 0.13566 0.18360
vt 0.01224 0.18360
vt 0.25908 0.18360
vt 0.27132 0.65892
vt 0.27132 0.19584
vn 0.0000 0.7831 -0.6219
vn -0.1105 0.7782 -0.6182
vn -0.1876 0.7701 -0.6098
vn 0.0000 0.7827 -0.6224
vn -0.5251 0.6697 -0.5251
vn -0.9998 0.0182 0.0000
vn -0.6284 0.4585 0.6284
vn 0.0000 0.5798 0.8148
vn 0.6221 0.4754 0.6221
vn 0.9986 0.0526 0.0000
vn 0.5188 0.6795 -0.5188
vn 0.1867 0.7727 -0.6067
vn 0.1102 0.7797 -0.6164
vn -0.1227 0.7795 -0.6142
vn 0.0163 0.7787 -0.6271
vn -0.6223 -0.4749 0.6223
vn 0.0000 -0.6156 0.7880
vn 0.6286 -0.4580 0.6286
vn 0.5758 -0.5803 0.5758
vn 0.5359 -0.6523 0.5359
vn 0.5714 0.5890 -0.5714
vn 0.1468 0.7537 -0.6406
vn 0.0904 0.7737 -0.6271
vn -0.0059 0.7750 -0.6319
vn -0.0942 0.7671 -0.6346
vn -0.5935 0.5435 -0.5935
vn -0.1899 0.7316 -0.6548
vn -0.5538 -0.6218 0.5538
vn -0.5231 -0.6729 0.5231
vn 0.5061 -0.6984 0.5061
vn 0.8579 -0.5137 0.0000
vn 0.6410 0.4221 -0.6410
vn 0.6115 0.5022 -0.6115
vn 0.0741 0.7648 -0.6400
vn -0.0867 0.7695 -0.6327
vn -0.0000 0.7826 -0.6225
vn -0.6243 0.4696 -0.6243
vn -0.6410 0.4223 -0.6410
vn -0.8581 -0.5135 0.0000
vn -0.5061 -0.6983 0.5061
vn 0.0867 0.7695 -0.6327
vn 0.0000 -0.8095 -0.5872
vn -0.1752 -0.8146 -0.5530
vn -0.1657 -0.8220 -0.5449
vn 0.0000 -0.7985 -0.6020
vn -0.4186 -0.8059 -0.4186
vn 0.4186 -0.8059 -0.4186
vn 0.1752 -0.8146 -0.5530
vn 0.1656 -0.8220 -0.5449
vn 0.0000 1.0000 0.0000
vn 0.0000 -1.0000 0.0000
s off
f 1/1/1 12/2/2 2/3/3
f 1/1/1 11/4/4 12/2/2
f 2/5/3 13/6/5 3/7/5
f 2/5/3 12/8/2 13/6/5
f 3/9/6 14/10/6 4/11/6
f 3/9/6 13/12/6 14/10/6
f 4/13/7 14/14/7 5/15/7
f 5/15/7 14/14/7 15/16/7
f 5/17/8 16/18/8 6/19/8
f 5/17/8 15/20/8 16/18/8
f 6/19/8 16/18/8 7/21/8
f 7/21/8 16/18/8 17/22/8
f 7/23/9 18/24/9 8/25/9
f 7/23/9 17/26/9 18/24/9
f 8/27/10 18/28/10 9/29/10
f 9/29/10 18/28/10 19/30/10
f 9/31/11 19/32/11 10/33/12
f 10/33/12 19/32/11 20/34/13
f 10/33/12 20/34/13 1/1/1
f 1/1/1 20/34/13 11/4/4
f 11/4/4 22/35/14 12/2/2
f 11/4/4 21/36/15 22/35/14
f 12/8/2 23/37/5 13/6/5
f 12/8/2 22/38/14 23/37/5
f 13/12/6 24/39/6 14/10/6
f 13/12/6 23/40/6 24/39/6
f 14/41/16 25/42/16 15/43/16
f 14/41/16 24/44/16 25/42/16
f 15/45/17 26/46/17 16/47/17
f 15/45/17 25/48/17 26/46/17
f 16/47/17 26/46/17 17/49/17
f 17/49/17 26/46/17 27/50/17
f 17/51/18 27/52/19 18/53/18
f 18/53/18 27/52/19 28/54/20
f 18/28/10 28/55/10 19/30/10
f 19/30/10 28/55/10 29/56/10
f 19/32/11 29/57/21 20/34/13
f 20/34/13 29/57/21 30/58/22
f 20/34/13 30/58/23 11/4/4
f 11/4/4 30/58/23 21/36/15
f 21/36/15 31/59/24 22/35/14
f 22/35/14 31/59/24 32/60/25
f 22/38/14 33/61/26 23/37/5
f 22/38/14 32/62/27 33/61/26
f 23/40/6 34/63/6 24/39/6
f 23/40/6 33/64/6 34/63/6
f 24/44/16 35/65/28 25/42/16
f 24/44/16 34/66/29 35/65/28
f 25/48/17 36/67/17 26/46/17
f 25/48/17 35/68/17 36/67/17
f 26/46/17 37/69/17 27/50/17
f 26/46/17 36/67/17 37/69/17
f 27/52/19 37/70/30 28/54/20
f 28/54/20 37/70/30 38/71/30
f 28/72/31 38/73/31 29/74/31
f 29/74/31 38/73/31 39/75/31
f 29/76/21 39/77/32 30/78/33
f 30/78/33 39/77/32 40/79/32
f 30/58/23 40/80/34 21/36/15
f 21/36/15 40/80/34 31/59/24
f 31/59/24 42/81/35 32/60/25
f 31/59/24 41/82/36 42/81/35
f 32/62/37 43/83/38 33/61/26
f 32/62/37 42/84/38 43/83/38
f 33/85/39 44/86/39 34/87/39
f 33/85/39 43/88/39 44/86/39
f 34/66/29 45/89/40 35/65/28
f 34/66/29 44/90/40 45/89/40
f 35/68/17 45/91/17 36/67/17
f 36/67/17 45/91/17 46/92/17
f 36/67/17 47/93/17 37/69/17
f 36/67/17 46/92/17 47/93/17
f 37/70/30 47/94/30 38/71/30
f 38/71/30 47/94/30 48/95/30
f 38/73/31 48/96/31 39/75/31
f 39/75/31 48/96/31 49/97/31
f 39/77/32 49/98/32 40/79/32
f 40/79/32 49/98/32 50/99/32
f 40/80/34 50/100/41 31/59/24
f 31/59/24 50/100/41 41/82/36
f 41/101/42 52/102/43 42/103/44
f 41/101/42 51/104/45 52/102/43
f 42/103/44 52/102/43 43/105/46
f 43/105/46 52/102/43 53/106/46
f 43/88/39 53/107/39 44/86/39
f 44/86/39 53/107/39 54/108/39
f 44/90/40 55/109/40 45/89/40
f 44/90/40 54/110/40 55/109/40
f 45/91/17 55/111/17 46/92/17
f 46/92/17 55/111/17 56/112/17
f 46/92/17 57/113/17 47/93/17
f 46/92/17 56/112/17 57/113/17
f 47/94/30 57/114/30 48/95/30
f 48/95/30 57/114/30 58/115/30
f 48/96/31 59/116/31 49/97/31
f 48/96/31 58/117/31 59/116/31
f 49/118/47 60/119/48 50/120/49
f 49/118/47 59/121/47 60/119/48
f 50/120/49 60/119/48 41/101/42
f 41/101/42 60/119/48 51/104/45
f 2/122/50 3/123/50 4/124/50
f 1/125/50 2/122/50 4/124/50
f 10/126/50 1/125/50 4/124/50
f 8/127/50 9/128/50 10/126/50
f 8/127/50 10/126/50 4/124/50
f 4/124/50 5/129/50 6/130/50
f 8/127/50 4/124/50 6/130/50
f 6/130/50 7/131/50 8/127/50
f 59/132/51 51/133/51 60/134/51
f 58/135/51 51/133/51 59/132/51
f 58/135/51 52/136/51 51/133/51
f 56/137/51 58/135/51 57/138/51
f 56/137/51 52/136/51 58/135/51
f 55/139/51 52/136/51 56/137/51
f 55/139/51 53/140/51 52/136/51
f 53/140/51 55/139/51 54/141/51
