# mech2 legs - Leg_R_Blue.obj  (generated by source/build.py; do not edit by hand)
# frame: Leg_R hip-joint centre = origin, studs, +Y up, -Z forward
# segment: whole leg  colour: Blue RGB (47, 111, 191)  pieces: thigh_core, kneeback_inset, calf, ankle_front
# bbox centre in leg frame: [0.2162, -3.8148, 0.049]  size: [1.9829, 6.8952, 2.5133]
# segment pivot (Hip) in leg frame: [0.0, 0.0, 0.0]
o Leg_R_Blue
v -0.04080 -0.36720 -0.65280
v 0.61200 -0.36720 -0.65280
v 0.69360 -0.36720 -0.57120
v 0.69360 -0.36720 0.40800
v 0.61200 -0.36720 0.48960
v -0.04080 -0.36720 0.48960
v -0.69360 -0.36720 0.48960
v -0.77520 -0.36720 0.40800
v -0.77520 -0.36720 -0.57120
v -0.69360 -0.36720 -0.65280
v -0.02612 -0.81600 -0.63329
v 0.61200 -0.81600 -0.63329
v 0.69360 -0.81600 -0.55169
v 0.69360 -0.81600 0.97920
v 0.61200 -0.81600 1.06080
v -0.02612 -0.81600 1.06080
v -0.66424 -0.81600 1.06080
v -0.74584 -0.81600 0.97920
v -0.74584 -0.81600 -0.55169
v -0.66424 -0.81600 -0.63329
v -0.01010 -1.30560 -0.61200
v 0.61200 -1.30560 -0.61200
v 0.69360 -1.30560 -0.53040
v 0.69360 -1.30560 0.97920
v 0.61200 -1.30560 1.06080
v -0.01010 -1.30560 1.06080
v -0.63221 -1.30560 1.06080
v -0.71381 -1.30560 0.97920
v -0.71381 -1.30560 -0.53040
v -0.63221 -1.30560 -0.61200
v 0.04328 -2.93760 -0.36720
v 0.61200 -2.93760 -0.36720
v 0.69360 -2.93760 -0.28560
v 0.69360 -2.93760 0.97920
v 0.61200 -2.93760 1.06080
v 0.04328 -2.93760 1.06080
v -0.52544 -2.93760 1.06080
v -0.60704 -2.93760 0.97920
v -0.60704 -2.93760 -0.28560
v -0.52544 -2.93760 -0.36720
v 0.08065 -4.08000 -0.16320
v 0.61200 -4.08000 -0.16320
v 0.69360 -4.08000 -0.08160
v 0.69360 -4.08000 0.97920
v 0.61200 -4.08000 1.06080
v 0.08065 -4.08000 1.06080
v -0.45071 -4.08000 1.06080
v -0.53231 -4.08000 0.97920
v -0.53231 -4.08000 -0.08160
v -0.45071 -4.08000 -0.16320
v 0.09666 -4.56960 0.05440
v 0.61200 -4.56960 0.05440
v 0.69360 -4.56960 0.13600
v 0.69360 -4.56960 0.97920
v 0.61200 -4.56960 1.06080
v 0.09666 -4.56960 1.06080
v -0.41868 -4.56960 1.06080
v -0.50028 -4.56960 0.97920
v -0.50028 -4.56960 0.13600
v -0.41868 -4.56960 0.05440
v 0.10200 -4.73280 0.12693
v 0.61200 -4.73280 0.12693
v 0.69360 -4.73280 0.20853
v 0.69360 -4.73280 0.38080
v 0.61200 -4.73280 0.46240
v 0.10200 -4.73280 0.46240
v -0.40800 -4.73280 0.46240
v -0.48960 -4.73280 0.38080
v -0.48960 -4.73280 0.20853
v -0.40800 -4.73280 0.12693
v 0.09792 -3.59040 0.16320
v 0.44880 -3.59040 0.16320
v 0.48960 -3.59040 0.20400
v 0.48960 -3.59040 1.22400
v 0.44880 -3.59040 1.26480
v 0.09792 -3.59040 1.26480
v -0.25296 -3.59040 1.26480
v -0.29376 -3.59040 1.22400
v -0.29376 -3.59040 0.20400
v -0.25296 -3.59040 0.16320
v 0.11582 -3.75360 0.16320
v 0.47828 -3.75360 0.16320
v 0.51908 -3.75360 0.20400
v 0.51908 -3.75360 1.26480
v 0.47828 -3.75360 1.30560
v 0.11582 -3.75360 1.30560
v -0.24664 -3.75360 1.30560
v -0.28744 -3.75360 1.26480
v -0.28744 -3.75360 0.20400
v -0.24664 -3.75360 0.16320
v 0.16057 -4.16160 0.16320
v 0.55198 -4.16160 0.16320
v 0.59278 -4.16160 0.20400
v 0.59278 -4.16160 1.02000
v 0.55198 -4.16160 1.06080
v 0.16057 -4.16160 1.06080
v -0.23085 -4.16160 1.06080
v -0.27165 -4.16160 1.02000
v -0.27165 -4.16160 0.20400
v -0.23085 -4.16160 0.16320
v 0.19637 -4.48800 0.16320
v 0.61095 -4.48800 0.16320
v 0.65175 -4.48800 0.20400
v 0.65175 -4.48800 0.87312
v 0.61095 -4.48800 0.91392
v 0.19637 -4.48800 0.91392
v -0.21821 -4.48800 0.91392
v -0.25901 -4.48800 0.87312
v -0.25901 -4.48800 0.20400
v -0.21821 -4.48800 0.16320
v 0.23664 -4.85520 0.16320
v 0.67728 -4.85520 0.16320
v 0.71808 -4.85520 0.20400
v 0.71808 -4.85520 0.70992
v 0.67728 -4.85520 0.75072
v 0.23664 -4.85520 0.75072
v -0.20400 -4.85520 0.75072
v -0.24480 -4.85520 0.70992
v -0.24480 -4.85520 0.20400
v -0.20400 -4.85520 0.16320
v 0.22848 -4.77360 0.24348
v 0.78336 -4.77360 0.24348
v 0.86496 -4.77360 0.32508
v 0.86496 -4.77360 0.78336
v 0.75072 -4.77360 0.89760
v 0.22848 -4.77360 0.89760
v -0.29376 -4.77360 0.89760
v -0.40800 -4.77360 0.78336
v -0.40800 -4.77360 0.32508
v -0.32640 -4.77360 0.24348
v 0.26929 -5.38560 0.22374
v 0.87683 -5.38560 0.22374
v 0.95843 -5.38560 0.30534
v 0.95843 -5.38560 0.86496
v 0.84419 -5.38560 0.97920
v 0.26929 -5.38560 0.97920
v -0.30561 -5.38560 0.97920
v -0.41985 -5.38560 0.86496
v -0.41985 -5.38560 0.30534
v -0.33825 -5.38560 0.22374
v 0.31282 -6.03840 0.20268
v 0.97653 -6.03840 0.20268
v 1.05813 -6.03840 0.28428
v 1.05813 -6.03840 0.91392
v 0.94389 -6.03840 1.02816
v 0.31282 -6.03840 1.02816
v -0.31824 -6.03840 1.02816
v -0.43248 -6.03840 0.91392
v -0.43248 -6.03840 0.28428
v -0.35088 -6.03840 0.20268
v 0.33187 -6.32400 0.19347
v 1.02015 -6.32400 0.19347
v 1.10175 -6.32400 0.27507
v 1.10175 -6.32400 0.78336
v 0.98751 -6.32400 0.89760
v 0.33187 -6.32400 0.89760
v -0.32377 -6.32400 0.89760
v -0.43801 -6.32400 0.78336
v -0.43801 -6.32400 0.27507
v -0.35641 -6.32400 0.19347
v 0.34275 -6.48720 0.18821
v 1.04507 -6.48720 0.18821
v 1.12667 -6.48720 0.26981
v 1.12667 -6.48720 0.53856
v 1.01243 -6.48720 0.65280
v 0.34275 -6.48720 0.65280
v -0.32693 -6.48720 0.65280
v -0.44117 -6.48720 0.53856
v -0.44117 -6.48720 0.26981
v -0.35957 -6.48720 0.18821
v 0.37812 -7.01760 0.17110
v 1.12608 -7.01760 0.17110
v 1.20768 -7.01760 0.25270
v 1.20768 -7.01760 0.51064
v 1.09344 -7.01760 0.62488
v 0.37812 -7.01760 0.62488
v -0.33719 -7.01760 0.62488
v -0.45143 -7.01760 0.51064
v -0.45143 -7.01760 0.25270
v -0.36983 -7.01760 0.17110
v 0.31281 -7.26240 0.16320
v 1.00018 -7.26240 0.16320
v 1.08178 -7.26240 0.24480
v 1.08178 -7.26240 0.49776
v 0.96754 -7.26240 0.61200
v 0.31281 -7.26240 0.61200
v -0.34193 -7.26240 0.61200
v -0.45617 -7.26240 0.49776
v -0.45617 -7.26240 0.24480
v -0.37457 -7.26240 0.16320
v 0.40800 -6.16080 -1.06080
v 0.41126 -6.16080 -1.06080
v 0.42840 -6.16080 -1.04366
v 0.42840 -6.16080 -0.34354
v 0.41126 -6.16080 -0.32640
v 0.40800 -6.16080 -0.32640
v 0.40474 -6.16080 -0.32640
v 0.38760 -6.16080 -0.34354
v 0.38760 -6.16080 -1.04366
v 0.40474 -6.16080 -1.06080
v 0.41356 -6.44640 -1.12934
v 0.66393 -6.44640 -1.12934
v 0.74553 -6.44640 -1.04774
v 0.74553 -6.44640 -0.36720
v 0.70473 -6.44640 -0.32640
v 0.41356 -6.44640 -0.32640
v 0.12240 -6.44640 -0.32640
v 0.08160 -6.44640 -0.36720
v 0.08160 -6.44640 -1.04774
v 0.16320 -6.44640 -1.12934
v 0.46920 -6.60960 -1.16851
v 0.85680 -6.60960 -1.16851
v 0.93840 -6.60960 -1.08691
v 0.93840 -6.60960 -0.36720
v 0.89760 -6.60960 -0.32640
v 0.46920 -6.60960 -0.32640
v 0.04080 -6.60960 -0.32640
v 0.00000 -6.60960 -0.36720
v 0.00000 -6.60960 -1.08691
v 0.08160 -6.60960 -1.16851
v 0.43656 -6.77280 -1.20768
v 0.87312 -6.77280 -1.20768
v 0.95472 -6.77280 -1.12608
v 0.95472 -6.77280 -0.36720
v 0.91392 -6.77280 -0.32640
v 0.43656 -6.77280 -0.32640
v -0.04080 -6.77280 -0.32640
v -0.08160 -6.77280 -0.36720
v -0.08160 -6.77280 -1.12608
v -0.00000 -6.77280 -1.20768
v 0.42024 -6.85440 -1.13647
v 0.88128 -6.85440 -1.13647
v 0.96288 -6.85440 -1.05487
v 0.96288 -6.85440 -0.36720
v 0.92208 -6.85440 -0.32640
v 0.42024 -6.85440 -0.32640
v -0.08160 -6.85440 -0.32640
v -0.12240 -6.85440 -0.36720
v -0.12240 -6.85440 -1.05487
v -0.04080 -6.85440 -1.13647
v 0.45560 -7.01760 -0.99404
v 0.89760 -7.01760 -0.99404
v 0.97920 -7.01760 -0.91244
v 0.97920 -7.01760 -0.36720
v 0.93840 -7.01760 -0.32640
v 0.45560 -7.01760 -0.32640
v -0.02720 -7.01760 -0.32640
v -0.06800 -7.01760 -0.36720
v -0.06800 -7.01760 -0.91244
v 0.01360 -7.01760 -0.99404
v 0.40800 -7.22160 -0.81600
v 0.73440 -7.22160 -0.81600
v 0.81600 -7.22160 -0.73440
v 0.81600 -7.22160 -0.36720
v 0.77520 -7.22160 -0.32640
v 0.40800 -7.22160 -0.32640
v 0.04080 -7.22160 -0.32640
v 0.00000 -7.22160 -0.36720
v 0.00000 -7.22160 -0.73440
v 0.08160 -7.22160 -0.81600
vt 0.01020 0.06291
vt -0.15300 0.06291
vt 0.00653 0.17432
vt -0.15300 0.17432
vt -0.00068 0.06347
vt -0.02931 0.05988
vt -0.01800 0.17392
vt -0.04663 0.17033
vt 0.14280 0.09180
vt -0.10200 0.09180
vt 0.13792 0.20400
vt -0.24480 0.20400
vt -0.15233 0.13692
vt -0.12836 0.15296
vt -0.15233 0.31853
vt -0.12836 0.33457
vt -0.15300 0.15296
vt 0.01020 0.15296
vt 0.00653 0.33457
vt -0.15300 0.33457
vt 0.17340 0.15296
vt 0.16606 0.33457
vt 0.14222 0.15282
vt 0.16642 0.13711
vt 0.15771 0.31866
vt 0.13351 0.33437
vt 0.10200 0.07895
vt -0.14280 0.07895
vt -0.13792 0.19139
vt 0.24480 0.19139
vt 0.04393 0.04324
vt 0.01549 0.04807
vt 0.06100 0.15398
vt 0.03256 0.15882
vt 0.17340 0.06291
vt 0.16606 0.17432
vt 0.00253 0.29586
vt -0.15300 0.29586
vt -0.03689 0.29441
vt -0.06552 0.29083
vt 0.13260 0.32640
vt -0.24480 0.32640
vt -0.05049 0.20400
vt -0.07934 0.20400
vt -0.07934 0.32640
vt -0.05049 0.32640
vt 0.15300 0.20400
vt -0.00653 0.20400
vt -0.00253 0.32640
vt 0.15300 0.32640
vt -0.16606 0.20400
vt -0.15805 0.32640
vt 0.06127 0.19272
vt 0.03245 0.19139
vt 0.03245 0.31405
vt 0.06127 0.31539
vt -0.13260 0.31405
vt 0.24480 0.31405
vt 0.07961 0.27479
vt 0.05117 0.27963
vt 0.15805 0.29586
vt -0.01082 0.70834
vt -0.15300 0.70834
vt -0.13083 0.69606
vt -0.15946 0.69247
vt 0.07140 0.73440
vt -0.24480 0.73440
vt -0.07934 0.73440
vt -0.05049 0.73440
vt 0.01082 0.73440
vt 0.15300 0.73440
vt -0.13136 0.73440
vt 0.03245 0.72293
vt 0.06127 0.72426
vt -0.07140 0.72293
vt 0.24480 0.72293
vt 0.14440 0.68232
vt 0.17284 0.67749
vt 0.13136 0.70834
vt -0.02016 0.99845
vt -0.15300 0.99845
vt -0.20240 0.97721
vt -0.23103 0.97362
vt 0.02040 1.02000
vt -0.24480 1.02000
vt -0.07934 1.02000
vt -0.05049 1.02000
vt 0.02016 1.02000
vt 0.15300 1.02000
vt -0.11268 1.02000
vt 0.03245 1.00914
vt 0.06127 1.01047
vt -0.02040 1.00914
vt 0.24480 1.00914
vt 0.21551 0.96421
vt 0.24395 0.95937
vt 0.11268 0.99845
vt -0.02417 1.12828
vt -0.15300 1.12828
vt -0.25627 1.09770
vt -0.28489 1.09411
vt -0.03400 1.14240
vt -0.24480 1.14240
vt -0.07934 1.14240
vt -0.05049 1.14240
vt 0.02417 1.14240
vt 0.15300 1.14240
vt -0.10467 1.14240
vt 0.03245 1.13180
vt 0.06127 1.13313
vt 0.03400 1.13180
vt 0.24480 1.13180
vt 0.26933 1.08502
vt 0.29777 1.08018
vt 0.10467 1.12828
vt -0.02550 1.17155
vt -0.15300 1.17155
vt -0.27422 1.13787
vt -0.30285 1.13428
vt -0.09520 1.18320
vt -0.05213 1.18320
vt -0.17340 -0.04191
vt -0.15300 -0.06200
vt -0.15300 0.09242
vt -0.17340 0.11251
vt -0.02417 -0.06200
vt -0.02550 0.09242
vt 0.10467 -0.06200
vt 0.10200 0.09242
vt 0.12507 -0.04191
vt 0.12240 0.11251
vt 0.09520 1.17269
vt 0.05213 1.17269
vt 0.28727 1.12529
vt 0.31571 1.12045
vt 0.10200 1.17155
vt 0.01020 0.12240
vt 0.19380 0.10200
vt 0.17340 0.12240
vt 0.19380 -0.14280
vt -0.15300 0.12240
vt 0.01020 -0.16320
vt 0.17340 -0.16320
vt -0.15300 -0.16320
vt -0.17340 -0.14280
vt -0.17340 0.10200
vt -0.15300 0.17501
vt -0.17340 0.15492
vt -0.02550 0.17501
vt 0.12240 0.15492
vt 0.10200 0.17501
vt -0.02448 0.89760
vt -0.11220 0.89760
vt -0.02895 0.93840
vt -0.11957 0.93840
vt -0.22005 0.87605
vt -0.23436 0.87424
vt -0.23039 0.91620
vt -0.24470 0.91439
vt -0.05100 0.90506
vt -0.30600 0.90506
vt -0.05100 0.94652
vt -0.31620 0.94652
vt -0.38948 0.87282
vt -0.40333 0.86878
vt -0.40333 0.91321
vt -0.41718 0.90917
vt 0.11220 0.94749
vt 0.02448 0.94749
vt 0.02895 0.98955
vt 0.11957 0.98955
vt -0.06324 0.94749
vt -0.06166 0.98955
vt 0.31251 0.89128
vt 0.29824 0.89339
vt 0.31251 0.93298
vt 0.32678 0.93088
vt 0.30600 0.89409
vt 0.05100 0.89409
vt 0.05100 0.93492
vt 0.31620 0.93492
vt 0.06343 0.89890
vt 0.04901 0.89851
vt 0.06120 0.93967
vt 0.04678 0.93928
vt 0.06324 0.89760
vt 0.06166 0.93840
vt -0.04014 1.04040
vt -0.13800 1.04040
vt -0.25624 1.01658
vt -0.27056 1.01476
vt -0.25500 1.05017
vt -0.05100 1.05017
vt -0.31227 0.79575
vt -0.32635 0.79262
vt -0.29447 0.90849
vt -0.28039 0.91163
vt 0.11957 0.69326
vt 0.02895 0.69326
vt 0.04014 0.81186
vt 0.13800 0.81186
vt -0.06166 0.69326
vt -0.05771 0.81186
vt -0.08602 0.79547
vt -0.09960 0.79061
vt -0.16181 0.88701
vt -0.17539 0.88215
vt 0.25500 1.03699
vt 0.05100 1.03699
vt 0.05562 1.04159
vt 0.04120 1.04120
vt 0.05771 1.04040
vt -0.04909 1.12200
vt -0.15274 1.12200
vt -0.27693 1.09688
vt -0.29124 1.09506
vt -0.21828 1.13309
vt -0.05100 1.13309
vt -0.27700 0.99743
vt -0.26292 1.00057
vt 0.04909 0.90127
vt 0.15274 0.90127
vt -0.05455 0.90127
vt -0.21324 0.96025
vt -0.22682 0.95538
vt 0.21828 1.11866
vt 0.05100 1.11866
vt 0.05115 1.12313
vt 0.03673 1.12274
vt 0.05455 1.12200
vt -0.05916 1.21380
vt -0.16932 1.21380
vt -0.30019 1.18721
vt -0.31450 1.18540
vt -0.17748 1.22638
vt -0.05100 1.22638
vt -0.25768 1.09733
vt -0.24360 1.10046
vt 0.05916 1.00162
vt 0.16932 1.00162
vt -0.05100 1.00162
vt -0.27072 1.04263
vt -0.28430 1.03777
vt 0.17748 1.21052
vt 0.05100 1.21052
vt 0.04613 1.21486
vt 0.03171 1.21447
vt 0.05100 1.21380
vt -0.02448 0.31620
vt 0.07344 0.30600
vt 0.06324 0.31620
vt 0.07344 0.05100
vt -0.11220 0.31620
vt -0.02448 0.04080
vt 0.06324 0.04080
vt -0.11220 0.04080
vt -0.12240 0.30600
vt -0.12240 0.05100
vt -0.17952 -0.17748
vt -0.16932 -0.18768
vt -0.05916 -0.18768
vt -0.17952 -0.05100
vt 0.05100 -0.18768
vt -0.05916 -0.04080
vt -0.16932 -0.04080
vt 0.05100 -0.04080
vt 0.06120 -0.17748
vt 0.06120 -0.05100
vt -0.05712 1.19082
vt -0.19584 1.19082
vt -0.06732 1.34390
vt -0.21921 1.34390
vt -0.28123 1.17777
vt -0.30998 1.17535
vt -0.30714 1.33028
vt -0.33589 1.32786
vt -0.08127 1.21237
vt -0.19584 1.21237
vt -0.07634 1.36714
vt -0.21624 1.36714
vt 0.14435 1.20929
vt 0.10419 1.21360
vt 0.12287 1.36793
vt 0.16303 1.36361
vt 0.18768 1.19095
vt 0.05712 1.19095
vt 0.06732 1.34372
vt 0.21105 1.34372
vt -0.07344 1.19095
vt -0.07640 1.34372
vt 0.09037 1.19752
vt 0.04998 1.19697
vt 0.06021 1.35033
vt 0.10060 1.35089
vt 0.19584 1.19515
vt 0.08127 1.19515
vt 0.07634 1.34818
vt 0.21624 1.34818
vt 0.17299 1.18762
vt 0.14416 1.18868
vt 0.17718 1.34068
vt 0.14835 1.34173
vt 0.08160 1.19082
vt 0.08456 1.34390
vt -0.07821 1.50718
vt -0.24413 1.50718
vt -0.33477 1.49295
vt -0.36352 1.49053
vt -0.07107 1.53223
vt -0.22848 1.53223
vt 0.14941 1.53110
vt 0.18957 1.52679
vt 0.07821 1.50678
vt 0.23597 1.50678
vt -0.07956 1.50678
vt 0.06440 1.51374
vt 0.10479 1.51429
vt 0.07107 1.51141
vt 0.22848 1.51141
vt 0.18164 1.50393
vt 0.15281 1.50498
vt 0.08772 1.50718
vt -0.08297 1.57862
vt -0.25504 1.57862
vt -0.34686 1.56412
vt -0.37561 1.56170
vt -0.19584 1.60446
vt -0.06877 1.60446
vt 0.18743 1.59676
vt 0.22759 1.59244
vt 0.08297 1.57852
vt 0.24688 1.57852
vt -0.08094 1.57852
vt 0.07976 1.58505
vt 0.03937 1.58449
vt 0.19584 1.58282
vt 0.06877 1.58282
vt 0.18360 1.57535
vt 0.15476 1.57641
vt 0.08910 1.57862
vt -0.08569 1.61944
vt -0.26127 1.61944
vt -0.35377 1.60479
vt -0.38252 1.60237
vt -0.13464 1.64574
vt -0.06745 1.64574
vt 0.47311 0.78503
vt 0.50636 0.76209
vt 0.49910 0.83555
vt 0.46586 0.85849
vt -0.30999 0.69095
vt -0.14624 0.69095
vt -0.14896 0.76450
vt -0.31622 0.76450
vt 0.01751 0.69095
vt 0.01830 0.76450
vt 0.04674 0.71471
vt 0.04753 0.78826
vt 0.13464 1.62363
vt 0.06745 1.62363
vt 0.18471 1.61617
vt 0.15588 1.61722
vt 0.08989 1.61944
vt -0.09453 1.75211
vt -0.28152 1.75211
vt -0.37622 1.73696
vt -0.40497 1.73454
vt -0.12766 1.77987
vt -0.06317 1.77987
vt -0.02018 1.59719
vt -0.06045 1.59405
vt -0.05147 1.72661
vt -0.01120 1.72975
vt 0.25311 1.61098
vt 0.08569 1.61098
vt 0.09453 1.74376
vt 0.27336 1.74376
vt -0.08173 1.61098
vt -0.08430 1.74376
vt 0.01956 1.61818
vt -0.02082 1.61723
vt 0.00969 1.75063
vt -0.03069 1.74968
vt 0.12766 1.75626
vt 0.06317 1.75626
vt 0.18834 1.74881
vt 0.15951 1.74986
vt 0.09246 1.75211
vt -0.25005 1.81334
vt -0.07820 1.81334
vt -0.38637 1.79555
vt -0.35762 1.79796
vt -0.06317 1.42208
vt -0.12766 1.42208
vt -0.12444 1.49090
vt -0.06120 1.49090
vt -0.03601 1.79094
vt -0.07627 1.78780
vt 0.24189 1.80505
vt 0.07820 1.80505
vt -0.08548 1.80505
vt 0.00514 1.81175
vt -0.03524 1.81080
vt 0.12444 1.81747
vt 0.06120 1.81747
vt 0.19001 1.81003
vt 0.16118 1.81108
vt 0.09364 1.81334
vt -0.21624 0.08127
vt -0.18768 0.22440
vt -0.21624 0.19584
vt -0.05712 0.22440
vt 0.07344 0.22440
vt 0.10200 0.08127
vt 0.10200 0.19584
vt -0.05712 0.06087
vt -0.19584 0.06087
vt 0.08160 0.06087
vt -0.27045 -0.06120
vt -0.27045 -0.12444
vt -0.24189 -0.15300
vt -0.07820 -0.15300
vt 0.08548 -0.15300
vt 0.11404 -0.12444
vt 0.11404 -0.06120
vt -0.07820 -0.04080
vt -0.25005 -0.04080
vt 0.09364 -0.04080
vt -0.10200 1.55956
vt -0.10282 1.55956
vt -0.10339 1.63299
vt -0.16598 1.63299
vt -0.63771 -1.16159
vt -0.64274 -1.15822
vt -0.71535 -1.21924
vt -0.73934 -1.20322
vt -1.09779 -0.26092
vt -1.09779 -0.08588
vt -1.20448 -0.09180
vt -1.20448 -0.26194
vt -0.75709 0.97449
vt -0.75192 0.97766
vt -0.84224 1.02577
vt -0.85454 1.01824
vt 0.10282 1.54020
vt 0.10200 1.54020
vt 0.10339 1.61160
vt 0.17618 1.61160
vt 0.10118 1.54020
vt 0.03060 1.61160
vt -0.51042 1.23911
vt -0.51600 1.23674
vt -0.58987 1.29864
vt -0.60316 1.29301
vt -0.08588 1.18724
vt -0.26092 1.18724
vt -0.09180 1.29001
vt -0.26194 1.29001
vt -0.85897 1.10478
vt -0.86435 1.10199
vt -0.87846 1.19550
vt -0.85286 1.20880
vt -0.10118 1.55956
vt -0.04080 1.63299
vt -0.11730 1.67495
vt -0.21420 1.67495
vt -0.77003 -1.25218
vt -0.79402 -1.23616
vt -1.26763 -0.09180
vt -1.26763 -0.27173
vt -0.89908 1.05327
vt -0.91138 1.04573
vt 0.11730 1.65240
vt 0.22440 1.65240
vt 0.01020 1.65240
vt -0.61997 1.33266
vt -0.63325 1.32703
vt -0.09180 1.33500
vt -0.27173 1.33500
vt -0.89299 1.23973
vt -0.86738 1.25303
vt -0.02040 1.67495
vt -0.21828 1.71691
vt -0.10914 1.71691
vt 0.43841 1.63340
vt 0.41031 1.63997
vt 0.42380 1.67991
vt 0.45189 1.67334
vt 0.27173 1.66754
vt 0.09180 1.66754
vt 0.09180 1.70855
vt 0.28152 1.70855
vt 0.34670 1.63507
vt 0.33231 1.63608
vt 0.33807 1.67668
vt 0.35246 1.67566
vt 0.22848 1.69320
vt 0.10914 1.69320
vt -0.01020 1.69320
vt -0.65006 1.36668
vt -0.66334 1.36104
vt -0.09180 1.37998
vt -0.28152 1.37998
vt -0.90751 1.28397
vt -0.88191 1.29727
vt 0.00000 1.71691
vt -0.10914 1.07718
vt -0.21828 1.07718
vt -0.22032 1.10425
vt -0.10506 1.10425
vt 0.62380 -0.86323
vt 0.59951 -0.87880
vt 0.62429 -0.89000
vt 0.60001 -0.90557
vt 0.26372 1.72905
vt 0.09180 1.72905
vt 0.34095 1.69698
vt 0.35534 1.69596
vt 0.23052 1.71360
vt 0.10506 1.71360
vt -0.02040 1.71360
vt -0.66511 1.38368
vt -0.67839 1.37805
vt -0.26372 1.40247
vt -0.09180 1.40247
vt -0.78946 -0.96080
vt -0.81422 -0.94600
vt -0.80727 -0.97295
vt -0.78250 -0.98775
vt 0.00000 1.07718
vt 0.01020 1.10425
vt -0.11390 1.15840
vt -0.22440 1.15840
vt 0.62529 -0.94353
vt 0.60100 -0.95911
vt 0.22811 1.77005
vt 0.09180 1.77005
vt 0.34670 1.73757
vt 0.36109 1.73656
vt 0.11390 1.75440
vt 0.23460 1.75440
vt -0.00680 1.75440
vt 0.30487 1.65147
vt 0.29081 1.65469
vt 0.30956 1.69340
vt 0.32362 1.69017
vt -0.09180 1.61599
vt -0.26372 1.61599
vt -0.22811 1.65899
vt -0.09180 1.65899
vt -0.82136 -1.02686
vt -0.79660 -1.04167
vt -0.00340 1.15840
vt -0.18360 1.22610
vt -0.10200 1.22610
vt 0.66508 -1.01045
vt 0.64080 -1.02603
vt 0.22811 1.21703
vt 0.09180 1.21703
vt 0.18360 1.28234
vt 0.09180 1.28234
vt -0.43746 1.42730
vt -0.45040 1.42093
vt -0.48922 1.46713
vt -0.50216 1.46076
vt 0.19380 1.80540
vt 0.10200 1.80540
vt 0.01020 1.80540
vt 0.33299 1.74178
vt 0.34705 1.73856
vt -0.18360 1.71275
vt -0.09180 1.71275
vt -0.83899 -1.09425
vt -0.81422 -1.10906
vt -0.02040 1.22610
vt -0.09690 -0.26092
vt -0.10200 -0.26520
vt -0.10118 -0.26520
vt -0.10710 -0.26092
vt -0.10282 -0.26520
vt -0.10710 -0.08588
vt -0.10200 -0.08160
vt -0.10282 -0.08160
vt -0.09690 -0.08588
vt -0.10118 -0.08160
vt -0.10200 0.20400
vt -0.18360 0.20400
vt -0.20400 0.18360
vt -0.20400 0.09180
vt -0.02040 0.20400
vt 0.00000 0.09180
vt 0.00000 0.18360
vt -0.10200 0.08160
vt -0.01020 0.08160
vt -0.19380 0.08160
vn 0.0000 -0.0434 -0.9991
vn 0.7068 -0.0307 -0.7068
vn 1.0000 0.0000 0.0000
vn 0.5256 0.6689 0.5256
vn 0.0000 0.7863 0.6178
vn -0.5378 0.6493 0.5378
vn -0.9979 -0.0653 0.0000
vn -0.7050 -0.0768 -0.7050
vn 0.0000 -0.1237 -0.9923
vn 0.0000 -0.1343 -0.9909
vn 0.7050 -0.0776 -0.7050
vn 0.7039 -0.0958 -0.7039
vn 0.7071 0.0000 0.7071
vn 0.0000 0.0000 1.0000
vn -0.7064 -0.0462 0.7064
vn -0.7008 -0.1337 -0.7008
vn 0.0000 -0.1091 -0.9940
vn 0.0000 -0.1593 -0.9872
vn 0.0000 -0.1642 -0.9864
vn 0.7028 -0.1106 -0.7028
vn 0.7022 -0.1170 -0.7022
vn -0.6985 -0.1556 -0.6985
vn -0.6978 -0.1619 -0.6978
vn 0.0000 -0.1553 -0.9879
vn 0.0000 -0.2484 -0.9686
vn 0.0000 -0.2876 -0.9578
vn 0.6983 -0.1575 -0.6983
vn 0.6916 -0.2084 -0.6916
vn -0.6926 -0.2015 -0.6926
vn -0.6845 -0.2510 -0.6845
vn 0.0000 -0.2187 -0.9758
vn 0.0000 -0.4061 -0.9138
vn 0.6746 -0.2998 -0.6746
vn -0.6652 -0.3392 -0.6652
vn 0.2545 -0.9330 0.2545
vn 0.0194 -0.9646 0.2631
vn 0.0408 -0.9849 0.1683
vn 0.0508 -0.9974 0.0508
vn 0.0000 -0.9648 0.2631
vn 0.0000 -0.9847 0.1740
vn -0.0359 -0.9643 0.2624
vn -0.0303 -0.9749 0.2208
vn -0.2506 -0.9351 0.2506
vn -0.2003 -0.9590 0.2003
vn 0.0000 1.0000 0.0000
vn 0.0000 -1.0000 0.0000
vn 0.0000 0.0000 -1.0000
vn 0.7014 0.1267 -0.7014
vn 0.9841 0.1778 0.0000
vn 0.6764 0.2913 0.6764
vn 0.0000 0.2425 0.9701
vn -0.6993 0.1478 0.6993
vn -0.9993 -0.0387 0.0000
vn -0.7068 -0.0274 -0.7068
vn 0.6779 -0.2843 0.6779
vn 0.6833 -0.2573 0.6833
vn 0.6889 -0.2253 0.6889
vn 0.0000 -0.5145 0.8575
vn 0.0000 -0.4695 0.8830
vn 0.0000 -0.4520 0.8920
vn 0.0000 -0.4859 0.8740
vn -0.6444 -0.4116 0.6444
vn -0.6516 -0.3883 0.6516
vn -0.6596 -0.3604 0.6596
vn 0.6948 -0.1858 0.6948
vn 0.6950 -0.1845 0.6950
vn 0.0000 -0.4081 0.9129
vn 0.0000 -0.4074 0.9132
vn 0.0000 -0.4088 0.9126
vn -0.6686 -0.3254 0.6686
vn -0.6689 -0.3243 0.6689
vn 0.6951 -0.1834 0.6951
vn 0.0000 -0.4061 0.9138
vn -0.6691 -0.3233 0.6691
vn 0.0000 0.0322 -0.9995
vn 0.7011 0.1297 -0.7011
vn 0.9885 0.1510 0.0000
vn 0.6931 0.1983 0.6931
vn 0.6949 0.1847 0.6949
vn 0.6966 0.1716 0.6966
vn 0.0000 0.1322 0.9912
vn 0.0000 0.1018 0.9948
vn 0.0000 0.0926 0.9957
vn 0.0000 0.1117 0.9937
vn -0.7030 0.1073 0.7030
vn -0.7040 0.0932 0.7040
vn -0.7049 0.0796 0.7049
vn -0.9998 0.0194 0.0000
vn -0.7066 0.0365 -0.7066
vn 0.7040 0.0931 0.7040
vn 0.7070 -0.0146 0.7070
vn 0.0000 -0.0915 0.9958
vn 0.0000 -0.1732 0.9849
vn 0.0000 -0.0241 0.9997
vn -0.7063 -0.0477 0.7063
vn 0.6913 -0.2104 0.6913
vn 0.0000 -0.4158 0.9095
vn -0.6391 -0.4279 0.6391
vn -0.5785 -0.5750 0.5785
vn 0.5120 -0.6898 0.5120
vn 0.0000 -0.8321 0.5547
vn -0.0821 -0.8287 0.5536
vn -0.0814 -0.8288 0.5536
vn -0.2790 -0.7205 0.6348
vn -0.4884 -0.7231 0.4884
vn 0.7070 -0.0181 -0.7070
vn 0.7053 0.0706 0.7053
vn 0.7050 -0.0779 0.7050
vn 0.0000 -0.0526 0.9986
vn -0.7069 -0.0235 0.7069
vn 0.6693 -0.3226 -0.6693
vn 0.8893 -0.4573 0.0000
vn 0.6563 -0.3721 0.6563
vn 0.0000 0.2334 -0.9724
vn 0.5534 0.6224 -0.5534
vn 0.5354 0.6532 -0.5354
vn 0.5237 0.6720 -0.5237
vn 0.6692 0.7431 0.0000
vn 0.6640 0.7477 0.0000
vn 0.6565 0.7543 0.0000
vn 0.5721 0.5878 0.5721
vn 0.5635 0.6040 0.5635
vn 0.5563 0.6174 0.5563
vn -0.5795 0.5729 0.5795
vn -0.6064 0.5144 0.6064
vn -0.6287 0.4577 0.6287
vn -0.6823 0.7311 0.0000
vn -0.7265 0.6872 0.0000
vn -0.7952 0.6064 0.0000
vn -0.5609 0.6090 -0.5609
vn -0.5822 0.5675 -0.5822
vn -0.5963 0.5375 -0.5963
vn 0.4987 0.7090 -0.4987
vn 0.6459 0.7634 0.0000
vn 0.5426 0.6412 0.5426
vn -0.6667 0.3333 0.6667
vn -0.8944 0.4472 0.0000
vn -0.6265 0.4636 -0.6265
vn 0.6875 0.2338 -0.6875
vn 0.9950 0.0995 0.0000
vn 0.7053 0.0705 0.7053
vn 0.0000 -0.6575 -0.7534
vn 0.6205 -0.4795 -0.6205
vn -0.6838 -0.2549 -0.6838
vn -0.6174 -0.4874 -0.6174
vn -0.5698 -0.5922 -0.5698
vn 0.5545 -0.6205 -0.5545
vn 0.4998 -0.7074 -0.4998
vn -0.6882 -0.2294 0.6882
vn -0.9487 -0.3162 0.0000
vn -0.5380 -0.6489 -0.5380
vn 0.4565 -0.7636 -0.4565
vn 0.7809 -0.6247 0.0000
vn 0.6155 -0.4924 0.6155
s off
f 1/1/1 2/2/1 11/3/1
f 2/2/1 12/4/1 11/3/1
f 2/5/2 3/6/2 12/7/2
f 3/6/2 13/8/2 12/7/2
f 3/9/3 4/10/3 13/11/3
f 4/10/3 14/12/3 13/11/3
f 4/13/4 5/14/4 14/15/4
f 5/14/4 15/16/4 14/15/4
f 5/17/5 6/18/5 16/19/5
f 5/17/5 16/19/5 15/20/5
f 6/18/5 7/21/5 17/22/5
f 6/18/5 17/22/5 16/19/5
f 7/23/6 8/24/6 18/25/6
f 7/23/6 18/25/6 17/26/6
f 8/27/7 9/28/7 19/29/7
f 8/27/7 19/29/7 18/30/7
f 9/31/8 10/32/8 19/33/8
f 10/32/8 20/34/8 19/33/8
f 10/35/1 1/1/1 20/36/1
f 1/1/1 11/3/1 20/36/1
f 11/3/1 12/4/1 21/37/9
f 12/4/1 22/38/10 21/37/9
f 12/7/2 13/8/2 22/39/11
f 13/8/2 23/40/12 22/39/11
f 13/11/3 14/12/3 23/41/3
f 14/12/3 24/42/3 23/41/3
f 14/43/13 15/44/13 25/45/13
f 14/43/13 25/45/13 24/46/13
f 15/47/14 16/48/14 26/49/14
f 15/47/14 26/49/14 25/50/14
f 16/48/14 17/51/14 27/52/14
f 16/48/14 27/52/14 26/49/14
f 17/53/15 18/54/15 28/55/15
f 17/53/15 28/55/15 27/56/15
f 18/30/7 19/29/7 29/57/7
f 18/30/7 29/57/7 28/58/7
f 19/33/8 20/34/8 29/59/16
f 20/34/8 30/60/16 29/59/16
f 20/36/1 11/3/1 30/61/17
f 11/3/1 21/37/9 30/61/17
f 21/37/9 22/38/10 31/62/18
f 22/38/10 32/63/19 31/62/18
f 22/39/11 23/40/12 32/64/20
f 23/40/12 33/65/21 32/64/20
f 23/41/3 24/42/3 33/66/3
f 24/42/3 34/67/3 33/66/3
f 24/46/13 25/45/13 35/68/13
f 24/46/13 35/68/13 34/69/13
f 25/50/14 26/49/14 36/70/14
f 25/50/14 36/70/14 35/71/14
f 26/49/14 27/52/14 37/72/14
f 26/49/14 37/72/14 36/70/14
f 27/56/15 28/55/15 38/73/15
f 27/56/15 38/73/15 37/74/15
f 28/58/7 29/57/7 39/75/7
f 28/58/7 39/75/7 38/76/7
f 29/59/16 30/60/16 40/77/22
f 29/59/16 40/77/22 39/78/23
f 30/61/17 21/37/9 40/79/24
f 21/37/9 31/62/18 40/79/24
f 31/62/18 32/63/19 41/80/25
f 32/63/19 42/81/26 41/80/25
f 32/64/20 33/65/21 42/82/27
f 33/65/21 43/83/28 42/82/27
f 33/66/3 34/67/3 43/84/3
f 34/67/3 44/85/3 43/84/3
f 34/69/13 35/68/13 45/86/13
f 34/69/13 45/86/13 44/87/13
f 35/71/14 36/70/14 46/88/14
f 35/71/14 46/88/14 45/89/14
f 36/70/14 37/72/14 47/90/14
f 36/70/14 47/90/14 46/88/14
f 37/74/15 38/73/15 48/91/15
f 37/74/15 48/91/15 47/92/15
f 38/76/7 39/75/7 49/93/7
f 38/76/7 49/93/7 48/94/7
f 39/78/23 40/77/22 50/95/29
f 39/78/23 50/95/29 49/96/30
f 40/79/24 31/62/18 50/97/31
f 31/62/18 41/80/25 50/97/31
f 41/80/25 42/81/26 51/98/32
f 42/81/26 52/99/32 51/98/32
f 42/82/27 43/83/28 52/100/33
f 43/83/28 53/101/33 52/100/33
f 43/84/3 44/85/3 53/102/3
f 44/85/3 54/103/3 53/102/3
f 44/87/13 45/86/13 55/104/13
f 44/87/13 55/104/13 54/105/13
f 45/89/14 46/88/14 56/106/14
f 45/89/14 56/106/14 55/107/14
f 46/88/14 47/90/14 57/108/14
f 46/88/14 57/108/14 56/106/14
f 47/92/15 48/91/15 58/109/15
f 47/92/15 58/109/15 57/110/15
f 48/94/7 49/93/7 59/111/7
f 48/94/7 59/111/7 58/112/7
f 49/96/30 50/95/29 60/113/34
f 49/96/30 60/113/34 59/114/34
f 50/97/31 41/80/25 60/115/32
f 41/80/25 51/98/32 60/115/32
f 51/98/32 52/99/32 61/116/32
f 52/99/32 62/117/32 61/116/32
f 52/100/33 53/101/33 62/118/33
f 53/101/33 63/119/33 62/118/33
f 53/102/3 54/103/3 64/120/3
f 53/102/3 64/120/3 63/121/3
f 54/122/35 55/123/36 65/124/37
f 54/122/35 65/124/37 64/125/38
f 55/123/36 56/126/39 66/127/40
f 55/123/36 66/127/40 65/124/37
f 56/126/39 57/128/41 67/129/42
f 56/126/39 67/129/42 66/127/40
f 57/128/41 58/130/43 67/129/42
f 58/130/43 68/131/44 67/129/42
f 58/112/7 59/111/7 68/132/7
f 59/111/7 69/133/7 68/132/7
f 59/114/34 60/113/34 70/134/34
f 59/114/34 70/134/34 69/135/34
f 60/115/32 51/98/32 70/136/32
f 51/98/32 61/116/32 70/136/32
f 6/137/45 8/138/45 7/139/45
f 6/137/45 9/140/45 8/138/45
f 5/141/45 9/140/45 6/137/45
f 9/140/45 1/142/45 10/143/45
f 5/141/45 1/142/45 9/140/45
f 5/141/45 2/144/45 1/142/45
f 5/141/45 3/145/45 2/144/45
f 3/145/45 5/141/45 4/146/45
f 62/147/46 63/148/46 64/125/38
f 61/149/46 62/147/46 64/125/38
f 67/129/42 68/131/44 69/150/46
f 66/127/40 67/129/42 69/150/46
f 61/149/46 64/125/38 65/124/37
f 61/149/46 65/124/37 66/127/40
f 61/149/46 66/127/40 69/150/46
f 61/149/46 69/150/46 70/151/46
f 71/152/47 72/153/47 81/154/47
f 72/153/47 82/155/47 81/154/47
f 72/156/48 73/157/48 82/158/48
f 73/157/48 83/159/48 82/158/48
f 73/160/49 74/161/49 83/162/49
f 74/161/49 84/163/49 83/162/49
f 74/164/50 75/165/50 84/166/50
f 75/165/50 85/167/50 84/166/50
f 75/168/51 76/169/51 86/170/51
f 75/168/51 86/170/51 85/171/51
f 76/169/51 77/172/51 87/173/51
f 76/169/51 87/173/51 86/170/51
f 77/174/52 78/175/52 88/176/52
f 77/174/52 88/176/52 87/177/52
f 78/178/53 79/179/53 89/180/53
f 78/178/53 89/180/53 88/181/53
f 79/182/54 80/183/54 89/184/54
f 80/183/54 90/185/54 89/184/54
f 80/186/47 71/152/47 90/187/47
f 71/152/47 81/154/47 90/187/47
f 81/154/47 82/155/47 91/188/47
f 82/155/47 92/189/47 91/188/47
f 82/158/48 83/159/48 92/190/48
f 83/159/48 93/191/48 92/190/48
f 83/162/49 84/163/49 94/192/49
f 83/162/49 94/192/49 93/193/49
f 84/194/55 85/195/55 95/196/56
f 84/194/55 95/196/56 94/197/57
f 85/198/58 86/199/58 96/200/59
f 85/198/58 96/200/59 95/201/60
f 86/199/58 87/202/58 97/203/61
f 86/199/58 97/203/61 96/200/59
f 87/204/62 88/205/62 97/206/63
f 88/205/62 98/207/64 97/206/63
f 88/181/53 89/180/53 98/208/53
f 89/180/53 99/209/53 98/208/53
f 89/184/54 90/185/54 99/210/54
f 90/185/54 100/211/54 99/210/54
f 90/187/47 81/154/47 100/212/47
f 81/154/47 91/188/47 100/212/47
f 91/188/47 92/189/47 101/213/47
f 92/189/47 102/214/47 101/213/47
f 92/190/48 93/191/48 102/215/48
f 93/191/48 103/216/48 102/215/48
f 93/193/49 94/192/49 104/217/49
f 93/193/49 104/217/49 103/218/49
f 94/197/57 95/196/56 105/219/65
f 94/197/57 105/219/65 104/220/66
f 95/201/60 96/200/59 106/221/67
f 95/201/60 106/221/67 105/222/68
f 96/200/59 97/203/61 107/223/69
f 96/200/59 107/223/69 106/221/67
f 97/206/63 98/207/64 107/224/70
f 98/207/64 108/225/71 107/224/70
f 98/208/53 99/209/53 108/226/53
f 99/209/53 109/227/53 108/226/53
f 99/210/54 100/211/54 109/228/54
f 100/211/54 110/229/54 109/228/54
f 100/212/47 91/188/47 110/230/47
f 91/188/47 101/213/47 110/230/47
f 101/213/47 102/214/47 111/231/47
f 102/214/47 112/232/47 111/231/47
f 102/215/48 103/216/48 112/233/48
f 103/216/48 113/234/48 112/233/48
f 103/218/49 104/217/49 114/235/49
f 103/218/49 114/235/49 113/236/49
f 104/220/66 105/219/65 115/237/72
f 104/220/66 115/237/72 114/238/72
f 105/222/68 106/221/67 116/239/73
f 105/222/68 116/239/73 115/240/73
f 106/221/67 107/223/69 117/241/73
f 106/221/67 117/241/73 116/239/73
f 107/224/70 108/225/71 117/242/74
f 108/225/71 118/243/74 117/242/74
f 108/226/53 109/227/53 118/244/53
f 109/227/53 119/245/53 118/244/53
f 109/228/54 110/229/54 119/246/54
f 110/229/54 120/247/54 119/246/54
f 110/230/47 101/213/47 120/248/47
f 101/213/47 111/231/47 120/248/47
f 76/249/45 78/250/45 77/251/45
f 76/249/45 79/252/45 78/250/45
f 75/253/45 79/252/45 76/249/45
f 79/252/45 71/254/45 80/255/45
f 75/253/45 71/254/45 79/252/45
f 75/253/45 72/256/45 71/254/45
f 74/257/45 72/256/45 75/253/45
f 72/256/45 74/257/45 73/258/45
f 114/259/46 115/260/46 116/261/46
f 113/262/46 114/259/46 116/261/46
f 113/262/46 116/261/46 117/263/46
f 111/264/46 112/265/46 113/262/46
f 111/264/46 113/262/46 117/263/46
f 120/266/46 111/264/46 117/263/46
f 120/266/46 117/263/46 118/267/46
f 118/267/46 119/268/46 120/266/46
f 121/269/75 122/270/75 131/271/75
f 122/270/75 132/272/75 131/271/75
f 122/273/76 123/274/76 132/275/76
f 123/274/76 133/276/76 132/275/76
f 123/277/77 124/278/77 133/279/77
f 124/278/77 134/280/77 133/279/77
f 124/281/78 125/282/78 135/283/79
f 124/281/78 135/283/79 134/284/80
f 125/285/81 126/286/81 136/287/82
f 125/285/81 136/287/82 135/288/83
f 126/286/81 127/289/81 137/290/84
f 126/286/81 137/290/84 136/287/82
f 127/291/85 128/292/85 138/293/86
f 127/291/85 138/293/86 137/294/87
f 128/295/88 129/296/88 139/297/88
f 128/295/88 139/297/88 138/298/88
f 129/299/89 130/300/89 139/301/89
f 130/300/89 140/302/89 139/301/89
f 130/303/75 121/269/75 140/304/75
f 121/269/75 131/271/75 140/304/75
f 131/271/75 132/272/75 141/305/75
f 132/272/75 142/306/75 141/305/75
f 132/275/76 133/276/76 142/307/76
f 133/276/76 143/308/76 142/307/76
f 133/279/77 134/280/77 143/309/77
f 134/280/77 144/310/77 143/309/77
f 134/284/80 135/283/79 145/311/90
f 134/284/80 145/311/90 144/312/91
f 135/288/83 136/287/82 146/313/92
f 135/288/83 146/313/92 145/314/93
f 136/287/82 137/290/84 147/315/94
f 136/287/82 147/315/94 146/313/92
f 137/294/87 138/293/86 148/316/95
f 137/294/87 148/316/95 147/317/95
f 138/298/88 139/297/88 149/318/88
f 138/298/88 149/318/88 148/319/88
f 139/301/89 140/302/89 149/320/89
f 140/302/89 150/321/89 149/320/89
f 140/304/75 131/271/75 150/322/75
f 131/271/75 141/305/75 150/322/75
f 141/305/75 142/306/75 151/323/75
f 142/306/75 152/324/75 151/323/75
f 142/307/76 143/308/76 152/325/76
f 143/308/76 153/326/76 152/325/76
f 143/309/77 144/310/77 154/327/77
f 143/309/77 154/327/77 153/328/77
f 144/312/91 145/311/90 155/329/96
f 144/312/91 155/329/96 154/330/96
f 145/314/93 146/313/92 156/331/97
f 145/314/93 156/331/97 155/332/97
f 146/313/92 147/315/94 157/333/97
f 146/313/92 157/333/97 156/331/97
f 147/317/95 148/316/95 157/334/98
f 148/316/95 158/335/99 157/334/98
f 148/319/88 149/318/88 158/336/88
f 149/318/88 159/337/88 158/336/88
f 149/320/89 150/321/89 159/338/89
f 150/321/89 160/339/89 159/338/89
f 150/322/75 141/305/75 160/340/75
f 141/305/75 151/323/75 160/340/75
f 151/323/75 152/324/75 161/341/75
f 152/324/75 162/342/75 161/341/75
f 152/325/76 153/326/76 162/343/76
f 153/326/76 163/344/76 162/343/76
f 153/328/77 154/327/77 164/345/77
f 153/328/77 164/345/77 163/346/77
f 154/347/100 155/348/100 165/349/100
f 154/347/100 165/349/100 164/350/100
f 155/351/101 156/352/101 166/353/101
f 155/351/101 166/353/101 165/354/101
f 156/352/101 157/355/102 167/356/103
f 156/352/101 167/356/103 166/353/101
f 157/355/104 158/357/99 167/356/103
f 158/357/99 168/358/105 167/356/103
f 158/336/88 159/337/88 168/359/88
f 159/337/88 169/360/88 168/359/88
f 159/338/89 160/339/89 169/361/89
f 160/339/89 170/362/89 169/361/89
f 160/340/75 151/323/75 170/363/75
f 151/323/75 161/341/75 170/363/75
f 161/341/75 162/342/75 171/364/75
f 162/342/75 172/365/75 171/364/75
f 162/343/76 163/344/76 172/366/106
f 163/344/76 173/367/106 172/366/106
f 163/346/77 164/345/77 174/368/77
f 163/346/77 174/368/77 173/369/77
f 164/370/107 165/371/107 175/372/108
f 164/370/107 175/372/108 174/373/108
f 165/374/109 166/375/109 176/376/109
f 165/374/109 176/376/109 175/377/109
f 166/375/109 167/378/109 177/379/109
f 166/375/109 177/379/109 176/376/109
f 167/380/110 168/381/110 177/382/110
f 168/381/110 178/383/110 177/382/110
f 168/359/88 169/360/88 178/384/88
f 169/360/88 179/385/88 178/384/88
f 169/361/89 170/362/89 179/386/89
f 170/362/89 180/387/89 179/386/89
f 170/363/75 161/341/75 180/388/75
f 161/341/75 171/364/75 180/388/75
f 171/364/75 172/365/75 182/389/75
f 171/364/75 182/389/75 181/390/75
f 172/366/106 173/367/106 183/391/111
f 172/366/106 183/391/111 182/392/111
f 173/393/112 174/394/112 184/395/112
f 173/393/112 184/395/112 183/396/112
f 174/373/108 175/372/108 184/397/113
f 175/372/108 185/398/113 184/397/113
f 175/377/109 176/376/109 185/399/109
f 176/376/109 186/400/109 185/399/109
f 176/376/109 177/379/109 186/400/109
f 177/379/109 187/401/109 186/400/109
f 177/382/110 178/383/110 187/402/110
f 178/383/110 188/403/110 187/402/110
f 178/384/88 179/385/88 188/404/88
f 179/385/88 189/405/88 188/404/88
f 179/386/89 180/387/89 189/406/89
f 180/387/89 190/407/89 189/406/89
f 180/388/75 171/364/75 181/390/75
f 180/388/75 181/390/75 190/408/75
f 123/409/45 125/410/45 124/411/45
f 123/409/45 126/412/45 125/410/45
f 123/409/45 127/413/45 126/412/45
f 127/413/45 129/414/45 128/415/45
f 123/409/45 129/414/45 127/413/45
f 121/416/45 123/409/45 122/417/45
f 121/416/45 129/414/45 123/409/45
f 121/416/45 130/418/45 129/414/45
f 183/419/46 184/420/46 185/421/46
f 183/419/46 185/421/46 186/422/46
f 187/423/46 188/424/46 189/425/46
f 186/422/46 187/423/46 189/425/46
f 183/419/46 186/422/46 189/425/46
f 181/426/46 182/427/46 183/419/46
f 181/426/46 183/419/46 189/425/46
f 181/426/46 189/425/46 190/428/46
f 191/429/114 192/430/114 201/431/114
f 192/430/114 202/432/114 201/431/114
f 192/433/115 193/434/115 202/435/116
f 193/434/115 203/436/117 202/435/116
f 193/437/118 194/438/118 204/439/119
f 193/437/118 204/439/119 203/440/120
f 194/441/121 195/442/121 205/443/122
f 194/441/121 205/443/122 204/444/123
f 195/445/14 196/446/14 206/447/14
f 195/445/14 206/447/14 205/448/14
f 196/446/14 197/449/14 206/447/14
f 197/449/14 207/450/14 206/447/14
f 197/451/124 198/452/124 207/453/125
f 198/452/124 208/454/126 207/453/125
f 198/455/127 199/456/127 208/457/128
f 199/456/127 209/458/129 208/457/128
f 199/459/130 200/460/130 210/461/131
f 199/459/130 210/461/131 209/462/132
f 200/463/114 191/429/114 201/431/114
f 200/463/114 201/431/114 210/464/114
f 201/431/114 202/432/114 211/465/114
f 202/432/114 212/466/114 211/465/114
f 202/435/116 203/436/117 212/467/133
f 203/436/117 213/468/133 212/467/133
f 203/440/120 204/439/119 214/469/134
f 203/440/120 214/469/134 213/470/134
f 204/444/123 205/443/122 215/471/135
f 204/444/123 215/471/135 214/472/135
f 205/448/14 206/447/14 216/473/14
f 205/448/14 216/473/14 215/474/14
f 206/447/14 207/450/14 216/473/14
f 207/450/14 217/475/14 216/473/14
f 207/453/125 208/454/126 217/476/136
f 208/454/126 218/477/136 217/476/136
f 208/457/128 209/458/129 218/478/137
f 209/458/129 219/479/137 218/478/137
f 209/462/132 210/461/131 220/480/138
f 209/462/132 220/480/138 219/481/138
f 210/464/114 201/431/114 211/465/114
f 210/464/114 211/465/114 220/482/114
f 211/465/114 212/466/114 222/483/114
f 211/465/114 222/483/114 221/484/114
f 212/485/139 213/486/139 223/487/139
f 212/485/139 223/487/139 222/488/139
f 213/489/140 214/490/140 224/491/140
f 213/489/140 224/491/140 223/492/140
f 214/493/141 215/494/141 225/495/141
f 214/493/141 225/495/141 224/496/141
f 215/474/14 216/473/14 225/497/14
f 216/473/14 226/498/14 225/497/14
f 216/473/14 217/475/14 226/498/14
f 217/475/14 227/499/14 226/498/14
f 217/476/136 218/477/136 227/500/136
f 218/477/136 228/501/136 227/500/136
f 218/478/137 219/479/137 228/502/137
f 219/479/137 229/503/137 228/502/137
f 219/481/138 220/480/138 230/504/138
f 219/481/138 230/504/138 229/505/138
f 220/482/114 211/465/114 221/484/114
f 220/482/114 221/484/114 230/506/114
f 221/507/142 222/508/142 232/509/142
f 221/507/142 232/509/142 231/510/142
f 222/511/143 223/512/143 232/513/143
f 223/512/143 233/514/143 232/513/143
f 223/492/140 224/491/140 233/515/140
f 224/491/140 234/516/140 233/515/140
f 224/496/141 225/495/141 235/517/141
f 224/496/141 235/517/141 234/518/141
f 225/497/14 226/498/14 235/519/14
f 226/498/14 236/520/14 235/519/14
f 226/498/14 227/499/14 236/520/14
f 227/499/14 237/521/14 236/520/14
f 227/500/136 228/501/136 237/522/136
f 228/501/136 238/523/136 237/522/136
f 228/502/137 229/503/137 239/524/137
f 228/502/137 239/524/137 238/525/137
f 229/526/144 230/527/144 240/528/145
f 229/526/144 240/528/145 239/529/146
f 230/530/142 221/507/142 231/510/142
f 230/530/142 231/510/142 240/531/142
f 231/510/142 232/509/142 241/532/142
f 232/509/142 242/533/142 241/532/142
f 232/513/143 233/514/143 242/534/147
f 233/514/143 243/535/148 242/534/147
f 233/515/140 234/516/140 243/536/140
f 234/516/140 244/537/140 243/536/140
f 234/518/141 235/517/141 245/538/141
f 234/518/141 245/538/141 244/539/141
f 235/519/14 236/520/14 246/540/14
f 235/519/14 246/540/14 245/541/14
f 236/520/14 237/521/14 247/542/14
f 236/520/14 247/542/14 246/540/14
f 237/543/149 238/544/149 248/545/149
f 237/543/149 248/545/149 247/546/149
f 238/547/150 239/548/150 249/549/150
f 238/547/150 249/549/150 248/550/150
f 239/529/146 240/528/145 250/551/151
f 239/529/146 250/551/151 249/552/151
f 240/531/142 231/510/142 250/553/142
f 231/510/142 241/532/142 250/553/142
f 241/532/142 242/533/142 252/554/142
f 241/532/142 252/554/142 251/555/142
f 242/534/147 243/535/148 252/556/152
f 243/535/148 253/557/152 252/556/152
f 243/558/153 244/559/153 253/560/153
f 244/559/153 254/561/153 253/560/153
f 244/562/154 245/563/154 254/564/154
f 245/563/154 255/565/154 254/564/154
f 245/541/14 246/540/14 255/566/14
f 246/540/14 256/567/14 255/566/14
f 246/540/14 247/542/14 257/568/14
f 246/540/14 257/568/14 256/567/14
f 247/546/149 248/545/149 258/569/149
f 247/546/149 258/569/149 257/570/149
f 248/550/150 249/549/150 259/571/150
f 248/550/150 259/571/150 258/572/150
f 249/552/151 250/551/151 260/573/151
f 249/552/151 260/573/151 259/574/151
f 250/553/142 241/532/142 260/575/142
f 241/532/142 251/555/142 260/575/142
f 199/576/45 191/577/45 200/578/45
f 191/577/45 193/579/45 192/580/45
f 199/576/45 193/579/45 191/577/45
f 194/581/45 196/582/45 195/583/45
f 196/582/45 198/584/45 197/585/45
f 194/581/45 198/584/45 196/582/45
f 199/576/45 194/581/45 193/579/45
f 194/581/45 199/576/45 198/584/45
f 251/586/46 252/587/46 253/588/46
f 251/586/46 253/588/46 254/589/46
f 260/590/46 251/586/46 254/589/46
f 258/591/46 259/592/46 260/590/46
f 258/591/46 260/590/46 254/589/46
f 256/593/46 257/594/46 258/591/46
f 256/593/46 258/591/46 254/589/46
f 254/589/46 255/595/46 256/593/46
