# mech2 legs - Leg_R_Joint.obj  (generated by source/build.py; do not edit by hand)
# frame: Leg_R hip-joint centre = origin, studs, +Y up, -Z forward
# segment: whole leg  colour: Joint RGB (128, 128, 128)  pieces: hip_ball, knee_axle, ankle_disc, ankle_cover
# bbox centre in leg frame: [0.2869, -3.6517, 0.2017]  size: [1.9559, 8.7069, 1.7509]
# segment pivot (Hip) in leg frame: [0.0, 0.0, 0.0]
o Leg_R_Joint
v 0.24002 0.65944 0.00000
v 0.21625 0.65944 0.10414
v 0.14965 0.65944 0.18765
v 0.05341 0.65944 0.23400
v -0.05341 0.65944 0.23400
v -0.14965 0.65944 0.18765
v -0.21625 0.65944 0.10414
v -0.24002 0.65944 0.00000
v -0.21625 0.65944 -0.10414
v -0.14965 0.65944 -0.18765
v -0.05341 0.65944 -0.23400
v 0.05341 0.65944 -0.23400
v 0.14965 0.65944 -0.18765
v 0.21625 0.65944 -0.10414
v 0.45108 0.53758 0.00000
v 0.40641 0.53758 0.19572
v 0.28125 0.53758 0.35267
v 0.10038 0.53758 0.43977
v -0.10038 0.53758 0.43977
v -0.28125 0.53758 0.35267
v -0.40641 0.53758 0.19572
v -0.45108 0.53758 0.00000
v -0.40641 0.53758 -0.19572
v -0.28125 0.53758 -0.35267
v -0.10038 0.53758 -0.43977
v 0.10038 0.53758 -0.43977
v 0.28125 0.53758 -0.35267
v 0.40641 0.53758 -0.19572
v 0.60774 0.35088 0.00000
v 0.54756 0.35088 0.26369
v 0.37892 0.35088 0.47515
v 0.13524 0.35088 0.59250
v -0.13524 0.35088 0.59250
v -0.37892 0.35088 0.47515
v -0.54756 0.35088 0.26369
v -0.60774 0.35088 0.00000
v -0.54756 0.35088 -0.26369
v -0.37892 0.35088 -0.47515
v -0.13524 0.35088 -0.59250
v 0.13524 0.35088 -0.59250
v 0.37892 0.35088 -0.47515
v 0.54756 0.35088 -0.26369
v 0.69110 0.12186 0.00000
v 0.62266 0.12186 0.29986
v 0.43089 0.12186 0.54032
v 0.15378 0.12186 0.67377
v -0.15378 0.12186 0.67377
v -0.43089 0.12186 0.54032
v -0.62266 0.12186 0.29986
v -0.69110 0.12186 0.00000
v -0.62266 0.12186 -0.29986
v -0.43089 0.12186 -0.54032
v -0.15378 0.12186 -0.67377
v 0.15378 0.12186 -0.67377
v 0.43089 0.12186 -0.54032
v 0.62266 0.12186 -0.29986
v 0.69110 -0.12186 0.00000
v 0.62266 -0.12186 0.29986
v 0.43089 -0.12186 0.54032
v 0.15378 -0.12186 0.67377
v -0.15378 -0.12186 0.67377
v -0.43089 -0.12186 0.54032
v -0.62266 -0.12186 0.29986
v -0.69110 -0.12186 0.00000
v -0.62266 -0.12186 -0.29986
v -0.43089 -0.12186 -0.54032
v -0.15378 -0.12186 -0.67377
v 0.15378 -0.12186 -0.67377
v 0.43089 -0.12186 -0.54032
v 0.62266 -0.12186 -0.29986
v 0.60774 -0.35088 0.00000
v 0.54756 -0.35088 0.26369
v 0.37892 -0.35088 0.47515
v 0.13524 -0.35088 0.59250
v -0.13524 -0.35088 0.59250
v -0.37892 -0.35088 0.47515
v -0.54756 -0.35088 0.26369
v -0.60774 -0.35088 0.00000
v -0.54756 -0.35088 -0.26369
v -0.37892 -0.35088 -0.47515
v -0.13524 -0.35088 -0.59250
v 0.13524 -0.35088 -0.59250
v 0.37892 -0.35088 -0.47515
v 0.54756 -0.35088 -0.26369
v 0.45108 -0.53758 0.00000
v 0.40641 -0.53758 0.19572
v 0.28125 -0.53758 0.35267
v 0.10038 -0.53758 0.43977
v -0.10038 -0.53758 0.43977
v -0.28125 -0.53758 0.35267
v -0.40641 -0.53758 0.19572
v -0.45108 -0.53758 0.00000
v -0.40641 -0.53758 -0.19572
v -0.28125 -0.53758 -0.35267
v -0.10038 -0.53758 -0.43977
v 0.10038 -0.53758 -0.43977
v 0.28125 -0.53758 -0.35267
v 0.40641 -0.53758 -0.19572
v 0.24002 -0.65944 0.00000
v 0.21625 -0.65944 0.10414
v 0.14965 -0.65944 0.18765
v 0.05341 -0.65944 0.23400
v -0.05341 -0.65944 0.23400
v -0.14965 -0.65944 0.18765
v -0.21625 -0.65944 0.10414
v -0.24002 -0.65944 0.00000
v -0.21625 -0.65944 -0.10414
v -0.14965 -0.65944 -0.18765
v -0.05341 -0.65944 -0.23400
v 0.05341 -0.65944 -0.23400
v 0.14965 -0.65944 -0.18765
v 0.21625 -0.65944 -0.10414
v 0.00000 0.70176 0.00000
v 0.00000 -0.70176 0.00000
v -0.36720 -4.13841 0.23501
v -0.36720 -4.21022 0.35938
v -0.36720 -4.33459 0.43119
v -0.36720 -4.47821 0.43119
v -0.36720 -4.60258 0.35938
v -0.36720 -4.67439 0.23501
v -0.36720 -4.67439 0.09139
v -0.36720 -4.60258 -0.03298
v -0.36720 -4.47821 -0.10479
v -0.36720 -4.33459 -0.10479
v -0.36720 -4.21022 -0.03298
v -0.36720 -4.13841 0.09139
v -0.31824 -4.09112 0.24768
v -0.31824 -4.17560 0.39400
v -0.31824 -4.32192 0.47848
v -0.31824 -4.49088 0.47848
v -0.31824 -4.63720 0.39400
v -0.31824 -4.72168 0.24768
v -0.31824 -4.72168 0.07872
v -0.31824 -4.63720 -0.06760
v -0.31824 -4.49088 -0.15208
v -0.31824 -4.32192 -0.15208
v -0.31824 -4.17560 -0.06760
v -0.31824 -4.09112 0.07872
v 0.72624 -4.09112 0.24768
v 0.72624 -4.17560 0.39400
v 0.72624 -4.32192 0.47848
v 0.72624 -4.49088 0.47848
v 0.72624 -4.63720 0.39400
v 0.72624 -4.72168 0.24768
v 0.72624 -4.72168 0.07872
v 0.72624 -4.63720 -0.06760
v 0.72624 -4.49088 -0.15208
v 0.72624 -4.32192 -0.15208
v 0.72624 -4.17560 -0.06760
v 0.72624 -4.09112 0.07872
v 0.77520 -4.13841 0.23501
v 0.77520 -4.21022 0.35938
v 0.77520 -4.33459 0.43119
v 0.77520 -4.47821 0.43119
v 0.77520 -4.60258 0.35938
v 0.77520 -4.67439 0.23501
v 0.77520 -4.67439 0.09139
v 0.77520 -4.60258 -0.03298
v 0.77520 -4.47821 -0.10479
v 0.77520 -4.33459 -0.10479
v 0.77520 -4.21022 -0.03298
v 0.77520 -4.13841 0.09139
v -0.24480 -7.13814 0.27302
v -0.24480 -7.24796 0.46324
v -0.24480 -7.43818 0.57306
v -0.24480 -7.65782 0.57306
v -0.24480 -7.84804 0.46324
v -0.24480 -7.95786 0.27302
v -0.24480 -7.95786 0.05338
v -0.24480 -7.84804 -0.13684
v -0.24480 -7.65782 -0.24666
v -0.24480 -7.43818 -0.24666
v -0.24480 -7.24796 -0.13684
v -0.24480 -7.13814 0.05338
v -0.19584 -7.09085 0.28569
v -0.19584 -7.21334 0.49786
v -0.19584 -7.42551 0.62035
v -0.19584 -7.67049 0.62035
v -0.19584 -7.88266 0.49786
v -0.19584 -8.00515 0.28569
v -0.19584 -8.00515 0.04071
v -0.19584 -7.88266 -0.17146
v -0.19584 -7.67049 -0.29395
v -0.19584 -7.42551 -0.29395
v -0.19584 -7.21334 -0.17146
v -0.19584 -7.09085 0.04071
v 1.21584 -7.09085 0.28569
v 1.21584 -7.21334 0.49786
v 1.21584 -7.42551 0.62035
v 1.21584 -7.67049 0.62035
v 1.21584 -7.88266 0.49786
v 1.21584 -8.00515 0.28569
v 1.21584 -8.00515 0.04071
v 1.21584 -7.88266 -0.17146
v 1.21584 -7.67049 -0.29395
v 1.21584 -7.42551 -0.29395
v 1.21584 -7.21334 -0.17146
v 1.21584 -7.09085 0.04071
v 1.26480 -7.13814 0.27302
v 1.26480 -7.24796 0.46324
v 1.26480 -7.43818 0.57306
v 1.26480 -7.65782 0.57306
v 1.26480 -7.84804 0.46324
v 1.26480 -7.95786 0.27302
v 1.26480 -7.95786 0.05338
v 1.26480 -7.84804 -0.13684
v 1.26480 -7.65782 -0.24666
v 1.26480 -7.43818 -0.24666
v 1.26480 -7.24796 -0.13684
v 1.26480 -7.13814 0.05338
v 0.59160 -6.62592 0.68136
v 1.24766 -6.62592 0.68136
v 1.26480 -6.62592 0.69850
v 1.26480 -6.62592 0.70502
v 1.24766 -6.62592 0.72216
v 0.59160 -6.62592 0.72216
v -0.06446 -6.62592 0.72216
v -0.08160 -6.62592 0.70502
v -0.08160 -6.62592 0.69850
v -0.06446 -6.62592 0.68136
v 0.59160 -6.92784 0.37600
v 1.21584 -6.92784 0.37600
v 1.26480 -6.92784 0.42496
v 1.26480 -6.92784 1.02816
v 1.21584 -6.92784 1.07712
v 0.59160 -6.92784 1.07712
v -0.03264 -6.92784 1.07712
v -0.08160 -6.92784 1.02816
v -0.08160 -6.92784 0.42496
v -0.03264 -6.92784 0.37600
v 0.59160 -6.93600 0.36720
v 1.21584 -6.93600 0.36720
v 1.26480 -6.93600 0.41616
v 1.26480 -6.93600 1.01545
v 1.21584 -6.93600 1.06441
v 0.59160 -6.93600 1.06441
v -0.03264 -6.93600 1.06441
v -0.08160 -6.93600 1.01545
v -0.08160 -6.93600 0.41616
v -0.03264 -6.93600 0.36720
v 0.59160 -7.27872 0.51000
v 1.24766 -7.27872 0.51000
v 1.26480 -7.27872 0.52714
v 1.26480 -7.27872 0.53366
v 1.24766 -7.27872 0.55080
v 0.59160 -7.27872 0.55080
v -0.06446 -7.27872 0.55080
v -0.08160 -7.27872 0.53366
v -0.08160 -7.27872 0.52714
v -0.06446 -7.27872 0.51000
vt 0.04493 -0.06021
vt 0.05541 -0.03598
vt -0.01425 -0.04909
vt 0.00545 -0.00354
vt 0.07329 -0.01654
vt 0.03904 0.03299
vt -0.01391 -0.07383
vt 0.01103 -0.06514
vt 0.00108 -0.00640
vt -0.04578 -0.02274
vt 0.03743 -0.06514
vt 0.05071 -0.00640
vt -0.05829 -0.04740
vt -0.03364 -0.05686
vt -0.04964 0.01219
vt -0.00331 -0.00559
vt -0.01347 -0.07391
vt 0.03459 -0.03763
vt -0.05858 0.05677
vt -0.05715 0.03121
vt 0.00256 0.02544
vt -0.00012 0.07348
vt -0.06487 0.00564
vt -0.01194 -0.02261
vt -0.08021 -0.01486
vt -0.04077 -0.06114
vt 0.01391 0.07383
vt -0.01103 0.06514
vt -0.00108 0.00640
vt 0.04578 0.02274
vt -0.03743 0.06514
vt -0.05071 0.00640
vt 0.07702 0.02687
vt 0.05353 0.03707
vt 0.02158 -0.01371
vt 0.06572 -0.03287
vt 0.03415 0.05544
vt -0.01484 0.02082
vt 0.02271 0.07835
vt -0.03634 0.06387
vt -0.07171 -0.03204
vt -0.04517 0.02933
vt 0.00009 0.07854
vt -0.00899 0.05310
vt -0.07212 0.03110
vt 0.05787 0.05310
vt 0.02742 0.04636
vt -0.03500 0.07031
vt 0.07848 0.00319
vt 0.06197 0.01660
vt 0.05835 0.08133
vt 0.04242 -0.04813
vt 0.00358 -0.10004
vt 0.00899 -0.05310
vt 0.07212 -0.03110
vt -0.05787 -0.05310
vt -0.01297 -0.06283
vt 0.04650 -0.08864
vt -0.06204 -0.01632
vt -0.09101 0.04169
vt 0.00000 -0.08772
vt -0.06592 -0.08772
vt -0.07496 -0.03046
vt 0.00000 -0.03046
vt 0.06592 -0.08772
vt 0.07496 -0.03046
vt 0.09473 -0.08772
vt 0.03381 -0.08772
vt 0.03845 -0.03046
vt 0.10772 -0.03046
vt -0.03381 -0.08772
vt -0.03845 -0.03046
vt -0.09473 -0.08772
vt -0.10772 -0.03046
vt -0.07496 0.03046
vt 0.00000 0.03046
vt 0.07496 0.03046
vt 0.03845 0.03046
vt 0.10772 0.03046
vt -0.03845 0.03046
vt -0.10772 0.03046
vt -0.06592 0.08772
vt 0.00000 0.08772
vt 0.06592 0.08772
vt 0.09473 0.08772
vt 0.03381 0.08772
vt -0.03381 0.08772
vt -0.09473 0.08772
vt -0.06197 0.01660
vt -0.04242 -0.04813
vt -0.00256 0.02544
vt 0.01194 -0.02261
vt -0.00358 -0.10004
vt 0.04077 -0.06114
vt -0.07212 -0.03110
vt -0.00899 -0.05310
vt 0.00108 0.00640
vt -0.04578 0.02274
vt 0.05787 -0.05310
vt 0.05071 0.00640
vt -0.03500 -0.07031
vt 0.02742 -0.04636
vt -0.00331 0.00559
vt -0.04964 -0.01219
vt 0.07848 -0.00319
vt 0.03459 0.03763
vt 0.04270 -0.06592
vt 0.05386 -0.00000
vt -0.00650 -0.00000
vt -0.01478 -0.04893
vt 0.04270 0.06592
vt -0.01478 0.04893
vt 0.07795 0.06280
vt 0.01312 0.06280
vt 0.07338 0.00398
vt 0.02526 0.00398
vt -0.05042 0.03967
vt -0.02190 -0.01319
vt -0.10008 -0.00200
vt -0.05877 -0.04412
vt -0.05835 0.08133
vt 0.00012 0.07348
vt 0.06487 0.00564
vt 0.05715 0.03121
vt 0.08021 -0.01486
vt 0.01103 0.06514
vt -0.01391 0.07383
vt 0.03743 0.06514
vt -0.03364 0.05686
vt -0.05829 0.04740
vt -0.01347 0.07391
vt -0.06607 -0.00000
vt -0.07047 -0.02603
vt -0.07047 0.02603
vt 0.05995 -0.05532
vt 0.03434 -0.05532
vt 0.00925 -0.06445
vt -0.01036 -0.08091
vt 0.05858 0.05677
vt -0.00000 -0.00000
vt -0.05406 0.02603
vt -0.06000 -0.00000
vt -0.03741 0.04691
vt -0.01335 0.05850
vt 0.01335 0.05850
vt 0.03741 0.04691
vt 0.05406 0.02603
vt 0.06000 0.00000
vt 0.05406 -0.02603
vt 0.03741 -0.04691
vt 0.01335 -0.05850
vt -0.01335 -0.05850
vt -0.03741 -0.04691
vt -0.05406 -0.02603
vt 0.05875 0.81576
vt 0.08984 0.82882
vt 0.09850 0.81413
vt 0.06192 0.79876
vt 0.00240 1.05256
vt 0.01546 1.08365
vt 0.03246 1.08048
vt 0.01709 1.04390
vt 0.01546 1.11955
vt 0.03246 1.12272
vt 0.00240 1.15064
vt 0.01709 1.15930
vt 0.08984 0.77424
vt 0.05875 0.78730
vt 0.09850 0.78894
vt 0.06192 0.80430
vt 0.02285 0.78730
vt 0.01968 0.80430
vt -0.00824 0.77424
vt -0.01690 0.78894
vt 0.05698 1.15064
vt 0.04391 1.11955
vt 0.02691 1.12272
vt 0.04228 1.15930
vt 0.04391 1.08365
vt 0.02691 1.08048
vt 0.05698 1.05256
vt 0.04228 1.04390
vt -0.00824 0.82882
vt 0.02285 0.81576
vt -0.01690 0.81413
vt 0.01968 0.79876
vt 0.07956 0.56501
vt 0.07956 0.60725
vt -0.18156 0.60725
vt -0.18156 0.56501
vt -0.07956 0.95329
vt -0.07956 0.99553
vt 0.18156 0.99553
vt 0.18156 0.95329
vt -0.07956 1.08048
vt -0.07956 1.12272
vt 0.18156 1.12272
vt 0.18156 1.08048
vt -0.07956 0.91249
vt -0.07956 0.95473
vt 0.18156 0.95473
vt 0.18156 0.91249
vt 0.07956 0.49435
vt 0.07956 0.53659
vt -0.18156 0.53659
vt -0.18156 0.49435
vt 0.07956 -0.06192
vt 0.07956 -0.01968
vt -0.18156 -0.01968
vt -0.18156 -0.06192
vt 0.07956 -0.60725
vt 0.07956 -0.56501
vt -0.18156 -0.56501
vt -0.18156 -0.60725
vt 0.07956 0.99553
vt 0.07956 0.95329
vt -0.18156 0.95329
vt -0.18156 0.99553
vt 0.07956 1.12272
vt 0.07956 1.08048
vt -0.18156 1.08048
vt -0.18156 1.12272
vt 0.07956 0.95473
vt 0.07956 0.91249
vt -0.18156 0.91249
vt -0.18156 0.95473
vt 0.07956 -0.53659
vt 0.07956 -0.49435
vt -0.18156 -0.49435
vt -0.18156 -0.53659
vt 0.07956 0.01968
vt 0.07956 0.06192
vt -0.18156 0.06192
vt -0.18156 0.01968
vt -0.06192 0.86873
vt -0.09850 0.88410
vt -0.05875 0.88573
vt -0.08984 0.89879
vt 0.05288 1.04390
vt 0.03751 1.08048
vt 0.06757 1.05256
vt 0.05451 1.08365
vt 0.03751 1.12272
vt 0.05451 1.11955
vt 0.05288 1.15930
vt 0.06757 1.15064
vt -0.09850 0.71897
vt -0.06192 0.73433
vt -0.05875 0.71733
vt -0.08984 0.70427
vt -0.01968 0.73433
vt -0.02285 0.71733
vt 0.01690 0.71897
vt 0.00824 0.70427
vt -0.11225 1.15930
vt -0.09689 1.12272
vt -0.12695 1.15064
vt -0.11388 1.11955
vt -0.09689 1.08048
vt -0.11388 1.08365
vt -0.11225 1.04390
vt -0.12695 1.05256
vt 0.01690 0.88410
vt -0.01968 0.86873
vt -0.02285 0.88573
vt 0.00824 0.89879
vt -0.02620 1.11955
vt -0.00824 1.05256
vt -0.02620 1.08365
vt -0.00824 1.15064
vt 0.02285 1.16860
vt 0.02285 1.03460
vt 0.05875 1.03460
vt 0.05875 1.16860
vt 0.08984 1.05256
vt 0.08984 1.15064
vt 0.10780 1.08365
vt 0.10780 1.11955
vt 0.02620 1.11955
vt 0.02620 1.08365
vt 0.00824 1.05256
vt 0.00824 1.15064
vt -0.02285 1.16860
vt -0.02285 1.03460
vt -0.05875 1.03460
vt -0.05875 1.16860
vt -0.08984 1.05256
vt -0.08984 1.15064
vt -0.10780 1.08365
vt -0.10780 1.11955
vt 0.47408 1.64027
vt 0.51928 1.66510
vt 0.48021 1.62435
vt 0.53063 1.65205
vt 0.55342 1.70812
vt 0.56870 1.70003
vt 0.56733 1.75779
vt 0.58422 1.75543
vt -0.45357 1.52781
vt -0.49107 1.56664
vt -0.48108 1.58077
vt -0.43925 1.53747
vt -0.54018 1.58906
vt -0.53586 1.60578
vt -1.33816 -0.06826
vt -1.33816 -0.01334
vt -1.35517 -0.01018
vt -1.35517 -0.07142
vt 0.61085 1.58906
vt 0.56174 1.56664
vt 0.60652 1.60578
vt 0.55175 1.58077
vt 0.52424 1.52781
vt 0.50992 1.53747
vt -0.50169 1.75779
vt -0.48778 1.70812
vt -0.51858 1.75543
vt -0.50306 1.70003
vt -0.45364 1.66510
vt -0.46499 1.65205
vt -0.40844 1.64027
vt -0.41457 1.62435
vt 1.28382 0.01334
vt 1.28382 0.06826
vt 1.26680 0.07142
vt 1.26680 0.01018
vt 0.04896 0.94821
vt 0.04896 1.00946
vt -0.30396 1.00946
vt -0.30396 0.94821
vt -0.04896 1.62397
vt -0.04896 1.68521
vt 0.30396 1.68521
vt 0.30396 1.62397
vt -0.04896 1.85638
vt -0.04896 1.91762
vt 0.30396 1.91762
vt 0.30396 1.85638
vt -0.04896 1.58317
vt -0.04896 1.64441
vt 0.30396 1.64441
vt 0.30396 1.58317
vt 0.04896 0.87754
vt 0.04896 0.93879
vt -0.30396 0.93879
vt -0.30396 0.87754
vt 0.04896 -0.07142
vt 0.04896 -0.01018
vt -0.30396 -0.01018
vt -0.30396 -0.07142
vt 0.04896 -1.00946
vt 0.04896 -0.94821
vt -0.30396 -0.94821
vt -0.30396 -1.00946
vt 0.04896 1.68521
vt 0.04896 1.62397
vt -0.30396 1.62397
vt -0.30396 1.68521
vt 0.04896 1.91762
vt 0.04896 1.85638
vt -0.30396 1.85638
vt -0.30396 1.91762
vt 0.04896 1.64441
vt 0.04896 1.58317
vt -0.30396 1.58317
vt -0.30396 1.64441
vt 0.04896 -0.93879
vt 0.04896 -0.87754
vt -0.30396 -0.87754
vt -0.30396 -0.93879
vt 0.04896 0.01018
vt 0.04896 0.07142
vt -0.30396 0.07142
vt -0.30396 0.01018
vt -0.34318 1.73309
vt -0.39360 1.76079
vt -0.38225 1.77383
vt -0.33705 1.74900
vt -0.43167 1.80876
vt -0.41639 1.81685
vt -0.44719 1.86416
vt -0.43030 1.86652
vt 0.54335 1.39024
vt 0.58518 1.43355
vt 0.55767 1.38059
vt 0.59518 1.41942
vt 0.63996 1.45855
vt 0.64429 1.44183
vt 1.17176 -0.07142
vt 1.17176 -0.01018
vt 1.15475 -0.01334
vt 1.15475 -0.06826
vt -0.71063 1.45855
vt -0.65585 1.43355
vt -0.66584 1.41942
vt -0.71495 1.44183
vt -0.61402 1.39024
vt -0.62834 1.38059
vt 0.38155 1.86416
vt 0.36603 1.80876
vt 0.35075 1.81685
vt 0.36466 1.86652
vt 0.32796 1.76079
vt 0.31661 1.77383
vt 0.27754 1.73309
vt 0.27141 1.74900
vt -1.45021 0.01018
vt -1.45021 0.07142
vt -1.46723 0.06826
vt -1.46723 0.01334
vt -0.06167 1.91446
vt -0.03421 1.81199
vt -0.06167 1.85954
vt -0.03421 1.96201
vt 0.01334 1.78453
vt 0.01334 1.98947
vt 0.06826 1.78453
vt 0.06826 1.98947
vt 0.11581 1.81199
vt 0.11581 1.96201
vt 0.14327 1.85954
vt 0.14327 1.91446
vt 0.06167 1.91446
vt 0.06167 1.85954
vt 0.03421 1.81199
vt 0.03421 1.96201
vt -0.01334 1.78453
vt -0.01334 1.98947
vt -0.06826 1.78453
vt -0.06826 1.98947
vt -0.11581 1.81199
vt -0.11581 1.96201
vt -0.14327 1.85954
vt -0.14327 1.91446
vt -0.14790 -1.04242
vt -0.31192 -1.04242
vt -0.30396 -1.14978
vt -0.14790 -1.14978
vt -0.98908 1.10871
vt -0.99441 1.10582
vt -0.99463 1.20767
vt -0.97941 1.21592
vt -0.17462 1.65648
vt -0.17626 1.65648
vt -0.10624 1.73196
vt -0.25704 1.73196
vt -0.87575 1.25969
vt -0.87056 1.26282
vt -0.87575 1.37025
vt -0.86093 1.37919
vt -0.31192 1.21076
vt -0.14790 1.21076
vt -0.30396 1.32726
vt -0.14790 1.32726
vt 0.01612 1.21076
vt 0.00816 1.32726
vt 0.62627 1.26282
vt 0.63146 1.25969
vt 0.63146 1.37025
vt 0.61663 1.37919
vt 0.17626 1.65648
vt 0.17462 1.65648
vt 0.10624 1.73196
vt 0.25704 1.73196
vt 0.75648 1.10582
vt 0.75115 1.10871
vt 0.75670 1.20767
vt 0.74148 1.21592
vt 0.01612 -1.04242
vt 0.00816 -1.14978
vt -0.30396 -1.15278
vt -0.14790 -1.15278
vt -0.99448 1.21066
vt -0.97926 1.21891
vt -0.25386 1.73400
vt -0.10404 1.73400
vt -0.31620 0.74902
vt -0.30396 0.73885
vt -0.30396 0.74262
vt -0.31620 0.75280
vt -0.14790 0.73885
vt -0.14790 0.74262
vt 0.00816 0.73885
vt 0.00816 0.74262
vt 0.02040 0.74902
vt 0.02040 0.75280
vt 0.25386 1.73400
vt 0.10404 1.73400
vt 0.75655 1.21066
vt 0.74133 1.21891
vt 0.00816 -1.15278
vt -0.14790 1.63592
vt -0.30396 1.63592
vt -0.14790 1.72874
vt -0.31192 1.72874
vt 0.08777 1.67795
vt 0.07088 1.68172
vt 0.07679 1.77046
vt 0.07088 1.77178
vt -0.13342 1.81968
vt -0.13178 1.81968
vt -0.31192 0.89699
vt -0.31620 0.90055
vt -0.14790 0.89699
vt 0.01612 0.89699
vt 0.02040 0.90055
vt 0.13342 1.81968
vt 0.13178 1.81968
vt -0.28519 1.68172
vt -0.30208 1.67795
vt -0.29110 1.77046
vt -0.28519 1.77178
vt 0.00816 1.63592
vt 0.01612 1.72874
vt -0.31620 0.17462
vt -0.31192 0.18054
vt -0.31620 0.17626
vt -0.31192 0.17034
vt 0.01612 0.18054
vt 0.02040 0.17462
vt 0.02040 0.17626
vt 0.01612 0.17034
vt -0.14790 0.17034
vt -0.14790 0.18054
vt -0.31620 -0.13178
vt -0.31620 -0.13342
vt -0.31192 -0.13770
vt -0.31192 -0.12750
vt 0.01612 -0.13770
vt 0.02040 -0.13342
vt 0.02040 -0.13178
vt 0.01612 -0.12750
vt -0.14790 -0.12750
vt -0.14790 -0.13770
vn 0.3420 0.9397 0.0000
vn 0.3791 0.9072 0.1826
vn 0.6483 0.7605 -0.0373
vn 0.6280 0.7360 0.2529
vn 0.2168 0.9183 0.3312
vn 0.4320 0.7311 0.5281
vn 0.0517 0.9183 0.3924
vn 0.1177 0.7498 0.6512
vn -0.0761 0.9397 0.3334
vn -0.1806 0.7605 0.6237
vn -0.2623 0.9072 0.3290
vn -0.4561 0.7360 0.5003
vn -0.3711 0.9183 0.1377
vn -0.6086 0.7498 0.2596
vn -0.3420 0.9397 0.0000
vn -0.6483 0.7605 -0.0373
vn -0.3791 0.9072 -0.1826
vn -0.5892 0.7360 -0.3333
vn -0.2168 0.9183 -0.3312
vn -0.3885 0.7498 -0.5356
vn -0.0761 0.9397 -0.3334
vn -0.1079 0.7605 -0.6403
vn 0.0936 0.9072 -0.4102
vn 0.1938 0.7360 -0.6486
vn 0.2746 0.9183 -0.2851
vn 0.4357 0.7498 -0.4980
vn 0.3711 0.9183 -0.1377
vn 0.5588 0.7791 -0.2842
vn 0.8701 0.4887 0.0644
vn 0.7560 0.4887 0.4355
vn 0.5134 0.4653 0.7210
vn 0.1748 0.4896 0.8542
vn -0.1624 0.5235 0.8364
vn -0.5368 0.4662 0.7032
vn -0.7939 0.4896 0.3605
vn -0.8717 0.4896 -0.0197
vn -0.7768 0.4896 -0.3960
vn -0.5527 0.5235 -0.6485
vn -0.2151 0.4662 -0.8581
vn 0.1624 0.5235 -0.8364
vn 0.5368 0.4662 -0.7032
vn 0.7917 0.5076 -0.3398
vn 0.9125 0.2553 0.3195
vn 0.9773 0.2045 0.0556
vn 0.6835 0.2553 0.6838
vn 0.8564 0.2045 0.4741
vn 0.3192 0.2553 0.9127
vn 0.5658 0.2045 0.7988
vn -0.1666 0.2726 0.9476
vn 0.1632 0.2045 0.9652
vn -0.2942 0.2256 0.9287
vn -0.5447 0.2304 0.8064
vn -0.8188 0.2553 0.5142
vn -0.6999 0.1725 0.6931
vn -0.9608 0.2553 0.1081
vn -0.9046 0.2045 0.3739
vn -0.9125 0.2553 -0.3195
vn -0.9773 0.2045 -0.0556
vn -0.6370 0.2726 -0.7211
vn -0.8564 0.2045 -0.4741
vn -0.5427 0.2256 -0.8090
vn -0.2908 0.2304 -0.9286
vn 0.1666 0.2726 -0.9476
vn -0.1055 0.1725 -0.9793
vn 0.2942 0.2256 -0.9287
vn 0.5447 0.2304 -0.8064
vn 0.8188 0.2553 -0.5142
vn 0.6999 0.1725 -0.6931
vn 0.9608 0.2553 -0.1081
vn 0.9046 0.2045 -0.3739
vn 0.9901 0.0860 0.1113
vn 0.9081 0.1336 0.3970
vn 0.9403 -0.0860 0.3293
vn 0.9904 -0.1336 0.0363
vn 0.8437 0.0860 0.5298
vn 0.6459 0.1336 0.7517
vn 0.7043 -0.0860 0.7047
vn 0.8765 -0.1336 0.4624
vn 0.5303 0.0860 0.8434
vn 0.2558 0.1336 0.9575
vn 0.3455 -0.1325 0.9290
vn 0.6239 -0.0865 0.7767
vn 0.1118 0.0860 0.9900
vn -0.1850 0.1336 0.9736
vn -0.0918 -0.1325 0.9869
vn 0.2251 -0.0865 0.9705
vn -0.3455 0.1325 0.9290
vn -0.6239 0.0865 0.7767
vn -0.5303 -0.0860 0.8434
vn -0.2558 -0.1336 0.9575
vn -0.7043 0.0860 0.7047
vn -0.8765 0.1336 0.4624
vn -0.8288 -0.1325 0.5436
vn -0.6184 -0.0865 0.7811
vn -0.9403 0.0860 0.3293
vn -0.9904 0.1336 0.0363
vn -0.9901 -0.0860 0.1113
vn -0.9081 -0.1336 0.3970
vn -0.9901 0.0860 -0.1113
vn -0.9081 0.1336 -0.3970
vn -0.9418 -0.1325 -0.3091
vn -0.9962 -0.0865 0.0035
vn -0.8437 0.0860 -0.5298
vn -0.6459 0.1336 -0.7517
vn -0.7043 -0.0860 -0.7047
vn -0.8765 -0.1336 -0.4624
vn -0.5109 0.1325 -0.8494
vn -0.2183 0.0865 -0.9720
vn -0.3288 -0.0860 -0.9405
vn -0.5891 -0.1336 -0.7970
vn -0.1118 0.0860 -0.9900
vn 0.1850 0.1336 -0.9736
vn 0.1118 -0.0860 -0.9900
vn -0.1850 -0.1336 -0.9736
vn 0.3455 0.1325 -0.9290
vn 0.6239 0.0865 -0.7767
vn 0.5109 -0.1325 -0.8494
vn 0.2183 -0.0865 -0.9720
vn 0.7043 0.0860 -0.7047
vn 0.8765 0.1336 -0.4624
vn 0.8288 -0.1325 -0.5436
vn 0.6184 -0.0865 -0.7811
vn 0.9403 0.0860 -0.3293
vn 0.9904 0.1336 -0.0363
vn 0.9901 -0.0860 -0.1113
vn 0.9081 -0.1336 -0.3970
vn 0.9608 -0.2553 0.1081
vn 0.9046 -0.2045 0.3739
vn 0.7917 -0.5076 0.3398
vn 0.8838 -0.4653 -0.0481
vn 0.8188 -0.2553 0.5142
vn 0.6999 -0.1725 0.6931
vn 0.5368 -0.4662 0.7032
vn 0.5447 -0.2304 0.8064
vn 0.3455 -0.2030 0.9162
vn 0.1308 -0.4887 0.8626
vn 0.2050 -0.2568 0.9445
vn -0.1379 -0.2256 0.9644
vn -0.2166 -0.5235 0.8240
vn -0.2610 -0.2726 0.9261
vn -0.5199 -0.1725 0.8366
vn -0.5661 -0.4662 0.6798
vn -0.6649 -0.2304 0.7105
vn -0.8400 -0.2256 0.4934
vn -0.7793 -0.5235 0.3445
vn -0.8868 -0.2726 0.3733
vn -0.9783 -0.1725 0.1151
vn -0.8962 -0.4437 0.0000
vn -0.9700 -0.2304 -0.0769
vn -0.9095 -0.2256 -0.3491
vn -0.7579 -0.5407 -0.3650
vn -0.8448 -0.2726 -0.4605
vn -0.6528 -0.2045 -0.7294
vn -0.5589 -0.4896 -0.6693
vn -0.5145 -0.2553 -0.8186
vn -0.2717 -0.2045 -0.9404
vn -0.2436 -0.4653 -0.8510
vn -0.1084 -0.2553 -0.9608
vn 0.1055 -0.1725 -0.9793
vn 0.1947 -0.4844 -0.8529
vn 0.2908 -0.2304 -0.9286
vn 0.5009 -0.2030 -0.8414
vn 0.5928 -0.4887 -0.6401
vn 0.6106 -0.2568 -0.7491
vn 0.8400 -0.2256 -0.4934
vn 0.7793 -0.5235 -0.3445
vn 0.8868 -0.2726 -0.3733
vn 0.9773 -0.2045 -0.0556
vn 0.6822 -0.7311 0.0085
vn 0.5588 -0.7791 0.2842
vn 0.4357 -0.7498 0.4980
vn 0.1765 -0.7498 0.6377
vn -0.1177 -0.7498 0.6512
vn -0.3863 -0.7360 0.5559
vn -0.5679 -0.7605 0.3149
vn -0.6822 -0.7311 -0.0085
vn -0.5588 -0.7791 -0.2842
vn -0.4357 -0.7498 -0.4980
vn -0.1547 -0.7186 -0.6780
vn 0.1366 -0.7893 -0.5986
vn 0.3885 -0.7498 -0.5356
vn 0.5825 -0.7498 -0.3140
vn 0.3711 -0.9183 0.1377
vn 0.3941 -0.9183 -0.0370
vn 0.2746 -0.9183 0.2851
vn 0.1237 -0.9183 0.3760
vn -0.0517 -0.9183 0.3924
vn -0.2623 -0.9072 0.3290
vn -0.3081 -0.9397 0.1484
vn -0.3941 -0.9183 0.0370
vn -0.3711 -0.9183 -0.1377
vn -0.2746 -0.9183 -0.2851
vn -0.0936 -0.9072 -0.4102
vn 0.0761 -0.9397 -0.3334
vn 0.2168 -0.9183 -0.3312
vn 0.3390 -0.9183 -0.2043
vn -0.0000 1.0000 0.0000
vn 0.0000 -1.0000 -0.0000
vn -0.7054 0.6632 0.2502
vn -0.7054 0.4493 0.5483
vn -0.7060 0.5391 0.4593
vn -0.7060 0.6965 0.1282
vn -0.7054 0.1149 0.6995
vn -0.7060 0.2372 0.6673
vn -0.7071 -0.1830 0.6830
vn -0.7054 -0.4493 0.5483
vn -0.7060 -0.5391 0.4593
vn -0.7071 -0.6830 0.1830
vn -0.7071 -0.6830 -0.1830
vn -0.7071 -0.5000 -0.5000
vn -0.7071 -0.1830 -0.6830
vn -0.7054 0.1149 -0.6995
vn -0.7060 0.2372 -0.6673
vn -0.7054 0.4493 -0.5483
vn -0.7060 0.5391 -0.4593
vn -0.7071 0.6830 -0.1830
vn 0.0000 0.8660 0.5000
vn 0.0000 0.5000 0.8660
vn 0.0000 0.0000 1.0000
vn 0.0000 -0.5000 0.8660
vn 0.0000 -0.8660 0.5000
vn 0.0000 -0.8660 -0.5000
vn 0.0000 -0.5000 -0.8660
vn 0.0000 -0.0000 -1.0000
vn 0.0000 0.5000 -0.8660
vn 0.0000 0.8660 -0.5000
vn 0.7060 0.6965 0.1282
vn 0.7060 0.5391 0.4593
vn 0.7054 0.6632 0.2502
vn 0.7054 0.4493 0.5483
vn 0.7071 0.1830 0.6830
vn 0.7060 -0.2372 0.6673
vn 0.7054 -0.1149 0.6995
vn 0.7060 -0.5391 0.4593
vn 0.7054 -0.4493 0.5483
vn 0.7060 -0.6965 0.1282
vn 0.7054 -0.6632 0.2502
vn 0.7060 -0.6673 -0.2372
vn 0.7054 -0.6995 -0.1149
vn 0.7071 -0.5000 -0.5000
vn 0.7071 -0.1830 -0.6830
vn 0.7060 0.2372 -0.6673
vn 0.7054 0.1149 -0.6995
vn 0.7060 0.5391 -0.4593
vn 0.7054 0.4493 -0.5483
vn 0.7071 0.6830 -0.1830
vn -1.0000 0.0000 0.0000
vn 1.0000 0.0000 0.0000
vn -0.7071 0.6830 0.1830
vn -0.7055 0.5467 0.4510
vn -0.7059 0.4577 0.5405
vn -0.7071 0.1830 0.6830
vn -0.7055 -0.2480 0.6639
vn -0.7059 -0.1261 0.6970
vn -0.7055 -0.5467 0.4510
vn -0.7059 -0.4577 0.5405
vn -0.7055 -0.6990 0.1172
vn -0.7059 -0.6667 0.2392
vn -0.7055 -0.5467 -0.4510
vn -0.7059 -0.4577 -0.5405
vn -0.7055 -0.2480 -0.6639
vn -0.7059 -0.1261 -0.6970
vn -0.7071 0.1830 -0.6830
vn -0.7055 0.5467 -0.4510
vn -0.7059 0.4577 -0.5405
vn -0.7055 0.6990 -0.1172
vn -0.7059 0.6667 -0.2392
vn 0.7059 0.6667 0.2392
vn 0.7059 0.4577 0.5405
vn 0.7055 0.5467 0.4510
vn 0.7055 0.6990 0.1172
vn 0.7059 0.1261 0.6970
vn 0.7055 0.2480 0.6639
vn 0.7071 -0.1830 0.6830
vn 0.7059 -0.4577 0.5405
vn 0.7055 -0.5467 0.4510
vn 0.7071 -0.6830 0.1830
vn 0.7059 -0.6667 -0.2392
vn 0.7055 -0.6990 -0.1172
vn 0.7059 -0.4577 -0.5405
vn 0.7055 -0.5467 -0.4510
vn 0.7059 -0.1261 -0.6970
vn 0.7055 -0.2480 -0.6639
vn 0.7071 0.1830 -0.6830
vn 0.7059 0.4577 -0.5405
vn 0.7055 0.5467 -0.4510
vn 0.0000 0.7111 -0.7031
vn 0.0000 0.7114 -0.7028
vn 0.0000 0.7120 -0.7022
vn 0.5954 0.5394 -0.5954
vn 0.5948 0.5409 -0.5948
vn 0.5937 0.5432 -0.5937
vn 0.5638 0.6035 0.5638
vn 0.0000 0.7617 0.6479
vn -0.5638 0.6035 0.5638
vn -0.5954 0.5394 -0.5954
vn -0.5948 0.5409 -0.5948
vn -0.5937 0.5432 -0.5937
vn 0.0000 0.7117 -0.7025
vn 0.0000 0.7334 -0.6798
vn 0.5622 0.6066 -0.5622
vn 0.4752 -0.7405 0.4752
vn 0.0204 -0.8414 0.5400
vn 0.0212 -0.8312 0.5556
vn 0.5010 -0.7056 0.5010
vn 0.0000 -0.8416 0.5401
vn 0.0000 -0.8322 0.5545
vn 0.0010 -0.8319 0.5549
vn -0.0393 -0.8409 0.5397
vn -0.0010 -0.8321 0.5547
vn -0.4752 -0.7405 0.4752
vn -0.0209 -0.8313 0.5554
vn -0.5010 -0.7056 0.5010
vn -0.5622 0.6066 -0.5622
vn 0.0000 -0.3846 -0.9231
vn 0.6893 -0.2232 -0.6893
vn 0.5003 -0.7067 0.5003
vn 0.5015 -0.7050 0.5015
vn 0.0000 -0.8318 0.5551
vn -0.5003 -0.7067 0.5003
vn -0.5015 -0.7050 0.5015
vn -0.6893 -0.2232 -0.6893
s off
f 1/1/1 2/2/2 15/3/3
f 2/2/2 16/4/4 15/3/3
f 2/2/2 3/5/5 17/6/6
f 2/2/2 17/6/6 16/4/4
f 3/7/5 4/8/7 18/9/8
f 3/7/5 18/9/8 17/10/6
f 4/8/7 5/11/9 19/12/10
f 4/8/7 19/12/10 18/9/8
f 5/13/9 6/14/11 19/15/10
f 6/14/11 20/16/12 19/15/10
f 6/14/11 7/17/13 21/18/14
f 6/14/11 21/18/14 20/16/12
f 7/19/13 8/20/15 22/21/16
f 7/19/13 22/21/16 21/22/14
f 8/20/15 9/23/17 22/21/16
f 9/23/17 23/24/18 22/21/16
f 9/23/17 10/25/19 24/26/20
f 9/23/17 24/26/20 23/24/18
f 10/27/19 11/28/21 25/29/22
f 10/27/19 25/29/22 24/30/20
f 11/28/21 12/31/23 25/29/22
f 12/31/23 26/32/24 25/29/22
f 12/33/23 13/34/25 27/35/26
f 12/33/23 27/35/26 26/36/24
f 13/34/25 14/37/27 28/38/28
f 13/34/25 28/38/28 27/35/26
f 14/37/27 1/39/1 15/40/3
f 14/37/27 15/40/3 28/38/28
f 15/3/3 16/4/4 29/41/29
f 16/4/4 30/42/30 29/41/29
f 16/4/4 17/6/6 30/42/30
f 17/6/6 31/43/31 30/42/30
f 17/10/6 18/9/8 32/44/32
f 17/10/6 32/44/32 31/45/31
f 18/9/8 19/12/10 33/46/33
f 18/9/8 33/46/33 32/44/32
f 19/15/10 20/16/12 34/47/34
f 19/15/10 34/47/34 33/48/33
f 20/16/12 21/18/14 35/49/35
f 20/16/12 35/49/35 34/47/34
f 21/22/14 22/21/16 36/50/36
f 21/22/14 36/50/36 35/51/35
f 22/21/16 23/24/18 37/52/37
f 22/21/16 37/52/37 36/50/36
f 23/24/18 24/26/20 38/53/38
f 23/24/18 38/53/38 37/52/37
f 24/30/20 25/29/22 39/54/39
f 24/30/20 39/54/39 38/55/38
f 25/29/22 26/32/24 40/56/40
f 25/29/22 40/56/40 39/54/39
f 26/36/24 27/35/26 41/57/41
f 26/36/24 41/57/41 40/58/40
f 27/35/26 28/38/28 42/59/42
f 27/35/26 42/59/42 41/57/41
f 28/38/28 15/40/3 42/59/42
f 15/40/3 29/60/29 42/59/42
f 29/61/29 30/62/30 44/63/43
f 29/61/29 44/63/43 43/64/44
f 30/65/30 31/61/31 45/64/45
f 30/65/30 45/64/45 44/66/46
f 31/61/31 32/62/32 46/63/47
f 31/61/31 46/63/47 45/64/48
f 32/67/32 33/68/33 47/69/49
f 32/67/32 47/69/49 46/70/50
f 33/68/33 34/71/34 47/69/51
f 34/71/34 48/72/52 47/69/51
f 34/71/34 35/73/35 49/74/53
f 34/71/34 49/74/53 48/72/54
f 35/67/35 36/68/36 50/69/55
f 35/67/35 50/69/55 49/70/56
f 36/68/36 37/71/37 51/72/57
f 36/68/36 51/72/57 50/69/58
f 37/71/37 38/73/38 52/74/59
f 37/71/37 52/74/59 51/72/60
f 38/68/38 39/71/39 52/69/61
f 39/71/39 53/72/62 52/69/61
f 39/67/39 40/68/40 54/69/63
f 39/67/39 54/69/63 53/70/64
f 40/68/40 41/71/41 54/69/65
f 41/71/41 55/72/66 54/69/65
f 41/71/41 42/73/42 56/74/67
f 41/71/41 56/74/67 55/72/68
f 42/65/42 29/61/29 43/64/69
f 42/65/42 43/64/69 56/66/70
f 43/64/71 44/63/72 58/75/73
f 43/64/71 58/75/73 57/76/74
f 44/66/75 45/64/76 59/76/77
f 44/66/75 59/76/77 58/77/78
f 45/64/79 46/63/80 60/75/81
f 45/64/79 60/75/81 59/76/82
f 46/70/83 47/69/84 61/78/85
f 46/70/83 61/78/85 60/79/86
f 47/69/87 48/72/88 62/80/89
f 47/69/87 62/80/89 61/78/90
f 48/72/91 49/74/92 63/81/93
f 48/72/91 63/81/93 62/80/94
f 49/70/95 50/69/96 64/78/97
f 49/70/95 64/78/97 63/79/98
f 50/69/99 51/72/100 65/80/101
f 50/69/99 65/80/101 64/78/102
f 51/72/103 52/74/104 66/81/105
f 51/72/103 66/81/105 65/80/106
f 52/69/107 53/72/108 67/80/109
f 52/69/107 67/80/109 66/78/110
f 53/70/111 54/69/112 68/78/113
f 53/70/111 68/78/113 67/79/114
f 54/69/115 55/72/116 69/80/117
f 54/69/115 69/80/117 68/78/118
f 55/72/119 56/74/120 70/81/121
f 55/72/119 70/81/121 69/80/122
f 56/66/123 43/64/124 57/76/125
f 56/66/123 57/76/125 70/77/126
f 57/76/127 58/75/128 72/82/129
f 57/76/127 72/82/129 71/83/130
f 58/77/131 59/76/132 73/83/133
f 58/77/131 73/83/133 72/84/129
f 59/76/134 60/75/135 73/83/133
f 60/75/135 74/82/136 73/83/133
f 60/79/137 61/78/138 74/85/136
f 61/78/138 75/86/139 74/85/136
f 61/78/140 62/80/141 76/87/142
f 61/78/140 76/87/142 75/86/139
f 62/80/143 63/81/144 76/87/142
f 63/81/144 77/88/145 76/87/142
f 63/79/146 64/78/147 78/86/148
f 63/79/146 78/86/148 77/85/145
f 64/78/149 65/80/150 78/86/148
f 65/80/150 79/87/151 78/86/148
f 65/80/152 66/81/153 80/88/154
f 65/80/152 80/88/154 79/87/151
f 66/78/155 67/80/156 81/87/157
f 66/78/155 81/87/157 80/86/154
f 67/79/158 68/78/159 82/86/160
f 67/79/158 82/86/160 81/85/157
f 68/78/161 69/80/162 82/86/160
f 69/80/162 83/87/163 82/86/160
f 69/80/164 70/81/165 83/87/163
f 70/81/165 84/88/166 83/87/163
f 70/77/167 57/76/168 71/83/130
f 70/77/167 71/83/130 84/84/166
f 71/89/130 72/90/129 85/91/169
f 72/90/129 86/92/170 85/91/169
f 72/90/129 73/93/133 87/94/171
f 72/90/129 87/94/171 86/92/170
f 73/95/133 74/96/136 88/97/172
f 73/95/133 88/97/172 87/98/171
f 74/96/136 75/99/139 89/100/173
f 74/96/136 89/100/173 88/97/172
f 75/101/139 76/102/142 90/103/174
f 75/101/139 90/103/174 89/104/173
f 76/102/142 77/105/145 91/106/175
f 76/102/142 91/106/175 90/103/174
f 77/107/145 78/108/148 92/109/176
f 77/107/145 92/109/176 91/110/175
f 78/108/148 79/111/151 92/109/176
f 79/111/151 93/112/177 92/109/176
f 79/49/151 80/47/154 94/16/178
f 79/49/151 94/16/178 93/18/177
f 80/47/154 81/48/157 95/15/179
f 80/47/154 95/15/179 94/16/178
f 81/113/157 82/114/160 95/115/179
f 82/114/160 96/116/180 95/115/179
f 82/114/160 83/117/163 97/118/181
f 82/114/160 97/118/181 96/116/180
f 83/117/163 84/119/166 98/120/182
f 83/117/163 98/120/182 97/118/181
f 84/121/166 71/89/130 85/91/169
f 84/121/166 85/91/169 98/122/182
f 85/91/169 86/92/170 100/123/183
f 85/91/169 100/123/183 99/124/184
f 86/92/170 87/94/171 101/125/185
f 86/92/170 101/125/185 100/123/183
f 87/98/171 88/97/172 102/126/186
f 87/98/171 102/126/186 101/127/185
f 88/97/172 89/100/173 103/128/187
f 88/97/172 103/128/187 102/126/186
f 89/104/173 90/103/174 104/129/188
f 89/104/173 104/129/188 103/130/187
f 90/103/174 91/106/175 104/129/188
f 91/106/175 105/131/189 104/129/188
f 91/110/175 92/109/176 106/132/190
f 91/110/175 106/132/190 105/133/189
f 92/109/176 93/112/177 107/134/191
f 92/109/176 107/134/191 106/132/190
f 93/18/177 94/16/178 108/14/192
f 93/18/177 108/14/192 107/17/191
f 94/16/178 95/15/179 109/13/193
f 94/16/178 109/13/193 108/14/192
f 95/115/179 96/116/180 109/135/193
f 96/116/180 110/136/194 109/135/193
f 96/116/180 97/118/181 111/137/195
f 96/116/180 111/137/195 110/136/194
f 97/118/181 98/120/182 112/138/196
f 97/118/181 112/138/196 111/137/195
f 98/122/182 85/91/169 99/124/184
f 98/122/182 99/124/184 112/139/196
f 113/140/197 2/141/2 1/142/1
f 113/140/197 3/143/5 2/141/2
f 113/140/197 4/144/7 3/143/5
f 113/140/197 5/145/9 4/144/7
f 113/140/197 6/146/11 5/145/9
f 113/140/197 7/147/13 6/146/11
f 113/140/197 8/148/15 7/147/13
f 113/140/197 9/149/17 8/148/15
f 113/140/197 10/150/19 9/149/17
f 113/140/197 11/151/21 10/150/19
f 113/140/197 12/152/23 11/151/21
f 113/140/197 13/153/25 12/152/23
f 113/140/197 14/154/27 13/153/25
f 113/140/197 1/142/1 14/154/27
f 114/140/198 99/142/184 100/154/183
f 114/140/198 100/154/183 101/153/185
f 114/140/198 101/153/185 102/152/186
f 114/140/198 102/152/186 103/151/187
f 114/140/198 103/151/187 104/150/188
f 114/140/198 104/150/188 105/149/189
f 114/140/198 105/149/189 106/148/190
f 114/140/198 106/148/190 107/147/191
f 114/140/198 107/147/191 108/146/192
f 114/140/198 108/146/192 109/145/193
f 114/140/198 109/145/193 110/144/194
f 114/140/198 110/144/194 111/143/195
f 114/140/198 111/143/195 112/141/196
f 114/140/198 112/141/196 99/142/184
f 115/155/199 116/156/200 128/157/201
f 115/155/199 128/157/201 127/158/202
f 116/159/200 117/160/203 129/161/204
f 116/159/200 129/161/204 128/162/201
f 117/160/203 118/163/205 130/164/205
f 117/160/203 130/164/205 129/161/204
f 118/163/205 119/165/206 130/164/205
f 119/165/206 131/166/207 130/164/205
f 119/167/206 120/168/208 131/169/207
f 120/168/208 132/170/208 131/169/207
f 120/168/208 121/171/209 133/172/209
f 120/168/208 133/172/209 132/170/208
f 121/171/209 122/173/210 133/172/209
f 122/173/210 134/174/210 133/172/209
f 122/175/210 123/176/211 135/177/211
f 122/175/210 135/177/211 134/178/210
f 123/176/211 124/179/212 135/177/211
f 124/179/212 136/180/213 135/177/211
f 124/179/212 125/181/214 136/180/213
f 125/181/214 137/182/215 136/180/213
f 125/183/214 126/184/216 137/185/215
f 126/184/216 138/186/216 137/185/215
f 126/184/216 115/155/199 127/158/202
f 126/184/216 127/158/202 138/186/216
f 127/187/217 128/188/217 140/189/217
f 127/187/217 140/189/217 139/190/217
f 128/191/218 129/192/218 141/193/218
f 128/191/218 141/193/218 140/194/218
f 129/195/219 130/196/219 142/197/219
f 129/195/219 142/197/219 141/198/219
f 130/199/220 131/200/220 143/201/220
f 130/199/220 143/201/220 142/202/220
f 131/203/221 132/204/221 144/205/221
f 131/203/221 144/205/221 143/206/221
f 132/207/198 133/208/198 145/209/198
f 132/207/198 145/209/198 144/210/198
f 133/211/222 134/212/222 146/213/222
f 133/211/222 146/213/222 145/214/222
f 134/215/223 135/216/223 147/217/223
f 134/215/223 147/217/223 146/218/223
f 135/219/224 136/220/224 148/221/224
f 135/219/224 148/221/224 147/222/224
f 136/223/225 137/224/225 149/225/225
f 136/223/225 149/225/225 148/226/225
f 137/227/226 138/228/226 150/229/226
f 137/227/226 150/229/226 149/230/226
f 138/231/197 127/232/197 139/233/197
f 138/231/197 139/233/197 150/234/197
f 139/235/227 140/236/228 151/237/229
f 140/236/228 152/238/230 151/237/229
f 140/239/228 141/240/231 152/241/230
f 141/240/231 153/242/231 152/241/230
f 141/240/231 142/243/232 154/244/233
f 141/240/231 154/244/233 153/242/231
f 142/243/232 143/245/234 155/246/235
f 142/243/232 155/246/235 154/244/233
f 143/247/234 144/248/236 156/249/237
f 143/247/234 156/249/237 155/250/235
f 144/248/236 145/251/238 157/252/239
f 144/248/236 157/252/239 156/249/237
f 145/251/238 146/253/240 158/254/240
f 145/251/238 158/254/240 157/252/239
f 146/255/240 147/256/241 158/257/240
f 147/256/241 159/258/241 158/257/240
f 147/256/241 148/259/242 160/260/243
f 147/256/241 160/260/243 159/258/241
f 148/259/242 149/261/244 161/262/245
f 148/259/242 161/262/245 160/260/243
f 149/263/244 150/264/246 162/265/246
f 149/263/244 162/265/246 161/266/245
f 150/264/246 139/235/227 162/265/246
f 139/235/227 151/237/229 162/265/246
f 123/267/247 125/268/247 124/269/247
f 122/270/247 125/268/247 123/267/247
f 121/271/247 125/268/247 122/270/247
f 121/271/247 126/272/247 125/268/247
f 121/271/247 115/273/247 126/272/247
f 120/274/247 115/273/247 121/271/247
f 120/274/247 116/275/247 115/273/247
f 119/276/247 116/275/247 120/274/247
f 119/276/247 117/277/247 116/275/247
f 117/277/247 119/276/247 118/278/247
f 159/279/248 160/280/248 161/281/248
f 158/282/248 159/279/248 161/281/248
f 157/283/248 158/282/248 161/281/248
f 157/283/248 161/281/248 162/284/248
f 157/283/248 162/284/248 151/285/248
f 156/286/248 157/283/248 151/285/248
f 156/286/248 151/285/248 152/287/248
f 155/288/248 156/286/248 152/287/248
f 155/288/248 152/287/248 153/289/248
f 153/289/248 154/290/248 155/288/248
f 163/291/249 164/292/250 175/293/249
f 164/292/250 176/294/251 175/293/249
f 164/292/250 165/295/252 176/294/251
f 165/295/252 177/296/252 176/294/251
f 165/295/252 166/297/253 178/298/254
f 165/295/252 178/298/254 177/296/252
f 166/299/253 167/300/255 179/301/256
f 166/299/253 179/301/256 178/302/254
f 167/300/255 168/303/257 180/304/258
f 167/300/255 180/304/258 179/301/256
f 168/305/257 169/306/209 181/307/209
f 168/305/257 181/307/209 180/308/258
f 169/309/209 170/310/259 181/311/209
f 170/310/259 182/312/260 181/311/209
f 170/310/259 171/313/261 182/312/260
f 171/313/261 183/314/262 182/312/260
f 171/315/261 172/316/263 183/317/262
f 172/316/263 184/318/263 183/317/262
f 172/316/263 173/319/264 185/320/265
f 172/316/263 185/320/265 184/318/263
f 173/319/264 174/321/266 186/322/267
f 173/319/264 186/322/267 185/320/265
f 174/323/266 163/324/249 175/325/249
f 174/323/266 175/325/249 186/326/267
f 175/327/217 176/328/217 188/329/217
f 175/327/217 188/329/217 187/330/217
f 176/331/218 177/332/218 189/333/218
f 176/331/218 189/333/218 188/334/218
f 177/335/219 178/336/219 190/337/219
f 177/335/219 190/337/219 189/338/219
f 178/339/220 179/340/220 191/341/220
f 178/339/220 191/341/220 190/342/220
f 179/343/221 180/344/221 192/345/221
f 179/343/221 192/345/221 191/346/221
f 180/347/198 181/348/198 193/349/198
f 180/347/198 193/349/198 192/350/198
f 181/351/222 182/352/222 194/353/222
f 181/351/222 194/353/222 193/354/222
f 182/355/223 183/356/223 195/357/223
f 182/355/223 195/357/223 194/358/223
f 183/359/224 184/360/224 196/361/224
f 183/359/224 196/361/224 195/362/224
f 184/363/225 185/364/225 197/365/225
f 184/363/225 197/365/225 196/366/225
f 185/367/226 186/368/226 198/369/226
f 185/367/226 198/369/226 197/370/226
f 186/371/197 175/372/197 187/373/197
f 186/371/197 187/373/197 198/374/197
f 187/375/268 188/376/269 200/377/270
f 187/375/268 200/377/270 199/378/271
f 188/376/269 189/379/272 201/380/273
f 188/376/269 201/380/273 200/377/270
f 189/379/272 190/381/274 202/382/274
f 189/379/272 202/382/274 201/380/273
f 190/383/274 191/384/275 202/385/274
f 191/384/275 203/386/276 202/385/274
f 191/384/275 192/387/277 203/386/276
f 192/387/277 204/388/277 203/386/276
f 192/389/277 193/390/278 205/391/279
f 192/389/277 205/391/279 204/392/277
f 193/393/278 194/394/280 206/395/281
f 193/393/278 206/395/281 205/396/279
f 194/394/280 195/397/282 207/398/283
f 194/394/280 207/398/283 206/395/281
f 195/399/282 196/400/284 208/401/284
f 195/399/282 208/401/284 207/402/283
f 196/400/284 197/403/285 208/401/284
f 197/403/285 209/404/286 208/401/284
f 197/403/285 198/405/246 209/404/286
f 198/405/246 210/406/246 209/404/286
f 198/407/246 187/408/268 199/409/271
f 198/407/246 199/409/271 210/410/246
f 171/411/247 173/412/247 172/413/247
f 170/414/247 173/412/247 171/411/247
f 170/414/247 174/415/247 173/412/247
f 169/416/247 174/415/247 170/414/247
f 169/416/247 163/417/247 174/415/247
f 168/418/247 163/417/247 169/416/247
f 168/418/247 164/419/247 163/417/247
f 167/420/247 164/419/247 168/418/247
f 167/420/247 165/421/247 164/419/247
f 165/421/247 167/420/247 166/422/247
f 207/423/248 208/424/248 209/425/248
f 206/426/248 207/423/248 209/425/248
f 206/426/248 209/425/248 210/427/248
f 205/428/248 206/426/248 210/427/248
f 205/428/248 210/427/248 199/429/248
f 204/430/248 205/428/248 199/429/248
f 204/430/248 199/429/248 200/431/248
f 203/432/248 204/430/248 200/431/248
f 203/432/248 200/431/248 201/433/248
f 201/433/248 202/434/248 203/432/248
f 211/435/287 212/436/287 222/437/288
f 211/435/287 222/437/288 221/438/289
f 212/439/290 213/440/290 223/441/291
f 212/439/290 223/441/291 222/442/292
f 213/443/248 214/444/248 223/445/248
f 214/444/248 224/446/248 223/445/248
f 214/447/293 215/448/293 224/449/293
f 215/448/293 225/450/293 224/449/293
f 215/451/294 216/452/294 225/453/294
f 216/452/294 226/454/294 225/453/294
f 216/452/294 217/455/294 227/456/294
f 216/452/294 227/456/294 226/454/294
f 217/457/295 218/458/295 228/459/295
f 217/457/295 228/459/295 227/460/295
f 218/461/247 219/462/247 229/463/247
f 218/461/247 229/463/247 228/464/247
f 219/465/296 220/466/296 229/467/297
f 220/466/296 230/468/298 229/467/297
f 220/469/287 211/435/287 230/470/299
f 211/435/287 221/438/289 230/470/299
f 221/438/289 222/437/288 232/471/300
f 221/438/289 232/471/300 231/472/300
f 222/442/292 223/441/291 233/473/301
f 222/442/292 233/473/301 232/474/301
f 223/445/248 224/446/248 234/475/248
f 223/445/248 234/475/248 233/476/248
f 224/477/302 225/478/303 235/479/304
f 224/477/302 235/479/304 234/480/305
f 225/478/303 226/481/306 236/482/307
f 225/478/303 236/482/307 235/479/308
f 226/481/306 227/483/309 237/484/310
f 226/481/306 237/484/310 236/482/307
f 227/483/309 228/485/311 237/484/312
f 228/485/311 238/486/313 237/484/312
f 228/464/247 229/463/247 238/487/247
f 229/463/247 239/488/247 238/487/247
f 229/467/297 230/468/298 239/489/314
f 230/468/298 240/490/314 239/489/314
f 230/470/299 221/438/289 231/472/300
f 230/470/299 231/472/300 240/491/300
f 231/492/315 232/493/315 241/494/315
f 232/493/315 242/495/315 241/494/315
f 232/496/316 233/497/316 242/498/316
f 233/497/316 243/499/316 242/498/316
f 233/476/248 234/475/248 244/500/248
f 233/476/248 244/500/248 243/501/248
f 234/480/305 235/479/317 245/502/318
f 234/480/305 245/502/318 244/503/318
f 235/479/308 236/482/307 246/504/319
f 235/479/308 246/504/319 245/502/319
f 236/482/307 237/484/310 246/504/319
f 237/484/310 247/505/319 246/504/319
f 237/484/320 238/486/313 247/505/321
f 238/486/313 248/506/321 247/505/321
f 238/487/247 239/488/247 248/507/247
f 239/488/247 249/508/247 248/507/247
f 239/509/322 240/510/322 250/511/322
f 239/509/322 250/511/322 249/512/322
f 240/513/315 231/492/315 241/494/315
f 240/513/315 241/494/315 250/514/315
f 213/515/197 215/516/197 214/517/197
f 212/518/197 215/516/197 213/515/197
f 217/519/197 219/520/197 218/521/197
f 217/519/197 220/522/197 219/520/197
f 211/523/197 215/516/197 212/518/197
f 211/523/197 216/524/197 215/516/197
f 220/522/197 216/524/197 211/523/197
f 216/524/197 220/522/197 217/519/197
f 243/525/198 244/526/198 245/527/198
f 242/528/198 243/525/198 245/527/198
f 247/529/198 248/530/198 249/531/198
f 247/529/198 249/531/198 250/532/198
f 241/533/198 242/528/198 245/527/198
f 241/533/198 245/527/198 246/534/198
f 250/532/198 241/533/198 246/534/198
f 246/534/198 247/529/198 250/532/198
