# mech2 legs - Leg_L_Shin_White.obj  (generated by source/build.py; do not edit by hand)
# frame: Leg_L hip-joint centre = origin, studs, +Y up, -Z forward
# segment: Shin  colour: White RGB (236, 236, 232)  pieces: shin_plate, shin_flank_out, shin_flank_in, achilles
# bbox centre in leg frame: [-0.4325, -5.916, 0.2407]  size: [2.2685, 3.5088, 2.9784]
# segment pivot (Knee) in leg frame: [-0.2856, -4.4064, 0.1632]
o Leg_L_Shin_White
v -0.23679 -4.16160 -0.52632
v -0.42055 -4.16160 -0.51612
v -0.43769 -4.16160 -0.49898
v -0.43769 -4.16160 -0.50266
v -0.42055 -4.16160 -0.48552
v -0.23679 -4.16160 -0.48552
v -0.10845 -4.16160 -0.48552
v -0.09131 -4.16160 -0.50266
v -0.09131 -4.16160 -0.50180
v -0.10845 -4.16160 -0.51893
v -0.18082 -4.52880 -0.65781
v -0.94656 -4.52880 -0.49461
v -1.07712 -4.52880 -0.36405
v -1.07712 -4.52880 0.02938
v -0.99552 -4.52880 0.11098
v -0.18082 -4.52880 0.11098
v 0.38663 -4.52880 0.11098
v 0.46823 -4.52880 0.02938
v 0.46823 -4.52880 -0.40907
v 0.33767 -4.52880 -0.53963
v -0.14742 -4.56960 -0.67468
v -0.95291 -4.56960 -0.51148
v -1.08347 -4.56960 -0.38092
v -1.08347 -4.56960 0.09792
v -1.00187 -4.56960 0.17952
v -0.14742 -4.56960 0.17952
v 0.44880 -4.56960 0.17952
v 0.53040 -4.56960 0.09792
v 0.53040 -4.56960 -0.42594
v 0.39984 -4.56960 -0.55650
v -0.16342 -4.81440 -0.77594
v -0.99099 -4.81440 -0.61274
v -1.12155 -4.81440 -0.48218
v -1.12155 -4.81440 0.42432
v -1.03995 -4.81440 0.50592
v -0.16342 -4.81440 0.50592
v 0.44880 -4.81440 0.50592
v 0.53040 -4.81440 0.42432
v 0.53040 -4.81440 -0.52720
v 0.39984 -4.81440 -0.65776
v -0.16875 -4.89600 -0.80969
v -1.00368 -4.89600 -0.64649
v -1.13424 -4.89600 -0.51593
v -1.13424 -4.89600 0.42585
v -1.05264 -4.89600 0.50745
v -0.16875 -4.89600 0.50745
v 0.44880 -4.89600 0.50745
v 0.53040 -4.89600 0.42585
v 0.53040 -4.89600 -0.56096
v 0.39984 -4.89600 -0.69152
v -0.20016 -5.30400 -0.97846
v -1.11792 -5.30400 -0.81526
v -1.24848 -5.30400 -0.68470
v -1.24848 -5.30400 0.43350
v -1.16688 -5.30400 0.51510
v -0.20016 -5.30400 0.51510
v 0.47736 -5.30400 0.51510
v 0.55896 -5.30400 0.43350
v 0.55896 -5.30400 -0.72972
v 0.42840 -5.30400 -0.86028
v -0.22130 -5.71200 -1.14722
v -1.20768 -5.71200 -0.98402
v -1.33824 -5.71200 -0.85346
v -1.33824 -5.71200 0.44115
v -1.25664 -5.71200 0.52275
v -0.22130 -5.71200 0.52275
v 0.50592 -5.71200 0.52275
v 0.58752 -5.71200 0.44115
v 0.58752 -5.71200 -0.89848
v 0.45696 -5.71200 -1.02904
v -0.22255 -5.95680 -1.24848
v -1.24534 -5.95680 -1.08528
v -1.37590 -5.95680 -0.95472
v -1.37590 -5.95680 0.44574
v -1.29430 -5.95680 0.52734
v -0.22255 -5.95680 0.52734
v 0.53103 -5.95680 0.52734
v 0.61263 -5.95680 0.44574
v 0.61263 -5.95680 -0.99974
v 0.48207 -5.95680 -1.13030
v -0.22293 -6.03024 -1.22695
v -1.25664 -6.03024 -1.06375
v -1.38720 -6.03024 -0.93319
v -1.38720 -6.03024 0.44712
v -1.30560 -6.03024 0.52872
v -0.22293 -6.03024 0.52872
v 0.53856 -6.03024 0.52872
v 0.62016 -6.03024 0.44712
v 0.62016 -6.03024 -0.97822
v 0.48960 -6.03024 -1.10878
v -0.90168 -6.03024 -1.22695
v -1.32192 -6.03024 -1.22695
v -1.38720 -6.03024 -1.16167
v -1.38720 -6.03024 0.47976
v -1.33824 -6.03024 0.52872
v -0.90168 -6.03024 0.52872
v -0.46512 -6.03024 0.52872
v -0.41616 -6.03024 0.47976
v -0.41616 -6.03024 -1.16167
v -0.48144 -6.03024 -1.22695
v -0.96354 -6.12000 -1.20065
v -1.38720 -6.12000 -1.20065
v -1.45248 -6.12000 -1.13537
v -1.45248 -6.12000 0.48144
v -1.40352 -6.12000 0.53040
v -0.96354 -6.12000 0.53040
v -0.52357 -6.12000 0.53040
v -0.47461 -6.12000 0.48144
v -0.47461 -6.12000 -1.13537
v -0.53989 -6.12000 -1.20065
v -1.09551 -6.43008 -1.10976
v -1.44922 -6.43008 -1.10976
v -1.51450 -6.43008 -1.04448
v -1.51450 -6.43008 0.44880
v -1.46554 -6.43008 0.49776
v -1.09551 -6.43008 0.49776
v -0.72548 -6.43008 0.49776
v -0.67652 -6.43008 0.44880
v -0.67652 -6.43008 -1.04448
v -0.74180 -6.43008 -1.10976
v -1.13718 -6.52800 -1.06209
v -1.46880 -6.52800 -1.06209
v -1.53408 -6.52800 -0.99681
v -1.53408 -6.52800 0.43849
v -1.48512 -6.52800 0.48745
v -1.13718 -6.52800 0.48745
v -0.78924 -6.52800 0.48745
v -0.74028 -6.52800 0.43849
v -0.74028 -6.52800 -0.99681
v -0.80556 -6.52800 -1.06209
v -1.21380 -6.73200 -0.96277
v -1.48920 -6.73200 -0.96277
v -1.55448 -6.73200 -0.89749
v -1.55448 -6.73200 0.41702
v -1.50552 -6.73200 0.46598
v -1.21380 -6.73200 0.46598
v -0.92208 -6.73200 0.46598
v -0.87312 -6.73200 0.41702
v -0.87312 -6.73200 -0.89749
v -0.93840 -6.73200 -0.96277
v -1.27529 -6.85440 -0.90318
v -1.50144 -6.85440 -0.90318
v -1.56672 -6.85440 -0.83790
v -1.56672 -6.85440 0.40413
v -1.51776 -6.85440 0.45309
v -1.27529 -6.85440 0.45309
v -1.03282 -6.85440 0.45309
v -0.98386 -6.85440 0.40413
v -0.98386 -6.85440 -0.83790
v -1.04914 -6.85440 -0.90318
v -1.29239 -6.89520 -0.88332
v -1.49872 -6.89520 -0.88332
v -1.56400 -6.89520 -0.81804
v -1.56400 -6.89520 0.39984
v -1.51504 -6.89520 0.44880
v -1.29239 -6.89520 0.44880
v -1.06974 -6.89520 0.44880
v -1.02078 -6.89520 0.39984
v -1.02078 -6.89520 -0.81804
v -1.08606 -6.89520 -0.88332
v -1.36762 -7.07472 -0.79592
v -1.48675 -7.07472 -0.79592
v -1.55203 -7.07472 -0.73064
v -1.55203 -7.07472 0.17875
v -1.50307 -7.07472 0.22771
v -1.36762 -7.07472 0.22771
v -1.23216 -7.07472 0.22771
v -1.18320 -7.07472 0.17875
v -1.18320 -7.07472 -0.73064
v -1.24848 -7.07472 -0.79592
v -1.42215 -7.34400 -0.66483
v -1.46880 -7.34400 -0.66483
v -1.53408 -7.34400 -0.59955
v -1.53408 -7.34400 -0.15289
v -1.48512 -7.34400 -0.10393
v -1.42215 -7.34400 -0.10393
v -1.35918 -7.34400 -0.10393
v -1.31022 -7.34400 -0.15289
v -1.31022 -7.34400 -0.59955
v -1.37550 -7.34400 -0.66483
v -1.45520 -7.50720 -0.58537
v -1.46608 -7.50720 -0.58537
v -1.52320 -7.50720 -0.52825
v -1.52320 -7.50720 -0.35389
v -1.47424 -7.50720 -0.30493
v -1.45520 -7.50720 -0.30493
v -1.43616 -7.50720 -0.30493
v -1.38720 -7.50720 -0.35389
v -1.38720 -7.50720 -0.52825
v -1.44432 -7.50720 -0.58537
v -1.45629 -7.67040 -0.52632
v -1.49518 -7.67040 -0.52632
v -1.51232 -7.67040 -0.50918
v -1.51232 -7.67040 -0.50266
v -1.49518 -7.67040 -0.48552
v -1.45629 -7.67040 -0.48552
v -1.41739 -7.67040 -0.48552
v -1.40026 -7.67040 -0.50266
v -1.40026 -7.67040 -0.50918
v -1.41739 -7.67040 -0.52632
v 0.10200 -6.03024 -1.22695
v -0.35088 -6.03024 -1.22695
v -0.41616 -6.03024 -1.16167
v -0.41616 -6.03024 0.47976
v -0.36720 -6.03024 0.52872
v 0.10200 -6.03024 0.52872
v 0.57120 -6.03024 0.52872
v 0.62016 -6.03024 0.47976
v 0.62016 -6.03024 -1.16167
v 0.55488 -6.03024 -1.22695
v 0.14527 -6.12000 -1.20065
v -0.28882 -6.12000 -1.20065
v -0.35410 -6.12000 -1.13537
v -0.35410 -6.12000 0.48144
v -0.30514 -6.12000 0.53040
v 0.14527 -6.12000 0.53040
v 0.59568 -6.12000 0.53040
v 0.64464 -6.12000 0.48144
v 0.64464 -6.12000 -1.13537
v 0.57936 -6.12000 -1.20065
v 0.26693 -6.43008 -1.10976
v -0.07445 -6.43008 -1.10976
v -0.13973 -6.43008 -1.04448
v -0.13973 -6.43008 0.44880
v -0.09077 -6.43008 0.49776
v 0.26693 -6.43008 0.49776
v 0.62462 -6.43008 0.49776
v 0.67358 -6.43008 0.44880
v 0.67358 -6.43008 -1.04448
v 0.60830 -6.43008 -1.10976
v 0.36938 -6.69120 -0.98264
v 0.10608 -6.69120 -0.98264
v 0.04080 -6.69120 -0.91736
v 0.04080 -6.69120 0.42131
v 0.08976 -6.69120 0.47027
v 0.36938 -6.69120 0.47027
v 0.64899 -6.69120 0.47027
v 0.69795 -6.69120 0.42131
v 0.69795 -6.69120 -0.91736
v 0.63267 -6.69120 -0.98264
v 0.38080 -6.73200 -0.96277
v 0.12512 -6.73200 -0.96277
v 0.05984 -6.73200 -0.89749
v 0.05984 -6.73200 0.41702
v 0.10880 -6.73200 0.46598
v 0.38080 -6.73200 0.46598
v 0.65280 -6.73200 0.46598
v 0.70176 -6.73200 0.41702
v 0.70176 -6.73200 -0.89749
v 0.63648 -6.73200 -0.96277
v 0.40909 -6.89520 -0.88332
v 0.20128 -6.89520 -0.88332
v 0.13600 -6.89520 -0.81804
v 0.13600 -6.89520 0.39984
v 0.18496 -6.89520 0.44880
v 0.40909 -6.89520 0.44880
v 0.63322 -6.89520 0.44880
v 0.68218 -6.89520 0.39984
v 0.68218 -6.89520 -0.81804
v 0.61690 -6.89520 -0.88332
v 0.41616 -6.93600 -0.86346
v 0.22032 -6.93600 -0.86346
v 0.15504 -6.93600 -0.79818
v 0.15504 -6.93600 0.34959
v 0.20400 -6.93600 0.39855
v 0.41616 -6.93600 0.39855
v 0.62832 -6.93600 0.39855
v 0.67728 -6.93600 0.34959
v 0.67728 -6.93600 -0.79818
v 0.61200 -6.93600 -0.86346
v 0.45043 -7.18080 -0.74428
v 0.33456 -7.18080 -0.74428
v 0.26928 -7.18080 -0.67900
v 0.26928 -7.18080 0.04810
v 0.31824 -7.18080 0.09706
v 0.45043 -7.18080 0.09706
v 0.58262 -7.18080 0.09706
v 0.63158 -7.18080 0.04810
v 0.63158 -7.18080 -0.67900
v 0.56630 -7.18080 -0.74428
v 0.46893 -7.50720 -0.58537
v 0.43248 -7.50720 -0.58537
v 0.36720 -7.50720 -0.52009
v 0.36720 -7.50720 -0.35389
v 0.41616 -7.50720 -0.30493
v 0.46893 -7.50720 -0.30493
v 0.52170 -7.50720 -0.30493
v 0.57066 -7.50720 -0.35389
v 0.57066 -7.50720 -0.52009
v 0.50538 -7.50720 -0.58537
v 0.47903 -7.54800 -0.56551
v 0.46030 -7.54800 -0.56551
v 0.39502 -7.54800 -0.50023
v 0.39502 -7.54800 -0.40413
v 0.44398 -7.54800 -0.35517
v 0.47903 -7.54800 -0.35517
v 0.51408 -7.54800 -0.35517
v 0.56304 -7.54800 -0.40413
v 0.56304 -7.54800 -0.50023
v 0.49776 -7.54800 -0.56551
v 0.48836 -7.67040 -0.52632
v 0.48509 -7.67040 -0.52632
v 0.46796 -7.67040 -0.50918
v 0.46796 -7.67040 -0.50266
v 0.48509 -7.67040 -0.48552
v 0.48836 -7.67040 -0.48552
v 0.49162 -7.67040 -0.48552
v 0.50876 -7.67040 -0.50266
v 0.50876 -7.67040 -0.50918
v 0.49162 -7.67040 -0.52632
v -0.42840 -5.87520 1.19179
v -0.82813 -5.87520 1.19179
v -0.85680 -5.87520 1.22046
v -0.85680 -5.87520 1.21432
v -0.82813 -5.87520 1.24299
v -0.42840 -5.87520 1.26006
v -0.02867 -5.87520 1.24299
v -0.00000 -5.87520 1.21432
v -0.00000 -5.87520 1.22046
v -0.02867 -5.87520 1.19179
v -0.42840 -6.12000 1.10160
v -0.78219 -6.12000 1.10160
v -0.86379 -6.12000 1.18320
v -0.86379 -6.12000 1.20862
v -0.72759 -6.12000 1.34482
v -0.42840 -6.12000 1.42589
v -0.12921 -6.12000 1.34482
v 0.00699 -6.12000 1.20862
v 0.00699 -6.12000 1.18320
v -0.07461 -6.12000 1.10160
v -0.42840 -6.32400 0.69360
v -0.78802 -6.32400 0.69360
v -0.86962 -6.32400 0.77520
v -0.86962 -6.32400 1.30297
v -0.70642 -6.32400 1.46617
v -0.42840 -6.32400 1.56409
v -0.15038 -6.32400 1.46617
v 0.01282 -6.32400 1.30297
v 0.01282 -6.32400 0.77520
v -0.06878 -6.32400 0.69360
v -0.42840 -6.56880 0.71585
v -0.79502 -6.56880 0.71585
v -0.87662 -6.56880 0.79745
v -0.87662 -6.56880 1.46880
v -0.71342 -6.56880 1.63200
v -0.42840 -6.56880 1.72992
v -0.14338 -6.56880 1.63200
v 0.01982 -6.56880 1.46880
v 0.01982 -6.56880 0.79745
v -0.06178 -6.56880 0.71585
v -0.42840 -6.77280 0.73440
v -0.80085 -6.77280 0.73440
v -0.88245 -6.77280 0.81600
v -0.88245 -6.77280 1.43520
v -0.71925 -6.77280 1.59840
v -0.42840 -6.77280 1.69632
v -0.13755 -6.77280 1.59840
v 0.02565 -6.77280 1.43520
v 0.02565 -6.77280 0.81600
v -0.05595 -6.77280 0.73440
v -0.42840 -6.96048 1.06896
v -0.80621 -6.96048 1.06896
v -0.88781 -6.96048 1.15056
v -0.88781 -6.96048 1.40429
v -0.72461 -6.96048 1.56749
v -0.42840 -6.96048 1.66541
v -0.13219 -6.96048 1.56749
v 0.03101 -6.96048 1.40429
v 0.03101 -6.96048 1.15056
v -0.05059 -6.96048 1.06896
v -0.42840 -7.26240 1.59528
v -0.87930 -7.26240 1.59528
v -0.89643 -7.26240 1.61242
v -0.89643 -7.26240 1.60874
v -0.87930 -7.26240 1.62588
v -0.42840 -7.26240 1.63608
v 0.02250 -7.26240 1.62588
v 0.03963 -7.26240 1.60874
v 0.03963 -7.26240 1.61242
v 0.02250 -7.26240 1.59528
vt 0.06672 1.01174
vt 0.05286 1.10914
vt 0.11271 1.01077
vt 0.24525 1.09355
vt -0.42896 0.90636
vt -0.39121 1.05764
vt -0.42344 0.90886
vt -0.34916 1.07668
vt 0.44209 0.12475
vt 0.62312 0.09101
vt 0.44209 0.12566
vt 0.61299 -0.12566
vt 0.79734 -0.09101
vt 0.79734 0.00734
vt 0.10942 0.45342
vt 0.24888 0.63213
vt 0.10514 0.45703
vt 0.26928 0.61493
vt 0.04520 0.63213
vt 0.05920 0.45703
vt 0.02711 0.45703
vt -0.09666 0.63213
vt -0.11706 0.61493
vt 0.02283 0.45342
vt -0.55174 0.12566
vt -0.71905 0.10227
vt -0.55174 0.12545
vt -0.53688 -0.29276
vt -0.71545 -0.17640
vt -0.70563 -0.28456
vt -0.53690 -0.29254
vt -0.67549 -0.31677
vt -0.53295 -0.29677
vt 0.03469 1.01104
vt -0.07597 1.09785
vt 0.24684 1.10459
vt 0.04451 1.12018
vt -0.35537 1.08589
vt -0.39742 1.06685
vt -0.09101 1.16329
vt -0.09523 1.17360
vt 0.00734 1.16329
vt 0.02448 1.17360
vt 0.27087 0.63486
vt 0.25047 0.65206
vt 0.03686 0.65206
vt -0.11220 0.65206
vt -0.13260 0.63486
vt -0.72376 -0.29038
vt -0.73550 -0.16114
vt -0.69363 -0.32258
vt -0.09150 1.10889
vt 0.04851 1.18641
vt 0.25636 1.17082
vt -0.39266 1.14115
vt -0.43471 1.12211
vt -0.12055 1.23546
vt 0.10608 1.23546
vt 0.28039 0.73656
vt 0.25999 0.75376
vt 0.04085 0.75376
vt -0.11220 0.75376
vt -0.13260 0.73656
vt -0.02448 1.14875
vt 0.13180 1.20981
vt 0.10649 1.14875
vt -0.10608 1.20981
vt -0.34239 1.08868
vt -0.34337 1.15489
vt -0.29814 1.10181
vt -0.29912 1.16802
vt -0.09150 1.17512
vt 0.04984 1.20848
vt 0.25953 1.19289
vt -0.40509 1.15957
vt -0.44714 1.14053
vt 0.10646 1.25608
vt -0.12898 1.25608
vt -0.32273 1.19558
vt -0.29957 1.22023
vt -0.29427 1.20029
vt -0.32803 1.21552
vt -0.25999 1.20576
vt -0.04219 1.22616
vt -0.04085 1.20576
vt -0.26316 1.22616
vt 0.11220 1.22616
vt 0.11220 1.20576
vt -0.08908 1.20882
vt -0.06189 1.23101
vt -0.06029 1.21070
vt -0.09068 1.22913
vt -0.10646 1.23017
vt 0.14024 1.23017
vt -0.34369 1.17696
vt -0.29944 1.19010
vt -0.09150 1.19719
vt 0.05769 1.31886
vt 0.28808 1.30328
vt -0.46072 1.25907
vt -0.50277 1.24003
vt 0.10837 1.36175
vt -0.17117 1.36175
vt -0.33516 1.31991
vt -0.36362 1.31521
vt -0.05004 1.32818
vt -0.29172 1.32818
vt 0.11934 1.32818
vt -0.09365 1.33136
vt -0.06486 1.33324
vt -0.10837 1.33242
vt 0.18243 1.33242
vt -0.35060 1.28732
vt -0.30634 1.30045
vt -0.09864 1.30758
vt 0.06297 1.42925
vt 0.31051 1.41366
vt -0.51950 1.35501
vt -0.56155 1.33597
vt 0.11029 1.46618
vt -0.21337 1.46618
vt -0.36636 1.41960
vt -0.39483 1.41489
vt -0.05532 1.43020
vt -0.31416 1.43020
vt 0.12648 1.43020
vt -0.09662 1.43358
vt -0.06784 1.43546
vt -0.11029 1.43466
vt 0.22462 1.43466
vt -0.35750 1.39767
vt -0.31324 1.41081
vt -0.10578 1.41796
vt 0.06329 1.49547
vt 0.31992 1.47989
vt -0.55683 1.41021
vt -0.59888 1.39117
vt 0.11143 1.52802
vt -0.23868 1.52802
vt -0.38219 1.47941
vt -0.41065 1.47470
vt -0.05564 1.49141
vt -0.32358 1.49141
vt 0.13276 1.49141
vt -0.09701 1.49510
vt -0.06822 1.49698
vt -0.11143 1.49615
vt 0.24994 1.49615
vt -0.36311 1.46388
vt -0.31885 1.47702
vt -0.11205 1.48419
vt 0.03804 1.34838
vt 0.03814 1.36751
vt 0.29464 1.35946
vt 0.29746 1.37859
vt 0.16876 1.43203
vt 0.17634 1.44982
vt 0.21470 1.42752
vt 0.22228 1.44532
vt -0.23330 1.54657
vt 0.11178 1.54657
vt -0.38693 1.49736
vt -0.41539 1.49265
vt -0.05573 1.50977
vt -0.32640 1.50977
vt 0.13464 1.50977
vt -0.09712 1.51355
vt -0.06833 1.51543
vt 0.24455 1.51459
vt -0.11178 1.51459
vt -0.32856 1.49166
vt -0.37281 1.47853
vt -0.13735 1.35640
vt -0.13923 1.37554
vt 0.02283 -0.12545
vt 0.02711 -0.12973
vt 0.05920 -0.13158
vt 0.10514 -0.12903
vt 0.10942 -0.12475
vt 0.36021 0.12566
vt 0.36021 0.12545
vt -0.15504 0.24455
vt 0.05573 0.30674
vt -0.12240 0.27719
vt -0.15504 -0.11178
vt 0.31416 0.26594
vt 0.05573 -0.13218
vt -0.13464 -0.13218
vt 0.32640 -0.13218
vt 0.34680 0.23330
vt 0.34680 -0.11178
vt 0.22542 1.28681
vt 0.24089 1.31009
vt 0.33048 1.28681
vt 0.34680 1.31009
vt -0.28381 1.33785
vt -0.27248 1.36123
vt -0.26129 1.34292
vt -0.24996 1.36629
vt -0.29042 1.54145
vt -0.28384 1.56598
vt 0.11994 1.54145
vt 0.12036 1.56598
vt -0.28026 1.51154
vt -0.27604 1.53525
vt -0.26300 1.51290
vt -0.29330 1.53389
vt -0.33456 1.48980
vt -0.24089 1.51212
vt -0.22542 1.48980
vt -0.35088 1.51212
vt -0.13089 1.51212
vt -0.11628 1.48980
vt -0.73275 1.10012
vt -0.73749 1.12505
vt -0.71720 1.10771
vt -0.75305 1.11745
vt -0.11994 1.30466
vt 0.28384 1.33143
vt 0.29042 1.30466
vt -0.12036 1.33143
vt 0.81924 -0.83894
vt 0.83784 -0.85926
vt 0.83911 -0.82720
vt 0.85771 -0.84753
vt 0.12036 1.28681
vt 0.13497 1.31009
vt 0.27388 1.39051
vt 0.36230 1.39051
vt -0.26294 1.44197
vt -0.24042 1.44704
vt -0.26112 1.64491
vt 0.11220 1.64491
vt -0.29884 1.61138
vt -0.31610 1.61002
vt -0.27388 1.59005
vt -0.36638 1.59005
vt -0.18137 1.59005
vt -0.80295 1.19090
vt -0.81851 1.18330
vt 0.26112 1.42392
vt -0.11220 1.42392
vt 0.90208 -0.92948
vt 0.92196 -0.91774
vt 0.18545 1.39051
vt 0.28430 1.41766
vt 0.36720 1.41766
vt -0.25682 1.46894
vt -0.23430 1.47401
vt -0.24920 1.66983
vt 0.10962 1.66983
vt -0.30604 1.63542
vt -0.32329 1.63406
vt -0.28430 1.61467
vt -0.37128 1.61467
vt -0.19731 1.61467
vt -0.82362 1.21170
vt -0.83918 1.20410
vt 0.24920 1.45313
vt -0.10962 1.45313
vt 0.92049 -0.95506
vt 0.94037 -0.94332
vt 0.20139 1.41766
vt 0.30345 1.47423
vt 0.37230 1.47423
vt -0.24777 1.52513
vt -0.22525 1.53019
vt -0.22437 1.72104
vt 0.10425 1.72104
vt -0.31742 1.68551
vt -0.33467 1.68415
vt -0.30345 1.66594
vt -0.37638 1.66594
vt -0.23052 1.66594
vt -0.86669 1.25502
vt -0.88224 1.24742
vt 0.22437 1.51397
vt -0.10425 1.51397
vt 0.95884 -1.00836
vt 0.97872 -0.99662
vt 0.23460 1.47423
vt 0.31882 1.50817
vt 0.37536 1.50817
vt -0.24234 1.55884
vt -0.21982 1.56391
vt -0.20948 1.75177
vt 0.10103 1.75177
vt -0.32425 1.71556
vt -0.34150 1.71420
vt -0.31882 1.69671
vt -0.37944 1.69671
vt -0.25821 1.69671
vt -0.89863 1.28101
vt -0.91419 1.27342
vt 0.20948 1.55485
vt -0.10103 1.55485
vt 0.98822 -1.04033
vt 1.00810 -1.02860
vt 0.26229 1.50817
vt 0.32310 1.51949
vt 0.37468 1.51949
vt -0.24176 1.57008
vt -0.21925 1.57514
vt -0.20451 1.76177
vt 0.09996 1.76177
vt -0.32532 1.72558
vt -0.34257 1.72421
vt -0.32310 1.70696
vt -0.37876 1.70696
vt -0.26743 1.70696
vt -0.90928 1.28968
vt -0.92484 1.28208
vt 0.20451 1.56847
vt -0.09996 1.56847
vt 0.99802 -1.05099
vt 1.01789 -1.03926
vt 0.27151 1.51949
vt 0.34190 1.56927
vt 0.37169 1.56927
vt -0.23922 1.61952
vt -0.21670 1.62459
vt 0.04469 1.80578
vt -0.18266 1.80578
vt -0.41469 0.99911
vt -0.43192 1.06075
vt -0.42912 0.98955
vt -0.41749 1.07030
vt 0.52844 0.94633
vt 0.49207 1.01748
vt 0.47309 0.94633
vt 0.52574 1.01748
vt 0.45839 1.01748
vt 0.41773 0.94633
vt 0.40479 0.95612
vt 0.44544 1.02727
vt -0.04469 1.62842
vt 0.18266 1.62842
vt 1.04111 -1.09789
vt 1.06099 -1.08616
vt 0.31212 1.56927
vt 0.35554 1.64394
vt 0.36720 1.64394
vt -0.23541 1.69369
vt -0.21289 1.69876
vt -0.03822 1.87178
vt -0.14989 1.87178
vt -0.43613 1.16754
vt -0.42170 1.17710
vt 0.50604 1.12421
vt 0.52170 1.12421
vt 0.49039 1.12421
vt 0.47744 1.13399
vt 0.03822 1.70194
vt 0.14989 1.70194
vt 1.10169 -1.15651
vt 1.08181 -1.16825
vt 0.34387 1.64394
vt 0.36380 1.68919
vt 0.36652 1.68919
vt -0.23162 1.73864
vt -0.21191 1.74308
vt -0.08847 1.91179
vt -0.13206 1.91179
vt -0.43868 1.23227
vt -0.42424 1.24182
vt 0.51451 1.18889
vt 0.51925 1.18889
vt 0.50978 1.18889
vt 0.49683 1.19867
vt 0.08847 1.74650
vt 0.13206 1.74650
vt 1.12468 -1.19915
vt 1.10729 -1.20942
vt 0.36108 1.68919
vt 0.36407 1.73256
vt 0.37380 1.73256
vt -0.22540 1.78201
vt -0.21949 1.78334
vt -0.12566 1.95180
vt -0.12730 1.95180
vt -0.43617 1.29301
vt -0.43111 1.29636
vt 0.51536 1.24950
vt 0.52503 1.24950
vt 0.50569 1.24950
vt -1.02650 1.38637
vt -1.02074 1.44713
vt -1.01149 1.39499
vt -1.01549 1.45015
vt 0.12566 1.78206
vt 0.12730 1.78206
vt 1.13004 -1.23812
vt 1.12482 -1.24120
vt 0.35435 1.73256
vt 0.10404 -0.29042
vt 0.12036 -0.30674
vt 0.22542 -0.30674
vt 0.10404 0.11994
vt 0.33048 -0.30674
vt 0.34680 0.11994
vt 0.33456 0.13218
vt 0.22542 0.13218
vt 0.34680 -0.29042
vt 0.11628 0.13218
vt 0.36407 0.13158
vt 0.37808 0.12730
vt 0.37380 0.13158
vt 0.36407 0.12138
vt 0.35006 0.12566
vt 0.35435 0.12138
vt 0.37808 0.12566
vt 0.37380 0.12138
vt 0.35006 0.12730
vt 0.35435 0.13158
vt -0.02550 1.28555
vt 0.07221 1.30883
vt 0.08772 1.28555
vt -0.03632 1.30883
vt 0.39837 1.03338
vt 0.42631 1.04911
vt 0.41853 1.02215
vt 0.40615 1.06034
vt -0.29042 1.24817
vt -0.28384 1.27537
vt 0.11994 1.24817
vt 0.12036 1.27537
vt 0.53865 1.14643
vt 0.55925 1.16430
vt 0.55438 1.13921
vt 0.57498 1.15708
vt -0.09180 1.49009
vt -0.07629 1.51241
vt 0.02550 1.49009
vt 0.03632 1.51241
vt 0.14280 1.49009
vt 0.14892 1.51241
vt -0.01450 1.50450
vt -0.01080 1.52693
vt 0.00280 1.50476
vt 0.00651 1.52718
vt -0.11994 1.50929
vt 0.28384 1.53180
vt 0.29042 1.50929
vt -0.12036 1.53180
vt -0.30824 1.29943
vt -0.30121 1.32407
vt -0.28622 1.30635
vt -0.32323 1.31715
vt -0.13872 1.28555
vt -0.14484 1.30883
vt 0.01861 1.38924
vt -0.06673 1.38924
vt 0.45320 1.14224
vt 0.43303 1.15347
vt -0.26112 1.36935
vt 0.11220 1.36935
vt 0.62555 1.23170
vt 0.64128 1.22448
vt -0.02269 1.59035
vt 0.06673 1.59035
vt 0.15616 1.59035
vt -0.00105 1.60460
vt 0.01626 1.60485
vt 0.26112 1.60940
vt -0.11220 1.60940
vt -0.34452 1.39120
vt -0.36654 1.38428
vt -0.15208 1.38924
vt -0.02652 1.46166
vt -0.09234 1.46166
vt 0.48608 1.22066
vt 0.46591 1.23189
vt -0.22934 1.44849
vt 0.10533 1.44849
vt 0.68137 1.28847
vt 0.69710 1.28124
vt 0.02244 1.65598
vt 0.09234 1.65598
vt 0.16225 1.65598
vt 0.00716 1.67001
vt 0.02447 1.67026
vt 0.22934 1.67475
vt -0.10533 1.67475
vt -0.39037 1.44773
vt -0.41239 1.44081
vt -0.15817 1.46166
vt -0.03128 1.47297
vt -0.09520 1.47297
vt 0.47203 1.24257
vt 0.49219 1.23133
vt -0.22437 1.45970
vt 0.10425 1.45970
vt 0.68831 1.29733
vt 0.70404 1.29011
vt 0.02720 1.66623
vt 0.09520 1.66623
vt 0.16320 1.66623
vt 0.00844 1.68023
vt 0.02575 1.68048
vt 0.22437 1.68496
vt -0.10425 1.68496
vt -0.39754 1.45657
vt -0.41955 1.44964
vt -0.15912 1.47297
vt -0.05032 1.51823
vt -0.10227 1.51823
vt 0.49648 1.28527
vt 0.51664 1.27404
vt -0.20451 1.50452
vt 0.09996 1.50452
vt 0.71607 1.33281
vt 0.73180 1.32559
vt 0.04624 1.70725
vt 0.10227 1.70725
vt 0.15830 1.70725
vt 0.02473 1.72136
vt 0.00742 1.72111
vt 0.20451 1.72570
vt -0.09996 1.72570
vt -0.42090 1.49559
vt -0.44292 1.48867
vt -0.15422 1.51823
vt -0.05508 1.52955
vt -0.10404 1.52955
vt 0.50259 1.29595
vt 0.52276 1.28471
vt 0.08740 1.51573
vt -0.19954 1.51573
vt -0.18477 0.97581
vt -0.20251 0.98230
vt -0.19773 0.96613
vt -0.18954 0.99198
vt -0.25345 0.96613
vt -0.25525 0.98230
vt -0.30917 0.96613
vt -0.30799 0.98230
vt 0.60135 0.91289
vt 0.60290 0.92904
vt 0.58719 0.92284
vt 0.58873 0.93899
vt -0.08740 1.73588
vt 0.19954 1.73588
vt -0.42674 1.50535
vt -0.44876 1.49842
vt -0.15300 1.52955
vt -0.08364 1.59744
vt -0.11261 1.59744
vt 0.53928 1.36000
vt 0.55944 1.34877
vt 0.01203 1.58297
vt -0.16975 1.58297
vt -0.23115 1.07937
vt -0.21818 1.08905
vt -0.26401 1.07937
vt -0.29687 1.07937
vt 0.61571 1.02596
vt 0.60155 1.03591
vt -0.01203 1.79694
vt 0.16975 1.79694
vt -0.45931 1.56561
vt -0.48133 1.55869
vt -0.14158 1.59744
vt -0.10812 1.68796
vt -0.11723 1.68796
vt 0.59398 1.43605
vt 0.61414 1.42482
vt -0.08847 1.66575
vt -0.13002 1.66575
vt -0.25581 1.20878
vt -0.24285 1.21846
vt -0.26893 1.20878
vt -0.28205 1.20878
vt 0.63279 1.15517
vt 0.61863 1.16512
vt 0.08847 1.87835
vt 0.13002 1.87835
vt -0.50273 1.64597
vt -0.52475 1.63905
vt -0.12634 1.68796
vt -0.11507 1.69927
vt -0.11976 1.69927
vt 0.61932 1.43701
vt 0.59916 1.44824
vt -0.10103 1.67807
vt -0.12506 1.67807
vt -0.26277 1.22496
vt -0.24980 1.23464
vt -0.27148 1.22496
vt -0.28020 1.22496
vt 0.63493 1.17133
vt 0.62076 1.18128
vt 0.10103 1.88853
vt 0.12506 1.88853
vt -0.50816 1.65601
vt -0.53018 1.64909
vt -0.12444 1.69927
vt -0.12127 1.73132
vt -0.12209 1.73132
vt 0.62211 1.47176
vt 0.61681 1.47470
vt -0.12566 1.71369
vt -0.12730 1.71369
vt -0.27344 1.26946
vt -0.26890 1.27285
vt -0.27425 1.26946
vt -0.27506 1.26946
vt 0.64275 1.21564
vt 0.63779 1.21912
vt 0.12566 1.91897
vt 0.12730 1.91897
vt -0.52898 1.68256
vt -0.52320 1.68438
vt -0.12291 1.73132
vt -0.15504 -0.29042
vt -0.13872 -0.30674
vt -0.02550 -0.30674
vt -0.15504 0.11994
vt 0.08772 -0.30674
vt 0.09180 0.13218
vt -0.02550 0.13218
vt -0.14280 0.13218
vt -0.12127 0.13158
vt -0.11699 0.12566
vt -0.11699 0.12730
vt -0.12127 0.12138
vt -0.12291 0.12138
vt -0.12719 0.12730
vt -0.12719 0.12566
vt -0.12291 0.13158
vt -0.12209 0.13158
vt -0.12209 0.12138
vt 0.10710 1.27524
vt 0.19555 1.34046
vt 0.20703 1.27524
vt 0.10710 1.34046
vt 0.17198 1.48220
vt 0.16897 1.54401
vt 0.18204 1.48348
vt 0.14034 1.54038
vt -0.30512 1.47432
vt -0.30215 1.53554
vt -0.30358 1.47432
vt 0.30512 1.47432
vt 0.29580 1.53554
vt 0.30215 1.53554
vt 0.52000 1.41769
vt 0.53556 1.47367
vt 0.52966 1.41460
vt 0.58142 1.45899
vt -0.20703 1.41965
vt -0.18190 1.48523
vt -0.10710 1.42184
vt -0.10710 1.49565
vt -0.03230 1.48523
vt -0.00717 1.41965
vt 0.23093 1.45931
vt 0.26042 1.51083
vt 0.24059 1.45622
vt 0.21455 1.52550
vt 0.30358 1.46820
vt 0.30215 1.52943
vt 0.30512 1.46820
vt -0.30512 1.46820
vt -0.30215 1.52943
vt -0.29580 1.52943
vt -0.03419 1.44537
vt -0.02112 1.50590
vt -0.02414 1.44409
vt 0.00750 1.50227
vt 0.00717 1.27524
vt 0.01865 1.34046
vt 0.10710 -0.43633
vt 0.10710 -0.55037
vt 0.19555 -0.43633
vt 0.19701 -0.55037
vt 0.21741 -0.53211
vt 0.21595 -0.41807
vt 0.32574 1.58656
vt 0.19380 1.58656
vt 0.56691 1.52032
vt 0.62187 1.50273
vt -0.17661 1.54457
vt -0.10710 1.55715
vt -0.03759 1.54457
vt 0.26197 1.56701
vt 0.20701 1.58460
vt -0.32574 1.58045
vt -0.19380 1.58045
vt -0.00175 -0.41807
vt -0.00321 -0.53211
vt 0.01865 -0.43633
vt 0.01719 -0.55037
vt 0.10710 1.59021
vt 0.10710 1.65166
vt 0.19701 1.59021
vt 0.19875 1.65166
vt 0.33112 1.56568
vt 0.33898 1.62665
vt 0.35994 1.56441
vt 0.36780 1.62538
vt 0.19936 1.64779
vt 0.36720 1.64779
vt 0.61431 1.57630
vt 0.66926 1.55871
vt -0.17835 1.61838
vt -0.10710 1.63096
vt -0.03585 1.61838
vt 0.25587 1.64010
vt 0.20092 1.65769
vt -0.19936 1.64167
vt -0.36720 1.64167
vt -0.20892 1.57774
vt -0.18796 1.63998
vt -0.18010 1.57901
vt -0.21678 1.63871
vt 0.01719 1.59021
vt 0.01545 1.65166
vt 0.10710 1.70287
vt 0.20021 1.70287
vt 0.34553 1.67746
vt 0.37435 1.67619
vt 0.35880 1.69881
vt 0.20400 1.69881
vt -0.04792 1.59763
vt -0.00231 1.65347
vt 0.00952 1.60313
vt -0.05974 1.64797
vt -0.06325 1.62557
vt 0.01024 1.67592
vt 0.01176 1.62464
vt -0.06618 1.67685
vt -0.21999 1.62464
vt -0.21848 1.67592
vt -0.14499 1.62557
vt -0.14206 1.67685
vt -0.15891 1.63203
vt -0.14708 1.68236
vt -0.10147 1.62652
vt -0.08964 1.67686
vt -0.35880 1.69269
vt -0.20400 1.69269
vt -0.19451 1.69079
vt -0.22333 1.68952
vt 0.01399 1.70287
vt 0.10710 -0.99101
vt 0.10710 -1.08691
vt 0.20021 -0.99101
vt 0.20155 -1.08691
vt 0.22061 -1.00878
vt 0.22195 -1.10468
vt 0.28764 1.74575
vt 0.35107 1.74575
vt -0.01319 1.69978
vt -0.07062 1.69428
vt 0.00885 1.72310
vt -0.06887 1.72403
vt -0.21708 1.72310
vt -0.13936 1.72403
vt -0.13620 1.72867
vt -0.07876 1.72317
vt -0.28764 1.73963
vt -0.35107 1.73963
vt -0.00641 -1.00878
vt 0.01265 -1.08691
vt 0.01399 -0.99101
vt -0.00775 -1.10468
vt 0.10710 -1.23860
vt 0.21982 -1.23860
vt 0.22411 -1.24233
vt 0.40310 1.82126
vt -0.35107 1.74575
vt -0.40310 1.82126
vt -0.40219 1.82126
vt -0.62524 1.62414
vt -0.62802 1.71528
vt -0.57255 1.64767
vt -0.62249 1.71775
vt 0.00780 1.79880
vt -0.10238 1.79890
vt -0.21604 1.79880
vt -0.10585 1.79890
vt 0.40667 1.64767
vt 0.46215 1.71528
vt 0.45936 1.62414
vt 0.45661 1.71775
vt -0.40310 1.81514
vt 0.35107 1.73963
vt 0.40219 1.81514
vt 0.40310 1.81514
vt -0.00562 -1.23860
vt -0.00991 -1.24233
vt 0.10710 0.29795
vt 0.20703 0.29795
vt 0.21420 0.30512
vt 0.00000 0.30512
vt 0.00717 0.29795
vt 0.21420 0.30358
vt 0.20703 0.31075
vt 0.10710 0.31502
vt 0.00717 0.31075
vt 0.00000 0.30358
vt 0.21420 -0.30512
vt 0.21420 -0.30358
vt 0.00000 -0.30358
vt 0.00000 -0.30512
vt 0.22411 -0.40219
vt 0.10710 -0.40902
vt 0.21982 -0.40647
vt -0.00991 -0.40219
vt -0.00562 -0.40647
vt 0.22411 0.40310
vt -0.00991 0.40219
vt 0.22411 0.40219
vt -0.00991 0.40310
vn -0.0085 0.3360 -0.9418
vn -0.0370 0.2964 -0.9544
vn -0.1738 0.2537 -0.9515
vn -0.2017 0.2524 -0.9464
vn -0.5072 0.6968 -0.5072
vn -0.5313 0.6598 -0.5313
vn -0.5218 0.6749 -0.5218
vn 0.3255 -0.9455 0.0000
vn 0.4980 -0.8672 0.0000
vn 0.3491 -0.9371 0.0000
vn -0.4313 0.8981 0.0865
vn -0.4980 0.8672 0.0000
vn -0.4479 0.8901 0.0839
vn -0.0558 0.8710 0.4881
vn -0.0087 0.8565 0.5162
vn -0.0087 0.8553 0.5181
vn 0.0000 0.8526 0.5226
vn 0.0000 0.8516 0.5242
vn 0.0604 0.8716 0.4864
vn 0.0605 0.8734 0.4832
vn 0.0603 0.8725 0.4849
vn 0.4911 0.8673 0.0811
vn 0.5235 0.8518 0.0197
vn -0.5487 -0.8360 0.0000
vn 0.5351 0.8445 0.0201
vn 0.5426 0.8394 -0.0305
vn 0.5259 0.6685 -0.5259
vn 0.4197 0.6583 -0.6249
vn 0.5039 0.7016 -0.5039
vn 0.1808 0.3165 -0.9312
vn 0.2063 0.3607 -0.9096
vn -0.1820 0.3832 -0.9056
vn 0.0284 0.3809 -0.9242
vn -0.6560 0.3734 -0.6560
vn -0.9881 0.1537 0.0000
vn -0.4723 0.7442 0.4723
vn -0.0471 0.8113 0.5827
vn 0.0000 0.8101 0.5862
vn 0.0111 0.8171 0.5763
vn 0.4925 0.8263 0.2733
vn 0.1169 0.8085 0.5767
vn 0.5353 0.8422 -0.0640
vn 0.4586 0.8819 0.1089
vn 0.5517 0.8228 -0.1361
vn 0.2971 0.7147 -0.6332
vn 0.4548 0.6771 -0.5785
vn 0.3088 0.4655 -0.8294
vn 0.0352 0.3914 -0.9195
vn 0.3143 0.4801 -0.8190
vn 0.2265 0.4726 -0.8517
vn 0.0492 0.4000 -0.9152
vn -0.0593 0.3896 -0.9191
vn -0.1773 0.3969 -0.9006
vn -0.4870 0.7251 0.4870
vn -0.0507 0.8018 0.5954
vn 0.0000 0.8000 0.6000
vn 0.4890 0.7223 0.4890
vn 0.5145 0.6860 0.5145
vn 0.4367 0.7865 0.4367
vn 1.0000 0.0000 0.0000
vn 0.6787 0.2807 -0.6787
vn 0.1925 0.4106 -0.8913
vn 0.1930 0.3704 -0.9086
vn 0.0117 0.3877 -0.9217
vn -0.1683 0.4020 -0.9000
vn -0.6411 0.4219 -0.6411
vn -0.6369 0.4345 -0.6369
vn -0.9713 0.2379 0.0000
vn -0.9655 0.2603 0.0000
vn -0.7018 0.1223 0.7018
vn -0.6952 0.1830 0.6952
vn -0.6929 0.1992 0.6929
vn 0.0000 0.0187 0.9998
vn 0.7070 0.0133 0.7070
vn 0.7061 0.0544 0.7061
vn 0.9987 0.0502 0.0000
vn 0.9980 0.0640 0.0000
vn 0.6719 0.3115 -0.6719
vn 0.6700 0.3198 -0.6700
vn 0.1883 0.3819 -0.9048
vn -0.0270 0.3923 -0.9195
vn -0.1565 0.4020 -0.9022
vn -0.6384 0.4300 -0.6384
vn -0.6419 0.4195 -0.6419
vn -0.9681 0.2506 0.0000
vn -0.9726 0.2325 0.0000
vn -0.6938 0.1934 0.6938
vn -0.6956 0.1800 0.6956
vn 0.7057 0.0626 0.7057
vn 0.9976 0.0698 0.0000
vn 0.6691 0.3236 -0.6691
vn 0.1764 0.3794 -0.9083
vn -0.0377 0.3909 -0.9197
vn -0.1484 0.3961 -0.9061
vn -0.6479 0.4006 -0.6479
vn -0.6513 0.3892 -0.6513
vn -0.9798 0.1998 0.0000
vn -0.9836 0.1803 0.0000
vn -0.6984 0.1561 0.6984
vn -0.7000 0.1419 0.7000
vn 0.7055 0.0679 0.7055
vn 0.7051 0.0751 0.7051
vn 0.9970 0.0777 0.0000
vn 0.9961 0.0877 0.0000
vn 0.6680 0.3281 -0.6680
vn 0.6665 0.3342 -0.6665
vn 0.1631 0.3814 -0.9099
vn -0.0705 0.3886 -0.9187
vn -0.1446 0.3971 -0.9063
vn -0.6799 0.2749 -0.6799
vn -0.9884 0.1521 0.0000
vn -0.7019 0.1211 0.7019
vn 0.7045 0.0855 0.7045
vn 0.9948 0.1020 0.0000
vn 0.6860 0.2422 -0.6860
vn 0.1556 0.3840 -0.9101
vn -0.0250 -0.2811 -0.9594
vn -0.0249 -0.2716 -0.9621
vn -0.1511 -0.2670 -0.9518
vn -0.1507 -0.2566 -0.9547
vn -0.7037 -0.0980 -0.7037
vn 0.7008 -0.1335 -0.7008
vn 0.1584 -0.2706 -0.9496
vn 0.1579 -0.2628 -0.9518
vn 0.0000 1.0000 0.0000
vn 0.2988 0.9063 0.2988
vn 0.2225 0.9492 0.2225
vn -0.2530 0.9338 0.2530
vn 0.0000 -1.0000 0.0000
vn 0.0000 -0.2813 -0.9596
vn -0.6760 0.2935 -0.6760
vn -0.7053 0.0707 -0.7053
vn -0.7070 -0.0187 -0.7070
vn -0.8087 0.5882 0.0000
vn -0.9303 0.3668 0.0000
vn -0.9657 0.2597 0.0000
vn -0.6254 0.4666 0.6254
vn -0.6882 0.2296 0.6882
vn -0.7016 0.1242 0.7016
vn 0.0000 -0.0761 0.9971
vn 0.0000 -0.0881 0.9961
vn 0.0000 -0.0598 0.9982
vn 0.6455 -0.4082 0.6455
vn 0.6318 -0.4492 0.6318
vn 0.6264 -0.4640 0.6264
vn 0.8380 -0.5457 0.0000
vn 0.5881 -0.5553 -0.5881
vn 0.0000 -0.3191 -0.9477
vn 0.0000 -0.3442 -0.9389
vn -0.7046 -0.0842 -0.7046
vn -0.7022 -0.1180 -0.7022
vn -0.9806 0.1961 0.0000
vn -0.7055 0.0668 0.7055
vn 0.0000 -0.1047 0.9945
vn 0.6235 -0.4716 0.6235
vn 0.5830 -0.5659 -0.5830
vn 0.5736 -0.5847 -0.5736
vn 0.0000 -0.3026 -0.9531
vn 0.0000 -0.4377 -0.8991
vn -0.6878 -0.2324 -0.6878
vn -0.6844 -0.2515 -0.6844
vn -0.9890 0.1478 0.0000
vn -0.9929 0.1192 0.0000
vn -0.7068 0.0309 0.7068
vn -0.7071 0.0100 0.7071
vn 0.5509 -0.6269 -0.5509
vn -0.6821 -0.2638 -0.6821
vn -0.9950 0.0995 0.0000
vn -0.7071 -0.0037 0.7071
vn 0.6127 -0.4993 0.6127
vn 0.5976 -0.5347 0.5976
vn 0.8163 -0.5777 0.0000
vn 0.7855 -0.6188 0.0000
vn 0.5398 -0.6459 -0.5398
vn 0.5249 -0.6700 -0.5249
vn -0.6791 -0.2789 -0.6791
vn -0.6733 -0.3054 -0.6733
vn -0.9971 0.0765 0.0000
vn -0.9994 0.0337 0.0000
vn -0.7070 -0.0206 0.7070
vn -0.7062 -0.0508 0.7062
vn 0.5754 -0.5812 0.5754
vn 0.7415 -0.6709 0.0000
vn 0.5040 -0.7014 -0.5040
vn -0.6585 -0.3645 -0.6585
vn -0.9978 -0.0665 0.0000
vn -0.7019 -0.1207 0.7019
vn 0.4183 -0.8063 0.4183
vn -0.5209 -0.6763 0.5209
vn 0.0000 -0.7763 0.6303
vn 0.1347 -0.8063 0.5760
vn 0.1045 -0.8082 0.5795
vn 0.1238 -0.8034 0.5824
vn 0.4351 -0.7882 0.4351
vn 0.8055 -0.5925 0.0000
vn 0.8554 -0.5179 0.0000
vn 0.5521 -0.6248 -0.5521
vn -0.6603 -0.3578 -0.6603
vn -0.6626 -0.3491 -0.6626
vn 0.1998 -0.7967 0.5704
vn 0.4517 -0.7694 0.4517
vn 0.9044 -0.4266 0.0000
vn 0.5876 -0.5564 -0.5876
vn 0.5904 -0.5503 -0.5904
vn 0.0000 -0.4154 -0.9096
vn 0.0000 -0.3587 -0.9335
vn -0.6802 -0.2732 -0.6802
vn -0.6894 -0.2224 -0.6894
vn -0.5407 -0.6443 0.5407
vn -0.5554 -0.6189 0.5554
vn 0.0000 -0.7675 0.6410
vn 0.0000 -0.7510 0.6603
vn 0.2332 -0.7904 0.5665
vn 0.2946 -0.7631 0.5753
vn 0.5216 -0.6752 0.5216
vn 0.9330 -0.3600 0.0000
vn 0.9649 -0.2627 0.0000
vn 0.6369 -0.4344 -0.6369
vn 0.6657 -0.3370 -0.6657
vn 0.0000 -0.3941 -0.9190
vn 0.0000 -0.3403 -0.9403
vn -0.7012 -0.1287 -0.7012
vn -0.5815 -0.5689 0.5815
vn 0.0000 -0.7419 0.6705
vn 0.4909 -0.7197 0.4909
vn 0.5790 -0.5741 0.5790
vn 0.9968 -0.0797 0.0000
vn 0.7004 -0.1379 -0.7004
vn -0.5803 -0.5713 -0.5803
vn -0.8226 -0.5687 0.0000
vn -0.6386 -0.4295 0.6386
vn -0.6245 -0.4691 0.6245
vn -0.6190 -0.4834 0.6190
vn 0.0000 -0.0591 0.9983
vn 0.0000 -0.0753 0.9972
vn 0.0000 -0.0877 0.9961
vn 0.6926 0.2019 0.6926
vn 0.7054 0.0701 0.7054
vn 0.7070 0.0187 0.7070
vn 0.9648 0.2631 0.0000
vn 0.9875 0.1574 0.0000
vn 0.9932 0.1160 0.0000
vn 0.7070 -0.0144 -0.7070
vn 0.7040 -0.0943 -0.7040
vn 0.7016 -0.1242 -0.7016
vn 0.0000 -0.3266 -0.9452
vn 0.0000 -0.3501 -0.9367
vn -0.5693 -0.5931 -0.5693
vn -0.5570 -0.6160 -0.5570
vn -0.6161 -0.4908 0.6161
vn 0.7071 -0.0084 0.7071
vn 0.9957 0.0929 0.0000
vn 0.6957 -0.1789 -0.6957
vn 0.6895 -0.2216 -0.6895
vn 0.0000 -0.3786 -0.9255
vn -0.5490 -0.6302 -0.5490
vn -0.8285 -0.5600 0.0000
vn -0.8429 -0.5380 0.0000
vn -0.6191 -0.4831 0.6191
vn -0.6260 -0.4652 0.6260
vn 0.6812 -0.2681 -0.6812
vn -0.5863 -0.5590 -0.5863
vn -0.9062 -0.4229 0.0000
vn -0.6555 -0.3749 0.6555
vn 0.7013 -0.1281 0.7013
vn 0.9988 -0.0484 0.0000
vn 0.9955 -0.0951 0.0000
vn 0.6613 -0.3543 -0.6613
vn 0.6537 -0.3812 -0.6537
vn -0.6160 -0.4911 0.6160
vn 0.6983 -0.1573 0.6983
vn 0.9929 -0.1191 0.0000
vn 0.6498 -0.3943 -0.6498
vn -0.1119 -0.7918 0.6005
vn -0.3456 -0.6651 0.6620
vn -0.4525 -0.7684 0.4525
vn -0.1079 -0.7914 0.6017
vn 0.5112 -0.6909 0.5112
vn 0.5022 -0.7039 0.5022
vn 0.5002 -0.7068 0.5002
vn 0.9859 -0.1672 0.0000
vn 0.9841 -0.1776 0.0000
vn 0.6413 -0.4212 -0.6413
vn 0.6393 -0.4273 -0.6393
vn -0.5991 -0.5313 -0.5991
vn -0.6094 -0.5072 -0.6094
vn -0.9253 -0.3792 0.0000
vn -0.9399 -0.3414 0.0000
vn -0.1422 -0.7905 0.5957
vn -0.4721 -0.7445 0.4721
vn 0.4993 -0.7081 0.4993
vn 0.9830 -0.1835 0.0000
vn 0.6384 -0.4300 -0.6384
vn -0.6100 -0.5058 -0.6100
vn -0.9555 -0.2949 0.0000
vn -0.9400 -0.3411 0.0000
vn -0.2055 -0.7854 0.5839
vn -0.4670 -0.7509 0.4670
vn 0.0000 -0.3736 -0.9276
vn 0.0000 -0.3577 -0.9339
vn -0.6190 -0.4835 -0.6190
vn -0.6412 -0.4217 -0.6412
vn -0.8435 -0.5372 0.0000
vn -0.8513 -0.5247 0.0000
vn -0.3090 -0.7741 0.5526
vn -0.4847 -0.7281 0.4847
vn -0.1919 -0.7988 0.5702
vn 0.0000 -0.7468 0.6650
vn 0.5176 -0.6813 0.5176
vn 0.5239 -0.6716 0.5239
vn 0.9521 -0.3058 0.0000
vn 0.9340 -0.3572 0.0000
vn 0.6703 -0.3185 -0.6703
vn 0.6743 -0.3008 -0.6743
vn 0.0000 -0.3362 -0.9418
vn 0.0000 -0.3049 -0.9524
vn -0.6632 -0.3467 -0.6632
vn -0.8590 -0.5119 0.0000
vn -0.5024 -0.7037 0.5024
vn -0.4673 -0.7505 0.4673
vn 0.0000 -0.7290 0.6845
vn 0.5301 -0.6618 0.5301
vn 0.9141 -0.4054 0.0000
vn 0.6840 -0.2533 -0.6840
vn 0.0000 0.3457 -0.9383
vn -0.7014 0.1268 -0.7014
vn 0.9996 -0.0286 0.0000
vn -0.9996 0.0286 0.0000
vn -0.7071 0.0037 0.7071
vn -0.6999 0.1423 0.6999
vn -0.6897 0.2204 0.6897
vn -0.0396 0.3698 0.9283
vn -0.1526 0.4633 0.8730
vn 0.0000 0.4599 0.8880
vn 0.0000 0.5403 0.8415
vn 0.1526 0.4633 0.8730
vn 0.0396 0.3698 0.9283
vn 0.7071 0.0037 0.7071
vn 0.6999 0.1423 0.6999
vn 0.6897 0.2204 0.6897
vn -0.9996 -0.0286 0.0000
vn 0.9996 0.0286 0.0000
vn 0.7014 0.1268 -0.7014
vn 0.0000 0.8944 -0.4472
vn -0.0828 0.8918 -0.4447
vn -0.0823 0.8919 -0.4448
vn -0.4044 0.8203 -0.4044
vn -0.6549 0.3772 0.6549
vn -0.5502 0.3211 0.7708
vn -0.4388 0.4865 0.7555
vn -0.2937 0.4426 0.8472
vn -0.0518 0.5359 0.8427
vn -0.2772 0.5408 0.7942
vn 0.4388 0.4865 0.7555
vn 0.2937 0.4426 0.8472
vn 0.0518 0.5359 0.8427
vn 0.2772 0.5408 0.7942
vn 0.5502 0.3211 0.7708
vn 0.6549 0.3772 0.6549
vn 0.4044 0.8203 -0.4044
vn 0.0828 0.8918 -0.4447
vn 0.0823 0.8919 -0.4448
vn 0.0000 -0.0905 -0.9959
vn -0.7064 -0.0440 -0.7064
vn -0.6327 0.4466 0.6327
vn -0.3773 0.5248 0.7631
vn -0.2736 0.5395 0.7963
vn 0.3773 0.5248 0.7631
vn 0.2736 0.5395 0.7963
vn 0.6327 0.4466 0.6327
vn 0.7064 -0.0440 -0.7064
vn -0.7039 -0.0958 0.7039
vn -0.4957 -0.1290 0.8589
vn -0.4328 -0.1377 0.8909
vn -0.3174 -0.1511 0.9362
vn -0.3210 -0.1539 0.9345
vn 0.3210 -0.1539 0.9345
vn 0.3174 -0.1511 0.9362
vn 0.4328 -0.1377 0.8909
vn 0.4957 -0.1290 0.8589
vn 0.7039 -0.0958 0.7039
vn 0.0000 -0.8721 -0.4893
vn 0.0000 -0.8701 -0.4930
vn -0.0480 -0.8708 -0.4893
vn -0.0731 -0.8642 -0.4979
vn -0.4438 -0.7785 -0.4438
vn -0.4704 -0.7466 -0.4704
vn -0.4651 -0.1093 0.8785
vn -0.3129 -0.1241 0.9417
vn -0.3116 0.0062 0.9502
vn 0.3129 -0.1241 0.9417
vn 0.3116 0.0062 0.9502
vn 0.4651 -0.1093 0.8785
vn 0.4438 -0.7785 -0.4438
vn 0.0731 -0.8642 -0.4979
vn 0.0480 -0.8708 -0.4893
vn 0.4704 -0.7466 -0.4704
vn 0.0000 -0.8749 -0.4844
vn -0.0889 -0.8644 -0.4950
vn -0.0907 -0.8583 -0.5050
vn -0.4849 -0.7279 -0.4849
vn -0.6327 0.4465 0.6327
vn -0.0808 0.1288 0.9884
vn -0.1784 0.0370 0.9833
vn -0.0222 0.2008 0.9794
vn -0.0000 0.0849 0.9964
vn 0.0808 0.1288 0.9884
vn 0.1784 0.0370 0.9833
vn 0.0222 0.2008 0.9794
vn 0.6327 0.4465 0.6327
vn 0.0907 -0.8583 -0.5050
vn 0.4849 -0.7279 -0.4849
vn 0.0889 -0.8644 -0.4950
vn 0.0000 -0.8742 -0.4856
s off
f 1/1/1 11/2/2 2/3/3
f 2/3/3 11/2/2 12/4/4
f 2/5/5 12/6/6 3/7/5
f 3/7/5 12/6/6 13/8/7
f 3/9/8 13/10/9 4/11/10
f 4/12/11 13/13/12 14/14/13
f 4/15/11 15/16/14 5/17/15
f 4/15/11 14/18/13 15/16/14
f 5/17/16 16/19/17 6/20/18
f 5/17/16 15/16/14 16/19/17
f 6/20/18 16/19/17 7/21/19
f 7/21/19 16/19/17 17/22/20
f 7/21/21 18/23/22 8/24/23
f 7/21/21 17/22/20 18/23/22
f 8/25/24 19/26/24 9/27/24
f 8/28/25 18/29/22 19/30/26
f 9/31/27 20/32/28 10/33/27
f 9/31/27 19/30/29 20/32/28
f 10/34/30 11/2/2 1/1/1
f 10/34/30 20/35/31 11/2/2
f 11/2/2 22/36/32 12/4/4
f 11/2/2 21/37/33 22/36/32
f 12/6/6 23/38/34 13/8/7
f 12/6/6 22/39/34 23/38/34
f 13/40/35 23/41/35 14/42/35
f 14/42/35 23/41/35 24/43/35
f 14/18/13 24/44/36 15/16/14
f 15/16/14 24/44/36 25/45/37
f 15/16/14 25/45/37 16/19/17
f 16/19/17 25/45/37 26/46/38
f 16/19/17 26/46/38 17/22/20
f 17/22/20 26/46/38 27/47/39
f 17/22/20 28/48/40 18/23/22
f 17/22/20 27/47/41 28/48/40
f 18/29/22 29/49/42 19/30/26
f 18/29/22 28/50/43 29/49/42
f 19/30/44 30/51/45 20/32/46
f 19/30/44 29/49/42 30/51/45
f 20/35/47 21/37/48 11/2/2
f 20/35/49 30/52/50 21/37/51
f 21/37/48 31/53/52 22/36/32
f 22/36/32 31/53/52 32/54/53
f 22/39/34 33/55/34 23/38/34
f 22/39/34 32/56/34 33/55/34
f 23/41/35 33/57/35 24/43/35
f 24/43/35 33/57/35 34/58/35
f 24/44/36 34/59/54 25/45/37
f 25/45/37 34/59/54 35/60/55
f 25/45/37 36/61/56 26/46/38
f 25/45/37 35/60/55 36/61/56
f 26/46/38 37/62/56 27/47/39
f 26/46/38 36/61/56 37/62/56
f 27/47/57 38/63/58 28/48/59
f 27/47/57 37/62/58 38/63/58
f 28/64/60 39/65/60 29/66/60
f 28/64/60 38/67/60 39/65/60
f 29/68/61 39/69/61 30/70/61
f 30/70/61 39/69/61 40/71/61
f 30/52/62 40/72/63 21/37/48
f 21/37/48 40/72/63 31/53/52
f 31/53/52 41/73/64 32/54/53
f 32/54/53 41/73/64 42/74/65
f 32/56/34 43/75/66 33/55/34
f 32/56/34 42/76/67 43/75/66
f 33/57/35 44/77/68 34/58/35
f 33/57/35 43/78/69 44/77/68
f 34/79/70 45/80/71 35/81/70
f 34/79/70 44/82/72 45/80/71
f 35/83/73 46/84/73 36/85/73
f 35/83/73 45/86/73 46/84/73
f 36/85/73 47/87/73 37/88/73
f 36/85/73 46/84/73 47/87/73
f 37/89/74 48/90/75 38/91/74
f 37/89/74 47/92/75 48/90/75
f 38/67/60 48/93/76 39/65/60
f 39/65/60 48/93/76 49/94/77
f 39/69/61 49/95/78 40/71/61
f 40/71/61 49/95/78 50/96/79
f 40/72/63 50/97/80 31/53/52
f 31/53/52 50/97/80 41/73/64
f 41/73/64 51/98/81 42/74/65
f 42/74/65 51/98/81 52/99/82
f 42/76/67 53/100/83 43/75/66
f 42/76/67 52/101/84 53/100/83
f 43/78/69 54/102/85 44/77/68
f 43/78/69 53/103/86 54/102/85
f 44/82/72 55/104/87 45/80/71
f 44/82/72 54/105/88 55/104/87
f 45/86/73 56/106/73 46/84/73
f 45/86/73 55/107/73 56/106/73
f 46/84/73 57/108/73 47/87/73
f 46/84/73 56/106/73 57/108/73
f 47/92/75 57/109/89 48/90/75
f 48/90/75 57/109/89 58/110/89
f 48/93/76 58/111/90 49/94/77
f 49/94/77 58/111/90 59/112/90
f 49/95/78 59/113/91 50/96/79
f 50/96/79 59/113/91 60/114/91
f 50/97/80 60/115/92 41/73/64
f 41/73/64 60/115/92 51/98/81
f 51/98/81 61/116/93 52/99/82
f 52/99/82 61/116/93 62/117/94
f 52/101/84 63/118/95 53/100/83
f 52/101/84 62/119/96 63/118/95
f 53/103/86 64/120/97 54/102/85
f 53/103/86 63/121/98 64/120/97
f 54/105/88 65/122/99 55/104/87
f 54/105/88 64/123/100 65/122/99
f 55/107/73 66/124/73 56/106/73
f 55/107/73 65/125/73 66/124/73
f 56/106/73 66/124/73 57/108/73
f 57/108/73 66/124/73 67/126/73
f 57/109/89 67/127/101 58/110/89
f 58/110/89 67/127/101 68/128/102
f 58/111/90 68/129/103 59/112/90
f 59/112/90 68/129/103 69/130/104
f 59/113/91 69/131/105 60/114/91
f 60/114/91 69/131/105 70/132/106
f 60/115/92 70/133/107 51/98/81
f 51/98/81 70/133/107 61/116/93
f 61/116/93 71/134/108 62/117/94
f 62/117/94 71/134/108 72/135/109
f 62/119/96 73/136/110 63/118/95
f 62/119/96 72/137/110 73/136/110
f 63/121/98 74/138/111 64/120/97
f 63/121/98 73/139/111 74/138/111
f 64/123/100 75/140/112 65/122/99
f 64/123/100 74/141/112 75/140/112
f 65/125/73 76/142/73 66/124/73
f 65/125/73 75/143/73 76/142/73
f 66/124/73 76/142/73 67/126/73
f 67/126/73 76/142/73 77/144/73
f 67/127/101 77/145/113 68/128/102
f 68/128/102 77/145/113 78/146/113
f 68/129/103 78/147/114 69/130/104
f 69/130/104 78/147/114 79/148/114
f 69/131/105 79/149/115 70/132/106
f 70/132/106 79/149/115 80/150/115
f 70/133/107 80/151/116 61/116/93
f 61/116/93 80/151/116 71/134/108
f 71/152/117 81/153/118 72/154/119
f 72/154/119 81/153/118 82/155/120
f 72/156/110 82/157/121 73/158/110
f 73/158/110 82/157/121 83/159/121
f 73/139/111 83/160/111 74/138/111
f 74/138/111 83/160/111 84/161/111
f 74/141/112 85/162/112 75/140/112
f 74/141/112 84/163/112 85/162/112
f 75/143/73 86/164/73 76/142/73
f 75/143/73 85/165/73 86/164/73
f 76/142/73 86/164/73 77/144/73
f 77/144/73 86/164/73 87/166/73
f 77/145/113 87/167/113 78/146/113
f 78/146/113 87/167/113 88/168/113
f 78/147/114 89/169/114 79/148/114
f 78/147/114 88/170/114 89/169/114
f 79/149/115 90/171/122 80/150/115
f 79/149/115 89/172/122 90/171/122
f 80/173/123 81/153/118 71/152/117
f 80/173/123 90/174/124 81/153/118
f 6/20/125 7/21/126 8/24/127
f 9/175/125 10/176/125 1/177/125
f 4/15/11 5/17/128 6/20/125
f 1/177/125 2/178/125 3/179/125
f 9/175/125 1/177/125 3/179/125
f 4/15/11 6/20/125 8/24/127
f 3/9/8 4/11/10 8/180/129
f 3/9/8 8/180/129 9/181/129
f 89/182/129 81/183/129 90/184/129
f 88/185/129 81/183/129 89/182/129
f 88/185/129 82/186/129 81/183/129
f 86/187/129 88/185/129 87/188/129
f 86/187/129 82/186/129 88/185/129
f 85/189/129 82/186/129 86/187/129
f 85/189/129 83/190/129 82/186/129
f 83/190/129 85/189/129 84/191/129
f 91/192/130 101/193/130 92/194/130
f 92/194/130 101/193/130 102/195/130
f 92/196/131 102/197/132 93/198/131
f 93/198/131 102/197/132 103/199/133
f 93/200/134 103/201/135 94/202/134
f 94/202/134 103/201/135 104/203/136
f 94/204/137 105/205/138 95/206/137
f 94/204/137 104/207/139 105/205/138
f 95/208/73 106/209/140 96/210/73
f 95/208/73 105/211/141 106/209/140
f 96/210/73 107/212/142 97/213/73
f 96/210/73 106/209/140 107/212/142
f 97/214/143 108/215/144 98/216/143
f 97/214/143 107/217/145 108/215/144
f 98/218/146 109/219/146 99/220/146
f 98/218/146 108/221/146 109/219/146
f 99/222/147 109/223/147 100/224/147
f 100/224/147 109/223/147 110/225/147
f 100/226/130 110/227/130 91/192/130
f 91/192/130 110/227/130 101/193/130
f 101/193/130 111/228/148 102/195/130
f 102/195/130 111/228/148 112/229/149
f 102/197/132 112/230/150 103/199/133
f 103/199/133 112/230/150 113/231/151
f 103/201/135 113/232/152 104/203/136
f 104/203/136 113/232/152 114/233/152
f 104/207/139 115/234/153 105/205/138
f 104/207/139 114/235/153 115/234/153
f 105/211/141 116/236/154 106/209/140
f 105/211/141 115/237/154 116/236/154
f 106/209/140 117/238/154 107/212/142
f 106/209/140 116/236/154 117/238/154
f 107/217/145 118/239/155 108/215/144
f 107/217/145 117/240/155 118/239/155
f 108/221/146 119/241/146 109/219/146
f 108/221/146 118/242/146 119/241/146
f 109/223/147 119/243/156 110/225/147
f 110/225/147 119/243/156 120/244/157
f 110/227/130 120/245/158 101/193/130
f 101/193/130 120/245/158 111/228/148
f 111/228/148 121/246/159 112/229/149
f 112/229/149 121/246/159 122/247/159
f 112/230/150 122/248/160 113/231/151
f 113/231/151 122/248/160 123/249/161
f 113/232/152 123/250/162 114/233/152
f 114/233/152 123/250/162 124/251/163
f 114/235/153 125/252/164 115/234/153
f 114/235/153 124/253/165 125/252/164
f 115/237/154 126/254/154 116/236/154
f 115/237/154 125/255/154 126/254/154
f 116/236/154 127/256/154 117/238/154
f 116/236/154 126/254/154 127/256/154
f 117/240/155 128/257/155 118/239/155
f 117/240/155 127/258/155 128/257/155
f 118/242/146 129/259/146 119/241/146
f 118/242/146 128/260/146 129/259/146
f 119/243/156 129/261/166 120/244/157
f 120/244/157 129/261/166 130/262/166
f 120/245/158 130/263/159 111/228/148
f 111/228/148 130/263/159 121/246/159
f 121/246/159 131/264/159 122/247/159
f 122/247/159 131/264/159 132/265/159
f 122/248/160 132/266/167 123/249/161
f 123/249/161 132/266/167 133/267/167
f 123/250/162 133/268/168 124/251/163
f 124/251/163 133/268/168 134/269/168
f 124/253/165 135/270/169 125/252/164
f 124/253/165 134/271/169 135/270/169
f 125/255/154 136/272/154 126/254/154
f 125/255/154 135/273/154 136/272/154
f 126/254/154 137/274/154 127/256/154
f 126/254/154 136/272/154 137/274/154
f 127/258/155 138/275/170 128/257/155
f 127/258/155 137/276/171 138/275/170
f 128/260/146 139/277/172 129/259/146
f 128/260/146 138/278/173 139/277/172
f 129/261/166 139/279/174 130/262/166
f 130/262/166 139/279/174 140/280/175
f 130/263/159 140/281/159 121/246/159
f 121/246/159 140/281/159 131/264/159
f 131/264/159 141/282/159 132/265/159
f 132/265/159 141/282/159 142/283/159
f 132/266/167 142/284/176 133/267/167
f 133/267/167 142/284/176 143/285/177
f 133/268/168 143/286/178 134/269/168
f 134/269/168 143/286/178 144/287/179
f 134/271/169 145/288/180 135/270/169
f 134/271/169 144/289/181 145/288/180
f 135/273/154 146/290/154 136/272/154
f 135/273/154 145/291/154 146/290/154
f 136/272/154 147/292/154 137/274/154
f 136/272/154 146/290/154 147/292/154
f 137/276/171 148/293/182 138/275/170
f 137/276/171 147/294/182 148/293/182
f 138/278/173 149/295/183 139/277/172
f 138/278/173 148/296/183 149/295/183
f 139/279/174 149/297/184 140/280/175
f 140/280/175 149/297/184 150/298/184
f 140/281/159 150/299/159 131/264/159
f 131/264/159 150/299/159 141/282/159
f 141/282/159 151/300/159 142/283/159
f 142/283/159 151/300/159 152/301/159
f 142/284/176 152/302/185 143/285/177
f 143/285/177 152/302/185 153/303/185
f 143/286/178 153/304/186 144/287/179
f 144/287/179 153/304/186 154/305/186
f 144/289/181 155/306/187 145/288/180
f 144/289/181 154/307/187 155/306/187
f 145/291/154 156/308/154 146/290/154
f 145/291/154 155/309/154 156/308/154
f 146/290/154 157/310/154 147/292/154
f 146/290/154 156/308/154 157/310/154
f 147/294/182 158/311/188 148/293/182
f 147/294/182 157/312/188 158/311/188
f 148/296/183 159/313/183 149/295/183
f 148/296/183 158/314/183 159/313/183
f 149/297/184 159/315/184 150/298/184
f 150/298/184 159/315/184 160/316/184
f 150/299/159 160/317/159 141/282/159
f 141/282/159 160/317/159 151/300/159
f 151/300/159 161/318/159 152/301/159
f 152/301/159 161/318/159 162/319/159
f 152/302/185 162/320/185 153/303/185
f 153/303/185 162/320/185 163/321/185
f 153/304/186 164/322/186 154/305/186
f 153/304/186 163/323/186 164/322/186
f 154/324/189 165/325/189 155/326/189
f 154/324/189 164/327/189 165/325/189
f 155/328/190 166/329/190 156/330/190
f 155/328/190 165/331/190 166/329/190
f 156/330/190 167/332/191 157/333/192
f 156/330/190 166/329/190 167/332/191
f 157/333/193 167/332/191 158/334/188
f 158/334/188 167/332/191 168/335/194
f 158/314/183 168/336/195 159/313/183
f 159/313/183 168/336/195 169/337/196
f 159/315/184 169/338/197 160/316/184
f 160/316/184 169/338/197 170/339/197
f 160/317/159 170/340/159 151/300/159
f 151/300/159 170/340/159 161/318/159
f 161/318/159 171/341/159 162/319/159
f 162/319/159 171/341/159 172/342/159
f 162/320/185 172/343/198 163/321/185
f 163/321/185 172/343/198 173/344/199
f 163/323/186 174/345/186 164/322/186
f 163/323/186 173/346/186 174/345/186
f 164/327/189 175/347/189 165/325/189
f 164/327/189 174/348/189 175/347/189
f 165/331/190 176/349/190 166/329/190
f 165/331/190 175/350/190 176/349/190
f 166/329/190 177/351/200 167/332/191
f 166/329/190 176/349/190 177/351/200
f 167/332/191 177/351/200 168/335/194
f 168/335/194 177/351/200 178/352/201
f 168/336/195 178/353/202 169/337/196
f 169/337/196 178/353/202 179/354/202
f 169/338/197 180/355/203 170/339/197
f 169/338/197 179/356/204 180/355/203
f 170/340/159 180/357/159 161/318/159
f 161/318/159 180/357/159 171/341/159
f 171/341/159 181/358/205 172/342/159
f 172/342/159 181/358/205 182/359/206
f 172/343/198 182/360/207 173/344/199
f 173/344/199 182/360/207 183/361/208
f 173/346/186 184/362/186 174/345/186
f 173/346/186 183/363/186 184/362/186
f 174/348/189 185/364/209 175/347/189
f 174/348/189 184/365/210 185/364/209
f 175/350/190 186/366/211 176/349/190
f 175/350/190 185/367/212 186/366/211
f 176/349/190 187/368/213 177/351/200
f 176/349/190 186/366/211 187/368/213
f 177/351/200 187/368/214 178/352/201
f 178/352/201 187/368/214 188/369/215
f 178/353/202 188/370/216 179/354/202
f 179/354/202 188/370/216 189/371/217
f 179/356/204 190/372/218 180/355/203
f 179/356/204 189/373/219 190/372/218
f 180/357/159 190/374/220 171/341/159
f 171/341/159 190/374/220 181/358/205
f 181/358/205 191/375/221 182/359/206
f 182/359/206 191/375/221 192/376/221
f 182/360/207 192/377/222 183/361/208
f 183/361/208 192/377/222 193/378/222
f 183/363/186 194/379/186 184/362/186
f 183/363/186 193/380/186 194/379/186
f 184/365/210 195/381/223 185/364/209
f 184/365/210 194/382/223 195/381/223
f 185/367/212 196/383/224 186/366/211
f 185/367/212 195/384/224 196/383/224
f 186/366/211 196/383/224 187/368/213
f 187/368/213 196/383/224 197/385/224
f 187/386/225 197/387/226 188/388/215
f 188/388/215 197/387/226 198/389/226
f 188/370/216 198/390/227 189/371/217
f 189/371/217 198/390/227 199/391/227
f 189/373/219 200/392/228 190/372/218
f 189/373/219 199/393/228 200/392/228
f 190/374/220 191/375/221 181/358/205
f 190/374/220 200/394/221 191/375/221
f 99/395/125 100/396/125 91/397/125
f 98/398/125 99/395/125 91/397/125
f 98/398/125 91/397/125 92/399/125
f 94/400/125 95/401/125 96/402/125
f 93/403/125 94/400/125 96/402/125
f 93/403/125 96/402/125 97/404/125
f 98/398/125 92/399/125 93/403/125
f 93/403/125 97/404/125 98/398/125
f 191/405/129 193/406/129 192/407/129
f 196/408/129 198/409/129 197/410/129
f 194/411/129 196/408/129 195/412/129
f 199/413/129 191/405/129 200/414/129
f 199/413/129 193/406/129 191/405/129
f 194/411/129 198/409/129 196/408/129
f 199/413/129 194/411/129 193/406/129
f 194/411/129 199/413/129 198/409/129
f 201/415/130 212/416/130 202/417/130
f 201/415/130 211/418/130 212/416/130
f 202/419/229 213/420/229 203/421/229
f 202/419/229 212/422/229 213/420/229
f 203/423/230 213/424/230 204/425/230
f 204/425/230 213/424/230 214/426/230
f 204/427/231 214/428/232 205/429/231
f 205/429/231 214/428/232 215/430/233
f 205/431/73 215/432/234 206/433/73
f 206/433/73 215/432/234 216/434/235
f 206/433/73 216/434/235 207/435/73
f 207/435/73 216/434/235 217/436/236
f 207/437/237 217/438/238 208/439/237
f 208/439/237 217/438/238 218/440/239
f 208/441/240 219/442/241 209/443/240
f 208/441/240 218/444/242 219/442/241
f 209/445/243 220/446/244 210/447/243
f 209/445/243 219/448/245 220/446/244
f 210/449/130 211/418/130 201/415/130
f 210/449/130 220/450/130 211/418/130
f 211/418/130 222/451/246 212/416/130
f 211/418/130 221/452/247 222/451/246
f 212/422/229 223/453/248 213/420/229
f 212/422/229 222/454/249 223/453/248
f 213/424/230 223/455/230 214/426/230
f 214/426/230 223/455/230 224/456/230
f 214/428/232 224/457/250 215/430/233
f 215/430/233 224/457/250 225/458/250
f 215/432/234 225/459/154 216/434/235
f 216/434/235 225/459/154 226/460/154
f 216/434/235 226/460/154 217/436/236
f 217/436/236 226/460/154 227/461/154
f 217/438/238 227/462/251 218/440/239
f 218/440/239 227/462/251 228/463/251
f 218/444/242 229/464/252 219/442/241
f 218/444/242 228/465/252 229/464/252
f 219/448/245 230/466/253 220/446/244
f 219/448/245 229/467/254 230/466/253
f 220/450/130 221/452/247 211/418/130
f 220/450/130 230/468/255 221/452/247
f 221/452/247 232/469/159 222/451/246
f 221/452/247 231/470/159 232/469/159
f 222/454/249 233/471/256 223/453/248
f 222/454/249 232/472/256 233/471/256
f 223/455/230 233/473/257 224/456/230
f 224/456/230 233/473/257 234/474/258
f 224/457/250 234/475/259 225/458/250
f 225/458/250 234/475/259 235/476/260
f 225/459/154 235/477/154 226/460/154
f 226/460/154 235/477/154 236/478/154
f 226/460/154 236/478/154 227/461/154
f 227/461/154 236/478/154 237/479/154
f 227/462/251 237/480/251 228/463/251
f 228/463/251 237/480/251 238/481/251
f 228/465/252 239/482/252 229/464/252
f 228/465/252 238/483/252 239/482/252
f 229/467/254 240/484/261 230/466/253
f 229/467/254 239/485/261 240/484/261
f 230/468/255 231/470/159 221/452/247
f 230/468/255 240/486/159 231/470/159
f 231/470/159 242/487/159 232/469/159
f 231/470/159 241/488/159 242/487/159
f 232/472/256 242/489/262 233/471/256
f 233/471/256 242/489/262 243/490/262
f 233/473/257 243/491/263 234/474/258
f 234/474/258 243/491/263 244/492/263
f 234/475/259 244/493/264 235/476/260
f 235/476/260 244/493/264 245/494/264
f 235/477/154 245/495/154 236/478/154
f 236/478/154 245/495/154 246/496/154
f 236/478/154 246/496/154 237/479/154
f 237/479/154 246/496/154 247/497/154
f 237/480/251 247/498/265 238/481/251
f 238/481/251 247/498/265 248/499/265
f 238/483/252 249/500/266 239/482/252
f 238/483/252 248/501/267 249/500/266
f 239/485/261 250/502/268 240/484/261
f 239/485/261 249/503/269 250/502/268
f 240/486/159 241/488/159 231/470/159
f 240/486/159 250/504/159 241/488/159
f 241/488/159 252/505/159 242/487/159
f 241/488/159 251/506/159 252/505/159
f 242/489/262 252/507/262 243/490/262
f 243/490/262 252/507/262 253/508/262
f 243/491/263 253/509/263 244/492/263
f 244/492/263 253/509/263 254/510/263
f 244/493/264 254/511/270 245/494/264
f 245/494/264 254/511/270 255/512/270
f 245/495/154 255/513/154 246/496/154
f 246/496/154 255/513/154 256/514/154
f 246/496/154 256/514/154 247/497/154
f 247/497/154 256/514/154 257/515/154
f 247/498/265 258/516/271 248/499/265
f 247/498/265 257/517/271 258/516/271
f 248/501/267 259/518/272 249/500/266
f 248/501/267 258/519/272 259/518/272
f 249/503/269 260/520/273 250/502/268
f 249/503/269 259/521/273 260/520/273
f 250/504/159 251/506/159 241/488/159
f 250/504/159 260/522/159 251/506/159
f 251/506/159 262/523/159 252/505/159
f 251/506/159 261/524/159 262/523/159
f 252/507/262 262/525/262 253/508/262
f 253/508/262 262/525/262 263/526/262
f 253/509/263 264/527/263 254/510/263
f 253/509/263 263/528/263 264/527/263
f 254/529/270 265/530/274 255/531/275
f 254/529/270 264/532/276 265/530/274
f 255/531/277 265/530/274 256/533/190
f 256/533/190 265/530/274 266/534/190
f 256/533/190 266/534/190 257/535/190
f 257/535/190 266/534/190 267/536/190
f 257/537/278 267/538/279 258/539/278
f 258/539/278 267/538/279 268/540/280
f 258/519/272 268/541/281 259/518/272
f 259/518/272 268/541/281 269/542/282
f 259/521/273 270/543/283 260/520/273
f 259/521/273 269/544/284 270/543/283
f 260/522/159 261/524/159 251/506/159
f 260/522/159 270/545/159 261/524/159
f 261/524/159 272/546/159 262/523/159
f 261/524/159 271/547/159 272/546/159
f 262/525/262 272/548/285 263/526/262
f 263/526/262 272/548/285 273/549/286
f 263/528/263 274/550/287 264/527/263
f 263/528/263 273/551/288 274/550/287
f 264/532/276 275/552/289 265/530/274
f 264/532/276 274/553/290 275/552/289
f 265/530/274 275/552/289 266/534/190
f 266/534/190 275/552/289 276/554/190
f 266/534/190 277/555/190 267/536/190
f 266/534/190 276/554/190 277/555/190
f 267/538/279 277/556/291 268/540/280
f 268/540/280 277/556/291 278/557/291
f 268/541/281 278/558/292 269/542/282
f 269/542/282 278/558/292 279/559/292
f 269/544/284 280/560/293 270/543/283
f 269/544/284 279/561/293 280/560/293
f 270/545/159 280/562/159 261/524/159
f 261/524/159 280/562/159 271/547/159
f 271/547/159 282/563/159 272/546/159
f 271/547/159 281/564/159 282/563/159
f 272/548/285 282/565/294 273/549/286
f 273/549/286 282/565/294 283/566/294
f 273/551/288 284/567/295 274/550/287
f 273/551/288 283/568/296 284/567/295
f 274/553/290 285/569/297 275/552/289
f 274/553/290 284/570/298 285/569/297
f 275/552/289 285/569/297 276/554/190
f 276/554/190 285/569/297 286/571/190
f 276/554/190 287/572/190 277/555/190
f 276/554/190 286/571/190 287/572/190
f 277/556/291 287/573/291 278/557/291
f 278/557/291 287/573/291 288/574/291
f 278/558/292 288/575/292 279/559/292
f 279/559/292 288/575/292 289/576/292
f 279/561/293 290/577/293 280/560/293
f 279/561/293 289/578/293 290/577/293
f 280/562/159 290/579/159 271/547/159
f 271/547/159 290/579/159 281/564/159
f 281/564/159 292/580/299 282/563/159
f 281/564/159 291/581/300 292/580/299
f 282/565/294 293/582/301 283/566/294
f 282/565/294 292/583/302 293/582/301
f 283/568/296 294/584/303 284/567/295
f 283/568/296 293/585/304 294/584/303
f 284/570/298 295/586/305 285/569/297
f 284/570/298 294/587/306 295/586/305
f 285/569/297 295/586/307 286/571/190
f 286/571/190 295/586/307 296/588/308
f 286/571/190 296/588/308 287/572/190
f 287/572/190 296/588/308 297/589/224
f 287/573/291 297/590/309 288/574/291
f 288/574/291 297/590/309 298/591/310
f 288/575/292 298/592/311 289/576/292
f 289/576/292 298/592/311 299/593/312
f 289/578/293 300/594/313 290/577/293
f 289/578/293 299/595/314 300/594/313
f 290/579/159 291/581/300 281/564/159
f 290/579/159 300/596/315 291/581/300
f 291/581/300 302/597/316 292/580/299
f 291/581/300 301/598/316 302/597/316
f 292/583/302 303/599/317 293/582/301
f 292/583/302 302/600/317 303/599/317
f 293/585/304 304/601/318 294/584/303
f 293/585/304 303/602/318 304/601/318
f 294/587/306 305/603/319 295/586/320
f 294/587/306 304/604/319 305/603/319
f 295/586/307 305/603/321 296/588/308
f 296/588/308 305/603/321 306/605/321
f 296/588/308 307/606/321 297/589/224
f 296/588/308 306/605/321 307/606/321
f 297/590/309 307/607/322 298/591/310
f 298/591/310 307/607/322 308/608/322
f 298/592/311 308/609/323 299/593/312
f 299/593/312 308/609/323 309/610/323
f 299/595/314 309/611/324 300/594/313
f 300/594/313 309/611/324 310/612/324
f 300/596/315 301/598/316 291/581/300
f 300/596/315 310/613/316 301/598/316
f 209/614/125 210/615/125 201/616/125
f 208/617/125 209/614/125 201/616/125
f 208/617/125 201/616/125 202/618/125
f 204/398/125 205/619/125 206/620/125
f 203/395/125 204/398/125 206/620/125
f 203/395/125 206/620/125 207/621/125
f 208/617/125 202/618/125 203/395/125
f 203/395/125 207/621/125 208/617/125
f 302/622/129 304/623/129 303/624/129
f 302/622/129 305/625/129 304/623/129
f 307/626/129 309/627/129 308/628/129
f 307/626/129 310/629/129 309/627/129
f 301/630/129 305/625/129 302/622/129
f 301/630/129 306/631/129 305/625/129
f 310/629/129 306/631/129 301/630/129
f 306/631/129 310/629/129 307/626/129
f 311/632/325 322/633/325 312/634/325
f 311/632/325 321/635/325 322/633/325
f 312/636/326 323/637/326 313/638/326
f 312/636/326 322/639/326 323/637/326
f 313/640/327 324/641/327 314/642/327
f 313/643/328 323/644/328 324/645/328
f 314/646/329 324/647/330 315/648/329
f 315/648/329 324/647/330 325/649/331
f 315/650/332 325/651/333 316/652/334
f 316/652/334 325/651/333 326/653/335
f 316/652/334 327/654/336 317/655/337
f 316/652/334 326/653/335 327/654/336
f 317/656/338 328/657/339 318/658/338
f 317/656/338 327/659/340 328/657/339
f 318/660/341 328/661/341 319/662/341
f 319/663/342 328/664/342 329/665/342
f 319/666/343 329/667/343 320/668/343
f 320/668/343 329/667/343 330/669/343
f 320/670/325 330/671/325 311/632/325
f 311/632/325 330/671/325 321/635/325
f 321/672/344 331/673/344 322/674/345
f 322/674/345 331/673/344 332/675/346
f 322/674/345 333/676/347 323/677/347
f 322/674/345 332/675/346 333/676/347
f 323/644/328 334/678/328 324/645/328
f 323/644/328 333/679/328 334/678/328
f 324/647/330 334/680/348 325/649/349
f 325/649/349 334/680/348 335/681/350
f 325/651/351 335/682/350 326/653/335
f 326/653/352 335/682/350 336/683/353
f 326/653/335 337/684/354 327/654/355
f 326/653/356 336/683/357 337/684/354
f 327/659/358 338/685/359 328/657/339
f 327/659/358 337/686/354 338/685/359
f 328/664/342 338/687/342 329/665/342
f 329/665/342 338/687/342 339/688/342
f 329/689/360 339/690/360 330/691/361
f 330/691/361 339/690/360 340/692/362
f 330/691/361 331/673/344 321/672/344
f 330/691/361 340/692/362 331/673/344
f 331/693/363 341/694/363 332/695/363
f 332/695/363 341/694/363 342/696/363
f 332/697/364 342/698/364 333/699/364
f 333/699/364 342/698/364 343/700/364
f 333/679/328 343/701/328 334/678/328
f 334/678/328 343/701/328 344/702/328
f 334/680/348 344/703/365 335/681/350
f 335/681/350 344/703/365 345/704/366
f 335/682/350 345/705/366 336/683/353
f 336/683/353 345/705/366 346/706/367
f 336/683/357 347/707/368 337/684/354
f 336/683/357 346/706/369 347/707/368
f 337/686/354 348/708/370 338/685/359
f 337/686/354 347/709/368 348/708/370
f 338/687/342 349/710/342 339/688/342
f 338/687/342 348/711/342 349/710/342
f 339/712/371 350/713/371 340/714/371
f 339/712/371 349/715/371 350/713/371
f 340/716/363 341/694/363 331/693/363
f 340/716/363 350/717/363 341/694/363
f 341/694/363 351/718/363 342/696/363
f 342/696/363 351/718/363 352/719/363
f 342/698/364 352/720/364 343/700/364
f 343/700/364 352/720/364 353/721/364
f 343/701/328 354/722/328 344/702/328
f 343/701/328 353/723/328 354/722/328
f 344/724/372 355/725/373 345/726/374
f 344/724/372 354/727/372 355/725/373
f 345/728/374 356/729/375 346/730/376
f 345/728/374 355/731/373 356/729/375
f 346/732/377 356/733/378 347/734/379
f 347/734/379 356/733/378 357/735/380
f 347/736/379 357/737/380 348/738/381
f 348/738/381 357/737/380 358/739/381
f 348/711/342 358/740/342 349/710/342
f 349/710/342 358/740/342 359/741/342
f 349/715/371 360/742/371 350/713/371
f 349/715/371 359/743/371 360/742/371
f 350/717/363 351/718/363 341/694/363
f 350/717/363 360/744/363 351/718/363
f 351/745/382 361/746/383 352/747/384
f 352/747/384 361/746/383 362/748/385
f 352/747/384 362/748/385 353/749/386
f 353/749/386 362/748/385 363/750/387
f 353/723/328 363/751/328 354/722/328
f 354/722/328 363/751/328 364/752/328
f 354/727/372 365/753/388 355/725/373
f 354/727/372 364/754/372 365/753/388
f 355/731/373 366/755/389 356/729/375
f 355/731/373 365/756/390 366/755/389
f 356/733/378 366/757/391 357/735/380
f 357/735/380 366/757/391 367/758/392
f 357/737/380 367/759/393 358/739/381
f 358/739/381 367/759/393 368/760/381
f 358/740/342 369/761/342 359/741/342
f 358/740/342 368/762/342 369/761/342
f 359/763/394 370/764/395 360/765/396
f 359/763/394 369/766/397 370/764/395
f 360/765/396 361/746/383 351/745/382
f 360/765/396 370/764/395 361/746/383
f 361/746/383 371/767/398 362/748/385
f 362/748/385 371/767/398 372/768/399
f 362/748/385 372/768/400 363/750/387
f 363/750/387 372/768/400 373/769/401
f 363/751/328 373/770/328 364/752/328
f 364/771/327 373/772/327 374/773/327
f 364/774/402 374/775/402 365/776/402
f 365/776/402 374/775/402 375/777/402
f 365/756/390 376/778/403 366/755/389
f 365/756/404 375/779/405 376/778/406
f 366/757/391 376/780/407 367/758/392
f 367/758/408 376/780/406 377/781/409
f 367/782/410 378/783/410 368/784/410
f 367/782/410 377/785/410 378/783/410
f 368/762/342 379/786/342 369/761/342
f 368/787/341 378/788/341 379/789/341
f 369/766/397 380/790/411 370/764/395
f 369/766/397 379/791/412 380/790/411
f 370/764/395 371/767/398 361/746/383
f 370/764/395 380/790/413 371/767/398
f 311/792/125 312/793/125 313/794/125
f 319/795/125 320/796/125 311/792/125
f 314/797/125 315/798/125 316/799/125
f 316/799/125 317/800/125 318/801/125
f 314/797/125 316/799/125 318/801/125
f 319/795/125 311/792/125 313/794/125
f 313/802/129 314/803/129 318/804/129
f 313/802/129 318/804/129 319/805/129
f 371/767/398 373/769/129 372/768/414
f 379/791/129 371/767/398 380/790/414
f 374/806/129 376/807/129 375/808/129
f 376/807/129 378/809/129 377/810/129
f 374/806/129 378/809/129 376/807/129
f 379/791/129 373/769/129 371/767/398
f 373/811/125 378/812/125 374/813/125
f 373/811/125 379/814/125 378/812/125
