# mech2 torso - segment abdomen, colour grey #8A8A8A
# units: studs, +Y up, -Z forward, origin = hip-joint line centre
o abdomen_grey
v -1.19136 5.26320 -0.96288
v 1.19136 5.26320 -0.96288
v 1.53408 5.26320 -0.62016
v 1.53408 5.26320 0.62016
v 1.19136 5.26320 0.96288
v -1.19136 5.26320 0.96288
v -1.53408 5.26320 0.62016
v -1.53408 5.26320 -0.62016
v -1.25664 5.36112 -1.06080
v 1.25664 5.36112 -1.06080
v 1.63200 5.36112 -0.68544
v 1.63200 5.36112 0.68544
v 1.25664 5.36112 1.06080
v -1.25664 5.36112 1.06080
v -1.63200 5.36112 0.68544
v -1.63200 5.36112 -0.68544
v -1.02816 6.06288 -1.06080
v 1.02816 6.06288 -1.06080
v 1.40352 6.06288 -0.68544
v 1.40352 6.06288 0.68544
v 1.02816 6.06288 1.06080
v -1.02816 6.06288 1.06080
v -1.40352 6.06288 0.68544
v -1.40352 6.06288 -0.68544
v -0.96288 6.16080 -0.96288
v 0.96288 6.16080 -0.96288
v 1.30560 6.16080 -0.62016
v 1.30560 6.16080 0.62016
v 0.96288 6.16080 0.96288
v -0.96288 6.16080 0.96288
v -1.30560 6.16080 0.62016
v -1.30560 6.16080 -0.62016
v -0.94656 6.24240 -0.89760
v 0.94656 6.24240 -0.89760
v 1.28928 6.24240 -0.55488
v 1.28928 6.24240 0.55488
v 0.94656 6.24240 0.89760
v -0.94656 6.24240 0.89760
v -1.28928 6.24240 0.55488
v -1.28928 6.24240 -0.55488
v -1.01184 6.34032 -0.99552
v 1.01184 6.34032 -0.99552
v 1.38720 6.34032 -0.62016
v 1.38720 6.34032 0.62016
v 1.01184 6.34032 0.99552
v -1.01184 6.34032 0.99552
v -1.38720 6.34032 0.62016
v -1.38720 6.34032 -0.62016
v -1.01184 6.55248 -0.99552
v 1.01184 6.55248 -0.99552
v 1.38720 6.55248 -0.62016
v 1.38720 6.55248 0.62016
v 1.01184 6.55248 0.99552
v -1.01184 6.55248 0.99552
v -1.38720 6.55248 0.62016
v -1.38720 6.55248 -0.62016
v -0.94656 6.65040 -0.89760
v 0.94656 6.65040 -0.89760
v 1.28928 6.65040 -0.55488
v 1.28928 6.65040 0.55488
v 0.94656 6.65040 0.89760
v -0.94656 6.65040 0.89760
v -1.28928 6.65040 0.55488
v -1.28928 6.65040 -0.55488
v -0.96288 6.73200 -0.89760
v 0.96288 6.73200 -0.89760
v 1.30560 6.73200 -0.55488
v 1.30560 6.73200 0.57936
v 0.96288 6.73200 0.92208
v -0.96288 6.73200 0.92208
v -1.30560 6.73200 0.57936
v -1.30560 6.73200 -0.55488
v -1.02816 6.82992 -0.99552
v 1.02816 6.82992 -0.99552
v 1.40352 6.82992 -0.62016
v 1.40352 6.82992 0.64464
v 1.02816 6.82992 1.02000
v -1.02816 6.82992 1.02000
v -1.40352 6.82992 0.64464
v -1.40352 6.82992 -0.62016
v -1.13424 7.20528 -0.99552
v 1.13424 7.20528 -0.99552
v 1.50960 7.20528 -0.62016
v 1.50960 7.20528 0.64464
v 1.13424 7.20528 1.02000
v -1.13424 7.20528 1.02000
v -1.50960 7.20528 0.64464
v -1.50960 7.20528 -0.62016
v -1.06896 7.30320 -0.89760
v 1.06896 7.30320 -0.89760
v 1.41168 7.30320 -0.55488
v 1.41168 7.30320 0.57936
v 1.06896 7.30320 0.92208
v -1.06896 7.30320 0.92208
v -1.41168 7.30320 0.57936
v -1.41168 7.30320 -0.55488
v 0.00000 5.30400 -1.32192
v 1.63200 5.30400 -1.12608
v 1.63200 5.62069 -1.12608
v 1.36545 6.72497 -1.15807
v 0.69278 6.65416 -1.23879
v 0.00000 5.87478 -1.32192
v 0.00000 5.22240 -1.24032
v 1.71360 5.22240 -1.03469
v 1.71360 5.63040 -1.03469
v 1.42800 6.81360 -1.06896
v 0.65280 6.73200 -1.16198
v 0.00000 5.99760 -1.24032
v 0.00000 5.22240 -0.78336
v 1.71360 5.22240 -0.57773
v 1.71360 5.63040 -0.57773
v 1.42800 6.81360 -0.61200
v 0.65280 6.73200 -0.70502
v 0.00000 5.99760 -0.78336
v 0.00000 5.25504 -0.75072
v 1.68096 5.25504 -0.54900
v 1.68096 5.62652 -0.54900
v 1.40298 6.77815 -0.58236
v 0.66879 6.70086 -0.67046
v 0.00000 5.94847 -0.75072
v -0.00000 5.30400 -1.32192
v -1.63200 5.30400 -1.12608
v -1.63200 5.62069 -1.12608
v -1.36545 6.72497 -1.15807
v -0.69278 6.65416 -1.23879
v -0.00000 5.87478 -1.32192
v -0.00000 5.22240 -1.24032
v -1.71360 5.22240 -1.03469
v -1.71360 5.63040 -1.03469
v -1.42800 6.81360 -1.06896
v -0.65280 6.73200 -1.16198
v -0.00000 5.99760 -1.24032
v -0.00000 5.22240 -0.78336
v -1.71360 5.22240 -0.57773
v -1.71360 5.63040 -0.57773
v -1.42800 6.81360 -0.61200
v -0.65280 6.73200 -0.70502
v -0.00000 5.99760 -0.78336
v -0.00000 5.25504 -0.75072
v -1.68096 5.25504 -0.54900
v -1.68096 5.62652 -0.54900
v -1.40298 6.77815 -0.58236
v -0.66879 6.70086 -0.67046
v -0.00000 5.94847 -0.75072
vt 0.29784 -1.10063
vt -0.31416 -1.13525
vt -0.29784 -1.10063
vt 0.31416 -1.13525
vt -0.72437 0.88339
vt -0.74272 0.91698
vt -0.82072 0.80992
vt -0.84825 0.83651
vt 0.15504 -1.20160
vt -0.17136 -1.23622
vt -0.15504 -1.20160
vt 0.17136 -1.23622
vt -0.82072 -0.80992
vt -0.74272 -0.91698
vt -0.72437 -0.88339
vt -0.84825 -0.83651
vt 0.72437 -0.88339
vt 0.74272 -0.91698
vt 0.82072 -0.80992
vt 0.84825 -0.83651
vt 0.82072 0.80992
vt 0.74272 0.91698
vt 0.72437 0.88339
vt 0.84825 0.83651
vt 0.31416 -1.34028
vt -0.25704 -1.51572
vt -0.31416 -1.34028
vt 0.25704 -1.51572
vt -0.29958 -1.17717
vt -0.42907 -1.33263
vt -0.42907 -1.14812
vt -0.29958 -1.36168
vt 0.17136 -1.08934
vt -0.17136 -1.27340
vt -0.17136 -1.08934
vt 0.17136 -1.27340
vt 0.42907 -1.14812
vt 0.42907 -1.33263
vt 0.29958 -1.17717
vt 0.29958 -1.36168
vt 0.25704 -0.88425
vt -0.24072 -0.91887
vt -0.25704 -0.88425
vt 0.24072 -0.91887
vt 0.42848 0.55242
vt 0.35047 0.65948
vt 0.32294 0.63289
vt 0.44683 0.58601
vt -0.15504 -1.30527
vt 0.15504 -1.30527
vt 0.32294 -0.63289
vt 0.44683 -0.58601
vt 0.42848 -0.55242
vt 0.35047 -0.65948
vt -0.42848 -0.55242
vt -0.35047 -0.65948
vt -0.32294 -0.63289
vt -0.44683 -0.58601
vt -0.32294 0.63289
vt -0.44683 0.58601
vt -0.42848 0.55242
vt -0.35047 0.65948
vt -0.29784 0.24072
vt -0.38352 0.15504
vt -0.38352 -0.15504
vt 0.29784 0.24072
vt 0.29784 -0.24072
vt 0.38352 -0.15504
vt 0.38352 0.15504
vt -0.29784 -0.24072
vt -0.32640 -0.15504
vt -0.24072 0.24072
vt -0.32640 0.15504
vt 0.24072 0.24072
vt -0.24072 -0.24072
vt 0.24072 -0.24072
vt 0.32640 -0.15504
vt 0.32640 0.15504
vt 0.23664 -1.26219
vt -0.25296 -1.29681
vt -0.23664 -1.26219
vt 0.25296 -1.29681
vt -0.76983 0.99534
vt -0.89371 0.94846
vt -0.86618 0.92187
vt -0.78818 1.02893
vt 0.13872 -1.33143
vt -0.15504 -1.36605
vt -0.13872 -1.33143
vt 0.15504 -1.36605
vt -0.86618 -0.92187
vt -0.78818 -1.02893
vt -0.76983 -0.99534
vt -0.89371 -0.94846
vt 0.76983 -0.99534
vt 0.89371 -0.94846
vt 0.86618 -0.92187
vt 0.78818 -1.02893
vt 0.86618 0.92187
vt 0.78818 1.02893
vt 0.76983 0.99534
vt 0.89371 0.94846
vt 0.25296 -1.58508
vt -0.25296 -1.63812
vt -0.25296 -1.58508
vt 0.25296 -1.63812
vt -0.00288 -1.58508
vt -0.13559 -1.63812
vt -0.13559 -1.58508
vt -0.00288 -1.63812
vt 0.15504 -1.58508
vt -0.15504 -1.63812
vt -0.15504 -1.58508
vt 0.15504 -1.63812
vt 0.13559 -1.58508
vt 0.00288 -1.63812
vt 0.00288 -1.58508
vt 0.13559 -1.63812
vt 0.25296 0.98234
vt -0.23664 1.01696
vt -0.25296 0.98234
vt 0.23664 1.01696
vt 0.47628 0.62939
vt 0.39828 0.73645
vt 0.37075 0.70986
vt 0.49463 0.66298
vt 0.91310 -0.15504
vt 0.94772 0.13872
vt 0.91310 0.15504
vt 0.94772 -0.13872
vt 0.37075 -0.70986
vt 0.49463 -0.66298
vt 0.47628 -0.62939
vt 0.39828 -0.73645
vt -0.25296 -0.98234
vt 0.23664 -1.01696
vt 0.25296 -0.98234
vt -0.23664 -1.01696
vt -0.47628 -0.62939
vt -0.39828 -0.73645
vt -0.37075 -0.70986
vt -0.49463 -0.66298
vt -0.91310 0.15504
vt -0.94772 -0.13872
vt -0.91310 -0.15504
vt -0.94772 0.13872
vt -0.37075 0.70986
vt -0.49463 0.66298
vt -0.47628 0.62939
vt -0.39828 0.73645
vt -0.23664 0.22440
vt -0.32232 0.13872
vt -0.32232 -0.13872
vt 0.23664 0.22440
vt -0.23664 -0.22440
vt 0.23664 -0.22440
vt 0.32232 0.13872
vt 0.32232 -0.13872
vt 0.24072 1.34874
vt -0.25704 1.38336
vt -0.24072 1.34874
vt 0.25704 1.38336
vt -0.82147 1.05832
vt -0.94536 1.01144
vt -0.91783 0.98485
vt -0.83983 1.09190
vt 0.13872 -1.67662
vt 0.15504 -1.70872
vt -0.14484 -1.67662
vt -0.16116 -1.70872
vt -0.91639 -0.99010
vt -0.94392 -1.01668
vt -0.82003 -1.06357
vt -0.83838 -1.09715
vt -0.24072 -1.35306
vt 0.25704 -1.38768
vt 0.24072 -1.35306
vt -0.25704 -1.38768
vt 0.82003 -1.06357
vt 0.94392 -1.01668
vt 0.91639 -0.99010
vt 0.83838 -1.09715
vt 0.14484 -1.67662
vt -0.15504 -1.70872
vt -0.13872 -1.67662
vt 0.16116 -1.70872
vt 0.91783 0.98485
vt 0.83983 1.09190
vt 0.82147 1.05832
vt 0.94536 1.01144
vt 0.25704 -1.70748
vt -0.28356 -1.80132
vt -0.25704 -1.70748
vt 0.28356 -1.80132
vt 0.32981 -1.71303
vt 0.32981 -1.81054
vt 0.19957 -1.73855
vt 0.19957 -1.83606
vt -0.16116 -1.80546
vt 0.15504 -1.80546
vt -0.20398 -1.73855
vt -0.33422 -1.81054
vt -0.33422 -1.71303
vt -0.20398 -1.83606
vt 0.33422 -1.71303
vt 0.33422 -1.81054
vt 0.20398 -1.73855
vt 0.20398 -1.83606
vt -0.15504 -1.80546
vt 0.16116 -1.80546
vt -0.19957 -1.73855
vt -0.32981 -1.81054
vt -0.32981 -1.71303
vt -0.19957 -1.83606
vt 0.28356 1.09774
vt -0.26724 1.13236
vt -0.28356 1.09774
vt 0.26724 1.13236
vt 0.51309 0.71336
vt 0.43509 0.82041
vt 0.40756 0.79383
vt 0.53145 0.74694
vt 1.00686 -0.15504
vt 1.04148 0.14484
vt 1.00686 0.16116
vt 1.04148 -0.13872
vt 0.40900 -0.78858
vt 0.53289 -0.74170
vt 0.51453 -0.70811
vt 0.43653 -0.81517
vt -0.28356 -1.09341
vt 0.26724 -1.12803
vt 0.28356 -1.09341
vt -0.26724 -1.12803
vt -0.51453 -0.70811
vt -0.43653 -0.81517
vt -0.40900 -0.78858
vt -0.53289 -0.74170
vt -1.00686 0.16116
vt -1.04148 0.14484
vt -1.00686 -0.15504
vt -1.04148 -0.13872
vt -0.40756 0.79383
vt -0.43509 0.82041
vt -0.51309 0.71336
vt -0.53145 0.74694
vt -0.24072 0.22440
vt -0.32640 0.13872
vt -0.32640 -0.14484
vt 0.24072 0.22440
vt -0.24072 -0.23052
vt 0.24072 -0.23052
vt 0.32640 0.13872
vt 0.32640 -0.14484
vt -0.26724 -0.22440
vt -0.35292 0.14484
vt -0.35292 -0.13872
vt 0.26724 -0.22440
vt -0.26724 0.23052
vt 0.26724 0.23052
vt 0.35292 -0.13872
vt 0.35292 0.14484
vt -0.05952 1.17131
vt -0.46898 1.13669
vt -0.05952 1.14246
vt -0.48946 1.10611
vt -0.20246 -1.24292
vt -0.21099 -1.32106
vt -0.24170 -1.32017
vt -0.23072 -1.21950
vt -0.19082 -1.60426
vt -0.22009 -1.62361
vt -0.32624 -0.98793
vt -0.15806 -0.96115
vt -0.14807 -0.98849
vt -0.34188 -1.01935
vt -0.69934 -1.21424
vt -0.50392 -1.04045
vt -0.50392 -1.07731
vt -0.68806 -1.24108
vt -0.33048 -1.46869
vt -0.33048 -1.32600
vt -0.31008 -1.30560
vt -0.31008 -1.49940
vt 0.00000 0.31008
vt -0.42840 0.25867
vt 0.00000 0.19584
vt -0.42840 0.14443
vt 0.25867 -1.20938
vt 0.25867 -1.30978
vt 0.14443 -1.30978
vt 0.14443 -1.20938
vt 0.26724 -1.61354
vt 0.15300 -1.61354
vt -0.53336 -0.26724
vt -0.33849 -0.29050
vt -0.33849 -0.17626
vt -0.53336 -0.15300
vt -0.29050 -1.36631
vt -0.31008 -1.12067
vt -0.19584 -1.12067
vt -0.17626 -1.36631
vt -0.19584 -1.30560
vt -0.19584 -1.49940
vt 0.08976 -0.78472
vt -0.34018 -0.82107
vt -0.33199 -0.83192
vt 0.08976 -0.79626
vt 0.27187 -1.31078
vt 0.26038 -1.41121
vt 0.26016 -1.31756
vt 0.24969 -1.40901
vt 0.17799 -1.70397
vt 0.16950 -1.69395
vt 0.72083 -1.42154
vt 0.53179 -1.42028
vt 0.71523 -1.40999
vt 0.53619 -1.40879
vt 0.32902 -1.28971
vt 0.32845 -1.27503
vt -0.18768 -1.48712
vt -0.18768 -1.31376
vt -0.37155 -1.40517
vt -0.13506 -1.66354
vt -0.30444 -1.68124
vt 0.03938 -1.46869
vt 0.03938 -1.32600
vt -0.37155 -1.32600
vt 0.40089 -1.40663
vt 0.33090 -1.69454
vt 0.14604 -1.67522
vt -0.02236 -1.48712
vt -0.02236 -1.31376
vt 0.40089 -1.31376
vt 0.05952 1.17131
vt 0.05952 1.14246
vt 0.46898 1.13669
vt 0.48946 1.10611
vt 0.20246 -1.24292
vt 0.24170 -1.32017
vt 0.21099 -1.32106
vt 0.23072 -1.21950
vt 0.19082 -1.60426
vt 0.22009 -1.62361
vt 0.32624 -0.98793
vt 0.14807 -0.98849
vt 0.15806 -0.96115
vt 0.34188 -1.01935
vt 0.69934 -1.21424
vt 0.50392 -1.07731
vt 0.50392 -1.04045
vt 0.68806 -1.24108
vt 0.33048 -1.46869
vt 0.31008 -1.30560
vt 0.33048 -1.32600
vt 0.31008 -1.49940
vt 0.42840 0.25867
vt 0.42840 0.14443
vt -0.25867 -1.20938
vt -0.14443 -1.30978
vt -0.25867 -1.30978
vt -0.14443 -1.20938
vt -0.15300 -1.61354
vt -0.26724 -1.61354
vt 0.53336 -0.26724
vt 0.33849 -0.17626
vt 0.33849 -0.29050
vt 0.53336 -0.15300
vt 0.29050 -1.36631
vt 0.19584 -1.12067
vt 0.31008 -1.12067
vt 0.17626 -1.36631
vt 0.19584 -1.30560
vt 0.19584 -1.49940
vt -0.08976 -0.78472
vt 0.33199 -0.83192
vt 0.34018 -0.82107
vt -0.08976 -0.79626
vt -0.27187 -1.31078
vt -0.26016 -1.31756
vt -0.26038 -1.41121
vt -0.24969 -1.40901
vt -0.16950 -1.69395
vt -0.17799 -1.70397
vt -0.72083 -1.42154
vt -0.71523 -1.40999
vt -0.53179 -1.42028
vt -0.53619 -1.40879
vt -0.32902 -1.28971
vt -0.32845 -1.27503
vt 0.18768 -1.48712
vt 0.18768 -1.31376
vt 0.37155 -1.40517
vt 0.30444 -1.68124
vt 0.13506 -1.66354
vt -0.03938 -1.46869
vt -0.03938 -1.32600
vt 0.37155 -1.32600
vt -0.40089 -1.40663
vt -0.14604 -1.67522
vt -0.33090 -1.69454
vt 0.02236 -1.48712
vt 0.02236 -1.31376
vt -0.40089 -1.31376
vn 0.0000 -0.7071 -0.7071
vn 0.4575 -0.7625 -0.4575
vn 0.7071 -0.7071 0.0000
vn 0.4575 -0.7625 0.4575
vn 0.0000 -0.7071 0.7071
vn -0.4575 -0.7625 0.4575
vn -0.7071 -0.7071 0.0000
vn -0.4575 -0.7625 -0.4575
vn 0.0000 0.0000 -1.0000
vn 0.6891 0.2244 -0.6891
vn 0.9509 0.3096 0.0000
vn 0.9380 0.3467 0.0000
vn 0.9060 0.4233 0.0000
vn 0.6891 0.2244 0.6891
vn 0.0000 0.0000 1.0000
vn -0.6891 0.2244 0.6891
vn -0.9509 0.3096 0.0000
vn -0.9380 0.3467 0.0000
vn -0.9060 0.4233 0.0000
vn -0.6891 0.2244 -0.6891
vn 0.0000 0.7071 -0.7071
vn 0.4575 0.7625 -0.4575
vn 0.7071 0.7071 0.0000
vn 0.4575 0.7625 0.4575
vn 0.0000 0.7071 0.7071
vn -0.4575 0.7625 0.4575
vn -0.7071 0.7071 0.0000
vn -0.4575 0.7625 -0.4575
vn 0.0000 -1.0000 0.0000
vn 0.0000 1.0000 0.0000
vn 0.7071 0.0000 -0.7071
vn 1.0000 0.0000 0.0000
vn 0.7071 0.0000 0.7071
vn -0.7071 0.0000 0.7071
vn -1.0000 0.0000 0.0000
vn -0.7071 0.0000 -0.7071
vn 0.9204 -0.3911 0.0000
vn 0.9183 -0.3958 0.0000
vn -0.8872 -0.4614 0.0000
vn -0.9393 -0.3432 0.0000
vn 0.6934 -0.1960 -0.6934
vn 0.9623 -0.2720 0.0000
vn 0.6934 -0.1960 0.6934
vn -0.6934 -0.1960 0.6934
vn -0.9623 -0.2720 0.0000
vn -0.6934 -0.1960 -0.6934
vn 0.0845 -0.7046 -0.7046
vn 0.7459 0.0000 -0.6660
vn 0.7338 0.1226 -0.6682
vn 0.7342 0.1199 -0.6683
vn 0.7284 0.1565 -0.6670
vn 0.0109 0.7051 -0.7090
vn -0.4632 0.4904 -0.7382
vn 0.9795 0.2017 0.0000
vn 0.9899 0.1414 0.0000
vn 0.9721 0.2346 0.0000
vn -0.1047 0.9945 0.0000
vn -0.7474 0.6644 0.0000
vn -0.0845 -0.7046 0.7046
vn 0.6606 0.0000 0.7507
vn 0.6458 0.1332 0.7518
vn 0.6456 0.1343 0.7518
vn 0.6385 0.1758 0.7493
vn -0.1573 0.6964 0.7002
vn -0.3396 0.6152 0.7115
vn -0.4844 0.5266 0.6986
vn -0.5856 0.4485 0.6752
vn 0.1191 -0.0000 -0.9929
vn -0.1191 0.0000 0.9929
vn -0.0845 -0.7046 -0.7046
vn -0.7459 0.0000 -0.6660
vn -0.7342 0.1199 -0.6683
vn -0.7338 0.1226 -0.6682
vn -0.7284 0.1565 -0.6670
vn -0.0109 0.7051 -0.7090
vn 0.4632 0.4904 -0.7382
vn -0.9899 0.1414 0.0000
vn -0.9795 0.2017 0.0000
vn -0.9721 0.2346 0.0000
vn 0.1047 0.9945 0.0000
vn 0.7474 0.6644 0.0000
vn 0.0845 -0.7046 0.7046
vn -0.6606 0.0000 0.7507
vn -0.6458 0.1332 0.7518
vn -0.6456 0.1343 0.7518
vn -0.6385 0.1758 0.7493
vn 0.1573 0.6964 0.7002
vn 0.3396 0.6152 0.7115
vn 0.4844 0.5266 0.6986
vn 0.5856 0.4485 0.6752
vn -0.1191 -0.0000 -0.9929
vn 0.1191 0.0000 0.9929
s off
f 1/1/1 10/2/1 2/3/1
f 1/1/1 9/4/1 10/2/1
f 2/5/2 10/6/2 3/7/2
f 3/7/2 10/6/2 11/8/2
f 3/9/3 12/10/3 4/11/3
f 3/9/3 11/12/3 12/10/3
f 4/13/4 13/14/4 5/15/4
f 4/13/4 12/16/4 13/14/4
f 5/1/5 14/2/5 6/3/5
f 5/1/5 13/4/5 14/2/5
f 6/17/6 14/18/6 7/19/6
f 7/19/6 14/18/6 15/20/6
f 7/9/7 16/10/7 8/11/7
f 7/9/7 15/12/7 16/10/7
f 8/21/8 9/22/8 1/23/8
f 8/21/8 16/24/8 9/22/8
f 9/25/9 18/26/9 10/27/9
f 9/25/9 17/28/9 18/26/9
f 10/29/10 19/30/10 11/31/10
f 10/29/10 18/32/10 19/30/10
f 11/33/11 20/34/12 12/35/11
f 11/33/11 19/36/13 20/34/12
f 12/37/14 20/38/14 13/39/14
f 13/39/14 20/38/14 21/40/14
f 13/25/15 22/26/15 14/27/15
f 13/25/15 21/28/15 22/26/15
f 14/29/16 23/30/16 15/31/16
f 14/29/16 22/32/16 23/30/16
f 15/33/17 24/34/18 16/35/17
f 15/33/17 23/36/19 24/34/18
f 16/37/20 24/38/20 9/39/20
f 9/39/20 24/38/20 17/40/20
f 17/41/21 26/42/21 18/43/21
f 17/41/21 25/44/21 26/42/21
f 18/45/22 27/46/22 19/47/22
f 18/45/22 26/48/22 27/46/22
f 19/36/13 28/49/23 20/34/12
f 19/36/13 27/50/23 28/49/23
f 20/51/24 29/52/24 21/53/24
f 20/51/24 28/54/24 29/52/24
f 21/41/25 30/42/25 22/43/25
f 21/41/25 29/44/25 30/42/25
f 22/55/26 31/56/26 23/57/26
f 22/55/26 30/58/26 31/56/26
f 23/36/19 32/49/27 24/34/18
f 23/36/19 31/50/27 32/49/27
f 24/59/28 25/60/28 17/61/28
f 24/59/28 32/62/28 25/60/28
f 2/63/29 3/64/29 4/65/29
f 1/66/29 2/63/29 4/65/29
f 6/67/29 7/68/29 8/69/29
f 5/70/29 6/67/29 8/69/29
f 1/66/29 4/65/29 5/70/29
f 1/66/29 5/70/29 8/69/29
f 27/71/30 29/72/30 28/73/30
f 27/71/30 30/74/30 29/72/30
f 26/75/30 30/74/30 27/71/30
f 25/76/30 30/74/30 26/75/30
f 32/77/30 30/74/30 25/76/30
f 30/74/30 32/77/30 31/78/30
f 33/79/1 42/80/1 34/81/1
f 33/79/1 41/82/1 42/80/1
f 34/83/2 43/84/2 35/85/2
f 34/83/2 42/86/2 43/84/2
f 35/87/3 44/88/3 36/89/3
f 35/87/3 43/90/3 44/88/3
f 36/91/4 45/92/4 37/93/4
f 36/91/4 44/94/4 45/92/4
f 37/79/5 46/80/5 38/81/5
f 37/79/5 45/82/5 46/80/5
f 38/95/6 47/96/6 39/97/6
f 38/95/6 46/98/6 47/96/6
f 39/87/7 48/88/7 40/89/7
f 39/87/7 47/90/7 48/88/7
f 40/99/8 41/100/8 33/101/8
f 40/99/8 48/102/8 41/100/8
f 41/103/9 50/104/9 42/105/9
f 41/103/9 49/106/9 50/104/9
f 42/107/31 51/108/31 43/109/31
f 42/107/31 50/110/31 51/108/31
f 43/111/32 52/112/32 44/113/32
f 43/111/32 51/114/32 52/112/32
f 44/115/33 53/116/33 45/117/33
f 44/115/33 52/118/33 53/116/33
f 45/103/15 54/104/15 46/105/15
f 45/103/15 53/106/15 54/104/15
f 46/107/34 55/108/34 47/109/34
f 46/107/34 54/110/34 55/108/34
f 47/111/35 56/112/35 48/113/35
f 47/111/35 55/114/35 56/112/35
f 48/115/36 49/116/36 41/117/36
f 48/115/36 56/118/36 49/116/36
f 49/119/21 58/120/21 50/121/21
f 49/119/21 57/122/21 58/120/21
f 50/123/22 59/124/22 51/125/22
f 50/123/22 58/126/22 59/124/22
f 51/127/23 60/128/23 52/129/23
f 51/127/23 59/130/23 60/128/23
f 52/131/24 61/132/24 53/133/24
f 52/131/24 60/134/24 61/132/24
f 53/135/25 62/136/25 54/137/25
f 53/135/25 61/138/25 62/136/25
f 54/139/26 63/140/26 55/141/26
f 54/139/26 62/142/26 63/140/26
f 55/143/27 64/144/27 56/145/27
f 55/143/27 63/146/27 64/144/27
f 56/147/28 57/148/28 49/149/28
f 56/147/28 64/150/28 57/148/28
f 34/151/29 35/152/29 36/153/29
f 33/154/29 34/151/29 36/153/29
f 33/154/29 36/153/29 37/155/29
f 33/154/29 37/155/29 38/156/29
f 40/157/29 33/154/29 38/156/29
f 38/156/29 39/158/29 40/157/29
f 58/155/30 60/152/30 59/153/30
f 57/156/30 60/152/30 58/155/30
f 57/156/30 61/151/30 60/152/30
f 57/156/30 62/154/30 61/151/30
f 64/158/30 62/154/30 57/156/30
f 62/154/30 64/158/30 63/157/30
f 65/159/1 74/160/1 66/161/1
f 65/159/1 73/162/1 74/160/1
f 66/163/2 75/164/2 67/165/2
f 66/163/2 74/166/2 75/164/2
f 67/167/3 75/168/37 68/169/3
f 68/169/3 75/168/37 76/170/38
f 68/171/4 76/172/4 69/173/4
f 69/173/4 76/172/4 77/174/4
f 69/175/5 78/176/5 70/177/5
f 69/175/5 77/178/5 78/176/5
f 70/179/6 79/180/6 71/181/6
f 70/179/6 78/182/6 79/180/6
f 71/183/7 80/184/39 72/185/7
f 71/183/7 79/186/40 80/184/39
f 72/187/8 73/188/8 65/189/8
f 72/187/8 80/190/8 73/188/8
f 73/191/9 82/192/9 74/193/9
f 73/191/9 81/194/9 82/192/9
f 74/195/41 82/196/41 75/197/41
f 75/197/41 82/196/41 83/198/41
f 75/168/37 84/199/42 76/170/38
f 75/168/37 83/200/42 84/199/42
f 76/201/43 85/202/43 77/203/43
f 76/201/43 84/204/43 85/202/43
f 77/191/15 86/192/15 78/193/15
f 77/191/15 85/194/15 86/192/15
f 78/205/44 86/206/44 79/207/44
f 79/207/44 86/206/44 87/208/44
f 79/186/40 88/209/45 80/184/39
f 79/186/40 87/210/45 88/209/45
f 80/211/46 81/212/46 73/213/46
f 80/211/46 88/214/46 81/212/46
f 81/215/21 90/216/21 82/217/21
f 81/215/21 89/218/21 90/216/21
f 82/219/22 91/220/22 83/221/22
f 82/219/22 90/222/22 91/220/22
f 83/223/23 92/224/23 84/225/23
f 83/223/23 91/226/23 92/224/23
f 84/227/24 93/228/24 85/229/24
f 84/227/24 92/230/24 93/228/24
f 85/231/25 94/232/25 86/233/25
f 85/231/25 93/234/25 94/232/25
f 86/235/26 95/236/26 87/237/26
f 86/235/26 94/238/26 95/236/26
f 87/239/27 95/240/27 88/241/27
f 88/241/27 95/240/27 96/242/27
f 88/243/28 96/244/28 81/245/28
f 81/245/28 96/244/28 89/246/28
f 66/247/29 67/248/29 68/249/29
f 65/250/29 66/247/29 68/249/29
f 65/250/29 68/249/29 69/251/29
f 65/250/29 69/251/29 70/252/29
f 72/253/29 65/250/29 70/252/29
f 70/252/29 71/254/29 72/253/29
f 90/255/30 92/256/30 91/257/30
f 89/258/30 92/256/30 90/255/30
f 89/258/30 93/259/30 92/256/30
f 89/258/30 94/260/30 93/259/30
f 96/261/30 94/260/30 89/258/30
f 94/260/30 96/261/30 95/262/30
f 97/263/47 98/264/47 103/265/47
f 98/264/47 104/266/47 103/265/47
f 98/267/48 99/268/49 105/269/50
f 98/267/48 105/269/50 104/270/48
f 99/268/49 100/271/51 105/269/50
f 100/271/51 106/272/51 105/269/50
f 100/273/52 101/274/52 107/275/52
f 100/273/52 107/275/52 106/276/52
f 101/277/53 102/278/53 108/279/53
f 101/277/53 108/279/53 107/280/53
f 102/281/35 97/282/35 103/283/35
f 102/281/35 103/283/35 108/284/35
f 103/285/29 104/286/29 109/287/29
f 104/286/29 110/288/29 109/287/29
f 104/289/32 105/290/54 111/291/55
f 104/289/32 111/291/55 110/292/32
f 105/290/54 106/293/56 112/294/56
f 105/290/54 112/294/56 111/291/55
f 106/295/57 107/296/57 113/297/57
f 106/295/57 113/297/57 112/298/57
f 107/299/58 108/300/58 114/301/58
f 107/299/58 114/301/58 113/302/58
f 108/284/35 103/283/35 109/303/35
f 108/284/35 109/303/35 114/304/35
f 109/305/59 110/306/59 116/307/59
f 109/305/59 116/307/59 115/308/59
f 110/309/60 111/310/61 116/311/60
f 111/310/61 117/312/62 116/311/60
f 111/310/61 112/313/63 118/314/63
f 111/310/61 118/314/63 117/312/62
f 112/315/64 113/316/65 118/317/64
f 113/316/65 119/318/66 118/317/64
f 113/316/65 114/319/67 119/318/66
f 114/319/67 120/320/67 119/318/66
f 114/304/35 109/303/35 120/321/35
f 109/303/35 115/322/35 120/321/35
f 99/323/68 101/324/68 100/325/68
f 99/323/68 102/326/68 101/324/68
f 99/323/68 97/327/68 102/326/68
f 97/327/68 99/323/68 98/328/68
f 117/329/69 118/330/69 119/331/69
f 117/329/69 119/331/69 120/332/69
f 117/329/69 120/332/69 115/333/69
f 115/333/69 116/334/69 117/329/69
f 121/335/70 127/336/70 122/337/70
f 122/337/70 127/336/70 128/338/70
f 122/339/71 129/340/72 123/341/73
f 122/339/71 128/342/71 129/340/72
f 123/341/73 129/340/72 124/343/74
f 124/343/74 129/340/72 130/344/74
f 124/345/75 131/346/75 125/347/75
f 124/345/75 130/348/75 131/346/75
f 125/349/76 132/350/76 126/351/76
f 125/349/76 131/352/76 132/350/76
f 126/353/32 127/354/32 121/355/32
f 126/353/32 132/356/32 127/354/32
f 127/285/29 133/287/29 128/357/29
f 128/357/29 133/287/29 134/358/29
f 128/359/35 135/360/77 129/361/78
f 128/359/35 134/362/35 135/360/77
f 129/361/78 136/363/79 130/364/79
f 129/361/78 135/360/77 136/363/79
f 130/365/80 137/366/80 131/367/80
f 130/365/80 136/368/80 137/366/80
f 131/369/81 138/370/81 132/371/81
f 131/369/81 137/372/81 138/370/81
f 132/356/32 133/373/32 127/354/32
f 132/356/32 138/374/32 133/373/32
f 133/375/82 140/376/82 134/377/82
f 133/375/82 139/378/82 140/376/82
f 134/379/83 140/380/83 135/381/84
f 135/381/84 140/380/83 141/382/85
f 135/381/84 142/383/86 136/384/86
f 135/381/84 141/382/85 142/383/86
f 136/385/87 142/386/87 137/387/88
f 137/387/88 142/386/87 143/388/89
f 137/387/88 143/388/89 138/389/90
f 138/389/90 143/388/89 144/390/90
f 138/374/32 144/391/32 133/373/32
f 133/373/32 144/391/32 139/392/32
f 123/393/91 124/394/91 125/395/91
f 123/393/91 125/395/91 126/396/91
f 123/393/91 126/396/91 121/397/91
f 121/397/91 122/398/91 123/393/91
f 141/399/92 143/400/92 142/401/92
f 141/399/92 144/402/92 143/400/92
f 141/399/92 139/403/92 144/402/92
f 139/403/92 141/399/92 140/404/92
