# mech2 torso - segment abdomen, colour darkgrey #5A5A5A
# units: studs, +Y up, -Z forward, origin = hip-joint line centre
o abdomen_darkgrey
v -0.93840 5.14080 -0.81600
v 0.93840 5.14080 -0.81600
v 1.26480 5.14080 -0.48960
v 1.26480 5.14080 0.48960
v 0.93840 5.14080 0.81600
v -0.93840 5.14080 0.81600
v -1.26480 5.14080 0.48960
v -1.26480 5.14080 -0.48960
v -0.85680 7.50720 -0.77520
v 0.85680 7.50720 -0.77520
v 1.18320 7.50720 -0.44880
v 1.18320 7.50720 0.44880
v 0.85680 7.50720 0.77520
v -0.85680 7.50720 0.77520
v -1.18320 7.50720 0.44880
v -1.18320 7.50720 -0.44880
vt 0.23460 -1.28149
vt -0.21420 -1.87318
vt -0.23460 -1.28149
vt 0.21420 -1.87318
vt 0.02487 -1.27295
vt -0.06162 -1.86850
vt -0.09045 -1.27716
vt 0.05371 -1.86428
vt 0.12240 -1.27354
vt -0.11220 -1.86549
vt -0.12240 -1.27354
vt 0.11220 -1.86549
vt 0.09045 -1.27716
vt 0.06162 -1.86850
vt -0.02487 -1.27295
vt -0.05371 -1.86428
vt -0.23460 0.20400
vt -0.31620 0.12240
vt -0.31620 -0.12240
vt 0.23460 0.20400
vt -0.23460 -0.20400
vt 0.23460 -0.20400
vt 0.31620 0.12240
vt 0.31620 -0.12240
vt -0.21420 -0.19380
vt -0.29580 0.11220
vt -0.29580 -0.11220
vt 0.21420 -0.19380
vt -0.21420 0.19380
vt 0.21420 0.19380
vt 0.29580 -0.11220
vt 0.29580 0.11220
vn 0.0000 0.0172 -0.9999
vn 0.7066 0.0366 -0.7066
vn 0.9994 0.0345 0.0000
vn 0.7066 0.0366 0.7066
vn 0.0000 0.0172 0.9999
vn -0.7066 0.0366 0.7066
vn -0.9994 0.0345 0.0000
vn -0.7066 0.0366 -0.7066
vn 0.0000 -1.0000 0.0000
vn 0.0000 1.0000 0.0000
s off
f 1/1/1 10/2/1 2/3/1
f 1/1/1 9/4/1 10/2/1
f 2/5/2 11/6/2 3/7/2
f 2/5/2 10/8/2 11/6/2
f 3/9/3 12/10/3 4/11/3
f 3/9/3 11/12/3 12/10/3
f 4/13/4 12/14/4 5/15/4
f 5/15/4 12/14/4 13/16/4
f 5/1/5 14/2/5 6/3/5
f 5/1/5 13/4/5 14/2/5
f 6/5/6 15/6/6 7/7/6
f 6/5/6 14/8/6 15/6/6
f 7/9/7 16/10/7 8/11/7
f 7/9/7 15/12/7 16/10/7
f 8/13/8 16/14/8 1/15/8
f 1/15/8 16/14/8 9/16/8
f 2/17/9 3/18/9 4/19/9
f 1/20/9 2/17/9 4/19/9
f 1/20/9 4/19/9 5/21/9
f 1/20/9 5/21/9 6/22/9
f 8/23/9 1/20/9 6/22/9
f 6/22/9 7/24/9 8/23/9
f 10/25/10 12/26/10 11/27/10
f 9/28/10 12/26/10 10/25/10
f 9/28/10 13/29/10 12/26/10
f 9/28/10 14/30/10 13/29/10
f 16/31/10 14/30/10 9/28/10
f 14/30/10 16/31/10 15/32/10
