# mech2 torso - segment chest, colour white #F2F2F2
# units: studs, +Y up, -Z forward, origin = hip-joint line centre
o chest_white
v 0.00000 8.11920 2.16240
v 0.71808 8.11920 2.01878
v 0.71808 9.98784 2.01878
v 0.00000 9.98784 2.16240
v 0.00000 8.02128 2.06448
v 0.81600 8.02128 1.90128
v 0.81600 10.08576 1.90128
v 0.00000 10.08576 2.06448
v 0.00000 8.02128 1.74624
v 0.81600 8.02128 1.58304
v 0.81600 10.08576 1.58304
v 0.00000 10.08576 1.74624
v 0.00000 8.05392 1.71360
v 0.78336 8.05392 1.55693
v 0.78336 10.05312 1.55693
v 0.00000 10.05312 1.71360
v -0.00000 8.11920 2.16240
v -0.71808 8.11920 2.01878
v -0.71808 9.98784 2.01878
v -0.00000 9.98784 2.16240
v -0.00000 8.02128 2.06448
v -0.81600 8.02128 1.90128
v -0.81600 10.08576 1.90128
v -0.00000 10.08576 2.06448
v -0.00000 8.02128 1.74624
v -0.81600 8.02128 1.58304
v -0.81600 10.08576 1.58304
v -0.00000 10.08576 1.74624
v -0.00000 8.05392 1.71360
v -0.78336 8.05392 1.55693
v -0.78336 10.05312 1.55693
v -0.00000 10.05312 1.71360
v 1.07661 7.79280 2.38598
v 2.04806 7.79280 2.38598
v 2.54229 9.95520 2.90496
v 1.64672 9.95520 2.90496
v 0.97071 7.71120 2.28480
v 2.11311 7.71120 2.28480
v 2.64465 10.03680 2.84294
v 1.58385 10.03680 2.84294
v 0.97071 7.71120 1.90944
v 2.11311 7.71120 1.90944
v 2.64465 10.03680 2.46758
v 1.58385 10.03680 2.46758
v 1.01307 7.74384 1.88463
v 2.08709 7.74384 1.88463
v 2.60371 10.00416 2.42711
v 1.60900 10.00416 2.42711
v -1.07661 7.79280 2.38598
v -2.04806 7.79280 2.38598
v -2.54229 9.95520 2.90496
v -1.64672 9.95520 2.90496
v -0.97071 7.71120 2.28480
v -2.11311 7.71120 2.28480
v -2.64465 10.03680 2.84294
v -1.58385 10.03680 2.84294
v -0.97071 7.71120 1.90944
v -2.11311 7.71120 1.90944
v -2.64465 10.03680 2.46758
v -1.58385 10.03680 2.46758
v -1.01307 7.74384 1.88463
v -2.08709 7.74384 1.88463
v -2.60371 10.00416 2.42711
v -1.60900 10.00416 2.42711
v 0.00000 7.99680 -2.77440
v 2.19504 7.99680 -1.85248
v 2.19504 8.86970 -1.41603
v 0.00000 8.55056 -2.49752
v 0.00000 7.99680 -2.66832
v 2.30112 7.99680 -1.70185
v 2.30112 8.99232 -1.20409
v 0.00000 8.65776 -2.33784
v 0.00000 7.99680 -1.10160
v 2.30112 7.99680 -0.13513
v 2.30112 8.99232 0.36263
v 0.00000 8.65776 -0.77112
v 0.00000 7.99680 -1.06080
v 2.26032 7.99680 -0.11147
v 2.26032 8.94516 0.36271
v 0.00000 8.61653 -0.75093
v -0.00000 7.99680 -2.77440
v -2.19504 7.99680 -1.85248
v -2.19504 8.86970 -1.41603
v -0.00000 8.55056 -2.49752
v -0.00000 7.99680 -2.66832
v -2.30112 7.99680 -1.70185
v -2.30112 8.99232 -1.20409
v -0.00000 8.65776 -2.33784
v -0.00000 7.99680 -1.10160
v -2.30112 7.99680 -0.13513
v -2.30112 8.99232 0.36263
v -0.00000 8.65776 -0.77112
v -0.00000 7.99680 -1.06080
v -2.26032 7.99680 -0.11147
v -2.26032 8.94516 0.36271
v -0.00000 8.61653 -0.75093
v 0.00000 7.24905 -2.46034
v 0.83144 7.44701 -2.19428
v 2.19504 7.79369 -1.76717
v 2.19504 7.99680 -1.85248
v 0.00000 7.99680 -2.77440
v 0.00000 7.14000 -2.30846
v 0.85680 7.34400 -2.03429
v 2.30112 7.71120 -1.58190
v 2.30112 7.99680 -1.70185
v 0.00000 7.99680 -2.66832
v 0.00000 7.14000 -0.74174
v 0.85680 7.34400 -0.46757
v 2.30112 7.71120 -0.01518
v 2.30112 7.99680 -0.13513
v 0.00000 7.99680 -1.10160
v 0.00000 7.18194 -0.71856
v 0.84705 7.38362 -0.44750
v 2.26032 7.74293 -0.00484
v 2.26032 7.99680 -0.11147
v 0.00000 7.99680 -1.06080
v -0.00000 7.24905 -2.46034
v -0.83144 7.44701 -2.19428
v -2.19504 7.79369 -1.76717
v -2.19504 7.99680 -1.85248
v -0.00000 7.99680 -2.77440
v -0.00000 7.14000 -2.30846
v -0.85680 7.34400 -2.03429
v -2.30112 7.71120 -1.58190
v -2.30112 7.99680 -1.70185
v -0.00000 7.99680 -2.66832
v -0.00000 7.14000 -0.74174
v -0.85680 7.34400 -0.46757
v -2.30112 7.71120 -0.01518
v -2.30112 7.99680 -0.13513
v -0.00000 7.99680 -1.10160
v -0.00000 7.18194 -0.71856
v -0.84705 7.38362 -0.44750
v -2.26032 7.74293 -0.00484
v -2.26032 7.99680 -0.11147
v -0.00000 7.99680 -1.06080
v 0.00000 6.49303 -2.26294
v 1.50960 7.07364 -1.74039
v 1.50960 7.19540 -1.70995
v 0.00000 6.76962 -2.19380
v 0.00000 6.40560 -2.20320
v 1.59120 7.01760 -1.65240
v 1.59120 7.30320 -1.58100
v 0.00000 6.85440 -2.09100
v 0.00000 6.40560 -1.09344
v 1.59120 7.01760 -0.54264
v 1.59120 7.30320 -0.47124
v 0.00000 6.85440 -0.98124
v 0.00000 6.44057 -1.05206
v 1.55856 7.04002 -0.51256
v 1.55856 7.26008 -0.45754
v 0.00000 6.82049 -0.95708
v -0.00000 6.49303 -2.26294
v -1.50960 7.07364 -1.74039
v -1.50960 7.19540 -1.70995
v -0.00000 6.76962 -2.19380
v -0.00000 6.40560 -2.20320
v -1.59120 7.01760 -1.65240
v -1.59120 7.30320 -1.58100
v -0.00000 6.85440 -2.09100
v -0.00000 6.40560 -1.09344
v -1.59120 7.01760 -0.54264
v -1.59120 7.30320 -0.47124
v -0.00000 6.85440 -0.98124
v -0.00000 6.44057 -1.05206
v -1.55856 7.04002 -0.51256
v -1.55856 7.26008 -0.45754
v -0.00000 6.82049 -0.95708
vt -0.14745 -1.81755
vt -0.14745 -1.78293
vt -0.32876 -1.79216
vt -0.35348 -1.75408
vt -0.27279 -2.02980
vt -0.23455 -2.52144
vt -0.27279 -2.49696
vt -0.23455 -2.00532
vt 0.11946 -1.40874
vt 0.30076 -1.41798
vt 0.30076 -1.38336
vt 0.09473 -1.44683
vt 0.54060 -2.49696
vt 0.51612 -2.00532
vt 0.54060 -2.02980
vt 0.51612 -2.52144
vt 0.00000 -0.51612
vt 0.00000 -0.43656
vt -0.20400 -0.47532
vt -0.20400 -0.39576
vt -0.47532 -2.00532
vt -0.39576 -2.52144
vt -0.47532 -2.52144
vt -0.39576 -2.00532
vt -0.20400 0.47532
vt 0.00000 0.43656
vt 0.00000 0.51612
vt -0.20400 0.39576
vt 0.43656 -2.00532
vt 0.43656 -2.52144
vt 0.24178 1.10928
vt 0.04399 1.14852
vt 0.03575 1.13813
vt 0.24178 1.12082
vt -0.40653 -2.00532
vt -0.39608 -2.51328
vt -0.40653 -2.52144
vt -0.39608 -2.01348
vt -0.41246 2.06277
vt -0.40422 2.05239
vt -0.20643 2.09162
vt -0.20643 2.08008
vt 0.42840 -2.01348
vt 0.42840 -2.51328
vt -0.10602 -2.49696
vt -0.10602 -2.02980
vt 0.07705 -2.02980
vt 0.07705 -2.49696
vt 0.08402 -2.51328
vt -0.11570 -2.01348
vt 0.08402 -2.01348
vt -0.11570 -2.51328
vt 0.14745 -1.81755
vt 0.32876 -1.79216
vt 0.14745 -1.78293
vt 0.35348 -1.75408
vt 0.27279 -2.02980
vt 0.27279 -2.49696
vt 0.23455 -2.52144
vt 0.23455 -2.00532
vt -0.11946 -1.40874
vt -0.30076 -1.38336
vt -0.30076 -1.41798
vt -0.09473 -1.44683
vt -0.54060 -2.49696
vt -0.54060 -2.02980
vt -0.51612 -2.00532
vt -0.51612 -2.52144
vt 0.20400 -0.47532
vt 0.20400 -0.39576
vt 0.47532 -2.00532
vt 0.47532 -2.52144
vt 0.39576 -2.52144
vt 0.39576 -2.00532
vt 0.20400 0.47532
vt 0.20400 0.39576
vt -0.43656 -2.00532
vt -0.43656 -2.52144
vt -0.24178 1.10928
vt -0.03575 1.13813
vt -0.04399 1.14852
vt -0.24178 1.12082
vt 0.40653 -2.00532
vt 0.40653 -2.52144
vt 0.39608 -2.51328
vt 0.39608 -2.01348
vt 0.41246 2.06277
vt 0.20643 2.09162
vt 0.40422 2.05239
vt 0.20643 2.08008
vt -0.42840 -2.01348
vt -0.42840 -2.51328
vt 0.10602 -2.49696
vt -0.07705 -2.02980
vt 0.10602 -2.02980
vt -0.07705 -2.49696
vt -0.08402 -2.51328
vt -0.08402 -2.01348
vt 0.11570 -2.01348
vt 0.11570 -2.51328
vt -0.26915 -1.68731
vt -0.52828 -1.65481
vt -0.51201 -1.68731
vt -0.24268 -1.65481
vt 0.56698 -2.01856
vt 0.76612 -2.57566
vt 0.73196 -2.56366
vt 0.58870 -1.98943
vt 0.63557 -1.54205
vt 0.39596 -1.56768
vt 0.41168 -1.54205
vt 0.66116 -1.56768
vt 0.82655 -2.47768
vt 0.80468 -2.49831
vt 0.62830 -1.93907
vt 0.59147 -1.91905
vt -0.24268 -0.57120
vt -0.52828 -0.47736
vt -0.52828 -0.57120
vt -0.24268 -0.47736
vt -0.57120 -1.99704
vt -0.61690 -2.59344
vt -0.71074 -2.59344
vt -0.47736 -1.99704
vt -0.66116 0.71074
vt -0.39596 0.61690
vt -0.39596 0.71074
vt -0.66116 0.61690
vt 0.71074 -2.52724
vt 0.61690 -2.52724
vt 0.57120 -1.92597
vt 0.47736 -1.92597
vt -0.24268 -1.24600
vt -0.25327 -1.25625
vt -0.52828 -1.24600
vt -0.52177 -1.25625
vt -0.68832 -1.93572
vt -0.85960 -2.51110
vt -0.87389 -2.51943
vt -0.67924 -1.94377
vt -0.66116 2.05536
vt -0.65093 2.04236
vt -0.39596 2.05536
vt -0.40225 2.04236
vt -0.66608 -2.52248
vt -0.47725 -1.94407
vt -0.46324 -1.93951
vt -0.67440 -2.51067
vt 0.41168 -2.58956
vt 0.26915 -2.03361
vt 0.51201 -2.03361
vt 0.63557 -2.58956
vt -0.40225 -2.57359
vt -0.52177 -1.99246
vt -0.25327 -1.99246
vt -0.65093 -2.57359
vt 0.26915 -1.68731
vt 0.51201 -1.68731
vt 0.52828 -1.65481
vt 0.24268 -1.65481
vt -0.56698 -2.01856
vt -0.73196 -2.56366
vt -0.76612 -2.57566
vt -0.58870 -1.98943
vt -0.63557 -1.54205
vt -0.41168 -1.54205
vt -0.39596 -1.56768
vt -0.66116 -1.56768
vt -0.82655 -2.47768
vt -0.62830 -1.93907
vt -0.80468 -2.49831
vt -0.59147 -1.91905
vt 0.24268 -0.57120
vt 0.52828 -0.57120
vt 0.52828 -0.47736
vt 0.24268 -0.47736
vt 0.57120 -1.99704
vt 0.71074 -2.59344
vt 0.61690 -2.59344
vt 0.47736 -1.99704
vt 0.66116 0.71074
vt 0.39596 0.71074
vt 0.39596 0.61690
vt 0.66116 0.61690
vt -0.71074 -2.52724
vt -0.57120 -1.92597
vt -0.61690 -2.52724
vt -0.47736 -1.92597
vt 0.24268 -1.24600
vt 0.52828 -1.24600
vt 0.25327 -1.25625
vt 0.52177 -1.25625
vt 0.68832 -1.93572
vt 0.87389 -2.51943
vt 0.85960 -2.51110
vt 0.67924 -1.94377
vt 0.66116 2.05536
vt 0.39596 2.05536
vt 0.65093 2.04236
vt 0.40225 2.04236
vt 0.66608 -2.52248
vt 0.46324 -1.93951
vt 0.47725 -1.94407
vt 0.67440 -2.51067
vt -0.41168 -2.58956
vt -0.51201 -2.03361
vt -0.26915 -2.03361
vt -0.63557 -2.58956
vt 0.40225 -2.57359
vt 0.25327 -1.99246
vt 0.52177 -1.99246
vt 0.65093 -2.57359
vt 0.00000 0.69360
vt -0.54876 0.46312
vt 0.00000 0.66708
vt -0.57528 0.42546
vt -0.26801 -1.70346
vt -0.39900 -1.90930
vt -0.31322 -1.69465
vt -0.46261 -1.92940
vt -0.23231 0.94202
vt 0.32291 0.67307
vt 0.32291 0.72115
vt -0.25915 1.00309
vt -0.62438 -2.13764
vt -0.69360 -1.99920
vt -0.66708 -1.99920
vt -0.58446 -2.16444
vt 0.00000 0.27540
vt -0.57528 0.03378
vt 0.42546 -1.99920
vt 0.30102 -2.24808
vt 0.03378 -1.99920
vt -0.09066 -2.24808
vt -0.89274 -0.30102
vt -0.31141 -0.58446
vt -0.31141 -0.19278
vt -0.89274 0.09066
vt -0.27540 -1.99920
vt -0.19278 -2.16444
vt -0.56508 0.02787
vt 0.00000 0.26520
vt 0.93628 -1.77303
vt 0.93628 -2.05129
vt 0.92479 -2.04075
vt 0.92479 -1.77568
vt 0.99662 -1.97921
vt 0.35178 -2.02873
vt 0.98519 -1.96861
vt 0.35178 -2.01725
vt -0.18773 -2.15413
vt -0.26520 -1.99920
vt -0.05363 -1.58102
vt 0.53258 -1.63273
vt -0.05363 -1.82501
vt 0.53258 -1.47795
vt 0.20581 -1.77568
vt 0.20581 -2.04075
vt -0.39783 -1.84276
vt -0.39783 -1.66954
vt 0.54876 0.46312
vt 0.57528 0.42546
vt 0.26801 -1.70346
vt 0.31322 -1.69465
vt 0.39900 -1.90930
vt 0.46261 -1.92940
vt 0.23231 0.94202
vt -0.32291 0.72115
vt -0.32291 0.67307
vt 0.25915 1.00309
vt 0.62438 -2.13764
vt 0.66708 -1.99920
vt 0.69360 -1.99920
vt 0.58446 -2.16444
vt 0.57528 0.03378
vt -0.42546 -1.99920
vt -0.03378 -1.99920
vt -0.30102 -2.24808
vt 0.09066 -2.24808
vt 0.89274 -0.30102
vt 0.31141 -0.19278
vt 0.31141 -0.58446
vt 0.89274 0.09066
vt 0.27540 -1.99920
vt 0.19278 -2.16444
vt 0.56508 0.02787
vt -0.93628 -1.77303
vt -0.92479 -2.04075
vt -0.93628 -2.05129
vt -0.92479 -1.77568
vt -0.99662 -1.97921
vt -0.98519 -1.96861
vt -0.35178 -2.02873
vt -0.35178 -2.01725
vt 0.18773 -2.15413
vt 0.26520 -1.99920
vt 0.05363 -1.58102
vt 0.05363 -1.82501
vt -0.53258 -1.63273
vt -0.53258 -1.47795
vt -0.20581 -1.77568
vt 0.39783 -1.84276
vt -0.20581 -2.04075
vt 0.39783 -1.66954
vt -0.15180 -1.86937
vt -0.37545 -1.87736
vt -0.15862 -1.82640
vt -0.38909 -1.83464
vt -0.74255 -1.89638
vt -0.77792 -1.85478
vt 0.38090 -2.02405
vt 0.40664 -2.07275
vt 0.36120 -2.08027
vt 0.32501 -2.01180
vt -0.54876 -0.46312
vt 0.00000 -0.69360
vt 0.00000 -0.66708
vt -0.57528 -0.42546
vt -0.61509 -1.81226
vt -0.57712 -1.78500
vt -0.43003 0.57712
vt -0.65021 0.50857
vt -0.43003 0.18544
vt -0.65021 0.11689
vt -1.02277 0.39547
vt -1.02277 0.00379
vt 0.39547 -1.92780
vt 0.00379 -1.92780
vt 0.00000 -0.27540
vt -0.57528 -0.03378
vt -0.18544 -1.78500
vt -0.15862 -1.47427
vt 0.05849 -1.55200
vt -0.15861 -1.48625
vt 0.05602 -1.56310
vt 0.42370 -1.68697
vt 0.41338 -1.69516
vt 0.15693 -1.77887
vt 0.15693 -1.85631
vt 0.14536 -1.78518
vt 0.14536 -1.85402
vt -0.56508 -0.02787
vt 0.00000 -0.26520
vt -0.17964 -1.79549
vt -0.16269 -2.06998
vt -0.74550 -1.95087
vt 0.19126 -1.94592
vt 0.19126 -1.72497
vt 0.41834 -1.74521
vt 0.79722 -1.85402
vt 0.79722 -1.78518
vt 0.15180 -1.86937
vt 0.15862 -1.82640
vt 0.37545 -1.87736
vt 0.38909 -1.83464
vt 0.74255 -1.89638
vt 0.77792 -1.85478
vt -0.38090 -2.02405
vt -0.36120 -2.08027
vt -0.40664 -2.07275
vt -0.32501 -2.01180
vt 0.54876 -0.46312
vt 0.57528 -0.42546
vt 0.61509 -1.81226
vt 0.57712 -1.78500
vt 0.43003 0.57712
vt 0.43003 0.18544
vt 0.65021 0.50857
vt 0.65021 0.11689
vt 1.02277 0.39547
vt 1.02277 0.00379
vt -0.39547 -1.92780
vt -0.00379 -1.92780
vt 0.57528 -0.03378
vt 0.18544 -1.78500
vt 0.15862 -1.47427
vt 0.15861 -1.48625
vt -0.05849 -1.55200
vt -0.05602 -1.56310
vt -0.41338 -1.69516
vt -0.42370 -1.68697
vt -0.15693 -1.77887
vt -0.14536 -1.78518
vt -0.15693 -1.85631
vt -0.14536 -1.85402
vt 0.56508 -0.02787
vt 0.17964 -1.79549
vt 0.16269 -2.06998
vt 0.74550 -1.95087
vt -0.19126 -1.94592
vt -0.41834 -1.74521
vt -0.19126 -1.72497
vt -0.79722 -1.85402
vt -0.79722 -1.78518
vt -0.20158 -1.65941
vt -0.62400 -1.70555
vt -0.20158 -1.63294
vt -0.64683 -1.68157
vt -0.10014 -1.66006
vt -0.10981 -1.68990
vt -0.12810 -1.64232
vt -0.15078 -1.71233
vt -0.40003 0.81478
vt -0.02259 0.65374
vt -0.02259 0.68705
vt -0.42043 0.85680
vt -0.54845 -1.69240
vt -0.56574 -1.62326
vt -0.55080 -1.60140
vt -0.52275 -1.71360
vt -0.57487 0.55080
vt -1.00108 0.41310
vt -0.57487 0.27336
vt -1.00108 0.13566
vt 0.41310 -1.75440
vt 0.39525 -1.82580
vt 0.13566 -1.75440
vt 0.11781 -1.82580
vt -0.87849 -0.39525
vt -0.46517 -0.52275
vt -0.46517 -0.24531
vt -0.87849 -0.11781
vt -0.27336 -1.60140
vt -0.24531 -1.71360
vt -0.09821 -0.82484
vt -0.49699 -1.02877
vt -0.09821 -0.83839
vt -0.48881 -1.03813
vt 0.64944 -1.66912
vt 0.64944 -1.74271
vt 0.63935 -1.73309
vt 0.63935 -1.67638
vt 0.74277 -1.55536
vt 0.31058 -1.53797
vt 0.73391 -1.54460
vt 0.31058 -1.52756
vt -0.26301 -1.61014
vt -0.23927 -1.70512
vt 0.22216 -1.50885
vt -0.16618 -1.61008
vt 0.22216 -1.43758
vt -0.16618 -1.64146
vt -0.15219 -1.59618
vt -0.15219 -1.49828
vt 0.24875 -1.67638
vt 0.24875 -1.73309
vt 0.20158 -1.65941
vt 0.20158 -1.63294
vt 0.62400 -1.70555
vt 0.64683 -1.68157
vt 0.10014 -1.66006
vt 0.12810 -1.64232
vt 0.10981 -1.68990
vt 0.15078 -1.71233
vt 0.40003 0.81478
vt 0.02259 0.68705
vt 0.02259 0.65374
vt 0.42043 0.85680
vt 0.54845 -1.69240
vt 0.55080 -1.60140
vt 0.56574 -1.62326
vt 0.52275 -1.71360
vt 0.57487 0.55080
vt 0.57487 0.27336
vt 1.00108 0.41310
vt 1.00108 0.13566
vt -0.41310 -1.75440
vt -0.13566 -1.75440
vt -0.39525 -1.82580
vt -0.11781 -1.82580
vt 0.87849 -0.39525
vt 0.46517 -0.24531
vt 0.46517 -0.52275
vt 0.87849 -0.11781
vt 0.27336 -1.60140
vt 0.24531 -1.71360
vt 0.09821 -0.82484
vt 0.09821 -0.83839
vt 0.49699 -1.02877
vt 0.48881 -1.03813
vt -0.64944 -1.66912
vt -0.63935 -1.73309
vt -0.64944 -1.74271
vt -0.63935 -1.67638
vt -0.74277 -1.55536
vt -0.73391 -1.54460
vt -0.31058 -1.53797
vt -0.31058 -1.52756
vt 0.26301 -1.61014
vt 0.23927 -1.70512
vt -0.22216 -1.50885
vt -0.22216 -1.43758
vt 0.16618 -1.61008
vt 0.16618 -1.64146
vt 0.15219 -1.59618
vt -0.24875 -1.67638
vt 0.15219 -1.49828
vt -0.24875 -1.73309
vn 0.1400 -0.7001 0.7001
vn 0.7682 0.0000 0.6402
vn 0.1400 0.7001 0.7001
vn -1.0000 0.0000 0.0000
vn 0.0000 -1.0000 0.0000
vn 1.0000 0.0000 0.0000
vn 0.0000 1.0000 0.0000
vn -0.1400 -0.7001 -0.7001
vn 0.6247 0.0000 -0.7809
vn -0.1400 0.7001 -0.7001
vn 0.1961 0.0000 0.9806
vn -0.1961 0.0000 -0.9806
vn -0.1400 -0.7001 0.7001
vn -0.7682 0.0000 0.6402
vn -0.1400 0.7001 0.7001
vn 0.1400 -0.7001 -0.7001
vn -0.6247 0.0000 -0.7809
vn 0.1400 0.7001 -0.7001
vn -0.1961 0.0000 0.9806
vn 0.1961 0.0000 -0.9806
vn 0.0000 -0.7784 0.6278
vn 0.6626 -0.3146 0.6797
vn 0.0000 0.6051 0.7962
vn -0.6951 0.0107 0.7188
vn 0.9749 -0.2228 0.0000
vn -0.9670 0.2549 0.0000
vn 0.0000 -0.6051 -0.7962
vn 0.6980 0.0123 -0.7160
vn 0.0000 0.7784 -0.6278
vn -0.6549 0.3352 -0.6773
vn 0.0000 -0.2334 0.9724
vn 0.0000 0.2334 -0.9724
vn -0.6626 -0.3146 0.6797
vn 0.6951 0.0107 0.7188
vn -0.9749 -0.2228 0.0000
vn 0.9670 0.2549 0.0000
vn -0.6980 0.0123 -0.7160
vn 0.6549 0.3352 -0.6773
vn 0.7857 0.2767 -0.5533
vn 0.1521 0.8206 -0.5509
vn -0.1439 0.9896 0.0000
vn 0.4605 -0.3970 0.7940
vn -0.4518 0.3923 0.8012
vn 0.3517 0.4186 -0.8373
vn -0.3517 -0.4186 0.8373
vn -0.7857 0.2767 -0.5533
vn -0.1521 0.8206 -0.5509
vn 0.1439 0.9896 0.0000
vn -0.4605 -0.3970 0.7940
vn 0.4518 0.3923 0.8012
vn -0.3517 0.4186 -0.8373
vn 0.3517 -0.4186 0.8373
vn 0.3673 -0.4444 -0.8171
vn 0.3682 -0.4498 -0.8137
vn 0.3552 -0.7593 -0.5452
vn 0.3610 -0.7570 -0.5446
vn 0.3734 -0.6317 -0.6794
vn 0.3628 -0.7563 -0.5444
vn 0.7947 -0.2351 -0.5596
vn 0.2316 -0.9728 0.0000
vn 0.2384 -0.9712 0.0000
vn 0.2430 -0.9700 0.0000
vn 0.2464 -0.9692 0.0000
vn -0.1627 -0.4774 0.8635
vn -0.1550 -0.4764 0.8654
vn -0.1504 -0.4759 0.8665
vn 0.4716 0.3415 0.8130
vn 0.3611 -0.3611 -0.8598
vn -0.3611 0.3611 0.8598
vn -0.3673 -0.4444 -0.8171
vn -0.3552 -0.7593 -0.5452
vn -0.3682 -0.4498 -0.8137
vn -0.3610 -0.7570 -0.5446
vn -0.3734 -0.6317 -0.6794
vn -0.3628 -0.7563 -0.5444
vn -0.7947 -0.2351 -0.5596
vn -0.2316 -0.9728 0.0000
vn -0.2384 -0.9712 0.0000
vn -0.2430 -0.9700 0.0000
vn -0.2464 -0.9692 0.0000
vn 0.1627 -0.4774 0.8635
vn 0.1550 -0.4764 0.8654
vn 0.1504 -0.4759 0.8665
vn -0.4716 0.3415 0.8130
vn -0.3611 -0.3611 -0.8598
vn 0.3611 0.3611 0.8598
vn 0.4492 -0.5041 -0.7376
vn 0.7715 0.1543 -0.6172
vn -0.0137 0.7714 -0.6362
vn 0.3590 -0.9333 0.0000
vn -0.2715 0.9624 0.0000
vn 0.0702 -0.7619 0.6439
vn 0.5883 -0.1961 0.7845
vn -0.3909 0.5341 0.7496
vn 0.2357 0.2357 -0.9428
vn -0.2357 -0.2357 0.9428
vn -0.4492 -0.5041 -0.7376
vn -0.7715 0.1543 -0.6172
vn 0.0137 0.7714 -0.6362
vn -0.3590 -0.9333 0.0000
vn 0.2715 0.9624 0.0000
vn -0.0702 -0.7619 0.6439
vn -0.5883 -0.1961 0.7845
vn 0.3909 0.5341 0.7496
vn -0.2357 0.2357 -0.9428
vn 0.2357 -0.2357 0.9428
s off
f 1/1/1 5/2/1 2/3/1
f 2/3/1 5/2/1 6/4/1
f 2/5/2 7/6/2 3/7/2
f 2/5/2 6/8/2 7/6/2
f 3/9/3 8/10/3 4/11/3
f 3/9/3 7/12/3 8/10/3
f 4/13/4 5/14/4 1/15/4
f 4/13/4 8/16/4 5/14/4
f 5/17/5 9/18/5 6/19/5
f 6/19/5 9/18/5 10/20/5
f 6/21/6 11/22/6 7/23/6
f 6/21/6 10/24/6 11/22/6
f 7/25/7 12/26/7 8/27/7
f 7/25/7 11/28/7 12/26/7
f 8/16/4 9/29/4 5/14/4
f 8/16/4 12/30/4 9/29/4
f 9/31/8 14/32/8 10/33/8
f 9/31/8 13/34/8 14/32/8
f 10/35/9 15/36/9 11/37/9
f 10/35/9 14/38/9 15/36/9
f 11/39/10 15/40/10 12/41/10
f 12/41/10 15/40/10 16/42/10
f 12/30/4 13/43/4 9/29/4
f 12/30/4 16/44/4 13/43/4
f 4/45/11 1/46/11 2/47/11
f 2/47/11 3/48/11 4/45/11
f 16/49/12 14/50/12 13/51/12
f 14/50/12 16/49/12 15/52/12
f 17/53/13 18/54/13 21/55/13
f 18/54/13 22/56/13 21/55/13
f 18/57/14 19/58/14 23/59/14
f 18/57/14 23/59/14 22/60/14
f 19/61/15 20/62/15 24/63/15
f 19/61/15 24/63/15 23/64/15
f 20/65/6 17/66/6 21/67/6
f 20/65/6 21/67/6 24/68/6
f 21/17/5 22/69/5 25/18/5
f 22/69/5 26/70/5 25/18/5
f 22/71/4 23/72/4 27/73/4
f 22/71/4 27/73/4 26/74/4
f 23/75/7 24/27/7 28/26/7
f 23/75/7 28/26/7 27/76/7
f 24/68/6 21/67/6 25/77/6
f 24/68/6 25/77/6 28/78/6
f 25/79/16 26/80/16 30/81/16
f 25/79/16 30/81/16 29/82/16
f 26/83/17 27/84/17 31/85/17
f 26/83/17 31/85/17 30/86/17
f 27/87/18 28/88/18 31/89/18
f 28/88/18 32/90/18 31/89/18
f 28/78/6 25/77/6 29/91/6
f 28/78/6 29/91/6 32/92/6
f 20/93/19 18/94/19 17/95/19
f 18/94/19 20/93/19 19/96/19
f 32/97/20 29/98/20 30/99/20
f 30/99/20 31/100/20 32/97/20
f 33/101/21 38/102/21 34/103/21
f 33/101/21 37/104/21 38/102/21
f 34/105/22 39/106/22 35/107/22
f 34/105/22 38/108/22 39/106/22
f 35/109/23 40/110/23 36/111/23
f 35/109/23 39/112/23 40/110/23
f 36/113/24 40/114/24 33/115/24
f 33/115/24 40/114/24 37/116/24
f 37/117/5 42/118/5 38/119/5
f 37/117/5 41/120/5 42/118/5
f 38/121/25 43/122/25 39/123/25
f 38/121/25 42/124/25 43/122/25
f 39/125/7 44/126/7 40/127/7
f 39/125/7 43/128/7 44/126/7
f 40/129/26 44/130/26 37/131/26
f 37/131/26 44/130/26 41/132/26
f 41/133/27 45/134/27 42/135/27
f 42/135/27 45/134/27 46/136/27
f 42/137/28 47/138/28 43/139/28
f 42/137/28 46/140/28 47/138/28
f 43/141/29 47/142/29 44/143/29
f 44/143/29 47/142/29 48/144/29
f 44/145/30 45/146/30 41/147/30
f 44/145/30 48/148/30 45/146/30
f 36/149/31 33/150/31 34/151/31
f 34/151/31 35/152/31 36/149/31
f 48/153/32 46/154/32 45/155/32
f 46/154/32 48/153/32 47/156/32
f 49/157/21 50/158/21 54/159/21
f 49/157/21 54/159/21 53/160/21
f 50/161/33 51/162/33 55/163/33
f 50/161/33 55/163/33 54/164/33
f 51/165/23 52/166/23 56/167/23
f 51/165/23 56/167/23 55/168/23
f 52/169/34 49/170/34 56/171/34
f 49/170/34 53/172/34 56/171/34
f 53/173/5 54/174/5 58/175/5
f 53/173/5 58/175/5 57/176/5
f 54/177/35 55/178/35 59/179/35
f 54/177/35 59/179/35 58/180/35
f 55/181/7 56/182/7 60/183/7
f 55/181/7 60/183/7 59/184/7
f 56/185/36 53/186/36 60/187/36
f 53/186/36 57/188/36 60/187/36
f 57/189/27 58/190/27 61/191/27
f 58/190/27 62/192/27 61/191/27
f 58/193/37 59/194/37 63/195/37
f 58/193/37 63/195/37 62/196/37
f 59/197/29 60/198/29 63/199/29
f 60/198/29 64/200/29 63/199/29
f 60/201/38 57/202/38 61/203/38
f 60/201/38 61/203/38 64/204/38
f 52/205/31 50/206/31 49/207/31
f 50/206/31 52/205/31 51/208/31
f 64/209/32 61/210/32 62/211/32
f 62/211/32 63/212/32 64/209/32
f 65/213/5 66/214/5 69/215/5
f 66/214/5 70/216/5 69/215/5
f 66/217/39 67/218/39 70/219/39
f 67/218/39 71/220/39 70/219/39
f 67/221/40 68/222/40 72/223/40
f 67/221/40 72/223/40 71/224/40
f 68/225/4 65/226/4 69/227/4
f 68/225/4 69/227/4 72/228/4
f 69/215/5 70/216/5 73/229/5
f 70/216/5 74/230/5 73/229/5
f 70/231/6 71/232/6 74/233/6
f 71/232/6 75/234/6 74/233/6
f 71/235/41 72/236/41 76/237/41
f 71/235/41 76/237/41 75/238/41
f 72/228/4 69/227/4 73/239/4
f 72/228/4 73/239/4 76/240/4
f 73/229/5 74/230/5 78/241/5
f 73/229/5 78/241/5 77/242/5
f 74/243/42 75/244/42 79/245/42
f 74/243/42 79/245/42 78/246/42
f 75/247/43 76/248/43 79/249/43
f 76/248/43 80/250/43 79/249/43
f 76/240/4 73/239/4 80/251/4
f 73/239/4 77/252/4 80/251/4
f 66/253/44 68/254/44 67/255/44
f 65/256/44 68/254/44 66/253/44
f 78/257/45 79/258/45 80/259/45
f 77/260/45 78/257/45 80/259/45
f 81/213/5 85/215/5 82/261/5
f 82/261/5 85/215/5 86/262/5
f 82/263/46 86/264/46 83/265/46
f 83/265/46 86/264/46 87/266/46
f 83/267/47 88/268/47 84/269/47
f 83/267/47 87/270/47 88/268/47
f 84/271/6 85/272/6 81/273/6
f 84/271/6 88/274/6 85/272/6
f 85/215/5 89/229/5 86/262/5
f 86/262/5 89/229/5 90/275/5
f 86/276/4 90/277/4 87/278/4
f 87/278/4 90/277/4 91/279/4
f 87/280/48 92/281/48 88/282/48
f 87/280/48 91/283/48 92/281/48
f 88/274/6 89/284/6 85/272/6
f 88/274/6 92/285/6 89/284/6
f 89/229/5 94/286/5 90/275/5
f 89/229/5 93/242/5 94/286/5
f 90/287/49 95/288/49 91/289/49
f 90/287/49 94/290/49 95/288/49
f 91/291/50 95/292/50 92/293/50
f 92/293/50 95/292/50 96/294/50
f 92/285/6 96/295/6 89/284/6
f 89/284/6 96/295/6 93/296/6
f 82/297/51 83/298/51 84/299/51
f 81/300/51 82/297/51 84/299/51
f 94/301/52 96/302/52 95/303/52
f 93/304/52 96/302/52 94/301/52
f 97/305/53 98/306/54 102/307/55
f 98/306/54 103/308/56 102/307/55
f 98/306/54 99/309/57 103/308/56
f 99/309/57 104/310/58 103/308/56
f 99/311/59 100/312/59 105/313/59
f 99/311/59 105/313/59 104/314/59
f 100/315/7 101/316/7 106/317/7
f 100/315/7 106/317/7 105/318/7
f 101/226/4 97/319/4 106/227/4
f 97/319/4 102/320/4 106/227/4
f 102/321/60 103/322/61 107/323/60
f 103/322/61 108/324/62 107/323/60
f 103/322/61 104/325/63 108/324/62
f 104/325/63 109/326/63 108/324/62
f 104/327/6 105/231/6 110/233/6
f 104/327/6 110/233/6 109/328/6
f 105/318/7 106/317/7 111/329/7
f 105/318/7 111/329/7 110/330/7
f 106/227/4 102/320/4 111/239/4
f 102/320/4 107/331/4 111/239/4
f 107/332/64 108/333/65 112/334/64
f 108/333/65 113/335/65 112/334/64
f 108/333/65 109/336/66 114/337/66
f 108/333/65 114/337/66 113/335/65
f 109/338/67 110/339/67 114/340/67
f 110/339/67 115/341/67 114/340/67
f 110/330/7 111/329/7 115/342/7
f 111/329/7 116/343/7 115/342/7
f 111/239/4 107/331/4 112/344/4
f 111/239/4 112/344/4 116/252/4
f 101/345/68 98/306/54 97/305/53
f 100/346/68 98/306/54 101/345/68
f 98/306/54 100/346/68 99/309/57
f 116/347/69 112/348/69 113/349/69
f 115/350/69 116/347/69 113/349/69
f 113/349/69 114/351/69 115/350/69
f 117/352/70 122/353/71 118/354/72
f 118/354/72 122/353/71 123/355/73
f 118/354/72 123/355/73 119/356/74
f 119/356/74 123/355/73 124/357/75
f 119/358/76 125/359/76 120/360/76
f 119/358/76 124/361/76 125/359/76
f 120/362/7 126/317/7 121/316/7
f 120/362/7 125/363/7 126/317/7
f 121/273/6 126/272/6 117/364/6
f 117/364/6 126/272/6 122/365/6
f 122/366/77 127/367/77 123/368/78
f 123/368/78 127/367/77 128/369/79
f 123/368/78 128/369/79 124/370/80
f 124/370/80 128/369/79 129/371/80
f 124/372/4 130/277/4 125/276/4
f 124/372/4 129/373/4 130/277/4
f 125/363/7 131/329/7 126/317/7
f 125/363/7 130/374/7 131/329/7
f 126/272/6 131/284/6 122/365/6
f 122/365/6 131/284/6 127/375/6
f 127/376/81 132/377/81 128/378/82
f 128/378/82 132/377/81 133/379/82
f 128/378/82 134/380/83 129/381/83
f 128/378/82 133/379/82 134/380/83
f 129/382/84 134/383/84 130/384/84
f 130/384/84 134/383/84 135/385/84
f 130/374/7 135/386/7 131/329/7
f 131/329/7 135/386/7 136/343/7
f 131/284/6 132/387/6 127/375/6
f 131/284/6 136/296/6 132/387/6
f 121/388/85 117/352/70 118/354/72
f 120/389/85 121/388/85 118/354/72
f 118/354/72 119/356/74 120/389/85
f 136/390/86 133/391/86 132/392/86
f 135/393/86 133/391/86 136/390/86
f 133/391/86 135/393/86 134/394/86
f 137/395/87 138/396/87 141/397/87
f 138/396/87 142/398/87 141/397/87
f 138/399/88 139/400/88 142/401/88
f 139/400/88 143/402/88 142/401/88
f 139/403/89 140/404/89 144/405/89
f 139/403/89 144/405/89 143/406/89
f 140/407/4 137/408/4 141/409/4
f 140/407/4 141/409/4 144/410/4
f 141/411/90 142/412/90 145/413/90
f 142/412/90 146/414/90 145/413/90
f 142/415/6 143/416/6 146/417/6
f 143/416/6 147/418/6 146/417/6
f 143/419/91 144/420/91 148/421/91
f 143/419/91 148/421/91 147/422/91
f 144/410/4 141/409/4 145/423/4
f 144/410/4 145/423/4 148/424/4
f 145/425/92 146/426/92 149/427/92
f 146/426/92 150/428/92 149/427/92
f 146/429/93 147/430/93 151/431/93
f 146/429/93 151/431/93 150/432/93
f 147/433/94 148/434/94 151/435/94
f 148/434/94 152/436/94 151/435/94
f 148/424/4 145/423/4 149/437/4
f 148/424/4 149/437/4 152/438/4
f 140/439/95 138/440/95 137/441/95
f 138/440/95 140/439/95 139/442/95
f 152/443/96 149/444/96 150/445/96
f 150/445/96 151/446/96 152/443/96
f 153/447/97 157/448/97 154/449/97
f 154/449/97 157/448/97 158/450/97
f 154/451/98 158/452/98 155/453/98
f 155/453/98 158/452/98 159/454/98
f 155/455/99 160/456/99 156/457/99
f 155/455/99 159/458/99 160/456/99
f 156/459/6 157/460/6 153/461/6
f 156/459/6 160/462/6 157/460/6
f 157/463/100 161/464/100 158/465/100
f 158/465/100 161/464/100 162/466/100
f 158/467/4 162/468/4 159/469/4
f 159/469/4 162/468/4 163/470/4
f 159/471/101 164/472/101 160/473/101
f 159/471/101 163/474/101 164/472/101
f 160/462/6 161/475/6 157/460/6
f 160/462/6 164/476/6 161/475/6
f 161/477/102 165/478/102 162/479/102
f 162/479/102 165/478/102 166/480/102
f 162/481/103 167/482/103 163/483/103
f 162/481/103 166/484/103 167/482/103
f 163/485/104 167/486/104 164/487/104
f 164/487/104 167/486/104 168/488/104
f 164/476/6 165/489/6 161/475/6
f 164/476/6 168/490/6 165/489/6
f 156/491/105 153/492/105 154/493/105
f 154/493/105 155/494/105 156/491/105
f 168/495/106 166/496/106 165/497/106
f 166/496/106 168/495/106 167/498/106
