# mech2 torso - segment chest, colour grey #8A8A8A
# units: studs, +Y up, -Z forward, origin = hip-joint line centre
o chest_grey
v -0.48960 9.95520 -0.61200
v 0.48960 9.95520 -0.61200
v 0.77520 9.95520 -0.32640
v 0.77520 9.95520 0.48960
v 0.48960 9.95520 0.77520
v -0.48960 9.95520 0.77520
v -0.77520 9.95520 0.48960
v -0.77520 9.95520 -0.32640
v -0.48960 10.40400 -0.61200
v 0.48960 10.40400 -0.61200
v 0.77520 10.40400 -0.32640
v 0.77520 10.40400 0.48960
v 0.48960 10.40400 0.77520
v -0.48960 10.40400 0.77520
v -0.77520 10.40400 0.48960
v -0.77520 10.40400 -0.32640
v -0.40800 10.56720 -0.48960
v 0.40800 10.56720 -0.48960
v 0.65280 10.56720 -0.24480
v 0.65280 10.56720 0.40800
v 0.40800 10.56720 0.65280
v -0.40800 10.56720 0.65280
v -0.65280 10.56720 0.40800
v -0.65280 10.56720 -0.24480
v 0.00000 7.25424 1.75440
v 1.88496 7.25424 1.75440
v 1.88496 9.87154 1.75440
v 1.41267 10.02110 1.75440
v 1.27964 10.60800 1.75440
v 0.00000 10.60800 1.75440
v 0.00000 7.14000 1.64016
v 1.99920 7.14000 1.64016
v 1.99920 9.95520 1.64016
v 1.50960 10.11024 1.64016
v 1.37088 10.72224 1.64016
v 0.00000 10.72224 1.64016
v 0.00000 7.14000 0.77520
v 1.99920 7.14000 0.77520
v 1.99920 9.95520 0.77520
v 1.50960 10.11024 0.77520
v 1.37088 10.72224 0.77520
v 0.00000 10.72224 0.77520
v 0.00000 7.18080 0.73440
v 1.95840 7.18080 0.73440
v 1.95840 9.92532 0.73440
v 1.47498 10.07841 0.73440
v 1.33829 10.68144 0.73440
v 0.00000 10.68144 0.73440
v -0.00000 7.25424 1.75440
v -1.88496 7.25424 1.75440
v -1.88496 9.87154 1.75440
v -1.41267 10.02110 1.75440
v -1.27964 10.60800 1.75440
v -0.00000 10.60800 1.75440
v -0.00000 7.14000 1.64016
v -1.99920 7.14000 1.64016
v -1.99920 9.95520 1.64016
v -1.50960 10.11024 1.64016
v -1.37088 10.72224 1.64016
v -0.00000 10.72224 1.64016
v -0.00000 7.14000 0.77520
v -1.99920 7.14000 0.77520
v -1.99920 9.95520 0.77520
v -1.50960 10.11024 0.77520
v -1.37088 10.72224 0.77520
v -0.00000 10.72224 0.77520
v -0.00000 7.18080 0.73440
v -1.95840 7.18080 0.73440
v -1.95840 9.92532 0.73440
v -1.47498 10.07841 0.73440
v -1.33829 10.68144 0.73440
v -0.00000 10.68144 0.73440
v 2.61120 9.78803 0.40677
v 2.61120 9.44357 0.75123
v 2.61120 8.95643 0.75123
v 2.61120 8.61197 0.40677
v 2.61120 8.61197 -0.08037
v 2.61120 8.95643 -0.42483
v 2.61120 9.44357 -0.42483
v 2.61120 9.78803 -0.08037
v 2.89680 9.82331 0.42138
v 2.89680 9.45818 0.78651
v 2.89680 8.94182 0.78651
v 2.89680 8.57669 0.42138
v 2.89680 8.57669 -0.09498
v 2.89680 8.94182 -0.46011
v 2.89680 9.45818 -0.46011
v 2.89680 9.82331 -0.09498
v 2.95392 9.78803 0.40677
v 2.95392 9.44357 0.75123
v 2.95392 8.95643 0.75123
v 2.95392 8.61197 0.40677
v 2.95392 8.61197 -0.08037
v 2.95392 8.95643 -0.42483
v 2.95392 9.44357 -0.42483
v 2.95392 9.78803 -0.08037
v -2.61120 9.78803 0.40677
v -2.61120 9.44357 0.75123
v -2.61120 8.95643 0.75123
v -2.61120 8.61197 0.40677
v -2.61120 8.61197 -0.08037
v -2.61120 8.95643 -0.42483
v -2.61120 9.44357 -0.42483
v -2.61120 9.78803 -0.08037
v -2.89680 9.82331 0.42138
v -2.89680 9.45818 0.78651
v -2.89680 8.94182 0.78651
v -2.89680 8.57669 0.42138
v -2.89680 8.57669 -0.09498
v -2.89680 8.94182 -0.46011
v -2.89680 9.45818 -0.46011
v -2.89680 9.82331 -0.09498
v -2.95392 9.78803 0.40677
v -2.95392 9.44357 0.75123
v -2.95392 8.95643 0.75123
v -2.95392 8.61197 0.40677
v -2.95392 8.61197 -0.08037
v -2.95392 8.95643 -0.42483
v -2.95392 9.44357 -0.42483
v -2.95392 9.78803 -0.08037
vt 0.12240 -2.48880
vt -0.12240 -2.60100
vt -0.12240 -2.48880
vt 0.12240 -2.60100
vt 0.02164 -2.48880
vt -0.07934 -2.60100
vt -0.07934 -2.48880
vt 0.02164 -2.60100
vt 0.08160 -2.48880
vt 0.08160 -2.60100
vt 0.05049 -2.48880
vt -0.05049 -2.60100
vt -0.05049 -2.48880
vt 0.05049 -2.60100
vt -0.08160 -2.60100
vt -0.08160 -2.48880
vt 0.07934 -2.48880
vt -0.02164 -2.60100
vt -0.02164 -2.48880
vt 0.07934 -2.60100
vt 0.12240 -1.98900
vt -0.10200 -2.04000
vt -0.12240 -1.98900
vt 0.10200 -2.04000
vt 1.02290 1.50536
vt 1.04695 1.55474
vt 0.93871 1.56111
vt 0.97479 1.60253
vt 0.08160 -1.96452
vt 0.06120 -2.01552
vt -0.12240 -1.96452
vt -0.10200 -2.01552
vt 0.95222 -1.52925
vt 1.06046 -1.52288
vt 1.03640 -1.47350
vt 0.98830 -1.57067
vt 0.12240 -1.96452
vt 0.10200 -2.01552
vt -1.03640 -1.47350
vt -0.98830 -1.57067
vt -0.95222 -1.52925
vt -1.06046 -1.52288
vt -0.06120 -2.01552
vt -0.08160 -1.96452
vt -0.93871 1.56111
vt -1.04695 1.55474
vt -1.02290 1.50536
vt -0.97479 1.60253
vt -0.12240 0.15300
vt -0.19380 0.08160
vt -0.19380 -0.12240
vt 0.12240 0.15300
vt -0.12240 -0.19380
vt 0.12240 -0.19380
vt 0.19380 -0.12240
vt 0.19380 0.08160
vt -0.10200 -0.12240
vt -0.16320 0.10200
vt -0.16320 -0.06120
vt 0.10200 -0.12240
vt -0.10200 0.16320
vt 0.10200 0.16320
vt 0.16320 -0.06120
vt 0.16320 0.10200
vt 0.00000 -1.59252
vt 0.00000 -1.55213
vt -0.47124 -1.59252
vt -0.49980 -1.55213
vt 0.02308 -1.81356
vt 0.06347 -2.48880
vt 0.02308 -2.46789
vt 0.06347 -1.78500
vt 0.02910 -1.48359
vt -0.06696 -1.54649
vt -0.09176 -1.51065
vt 0.05833 -1.51843
vt -0.41249 -2.35155
vt -0.37903 -2.37947
vt -0.45842 -2.49481
vt -0.42692 -2.52886
vt -0.31991 -1.56511
vt 0.00000 -1.60550
vt 0.00000 -1.56511
vt -0.34272 -1.60550
vt 0.43860 -2.65200
vt 0.41004 -2.68056
vt 0.43860 -1.81356
vt 0.41004 -1.78500
vt 0.00000 -0.41004
vt -0.49980 -0.19380
vt -0.49980 -0.41004
vt 0.00000 -0.19380
vt -0.41004 -1.78500
vt -0.19380 -2.48880
vt -0.41004 -2.48880
vt -0.19380 -1.78500
vt 0.27487 0.41004
vt 0.40326 0.19380
vt 0.40326 0.41004
vt 0.27487 0.19380
vt -0.41004 -2.38160
vt -0.19380 -2.53848
vt -0.41004 -2.53848
vt -0.19380 -2.38160
vt -0.34272 0.41004
vt 0.00000 0.19380
vt 0.00000 0.41004
vt -0.34272 0.19380
vt 0.19380 -1.78500
vt 0.19380 -2.68056
vt 0.00000 1.12515
vt -0.48960 1.13957
vt -0.49980 1.12515
vt 0.00000 1.13957
vt -0.49045 -1.78500
vt -0.47602 -1.79520
vt -0.49045 -2.48880
vt -0.47602 -2.48133
vt -0.15163 -1.93510
vt -0.14119 -1.92265
vt -0.02634 -1.96315
vt -0.01748 -1.95035
vt -0.02757 -2.50981
vt 0.03157 -2.64704
vt 0.02032 -2.65920
vt -0.01562 -2.49984
vt -0.34272 2.03248
vt -0.33457 2.01805
vt 0.00000 2.03248
vt 0.00000 2.01805
vt 0.18360 -1.79520
vt 0.18360 -2.67036
vt 0.00000 -1.81356
vt 0.47124 -1.81356
vt 0.47124 -2.46789
vt 0.31991 -2.65200
vt 0.00000 -2.65200
vt 0.35317 -2.50528
vt 0.00000 -1.79520
vt -0.48960 -2.48133
vt -0.48960 -1.79520
vt -0.33457 -2.67036
vt 0.00000 -2.67036
vt -0.36875 -2.51960
vt 0.47124 -1.59252
vt 0.49980 -1.55213
vt -0.02308 -1.81356
vt -0.02308 -2.46789
vt -0.06347 -2.48880
vt -0.06347 -1.78500
vt -0.02910 -1.48359
vt 0.09176 -1.51065
vt 0.06696 -1.54649
vt -0.05833 -1.51843
vt 0.41249 -2.35155
vt 0.45842 -2.49481
vt 0.37903 -2.37947
vt 0.42692 -2.52886
vt 0.31991 -1.56511
vt 0.34272 -1.60550
vt -0.43860 -2.65200
vt -0.43860 -1.81356
vt -0.41004 -2.68056
vt 0.49980 -0.41004
vt 0.49980 -0.19380
vt 0.41004 -2.48880
vt 0.19380 -2.48880
vt -0.27487 0.41004
vt -0.40326 0.41004
vt -0.40326 0.19380
vt -0.27487 0.19380
vt 0.41004 -2.38160
vt 0.41004 -2.53848
vt 0.19380 -2.53848
vt 0.19380 -2.38160
vt 0.34272 0.41004
vt 0.34272 0.19380
vt -0.19380 -2.68056
vt 0.49980 1.12515
vt 0.48960 1.13957
vt 0.49045 -1.78500
vt 0.49045 -2.48880
vt 0.47602 -1.79520
vt 0.47602 -2.48133
vt 0.15163 -1.93510
vt 0.02634 -1.96315
vt 0.14119 -1.92265
vt 0.01748 -1.95035
vt 0.02757 -2.50981
vt -0.02032 -2.65920
vt -0.03157 -2.64704
vt 0.01562 -2.49984
vt 0.34272 2.03248
vt 0.33457 2.01805
vt -0.18360 -1.79520
vt -0.18360 -2.67036
vt -0.47124 -2.46789
vt -0.47124 -1.81356
vt -0.31991 -2.65200
vt -0.35317 -2.50528
vt 0.48960 -1.79520
vt 0.48960 -2.48133
vt 0.33457 -2.67036
vt 0.36875 -2.51960
vt -0.86883 -1.65839
vt -0.86883 -1.53660
vt -0.94077 -1.53295
vt -0.94077 -1.66204
vt 0.67090 -2.36089
vt 0.67090 -2.23911
vt 0.74284 -2.23545
vt 0.74284 -2.36455
vt 0.47004 -1.71609
vt 0.47004 -1.59430
vt 0.54198 -1.71974
vt 0.54198 -1.59065
vt -0.38391 -0.10169
vt -0.38391 0.02009
vt -0.45585 0.02375
vt -0.45585 -0.10535
vt -0.46297 -1.53660
vt -0.46297 -1.65839
vt -0.53491 -1.66204
vt -0.53491 -1.53295
vt -0.66090 -2.23911
vt -0.66090 -2.36089
vt -0.73284 -2.36455
vt -0.73284 -2.23545
vt -0.86176 1.59430
vt -0.86176 1.71609
vt -0.93370 1.59065
vt -0.93370 1.71974
vt -0.94789 -0.02009
vt -0.94789 0.10169
vt -1.01983 0.10535
vt -1.01983 -0.02375
vt 0.33558 -1.66204
vt 0.33558 -1.53295
vt 0.31879 -1.65839
vt 0.31879 -1.53660
vt 0.51281 -2.36455
vt 0.51281 -2.23545
vt 0.52959 -2.23911
vt 0.52959 -2.36089
vt 1.37375 -1.71974
vt 1.37375 -1.59065
vt 1.39054 -1.59430
vt 1.39054 -1.71609
vt -1.74293 -0.10535
vt -1.74293 0.02375
vt -1.75971 0.02009
vt -1.75971 -0.10169
vt -1.40408 -1.53295
vt -1.40408 -1.66204
vt -1.42086 -1.53660
vt -1.42086 -1.65839
vt -0.55569 -2.23545
vt -0.55569 -2.36455
vt -0.57247 -2.36089
vt -0.57247 -2.23911
vt 0.30526 1.59065
vt 0.30526 1.71974
vt 0.28847 1.71609
vt 0.28847 1.59430
vt 0.67443 -0.02375
vt 0.67443 0.10535
vt 0.65765 0.10169
vt 0.65765 -0.02009
vt -0.02009 -2.15299
vt -0.10621 -2.36089
vt -0.10621 -2.23911
vt -0.02009 -2.44701
vt 0.10169 -2.15299
vt 0.10169 -2.44701
vt 0.18781 -2.36089
vt 0.18781 -2.23911
vt 0.02009 -2.15299
vt 0.10621 -2.23911
vt 0.10621 -2.36089
vt 0.02009 -2.44701
vt -0.10169 -2.15299
vt -0.10169 -2.44701
vt -0.18781 -2.36089
vt -0.18781 -2.23911
vt 0.86883 -1.65839
vt 0.94077 -1.53295
vt 0.86883 -1.53660
vt 0.94077 -1.66204
vt -0.67090 -2.36089
vt -0.74284 -2.23545
vt -0.67090 -2.23911
vt -0.74284 -2.36455
vt -0.47004 -1.71609
vt -0.54198 -1.71974
vt -0.47004 -1.59430
vt -0.54198 -1.59065
vt 0.38391 -0.10169
vt 0.45585 0.02375
vt 0.38391 0.02009
vt 0.45585 -0.10535
vt 0.46297 -1.53660
vt 0.53491 -1.66204
vt 0.46297 -1.65839
vt 0.53491 -1.53295
vt 0.66090 -2.23911
vt 0.73284 -2.36455
vt 0.66090 -2.36089
vt 0.73284 -2.23545
vt 0.86176 1.59430
vt 0.93370 1.59065
vt 0.86176 1.71609
vt 0.93370 1.71974
vt 0.94789 -0.02009
vt 1.01983 0.10535
vt 0.94789 0.10169
vt 1.01983 -0.02375
vt -0.33558 -1.66204
vt -0.31879 -1.65839
vt -0.33558 -1.53295
vt -0.31879 -1.53660
vt -0.51281 -2.36455
vt -0.52959 -2.23911
vt -0.51281 -2.23545
vt -0.52959 -2.36089
vt -1.37375 -1.71974
vt -1.39054 -1.59430
vt -1.37375 -1.59065
vt -1.39054 -1.71609
vt 1.74293 -0.10535
vt 1.75971 0.02009
vt 1.74293 0.02375
vt 1.75971 -0.10169
vt 1.40408 -1.53295
vt 1.42086 -1.53660
vt 1.40408 -1.66204
vt 1.42086 -1.65839
vt 0.55569 -2.23545
vt 0.57247 -2.36089
vt 0.55569 -2.36455
vt 0.57247 -2.23911
vt -0.30526 1.59065
vt -0.28847 1.71609
vt -0.30526 1.71974
vt -0.28847 1.59430
vt -0.67443 -0.02375
vt -0.65765 0.10169
vt -0.67443 0.10535
vt -0.65765 -0.02009
vn 0.0000 0.0000 -1.0000
vn 0.7071 0.0000 -0.7071
vn 1.0000 0.0000 0.0000
vn 0.7071 0.0000 0.7071
vn 0.0000 0.0000 1.0000
vn -0.7071 0.0000 0.7071
vn -1.0000 0.0000 0.0000
vn -0.7071 0.0000 -0.7071
vn 0.0000 0.6000 -0.8000
vn 0.5298 0.6623 -0.5298
vn 0.8000 0.6000 0.0000
vn 0.5298 0.6623 0.5298
vn 0.0000 0.6000 0.8000
vn -0.5298 0.6623 0.5298
vn -0.8000 0.6000 0.0000
vn -0.5298 0.6623 -0.5298
vn 0.0000 -1.0000 0.0000
vn 0.0000 1.0000 0.0000
vn 0.0000 -0.7071 0.7071
vn 0.2135 0.6741 0.7071
vn 0.6896 0.1563 0.7071
vn 0.0000 0.7071 0.7071
vn 0.3019 0.9533 0.0000
vn 0.9753 0.2211 0.0000
vn 0.0000 -0.7071 -0.7071
vn 0.2135 0.6741 -0.7071
vn 0.6896 0.1563 -0.7071
vn 0.0000 0.7071 -0.7071
vn -0.2135 0.6741 0.7071
vn -0.6896 0.1563 0.7071
vn -0.3019 0.9533 0.0000
vn -0.9753 0.2211 0.0000
vn -0.2135 0.6741 -0.7071
vn -0.6896 0.1563 -0.7071
vn -0.1226 0.7018 0.7018
vn -0.1226 0.0000 0.9925
vn -0.1226 -0.7018 0.7018
vn -0.1226 -0.9925 0.0000
vn -0.1226 -0.7018 -0.7018
vn -0.1226 0.0000 -0.9925
vn -0.1226 0.7018 -0.7018
vn -0.1226 0.9925 0.0000
vn 0.5255 0.6016 0.6016
vn 0.5255 0.0000 0.8508
vn 0.5255 -0.6016 0.6016
vn 0.5255 -0.8508 0.0000
vn 0.5255 -0.6016 -0.6016
vn 0.5255 0.0000 -0.8508
vn 0.5255 0.6016 -0.6016
vn 0.5255 0.8508 0.0000
vn 0.1226 0.7018 0.7018
vn 0.1226 0.0000 0.9925
vn 0.1226 -0.7018 0.7018
vn 0.1226 -0.9925 0.0000
vn 0.1226 -0.7018 -0.7018
vn 0.1226 0.0000 -0.9925
vn 0.1226 0.7018 -0.7018
vn 0.1226 0.9925 0.0000
vn -0.5255 0.6016 0.6016
vn -0.5255 0.0000 0.8508
vn -0.5255 -0.6016 0.6016
vn -0.5255 -0.8508 0.0000
vn -0.5255 -0.6016 -0.6016
vn -0.5255 0.0000 -0.8508
vn -0.5255 0.6016 -0.6016
vn -0.5255 0.8508 0.0000
s off
f 1/1/1 10/2/1 2/3/1
f 1/1/1 9/4/1 10/2/1
f 2/5/2 11/6/2 3/7/2
f 2/5/2 10/8/2 11/6/2
f 3/9/3 12/2/3 4/3/3
f 3/9/3 11/10/3 12/2/3
f 4/11/4 13/12/4 5/13/4
f 4/11/4 12/14/4 13/12/4
f 5/1/5 14/2/5 6/3/5
f 5/1/5 13/4/5 14/2/5
f 6/11/6 15/12/6 7/13/6
f 6/11/6 14/14/6 15/12/6
f 7/1/7 16/15/7 8/16/7
f 7/1/7 15/4/7 16/15/7
f 8/17/8 9/18/8 1/19/8
f 8/17/8 16/20/8 9/18/8
f 9/21/9 18/22/9 10/23/9
f 9/21/9 17/24/9 18/22/9
f 10/25/10 18/26/10 11/27/10
f 11/27/10 18/26/10 19/28/10
f 11/29/11 19/30/11 12/31/11
f 12/31/11 19/30/11 20/32/11
f 12/33/12 21/34/12 13/35/12
f 12/33/12 20/36/12 21/34/12
f 13/37/13 22/32/13 14/31/13
f 13/37/13 21/38/13 22/32/13
f 14/39/14 23/40/14 15/41/14
f 14/39/14 22/42/14 23/40/14
f 15/37/15 24/43/15 16/44/15
f 15/37/15 23/38/15 24/43/15
f 16/45/16 17/46/16 9/47/16
f 16/45/16 24/48/16 17/46/16
f 2/49/17 3/50/17 4/51/17
f 1/52/17 2/49/17 4/51/17
f 1/52/17 4/51/17 5/53/17
f 1/52/17 5/53/17 6/54/17
f 1/52/17 6/54/17 7/55/17
f 1/52/17 7/55/17 8/56/17
f 18/57/18 20/58/18 19/59/18
f 17/60/18 20/58/18 18/57/18
f 17/60/18 21/61/18 20/58/18
f 17/60/18 22/62/18 21/61/18
f 24/63/18 22/62/18 17/60/18
f 22/62/18 24/63/18 23/64/18
f 25/65/19 31/66/19 26/67/19
f 26/67/19 31/66/19 32/68/19
f 26/69/4 33/70/4 27/71/4
f 26/69/4 32/72/4 33/70/4
f 27/73/20 34/74/20 28/75/20
f 27/73/20 33/76/20 34/74/20
f 28/77/21 34/78/21 29/79/21
f 29/79/21 34/78/21 35/80/21
f 29/81/22 36/82/22 30/83/22
f 29/81/22 35/84/22 36/82/22
f 30/85/7 36/86/7 25/87/7
f 25/87/7 36/86/7 31/88/7
f 31/89/17 38/90/17 32/91/17
f 31/89/17 37/92/17 38/90/17
f 32/93/3 39/94/3 33/95/3
f 32/93/3 38/96/3 39/94/3
f 33/97/23 40/98/23 34/99/23
f 33/97/23 39/100/23 40/98/23
f 34/101/24 41/102/24 35/103/24
f 34/101/24 40/104/24 41/102/24
f 35/105/18 42/106/18 36/107/18
f 35/105/18 41/108/18 42/106/18
f 36/86/7 37/109/7 31/88/7
f 36/86/7 42/110/7 37/109/7
f 37/111/25 44/112/25 38/113/25
f 37/111/25 43/114/25 44/112/25
f 38/115/2 44/116/2 39/117/2
f 39/117/2 44/116/2 45/118/2
f 39/119/26 45/120/26 40/121/26
f 40/121/26 45/120/26 46/122/26
f 40/123/27 47/124/27 41/125/27
f 40/123/27 46/126/27 47/124/27
f 41/127/28 47/128/28 42/129/28
f 42/129/28 47/128/28 48/130/28
f 42/110/7 43/131/7 37/109/7
f 42/110/7 48/132/7 43/131/7
f 25/133/5 26/134/5 27/135/5
f 29/136/5 30/137/5 25/133/5
f 25/133/5 27/135/5 28/138/5
f 25/133/5 28/138/5 29/136/5
f 43/139/1 45/140/1 44/141/1
f 47/142/1 43/139/1 48/143/1
f 43/139/1 46/144/1 45/140/1
f 43/139/1 47/142/1 46/144/1
f 49/65/19 50/145/19 55/66/19
f 50/145/19 56/146/19 55/66/19
f 50/147/6 51/148/6 57/149/6
f 50/147/6 57/149/6 56/150/6
f 51/151/29 52/152/29 58/153/29
f 51/151/29 58/153/29 57/154/29
f 52/155/30 53/156/30 58/157/30
f 53/156/30 59/158/30 58/157/30
f 53/159/22 54/83/22 60/82/22
f 53/159/22 60/82/22 59/160/22
f 54/161/3 49/162/3 60/163/3
f 49/162/3 55/93/3 60/163/3
f 55/89/17 56/164/17 62/165/17
f 55/89/17 62/165/17 61/92/17
f 56/88/7 57/166/7 63/167/7
f 56/88/7 63/167/7 62/109/7
f 57/168/31 58/169/31 64/170/31
f 57/168/31 64/170/31 63/171/31
f 58/172/32 59/173/32 65/174/32
f 58/172/32 65/174/32 64/175/32
f 59/176/18 60/107/18 66/106/18
f 59/176/18 66/106/18 65/177/18
f 60/163/3 55/93/3 61/96/3
f 60/163/3 61/96/3 66/178/3
f 61/111/25 62/179/25 68/180/25
f 61/111/25 68/180/25 67/114/25
f 62/181/8 63/182/8 68/183/8
f 63/182/8 69/184/8 68/183/8
f 63/185/33 64/186/33 69/187/33
f 64/186/33 70/188/33 69/187/33
f 64/189/34 65/190/34 71/191/34
f 64/189/34 71/191/34 70/192/34
f 65/193/28 66/129/28 71/194/28
f 66/129/28 72/130/28 71/194/28
f 66/178/3 61/96/3 67/195/3
f 66/178/3 67/195/3 72/196/3
f 49/133/5 51/197/5 50/198/5
f 53/199/5 49/133/5 54/137/5
f 49/133/5 52/200/5 51/197/5
f 49/133/5 53/199/5 52/200/5
f 67/139/1 68/201/1 69/202/1
f 71/203/1 72/143/1 67/139/1
f 67/139/1 69/202/1 70/204/1
f 67/139/1 70/204/1 71/203/1
f 73/205/35 74/206/35 82/207/35
f 73/205/35 82/207/35 81/208/35
f 74/209/36 75/210/36 83/211/36
f 74/209/36 83/211/36 82/212/36
f 75/213/37 76/214/37 83/215/37
f 76/214/37 84/216/37 83/215/37
f 76/217/38 77/218/38 85/219/38
f 76/217/38 85/219/38 84/220/38
f 77/221/39 78/222/39 86/223/39
f 77/221/39 86/223/39 85/224/39
f 78/225/40 79/226/40 87/227/40
f 78/225/40 87/227/40 86/228/40
f 79/229/41 80/230/41 87/231/41
f 80/230/41 88/232/41 87/231/41
f 80/233/42 73/234/42 81/235/42
f 80/233/42 81/235/42 88/236/42
f 81/237/43 82/238/43 89/239/43
f 82/238/43 90/240/43 89/239/43
f 82/241/44 83/242/44 91/243/44
f 82/241/44 91/243/44 90/244/44
f 83/245/45 84/246/45 92/247/45
f 83/245/45 92/247/45 91/248/45
f 84/249/46 85/250/46 93/251/46
f 84/249/46 93/251/46 92/252/46
f 85/253/47 86/254/47 93/255/47
f 86/254/47 94/256/47 93/255/47
f 86/257/48 87/258/48 95/259/48
f 86/257/48 95/259/48 94/260/48
f 87/261/49 88/262/49 96/263/49
f 87/261/49 96/263/49 95/264/49
f 88/265/50 81/266/50 89/267/50
f 88/265/50 89/267/50 96/268/50
f 77/269/7 79/270/7 78/271/7
f 77/269/7 80/272/7 79/270/7
f 76/273/7 80/272/7 77/269/7
f 76/273/7 73/274/7 80/272/7
f 76/273/7 74/275/7 73/274/7
f 74/275/7 76/273/7 75/276/7
f 93/277/3 94/278/3 95/279/3
f 93/277/3 95/279/3 96/280/3
f 92/281/3 93/277/3 96/280/3
f 92/281/3 96/280/3 89/282/3
f 92/281/3 89/282/3 90/283/3
f 90/283/3 91/284/3 92/281/3
f 97/285/51 106/286/51 98/287/51
f 97/285/51 105/288/51 106/286/51
f 98/289/52 107/290/52 99/291/52
f 98/289/52 106/292/52 107/290/52
f 99/293/53 107/294/53 100/295/53
f 100/295/53 107/294/53 108/296/53
f 100/297/54 109/298/54 101/299/54
f 100/297/54 108/300/54 109/298/54
f 101/301/55 110/302/55 102/303/55
f 101/301/55 109/304/55 110/302/55
f 102/305/56 111/306/56 103/307/56
f 102/305/56 110/308/56 111/306/56
f 103/309/57 111/310/57 104/311/57
f 104/311/57 111/310/57 112/312/57
f 104/313/58 105/314/58 97/315/58
f 104/313/58 112/316/58 105/314/58
f 105/317/59 113/318/59 106/319/59
f 106/319/59 113/318/59 114/320/59
f 106/321/60 115/322/60 107/323/60
f 106/321/60 114/324/60 115/322/60
f 107/325/61 116/326/61 108/327/61
f 107/325/61 115/328/61 116/326/61
f 108/329/62 117/330/62 109/331/62
f 108/329/62 116/332/62 117/330/62
f 109/333/63 117/334/63 110/335/63
f 110/335/63 117/334/63 118/336/63
f 110/337/64 119/338/64 111/339/64
f 110/337/64 118/340/64 119/338/64
f 111/341/65 120/342/65 112/343/65
f 111/341/65 119/344/65 120/342/65
f 112/345/66 113/346/66 105/347/66
f 112/345/66 120/348/66 113/346/66
f 101/277/3 102/278/3 103/279/3
f 101/277/3 103/279/3 104/280/3
f 100/281/3 101/277/3 104/280/3
f 100/281/3 104/280/3 97/282/3
f 100/281/3 97/282/3 98/283/3
f 98/283/3 99/284/3 100/281/3
f 117/269/7 119/270/7 118/271/7
f 117/269/7 120/272/7 119/270/7
f 116/273/7 120/272/7 117/269/7
f 116/273/7 113/274/7 120/272/7
f 116/273/7 114/275/7 113/274/7
f 114/275/7 116/273/7 115/276/7
