# mech2 torso - segment chest, colour darkgrey #5A5A5A
# units: studs, +Y up, -Z forward, origin = hip-joint line centre
o chest_darkgrey
v -2.24400 7.22160 -0.89760
v 2.24400 7.22160 -0.89760
v 2.24400 9.99600 -0.89760
v -2.24400 9.99600 -0.89760
v -2.40720 7.05840 -0.73440
v 2.40720 7.05840 -0.73440
v 2.40720 10.15920 -0.73440
v -2.40720 10.15920 -0.73440
v -2.40720 7.05840 1.06080
v 2.40720 7.05840 1.06080
v 2.40720 10.15920 1.06080
v -2.40720 10.15920 1.06080
v -2.24400 7.22160 1.22400
v 2.24400 7.22160 1.22400
v 2.24400 9.99600 1.22400
v -2.24400 9.99600 1.22400
vt 0.56100 1.43529
vt -0.56100 1.43529
vt -0.60180 1.37759
vt 0.60180 1.37759
vt -0.23801 -1.80540
vt -0.23801 -2.49900
vt -0.29571 -2.53980
vt -0.29571 -1.76460
vt -0.56100 1.60839
vt 0.56100 1.60839
vt 0.60180 1.66608
vt -0.60180 1.66608
vt 0.23801 -2.49900
vt 0.23801 -1.80540
vt 0.29571 -1.76460
vt 0.29571 -2.53980
vt 0.60180 0.18360
vt -0.60180 0.18360
vt -0.60180 -0.26520
vt 0.60180 -0.26520
vt 0.18360 -1.76460
vt 0.18360 -2.53980
vt -0.26520 -2.53980
vt -0.26520 -1.76460
vt -0.60180 -0.18360
vt 0.60180 -0.18360
vt 0.60180 0.26520
vt -0.60180 0.26520
vt -0.18360 -2.53980
vt -0.18360 -1.76460
vt 0.26520 -1.76460
vt 0.26520 -2.53980
vt 0.60180 -1.43529
vt -0.60180 -1.43529
vt -0.56100 -1.49299
vt 0.56100 -1.49299
vt 0.23801 -1.76460
vt 0.23801 -2.53980
vt 0.18031 -2.49900
vt 0.18031 -1.80540
vt -0.60180 -1.60839
vt 0.60180 -1.60839
vt 0.56100 -1.55069
vt -0.56100 -1.55069
vt -0.23801 -2.53980
vt -0.23801 -1.76460
vt -0.18031 -1.80540
vt -0.18031 -2.49900
vt 0.56100 -2.49900
vt -0.56100 -1.80540
vt 0.56100 -1.80540
vt -0.56100 -2.49900
vn 0.0000 -0.7071 -0.7071
vn 0.7071 -0.0000 -0.7071
vn 0.0000 0.7071 -0.7071
vn -0.7071 0.0000 -0.7071
vn 0.0000 -1.0000 0.0000
vn 1.0000 0.0000 0.0000
vn 0.0000 1.0000 0.0000
vn -1.0000 0.0000 0.0000
vn 0.0000 -0.7071 0.7071
vn 0.7071 -0.0000 0.7071
vn 0.0000 0.7071 0.7071
vn -0.7071 0.0000 0.7071
vn 0.0000 0.0000 -1.0000
vn 0.0000 0.0000 1.0000
s off
f 1/1/1 2/2/1 6/3/1
f 1/1/1 6/3/1 5/4/1
f 2/5/2 3/6/2 7/7/2
f 2/5/2 7/7/2 6/8/2
f 3/9/3 4/10/3 8/11/3
f 3/9/3 8/11/3 7/12/3
f 4/13/4 1/14/4 5/15/4
f 4/13/4 5/15/4 8/16/4
f 5/17/5 6/18/5 10/19/5
f 5/17/5 10/19/5 9/20/5
f 6/21/6 7/22/6 11/23/6
f 6/21/6 11/23/6 10/24/6
f 7/25/7 8/26/7 12/27/7
f 7/25/7 12/27/7 11/28/7
f 8/29/8 5/30/8 9/31/8
f 8/29/8 9/31/8 12/32/8
f 9/33/9 10/34/9 14/35/9
f 9/33/9 14/35/9 13/36/9
f 10/37/10 11/38/10 15/39/10
f 10/37/10 15/39/10 14/40/10
f 11/41/11 12/42/11 16/43/11
f 11/41/11 16/43/11 15/44/11
f 12/45/12 9/46/12 13/47/12
f 12/45/12 13/47/12 16/48/12
f 4/49/13 2/50/13 1/51/13
f 2/50/13 4/49/13 3/52/13
f 16/52/14 13/50/14 14/51/14
f 14/51/14 15/49/14 16/52/14
