# mech2 torso - segment chest, colour blue #2F6FBF
# units: studs, +Y up, -Z forward, origin = hip-joint line centre
o chest_blue
v 2.17056 7.84176 -1.02000
v 2.66016 7.84176 -1.02000
v 2.66016 9.89077 -1.02000
v 2.17056 9.99721 -1.02000
v 2.04000 7.71120 -0.88944
v 2.79072 7.71120 -0.88944
v 2.79072 9.99600 -0.88944
v 2.04000 10.15920 -0.88944
v 2.04000 7.71120 1.74624
v 2.79072 7.71120 1.74624
v 2.79072 9.99600 1.74624
v 2.04000 10.15920 1.74624
v 2.17056 7.84176 1.87680
v 2.66016 7.84176 1.87680
v 2.66016 9.89077 1.87680
v 2.17056 9.99721 1.87680
v -2.17056 9.99721 -1.02000
v -2.66016 9.89077 -1.02000
v -2.66016 7.84176 -1.02000
v -2.17056 7.84176 -1.02000
v -2.04000 10.15920 -0.88944
v -2.79072 9.99600 -0.88944
v -2.79072 7.71120 -0.88944
v -2.04000 7.71120 -0.88944
v -2.04000 10.15920 1.74624
v -2.79072 9.99600 1.74624
v -2.79072 7.71120 1.74624
v -2.04000 7.71120 1.74624
v -2.17056 9.99721 1.87680
v -2.66016 9.89077 1.87680
v -2.66016 7.84176 1.87680
v -2.17056 7.84176 1.87680
v 1.29651 6.50824 1.79520
v 1.80261 6.53987 1.79520
v 1.98999 7.16448 1.79520
v 1.10902 7.16448 1.79520
v 1.22400 6.40560 1.69728
v 1.87680 6.44640 1.69728
v 2.12160 7.26240 1.69728
v 0.97920 7.26240 1.69728
v 1.22400 6.40560 0.85680
v 1.87680 6.44640 0.85680
v 2.12160 7.26240 0.85680
v 0.97920 7.26240 0.85680
v 1.25421 6.44837 0.81600
v 1.84589 6.48535 0.81600
v 2.06676 7.22160 0.81600
v 1.03329 7.22160 0.81600
v -1.29651 6.50824 1.79520
v -1.80261 6.53987 1.79520
v -1.98999 7.16448 1.79520
v -1.10902 7.16448 1.79520
v -1.22400 6.40560 1.69728
v -1.87680 6.44640 1.69728
v -2.12160 7.26240 1.69728
v -0.97920 7.26240 1.69728
v -1.22400 6.40560 0.85680
v -1.87680 6.44640 0.85680
v -2.12160 7.26240 0.85680
v -0.97920 7.26240 0.85680
v -1.25421 6.44837 0.81600
v -1.84589 6.48535 0.81600
v -2.06676 7.22160 0.81600
v -1.03329 7.22160 0.81600
v 0.00000 9.46811 -1.67280
v 1.38720 9.81491 -1.36762
v 1.38720 10.03001 -1.36762
v 0.46955 9.95660 -1.56950
v 0.00000 9.74317 -1.67280
v 0.00000 9.38400 -1.59120
v 1.46880 9.75120 -1.26806
v 1.46880 10.11840 -1.26806
v 0.44880 10.03680 -1.49246
v 0.00000 9.83280 -1.59120
v 0.00000 9.38400 -0.48960
v 1.46880 9.75120 -0.16646
v 1.46880 10.11840 -0.16646
v 0.44880 10.03680 -0.39086
v 0.00000 9.83280 -0.48960
v 0.00000 9.42606 -0.44880
v 1.42800 9.78306 -0.13464
v 1.42800 10.07421 -0.13464
v 0.45918 9.99670 -0.34778
v 0.00000 9.78798 -0.44880
v -0.00000 9.46811 -1.67280
v -1.38720 9.81491 -1.36762
v -1.38720 10.03001 -1.36762
v -0.46955 9.95660 -1.56950
v -0.00000 9.74317 -1.67280
v -0.00000 9.38400 -1.59120
v -1.46880 9.75120 -1.26806
v -1.46880 10.11840 -1.26806
v -0.44880 10.03680 -1.49246
v -0.00000 9.83280 -1.59120
v -0.00000 9.38400 -0.48960
v -1.46880 9.75120 -0.16646
v -1.46880 10.11840 -0.16646
v -0.44880 10.03680 -0.39086
v -0.00000 9.83280 -0.48960
v -0.00000 9.42606 -0.44880
v -1.42800 9.78306 -0.13464
v -1.42800 10.07421 -0.13464
v -0.45918 9.99670 -0.34778
v -0.00000 9.78798 -0.44880
v 1.64804 6.42730 -1.54719
v 2.03659 6.88060 -1.46948
v 2.01051 7.11532 -1.47470
v 1.38340 6.92719 -1.60012
v 1.63200 6.28320 -1.46880
v 2.12160 6.85440 -1.37088
v 2.08080 7.22160 -1.37904
v 1.26480 6.97680 -1.54224
v 1.63200 6.28320 -0.52224
v 2.12160 6.85440 -0.42432
v 2.08080 7.22160 -0.43248
v 1.26480 6.97680 -0.59568
v 1.63842 6.34084 -0.48832
v 2.08759 6.86488 -0.39848
v 2.05268 7.17909 -0.40546
v 1.31224 6.95695 -0.55355
v -1.64804 6.42730 -1.54719
v -2.03659 6.88060 -1.46948
v -2.01051 7.11532 -1.47470
v -1.38340 6.92719 -1.60012
v -1.63200 6.28320 -1.46880
v -2.12160 6.85440 -1.37088
v -2.08080 7.22160 -1.37904
v -1.26480 6.97680 -1.54224
v -1.63200 6.28320 -0.52224
v -2.12160 6.85440 -0.42432
v -2.08080 7.22160 -0.43248
v -1.26480 6.97680 -0.59568
v -1.63842 6.34084 -0.48832
v -2.08759 6.86488 -0.39848
v -2.05268 7.17909 -0.40546
v -1.31224 6.95695 -0.55355
vt -0.54264 1.56655
vt -0.66504 1.56655
vt -0.69768 1.52039
vt -0.51000 1.52039
vt -0.28994 -1.96044
vt -0.28994 -2.47269
vt -0.33610 -2.49900
vt -0.33610 -1.92780
vt -0.37051 -1.59030
vt -0.24671 -1.60934
vt -0.40353 -1.63193
vt -0.21369 -1.66111
vt -0.56402 -2.49930
vt -0.56402 -1.96044
vt -0.51786 -1.92780
vt -0.51786 -2.53980
vt -0.51000 0.22236
vt -0.69768 0.22236
vt -0.69768 -0.43656
vt -0.51000 -0.43656
vt 0.22236 -1.92780
vt 0.22236 -2.49900
vt -0.43656 -2.49900
vt -0.43656 -1.92780
vt -0.15089 -0.22236
vt 0.04117 -0.22236
vt 0.04117 0.43656
vt -0.15089 0.43656
vt -0.22236 -2.53980
vt -0.22236 -1.92780
vt 0.43656 -1.92780
vt 0.43656 -2.53980
vt -0.51000 -1.67185
vt -0.69768 -1.67185
vt -0.54264 -1.71801
vt -0.66504 -1.71801
vt 0.18464 -1.92780
vt 0.18464 -2.49900
vt 0.13848 -1.96044
vt 0.13848 -2.47269
vt 0.38051 -1.48223
vt 0.19068 -1.51141
vt 0.22369 -1.45963
vt 0.34750 -1.44060
vt 0.66932 -2.53980
vt 0.66932 -1.92780
vt 0.71548 -2.49930
vt 0.71548 -1.96044
vt -0.66504 -2.47269
vt -0.54264 -1.96044
vt -0.54264 -2.49930
vt -0.66504 -1.96044
vt 0.66504 -2.47269
vt 0.54264 -2.49930
vt 0.54264 -1.96044
vt 0.66504 -1.96044
vt 0.24671 -1.60934
vt 0.37051 -1.59030
vt 0.40353 -1.63193
vt 0.21369 -1.66111
vt 0.28994 -2.47269
vt 0.28994 -1.96044
vt 0.33610 -2.49900
vt 0.33610 -1.92780
vt 0.66504 1.56655
vt 0.54264 1.56655
vt 0.69768 1.52039
vt 0.51000 1.52039
vt 0.56402 -1.96044
vt 0.56402 -2.49930
vt 0.51786 -1.92780
vt 0.51786 -2.53980
vt -0.04117 -0.22236
vt 0.15089 -0.22236
vt 0.15089 0.43656
vt -0.04117 0.43656
vt -0.22236 -2.49900
vt 0.43656 -2.49900
vt 0.69768 0.22236
vt 0.51000 0.22236
vt 0.51000 -0.43656
vt 0.69768 -0.43656
vt 0.22236 -2.53980
vt -0.43656 -2.53980
vt -0.19068 -1.51141
vt -0.38051 -1.48223
vt -0.22369 -1.45963
vt -0.34750 -1.44060
vt -0.18464 -2.49900
vt -0.18464 -1.92780
vt -0.13848 -1.96044
vt -0.13848 -2.47269
vt 0.69768 -1.67185
vt 0.51000 -1.67185
vt 0.54264 -1.71801
vt 0.66504 -1.71801
vt -0.66932 -1.92780
vt -0.66932 -2.53980
vt -0.71548 -2.49930
vt -0.71548 -1.96044
vt 0.36050 -1.46867
vt 0.50571 -1.44043
vt 0.48715 -1.47426
vt 0.34235 -1.43321
vt 0.34523 -1.69533
vt 0.37044 -1.66611
vt 0.40890 -1.84541
vt 0.45362 -1.86217
vt -0.49750 -0.94916
vt -0.24480 -0.98378
vt -0.27725 -0.94916
vt -0.53040 -0.98378
vt 0.17495 -1.84602
vt 0.21415 -1.65659
vt 0.23887 -1.68782
vt 0.13069 -1.86314
vt -0.40530 -0.42432
vt -0.56882 -0.21420
vt -0.56882 -0.42432
vt -0.40530 -0.21420
vt -0.42432 -1.67846
vt -0.21420 -1.89144
vt -0.42432 -1.89144
vt -0.21420 -1.67846
vt -0.53040 0.42432
vt -0.24480 0.21420
vt -0.24480 0.42432
vt -0.53040 0.21420
vt 0.42432 -1.67849
vt 0.21420 -1.45572
vt 0.42432 -1.45572
vt 0.21420 -1.67849
vt -0.36229 -0.98215
vt -0.36985 -0.99692
vt -0.52565 -0.98937
vt -0.51791 -1.00347
vt -0.78608 -1.48977
vt -0.85063 -1.67885
vt -0.86926 -1.68583
vt -0.77557 -1.50194
vt -0.53040 1.43529
vt -0.51669 1.42086
vt -0.24480 1.43529
vt -0.25832 1.42086
vt 0.28793 -1.69399
vt 0.26949 -1.68686
vt 0.20447 -1.48745
vt 0.19417 -1.50046
vt 0.49750 -1.79112
vt 0.27725 -1.79112
vt 0.32413 -1.62706
vt 0.45065 -1.63497
vt -0.51669 -1.80540
vt -0.31355 -1.61209
vt -0.25832 -1.80540
vt -0.46147 -1.62134
vt -0.36050 -1.46867
vt -0.48715 -1.47426
vt -0.50571 -1.44043
vt -0.34235 -1.43321
vt -0.34523 -1.69533
vt -0.40890 -1.84541
vt -0.37044 -1.66611
vt -0.45362 -1.86217
vt 0.49750 -0.94916
vt 0.27725 -0.94916
vt 0.24480 -0.98378
vt 0.53040 -0.98378
vt -0.17495 -1.84602
vt -0.23887 -1.68782
vt -0.21415 -1.65659
vt -0.13069 -1.86314
vt 0.40530 -0.42432
vt 0.56882 -0.42432
vt 0.56882 -0.21420
vt 0.40530 -0.21420
vt 0.42432 -1.67846
vt 0.42432 -1.89144
vt 0.21420 -1.89144
vt 0.21420 -1.67846
vt 0.53040 0.42432
vt 0.24480 0.42432
vt 0.24480 0.21420
vt 0.53040 0.21420
vt -0.42432 -1.67849
vt -0.42432 -1.45572
vt -0.21420 -1.45572
vt -0.21420 -1.67849
vt 0.36229 -0.98215
vt 0.52565 -0.98937
vt 0.36985 -0.99692
vt 0.51791 -1.00347
vt 0.78608 -1.48977
vt 0.86926 -1.68583
vt 0.85063 -1.67885
vt 0.77557 -1.50194
vt 0.53040 1.43529
vt 0.24480 1.43529
vt 0.51669 1.42086
vt 0.25832 1.42086
vt -0.28793 -1.69399
vt -0.20447 -1.48745
vt -0.26949 -1.68686
vt -0.19417 -1.50046
vt -0.49750 -1.79112
vt -0.32413 -1.62706
vt -0.27725 -1.79112
vt -0.45065 -1.63497
vt 0.51669 -1.80540
vt 0.25832 -1.80540
vt 0.31355 -1.61209
vt 0.46147 -1.62134
vt -0.42473 -1.99011
vt -0.79014 -1.99921
vt -0.42473 -1.96081
vt -0.81163 -1.97045
vt 0.04458 -2.45373
vt 0.04458 -2.50750
vt 0.01240 -2.43780
vt 0.01240 -2.52960
vt -0.30940 -1.56460
vt -0.07959 -1.51632
vt -0.07440 -1.54412
vt -0.32984 -1.59779
vt 0.03743 -1.46002
vt 0.03745 -1.49031
vt -0.41820 -2.43579
vt -0.41820 -2.36703
vt -0.39780 -2.34600
vt -0.39780 -2.45820
vt -0.56899 0.39780
vt -0.94749 0.31702
vt -0.56899 0.12240
vt -0.94749 0.04162
vt 0.31702 -2.43780
vt 0.31702 -2.52960
vt 0.04162 -2.52960
vt 0.04162 -2.43780
vt -0.84327 -0.31702
vt -0.58907 -0.37312
vt -0.58907 -0.09772
vt -0.84327 -0.04162
vt -0.46920 -0.39780
vt -0.46920 -0.12240
vt -0.12240 -2.34600
vt -0.12240 -2.45820
vt 0.02784 -1.59859
vt 0.39509 -1.72073
vt 0.38489 -1.73199
vt 0.02784 -1.61324
vt 0.31513 -2.43780
vt 0.31513 -2.52960
vt 0.30220 -2.51855
vt 0.30220 -2.44576
vt 0.84207 -1.84648
vt 0.58207 -1.87084
vt 0.83173 -1.83301
vt 0.58478 -1.85615
vt 0.45940 -1.85137
vt 0.45927 -1.83622
vt -0.11220 -2.44700
vt -0.11220 -2.35651
vt -0.03034 -2.48915
vt 0.08986 -2.36703
vt 0.08986 -2.43579
vt -0.26524 -2.45373
vt -0.26524 -2.50750
vt 0.09343 -2.49917
vt -0.02411 -2.44700
vt -0.02411 -2.35651
vt 0.34143 -2.44576
vt 0.34143 -2.51855
vt 0.42473 -1.99011
vt 0.42473 -1.96081
vt 0.79014 -1.99921
vt 0.81163 -1.97045
vt -0.04458 -2.45373
vt -0.01240 -2.43780
vt -0.04458 -2.50750
vt -0.01240 -2.52960
vt 0.30940 -1.56460
vt 0.07440 -1.54412
vt 0.07959 -1.51632
vt 0.32984 -1.59779
vt -0.03745 -1.49031
vt -0.03743 -1.46002
vt 0.41820 -2.43579
vt 0.39780 -2.34600
vt 0.41820 -2.36703
vt 0.39780 -2.45820
vt 0.56899 0.39780
vt 0.56899 0.12240
vt 0.94749 0.31702
vt 0.94749 0.04162
vt -0.31702 -2.43780
vt -0.04162 -2.52960
vt -0.31702 -2.52960
vt -0.04162 -2.43780
vt 0.84327 -0.31702
vt 0.58907 -0.09772
vt 0.58907 -0.37312
vt 0.84327 -0.04162
vt 0.46920 -0.12240
vt 0.46920 -0.39780
vt 0.12240 -2.34600
vt 0.12240 -2.45820
vt -0.02784 -1.59859
vt -0.38489 -1.73199
vt -0.39509 -1.72073
vt -0.02784 -1.61324
vt -0.31513 -2.43780
vt -0.30220 -2.51855
vt -0.31513 -2.52960
vt -0.30220 -2.44576
vt -0.84207 -1.84648
vt -0.83173 -1.83301
vt -0.58207 -1.87084
vt -0.58478 -1.85615
vt -0.45940 -1.85137
vt -0.45927 -1.83622
vt 0.11220 -2.44700
vt 0.11220 -2.35651
vt 0.03034 -2.48915
vt -0.08986 -2.43579
vt -0.08986 -2.36703
vt 0.26524 -2.45373
vt 0.26524 -2.50750
vt -0.09343 -2.49917
vt 0.02411 -2.35651
vt 0.02411 -2.44700
vt -0.34143 -2.44576
vt -0.34143 -2.51855
vt 0.43288 -1.64452
vt 0.38645 -1.78590
vt 0.35330 -1.78776
vt 0.41181 -1.60960
vt 0.40610 -1.83791
vt 0.38404 -1.86912
vt -0.59585 -1.02960
vt -0.43876 -0.97395
vt -0.40906 -0.99291
vt -0.61346 -1.06533
vt -0.09837 -1.73812
vt -0.17619 -1.61932
vt -0.06349 -1.74322
vt -0.17147 -1.57838
vt 0.36720 -1.45816
vt 0.34272 -1.64624
vt 0.13056 -1.45816
vt 0.10608 -1.64624
vt 0.34272 -1.64455
vt 0.34476 -1.73691
vt 0.10812 -1.73691
vt 0.10608 -1.64455
vt -1.01704 -0.34476
vt -0.80406 -0.38556
vt -0.80406 -0.14892
vt -1.01704 -0.10812
vt -0.38556 -1.39356
vt -0.36720 -1.19736
vt -0.14892 -1.39356
vt -0.13056 -1.19736
vt 0.77952 -1.24534
vt 0.91470 -1.37838
vt 0.78129 -1.26204
vt 0.90531 -1.38410
vt 0.36518 -1.71489
vt 0.35219 -1.80636
vt 0.34323 -1.79505
vt 0.35435 -1.71679
vt 0.87937 -1.37860
vt 0.66310 -1.36262
vt 0.67567 -1.35175
vt 0.87192 -1.36625
vt 0.52087 -1.47602
vt 0.54493 -1.28043
vt 0.55604 -1.29303
vt 0.53467 -1.46676
vt -0.26068 -1.73180
vt -0.42721 -1.72015
vt -0.32815 -1.60683
vt -0.42056 -1.77883
vt 0.29455 -1.73924
vt 0.37771 -1.58521
vt 0.49223 -1.71622
vt 0.48333 -1.79477
vt -0.43288 -1.64452
vt -0.35330 -1.78776
vt -0.38645 -1.78590
vt -0.41181 -1.60960
vt -0.40610 -1.83791
vt -0.38404 -1.86912
vt 0.59585 -1.02960
vt 0.40906 -0.99291
vt 0.43876 -0.97395
vt 0.61346 -1.06533
vt 0.09837 -1.73812
vt 0.06349 -1.74322
vt 0.17619 -1.61932
vt 0.17147 -1.57838
vt -0.36720 -1.45816
vt -0.13056 -1.45816
vt -0.34272 -1.64624
vt -0.10608 -1.64624
vt -0.34272 -1.64455
vt -0.10812 -1.73691
vt -0.34476 -1.73691
vt -0.10608 -1.64455
vt 1.01704 -0.34476
vt 0.80406 -0.14892
vt 0.80406 -0.38556
vt 1.01704 -0.10812
vt 0.38556 -1.39356
vt 0.14892 -1.39356
vt 0.36720 -1.19736
vt 0.13056 -1.19736
vt -0.77952 -1.24534
vt -0.78129 -1.26204
vt -0.91470 -1.37838
vt -0.90531 -1.38410
vt -0.36518 -1.71489
vt -0.34323 -1.79505
vt -0.35219 -1.80636
vt -0.35435 -1.71679
vt -0.87937 -1.37860
vt -0.67567 -1.35175
vt -0.66310 -1.36262
vt -0.87192 -1.36625
vt -0.52087 -1.47602
vt -0.55604 -1.29303
vt -0.54493 -1.28043
vt -0.53467 -1.46676
vt 0.26068 -1.73180
vt 0.32815 -1.60683
vt 0.42721 -1.72015
vt 0.42056 -1.77883
vt -0.29455 -1.73924
vt -0.49223 -1.71622
vt -0.37771 -1.58521
vt -0.48333 -1.79477
vn 0.0000 -0.7071 -0.7071
vn 0.7071 0.0000 -0.7071
vn 0.1502 0.6910 -0.7071
vn -0.7071 0.0000 -0.7071
vn 0.0000 -1.0000 0.0000
vn 1.0000 0.0000 0.0000
vn 0.2124 0.9772 0.0000
vn -1.0000 0.0000 0.0000
vn 0.0000 -0.7071 0.7071
vn 0.7071 0.0000 0.7071
vn 0.1502 0.6910 0.7071
vn -0.7071 0.0000 0.7071
vn 0.0000 0.0000 -1.0000
vn 0.0000 0.0000 1.0000
vn -0.1502 0.6910 -0.7071
vn -0.2124 0.9772 0.0000
vn -0.1502 0.6910 0.7071
vn 0.0441 -0.7057 0.7071
vn 0.6773 -0.2032 0.7071
vn 0.0000 0.7071 0.7071
vn -0.6799 -0.1943 0.7071
vn 0.0624 -0.9981 0.0000
vn 0.9578 -0.2873 0.0000
vn 0.0000 1.0000 0.0000
vn -0.9615 -0.2747 0.0000
vn 0.0441 -0.7057 -0.7071
vn 0.6773 -0.2032 -0.7071
vn 0.0000 0.7071 -0.7071
vn -0.6799 -0.1943 -0.7071
vn -0.0441 -0.7057 0.7071
vn -0.6773 -0.2032 0.7071
vn 0.6799 -0.1943 0.7071
vn -0.0624 -0.9981 0.0000
vn -0.9578 -0.2873 0.0000
vn 0.9615 -0.2747 0.0000
vn -0.0441 -0.7057 -0.7071
vn -0.6773 -0.2032 -0.7071
vn 0.6799 -0.1943 -0.7071
vn 0.3151 -0.6608 -0.6812
vn 0.7734 0.0000 -0.6339
vn 0.0988 0.7025 -0.7048
vn -0.0249 0.6892 -0.7242
vn 0.0519 0.6987 -0.7135
vn -0.1419 0.6664 -0.7320
vn 0.2425 -0.9701 0.0000
vn -0.0797 0.9968 0.0000
vn -0.2474 0.9689 0.0000
vn -0.1460 0.9893 0.0000
vn -0.4138 0.9104 0.0000
vn 0.0162 -0.6962 0.7176
vn 0.6150 0.0000 0.7885
vn -0.2077 0.6906 0.6928
vn -0.2529 0.6771 0.6911
vn -0.3214 0.6533 0.6855
vn -0.4244 0.6096 0.6696
vn 0.2149 -0.0000 -0.9766
vn -0.2149 -0.0000 0.9766
vn -0.3151 -0.6608 -0.6812
vn -0.7734 0.0000 -0.6339
vn -0.0988 0.7025 -0.7048
vn -0.0519 0.6987 -0.7135
vn 0.0249 0.6892 -0.7242
vn 0.1419 0.6664 -0.7320
vn -0.2425 -0.9701 0.0000
vn 0.0797 0.9968 0.0000
vn 0.1460 0.9893 0.0000
vn 0.2474 0.9689 0.0000
vn 0.4138 0.9104 0.0000
vn -0.0162 -0.6962 0.7176
vn -0.6150 0.0000 0.7885
vn 0.2077 0.6906 0.6928
vn 0.2529 0.6771 0.6911
vn 0.3214 0.6533 0.6855
vn 0.4244 0.6096 0.6696
vn -0.2149 -0.0000 -0.9766
vn 0.2149 -0.0000 0.9766
vn 0.6266 -0.4251 -0.6532
vn 0.6851 -0.2906 -0.6679
vn 0.6899 -0.2774 -0.6686
vn 0.7647 0.0707 -0.6405
vn -0.0630 0.6903 -0.7207
vn -0.5265 -0.3603 -0.7700
vn 0.7593 -0.6508 0.0000
vn 0.9939 0.1104 0.0000
vn -0.2873 0.9578 0.0000
vn -0.8838 -0.4679 0.0000
vn 0.4244 -0.4939 0.7589
vn 0.6195 0.0862 0.7803
vn -0.3320 0.6525 0.6812
vn -0.7005 -0.3024 0.6464
vn 0.1961 0.0000 -0.9806
vn -0.1961 -0.0000 0.9806
vn -0.6266 -0.4251 -0.6532
vn -0.6899 -0.2774 -0.6686
vn -0.6851 -0.2906 -0.6679
vn -0.7647 0.0707 -0.6405
vn 0.0630 0.6903 -0.7207
vn 0.5265 -0.3603 -0.7700
vn -0.7593 -0.6508 0.0000
vn -0.9939 0.1104 0.0000
vn 0.2873 0.9578 0.0000
vn 0.8838 -0.4679 0.0000
vn -0.4244 -0.4939 0.7589
vn -0.6195 0.0862 0.7803
vn 0.3320 0.6525 0.6812
vn 0.7005 -0.3024 0.6464
vn -0.1961 0.0000 -0.9806
vn 0.1961 -0.0000 0.9806
s off
f 1/1/1 2/2/1 6/3/1
f 1/1/1 6/3/1 5/4/1
f 2/5/2 3/6/2 7/7/2
f 2/5/2 7/7/2 6/8/2
f 3/9/3 4/10/3 7/11/3
f 4/10/3 8/12/3 7/11/3
f 4/13/4 1/14/4 5/15/4
f 4/13/4 5/15/4 8/16/4
f 5/17/5 6/18/5 10/19/5
f 5/17/5 10/19/5 9/20/5
f 6/21/6 7/22/6 11/23/6
f 6/21/6 11/23/6 10/24/6
f 7/25/7 8/26/7 12/27/7
f 7/25/7 12/27/7 11/28/7
f 8/29/8 5/30/8 9/31/8
f 8/29/8 9/31/8 12/32/8
f 9/33/9 10/34/9 13/35/9
f 10/34/9 14/36/9 13/35/9
f 10/37/10 11/38/10 14/39/10
f 11/38/10 15/40/10 14/39/10
f 11/41/11 12/42/11 16/43/11
f 11/41/11 16/43/11 15/44/11
f 12/45/12 9/46/12 16/47/12
f 9/46/12 13/48/12 16/47/12
f 3/49/13 1/50/13 4/51/13
f 1/50/13 3/49/13 2/52/13
f 15/53/14 16/54/14 13/55/14
f 13/55/14 14/56/14 15/53/14
f 17/57/15 18/58/15 22/59/15
f 17/57/15 22/59/15 21/60/15
f 18/61/4 19/62/4 22/63/4
f 19/62/4 23/64/4 22/63/4
f 19/65/1 20/66/1 23/67/1
f 20/66/1 24/68/1 23/67/1
f 20/69/2 17/70/2 24/71/2
f 17/70/2 21/72/2 24/71/2
f 21/73/16 22/74/16 26/75/16
f 21/73/16 26/75/16 25/76/16
f 22/77/8 23/30/8 27/31/8
f 22/77/8 27/31/8 26/78/8
f 23/79/5 24/80/5 28/81/5
f 23/79/5 28/81/5 27/82/5
f 24/21/6 21/83/6 25/84/6
f 24/21/6 25/84/6 28/24/6
f 25/85/17 26/86/17 29/87/17
f 26/86/17 30/88/17 29/87/17
f 26/89/12 27/90/12 31/91/12
f 26/89/12 31/91/12 30/92/12
f 27/93/9 28/94/9 32/95/9
f 27/93/9 32/95/9 31/96/9
f 28/97/10 25/98/10 29/99/10
f 28/97/10 29/99/10 32/100/10
f 20/55/13 18/53/13 17/54/13
f 18/53/13 20/55/13 19/56/13
f 32/50/14 29/51/14 30/49/14
f 30/49/14 31/52/14 32/50/14
f 33/101/18 38/102/18 34/103/18
f 33/101/18 37/104/18 38/102/18
f 34/105/19 38/106/19 35/107/19
f 35/107/19 38/106/19 39/108/19
f 35/109/20 40/110/20 36/111/20
f 35/109/20 39/112/20 40/110/20
f 36/113/21 37/114/21 33/115/21
f 36/113/21 40/116/21 37/114/21
f 37/117/22 42/118/22 38/119/22
f 37/117/22 41/120/22 42/118/22
f 38/121/23 43/122/23 39/123/23
f 38/121/23 42/124/23 43/122/23
f 39/125/24 44/126/24 40/127/24
f 39/125/24 43/128/24 44/126/24
f 40/129/25 41/130/25 37/131/25
f 40/129/25 44/132/25 41/130/25
f 41/133/26 45/134/26 42/135/26
f 42/135/26 45/134/26 46/136/26
f 42/137/27 47/138/27 43/139/27
f 42/137/27 46/140/27 47/138/27
f 43/141/28 47/142/28 44/143/28
f 44/143/28 47/142/28 48/144/28
f 44/145/29 48/146/29 41/147/29
f 41/147/29 48/146/29 45/148/29
f 35/149/14 36/150/14 33/151/14
f 33/151/14 34/152/14 35/149/14
f 47/153/13 45/154/13 48/155/13
f 45/154/13 47/153/13 46/156/13
f 49/157/30 50/158/30 54/159/30
f 49/157/30 54/159/30 53/160/30
f 50/161/31 51/162/31 54/163/31
f 51/162/31 55/164/31 54/163/31
f 51/165/20 52/166/20 56/167/20
f 51/165/20 56/167/20 55/168/20
f 52/169/32 49/170/32 53/171/32
f 52/169/32 53/171/32 56/172/32
f 53/173/33 54/174/33 58/175/33
f 53/173/33 58/175/33 57/176/33
f 54/177/34 55/178/34 59/179/34
f 54/177/34 59/179/34 58/180/34
f 55/181/24 56/182/24 60/183/24
f 55/181/24 60/183/24 59/184/24
f 56/185/35 53/186/35 57/187/35
f 56/185/35 57/187/35 60/188/35
f 57/189/36 58/190/36 61/191/36
f 58/190/36 62/192/36 61/191/36
f 58/193/37 59/194/37 63/195/37
f 58/193/37 63/195/37 62/196/37
f 59/197/28 60/198/28 63/199/28
f 60/198/28 64/200/28 63/199/28
f 60/201/38 57/202/38 64/203/38
f 57/202/38 61/204/38 64/203/38
f 51/205/14 49/206/14 52/207/14
f 49/206/14 51/205/14 50/208/14
f 63/209/13 64/210/13 61/211/13
f 61/211/13 62/212/13 63/209/13
f 65/213/39 66/214/39 70/215/39
f 66/214/39 71/216/39 70/215/39
f 66/217/40 67/218/40 71/219/40
f 67/218/40 72/220/40 71/219/40
f 67/221/41 68/222/42 73/223/43
f 67/221/41 73/223/43 72/224/41
f 68/222/42 69/225/44 74/226/44
f 68/222/42 74/226/44 73/223/43
f 69/227/8 65/228/8 70/229/8
f 69/227/8 70/229/8 74/230/8
f 70/231/45 71/232/45 75/233/45
f 71/232/45 76/234/45 75/233/45
f 71/235/6 72/236/6 77/237/6
f 71/235/6 77/237/6 76/238/6
f 72/239/46 73/240/47 78/241/48
f 72/239/46 78/241/48 77/242/46
f 73/240/47 74/243/49 79/244/49
f 73/240/47 79/244/49 78/241/48
f 74/230/8 70/229/8 75/245/8
f 74/230/8 75/245/8 79/246/8
f 75/247/50 76/248/50 81/249/50
f 75/247/50 81/249/50 80/250/50
f 76/251/51 77/252/51 82/253/51
f 76/251/51 82/253/51 81/254/51
f 77/255/52 78/256/53 82/257/52
f 78/256/53 83/258/54 82/257/52
f 78/256/53 79/259/55 83/258/54
f 79/259/55 84/260/55 83/258/54
f 79/246/8 75/245/8 84/261/8
f 75/245/8 80/262/8 84/261/8
f 68/263/56 65/264/56 69/265/56
f 68/263/56 66/266/56 65/264/56
f 66/266/56 68/263/56 67/267/56
f 83/268/57 84/269/57 80/270/57
f 83/268/57 80/270/57 81/271/57
f 81/271/57 82/272/57 83/268/57
f 85/273/58 90/274/58 86/275/58
f 86/275/58 90/274/58 91/276/58
f 86/277/59 91/278/59 87/279/59
f 87/279/59 91/278/59 92/280/59
f 87/281/60 93/282/61 88/283/62
f 87/281/60 92/284/60 93/282/61
f 88/283/62 94/285/63 89/286/63
f 88/283/62 93/282/61 94/285/63
f 89/287/6 90/288/6 85/289/6
f 89/287/6 94/290/6 90/288/6
f 90/291/64 95/292/64 91/293/64
f 91/293/64 95/292/64 96/294/64
f 91/295/8 97/296/8 92/297/8
f 91/295/8 96/298/8 97/296/8
f 92/299/65 98/300/66 93/301/67
f 92/299/65 97/302/65 98/300/66
f 93/301/67 99/303/68 94/304/68
f 93/301/67 98/300/66 99/303/68
f 94/290/6 95/305/6 90/288/6
f 94/290/6 99/306/6 95/305/6
f 95/307/69 101/308/69 96/309/69
f 95/307/69 100/310/69 101/308/69
f 96/311/70 102/312/70 97/313/70
f 96/311/70 101/314/70 102/312/70
f 97/315/71 102/316/71 98/317/72
f 98/317/72 102/316/71 103/318/73
f 98/317/72 103/318/73 99/319/74
f 99/319/74 103/318/73 104/320/74
f 99/306/6 104/321/6 95/305/6
f 95/305/6 104/321/6 100/322/6
f 88/323/75 89/324/75 85/325/75
f 88/323/75 85/325/75 86/326/75
f 86/326/75 87/327/75 88/323/75
f 103/328/76 100/329/76 104/330/76
f 103/328/76 101/331/76 100/329/76
f 101/331/76 103/328/76 102/332/76
f 105/333/77 106/334/78 110/335/79
f 105/333/77 110/335/79 109/336/77
f 106/334/78 107/337/80 110/335/79
f 107/337/80 111/338/80 110/335/79
f 107/339/81 108/340/81 112/341/81
f 107/339/81 112/341/81 111/342/81
f 108/343/82 105/344/82 112/345/82
f 105/344/82 109/346/82 112/345/82
f 109/347/83 110/348/83 113/349/83
f 110/348/83 114/350/83 113/349/83
f 110/351/84 111/352/84 115/353/84
f 110/351/84 115/353/84 114/354/84
f 111/355/85 112/356/85 116/357/85
f 111/355/85 116/357/85 115/358/85
f 112/359/86 109/360/86 116/361/86
f 109/360/86 113/362/86 116/361/86
f 113/363/87 114/364/87 117/365/87
f 114/364/87 118/366/87 117/365/87
f 114/367/88 115/368/88 119/369/88
f 114/367/88 119/369/88 118/370/88
f 115/371/89 116/372/89 120/373/89
f 115/371/89 120/373/89 119/374/89
f 116/375/90 113/376/90 117/377/90
f 116/375/90 117/377/90 120/378/90
f 108/379/91 106/380/91 105/381/91
f 106/380/91 108/379/91 107/382/91
f 120/383/92 117/384/92 118/385/92
f 118/385/92 119/386/92 120/383/92
f 121/387/93 126/388/94 122/389/95
f 121/387/93 125/390/93 126/388/94
f 122/389/95 126/388/94 123/391/96
f 123/391/96 126/388/94 127/392/96
f 123/393/97 128/394/97 124/395/97
f 123/393/97 127/396/97 128/394/97
f 124/397/98 128/398/98 121/399/98
f 121/399/98 128/398/98 125/400/98
f 125/401/99 129/402/99 126/403/99
f 126/403/99 129/402/99 130/404/99
f 126/405/100 131/406/100 127/407/100
f 126/405/100 130/408/100 131/406/100
f 127/409/101 132/410/101 128/411/101
f 127/409/101 131/412/101 132/410/101
f 128/413/102 132/414/102 125/415/102
f 125/415/102 132/414/102 129/416/102
f 129/417/103 133/418/103 130/419/103
f 130/419/103 133/418/103 134/420/103
f 130/421/104 135/422/104 131/423/104
f 130/421/104 134/424/104 135/422/104
f 131/425/105 136/426/105 132/427/105
f 131/425/105 135/428/105 136/426/105
f 132/429/106 133/430/106 129/431/106
f 132/429/106 136/432/106 133/430/106
f 124/433/107 121/434/107 122/435/107
f 122/435/107 123/436/107 124/433/107
f 136/437/108 134/438/108 133/439/108
f 134/438/108 136/437/108 135/440/108
