# mech2 torso - segment chest, colour gold #D4A93A
# units: studs, +Y up, -Z forward, origin = hip-joint line centre
o chest_gold
v 1.09224 7.44812 -0.33456
v 1.05702 7.22575 1.91684
v 1.23379 8.34183 2.25584
v 1.63143 10.85245 2.82982
v 1.78019 11.79163 3.36232
v 1.82382 12.06713 3.02140
v 1.81802 12.03050 2.16828
v 1.59799 10.64131 0.64122
v 1.50030 10.02450 -0.33456
v 1.18890 7.32814 -0.44880
v 1.15061 7.08635 1.99920
v 1.34208 8.29528 2.36640
v 1.73780 10.79374 2.93760
v 1.89736 11.80118 3.50880
v 1.95481 12.16386 3.06000
v 1.94842 12.12356 2.12160
v 1.72504 10.71314 0.57120
v 1.62292 10.06838 -0.44880
v 1.84979 7.22346 -0.44880
v 1.81149 6.98168 1.99920
v 2.00297 8.19061 2.36640
v 2.39868 10.68907 2.93760
v 2.55825 11.69651 3.50880
v 2.61569 12.05919 3.06000
v 2.60931 12.01889 2.12160
v 2.38592 10.60847 0.57120
v 2.28380 9.96371 -0.44880
v 1.97879 7.30771 -0.33456
v 1.94357 7.08534 1.91684
v 2.12034 8.20141 2.25584
v 2.51798 10.71203 2.82982
v 2.66674 11.65122 3.36232
v 2.71037 11.92672 3.02140
v 2.70457 11.89008 2.16828
v 2.48454 10.50090 0.64122
v 2.38685 9.88409 -0.33456
v -1.09224 7.44812 -0.33456
v -1.05702 7.22575 1.91684
v -1.23379 8.34183 2.25584
v -1.63143 10.85245 2.82982
v -1.78019 11.79163 3.36232
v -1.82382 12.06713 3.02140
v -1.81802 12.03050 2.16828
v -1.59799 10.64131 0.64122
v -1.50030 10.02450 -0.33456
v -1.18890 7.32814 -0.44880
v -1.15061 7.08635 1.99920
v -1.34208 8.29528 2.36640
v -1.73780 10.79374 2.93760
v -1.89736 11.80118 3.50880
v -1.95481 12.16386 3.06000
v -1.94842 12.12356 2.12160
v -1.72504 10.71314 0.57120
v -1.62292 10.06838 -0.44880
v -1.84979 7.22346 -0.44880
v -1.81149 6.98168 1.99920
v -2.00297 8.19061 2.36640
v -2.39868 10.68907 2.93760
v -2.55825 11.69651 3.50880
v -2.61569 12.05919 3.06000
v -2.60931 12.01889 2.12160
v -2.38592 10.60847 0.57120
v -2.28380 9.96371 -0.44880
v -1.97879 7.30771 -0.33456
v -1.94357 7.08534 1.91684
v -2.12034 8.20141 2.25584
v -2.51798 10.71203 2.82982
v -2.66674 11.65122 3.36232
v -2.71037 11.92672 3.02140
v -2.70457 11.89008 2.16828
v -2.48454 10.50090 0.64122
v -2.38685 9.88409 -0.33456
v 1.57488 7.04208 2.07231
v 2.20792 7.04208 2.02167
v 2.66832 7.39623 1.98484
v 2.66832 8.01312 1.98484
v 1.57488 8.01312 2.07231
v 1.46880 6.93600 1.97472
v 2.24400 6.93600 1.91270
v 2.77440 7.34400 1.87027
v 2.77440 8.11920 1.87027
v 1.46880 8.11920 1.97472
v 1.46880 6.93600 0.35088
v 2.24400 6.93600 0.28886
v 2.77440 7.34400 0.24643
v 2.77440 8.11920 0.24643
v 1.46880 8.11920 0.35088
v 1.53408 7.00128 0.28038
v 2.22180 7.00128 0.22536
v 2.70912 7.37614 0.18637
v 2.70912 8.05392 0.18637
v 1.53408 8.05392 0.28038
v -1.57488 7.04208 2.07231
v -2.20792 7.04208 2.02167
v -2.66832 7.39623 1.98484
v -2.66832 8.01312 1.98484
v -1.57488 8.01312 2.07231
v -1.46880 6.93600 1.97472
v -2.24400 6.93600 1.91270
v -2.77440 7.34400 1.87027
v -2.77440 8.11920 1.87027
v -1.46880 8.11920 1.97472
v -1.46880 6.93600 0.35088
v -2.24400 6.93600 0.28886
v -2.77440 7.34400 0.24643
v -2.77440 8.11920 0.24643
v -1.46880 8.11920 0.35088
v -1.53408 7.00128 0.28038
v -2.22180 7.00128 0.22536
v -2.70912 7.37614 0.18637
v -2.70912 8.05392 0.18637
v -1.53408 8.05392 0.28038
v 1.12129 9.11472 -1.96840
v 2.63568 9.11472 -1.51409
v 2.63568 9.70848 -1.24690
v 2.05783 10.01440 -1.28259
v 1.26135 9.87588 -1.58386
v 0.95472 8.97600 -1.94208
v 2.77440 8.97600 -1.39618
v 2.77440 9.79200 -1.02898
v 2.08080 10.15920 -1.07182
v 1.14240 9.99600 -1.42678
v 0.95472 8.97600 -0.02448
v 2.77440 8.97600 0.52142
v 2.77440 9.79200 0.88862
v 2.08080 10.15920 0.84578
v 1.14240 9.99600 0.49082
v 1.03311 9.04128 0.09369
v 2.70912 9.04128 0.59650
v 2.70912 9.75270 0.91663
v 2.06999 10.09106 0.87716
v 1.19838 9.93947 0.54746
v -1.12129 9.11472 -1.96840
v -2.63568 9.11472 -1.51409
v -2.63568 9.70848 -1.24690
v -2.05783 10.01440 -1.28259
v -1.26135 9.87588 -1.58386
v -0.95472 8.97600 -1.94208
v -2.77440 8.97600 -1.39618
v -2.77440 9.79200 -1.02898
v -2.08080 10.15920 -1.07182
v -1.14240 9.99600 -1.42678
v -0.95472 8.97600 -0.02448
v -2.77440 8.97600 0.52142
v -2.77440 9.79200 0.88862
v -2.08080 10.15920 0.84578
v -1.14240 9.99600 0.49082
v -1.03311 9.04128 0.09369
v -2.70912 9.04128 0.59650
v -2.70912 9.75270 0.91663
v -2.06999 10.09106 0.87716
v -1.19838 9.93947 0.54746
v 1.45301 10.04899 -1.43195
v 2.57856 9.88347 -1.15056
v 2.57856 10.17020 -1.15056
v 2.03123 10.44386 -1.28739
v 1.52038 10.27357 -1.41510
v 1.30560 9.95520 -1.35456
v 2.69280 9.75120 -1.00776
v 2.69280 10.24080 -1.00776
v 2.04000 10.56720 -1.17096
v 1.42800 10.36320 -1.32396
v 1.30560 9.95520 0.58752
v 2.69280 9.75120 0.93432
v 2.69280 10.24080 0.93432
v 2.04000 10.56720 0.77112
v 1.42800 10.36320 0.61812
v 1.38983 10.00879 0.67386
v 2.62752 9.82678 0.98328
v 2.62752 10.20045 0.98328
v 2.03499 10.49672 0.83515
v 1.48079 10.31199 0.69660
v -1.45301 10.04899 -1.43195
v -2.57856 9.88347 -1.15056
v -2.57856 10.17020 -1.15056
v -2.03123 10.44386 -1.28739
v -1.52038 10.27357 -1.41510
v -1.30560 9.95520 -1.35456
v -2.69280 9.75120 -1.00776
v -2.69280 10.24080 -1.00776
v -2.04000 10.56720 -1.17096
v -1.42800 10.36320 -1.32396
v -1.30560 9.95520 0.58752
v -2.69280 9.75120 0.93432
v -2.69280 10.24080 0.93432
v -2.04000 10.56720 0.77112
v -1.42800 10.36320 0.61812
v -1.38983 10.00879 0.67386
v -2.62752 9.82678 0.98328
v -2.62752 10.20045 0.98328
v -2.03499 10.49672 0.83515
v -1.48079 10.31199 0.69660
v 2.59442 8.00972 -1.64211
v 1.08056 7.82039 -2.36116
v 1.02047 7.29623 -2.20371
v 1.48440 7.22878 -1.93819
v 2.17327 6.96170 -1.48382
v 2.48061 7.06100 -1.35976
v 2.74394 8.16000 -1.48790
v 0.96254 7.93720 -2.33403
v 0.87634 7.18526 -2.10815
v 1.45099 7.10171 -1.77925
v 2.16930 6.82321 -1.30547
v 2.60028 6.96246 -1.13149
v 2.74394 8.16000 -0.11702
v 0.96254 7.93720 -0.96315
v 0.87634 7.18526 -0.73727
v 1.45099 7.10171 -0.40837
v 2.16930 6.82321 0.06541
v 2.60028 6.96246 0.23939
v 2.68787 8.10365 -0.07693
v 1.00679 7.89340 -0.87540
v 0.93039 7.22687 -0.67518
v 1.46352 7.14936 -0.37005
v 2.17079 6.87514 0.09645
v 2.55540 6.99941 0.25171
v -2.59442 8.00972 -1.64211
v -1.08056 7.82039 -2.36116
v -1.02047 7.29623 -2.20371
v -1.48440 7.22878 -1.93819
v -2.17327 6.96170 -1.48382
v -2.48061 7.06100 -1.35976
v -2.74394 8.16000 -1.48790
v -0.96254 7.93720 -2.33403
v -0.87634 7.18526 -2.10815
v -1.45099 7.10171 -1.77925
v -2.16930 6.82321 -1.30547
v -2.60028 6.96246 -1.13149
v -2.74394 8.16000 -0.11702
v -0.96254 7.93720 -0.96315
v -0.87634 7.18526 -0.73727
v -1.45099 7.10171 -0.40837
v -2.16930 6.82321 0.06541
v -2.60028 6.96246 0.23939
v -2.68787 8.10365 -0.07693
v -1.00679 7.89340 -0.87540
v -0.93039 7.22687 -0.67518
v -1.46352 7.14936 -0.37005
v -2.17079 6.87514 0.09645
v -2.55540 6.99941 0.25171
v 2.57040 6.91056 -1.85229
v 2.57040 7.08294 -1.02487
v 2.57040 8.07840 -1.09598
v 2.57040 8.07840 -2.06463
v 2.65200 6.81360 -1.91760
v 2.65200 7.01760 -0.93840
v 2.65200 8.16000 -1.02000
v 2.65200 8.16000 -2.16240
v 2.97840 6.81360 -1.91760
v 2.97840 7.01760 -0.93840
v 2.97840 8.16000 -1.02000
v 2.97840 8.16000 -2.16240
v 3.01920 6.86208 -1.88495
v 3.01920 7.05027 -0.98164
v 3.01920 8.11920 -1.05799
v 3.01920 8.11920 -2.11351
v -2.57040 6.91056 -1.85229
v -2.57040 7.08294 -1.02487
v -2.57040 8.07840 -1.09598
v -2.57040 8.07840 -2.06463
v -2.65200 6.81360 -1.91760
v -2.65200 7.01760 -0.93840
v -2.65200 8.16000 -1.02000
v -2.65200 8.16000 -2.16240
v -2.97840 6.81360 -1.91760
v -2.97840 7.01760 -0.93840
v -2.97840 8.16000 -1.02000
v -2.97840 8.16000 -2.16240
v -3.01920 6.86208 -1.88495
v -3.01920 7.05027 -0.98164
v -3.01920 8.11920 -1.05799
v -3.01920 8.11920 -2.11351
vt -0.17575 -1.34918
vt 0.40914 -1.26733
vt 0.38850 -1.30928
vt -0.20438 -1.31071
vt 0.69137 -1.75566
vt 0.84582 -2.01128
vt 0.80835 -2.02639
vt 0.71910 -1.71803
vt 1.07296 -2.61734
vt 1.03659 -2.63540
vt 1.18079 -2.86322
vt 1.22763 -2.86172
vt -2.13204 -0.97771
vt -2.18728 -1.09272
vt -2.14584 -1.08696
vt -2.16911 -0.94889
vt -1.80024 2.05856
vt -1.89648 1.86532
vt -1.85477 1.86497
vt -1.83651 2.07825
vt -1.76924 1.35895
vt -1.72945 1.36623
vt -1.69498 1.07869
vt -1.73322 1.05838
vt -0.59667 -2.46309
vt -0.63950 -2.46951
vt -0.45413 -1.82673
vt -0.48790 -1.79268
vt -0.01164 0.29617
vt -0.16921 -0.32144
vt -0.00195 -0.31880
vt -0.17890 0.29354
vt 0.28492 -1.84003
vt 0.45033 -1.81505
vt 0.33262 -2.15589
vt 0.49802 -2.13091
vt 0.42908 -2.79467
vt 0.59449 -2.76969
vt 0.47182 -3.07765
vt 0.63722 -3.05267
vt -0.12802 -1.20656
vt -0.29446 -1.18986
vt -0.14249 -1.35080
vt -0.30893 -1.33411
vt -0.01315 0.89799
vt -0.18043 0.89684
vt -0.01154 0.66318
vt -0.17881 0.66203
vt -0.23935 2.33150
vt -0.35366 1.79162
vt -0.18721 1.80821
vt -0.40581 2.31492
vt -0.32382 1.49222
vt -0.15737 1.50881
vt -0.40573 -2.51710
vt -0.46245 -1.80587
vt -0.29723 -1.83203
vt -0.57095 -2.49093
vt -1.42662 0.26891
vt -1.46651 0.24229
vt -1.41478 -0.34603
vt -1.45562 -0.32327
vt 0.53641 -1.79087
vt 0.58084 -1.80543
vt 0.60338 -2.10323
vt 0.64267 -2.09380
vt 0.77008 -2.72862
vt 0.81018 -2.72223
vt 0.82494 -2.99145
vt 0.78592 -3.01740
vt 0.09629 -2.25644
vt 0.13724 -2.23347
vt 0.22177 -2.32904
vt 0.23256 -2.28862
vt -1.46911 -2.26809
vt -1.46143 -2.22755
vt -1.24804 -2.26021
vt -1.26044 -2.22038
vt -0.80467 -1.98449
vt -0.82375 -1.94881
vt -0.56046 -1.82823
vt -0.52944 -1.85844
vt -0.60009 -2.47834
vt -0.49355 -1.81790
vt -0.44848 -1.80151
vt -0.63608 -2.45426
vt -0.08364 -2.53395
vt -0.08364 -1.88182
vt 0.47921 -1.82554
vt 0.56396 -2.10803
vt 0.70745 -2.74351
vt 0.84058 -2.98124
vt 0.75535 -3.05097
vt 0.54207 -3.04170
vt 0.16031 -2.69007
vt 0.08364 -2.53395
vt -0.47921 -1.82554
vt 0.08364 -1.88182
vt -0.56396 -2.10803
vt -0.70745 -2.74351
vt -0.75535 -3.05097
vt -0.84058 -2.98124
vt -0.54207 -3.04170
vt -0.16031 -2.69007
vt 0.17575 -1.34918
vt -0.38850 -1.30928
vt -0.40914 -1.26733
vt 0.20438 -1.31071
vt -0.69137 -1.75566
vt -0.80835 -2.02639
vt -0.84582 -2.01128
vt -0.71910 -1.71803
vt -1.03659 -2.63540
vt -1.07296 -2.61734
vt -1.18079 -2.86322
vt -1.22763 -2.86172
vt 2.13204 -0.97771
vt 2.14584 -1.08696
vt 2.18728 -1.09272
vt 2.16911 -0.94889
vt 1.80024 2.05856
vt 1.85477 1.86497
vt 1.89648 1.86532
vt 1.83651 2.07825
vt 1.72945 1.36623
vt 1.76924 1.35895
vt 1.69498 1.07869
vt 1.73322 1.05838
vt 0.59667 -2.46309
vt 0.45413 -1.82673
vt 0.63950 -2.46951
vt 0.48790 -1.79268
vt 0.01164 0.29617
vt 0.00195 -0.31880
vt 0.16921 -0.32144
vt 0.17890 0.29354
vt -0.28492 -1.84003
vt -0.33262 -2.15589
vt -0.45033 -1.81505
vt -0.49802 -2.13091
vt -0.42908 -2.79467
vt -0.59449 -2.76969
vt -0.47182 -3.07765
vt -0.63722 -3.05267
vt 0.12802 -1.20656
vt 0.14249 -1.35080
vt 0.29446 -1.18986
vt 0.30893 -1.33411
vt 0.01315 0.89799
vt 0.01154 0.66318
vt 0.18043 0.89684
vt 0.17881 0.66203
vt 0.23935 2.33150
vt 0.18721 1.80821
vt 0.35366 1.79162
vt 0.40581 2.31492
vt 0.15737 1.50881
vt 0.32382 1.49222
vt 0.40573 -2.51710
vt 0.29723 -1.83203
vt 0.46245 -1.80587
vt 0.57095 -2.49093
vt 1.42662 0.26891
vt 1.41478 -0.34603
vt 1.46651 0.24229
vt 1.45562 -0.32327
vt -0.53641 -1.79087
vt -0.60338 -2.10323
vt -0.58084 -1.80543
vt -0.64267 -2.09380
vt -0.77008 -2.72862
vt -0.81018 -2.72223
vt -0.78592 -3.01740
vt -0.82494 -2.99145
vt -0.09629 -2.25644
vt -0.22177 -2.32904
vt -0.13724 -2.23347
vt -0.23256 -2.28862
vt 1.46911 -2.26809
vt 1.24804 -2.26021
vt 1.46143 -2.22755
vt 1.26044 -2.22038
vt 0.80467 -1.98449
vt 0.82375 -1.94881
vt 0.52944 -1.85844
vt 0.56046 -1.82823
vt 0.60009 -2.47834
vt 0.44848 -1.80151
vt 0.49355 -1.81790
vt 0.63608 -2.45426
vt 0.58870 -1.65407
vt 0.75322 -1.60765
vt 0.74387 -1.64559
vt 0.56320 -1.61804
vt 0.87231 -1.70515
vt 0.90118 -1.67627
vt 0.08912 -1.84906
vt 0.12815 -1.83600
vt 0.08912 -2.00328
vt 0.12815 -2.02980
vt -0.56620 -1.06566
vt -0.26584 -1.08620
vt -0.29240 -1.05020
vt -0.59276 -1.10466
vt 0.64052 -2.00328
vt 0.60448 -1.73400
vt 0.64052 -1.76052
vt 0.60448 -2.02980
vt -0.36720 -0.49368
vt -0.36720 -0.08772
vt -0.56100 -0.47818
vt -0.56100 -0.07222
vt -1.50190 -0.47818
vt -1.50190 -0.07222
vt -1.66919 -0.46757
vt -1.66919 -0.06161
vt -0.46757 -1.83600
vt -0.06161 -2.02980
vt -0.46757 -2.02980
vt -0.06161 -1.83600
vt -0.69360 0.46757
vt -0.36720 0.08772
vt -0.36720 0.49368
vt -0.69360 0.06161
vt 0.49368 -2.02980
vt 0.08772 -1.73400
vt 0.49368 -1.73400
vt 0.08772 -2.02980
vt -0.54762 -1.22812
vt -0.56343 -1.25204
vt -0.73748 -1.23851
vt -0.73187 -1.26126
vt -0.86067 -1.33734
vt -0.87767 -1.32132
vt -0.55215 -1.83600
vt -0.52998 -2.01348
vt -0.55215 -2.02980
vt -0.52998 -1.84404
vt -0.77109 1.47885
vt -0.46052 1.47331
vt -0.44417 1.49731
vt -0.75475 1.45669
vt -0.18511 -2.02980
vt -0.20913 -2.01348
vt -0.18511 -1.73400
vt -0.20913 -1.75032
vt 0.62539 -2.00328
vt 0.35115 -2.00328
vt 0.35115 -1.76052
vt 0.50992 -1.76052
vt 0.62539 -1.84906
vt -0.67141 -2.01348
vt -0.37671 -1.75032
vt -0.37671 -2.01348
vt -0.54919 -1.75032
vt -0.67141 -1.84404
vt -0.58870 -1.65407
vt -0.74387 -1.64559
vt -0.75322 -1.60765
vt -0.56320 -1.61804
vt -0.87231 -1.70515
vt -0.90118 -1.67627
vt -0.08912 -1.84906
vt -0.08912 -2.00328
vt -0.12815 -1.83600
vt -0.12815 -2.02980
vt 0.56620 -1.06566
vt 0.29240 -1.05020
vt 0.26584 -1.08620
vt 0.59276 -1.10466
vt -0.64052 -2.00328
vt -0.64052 -1.76052
vt -0.60448 -1.73400
vt -0.60448 -2.02980
vt 0.36720 -0.49368
vt 0.56100 -0.47818
vt 0.36720 -0.08772
vt 0.56100 -0.07222
vt 1.50190 -0.47818
vt 1.66919 -0.46757
vt 1.50190 -0.07222
vt 1.66919 -0.06161
vt 0.46757 -1.83600
vt 0.46757 -2.02980
vt 0.06161 -2.02980
vt 0.06161 -1.83600
vt 0.69360 0.46757
vt 0.36720 0.49368
vt 0.36720 0.08772
vt 0.69360 0.06161
vt -0.49368 -2.02980
vt -0.49368 -1.73400
vt -0.08772 -1.73400
vt -0.08772 -2.02980
vt 0.54762 -1.22812
vt 0.73748 -1.23851
vt 0.56343 -1.25204
vt 0.73187 -1.26126
vt 0.87767 -1.32132
vt 0.86067 -1.33734
vt 0.55215 -1.83600
vt 0.55215 -2.02980
vt 0.52998 -2.01348
vt 0.52998 -1.84404
vt 0.77109 1.47885
vt 0.44417 1.49731
vt 0.46052 1.47331
vt 0.75475 1.45669
vt 0.18511 -2.02980
vt 0.18511 -1.73400
vt 0.20913 -2.01348
vt 0.20913 -1.75032
vt -0.62539 -2.00328
vt -0.35115 -1.76052
vt -0.35115 -2.00328
vt -0.50992 -1.76052
vt -0.62539 -1.84906
vt 0.67141 -2.01348
vt 0.37671 -2.01348
vt 0.37671 -1.75032
vt 0.54919 -1.75032
vt 0.67141 -1.84404
vt -0.44067 -2.23377
vt -0.83213 -2.17903
vt -0.39761 -2.20021
vt -0.86799 -2.13444
vt -0.49821 -1.93778
vt -0.58079 -2.07805
vt -0.53465 -1.89366
vt -0.64815 -2.08644
vt -0.23534 -1.91817
vt -0.08357 -1.97908
vt -0.09608 -2.03727
vt -0.27825 -1.96417
vt 0.12081 -1.91055
vt 0.14471 -1.95654
vt -1.09994 -1.87677
vt -1.05949 -1.66454
vt -1.01139 -1.63872
vt -1.06559 -1.92313
vt -0.23868 0.48552
vt -0.69360 0.34904
vt -0.23868 0.00612
vt -0.69360 -0.13036
vt 0.34904 -2.24400
vt 0.25724 -2.44800
vt -0.13036 -2.24400
vt -0.22216 -2.44800
vt 0.53239 -0.25724
vt 0.72859 -0.26795
vt 0.72859 0.21145
vt 0.53239 0.22216
vt -0.94768 -0.26795
vt -0.70956 -0.35669
vt -0.70956 0.12271
vt -0.94768 0.21145
vt -0.35669 -2.50942
vt -0.48552 -2.25014
vt -0.00612 -2.25014
vt 0.12271 -2.50942
vt 0.07546 -1.26895
vt -0.38602 -1.38130
vt 0.05558 -1.30254
vt -0.36946 -1.40602
vt 1.01616 -2.09985
vt 1.01616 -2.32355
vt 0.99680 -2.12243
vt 0.99680 -2.31746
vt 0.50619 -2.15739
vt 0.33075 -2.24587
vt 0.48968 -2.14559
vt 0.32801 -2.22713
vt 1.01182 -2.13947
vt 0.75777 -2.14538
vt 0.77293 -2.12624
vt 1.00890 -2.12075
vt 0.57795 -2.38725
vt 0.41594 -2.14730
vt 0.45309 -2.15925
vt 0.59575 -2.37055
vt -0.24044 -1.75655
vt 0.15041 -1.69794
vt 0.05283 -2.32217
vt 0.01000 -2.07085
vt 0.44440 -2.12243
vt 0.27874 -2.39055
vt 0.44440 -2.31746
vt 0.44067 -2.23377
vt 0.39761 -2.20021
vt 0.83213 -2.17903
vt 0.86799 -2.13444
vt 0.49821 -1.93778
vt 0.53465 -1.89366
vt 0.58079 -2.07805
vt 0.64815 -2.08644
vt 0.23534 -1.91817
vt 0.09608 -2.03727
vt 0.08357 -1.97908
vt 0.27825 -1.96417
vt -0.14471 -1.95654
vt -0.12081 -1.91055
vt 1.09994 -1.87677
vt 1.01139 -1.63872
vt 1.05949 -1.66454
vt 1.06559 -1.92313
vt 0.23868 0.48552
vt 0.23868 0.00612
vt 0.69360 0.34904
vt 0.69360 -0.13036
vt -0.34904 -2.24400
vt 0.13036 -2.24400
vt -0.25724 -2.44800
vt 0.22216 -2.44800
vt -0.53239 -0.25724
vt -0.72859 0.21145
vt -0.72859 -0.26795
vt -0.53239 0.22216
vt 0.94768 -0.26795
vt 0.70956 0.12271
vt 0.70956 -0.35669
vt 0.94768 0.21145
vt 0.35669 -2.50942
vt 0.00612 -2.25014
vt 0.48552 -2.25014
vt -0.12271 -2.50942
vt -0.07546 -1.26895
vt -0.05558 -1.30254
vt 0.38602 -1.38130
vt 0.36946 -1.40602
vt -1.01616 -2.09985
vt -0.99680 -2.12243
vt -1.01616 -2.32355
vt -0.99680 -2.31746
vt -0.50619 -2.15739
vt -0.48968 -2.14559
vt -0.33075 -2.24587
vt -0.32801 -2.22713
vt -1.01182 -2.13947
vt -0.77293 -2.12624
vt -0.75777 -2.14538
vt -1.00890 -2.12075
vt -0.57795 -2.38725
vt -0.45309 -2.15925
vt -0.41594 -2.14730
vt -0.59575 -2.37055
vt -0.15041 -1.69794
vt 0.24044 -1.75655
vt -0.05283 -2.32217
vt -0.44440 -2.12243
vt -0.01000 -2.07085
vt -0.27874 -2.39055
vt -0.44440 -2.31746
vt -0.47430 -2.03768
vt -0.75647 -1.95879
vt -0.43735 -2.00741
vt -0.78511 -1.91017
vt -0.17809 -2.47087
vt -0.17809 -2.54255
vt -0.22381 -2.56020
vt -0.22381 -2.43780
vt 0.30847 -1.70334
vt 0.46267 -1.73153
vt 0.46021 -1.77392
vt 0.27628 -1.74030
vt -0.60467 -1.67268
vt -0.47681 -1.61982
vt -0.45369 -1.65176
vt -0.60686 -1.71509
vt -0.90450 -2.37080
vt -0.88412 -2.31568
vt -0.87656 -2.39863
vt -0.83955 -2.29848
vt 0.03918 0.33864
vt -0.31135 0.25194
vt 0.03918 -0.14688
vt -0.31135 -0.23358
vt 0.25194 -2.43780
vt 0.25194 -2.56020
vt -0.23358 -2.56020
vt -0.23358 -2.43780
vt 0.54283 -0.25194
vt 0.72529 -0.29274
vt 0.72529 0.19278
vt 0.54283 0.23358
vt -1.31924 -0.29274
vt -1.15796 -0.33099
vt -1.15796 0.15453
vt -1.31924 0.19278
vt -0.33099 -2.58412
vt -0.33864 -2.47763
vt 0.14688 -2.47763
vt 0.15453 -2.58412
vt -0.13128 -1.87254
vt 0.22897 -1.89726
vt -0.10940 -1.89724
vt 0.21201 -1.91930
vt 0.39841 -2.43780
vt 0.39841 -2.56020
vt 0.37801 -2.45670
vt 0.37801 -2.55011
vt 0.39250 -1.75254
vt 0.22755 -1.84056
vt 0.22628 -1.81676
vt 0.37601 -1.73686
vt 1.21576 -1.78388
vt 1.05036 -1.77321
vt 1.06463 -1.75042
vt 1.21441 -1.76008
vt -0.03793 -2.60308
vt -0.04775 -2.49677
vt -0.02004 -2.51468
vt -0.01274 -2.59368
vt -0.55563 -2.47087
vt -0.41459 -2.61096
vt -0.55563 -2.54255
vt -0.26558 -2.51225
vt -0.28294 -2.56839
vt 0.37794 -2.50220
vt 0.69689 -2.45670
vt 0.69689 -2.55011
vt 0.54420 -2.62418
vt 0.40138 -2.57800
vt 0.47430 -2.03768
vt 0.43735 -2.00741
vt 0.75647 -1.95879
vt 0.78511 -1.91017
vt 0.17809 -2.47087
vt 0.22381 -2.56020
vt 0.17809 -2.54255
vt 0.22381 -2.43780
vt -0.30847 -1.70334
vt -0.46021 -1.77392
vt -0.46267 -1.73153
vt -0.27628 -1.74030
vt 0.60467 -1.67268
vt 0.45369 -1.65176
vt 0.47681 -1.61982
vt 0.60686 -1.71509
vt 0.90450 -2.37080
vt 0.87656 -2.39863
vt 0.88412 -2.31568
vt 0.83955 -2.29848
vt -0.03918 0.33864
vt -0.03918 -0.14688
vt 0.31135 0.25194
vt 0.31135 -0.23358
vt -0.25194 -2.43780
vt 0.23358 -2.56020
vt -0.25194 -2.56020
vt 0.23358 -2.43780
vt -0.54283 -0.25194
vt -0.72529 0.19278
vt -0.72529 -0.29274
vt -0.54283 0.23358
vt 1.31924 -0.29274
vt 1.15796 0.15453
vt 1.15796 -0.33099
vt 1.31924 0.19278
vt 0.33099 -2.58412
vt -0.14688 -2.47763
vt 0.33864 -2.47763
vt -0.15453 -2.58412
vt 0.13128 -1.87254
vt 0.10940 -1.89724
vt -0.22897 -1.89726
vt -0.21201 -1.91930
vt -0.39841 -2.43780
vt -0.37801 -2.45670
vt -0.39841 -2.56020
vt -0.37801 -2.55011
vt -0.39250 -1.75254
vt -0.22628 -1.81676
vt -0.22755 -1.84056
vt -0.37601 -1.73686
vt -1.21576 -1.78388
vt -1.06463 -1.75042
vt -1.05036 -1.77321
vt -1.21441 -1.76008
vt 0.03793 -2.60308
vt 0.02004 -2.51468
vt 0.04775 -2.49677
vt 0.01274 -2.59368
vt 0.55563 -2.47087
vt 0.55563 -2.54255
vt 0.41459 -2.61096
vt 0.26558 -2.51225
vt 0.28294 -2.56839
vt -0.37794 -2.50220
vt -0.69689 -2.55011
vt -0.69689 -2.45670
vt -0.54420 -2.62418
vt -0.40138 -2.57800
vt -0.16539 -1.47311
vt 0.23370 -1.33704
vt 0.26481 -1.36535
vt -0.20481 -1.52547
vt -0.28970 -2.03951
vt -0.27317 -1.90287
vt -0.25723 -2.06625
vt -0.23351 -1.87022
vt -0.41819 1.54231
vt -0.53685 1.47926
vt -0.38142 1.50650
vt -0.52840 1.42840
vt -0.70947 1.34842
vt -0.70840 1.29197
vt -0.62739 -1.75164
vt -0.71294 -1.76291
vt -0.64083 -1.70274
vt -0.76079 -1.71855
vt -0.74973 -2.00919
vt -0.80723 -2.02942
vt -0.93385 -0.37198
vt -0.48503 -0.58351
vt -0.48503 -0.24079
vt -0.93385 -0.02926
vt -0.58351 -1.99879
vt -0.52704 -1.80958
vt -0.24079 -1.99879
vt -0.18432 -1.80958
vt 0.27339 0.52704
vt 0.12942 0.44481
vt 0.27339 0.18432
vt 0.12942 0.10209
vt -0.06228 0.32637
vt -0.06228 -0.01635
vt -1.04050 0.32637
vt -1.15373 0.28287
vt -1.04050 -0.01635
vt -1.15373 -0.05985
vt 0.28287 -1.80565
vt 0.37198 -2.10719
vt 0.02926 -2.10719
vt -0.05985 -1.80565
vt -1.22101 -1.23647
vt -0.74411 -1.37343
vt -0.75596 -1.34928
vt -1.20600 -1.22003
vt 0.41858 -1.94758
vt 0.39440 -1.75160
vt 0.43611 -1.92980
vt 0.41467 -1.75609
vt -0.33296 -1.44920
vt -0.16787 -1.47332
vt -0.31725 -1.46608
vt -0.16409 -1.48846
vt 0.05587 -1.47408
vt 0.05621 -1.48921
vt 0.15952 -1.52625
vt 0.14870 -1.53576
vt 0.39607 -1.67819
vt 0.43560 -1.99012
vt 0.42017 -1.97408
vt 0.38372 -1.68645
vt -0.33005 -2.03324
vt -0.43840 -1.85636
vt -0.31049 -1.89704
vt 0.86676 -1.62366
vt 0.90391 -1.91119
vt 0.56299 -1.71188
vt 0.75971 -1.60768
vt 0.16539 -1.47311
vt -0.26481 -1.36535
vt -0.23370 -1.33704
vt 0.20481 -1.52547
vt 0.28970 -2.03951
vt 0.25723 -2.06625
vt 0.27317 -1.90287
vt 0.23351 -1.87022
vt 0.41819 1.54231
vt 0.38142 1.50650
vt 0.53685 1.47926
vt 0.52840 1.42840
vt 0.70947 1.34842
vt 0.70840 1.29197
vt 0.62739 -1.75164
vt 0.64083 -1.70274
vt 0.71294 -1.76291
vt 0.76079 -1.71855
vt 0.80723 -2.02942
vt 0.74973 -2.00919
vt 0.93385 -0.37198
vt 0.48503 -0.24079
vt 0.48503 -0.58351
vt 0.93385 -0.02926
vt 0.58351 -1.99879
vt 0.24079 -1.99879
vt 0.52704 -1.80958
vt 0.18432 -1.80958
vt -0.27339 0.52704
vt -0.27339 0.18432
vt -0.12942 0.44481
vt -0.12942 0.10209
vt 0.06228 0.32637
vt 0.06228 -0.01635
vt 1.04050 0.32637
vt 1.04050 -0.01635
vt 1.15373 0.28287
vt 1.15373 -0.05985
vt -0.28287 -1.80565
vt -0.02926 -2.10719
vt -0.37198 -2.10719
vt 0.05985 -1.80565
vt 1.22101 -1.23647
vt 0.75596 -1.34928
vt 0.74411 -1.37343
vt 1.20600 -1.22003
vt -0.41858 -1.94758
vt -0.43611 -1.92980
vt -0.39440 -1.75160
vt -0.41467 -1.75609
vt 0.33296 -1.44920
vt 0.31725 -1.46608
vt 0.16787 -1.47332
vt 0.16409 -1.48846
vt -0.05587 -1.47408
vt -0.05621 -1.48921
vt -0.15952 -1.52625
vt -0.14870 -1.53576
vt -0.39607 -1.67819
vt -0.42017 -1.97408
vt -0.43560 -1.99012
vt -0.38372 -1.68645
vt 0.33005 -2.03324
vt 0.31049 -1.89704
vt 0.43840 -1.85636
vt -0.86676 -1.62366
vt -0.90391 -1.91119
vt -0.56299 -1.71188
vt -0.75971 -1.60768
vt -0.21771 -0.78500
vt 0.01318 -0.78985
vt -0.00867 -0.81579
vt -0.23421 -0.75340
vt 0.18170 -1.81192
vt 0.21219 -1.79708
vt 0.15662 -2.06016
vt 0.18342 -2.08196
vt -1.88246 -0.27399
vt -1.91131 -0.25500
vt -1.88246 -0.51616
vt -1.91131 -0.54060
vt -1.05826 -1.87489
vt -1.00709 -1.56003
vt -0.98436 -1.58749
vt -1.09228 -1.89138
vt -0.66300 0.12191
vt -0.74460 -0.12815
vt -0.66300 -0.12815
vt -0.74460 0.12191
vt 0.66300 -1.76666
vt 0.74460 -2.05298
vt 0.66300 -2.05298
vt 0.74460 -1.76666
vt -0.66300 -0.25500
vt -0.74460 -0.54060
vt -0.66300 -0.54060
vt -0.74460 -0.25500
vt -0.66300 -2.10380
vt -0.74460 -1.76168
vt -0.66300 -1.76168
vt -0.74460 -2.10380
vt 0.37927 -1.73810
vt 0.37102 -1.75390
vt 0.13188 -1.77454
vt 0.14281 -1.78752
vt 0.77809 -1.69705
vt 0.82027 -1.97103
vt 0.80687 -1.98193
vt 0.79334 -1.70447
vt 0.91599 -0.25500
vt 0.90156 -0.52838
vt 0.91599 -0.54060
vt 0.90156 -0.26450
vt 0.12832 -2.13924
vt 0.11130 -2.13100
vt 0.04312 -1.80790
vt 0.03176 -1.82163
vt -0.27399 -2.01960
vt -0.51616 -2.01960
vt -0.46307 -1.72764
vt -0.25622 -1.77073
vt 0.26450 -2.02980
vt 0.47124 -1.71552
vt 0.52838 -2.02980
vt 0.24541 -1.76257
vt 0.21771 -0.78500
vt 0.00867 -0.81579
vt -0.01318 -0.78985
vt 0.23421 -0.75340
vt -0.18170 -1.81192
vt -0.15662 -2.06016
vt -0.21219 -1.79708
vt -0.18342 -2.08196
vt 1.88246 -0.27399
vt 1.88246 -0.51616
vt 1.91131 -0.25500
vt 1.91131 -0.54060
vt 1.05826 -1.87489
vt 0.98436 -1.58749
vt 1.00709 -1.56003
vt 1.09228 -1.89138
vt 0.66300 0.12191
vt 0.66300 -0.12815
vt 0.74460 -0.12815
vt 0.74460 0.12191
vt -0.66300 -1.76666
vt -0.66300 -2.05298
vt -0.74460 -2.05298
vt -0.74460 -1.76666
vt 0.66300 -0.25500
vt 0.66300 -0.54060
vt 0.74460 -0.54060
vt 0.74460 -0.25500
vt 0.66300 -2.10380
vt 0.66300 -1.76168
vt 0.74460 -1.76168
vt 0.74460 -2.10380
vt -0.37927 -1.73810
vt -0.13188 -1.77454
vt -0.37102 -1.75390
vt -0.14281 -1.78752
vt -0.77809 -1.69705
vt -0.80687 -1.98193
vt -0.82027 -1.97103
vt -0.79334 -1.70447
vt -0.91599 -0.25500
vt -0.91599 -0.54060
vt -0.90156 -0.52838
vt -0.90156 -0.26450
vt -0.12832 -2.13924
vt -0.04312 -1.80790
vt -0.11130 -2.13100
vt -0.03176 -1.82163
vt 0.27399 -2.01960
vt 0.46307 -1.72764
vt 0.51616 -2.01960
vt 0.25622 -1.77073
vt -0.26450 -2.02980
vt -0.52838 -2.02980
vt -0.47124 -1.71552
vt -0.24541 -1.76257
vn -0.8085 -0.5843 -0.0704
vn -0.7302 -0.0901 0.6773
vn -0.7266 -0.0660 0.6839
vn -0.7243 -0.0519 0.6876
vn -0.7350 -0.1004 0.6706
vn -0.7347 -0.0989 0.6712
vn -0.7524 -0.2306 0.6170
vn -0.6128 0.6511 0.4478
vn -0.6209 0.7507 0.2257
vn -0.6051 0.7935 0.0650
vn -0.6221 0.7306 -0.2813
vn -0.6225 0.6667 -0.4099
vn -0.6139 0.6524 -0.4444
vn -0.6139 0.6522 -0.4448
vn -0.6052 0.6989 -0.3812
vn -0.6984 0.1106 -0.7071
vn -0.1557 -0.9828 -0.0995
vn -0.0450 -0.2838 0.9578
vn -0.0397 -0.2506 0.9673
vn -0.0365 -0.2307 0.9723
vn -0.0424 -0.2680 0.9625
vn -0.0549 -0.3468 0.9363
vn -0.0764 -0.4826 0.8725
vn 0.1211 0.7644 0.6332
vn 0.1563 0.9868 -0.0434
vn 0.1151 0.7265 -0.6775
vn 0.1191 0.7520 -0.6483
vn 0.1245 0.7858 -0.6058
vn 0.1318 0.8319 -0.5391
vn 0.0000 0.0000 -1.0000
vn 0.5883 -0.8056 -0.0704
vn 0.6666 -0.3113 0.6773
vn 0.6706 -0.2873 0.6839
vn 0.6728 -0.2732 0.6876
vn 0.6680 -0.3226 0.6706
vn 0.6682 -0.3211 0.6712
vn 0.6444 -0.4519 0.6170
vn 0.7840 0.4299 0.4478
vn 0.8225 0.5221 0.2257
vn 0.8207 0.5677 0.0650
vn 0.8175 0.5026 -0.2813
vn 0.7981 0.4417 -0.4099
vn 0.7854 0.4308 -0.4444
vn 0.7854 0.4305 -0.4448
vn 0.7916 0.4776 -0.3812
vn 0.6984 -0.1106 -0.7071
vn -0.9877 0.1564 -0.0000
vn 0.9877 -0.1564 0.0000
vn 0.8085 -0.5843 -0.0704
vn 0.7302 -0.0901 0.6773
vn 0.7243 -0.0519 0.6876
vn 0.7266 -0.0660 0.6839
vn 0.7347 -0.0989 0.6712
vn 0.7350 -0.1004 0.6706
vn 0.7524 -0.2306 0.6170
vn 0.6128 0.6511 0.4478
vn 0.6051 0.7935 0.0650
vn 0.6209 0.7507 0.2257
vn 0.6225 0.6667 -0.4099
vn 0.6221 0.7306 -0.2813
vn 0.6139 0.6522 -0.4448
vn 0.6139 0.6524 -0.4444
vn 0.6052 0.6989 -0.3812
vn 0.6984 0.1106 -0.7071
vn 0.1557 -0.9828 -0.0995
vn 0.0450 -0.2838 0.9578
vn 0.0397 -0.2506 0.9673
vn 0.0365 -0.2307 0.9723
vn 0.0424 -0.2680 0.9625
vn 0.0549 -0.3468 0.9363
vn 0.0764 -0.4826 0.8725
vn -0.1211 0.7644 0.6332
vn -0.1563 0.9868 -0.0434
vn -0.1151 0.7265 -0.6775
vn -0.1245 0.7858 -0.6058
vn -0.1191 0.7520 -0.6483
vn -0.1318 0.8319 -0.5391
vn -0.5883 -0.8056 -0.0704
vn -0.6666 -0.3113 0.6773
vn -0.6706 -0.2873 0.6839
vn -0.6728 -0.2732 0.6876
vn -0.6680 -0.3226 0.6706
vn -0.6682 -0.3211 0.6712
vn -0.6444 -0.4519 0.6170
vn -0.7840 0.4299 0.4478
vn -0.8225 0.5221 0.2257
vn -0.8207 0.5677 0.0650
vn -0.8175 0.5026 -0.2813
vn -0.7981 0.4417 -0.4099
vn -0.7854 0.4308 -0.4444
vn -0.7854 0.4305 -0.4448
vn -0.7916 0.4776 -0.3812
vn -0.6984 -0.1106 -0.7071
vn 0.9877 0.1564 -0.0000
vn -0.9877 -0.1564 0.0000
vn 0.0565 -0.7060 0.7060
vn 0.2627 -0.6465 0.7163
vn 0.2662 -0.6451 0.7162
vn 0.4755 -0.5464 0.6894
vn 0.7338 0.0000 0.6794
vn 0.0565 0.7060 0.7060
vn -0.6771 0.0000 0.7359
vn 0.0000 -1.0000 0.0000
vn 0.6097 -0.7926 0.0000
vn 1.0000 0.0000 0.0000
vn 0.0000 1.0000 0.0000
vn -1.0000 0.0000 0.0000
vn -0.0565 -0.7060 -0.7060
vn 0.1504 -0.6626 -0.7337
vn 0.1525 -0.6620 -0.7338
vn 0.3834 -0.5737 -0.7238
vn 0.6771 0.0000 -0.7359
vn -0.0565 0.7060 -0.7060
vn -0.7338 0.0000 -0.6794
vn 0.0797 0.0000 0.9968
vn -0.0797 -0.0000 -0.9968
vn -0.0565 -0.7060 0.7060
vn -0.2662 -0.6451 0.7162
vn -0.2627 -0.6465 0.7163
vn -0.4755 -0.5464 0.6894
vn -0.7338 0.0000 0.6794
vn -0.0565 0.7060 0.7060
vn 0.6771 0.0000 0.7359
vn -0.6097 -0.7926 0.0000
vn 0.0565 -0.7060 -0.7060
vn -0.1504 -0.6626 -0.7337
vn -0.1525 -0.6620 -0.7338
vn -0.3834 -0.5737 -0.7238
vn -0.6771 0.0000 -0.7359
vn 0.0565 0.7060 -0.7060
vn 0.7338 0.0000 -0.6794
vn -0.0797 0.0000 0.9968
vn 0.0797 -0.0000 -0.9968
vn 0.2542 -0.4661 -0.8474
vn 0.7644 0.2646 -0.5880
vn 0.3496 0.5739 -0.7405
vn 0.2424 0.5387 -0.8069
vn 0.2891 0.7740 -0.5633
vn 0.4184 0.7267 -0.5448
vn 0.1721 0.8031 -0.5705
vn 0.0734 0.8183 -0.5701
vn -0.5005 0.4620 -0.7322
vn 0.4679 0.8838 0.0000
vn -0.1713 0.9852 0.0000
vn -0.9835 0.1810 0.0000
vn -0.1679 -0.8115 0.5597
vn 0.5381 -0.3459 0.7687
vn 0.1522 0.3933 0.9067
vn -0.3837 0.4357 0.8142
vn -0.7783 -0.1631 0.6064
vn 0.2639 0.3958 -0.8796
vn 0.2850 0.4390 -0.8521
vn -0.2639 -0.3958 0.8796
vn -0.2542 -0.4661 -0.8474
vn -0.7644 0.2646 -0.5880
vn -0.3496 0.5739 -0.7405
vn -0.2891 0.7740 -0.5633
vn -0.2424 0.5387 -0.8069
vn -0.4184 0.7267 -0.5448
vn -0.1721 0.8031 -0.5705
vn -0.0734 0.8183 -0.5701
vn 0.5005 0.4620 -0.7322
vn -0.4679 0.8838 0.0000
vn 0.1713 0.9852 0.0000
vn 0.9835 0.1810 0.0000
vn 0.1679 -0.8115 0.5597
vn -0.5381 -0.3459 0.7687
vn -0.1522 0.3933 0.9067
vn 0.3837 0.4357 0.8142
vn 0.7783 -0.1631 0.6064
vn -0.2639 0.3958 -0.8796
vn -0.2850 0.4390 -0.8521
vn 0.2639 -0.3958 0.8796
vn 0.0741 -0.7014 -0.7089
vn 0.7809 0.0000 -0.6247
vn 0.4611 0.5916 -0.6614
vn -0.0480 0.6875 -0.7246
vn -0.5625 0.2283 -0.7947
vn -0.1455 -0.9894 0.0000
vn 0.4472 0.8944 0.0000
vn -0.3162 0.9487 0.0000
vn -0.9578 0.2873 0.0000
vn -0.2707 -0.6771 0.6843
vn 0.6000 0.0000 0.8000
vn 0.1454 0.6596 0.7374
vn -0.3800 0.6366 0.6711
vn -0.7576 0.1802 0.6273
vn 0.2425 -0.0000 -0.9701
vn -0.2425 -0.0000 0.9701
vn -0.0741 -0.7014 -0.7089
vn -0.7809 0.0000 -0.6247
vn -0.4611 0.5916 -0.6614
vn 0.0480 0.6875 -0.7246
vn 0.5625 0.2283 -0.7947
vn 0.1455 -0.9894 0.0000
vn -0.4472 0.8944 0.0000
vn 0.3162 0.9487 0.0000
vn 0.9578 0.2873 0.0000
vn 0.2707 -0.6771 0.6843
vn -0.6000 0.0000 0.8000
vn -0.1454 0.6596 0.7374
vn 0.3800 0.6366 0.6711
vn 0.7576 0.1802 0.6273
vn -0.2425 -0.0000 -0.9701
vn 0.2425 -0.0000 0.9701
vn 0.3173 0.5068 -0.8015
vn -0.4177 -0.2171 -0.8822
vn 0.2185 -0.7841 -0.5810
vn 0.1698 -0.7868 -0.5934
vn 0.1318 -0.7876 -0.6020
vn 0.1665 -0.7806 -0.6024
vn 0.2882 -0.7594 -0.5833
vn 0.2613 -0.6590 -0.7053
vn 0.4439 -0.3357 -0.8308
vn 0.4484 -0.7108 -0.5419
vn 0.5131 -0.3008 -0.8039
vn 0.4907 -0.3021 -0.8173
vn 0.8066 -0.2554 -0.5331
vn -0.1241 0.9923 0.0000
vn -0.9935 0.1139 0.0000
vn -0.1439 -0.9896 0.0000
vn -0.2321 -0.9727 0.0000
vn -0.3035 -0.9528 0.0000
vn -0.3615 -0.9324 0.0000
vn 0.3074 -0.9516 0.0000
vn 0.9929 -0.1191 0.0000
vn -0.3576 0.7509 0.5553
vn -0.8072 0.2528 0.5334
vn -0.4547 0.3036 0.8373
vn -0.4922 0.3017 0.8165
vn -0.4898 -0.4645 0.7378
vn -0.5412 -0.4360 0.7191
vn -0.5796 -0.4127 0.7027
vn -0.5337 -0.4225 0.7325
vn -0.4142 -0.4582 0.7865
vn -0.1800 -0.5008 0.8466
vn 0.4177 0.2128 0.8833
vn 0.5127 -0.3275 -0.7936
vn 0.4395 -0.3043 -0.8452
vn 0.4548 -0.4400 -0.7743
vn -0.4395 0.3043 0.8452
vn -0.3173 0.5068 -0.8015
vn 0.4177 -0.2171 -0.8822
vn -0.2185 -0.7841 -0.5810
vn -0.1698 -0.7868 -0.5934
vn -0.1318 -0.7876 -0.6020
vn -0.1665 -0.7806 -0.6024
vn -0.2882 -0.7594 -0.5833
vn -0.2613 -0.6590 -0.7053
vn -0.4439 -0.3357 -0.8308
vn -0.4484 -0.7108 -0.5419
vn -0.5131 -0.3008 -0.8039
vn -0.8066 -0.2554 -0.5331
vn -0.4907 -0.3021 -0.8173
vn 0.1241 0.9923 0.0000
vn 0.9935 0.1139 0.0000
vn 0.1439 -0.9896 0.0000
vn 0.2321 -0.9727 0.0000
vn 0.3035 -0.9528 0.0000
vn 0.3615 -0.9324 0.0000
vn -0.3074 -0.9516 0.0000
vn -0.9929 -0.1191 0.0000
vn 0.3576 0.7509 0.5553
vn 0.8072 0.2528 0.5334
vn 0.4547 0.3036 0.8373
vn 0.4922 0.3017 0.8165
vn 0.4898 -0.4645 0.7378
vn 0.5412 -0.4360 0.7191
vn 0.5796 -0.4127 0.7027
vn 0.5337 -0.4225 0.7325
vn 0.4142 -0.4582 0.7865
vn 0.1800 -0.5008 0.8466
vn -0.4177 0.2128 0.8833
vn -0.5127 -0.3275 -0.7936
vn -0.4395 -0.3043 -0.8452
vn -0.4548 -0.4400 -0.7743
vn 0.4395 0.3043 0.8452
vn -0.7071 -0.6922 0.1442
vn -0.7071 0.0504 0.7053
vn -0.7071 0.7071 0.0000
vn -0.7071 -0.1265 -0.6957
vn 0.0000 -0.9790 0.2040
vn 0.0000 0.0712 0.9975
vn 0.0000 -0.1789 -0.9839
vn 0.7071 -0.6922 0.1442
vn 0.7071 0.0504 0.7053
vn 0.7071 0.7071 0.0000
vn 0.7071 -0.1265 -0.6957
s off
f 1/1/1 11/2/1 2/3/1
f 1/1/1 10/4/1 11/2/1
f 2/5/2 12/6/3 3/7/4
f 2/5/2 11/8/2 12/6/3
f 3/7/4 13/9/5 4/10/6
f 3/7/4 12/6/3 13/9/5
f 4/10/6 13/9/5 5/11/7
f 5/11/7 13/9/5 14/12/7
f 5/13/8 15/14/9 6/15/10
f 5/13/8 14/16/8 15/14/9
f 6/17/10 16/18/11 7/19/12
f 6/17/10 15/20/9 16/18/11
f 7/19/12 17/21/13 8/22/14
f 7/19/12 16/18/11 17/21/13
f 8/22/14 17/21/13 9/23/15
f 9/23/15 17/21/13 18/24/15
f 9/25/16 18/26/16 1/27/16
f 1/27/16 18/26/16 10/28/16
f 10/29/17 20/30/17 11/31/17
f 10/29/17 19/32/17 20/30/17
f 11/33/18 20/34/18 12/35/19
f 12/35/19 20/34/18 21/36/20
f 12/35/19 21/36/20 13/37/21
f 13/37/21 21/36/20 22/38/22
f 13/37/21 22/38/22 14/39/23
f 14/39/23 22/38/22 23/40/23
f 14/41/24 23/42/24 15/43/24
f 15/43/24 23/42/24 24/44/24
f 15/45/25 24/46/25 16/47/25
f 16/47/25 24/46/25 25/48/25
f 16/49/26 26/50/27 17/51/28
f 16/49/26 25/52/26 26/50/27
f 17/51/28 27/53/29 18/54/29
f 17/51/28 26/50/27 27/53/29
f 18/55/30 19/56/30 10/57/30
f 18/55/30 27/58/30 19/56/30
f 19/59/31 28/60/31 20/61/31
f 20/61/31 28/60/31 29/62/31
f 20/63/32 29/64/32 21/65/33
f 21/65/33 29/64/32 30/66/34
f 21/65/33 30/66/34 22/67/35
f 22/67/35 30/66/34 31/68/36
f 22/67/35 32/69/37 23/70/37
f 22/67/35 31/68/36 32/69/37
f 23/71/38 32/72/38 24/73/39
f 24/73/39 32/72/38 33/74/40
f 24/75/39 33/76/40 25/77/41
f 25/77/41 33/76/40 34/78/42
f 25/77/41 34/78/42 26/79/43
f 26/79/43 34/78/42 35/80/44
f 26/79/43 36/81/45 27/82/45
f 26/79/43 35/80/44 36/81/45
f 27/83/46 28/84/46 19/85/46
f 27/83/46 36/86/46 28/84/46
f 9/87/47 1/88/47 2/89/47
f 9/87/47 2/89/47 3/90/47
f 9/87/47 3/90/47 4/91/47
f 4/91/47 5/92/47 6/93/47
f 4/91/47 6/93/47 7/94/47
f 4/91/47 7/94/47 8/95/47
f 4/91/47 8/95/47 9/87/47
f 36/96/48 29/97/48 28/98/48
f 36/96/48 30/99/48 29/97/48
f 36/96/48 31/100/48 30/99/48
f 31/100/48 33/101/48 32/102/48
f 31/100/48 34/103/48 33/101/48
f 31/100/48 35/104/48 34/103/48
f 31/100/48 36/96/48 35/104/48
f 37/105/49 38/106/49 47/107/49
f 37/105/49 47/107/49 46/108/49
f 38/109/50 39/110/51 48/111/52
f 38/109/50 48/111/52 47/112/50
f 39/110/51 40/113/53 49/114/54
f 39/110/51 49/114/54 48/111/52
f 40/113/53 41/115/55 49/114/54
f 41/115/55 50/116/55 49/114/54
f 41/117/56 42/118/57 51/119/58
f 41/117/56 51/119/58 50/120/56
f 42/121/57 43/122/59 52/123/60
f 42/121/57 52/123/60 51/124/58
f 43/122/59 44/125/61 53/126/62
f 43/122/59 53/126/62 52/123/60
f 44/125/61 45/127/63 53/126/62
f 45/127/63 54/128/63 53/126/62
f 45/129/64 37/130/64 54/131/64
f 37/130/64 46/132/64 54/131/64
f 46/133/65 47/134/65 56/135/65
f 46/133/65 56/135/65 55/136/65
f 47/137/66 48/138/67 56/139/66
f 48/138/67 57/140/68 56/139/66
f 48/138/67 49/141/69 57/140/68
f 49/141/69 58/142/70 57/140/68
f 49/141/69 50/143/71 58/142/70
f 50/143/71 59/144/71 58/142/70
f 50/145/72 51/146/72 59/147/72
f 51/146/72 60/148/72 59/147/72
f 51/149/73 52/150/73 60/151/73
f 52/150/73 61/152/73 60/151/73
f 52/153/74 53/154/75 62/155/76
f 52/153/74 62/155/76 61/156/74
f 53/154/75 54/157/77 63/158/77
f 53/154/75 63/158/77 62/155/76
f 54/159/30 46/160/30 55/161/30
f 54/159/30 55/161/30 63/162/30
f 55/163/78 56/164/78 64/165/78
f 56/164/78 65/166/78 64/165/78
f 56/167/79 57/168/80 65/169/79
f 57/168/80 66/170/81 65/169/79
f 57/168/80 58/171/82 66/170/81
f 58/171/82 67/172/83 66/170/81
f 58/171/82 59/173/84 68/174/84
f 58/171/82 68/174/84 67/172/83
f 59/175/85 60/176/86 68/177/85
f 60/176/86 69/178/87 68/177/85
f 60/179/86 61/180/88 69/181/87
f 61/180/88 70/182/89 69/181/87
f 61/180/88 62/183/90 70/182/89
f 62/183/90 71/184/91 70/182/89
f 62/183/90 63/185/92 72/186/92
f 62/183/90 72/186/92 71/184/91
f 63/187/93 55/188/93 64/189/93
f 63/187/93 64/189/93 72/190/93
f 45/96/94 38/97/94 37/98/94
f 45/96/94 39/99/94 38/97/94
f 45/96/94 40/100/94 39/99/94
f 40/100/94 42/101/94 41/102/94
f 40/100/94 43/103/94 42/101/94
f 40/100/94 44/104/94 43/103/94
f 40/100/94 45/96/94 44/104/94
f 72/87/95 64/88/95 65/89/95
f 72/87/95 65/89/95 66/90/95
f 72/87/95 66/90/95 67/91/95
f 67/91/95 68/92/95 69/93/95
f 67/91/95 69/93/95 70/94/95
f 67/91/95 70/94/95 71/95/95
f 67/91/95 71/95/95 72/87/95
f 73/191/96 79/192/97 74/193/98
f 73/191/96 78/194/96 79/192/97
f 74/193/98 79/192/97 75/195/99
f 75/195/99 79/192/97 80/196/99
f 75/197/100 80/198/100 76/199/100
f 76/199/100 80/198/100 81/200/100
f 76/201/101 82/202/101 77/203/101
f 76/201/101 81/204/101 82/202/101
f 77/205/102 78/206/102 73/207/102
f 77/205/102 82/208/102 78/206/102
f 78/209/103 83/210/103 79/211/103
f 79/211/103 83/210/103 84/212/103
f 79/213/104 84/214/104 80/215/104
f 80/215/104 84/214/104 85/216/104
f 80/217/105 86/218/105 81/219/105
f 80/217/105 85/220/105 86/218/105
f 81/221/106 87/222/106 82/223/106
f 81/221/106 86/224/106 87/222/106
f 82/225/107 83/226/107 78/227/107
f 82/225/107 87/228/107 83/226/107
f 83/229/108 88/230/108 84/231/109
f 84/231/109 88/230/108 89/232/110
f 84/231/109 90/233/111 85/234/111
f 84/231/109 89/232/110 90/233/111
f 85/235/112 91/236/112 86/237/112
f 85/235/112 90/238/112 91/236/112
f 86/239/113 92/240/113 87/241/113
f 86/239/113 91/242/113 92/240/113
f 87/243/114 92/244/114 83/245/114
f 83/245/114 92/244/114 88/246/114
f 76/247/115 77/248/115 73/249/115
f 76/247/115 73/249/115 74/250/115
f 74/250/115 75/251/115 76/247/115
f 91/252/116 88/253/116 92/254/116
f 91/252/116 89/255/116 88/253/116
f 89/255/116 91/252/116 90/256/116
f 93/257/117 94/258/118 99/259/119
f 93/257/117 99/259/119 98/260/117
f 94/258/118 95/261/120 99/259/119
f 95/261/120 100/262/120 99/259/119
f 95/263/121 96/264/121 100/265/121
f 96/264/121 101/266/121 100/265/121
f 96/267/122 97/268/122 102/269/122
f 96/267/122 102/269/122 101/270/122
f 97/271/123 93/272/123 98/273/123
f 97/271/123 98/273/123 102/274/123
f 98/275/103 99/276/103 103/277/103
f 99/276/103 104/278/103 103/277/103
f 99/279/124 100/280/124 104/281/124
f 100/280/124 105/282/124 104/281/124
f 100/283/107 101/284/107 106/285/107
f 100/283/107 106/285/107 105/286/107
f 101/287/106 102/288/106 107/289/106
f 101/287/106 107/289/106 106/290/106
f 102/291/105 98/292/105 103/293/105
f 102/291/105 103/293/105 107/294/105
f 103/295/125 104/296/126 108/297/125
f 104/296/126 109/298/127 108/297/125
f 104/296/126 105/299/128 110/300/128
f 104/296/126 110/300/128 109/298/127
f 105/301/129 106/302/129 111/303/129
f 105/301/129 111/303/129 110/304/129
f 106/305/130 107/306/130 112/307/130
f 106/305/130 112/307/130 111/308/130
f 107/309/131 103/310/131 112/311/131
f 103/310/131 108/312/131 112/311/131
f 96/313/132 93/314/132 97/315/132
f 96/313/132 94/316/132 93/314/132
f 94/316/132 96/313/132 95/317/132
f 111/318/133 112/319/133 108/320/133
f 111/318/133 108/320/133 109/321/133
f 109/321/133 110/322/133 111/318/133
f 113/323/134 114/324/134 118/325/134
f 114/324/134 119/326/134 118/325/134
f 114/327/135 115/328/135 119/329/135
f 115/328/135 120/330/135 119/329/135
f 115/331/136 116/332/137 121/333/138
f 115/331/136 121/333/138 120/334/139
f 116/332/140 117/335/141 122/336/141
f 116/332/140 122/336/141 121/333/138
f 117/337/142 113/338/142 118/339/142
f 117/337/142 118/339/142 122/340/142
f 118/341/103 119/342/103 123/343/103
f 119/342/103 124/344/103 123/343/103
f 119/345/105 120/346/105 124/347/105
f 120/346/105 125/348/105 124/347/105
f 120/349/143 121/350/143 126/351/143
f 120/349/143 126/351/143 125/352/143
f 121/353/144 122/354/144 127/355/144
f 121/353/144 127/355/144 126/356/144
f 122/357/145 118/358/145 123/359/145
f 122/357/145 123/359/145 127/360/145
f 123/361/146 124/362/146 128/363/146
f 124/362/146 129/364/146 128/363/146
f 124/365/147 125/366/147 129/367/147
f 125/366/147 130/368/147 129/367/147
f 125/369/148 126/370/148 130/371/148
f 126/370/148 131/372/148 130/371/148
f 126/373/149 127/374/149 132/375/149
f 126/373/149 132/375/149 131/376/149
f 127/377/150 123/378/150 128/379/150
f 127/377/150 128/379/150 132/380/150
f 117/335/151 114/381/151 113/382/151
f 116/332/152 114/381/151 117/335/151
f 114/381/151 116/332/152 115/331/136
f 132/383/153 128/384/153 129/385/153
f 131/386/153 132/383/153 129/385/153
f 129/385/153 130/387/153 131/386/153
f 133/388/154 138/389/154 134/390/154
f 134/390/154 138/389/154 139/391/154
f 134/392/155 139/393/155 135/394/155
f 135/394/155 139/393/155 140/395/155
f 135/396/156 141/397/157 136/398/158
f 135/396/156 140/399/159 141/397/157
f 136/398/160 142/400/161 137/401/161
f 136/398/160 141/397/157 142/400/161
f 137/402/162 138/403/162 133/404/162
f 137/402/162 142/405/162 138/403/162
f 138/406/103 143/407/103 139/408/103
f 139/408/103 143/407/103 144/409/103
f 139/410/107 144/411/107 140/412/107
f 140/412/107 144/411/107 145/413/107
f 140/414/163 146/415/163 141/416/163
f 140/414/163 145/417/163 146/415/163
f 141/418/164 147/419/164 142/420/164
f 141/418/164 146/421/164 147/419/164
f 142/422/165 143/423/165 138/424/165
f 142/422/165 147/425/165 143/423/165
f 143/426/166 148/427/166 144/428/166
f 144/428/166 148/427/166 149/429/166
f 144/430/167 149/431/167 145/432/167
f 145/432/167 149/431/167 150/433/167
f 145/434/168 150/435/168 146/436/168
f 146/436/168 150/435/168 151/437/168
f 146/438/169 152/439/169 147/440/169
f 146/438/169 151/441/169 152/439/169
f 147/442/170 148/443/170 143/444/170
f 147/442/170 152/445/170 148/443/170
f 137/401/171 133/446/171 134/447/171
f 136/398/172 137/401/171 134/447/171
f 134/447/171 135/396/156 136/398/172
f 152/448/173 149/449/173 148/450/173
f 151/451/173 149/449/173 152/448/173
f 149/449/173 151/451/173 150/452/173
f 153/453/174 154/454/174 158/455/174
f 154/454/174 159/456/174 158/455/174
f 154/457/175 155/458/175 160/459/175
f 154/457/175 160/459/175 159/460/175
f 155/461/176 156/462/176 161/463/176
f 155/461/176 161/463/176 160/464/176
f 156/465/177 157/466/177 162/467/177
f 156/465/177 162/467/177 161/468/177
f 157/469/178 153/470/178 162/471/178
f 153/470/178 158/472/178 162/471/178
f 158/473/179 159/474/179 163/475/179
f 159/474/179 164/476/179 163/475/179
f 159/477/105 160/478/105 165/479/105
f 159/477/105 165/479/105 164/480/105
f 160/481/180 161/482/180 166/483/180
f 160/481/180 166/483/180 165/484/180
f 161/485/181 162/486/181 167/487/181
f 161/485/181 167/487/181 166/488/181
f 162/489/182 158/490/182 163/491/182
f 162/489/182 163/491/182 167/492/182
f 163/493/183 164/494/183 168/495/183
f 164/494/183 169/496/183 168/495/183
f 164/497/184 165/498/184 169/499/184
f 165/498/184 170/500/184 169/499/184
f 165/501/185 166/502/185 171/503/185
f 165/501/185 171/503/185 170/504/185
f 166/505/186 167/506/186 172/507/186
f 166/505/186 172/507/186 171/508/186
f 167/509/187 163/510/187 168/511/187
f 167/509/187 168/511/187 172/512/187
f 154/513/188 156/514/188 155/515/188
f 153/516/188 156/514/188 154/513/188
f 153/516/188 157/517/188 156/514/188
f 168/518/189 169/519/189 170/520/189
f 168/518/189 170/520/189 171/521/189
f 168/518/189 171/521/189 172/522/189
f 173/523/190 178/524/190 174/525/190
f 174/525/190 178/524/190 179/526/190
f 174/527/191 180/528/191 175/529/191
f 174/527/191 179/530/191 180/528/191
f 175/531/192 181/532/192 176/533/192
f 175/531/192 180/534/192 181/532/192
f 176/535/193 182/536/193 177/537/193
f 176/535/193 181/538/193 182/536/193
f 177/539/194 182/540/194 173/541/194
f 173/541/194 182/540/194 178/542/194
f 178/543/195 183/544/195 179/545/195
f 179/545/195 183/544/195 184/546/195
f 179/547/107 185/548/107 180/549/107
f 179/547/107 184/550/107 185/548/107
f 180/551/196 186/552/196 181/553/196
f 180/551/196 185/554/196 186/552/196
f 181/555/197 187/556/197 182/557/197
f 181/555/197 186/558/197 187/556/197
f 182/559/198 183/560/198 178/561/198
f 182/559/198 187/562/198 183/560/198
f 183/563/199 188/564/199 184/565/199
f 184/565/199 188/564/199 189/566/199
f 184/567/200 189/568/200 185/569/200
f 185/569/200 189/568/200 190/570/200
f 185/571/201 191/572/201 186/573/201
f 185/571/201 190/574/201 191/572/201
f 186/575/202 192/576/202 187/577/202
f 186/575/202 191/578/202 192/576/202
f 187/579/203 188/580/203 183/581/203
f 187/579/203 192/582/203 188/580/203
f 174/583/204 175/584/204 176/585/204
f 173/586/204 174/583/204 176/585/204
f 173/586/204 176/585/204 177/587/204
f 188/588/205 190/589/205 189/590/205
f 188/588/205 191/591/205 190/589/205
f 188/588/205 192/592/205 191/591/205
f 193/593/206 194/594/206 200/595/206
f 193/593/206 200/595/206 199/596/206
f 194/597/207 195/598/207 200/599/207
f 195/598/207 201/600/207 200/599/207
f 195/601/208 196/602/209 201/603/208
f 196/602/209 202/604/210 201/603/208
f 196/602/209 197/605/211 202/604/210
f 197/605/211 203/606/212 202/604/210
f 197/607/213 198/608/214 203/609/212
f 198/608/214 204/610/215 203/609/212
f 198/608/216 193/611/217 199/612/218
f 198/608/216 199/612/218 204/610/218
f 199/613/219 200/614/219 206/615/219
f 199/613/219 206/615/219 205/616/219
f 200/617/220 201/618/220 206/619/220
f 201/618/220 207/620/220 206/619/220
f 201/621/221 202/622/222 207/623/221
f 202/622/222 208/624/223 207/623/221
f 202/622/222 203/625/224 208/624/223
f 203/625/224 209/626/224 208/624/223
f 203/627/225 204/628/225 209/629/225
f 204/628/225 210/630/225 209/629/225
f 204/631/226 199/632/226 205/633/226
f 204/631/226 205/633/226 210/634/226
f 205/635/227 206/636/227 212/637/227
f 205/635/227 212/637/227 211/638/227
f 206/639/228 207/640/228 212/641/229
f 207/640/228 213/642/230 212/641/229
f 207/643/231 208/644/232 213/645/231
f 208/644/232 214/646/233 213/645/231
f 208/644/232 209/647/234 214/646/233
f 209/647/234 215/648/235 214/646/233
f 209/647/234 210/649/236 215/648/235
f 210/649/236 216/650/236 215/648/235
f 210/651/237 205/652/237 211/653/237
f 210/651/237 211/653/237 216/654/237
f 198/608/238 194/655/239 193/611/217
f 194/655/239 196/656/239 195/657/239
f 198/608/238 196/656/239 194/655/239
f 196/656/239 198/608/238 197/607/240
f 216/658/241 211/659/241 212/641/229
f 212/641/229 213/642/230 214/660/241
f 216/658/241 212/641/229 214/660/241
f 214/660/241 215/661/241 216/658/241
f 217/662/242 224/663/242 218/664/242
f 217/662/242 223/665/242 224/663/242
f 218/666/243 224/667/243 219/668/243
f 219/668/243 224/667/243 225/669/243
f 219/670/244 225/671/244 220/672/245
f 220/672/245 225/671/244 226/673/246
f 220/672/245 226/673/246 221/674/247
f 221/674/247 226/673/246 227/675/248
f 221/676/249 227/677/248 222/678/250
f 222/678/250 227/677/248 228/679/251
f 222/678/252 223/680/253 217/681/254
f 222/678/252 228/679/253 223/680/253
f 223/682/255 230/683/255 224/684/255
f 223/682/255 229/685/255 230/683/255
f 224/686/256 230/687/256 225/688/256
f 225/688/256 230/687/256 231/689/256
f 225/690/257 231/691/257 226/692/258
f 226/692/258 231/691/257 232/693/259
f 226/692/258 232/693/259 227/694/260
f 227/694/260 232/693/259 233/695/260
f 227/696/261 233/697/261 228/698/261
f 228/698/261 233/697/261 234/699/261
f 228/700/262 229/701/262 223/702/262
f 228/700/262 234/703/262 229/701/262
f 229/704/263 236/705/263 230/706/263
f 229/704/263 235/707/263 236/705/263
f 230/708/264 236/709/265 231/710/264
f 231/710/264 236/709/265 237/711/266
f 231/712/267 237/713/267 232/714/268
f 232/714/268 237/713/267 238/715/269
f 232/714/268 238/715/269 233/716/270
f 233/716/270 238/715/269 239/717/271
f 233/716/270 239/717/271 234/718/272
f 234/718/272 239/717/271 240/719/272
f 234/720/273 235/721/273 229/722/273
f 234/720/273 240/723/273 235/721/273
f 222/678/274 217/681/254 218/724/275
f 218/724/275 219/725/275 220/726/275
f 222/678/274 218/724/275 220/726/275
f 220/726/275 221/676/276 222/678/274
f 240/727/277 236/709/265 235/728/277
f 236/709/265 238/729/277 237/711/266
f 240/727/277 238/729/277 236/709/265
f 238/729/277 240/727/277 239/730/277
f 241/731/278 246/732/278 242/733/278
f 241/731/278 245/734/278 246/732/278
f 242/735/279 246/736/279 243/737/279
f 243/737/279 246/736/279 247/738/279
f 243/739/280 247/740/280 244/741/280
f 244/741/280 247/740/280 248/742/280
f 244/743/281 245/744/281 241/745/281
f 244/743/281 248/746/281 245/744/281
f 245/747/282 250/748/282 246/749/282
f 245/747/282 249/750/282 250/748/282
f 246/751/283 251/752/283 247/753/283
f 246/751/283 250/754/283 251/752/283
f 247/755/106 252/756/106 248/757/106
f 247/755/106 251/758/106 252/756/106
f 248/759/284 249/760/284 245/761/284
f 248/759/284 252/762/284 249/760/284
f 249/763/285 253/764/285 250/765/285
f 250/765/285 253/764/285 254/766/285
f 250/767/286 255/768/286 251/769/286
f 250/767/286 254/770/286 255/768/286
f 251/771/287 256/772/287 252/773/287
f 251/771/287 255/774/287 256/772/287
f 252/775/288 256/776/288 249/777/288
f 249/777/288 256/776/288 253/778/288
f 243/779/107 244/780/107 241/781/107
f 241/781/107 242/782/107 243/779/107
f 255/783/105 253/784/105 256/785/105
f 253/784/105 255/783/105 254/786/105
f 257/787/285 258/788/285 262/789/285
f 257/787/285 262/789/285 261/790/285
f 258/791/286 259/792/286 262/793/286
f 259/792/286 263/794/286 262/793/286
f 259/795/287 260/796/287 263/797/287
f 260/796/287 264/798/287 263/797/287
f 260/799/288 257/800/288 261/801/288
f 260/799/288 261/801/288 264/802/288
f 261/803/282 262/804/282 266/805/282
f 261/803/282 266/805/282 265/806/282
f 262/807/283 263/808/283 267/809/283
f 262/807/283 267/809/283 266/810/283
f 263/811/106 264/812/106 268/813/106
f 263/811/106 268/813/106 267/814/106
f 264/815/284 261/816/284 265/817/284
f 264/815/284 265/817/284 268/818/284
f 265/819/278 266/820/278 269/821/278
f 266/820/278 270/822/278 269/821/278
f 266/823/279 267/824/279 271/825/279
f 266/823/279 271/825/279 270/826/279
f 267/827/280 268/828/280 272/829/280
f 267/827/280 272/829/280 271/830/280
f 268/831/281 265/832/281 272/833/281
f 265/832/281 269/834/281 272/833/281
f 259/835/105 257/836/105 260/837/105
f 257/836/105 259/835/105 258/838/105
f 271/839/107 272/840/107 269/841/107
f 269/841/107 270/842/107 271/839/107
