# mech2 torso - segment door_R, colour white #F2F2F2
# units: studs, +Y up, -Z forward, origin = hip-joint line centre
o door_R_white
v 0.00000 7.99680 -2.77440
v 2.19504 7.99680 -1.85248
v 2.19504 8.86970 -1.41603
v 0.00000 8.55056 -2.49752
v 0.00000 7.99680 -2.66832
v 2.30112 7.99680 -1.70185
v 2.30112 8.99232 -1.20409
v 0.00000 8.65776 -2.33784
v 0.00000 7.99680 -1.91760
v 2.30112 7.99680 -0.95113
v 2.30112 8.99232 -0.45337
v 0.00000 8.65776 -1.58712
v 0.00000 7.99680 -1.87680
v 2.26032 7.99680 -0.92747
v 2.26032 8.94516 -0.45329
v 0.00000 8.61653 -1.56693
v 0.00000 7.24905 -2.46034
v 0.83144 7.44701 -2.19428
v 2.19504 7.79369 -1.76717
v 2.19504 7.99680 -1.85248
v 0.00000 7.99680 -2.77440
v 0.00000 7.14000 -2.30846
v 0.85680 7.34400 -2.03429
v 2.30112 7.71120 -1.58190
v 2.30112 7.99680 -1.70185
v 0.00000 7.99680 -2.66832
v 0.00000 7.14000 -1.55774
v 0.85680 7.34400 -1.28357
v 2.30112 7.71120 -0.83118
v 2.30112 7.99680 -0.95113
v 0.00000 7.99680 -1.91760
v 0.00000 7.18194 -1.53456
v 0.84705 7.38362 -1.26350
v 2.26032 7.74293 -0.82084
v 2.26032 7.99680 -0.92747
v 0.00000 7.99680 -1.87680
vt 0.00000 0.69360
vt -0.54876 0.46312
vt 0.00000 0.66708
vt -0.57528 0.42546
vt -0.26801 -1.70346
vt -0.39900 -1.90930
vt -0.31322 -1.69465
vt -0.46261 -1.92940
vt -0.23231 0.94202
vt 0.32291 0.67307
vt 0.32291 0.72115
vt -0.25915 1.00309
vt -0.62438 -2.13764
vt -0.69360 -1.99920
vt -0.66708 -1.99920
vt -0.58446 -2.16444
vt 0.00000 0.47940
vt -0.57528 0.23778
vt 0.42546 -1.99920
vt 0.30102 -2.24808
vt 0.23778 -1.99920
vt 0.11334 -2.24808
vt -0.89274 -0.30102
vt -0.31141 -0.58446
vt -0.31141 -0.39678
vt -0.89274 -0.11334
vt -0.47940 -1.99920
vt -0.39678 -2.16444
vt -0.56508 0.23187
vt 0.00000 0.46920
vt 1.02030 -1.68180
vt 1.02030 -1.96006
vt 1.00881 -1.94952
vt 1.00881 -1.68445
vt 0.91385 -2.06892
vt 0.26900 -2.11843
vt 0.90241 -2.05832
vt 0.26900 -2.10695
vt -0.39173 -2.15413
vt -0.46920 -1.99920
vt -0.05363 -1.58102
vt 0.53258 -1.63273
vt -0.05363 -1.82501
vt 0.53258 -1.47795
vt 0.14164 -1.68445
vt 0.14164 -1.94952
vt -0.46199 -1.75153
vt -0.46199 -1.57831
vt -0.15180 -1.86937
vt -0.37545 -1.87736
vt -0.15862 -1.82640
vt -0.38909 -1.83464
vt -0.74255 -1.89638
vt -0.77792 -1.85478
vt 0.38090 -2.02405
vt 0.40664 -2.07275
vt 0.36120 -2.08027
vt 0.32501 -2.01180
vt -0.54876 -0.46312
vt 0.00000 -0.69360
vt 0.00000 -0.66708
vt -0.57528 -0.42546
vt -0.61509 -1.81226
vt -0.57712 -1.78500
vt -0.43003 0.57712
vt -0.65021 0.50857
vt -0.43003 0.38944
vt -0.65021 0.32089
vt -1.02277 0.39547
vt -1.02277 0.20779
vt 0.39547 -1.92780
vt 0.20779 -1.92780
vt 0.00000 -0.47940
vt -0.57528 -0.23778
vt -0.38944 -1.78500
vt -0.18632 -1.37589
vt 0.03079 -1.45362
vt -0.18632 -1.38787
vt 0.02832 -1.46472
vt 0.39600 -1.58858
vt 0.38568 -1.59678
vt 0.24562 -1.85786
vt 0.24562 -1.93530
vt 0.23405 -1.86417
vt 0.23405 -1.93301
vt -0.56508 -0.23187
vt 0.00000 -0.46920
vt -0.38364 -1.79549
vt -0.16269 -2.06998
vt -0.74550 -1.95087
vt 0.12334 -2.02492
vt 0.12334 -1.80396
vt 0.35042 -1.82421
vt 0.72931 -1.93301
vt 0.72931 -1.86417
vn 0.0000 -1.0000 0.0000
vn 0.7857 0.2767 -0.5533
vn 0.1521 0.8206 -0.5509
vn -1.0000 0.0000 0.0000
vn 1.0000 0.0000 0.0000
vn -0.1439 0.9896 0.0000
vn 0.4605 -0.3970 0.7940
vn -0.4518 0.3923 0.8012
vn 0.3517 0.4186 -0.8373
vn -0.3517 -0.4186 0.8373
vn 0.3673 -0.4444 -0.8171
vn 0.3682 -0.4498 -0.8137
vn 0.3552 -0.7593 -0.5452
vn 0.3610 -0.7570 -0.5446
vn 0.3734 -0.6317 -0.6794
vn 0.3628 -0.7563 -0.5444
vn 0.7947 -0.2351 -0.5596
vn 0.0000 1.0000 0.0000
vn 0.2316 -0.9728 0.0000
vn 0.2384 -0.9712 0.0000
vn 0.2430 -0.9700 0.0000
vn 0.2464 -0.9692 0.0000
vn -0.1627 -0.4774 0.8635
vn -0.1550 -0.4764 0.8654
vn -0.1504 -0.4759 0.8665
vn 0.4716 0.3415 0.8130
vn 0.3611 -0.3611 -0.8598
vn -0.3611 0.3611 0.8598
s off
f 1/1/1 2/2/1 5/3/1
f 2/2/1 6/4/1 5/3/1
f 2/5/2 3/6/2 6/7/2
f 3/6/2 7/8/2 6/7/2
f 3/9/3 4/10/3 8/11/3
f 3/9/3 8/11/3 7/12/3
f 4/13/4 1/14/4 5/15/4
f 4/13/4 5/15/4 8/16/4
f 5/3/1 6/4/1 9/17/1
f 6/4/1 10/18/1 9/17/1
f 6/19/5 7/20/5 10/21/5
f 7/20/5 11/22/5 10/21/5
f 7/23/6 8/24/6 12/25/6
f 7/23/6 12/25/6 11/26/6
f 8/16/4 5/15/4 9/27/4
f 8/16/4 9/27/4 12/28/4
f 9/17/1 10/18/1 14/29/1
f 9/17/1 14/29/1 13/30/1
f 10/31/7 11/32/7 15/33/7
f 10/31/7 15/33/7 14/34/7
f 11/35/8 12/36/8 15/37/8
f 12/36/8 16/38/8 15/37/8
f 12/28/4 9/27/4 16/39/4
f 9/27/4 13/40/4 16/39/4
f 2/41/9 4/42/9 3/43/9
f 1/44/9 4/42/9 2/41/9
f 14/45/10 15/46/10 16/47/10
f 13/48/10 14/45/10 16/47/10
f 17/49/11 18/50/12 22/51/13
f 18/50/12 23/52/14 22/51/13
f 18/50/12 19/53/15 23/52/14
f 19/53/15 24/54/16 23/52/14
f 19/55/17 20/56/17 25/57/17
f 19/55/17 25/57/17 24/58/17
f 20/59/18 21/60/18 26/61/18
f 20/59/18 26/61/18 25/62/18
f 21/14/4 17/63/4 26/15/4
f 17/63/4 22/64/4 26/15/4
f 22/65/19 23/66/20 27/67/19
f 23/66/20 28/68/21 27/67/19
f 23/66/20 24/69/22 28/68/21
f 24/69/22 29/70/22 28/68/21
f 24/71/5 25/19/5 30/21/5
f 24/71/5 30/21/5 29/72/5
f 25/62/18 26/61/18 31/73/18
f 25/62/18 31/73/18 30/74/18
f 26/15/4 22/64/4 31/27/4
f 22/64/4 27/75/4 31/27/4
f 27/76/23 28/77/24 32/78/23
f 28/77/24 33/79/24 32/78/23
f 28/77/24 29/80/25 34/81/25
f 28/77/24 34/81/25 33/79/24
f 29/82/26 30/83/26 34/84/26
f 30/83/26 35/85/26 34/84/26
f 30/74/18 31/73/18 35/86/18
f 31/73/18 36/87/18 35/86/18
f 31/27/4 27/75/4 32/88/4
f 31/27/4 32/88/4 36/40/4
f 21/89/27 18/50/12 17/49/11
f 20/90/27 18/50/12 21/89/27
f 18/50/12 20/90/27 19/53/15
f 36/91/28 32/92/28 33/93/28
f 35/94/28 36/91/28 33/93/28
f 33/93/28 34/95/28 35/94/28
