# mech2 torso - segment hatch, colour blue #2F6FBF
# units: studs, +Y up, -Z forward, origin = hip-joint line centre
o hatch_blue
v 1.64804 6.42730 -1.54719
v 2.03659 6.88060 -1.46948
v 2.01051 7.11532 -1.47470
v 1.38340 6.92719 -1.60012
v 1.63200 6.28320 -1.46880
v 2.12160 6.85440 -1.37088
v 2.08080 7.22160 -1.37904
v 1.26480 6.97680 -1.54224
v 1.63200 6.28320 -0.76704
v 2.12160 6.85440 -0.66912
v 2.08080 7.22160 -0.67728
v 1.26480 6.97680 -0.84048
v 1.63842 6.34084 -0.73312
v 2.08759 6.86488 -0.64328
v 2.05268 7.17909 -0.65026
v 1.31224 6.95695 -0.79835
v -1.64804 6.42730 -1.54719
v -2.03659 6.88060 -1.46948
v -2.01051 7.11532 -1.47470
v -1.38340 6.92719 -1.60012
v -1.63200 6.28320 -1.46880
v -2.12160 6.85440 -1.37088
v -2.08080 7.22160 -1.37904
v -1.26480 6.97680 -1.54224
v -1.63200 6.28320 -0.76704
v -2.12160 6.85440 -0.66912
v -2.08080 7.22160 -0.67728
v -1.26480 6.97680 -0.84048
v -1.63842 6.34084 -0.73312
v -2.08759 6.86488 -0.64328
v -2.05268 7.17909 -0.65026
v -1.31224 6.95695 -0.79835
vt 0.43288 -1.64452
vt 0.38645 -1.78590
vt 0.35330 -1.78776
vt 0.41181 -1.60960
vt 0.40610 -1.83791
vt 0.38404 -1.86912
vt -0.59585 -1.02960
vt -0.43876 -0.97395
vt -0.40906 -0.99291
vt -0.61346 -1.06533
vt -0.09837 -1.73812
vt -0.17619 -1.61932
vt -0.06349 -1.74322
vt -0.17147 -1.57838
vt 0.36720 -1.45816
vt 0.34272 -1.64624
vt 0.19176 -1.45816
vt 0.16728 -1.64624
vt 0.34272 -1.64455
vt 0.34476 -1.73691
vt 0.16932 -1.73691
vt 0.16728 -1.64455
vt -1.01704 -0.34476
vt -0.80406 -0.38556
vt -0.80406 -0.21012
vt -1.01704 -0.16932
vt -0.38556 -1.39356
vt -0.36720 -1.19736
vt -0.21012 -1.39356
vt -0.19176 -1.19736
vt 0.80129 -1.21195
vt 0.93647 -1.34499
vt 0.80306 -1.22866
vt 0.92708 -1.35071
vt 0.40286 -1.72161
vt 0.38987 -1.81308
vt 0.38091 -1.80177
vt 0.39203 -1.72350
vt 0.86469 -1.42093
vt 0.64843 -1.40495
vt 0.66100 -1.39409
vt 0.85724 -1.40858
vt 0.47417 -1.47602
vt 0.49823 -1.28043
vt 0.50935 -1.29303
vt 0.48797 -1.46676
vt -0.26068 -1.73180
vt -0.42721 -1.72015
vt -0.32815 -1.60683
vt -0.42056 -1.77883
vt 0.28255 -1.73924
vt 0.36571 -1.58521
vt 0.48022 -1.71622
vt 0.47132 -1.79477
vt -0.43288 -1.64452
vt -0.35330 -1.78776
vt -0.38645 -1.78590
vt -0.41181 -1.60960
vt -0.40610 -1.83791
vt -0.38404 -1.86912
vt 0.59585 -1.02960
vt 0.40906 -0.99291
vt 0.43876 -0.97395
vt 0.61346 -1.06533
vt 0.09837 -1.73812
vt 0.06349 -1.74322
vt 0.17619 -1.61932
vt 0.17147 -1.57838
vt -0.36720 -1.45816
vt -0.19176 -1.45816
vt -0.34272 -1.64624
vt -0.16728 -1.64624
vt -0.34272 -1.64455
vt -0.16932 -1.73691
vt -0.34476 -1.73691
vt -0.16728 -1.64455
vt 1.01704 -0.34476
vt 0.80406 -0.21012
vt 0.80406 -0.38556
vt 1.01704 -0.16932
vt 0.38556 -1.39356
vt 0.21012 -1.39356
vt 0.36720 -1.19736
vt 0.19176 -1.19736
vt -0.80129 -1.21195
vt -0.80306 -1.22866
vt -0.93647 -1.34499
vt -0.92708 -1.35071
vt -0.40286 -1.72161
vt -0.38091 -1.80177
vt -0.38987 -1.81308
vt -0.39203 -1.72350
vt -0.86469 -1.42093
vt -0.66100 -1.39409
vt -0.64843 -1.40495
vt -0.85724 -1.40858
vt -0.47417 -1.47602
vt -0.50935 -1.29303
vt -0.49823 -1.28043
vt -0.48797 -1.46676
vt 0.26068 -1.73180
vt 0.32815 -1.60683
vt 0.42721 -1.72015
vt 0.42056 -1.77883
vt -0.28255 -1.73924
vt -0.48022 -1.71622
vt -0.36571 -1.58521
vt -0.47132 -1.79477
vn 0.6266 -0.4251 -0.6532
vn 0.6851 -0.2906 -0.6679
vn 0.6899 -0.2774 -0.6686
vn 0.7647 0.0707 -0.6405
vn -0.0630 0.6903 -0.7207
vn -0.5265 -0.3603 -0.7700
vn 0.7593 -0.6508 0.0000
vn 0.9939 0.1104 0.0000
vn -0.2873 0.9578 0.0000
vn -0.8838 -0.4679 0.0000
vn 0.4244 -0.4939 0.7589
vn 0.6195 0.0862 0.7803
vn -0.3320 0.6525 0.6812
vn -0.7005 -0.3024 0.6464
vn 0.1961 0.0000 -0.9806
vn -0.1961 -0.0000 0.9806
vn -0.6266 -0.4251 -0.6532
vn -0.6899 -0.2774 -0.6686
vn -0.6851 -0.2906 -0.6679
vn -0.7647 0.0707 -0.6405
vn 0.0630 0.6903 -0.7207
vn 0.5265 -0.3603 -0.7700
vn -0.7593 -0.6508 0.0000
vn -0.9939 0.1104 0.0000
vn 0.2873 0.9578 0.0000
vn 0.8838 -0.4679 0.0000
vn -0.4244 -0.4939 0.7589
vn -0.6195 0.0862 0.7803
vn 0.3320 0.6525 0.6812
vn 0.7005 -0.3024 0.6464
vn -0.1961 0.0000 -0.9806
vn 0.1961 -0.0000 0.9806
s off
f 1/1/1 2/2/2 6/3/3
f 1/1/1 6/3/3 5/4/1
f 2/2/2 3/5/4 6/3/3
f 3/5/4 7/6/4 6/3/3
f 3/7/5 4/8/5 8/9/5
f 3/7/5 8/9/5 7/10/5
f 4/11/6 1/12/6 8/13/6
f 1/12/6 5/14/6 8/13/6
f 5/15/7 6/16/7 9/17/7
f 6/16/7 10/18/7 9/17/7
f 6/19/8 7/20/8 11/21/8
f 6/19/8 11/21/8 10/22/8
f 7/23/9 8/24/9 12/25/9
f 7/23/9 12/25/9 11/26/9
f 8/27/10 5/28/10 12/29/10
f 5/28/10 9/30/10 12/29/10
f 9/31/11 10/32/11 13/33/11
f 10/32/11 14/34/11 13/33/11
f 10/35/12 11/36/12 15/37/12
f 10/35/12 15/37/12 14/38/12
f 11/39/13 12/40/13 16/41/13
f 11/39/13 16/41/13 15/42/13
f 12/43/14 9/44/14 13/45/14
f 12/43/14 13/45/14 16/46/14
f 4/47/15 2/48/15 1/49/15
f 2/48/15 4/47/15 3/50/15
f 16/51/16 13/52/16 14/53/16
f 14/53/16 15/54/16 16/51/16
f 17/55/17 22/56/18 18/57/19
f 17/55/17 21/58/17 22/56/18
f 18/57/19 22/56/18 19/59/20
f 19/59/20 22/56/18 23/60/20
f 19/61/21 24/62/21 20/63/21
f 19/61/21 23/64/21 24/62/21
f 20/65/22 24/66/22 17/67/22
f 17/67/22 24/66/22 21/68/22
f 21/69/23 25/70/23 22/71/23
f 22/71/23 25/70/23 26/72/23
f 22/73/24 27/74/24 23/75/24
f 22/73/24 26/76/24 27/74/24
f 23/77/25 28/78/25 24/79/25
f 23/77/25 27/80/25 28/78/25
f 24/81/26 28/82/26 21/83/26
f 21/83/26 28/82/26 25/84/26
f 25/85/27 29/86/27 26/87/27
f 26/87/27 29/86/27 30/88/27
f 26/89/28 31/90/28 27/91/28
f 26/89/28 30/92/28 31/90/28
f 27/93/29 32/94/29 28/95/29
f 27/93/29 31/96/29 32/94/29
f 28/97/30 29/98/30 25/99/30
f 28/97/30 32/100/30 29/98/30
f 20/101/31 17/102/31 18/103/31
f 18/103/31 19/104/31 20/101/31
f 32/105/32 30/106/32 29/107/32
f 30/106/32 32/105/32 31/108/32
