# mech2 torso - segment hatch, colour gold #D4A93A
# units: studs, +Y up, -Z forward, origin = hip-joint line centre
o hatch_gold
v 2.59442 8.00972 -1.64211
v 1.08056 7.82039 -2.36116
v 1.02047 7.29623 -2.20371
v 1.48440 7.22878 -1.93819
v 2.17327 6.96170 -1.48382
v 2.48061 7.06100 -1.35976
v 2.74394 8.16000 -1.48790
v 0.96254 7.93720 -2.33403
v 0.87634 7.18526 -2.10815
v 1.45099 7.10171 -1.77925
v 2.16930 6.82321 -1.30547
v 2.60028 6.96246 -1.13149
v 2.74394 8.16000 -0.85142
v 0.96254 7.93720 -1.69755
v 0.87634 7.18526 -1.47167
v 1.45099 7.10171 -1.14277
v 2.16930 6.82321 -0.66899
v 2.60028 6.96246 -0.49501
v 2.68787 8.10365 -0.81133
v 1.00679 7.89340 -1.60980
v 0.93039 7.22687 -1.40958
v 1.46352 7.14936 -1.10445
v 2.17079 6.87514 -0.63795
v 2.55540 6.99941 -0.48269
v -2.59442 8.00972 -1.64211
v -1.08056 7.82039 -2.36116
v -1.02047 7.29623 -2.20371
v -1.48440 7.22878 -1.93819
v -2.17327 6.96170 -1.48382
v -2.48061 7.06100 -1.35976
v -2.74394 8.16000 -1.48790
v -0.96254 7.93720 -2.33403
v -0.87634 7.18526 -2.10815
v -1.45099 7.10171 -1.77925
v -2.16930 6.82321 -1.30547
v -2.60028 6.96246 -1.13149
v -2.74394 8.16000 -0.85142
v -0.96254 7.93720 -1.69755
v -0.87634 7.18526 -1.47167
v -1.45099 7.10171 -1.14277
v -2.16930 6.82321 -0.66899
v -2.60028 6.96246 -0.49501
v -2.68787 8.10365 -0.81133
v -1.00679 7.89340 -1.60980
v -0.93039 7.22687 -1.40958
v -1.46352 7.14936 -1.10445
v -2.17079 6.87514 -0.63795
v -2.55540 6.99941 -0.48269
vt -0.16539 -1.47311
vt 0.23370 -1.33704
vt 0.26481 -1.36535
vt -0.20481 -1.52547
vt -0.28970 -2.03951
vt -0.27317 -1.90287
vt -0.25723 -2.06625
vt -0.23351 -1.87022
vt -0.41819 1.54231
vt -0.53685 1.47926
vt -0.38142 1.50650
vt -0.52840 1.42840
vt -0.70947 1.34842
vt -0.70840 1.29197
vt -0.62739 -1.75164
vt -0.71294 -1.76291
vt -0.64083 -1.70274
vt -0.76079 -1.71855
vt -0.74973 -2.00919
vt -0.80723 -2.02942
vt -0.93385 -0.37198
vt -0.48503 -0.58351
vt -0.48503 -0.42439
vt -0.93385 -0.21286
vt -0.58351 -1.99879
vt -0.52704 -1.80958
vt -0.42439 -1.99879
vt -0.36792 -1.80958
vt 0.27339 0.52704
vt 0.12942 0.44481
vt 0.27339 0.36792
vt 0.12942 0.28569
vt -0.06228 0.32637
vt -0.06228 0.16725
vt -1.04050 0.32637
vt -1.15373 0.28287
vt -1.04050 0.16725
vt -1.15373 0.12375
vt 0.28287 -1.80565
vt 0.37198 -2.10719
vt 0.21286 -2.10719
vt 0.12375 -1.80565
vt -1.18197 -1.38409
vt -0.70507 -1.52105
vt -0.71692 -1.49690
vt -1.16695 -1.36765
vt 0.34025 -2.01015
vt 0.31607 -1.81417
vt 0.35778 -1.99237
vt 0.33634 -1.81866
vt -0.40974 -1.35528
vt -0.24466 -1.37940
vt -0.39404 -1.37216
vt -0.24088 -1.39454
vt -0.02091 -1.38016
vt -0.02058 -1.39529
vt 0.08273 -1.43233
vt 0.07192 -1.44184
vt 0.47063 -1.72119
vt 0.51016 -2.03312
vt 0.49473 -2.01707
vt 0.45828 -1.72945
vt -0.33005 -2.03324
vt -0.43840 -1.85636
vt -0.31049 -1.89704
vt 0.78842 -1.68623
vt 0.82557 -1.97376
vt 0.48466 -1.77444
vt 0.68137 -1.67025
vt 0.16539 -1.47311
vt -0.26481 -1.36535
vt -0.23370 -1.33704
vt 0.20481 -1.52547
vt 0.28970 -2.03951
vt 0.25723 -2.06625
vt 0.27317 -1.90287
vt 0.23351 -1.87022
vt 0.41819 1.54231
vt 0.38142 1.50650
vt 0.53685 1.47926
vt 0.52840 1.42840
vt 0.70947 1.34842
vt 0.70840 1.29197
vt 0.62739 -1.75164
vt 0.64083 -1.70274
vt 0.71294 -1.76291
vt 0.76079 -1.71855
vt 0.80723 -2.02942
vt 0.74973 -2.00919
vt 0.93385 -0.37198
vt 0.48503 -0.42439
vt 0.48503 -0.58351
vt 0.93385 -0.21286
vt 0.58351 -1.99879
vt 0.42439 -1.99879
vt 0.52704 -1.80958
vt 0.36792 -1.80958
vt -0.27339 0.52704
vt -0.27339 0.36792
vt -0.12942 0.44481
vt -0.12942 0.28569
vt 0.06228 0.32637
vt 0.06228 0.16725
vt 1.04050 0.32637
vt 1.04050 0.16725
vt 1.15373 0.28287
vt 1.15373 0.12375
vt -0.28287 -1.80565
vt -0.21286 -2.10719
vt -0.37198 -2.10719
vt -0.12375 -1.80565
vt 1.18197 -1.38409
vt 0.71692 -1.49690
vt 0.70507 -1.52105
vt 1.16695 -1.36765
vt -0.34025 -2.01015
vt -0.35778 -1.99237
vt -0.31607 -1.81417
vt -0.33634 -1.81866
vt 0.40974 -1.35528
vt 0.39404 -1.37216
vt 0.24466 -1.37940
vt 0.24088 -1.39454
vt 0.02091 -1.38016
vt 0.02058 -1.39529
vt -0.08273 -1.43233
vt -0.07192 -1.44184
vt -0.47063 -1.72119
vt -0.49473 -2.01707
vt -0.51016 -2.03312
vt -0.45828 -1.72945
vt 0.33005 -2.03324
vt 0.31049 -1.89704
vt 0.43840 -1.85636
vt -0.78842 -1.68623
vt -0.82557 -1.97376
vt -0.48466 -1.77444
vt -0.68137 -1.67025
vn 0.3173 0.5068 -0.8015
vn -0.4177 -0.2171 -0.8822
vn 0.2185 -0.7841 -0.5810
vn 0.1698 -0.7868 -0.5934
vn 0.1318 -0.7876 -0.6020
vn 0.1665 -0.7806 -0.6024
vn 0.2882 -0.7594 -0.5833
vn 0.2613 -0.6590 -0.7053
vn 0.4439 -0.3357 -0.8308
vn 0.4484 -0.7108 -0.5419
vn 0.5131 -0.3008 -0.8039
vn 0.4907 -0.3021 -0.8173
vn 0.8066 -0.2554 -0.5331
vn -0.1241 0.9923 0.0000
vn -0.9935 0.1139 0.0000
vn -0.1439 -0.9896 0.0000
vn -0.2321 -0.9727 0.0000
vn -0.3035 -0.9528 0.0000
vn -0.3615 -0.9324 0.0000
vn 0.3074 -0.9516 0.0000
vn 0.9929 -0.1191 0.0000
vn -0.3576 0.7509 0.5553
vn -0.8072 0.2528 0.5334
vn -0.4547 0.3036 0.8373
vn -0.4922 0.3017 0.8165
vn -0.4898 -0.4645 0.7378
vn -0.5412 -0.4360 0.7191
vn -0.5796 -0.4127 0.7027
vn -0.5337 -0.4225 0.7325
vn -0.4142 -0.4582 0.7865
vn -0.1800 -0.5008 0.8466
vn 0.4177 0.2128 0.8833
vn 0.5127 -0.3275 -0.7936
vn 0.4395 -0.3043 -0.8452
vn 0.4548 -0.4400 -0.7743
vn -0.4395 0.3043 0.8452
vn -0.3173 0.5068 -0.8015
vn 0.4177 -0.2171 -0.8822
vn -0.2185 -0.7841 -0.5810
vn -0.1698 -0.7868 -0.5934
vn -0.1318 -0.7876 -0.6020
vn -0.1665 -0.7806 -0.6024
vn -0.2882 -0.7594 -0.5833
vn -0.2613 -0.6590 -0.7053
vn -0.4439 -0.3357 -0.8308
vn -0.4484 -0.7108 -0.5419
vn -0.5131 -0.3008 -0.8039
vn -0.8066 -0.2554 -0.5331
vn -0.4907 -0.3021 -0.8173
vn 0.1241 0.9923 0.0000
vn 0.9935 0.1139 0.0000
vn 0.1439 -0.9896 0.0000
vn 0.2321 -0.9727 0.0000
vn 0.3035 -0.9528 0.0000
vn 0.3615 -0.9324 0.0000
vn -0.3074 -0.9516 0.0000
vn -0.9929 -0.1191 0.0000
vn 0.3576 0.7509 0.5553
vn 0.8072 0.2528 0.5334
vn 0.4547 0.3036 0.8373
vn 0.4922 0.3017 0.8165
vn 0.4898 -0.4645 0.7378
vn 0.5412 -0.4360 0.7191
vn 0.5796 -0.4127 0.7027
vn 0.5337 -0.4225 0.7325
vn 0.4142 -0.4582 0.7865
vn 0.1800 -0.5008 0.8466
vn -0.4177 0.2128 0.8833
vn -0.5127 -0.3275 -0.7936
vn -0.4395 -0.3043 -0.8452
vn -0.4548 -0.4400 -0.7743
vn 0.4395 0.3043 0.8452
s off
f 1/1/1 2/2/1 8/3/1
f 1/1/1 8/3/1 7/4/1
f 2/5/2 3/6/2 8/7/2
f 3/6/2 9/8/2 8/7/2
f 3/9/3 4/10/4 9/11/3
f 4/10/4 10/12/5 9/11/3
f 4/10/4 5/13/6 10/12/5
f 5/13/6 11/14/7 10/12/5
f 5/15/8 6/16/9 11/17/7
f 6/16/9 12/18/10 11/17/7
f 6/16/11 1/19/12 7/20/13
f 6/16/11 7/20/13 12/18/13
f 7/21/14 8/22/14 14/23/14
f 7/21/14 14/23/14 13/24/14
f 8/25/15 9/26/15 14/27/15
f 9/26/15 15/28/15 14/27/15
f 9/29/16 10/30/17 15/31/16
f 10/30/17 16/32/18 15/31/16
f 10/30/17 11/33/19 16/32/18
f 11/33/19 17/34/19 16/32/18
f 11/35/20 12/36/20 17/37/20
f 12/36/20 18/38/20 17/37/20
f 12/39/21 7/40/21 13/41/21
f 12/39/21 13/41/21 18/42/21
f 13/43/22 14/44/22 20/45/22
f 13/43/22 20/45/22 19/46/22
f 14/47/23 15/48/23 20/49/24
f 15/48/23 21/50/25 20/49/24
f 15/51/26 16/52/27 21/53/26
f 16/52/27 22/54/28 21/53/26
f 16/52/27 17/55/29 22/54/28
f 17/55/29 23/56/30 22/54/28
f 17/55/29 18/57/31 23/56/30
f 18/57/31 24/58/31 23/56/30
f 18/59/32 13/60/32 19/61/32
f 18/59/32 19/61/32 24/62/32
f 6/16/33 2/63/34 1/19/12
f 2/63/34 4/64/34 3/65/34
f 6/16/33 4/64/34 2/63/34
f 4/64/34 6/16/33 5/15/35
f 24/66/36 19/67/36 20/49/24
f 20/49/24 21/50/25 22/68/36
f 24/66/36 20/49/24 22/68/36
f 22/68/36 23/69/36 24/66/36
f 25/70/37 32/71/37 26/72/37
f 25/70/37 31/73/37 32/71/37
f 26/74/38 32/75/38 27/76/38
f 27/76/38 32/75/38 33/77/38
f 27/78/39 33/79/39 28/80/40
f 28/80/40 33/79/39 34/81/41
f 28/80/40 34/81/41 29/82/42
f 29/82/42 34/81/41 35/83/43
f 29/84/44 35/85/43 30/86/45
f 30/86/45 35/85/43 36/87/46
f 30/86/47 31/88/48 25/89/49
f 30/86/47 36/87/48 31/88/48
f 31/90/50 38/91/50 32/92/50
f 31/90/50 37/93/50 38/91/50
f 32/94/51 38/95/51 33/96/51
f 33/96/51 38/95/51 39/97/51
f 33/98/52 39/99/52 34/100/53
f 34/100/53 39/99/52 40/101/54
f 34/100/53 40/101/54 35/102/55
f 35/102/55 40/101/54 41/103/55
f 35/104/56 41/105/56 36/106/56
f 36/106/56 41/105/56 42/107/56
f 36/108/57 37/109/57 31/110/57
f 36/108/57 42/111/57 37/109/57
f 37/112/58 44/113/58 38/114/58
f 37/112/58 43/115/58 44/113/58
f 38/116/59 44/117/60 39/118/59
f 39/118/59 44/117/60 45/119/61
f 39/120/62 45/121/62 40/122/63
f 40/122/63 45/121/62 46/123/64
f 40/122/63 46/123/64 41/124/65
f 41/124/65 46/123/64 47/125/66
f 41/124/65 47/125/66 42/126/67
f 42/126/67 47/125/66 48/127/67
f 42/128/68 43/129/68 37/130/68
f 42/128/68 48/131/68 43/129/68
f 30/86/69 25/89/49 26/132/70
f 26/132/70 27/133/70 28/134/70
f 30/86/69 26/132/70 28/134/70
f 28/134/70 29/84/71 30/86/69
f 48/135/72 44/117/60 43/136/72
f 44/117/60 46/137/72 45/119/61
f 48/135/72 46/137/72 44/117/60
f 46/137/72 48/135/72 47/138/72
