# mech2 torso - segment hatch, colour white #F2F2F2
# units: studs, +Y up, -Z forward, origin = hip-joint line centre
o hatch_white
v 0.00000 7.99680 -2.77440
v 2.19504 7.99680 -1.85248
v 2.19504 8.86970 -1.41603
v 0.00000 8.55056 -2.49752
v 0.00000 7.99680 -2.66832
v 2.30112 7.99680 -1.70185
v 2.30112 8.99232 -1.20409
v 0.00000 8.65776 -2.33784
v 0.00000 7.99680 -1.91760
v 2.30112 7.99680 -0.95113
v 2.30112 8.99232 -0.45337
v 0.00000 8.65776 -1.58712
v 0.00000 7.99680 -1.87680
v 2.26032 7.99680 -0.92747
v 2.26032 8.94516 -0.45329
v 0.00000 8.61653 -1.56693
v -0.00000 7.99680 -2.77440
v -2.19504 7.99680 -1.85248
v -2.19504 8.86970 -1.41603
v -0.00000 8.55056 -2.49752
v -0.00000 7.99680 -2.66832
v -2.30112 7.99680 -1.70185
v -2.30112 8.99232 -1.20409
v -0.00000 8.65776 -2.33784
v -0.00000 7.99680 -1.91760
v -2.30112 7.99680 -0.95113
v -2.30112 8.99232 -0.45337
v -0.00000 8.65776 -1.58712
v -0.00000 7.99680 -1.87680
v -2.26032 7.99680 -0.92747
v -2.26032 8.94516 -0.45329
v -0.00000 8.61653 -1.56693
v 0.00000 7.24905 -2.46034
v 0.83144 7.44701 -2.19428
v 2.19504 7.79369 -1.76717
v 2.19504 7.99680 -1.85248
v 0.00000 7.99680 -2.77440
v 0.00000 7.14000 -2.30846
v 0.85680 7.34400 -2.03429
v 2.30112 7.71120 -1.58190
v 2.30112 7.99680 -1.70185
v 0.00000 7.99680 -2.66832
v 0.00000 7.14000 -1.55774
v 0.85680 7.34400 -1.28357
v 2.30112 7.71120 -0.83118
v 2.30112 7.99680 -0.95113
v 0.00000 7.99680 -1.91760
v 0.00000 7.18194 -1.53456
v 0.84705 7.38362 -1.26350
v 2.26032 7.74293 -0.82084
v 2.26032 7.99680 -0.92747
v 0.00000 7.99680 -1.87680
v -0.00000 7.24905 -2.46034
v -0.83144 7.44701 -2.19428
v -2.19504 7.79369 -1.76717
v -2.19504 7.99680 -1.85248
v -0.00000 7.99680 -2.77440
v -0.00000 7.14000 -2.30846
v -0.85680 7.34400 -2.03429
v -2.30112 7.71120 -1.58190
v -2.30112 7.99680 -1.70185
v -0.00000 7.99680 -2.66832
v -0.00000 7.14000 -1.55774
v -0.85680 7.34400 -1.28357
v -2.30112 7.71120 -0.83118
v -2.30112 7.99680 -0.95113
v -0.00000 7.99680 -1.91760
v -0.00000 7.18194 -1.53456
v -0.84705 7.38362 -1.26350
v -2.26032 7.74293 -0.82084
v -2.26032 7.99680 -0.92747
v -0.00000 7.99680 -1.87680
v 0.00000 6.49303 -2.26294
v 1.50960 7.07364 -1.74039
v 1.50960 7.19540 -1.70995
v 0.00000 6.76962 -2.19380
v 0.00000 6.40560 -2.20320
v 1.59120 7.01760 -1.65240
v 1.59120 7.30320 -1.58100
v 0.00000 6.85440 -2.09100
v 0.00000 6.40560 -1.50144
v 1.59120 7.01760 -0.95064
v 1.59120 7.30320 -0.87924
v 0.00000 6.85440 -1.38924
v 0.00000 6.44057 -1.46006
v 1.55856 7.04002 -0.92056
v 1.55856 7.26008 -0.86554
v 0.00000 6.82049 -1.36508
v -0.00000 6.49303 -2.26294
v -1.50960 7.07364 -1.74039
v -1.50960 7.19540 -1.70995
v -0.00000 6.76962 -2.19380
v -0.00000 6.40560 -2.20320
v -1.59120 7.01760 -1.65240
v -1.59120 7.30320 -1.58100
v -0.00000 6.85440 -2.09100
v -0.00000 6.40560 -1.50144
v -1.59120 7.01760 -0.95064
v -1.59120 7.30320 -0.87924
v -0.00000 6.85440 -1.38924
v -0.00000 6.44057 -1.46006
v -1.55856 7.04002 -0.92056
v -1.55856 7.26008 -0.86554
v -0.00000 6.82049 -1.36508
vt 0.00000 0.69360
vt -0.54876 0.46312
vt 0.00000 0.66708
vt -0.57528 0.42546
vt -0.26801 -1.70346
vt -0.39900 -1.90930
vt -0.31322 -1.69465
vt -0.46261 -1.92940
vt -0.23231 0.94202
vt 0.32291 0.67307
vt 0.32291 0.72115
vt -0.25915 1.00309
vt -0.62438 -2.13764
vt -0.69360 -1.99920
vt -0.66708 -1.99920
vt -0.58446 -2.16444
vt 0.00000 0.47940
vt -0.57528 0.23778
vt 0.42546 -1.99920
vt 0.30102 -2.24808
vt 0.23778 -1.99920
vt 0.11334 -2.24808
vt -0.89274 -0.30102
vt -0.31141 -0.58446
vt -0.31141 -0.39678
vt -0.89274 -0.11334
vt -0.47940 -1.99920
vt -0.39678 -2.16444
vt -0.56508 0.23187
vt 0.00000 0.46920
vt 1.02030 -1.68180
vt 1.02030 -1.96006
vt 1.00881 -1.94952
vt 1.00881 -1.68445
vt 0.91385 -2.06892
vt 0.26900 -2.11843
vt 0.90241 -2.05832
vt 0.26900 -2.10695
vt -0.39173 -2.15413
vt -0.46920 -1.99920
vt -0.05363 -1.58102
vt 0.53258 -1.63273
vt -0.05363 -1.82501
vt 0.53258 -1.47795
vt 0.14164 -1.68445
vt 0.14164 -1.94952
vt -0.46199 -1.75153
vt -0.46199 -1.57831
vt 0.54876 0.46312
vt 0.57528 0.42546
vt 0.26801 -1.70346
vt 0.31322 -1.69465
vt 0.39900 -1.90930
vt 0.46261 -1.92940
vt 0.23231 0.94202
vt -0.32291 0.72115
vt -0.32291 0.67307
vt 0.25915 1.00309
vt 0.62438 -2.13764
vt 0.66708 -1.99920
vt 0.69360 -1.99920
vt 0.58446 -2.16444
vt 0.57528 0.23778
vt -0.42546 -1.99920
vt -0.23778 -1.99920
vt -0.30102 -2.24808
vt -0.11334 -2.24808
vt 0.89274 -0.30102
vt 0.31141 -0.39678
vt 0.31141 -0.58446
vt 0.89274 -0.11334
vt 0.47940 -1.99920
vt 0.39678 -2.16444
vt 0.56508 0.23187
vt -1.02030 -1.68180
vt -1.00881 -1.94952
vt -1.02030 -1.96006
vt -1.00881 -1.68445
vt -0.91385 -2.06892
vt -0.90241 -2.05832
vt -0.26900 -2.11843
vt -0.26900 -2.10695
vt 0.39173 -2.15413
vt 0.46920 -1.99920
vt 0.05363 -1.58102
vt 0.05363 -1.82501
vt -0.53258 -1.63273
vt -0.53258 -1.47795
vt -0.14164 -1.68445
vt 0.46199 -1.75153
vt -0.14164 -1.94952
vt 0.46199 -1.57831
vt -0.15180 -1.86937
vt -0.37545 -1.87736
vt -0.15862 -1.82640
vt -0.38909 -1.83464
vt -0.74255 -1.89638
vt -0.77792 -1.85478
vt 0.38090 -2.02405
vt 0.40664 -2.07275
vt 0.36120 -2.08027
vt 0.32501 -2.01180
vt -0.54876 -0.46312
vt 0.00000 -0.69360
vt 0.00000 -0.66708
vt -0.57528 -0.42546
vt -0.61509 -1.81226
vt -0.57712 -1.78500
vt -0.43003 0.57712
vt -0.65021 0.50857
vt -0.43003 0.38944
vt -0.65021 0.32089
vt -1.02277 0.39547
vt -1.02277 0.20779
vt 0.39547 -1.92780
vt 0.20779 -1.92780
vt 0.00000 -0.47940
vt -0.57528 -0.23778
vt -0.38944 -1.78500
vt -0.18632 -1.37589
vt 0.03079 -1.45362
vt -0.18632 -1.38787
vt 0.02832 -1.46472
vt 0.39600 -1.58858
vt 0.38568 -1.59678
vt 0.24562 -1.85786
vt 0.24562 -1.93530
vt 0.23405 -1.86417
vt 0.23405 -1.93301
vt -0.56508 -0.23187
vt 0.00000 -0.46920
vt -0.38364 -1.79549
vt -0.16269 -2.06998
vt -0.74550 -1.95087
vt 0.12334 -2.02492
vt 0.12334 -1.80396
vt 0.35042 -1.82421
vt 0.72931 -1.93301
vt 0.72931 -1.86417
vt 0.15180 -1.86937
vt 0.15862 -1.82640
vt 0.37545 -1.87736
vt 0.38909 -1.83464
vt 0.74255 -1.89638
vt 0.77792 -1.85478
vt -0.38090 -2.02405
vt -0.36120 -2.08027
vt -0.40664 -2.07275
vt -0.32501 -2.01180
vt 0.54876 -0.46312
vt 0.57528 -0.42546
vt 0.61509 -1.81226
vt 0.57712 -1.78500
vt 0.43003 0.57712
vt 0.43003 0.38944
vt 0.65021 0.50857
vt 0.65021 0.32089
vt 1.02277 0.39547
vt 1.02277 0.20779
vt -0.39547 -1.92780
vt -0.20779 -1.92780
vt 0.57528 -0.23778
vt 0.38944 -1.78500
vt 0.18632 -1.37589
vt 0.18632 -1.38787
vt -0.03079 -1.45362
vt -0.02832 -1.46472
vt -0.38568 -1.59678
vt -0.39600 -1.58858
vt -0.24562 -1.85786
vt -0.23405 -1.86417
vt -0.24562 -1.93530
vt -0.23405 -1.93301
vt 0.56508 -0.23187
vt 0.38364 -1.79549
vt 0.16269 -2.06998
vt 0.74550 -1.95087
vt -0.12334 -2.02492
vt -0.35042 -1.82421
vt -0.12334 -1.80396
vt -0.72931 -1.93301
vt -0.72931 -1.86417
vt -0.20158 -1.65941
vt -0.62400 -1.70555
vt -0.20158 -1.63294
vt -0.64683 -1.68157
vt -0.10014 -1.66006
vt -0.10981 -1.68990
vt -0.12810 -1.64232
vt -0.15078 -1.71233
vt -0.40003 0.81478
vt -0.02259 0.65374
vt -0.02259 0.68705
vt -0.42043 0.85680
vt -0.54845 -1.69240
vt -0.56574 -1.62326
vt -0.55080 -1.60140
vt -0.52275 -1.71360
vt -0.57487 0.55080
vt -1.00108 0.41310
vt -0.57487 0.37536
vt -1.00108 0.23766
vt 0.41310 -1.75440
vt 0.39525 -1.82580
vt 0.23766 -1.75440
vt 0.21981 -1.82580
vt -0.87849 -0.39525
vt -0.46517 -0.52275
vt -0.46517 -0.34731
vt -0.87849 -0.21981
vt -0.37536 -1.60140
vt -0.34731 -1.71360
vt -0.10283 -0.74693
vt -0.50161 -0.95086
vt -0.10283 -0.76048
vt -0.49343 -0.96023
vt 0.70766 -1.64438
vt 0.70766 -1.71797
vt 0.69757 -1.70835
vt 0.69757 -1.65164
vt 0.71030 -1.61455
vt 0.27811 -1.59715
vt 0.70143 -1.60378
vt 0.27811 -1.58674
vt -0.36501 -1.61014
vt -0.34127 -1.70512
vt 0.22216 -1.50885
vt -0.16618 -1.61008
vt 0.22216 -1.43758
vt -0.16618 -1.64146
vt -0.17551 -1.57144
vt -0.17551 -1.47354
vt 0.22542 -1.65164
vt 0.22542 -1.70835
vt 0.20158 -1.65941
vt 0.20158 -1.63294
vt 0.62400 -1.70555
vt 0.64683 -1.68157
vt 0.10014 -1.66006
vt 0.12810 -1.64232
vt 0.10981 -1.68990
vt 0.15078 -1.71233
vt 0.40003 0.81478
vt 0.02259 0.68705
vt 0.02259 0.65374
vt 0.42043 0.85680
vt 0.54845 -1.69240
vt 0.55080 -1.60140
vt 0.56574 -1.62326
vt 0.52275 -1.71360
vt 0.57487 0.55080
vt 0.57487 0.37536
vt 1.00108 0.41310
vt 1.00108 0.23766
vt -0.41310 -1.75440
vt -0.23766 -1.75440
vt -0.39525 -1.82580
vt -0.21981 -1.82580
vt 0.87849 -0.39525
vt 0.46517 -0.34731
vt 0.46517 -0.52275
vt 0.87849 -0.21981
vt 0.37536 -1.60140
vt 0.34731 -1.71360
vt 0.10283 -0.74693
vt 0.10283 -0.76048
vt 0.50161 -0.95086
vt 0.49343 -0.96023
vt -0.70766 -1.64438
vt -0.69757 -1.70835
vt -0.70766 -1.71797
vt -0.69757 -1.65164
vt -0.71030 -1.61455
vt -0.70143 -1.60378
vt -0.27811 -1.59715
vt -0.27811 -1.58674
vt 0.36501 -1.61014
vt 0.34127 -1.70512
vt -0.22216 -1.50885
vt -0.22216 -1.43758
vt 0.16618 -1.61008
vt 0.16618 -1.64146
vt 0.17551 -1.57144
vt -0.22542 -1.65164
vt 0.17551 -1.47354
vt -0.22542 -1.70835
vn 0.0000 -1.0000 0.0000
vn 0.7857 0.2767 -0.5533
vn 0.1521 0.8206 -0.5509
vn -1.0000 0.0000 0.0000
vn 1.0000 0.0000 0.0000
vn -0.1439 0.9896 0.0000
vn 0.4605 -0.3970 0.7940
vn -0.4518 0.3923 0.8012
vn 0.3517 0.4186 -0.8373
vn -0.3517 -0.4186 0.8373
vn -0.7857 0.2767 -0.5533
vn -0.1521 0.8206 -0.5509
vn 0.1439 0.9896 0.0000
vn -0.4605 -0.3970 0.7940
vn 0.4518 0.3923 0.8012
vn -0.3517 0.4186 -0.8373
vn 0.3517 -0.4186 0.8373
vn 0.3673 -0.4444 -0.8171
vn 0.3682 -0.4498 -0.8137
vn 0.3552 -0.7593 -0.5452
vn 0.3610 -0.7570 -0.5446
vn 0.3734 -0.6317 -0.6794
vn 0.3628 -0.7563 -0.5444
vn 0.7947 -0.2351 -0.5596
vn 0.0000 1.0000 0.0000
vn 0.2316 -0.9728 0.0000
vn 0.2384 -0.9712 0.0000
vn 0.2430 -0.9700 0.0000
vn 0.2464 -0.9692 0.0000
vn -0.1627 -0.4774 0.8635
vn -0.1550 -0.4764 0.8654
vn -0.1504 -0.4759 0.8665
vn 0.4716 0.3415 0.8130
vn 0.3611 -0.3611 -0.8598
vn -0.3611 0.3611 0.8598
vn -0.3673 -0.4444 -0.8171
vn -0.3552 -0.7593 -0.5452
vn -0.3682 -0.4498 -0.8137
vn -0.3610 -0.7570 -0.5446
vn -0.3734 -0.6317 -0.6794
vn -0.3628 -0.7563 -0.5444
vn -0.7947 -0.2351 -0.5596
vn -0.2316 -0.9728 0.0000
vn -0.2384 -0.9712 0.0000
vn -0.2430 -0.9700 0.0000
vn -0.2464 -0.9692 0.0000
vn 0.1627 -0.4774 0.8635
vn 0.1550 -0.4764 0.8654
vn 0.1504 -0.4759 0.8665
vn -0.4716 0.3415 0.8130
vn -0.3611 -0.3611 -0.8598
vn 0.3611 0.3611 0.8598
vn 0.4492 -0.5041 -0.7376
vn 0.7715 0.1543 -0.6172
vn -0.0137 0.7714 -0.6362
vn 0.3590 -0.9333 0.0000
vn -0.2715 0.9624 0.0000
vn 0.0702 -0.7619 0.6439
vn 0.5883 -0.1961 0.7845
vn -0.3909 0.5341 0.7496
vn 0.2357 0.2357 -0.9428
vn -0.2357 -0.2357 0.9428
vn -0.4492 -0.5041 -0.7376
vn -0.7715 0.1543 -0.6172
vn 0.0137 0.7714 -0.6362
vn -0.3590 -0.9333 0.0000
vn 0.2715 0.9624 0.0000
vn -0.0702 -0.7619 0.6439
vn -0.5883 -0.1961 0.7845
vn 0.3909 0.5341 0.7496
vn -0.2357 0.2357 -0.9428
vn 0.2357 -0.2357 0.9428
s off
f 1/1/1 2/2/1 5/3/1
f 2/2/1 6/4/1 5/3/1
f 2/5/2 3/6/2 6/7/2
f 3/6/2 7/8/2 6/7/2
f 3/9/3 4/10/3 8/11/3
f 3/9/3 8/11/3 7/12/3
f 4/13/4 1/14/4 5/15/4
f 4/13/4 5/15/4 8/16/4
f 5/3/1 6/4/1 9/17/1
f 6/4/1 10/18/1 9/17/1
f 6/19/5 7/20/5 10/21/5
f 7/20/5 11/22/5 10/21/5
f 7/23/6 8/24/6 12/25/6
f 7/23/6 12/25/6 11/26/6
f 8/16/4 5/15/4 9/27/4
f 8/16/4 9/27/4 12/28/4
f 9/17/1 10/18/1 14/29/1
f 9/17/1 14/29/1 13/30/1
f 10/31/7 11/32/7 15/33/7
f 10/31/7 15/33/7 14/34/7
f 11/35/8 12/36/8 15/37/8
f 12/36/8 16/38/8 15/37/8
f 12/28/4 9/27/4 16/39/4
f 9/27/4 13/40/4 16/39/4
f 2/41/9 4/42/9 3/43/9
f 1/44/9 4/42/9 2/41/9
f 14/45/10 15/46/10 16/47/10
f 13/48/10 14/45/10 16/47/10
f 17/1/1 21/3/1 18/49/1
f 18/49/1 21/3/1 22/50/1
f 18/51/11 22/52/11 19/53/11
f 19/53/11 22/52/11 23/54/11
f 19/55/12 24/56/12 20/57/12
f 19/55/12 23/58/12 24/56/12
f 20/59/5 21/60/5 17/61/5
f 20/59/5 24/62/5 21/60/5
f 21/3/1 25/17/1 22/50/1
f 22/50/1 25/17/1 26/63/1
f 22/64/4 26/65/4 23/66/4
f 23/66/4 26/65/4 27/67/4
f 23/68/13 28/69/13 24/70/13
f 23/68/13 27/71/13 28/69/13
f 24/62/5 25/72/5 21/60/5
f 24/62/5 28/73/5 25/72/5
f 25/17/1 30/74/1 26/63/1
f 25/17/1 29/30/1 30/74/1
f 26/75/14 31/76/14 27/77/14
f 26/75/14 30/78/14 31/76/14
f 27/79/15 31/80/15 28/81/15
f 28/81/15 31/80/15 32/82/15
f 28/73/5 32/83/5 25/72/5
f 25/72/5 32/83/5 29/84/5
f 18/85/16 19/86/16 20/87/16
f 17/88/16 18/85/16 20/87/16
f 30/89/17 32/90/17 31/91/17
f 29/92/17 32/90/17 30/89/17
f 33/93/18 34/94/19 38/95/20
f 34/94/19 39/96/21 38/95/20
f 34/94/19 35/97/22 39/96/21
f 35/97/22 40/98/23 39/96/21
f 35/99/24 36/100/24 41/101/24
f 35/99/24 41/101/24 40/102/24
f 36/103/25 37/104/25 42/105/25
f 36/103/25 42/105/25 41/106/25
f 37/14/4 33/107/4 42/15/4
f 33/107/4 38/108/4 42/15/4
f 38/109/26 39/110/27 43/111/26
f 39/110/27 44/112/28 43/111/26
f 39/110/27 40/113/29 44/112/28
f 40/113/29 45/114/29 44/112/28
f 40/115/5 41/19/5 46/21/5
f 40/115/5 46/21/5 45/116/5
f 41/106/25 42/105/25 47/117/25
f 41/106/25 47/117/25 46/118/25
f 42/15/4 38/108/4 47/27/4
f 38/108/4 43/119/4 47/27/4
f 43/120/30 44/121/31 48/122/30
f 44/121/31 49/123/31 48/122/30
f 44/121/31 45/124/32 50/125/32
f 44/121/31 50/125/32 49/123/31
f 45/126/33 46/127/33 50/128/33
f 46/127/33 51/129/33 50/128/33
f 46/118/25 47/117/25 51/130/25
f 47/117/25 52/131/25 51/130/25
f 47/27/4 43/119/4 48/132/4
f 47/27/4 48/132/4 52/40/4
f 37/133/34 34/94/19 33/93/18
f 36/134/34 34/94/19 37/133/34
f 34/94/19 36/134/34 35/97/22
f 52/135/35 48/136/35 49/137/35
f 51/138/35 52/135/35 49/137/35
f 49/137/35 50/139/35 51/138/35
f 53/140/36 58/141/37 54/142/38
f 54/142/38 58/141/37 59/143/39
f 54/142/38 59/143/39 55/144/40
f 55/144/40 59/143/39 60/145/41
f 55/146/42 61/147/42 56/148/42
f 55/146/42 60/149/42 61/147/42
f 56/150/25 62/105/25 57/104/25
f 56/150/25 61/151/25 62/105/25
f 57/61/5 62/60/5 53/152/5
f 53/152/5 62/60/5 58/153/5
f 58/154/43 63/155/43 59/156/44
f 59/156/44 63/155/43 64/157/45
f 59/156/44 64/157/45 60/158/46
f 60/158/46 64/157/45 65/159/46
f 60/160/4 66/65/4 61/64/4
f 60/160/4 65/161/4 66/65/4
f 61/151/25 67/117/25 62/105/25
f 61/151/25 66/162/25 67/117/25
f 62/60/5 67/72/5 58/153/5
f 58/153/5 67/72/5 63/163/5
f 63/164/47 68/165/47 64/166/48
f 64/166/48 68/165/47 69/167/48
f 64/166/48 70/168/49 65/169/49
f 64/166/48 69/167/48 70/168/49
f 65/170/50 70/171/50 66/172/50
f 66/172/50 70/171/50 71/173/50
f 66/162/25 71/174/25 67/117/25
f 67/117/25 71/174/25 72/131/25
f 67/72/5 68/175/5 63/163/5
f 67/72/5 72/84/5 68/175/5
f 57/176/51 53/140/36 54/142/38
f 56/177/51 57/176/51 54/142/38
f 54/142/38 55/144/40 56/177/51
f 72/178/52 69/179/52 68/180/52
f 71/181/52 69/179/52 72/178/52
f 69/179/52 71/181/52 70/182/52
f 73/183/53 74/184/53 77/185/53
f 74/184/53 78/186/53 77/185/53
f 74/187/54 75/188/54 78/189/54
f 75/188/54 79/190/54 78/189/54
f 75/191/55 76/192/55 80/193/55
f 75/191/55 80/193/55 79/194/55
f 76/195/4 73/196/4 77/197/4
f 76/195/4 77/197/4 80/198/4
f 77/199/56 78/200/56 81/201/56
f 78/200/56 82/202/56 81/201/56
f 78/203/5 79/204/5 82/205/5
f 79/204/5 83/206/5 82/205/5
f 79/207/57 80/208/57 84/209/57
f 79/207/57 84/209/57 83/210/57
f 80/198/4 77/197/4 81/211/4
f 80/198/4 81/211/4 84/212/4
f 81/213/58 82/214/58 85/215/58
f 82/214/58 86/216/58 85/215/58
f 82/217/59 83/218/59 87/219/59
f 82/217/59 87/219/59 86/220/59
f 83/221/60 84/222/60 87/223/60
f 84/222/60 88/224/60 87/223/60
f 84/212/4 81/211/4 85/225/4
f 84/212/4 85/225/4 88/226/4
f 76/227/61 74/228/61 73/229/61
f 74/228/61 76/227/61 75/230/61
f 88/231/62 85/232/62 86/233/62
f 86/233/62 87/234/62 88/231/62
f 89/235/63 93/236/63 90/237/63
f 90/237/63 93/236/63 94/238/63
f 90/239/64 94/240/64 91/241/64
f 91/241/64 94/240/64 95/242/64
f 91/243/65 96/244/65 92/245/65
f 91/243/65 95/246/65 96/244/65
f 92/247/5 93/248/5 89/249/5
f 92/247/5 96/250/5 93/248/5
f 93/251/66 97/252/66 94/253/66
f 94/253/66 97/252/66 98/254/66
f 94/255/4 98/256/4 95/257/4
f 95/257/4 98/256/4 99/258/4
f 95/259/67 100/260/67 96/261/67
f 95/259/67 99/262/67 100/260/67
f 96/250/5 97/263/5 93/248/5
f 96/250/5 100/264/5 97/263/5
f 97/265/68 101/266/68 98/267/68
f 98/267/68 101/266/68 102/268/68
f 98/269/69 103/270/69 99/271/69
f 98/269/69 102/272/69 103/270/69
f 99/273/70 103/274/70 100/275/70
f 100/275/70 103/274/70 104/276/70
f 100/264/5 101/277/5 97/263/5
f 100/264/5 104/278/5 101/277/5
f 92/279/71 89/280/71 90/281/71
f 90/281/71 91/282/71 92/279/71
f 104/283/72 102/284/72 101/285/72
f 102/284/72 104/283/72 103/286/72
