# mech2 torso - segment pauldron_R, colour grey #8A8A8A
# units: studs, +Y up, -Z forward, origin = hip-joint line centre
o pauldron_R_grey
v 2.85600 9.71040 -0.69360
v 4.12080 9.71040 -0.69360
v 4.12080 10.03680 -0.69360
v 2.85600 10.03680 -0.69360
v 2.73360 9.58800 -0.57120
v 4.24320 9.58800 -0.57120
v 4.24320 10.15920 -0.57120
v 2.73360 10.15920 -0.57120
v 2.73360 9.58800 0.57120
v 4.24320 9.58800 0.57120
v 4.24320 10.15920 0.57120
v 2.73360 10.15920 0.57120
v 2.85600 9.71040 0.69360
v 4.12080 9.71040 0.69360
v 4.12080 10.03680 0.69360
v 2.85600 10.03680 0.69360
vt -0.71400 1.83918
vt -1.03020 1.83918
vt -1.06080 1.79591
vt -0.68340 1.79591
vt -0.60585 -2.42760
vt -0.60585 -2.50920
vt -0.64912 -2.53980
vt -0.64912 -2.39700
vt -1.03020 1.65166
vt -0.71400 1.65166
vt -1.06080 1.69493
vt -0.68340 1.69493
vt -0.62749 -2.50920
vt -0.62749 -2.42760
vt -0.58421 -2.39700
vt -0.58421 -2.53980
vt -0.68340 0.14280
vt -1.06080 0.14280
vt -1.06080 -0.14280
vt -0.68340 -0.14280
vt 0.14280 -2.39700
vt 0.14280 -2.53980
vt -0.14280 -2.53980
vt -0.14280 -2.39700
vt -0.68340 -1.79591
vt -1.06080 -1.79591
vt -0.71400 -1.83918
vt -1.03020 -1.83918
vt 0.64912 -2.39700
vt 0.64912 -2.53980
vt 0.60585 -2.50920
vt 0.60585 -2.42760
vt -1.06080 -1.69493
vt -0.68340 -1.69493
vt -0.71400 -1.65166
vt -1.03020 -1.65166
vt 0.58421 -2.53980
vt 0.58421 -2.39700
vt 0.62749 -2.42760
vt 0.62749 -2.50920
vt -0.71400 -2.50920
vt -1.03020 -2.42760
vt -0.71400 -2.42760
vt -1.03020 -2.50920
vt 0.71400 -2.50920
vt 0.71400 -2.42760
vt 1.03020 -2.42760
vt 1.03020 -2.50920
vn 0.0000 -0.7071 -0.7071
vn 0.7071 0.0000 -0.7071
vn 0.0000 0.7071 -0.7071
vn -0.7071 0.0000 -0.7071
vn 0.0000 -1.0000 0.0000
vn 1.0000 0.0000 0.0000
vn 0.0000 1.0000 0.0000
vn -1.0000 0.0000 0.0000
vn 0.0000 -0.7071 0.7071
vn 0.7071 0.0000 0.7071
vn 0.0000 0.7071 0.7071
vn -0.7071 0.0000 0.7071
vn 0.0000 0.0000 -1.0000
vn 0.0000 0.0000 1.0000
s off
f 1/1/1 2/2/1 6/3/1
f 1/1/1 6/3/1 5/4/1
f 2/5/2 3/6/2 7/7/2
f 2/5/2 7/7/2 6/8/2
f 3/9/3 4/10/3 7/11/3
f 4/10/3 8/12/3 7/11/3
f 4/13/4 1/14/4 5/15/4
f 4/13/4 5/15/4 8/16/4
f 5/17/5 6/18/5 10/19/5
f 5/17/5 10/19/5 9/20/5
f 6/21/6 7/22/6 11/23/6
f 6/21/6 11/23/6 10/24/6
f 7/19/7 8/20/7 12/17/7
f 7/19/7 12/17/7 11/18/7
f 8/23/8 5/24/8 9/21/8
f 8/23/8 9/21/8 12/22/8
f 9/25/9 10/26/9 13/27/9
f 10/26/9 14/28/9 13/27/9
f 10/29/10 11/30/10 15/31/10
f 10/29/10 15/31/10 14/32/10
f 11/33/11 12/34/11 16/35/11
f 11/33/11 16/35/11 15/36/11
f 12/37/12 9/38/12 13/39/12
f 12/37/12 13/39/12 16/40/12
f 4/41/13 2/42/13 1/43/13
f 2/42/13 4/41/13 3/44/13
f 16/45/14 13/46/14 14/47/14
f 14/47/14 15/48/14 16/45/14
