# mech2 torso - segment pauldron_L, colour white #F2F2F2
# units: studs, +Y up, -Z forward, origin = hip-joint line centre
o pauldron_L_white
v -5.80461 9.47834 -0.98278
v -4.61531 10.42361 -1.12549
v -3.21938 10.40428 -1.29300
v -3.31723 9.77591 -1.28126
v -4.09844 9.85777 -1.18752
v -4.96891 9.49216 -1.08306
v -5.79754 9.54342 -0.98362
v -6.19183 9.69174 -0.52831
v -4.75521 10.83358 -0.70070
v -2.74394 10.80573 -0.94205
v -2.97380 9.32969 -0.91447
v -4.03690 9.44109 -0.78690
v -4.89887 9.07904 -0.68346
v -6.24930 9.16259 -0.52141
v -6.19183 9.69174 0.52831
v -4.75521 10.83358 0.70070
v -2.74394 10.80573 0.94205
v -2.97380 9.32969 0.91447
v -4.03690 9.44109 0.78690
v -4.89887 9.07904 0.68346
v -6.24930 9.16259 0.52141
v -5.80461 9.47834 0.98278
v -4.61531 10.42361 1.12549
v -3.21938 10.40428 1.29300
v -3.31723 9.77591 1.28126
v -4.09844 9.85777 1.18752
v -4.96891 9.49216 1.08306
v -5.79754 9.54342 0.98362
v -4.74475 10.51818 -0.82297
v -2.98862 10.51818 -0.99858
v -2.99412 10.58214 -0.99803
v -4.66367 10.50628 -0.83107
v -5.89117 9.89816 -0.70832
v -5.72013 9.78763 -0.72543
v -4.81268 10.72218 -0.61217
v -2.80141 10.72218 -0.81330
v -2.77268 10.38799 -0.81617
v -4.61155 10.30444 -0.63229
v -5.90451 9.66389 -0.50299
v -6.07690 9.77529 -0.48575
v -4.81268 10.72218 0.61217
v -2.80141 10.72218 0.81330
v -2.77268 10.38799 0.81617
v -4.61155 10.30444 0.63229
v -5.90451 9.66389 0.50299
v -6.07690 9.77529 0.48575
v -4.74475 10.51818 0.82297
v -2.98862 10.51818 0.99858
v -2.99412 10.58214 0.99803
v -4.66367 10.50628 0.83107
v -5.89117 9.89816 0.70832
v -5.72013 9.78763 0.72543
vt 0.85573 -1.60454
vt 0.55357 -1.90430
vt 0.51690 -1.75712
vt 0.96286 -1.71999
vt 0.17560 -1.72564
vt 0.06181 -1.85894
vt 0.56128 -2.61997
vt 0.48039 -2.34006
vt 0.59352 -2.46426
vt 0.40467 -2.70583
vt 0.88414 -1.97516
vt 1.06506 -1.82898
vt 1.08047 -1.97349
vt 0.79789 -1.83126
vt 1.29624 -1.88976
vt 1.27873 -1.74607
vt 1.50426 -1.88161
vt 1.61773 -1.73280
vt -0.93104 -2.23494
vt -1.08367 -2.26234
vt -0.93132 -2.21857
vt 0.93104 -2.23494
vt 1.08598 -2.12928
vt 1.08367 -2.26234
vt -0.29578 -0.13208
vt -0.75456 0.17518
vt -0.75456 -0.17518
vt -0.29578 0.13208
vt 1.22619 -0.17518
vt 0.72332 0.23551
vt 0.72332 -0.23551
vt 1.22619 0.17518
vt 0.23551 -2.56371
vt -0.22862 -2.19025
vt 0.22862 -2.19025
vt -0.23551 -2.56371
vt 0.62254 0.22862
vt 0.88653 -0.19672
vt 0.88653 0.19672
vt 0.62254 -0.22862
vt 1.10640 -0.17087
vt 1.10640 0.17087
vt 1.44248 -0.13035
vt 1.44248 0.13035
vt -0.13035 -2.10858
vt 0.13208 -2.24165
vt -0.13208 -2.24165
vt 0.13035 -2.10858
vt -0.96286 -1.71999
vt -0.85573 -1.60454
vt -0.55357 -1.90430
vt -0.51690 -1.75712
vt -0.17560 -1.72564
vt -0.06181 -1.85894
vt -0.40467 -2.70583
vt -0.56128 -2.61997
vt -0.48039 -2.34006
vt -0.59352 -2.46426
vt -0.79789 -1.83126
vt -0.88414 -1.97516
vt -1.06506 -1.82898
vt -1.08047 -1.97349
vt -1.29624 -1.88976
vt -1.27873 -1.74607
vt -1.50426 -1.88161
vt -1.61773 -1.73280
vt -1.08598 -2.12928
vt 0.93132 -2.21857
vt 0.76060 -2.60107
vt 0.78524 -2.44398
vt 0.98194 -2.46444
vt 1.11208 -2.60590
vt 1.20112 -2.37304
vt 1.41154 -2.36958
vt -1.41154 -2.36958
vt -1.20112 -2.37304
vt -1.40976 -2.38586
vt -0.76060 -2.60107
vt -0.98194 -2.46444
vt -0.78524 -2.44398
vt -1.11208 -2.60590
vt 1.40976 -2.38586
vt 0.65855 -1.80118
vt 0.67611 -1.87438
vt 0.22566 -1.77154
vt 0.18033 -1.84044
vt -0.87244 -2.59865
vt -0.80969 -2.65341
vt -0.87429 -2.61459
vt 0.87429 -2.61459
vt 0.80969 -2.65341
vt 0.80006 -2.57011
vt 0.60018 -2.08709
vt 1.00134 -1.97375
vt 1.01442 -2.04457
vt 0.54509 -2.02059
vt 1.32740 -1.91335
vt 1.33101 -1.83554
vt -1.96432 -2.00875
vt -1.96804 -1.93088
vt -1.91666 -1.99034
vt 1.91666 -1.99034
vt 1.96804 -1.93088
vt 2.01607 -1.94944
vt 0.93026 -1.68289
vt 1.02828 -1.72106
vt 1.20317 -0.15304
vt 0.70035 0.20332
vt 0.70035 -0.20332
vt 1.20317 0.15304
vt 0.20332 -2.73068
vt -0.20404 -2.64683
vt 0.20404 -2.64683
vt -0.20332 -2.73068
vt 0.15671 0.20404
vt 0.61124 -0.15807
vt 0.61124 0.15807
vt 0.15671 -0.20404
vt 0.96008 -0.12575
vt 0.96008 0.12575
vt 2.55104 0.12575
vt 2.60235 -0.12144
vt 2.60235 0.12144
vt 2.55104 -0.12575
vt -0.24906 -0.12144
vt -0.64394 0.15304
vt -0.64394 -0.15304
vt -0.24906 0.12144
vt -0.67611 -1.87438
vt -0.22566 -1.77154
vt -0.18033 -1.84044
vt -0.65855 -1.80118
vt -0.80006 -2.57011
vt 0.87244 -2.59865
vt -0.54509 -2.02059
vt -0.60018 -2.08709
vt -1.00134 -1.97375
vt -1.01442 -2.04457
vt -1.32740 -1.91335
vt -1.33101 -1.83554
vt -2.01607 -1.94944
vt 1.96432 -2.00875
vt -1.02828 -1.72106
vt -0.93026 -1.68289
vt -1.13946 -2.62657
vt -1.44786 -2.47454
vt -1.40489 -2.44691
vt -0.71999 -2.64553
vt -1.15983 -2.62955
vt -0.71861 -2.62955
vt 1.15983 -2.62955
vt 0.71999 -2.64553
vt 1.40489 -2.44691
vt 1.13946 -2.62657
vt 1.44786 -2.47454
vt 0.71861 -2.62955
vn -0.5046 0.5322 -0.6798
vn -0.3001 0.6351 -0.7118
vn -0.3112 0.6305 -0.7110
vn -0.0749 0.7051 -0.7052
vn 0.6512 -0.1154 -0.7501
vn -0.1570 -0.6964 -0.7002
vn 0.0167 -0.6917 -0.7220
vn 0.0318 -0.6903 -0.7228
vn 0.0938 -0.6839 -0.7235
vn -0.0337 -0.6978 -0.7155
vn -0.1276 -0.7007 -0.7020
vn 0.7423 -0.0719 0.6662
vn -0.7423 0.0719 -0.6662
vn -0.6222 0.7828 0.0000
vn 0.0138 0.9999 0.0000
vn 0.9881 -0.1539 0.0000
vn -0.1042 -0.9946 0.0000
vn 0.0383 -0.9993 0.0000
vn 0.2068 -0.9784 0.0000
vn 0.2120 -0.9773 0.0000
vn 0.0661 -0.9978 0.0000
vn -0.0618 -0.9981 0.0000
vn -0.9942 0.1080 0.0000
vn -0.5046 0.5322 0.6798
vn -0.3001 0.6351 0.7118
vn -0.3112 0.6305 0.7110
vn -0.0749 0.7051 0.7052
vn 0.6512 -0.1154 0.7501
vn -0.1570 -0.6964 0.7002
vn 0.0167 -0.6917 0.7220
vn 0.0318 -0.6903 0.7228
vn 0.0938 -0.6839 0.7235
vn -0.0337 -0.6978 0.7155
vn -0.1276 -0.7007 0.7020
vn -0.7423 0.0719 0.6662
vn 0.7423 -0.0719 -0.6662
vn -0.1191 -0.0000 -0.9929
vn 0.1191 -0.0000 0.9929
vn -0.1191 -0.0000 0.9929
vn 0.1191 -0.0000 -0.9929
vn -0.2467 0.6554 -0.7138
vn -0.2537 0.6529 -0.7137
vn -0.0705 0.7053 -0.7053
vn -0.6661 -0.0637 0.7431
vn 0.6661 0.0637 -0.7431
vn -0.0386 -0.7062 -0.7069
vn 0.0884 -0.6873 -0.7210
vn 0.0901 -0.6869 -0.7211
vn 0.2481 -0.6465 -0.7215
vn 0.4416 0.5770 0.6870
vn -0.4416 -0.5770 -0.6870
vn -0.4793 0.5484 -0.6852
vn 0.0000 1.0000 0.0000
vn 0.9963 0.0857 0.0000
vn 0.0454 -0.9990 0.0000
vn 0.1494 -0.9888 0.0000
vn 0.2843 -0.9587 0.0000
vn 0.4439 -0.8961 0.0000
vn -0.5427 -0.8399 0.0000
vn -0.5995 0.8004 0.0000
vn -0.2537 0.6529 0.7137
vn -0.0705 0.7053 0.7053
vn -0.2467 0.6554 0.7138
vn 0.6661 0.0637 0.7431
vn -0.6661 -0.0637 -0.7431
vn -0.0386 -0.7062 0.7069
vn 0.0884 -0.6873 0.7210
vn 0.0901 -0.6869 0.7211
vn 0.2481 -0.6465 0.7215
vn -0.4416 -0.5770 0.6870
vn 0.4416 0.5770 -0.6870
vn -0.4793 0.5484 0.6852
vn 0.0995 0.0000 0.9950
vn -0.0995 0.0000 -0.9950
vn 0.0995 0.0000 -0.9950
vn -0.0995 0.0000 0.9950
s off
f 1/1/1 9/2/2 2/3/3
f 1/1/1 8/4/1 9/2/2
f 2/3/3 9/2/2 3/5/4
f 3/5/4 9/2/2 10/6/4
f 3/7/5 11/8/5 4/9/5
f 3/7/5 10/10/5 11/8/5
f 4/11/6 12/12/7 5/13/8
f 4/11/6 11/14/6 12/12/7
f 5/13/8 12/12/7 6/15/9
f 6/15/9 12/12/7 13/16/10
f 6/15/9 13/16/10 7/17/11
f 7/17/11 13/16/10 14/18/11
f 7/19/12 8/20/12 1/21/12
f 7/22/13 14/23/13 8/24/13
f 8/25/14 16/26/14 9/27/14
f 8/25/14 15/28/14 16/26/14
f 9/29/15 17/30/15 10/31/15
f 9/29/15 16/32/15 17/30/15
f 10/33/16 18/34/16 11/35/16
f 10/33/16 17/36/16 18/34/16
f 11/37/17 19/38/18 12/39/19
f 11/37/17 18/40/17 19/38/18
f 12/39/19 20/41/20 13/42/21
f 12/39/19 19/38/18 20/41/20
f 13/42/21 21/43/22 14/44/22
f 13/42/21 20/41/20 21/43/22
f 14/45/23 15/46/23 8/47/23
f 14/45/23 21/48/23 15/46/23
f 15/49/24 22/50/24 16/51/25
f 16/51/25 22/50/24 23/52/26
f 16/51/25 24/53/27 17/54/27
f 16/51/25 23/52/26 24/53/27
f 17/55/28 24/56/28 18/57/28
f 18/57/28 24/56/28 25/58/28
f 18/59/29 25/60/29 19/61/30
f 19/61/30 25/60/29 26/62/31
f 19/61/30 27/63/32 20/64/33
f 19/61/30 26/62/31 27/63/32
f 20/64/33 28/65/34 21/66/34
f 20/64/33 27/63/32 28/65/34
f 21/67/35 28/19/35 15/20/35
f 15/24/36 28/22/36 22/68/36
f 3/69/37 4/70/37 5/71/37
f 2/72/37 3/69/37 5/71/37
f 2/72/37 5/71/37 6/73/37
f 1/74/37 2/72/37 6/73/37
f 1/75/38 6/76/38 7/77/38
f 24/78/39 26/79/39 25/80/39
f 23/81/39 26/79/39 24/78/39
f 23/81/39 27/76/39 26/79/39
f 22/75/39 27/76/39 23/81/39
f 22/74/40 28/82/40 27/73/40
f 29/83/41 35/84/42 30/85/43
f 30/85/43 35/84/42 36/86/43
f 30/87/44 36/88/44 31/89/44
f 31/90/45 36/91/45 37/92/45
f 31/93/46 38/94/47 32/95/48
f 31/93/46 37/96/46 38/94/47
f 32/95/48 38/94/47 33/97/49
f 33/97/49 38/94/47 39/98/49
f 33/99/50 39/100/50 34/101/50
f 34/102/51 39/103/51 40/104/51
f 34/105/52 35/84/42 29/83/41
f 34/105/52 40/106/52 35/84/42
f 35/107/53 42/108/53 36/109/53
f 35/107/53 41/110/53 42/108/53
f 36/111/54 43/112/54 37/113/54
f 36/111/54 42/114/54 43/112/54
f 37/115/55 44/116/56 38/117/57
f 37/115/55 43/118/55 44/116/56
f 38/117/57 45/119/58 39/120/58
f 38/117/57 44/116/56 45/119/58
f 39/121/59 46/122/59 40/123/59
f 39/121/59 45/124/59 46/122/59
f 40/125/60 41/126/60 35/127/60
f 40/125/60 46/128/60 41/126/60
f 41/129/61 48/130/62 42/131/62
f 41/129/61 47/132/63 48/130/62
f 42/88/64 49/89/64 43/133/64
f 42/91/65 48/134/65 49/90/65
f 43/135/66 49/136/66 44/137/67
f 44/137/67 49/136/66 50/138/68
f 44/137/67 51/139/69 45/140/69
f 44/137/67 50/138/68 51/139/69
f 45/100/70 52/101/70 46/141/70
f 45/103/71 51/142/71 52/102/71
f 46/143/72 52/144/72 41/129/61
f 41/129/61 52/144/72 47/132/63
f 32/145/73 33/146/73 34/147/73
f 31/148/73 32/145/73 34/147/73
f 29/149/73 30/150/73 31/148/73
f 29/151/74 31/152/74 34/153/74
f 50/154/75 52/153/75 51/155/75
f 49/152/75 52/153/75 50/154/75
f 47/151/75 49/152/75 48/156/75
f 47/149/76 52/147/76 49/148/76
