# mech2 torso - segment pauldron_R, colour gold #D4A93A
# units: studs, +Y up, -Z forward, origin = hip-joint line centre
o pauldron_R_gold
v 6.30570 8.75222 -0.76479
v 6.11206 8.89460 -0.78415
v 4.83629 8.75720 -0.91173
v 3.97287 9.25935 -0.99807
v 3.37143 9.20105 -1.05822
v 3.29300 9.01643 -1.06606
v 3.49427 8.67503 -1.04593
v 4.75185 8.50437 -0.92018
v 7.02507 8.57775 -0.40725
v 6.19183 9.19044 -0.49058
v 4.89887 9.05119 -0.61987
v 4.03690 9.55249 -0.70607
v 3.17493 9.46894 -0.79227
v 2.97380 8.99549 -0.81238
v 3.31859 8.41065 -0.77790
v 4.75521 8.21570 -0.63424
v 7.02507 8.57775 0.40725
v 6.19183 9.19044 0.49058
v 4.89887 9.05119 0.61987
v 4.03690 9.55249 0.70607
v 3.17493 9.46894 0.79227
v 2.97380 8.99549 0.81238
v 3.31859 8.41065 0.77790
v 4.75521 8.21570 0.63424
v 6.30570 8.75222 0.76479
v 6.11206 8.89460 0.78415
v 4.83629 8.75720 0.91173
v 3.97287 9.25935 0.99807
v 3.37143 9.20105 1.05822
v 3.29300 9.01643 1.06606
v 3.49427 8.67503 1.04593
v 4.75185 8.50437 0.92018
vt -1.21280 -1.47530
vt -1.15976 -1.49813
vt -1.18002 -1.60226
vt -1.40824 -1.50405
vt -0.84747 -1.45126
vt -0.86351 -1.55476
vt -0.61556 -1.52868
vt -0.63199 -1.63206
vt -0.46811 -1.50777
vt -0.42067 -1.60209
vt -1.32788 -2.04599
vt -1.30321 -2.00229
vt -1.20278 -2.02051
vt -1.26606 -2.13258
vt -0.24128 -2.13046
vt -0.30210 -2.05208
vt -0.14483 -2.09708
vt -0.24901 -1.96281
vt -0.99933 -1.72593
vt -1.31150 -1.67348
vt -1.31235 -1.57190
vt -0.95573 -1.63181
vt -1.70504 -1.69022
vt -1.88722 -1.59636
vt -0.14455 -0.10181
vt 0.11401 -0.12264
vt 0.11401 0.12264
vt -0.14455 0.10181
vt -1.78508 -0.12264
vt -1.45997 -0.15497
vt -1.45997 0.15497
vt -1.78508 0.12264
vt 0.07889 -0.15497
vt 0.32817 -0.17652
vt 0.32817 0.17652
vt 0.07889 0.15497
vt -1.23491 -0.17652
vt -1.01841 -0.19807
vt -1.01841 0.19807
vt -1.23491 0.17652
vt -0.19807 -2.48913
vt -0.20309 -2.36053
vt 0.20309 -2.36053
vt 0.19807 -2.48913
vt -0.20309 -1.55971
vt -0.19448 -1.38999
vt 0.19448 -1.38999
vt 0.20309 -1.55971
vt -0.87813 0.19448
vt -1.23606 0.15856
vt -1.23606 -0.15856
vt -0.87813 -0.19448
vt -1.80547 0.10181
vt -1.80547 -0.10181
vt 1.40824 -1.50405
vt 1.18002 -1.60226
vt 1.21280 -1.47530
vt 1.15976 -1.49813
vt 0.86351 -1.55476
vt 0.84747 -1.45126
vt 0.63199 -1.63206
vt 0.61556 -1.52868
vt 0.42067 -1.60209
vt 0.46811 -1.50777
vt 1.26606 -2.13258
vt 1.20278 -2.02051
vt 1.32788 -2.04599
vt 1.30321 -2.00229
vt 0.14483 -2.09708
vt 0.24901 -1.96281
vt 0.30210 -2.05208
vt 0.24128 -2.13046
vt 0.95573 -1.63181
vt 1.31235 -1.57190
vt 0.99933 -1.72593
vt 1.31150 -1.67348
vt 1.88722 -1.59636
vt 1.70504 -1.69022
vt -0.81235 -2.30026
vt -0.84321 -2.16876
vt -0.79264 -2.25411
vt -0.96346 -2.31484
vt -1.15918 -2.12609
vt -1.18039 -2.18930
vt -1.54958 -2.18805
vt -1.50093 -2.22365
vt 0.81235 -2.30026
vt 0.79264 -2.25411
vt 0.84321 -2.16876
vt 0.96346 -2.31484
vt 1.15918 -2.12609
vt 1.18039 -2.18930
vt 1.54958 -2.18805
vt 1.50093 -2.22365
vn 0.4746 0.5522 -0.6854
vn 0.0375 0.6988 -0.7144
vn 0.2443 0.6490 -0.7204
vn 0.1863 0.6719 -0.7168
vn 0.1854 0.6721 -0.7168
vn 0.3265 0.6303 -0.7044
vn 0.1760 0.6751 -0.7164
vn 0.0025 0.7054 -0.7088
vn -0.6071 0.2894 -0.7400
vn -0.5617 -0.3746 -0.7377
vn -0.0245 -0.7037 -0.7101
vn 0.0900 -0.7003 -0.7081
vn 0.0970 -0.6998 -0.7077
vn 0.1802 -0.6911 -0.6999
vn 0.5924 0.8056 0.0000
vn -0.1071 0.9943 0.0000
vn 0.5027 0.8644 0.0000
vn -0.0965 0.9953 0.0000
vn -0.9204 0.3910 0.0000
vn -0.8614 -0.5079 0.0000
vn -0.1345 -0.9909 0.0000
vn 0.0771 -0.9970 0.0000
vn -0.0132 -0.9999 0.0000
vn 0.1575 -0.9875 0.0000
vn 0.4746 0.5522 0.6854
vn 0.2443 0.6490 0.7204
vn 0.0375 0.6988 0.7144
vn 0.1854 0.6721 0.7168
vn 0.1863 0.6719 0.7168
vn 0.1760 0.6751 0.7164
vn 0.3265 0.6303 0.7044
vn 0.0025 0.7054 0.7088
vn -0.6071 0.2894 0.7400
vn -0.5617 -0.3746 0.7377
vn -0.0245 -0.7037 0.7101
vn 0.0970 -0.6998 0.7077
vn 0.0900 -0.7003 0.7081
vn 0.1802 -0.6911 0.6999
vn 0.0995 -0.0000 -0.9950
vn 0.0995 -0.0000 0.9950
s off
f 1/1/1 2/2/2 10/3/3
f 1/1/1 10/3/3 9/4/1
f 2/2/2 3/5/4 11/6/5
f 2/2/2 11/6/5 10/3/3
f 3/5/4 4/7/6 11/6/5
f 4/7/6 12/8/7 11/6/5
f 4/7/6 5/9/8 12/8/7
f 5/9/8 13/10/8 12/8/7
f 5/11/9 6/12/9 14/13/9
f 5/11/9 14/13/9 13/14/9
f 6/15/10 7/16/10 14/17/10
f 7/16/10 15/18/10 14/17/10
f 7/19/11 8/20/12 16/21/13
f 7/19/11 16/21/13 15/22/11
f 8/20/12 1/23/14 16/21/13
f 1/23/14 9/24/14 16/21/13
f 9/25/15 10/26/15 18/27/15
f 9/25/15 18/27/15 17/28/15
f 10/29/16 11/30/16 19/31/16
f 10/29/16 19/31/16 18/32/16
f 11/33/17 12/34/17 20/35/17
f 11/33/17 20/35/17 19/36/17
f 12/37/18 13/38/18 21/39/18
f 12/37/18 21/39/18 20/40/18
f 13/41/19 14/42/19 22/43/19
f 13/41/19 22/43/19 21/44/19
f 14/45/20 15/46/20 23/47/20
f 14/45/20 23/47/20 22/48/20
f 15/49/21 16/50/22 24/51/23
f 15/49/21 24/51/23 23/52/21
f 16/50/22 9/53/24 17/54/24
f 16/50/22 17/54/24 24/51/23
f 17/55/25 18/56/26 25/57/25
f 18/56/26 26/58/27 25/57/25
f 18/56/26 19/59/28 26/58/27
f 19/59/28 27/60/29 26/58/27
f 19/59/28 20/61/30 28/62/31
f 19/59/28 28/62/31 27/60/29
f 20/61/30 21/63/32 29/64/32
f 20/61/30 29/64/32 28/62/31
f 21/65/33 22/66/33 29/67/33
f 22/66/33 30/68/33 29/67/33
f 22/69/34 23/70/34 31/71/34
f 22/69/34 31/71/34 30/72/34
f 23/73/35 24/74/36 31/75/35
f 24/74/36 32/76/37 31/75/35
f 24/74/36 17/77/38 25/78/38
f 24/74/36 25/78/38 32/76/37
f 5/79/39 7/80/39 6/81/39
f 4/82/39 7/80/39 5/79/39
f 4/82/39 8/83/39 7/80/39
f 3/84/39 8/83/39 4/82/39
f 3/84/39 1/85/39 8/83/39
f 1/85/39 3/84/39 2/86/39
f 29/87/40 30/88/40 31/89/40
f 28/90/40 29/87/40 31/89/40
f 28/90/40 31/89/40 32/91/40
f 27/92/40 28/90/40 32/91/40
f 27/92/40 32/91/40 25/93/40
f 25/93/40 26/94/40 27/92/40
