# mech2 torso - segment pelvis, colour white #F2F2F2
# units: studs, +Y up, -Z forward, origin = hip-joint line centre
o pelvis_white
v 0.00000 3.71280 1.50960
v 0.36259 3.71280 1.41895
v 0.72624 4.20737 1.32804
v 0.72624 5.19792 1.32804
v 0.00000 5.19792 1.50960
v 0.00000 3.62304 1.41984
v 0.40800 3.62304 1.31784
v 0.81600 4.17792 1.21584
v 0.81600 5.28768 1.21584
v 0.00000 5.28768 1.41984
v 0.00000 3.62304 0.97104
v 0.40800 3.62304 0.86904
v 0.81600 4.17792 0.76704
v 0.81600 5.28768 0.76704
v 0.00000 5.28768 0.97104
v 0.00000 3.65568 0.93840
v 0.39149 3.65568 0.84053
v 0.78336 4.18863 0.74256
v 0.78336 5.25504 0.74256
v 0.00000 5.25504 0.93840
v -0.00000 3.71280 1.50960
v -0.36259 3.71280 1.41895
v -0.72624 4.20737 1.32804
v -0.72624 5.19792 1.32804
v -0.00000 5.19792 1.50960
v -0.00000 3.62304 1.41984
v -0.40800 3.62304 1.31784
v -0.81600 4.17792 1.21584
v -0.81600 5.28768 1.21584
v -0.00000 5.28768 1.41984
v -0.00000 3.62304 0.97104
v -0.40800 3.62304 0.86904
v -0.81600 4.17792 0.76704
v -0.81600 5.28768 0.76704
v -0.00000 5.28768 0.97104
v -0.00000 3.65568 0.93840
v -0.39149 3.65568 0.84053
v -0.78336 4.18863 0.74256
v -0.78336 5.25504 0.74256
v -0.00000 5.25504 0.93840
v 0.00000 2.12657 1.24800
v 0.55488 2.45381 1.18611
v 0.55488 2.70096 1.22318
v 0.00000 2.70096 1.33416
v 0.00000 2.03184 1.15219
v 0.63648 2.40720 1.08120
v 0.63648 2.78256 1.13750
v 0.00000 2.78256 1.26480
v 0.00000 2.03184 0.61363
v 0.63648 2.40720 0.54264
v 0.63648 2.78256 0.59894
v 0.00000 2.78256 0.72624
v 0.00000 2.06973 0.58668
v 0.60384 2.42584 0.51932
v 0.60384 2.74992 0.56794
v 0.00000 2.74992 0.68870
v -0.00000 2.12657 1.24800
v -0.55488 2.45381 1.18611
v -0.55488 2.70096 1.22318
v -0.00000 2.70096 1.33416
v -0.00000 2.03184 1.15219
v -0.63648 2.40720 1.08120
v -0.63648 2.78256 1.13750
v -0.00000 2.78256 1.26480
v -0.00000 2.03184 0.61363
v -0.63648 2.40720 0.54264
v -0.63648 2.78256 0.59894
v -0.00000 2.78256 0.72624
v -0.00000 2.06973 0.58668
v -0.60384 2.42584 0.51932
v -0.60384 2.74992 0.56794
v -0.00000 2.74992 0.68870
v 0.94656 4.28096 1.41233
v 1.86531 4.40818 1.30208
v 2.14629 4.82965 1.26837
v 2.01442 5.29122 1.28419
v 0.94656 5.22002 1.41233
v 0.85680 4.17792 1.33334
v 1.91760 4.32480 1.20605
v 2.24400 4.81440 1.16688
v 2.08080 5.38560 1.18646
v 0.85680 5.30400 1.33334
v 0.85680 4.17792 0.92534
v 1.91760 4.32480 0.79805
v 2.24400 4.81440 0.75888
v 2.08080 5.38560 0.77846
v 0.85680 5.30400 0.92534
v 0.88944 4.21539 0.88879
v 1.89858 4.35512 0.76769
v 2.20847 4.81995 0.73050
v 2.05666 5.35128 0.74872
v 0.88944 5.27346 0.88879
v -0.94656 4.28096 1.41233
v -1.86531 4.40818 1.30208
v -2.14629 4.82965 1.26837
v -2.01442 5.29122 1.28419
v -0.94656 5.22002 1.41233
v -0.85680 4.17792 1.33334
v -1.91760 4.32480 1.20605
v -2.24400 4.81440 1.16688
v -2.08080 5.38560 1.18646
v -0.85680 5.30400 1.33334
v -0.85680 4.17792 0.92534
v -1.91760 4.32480 0.79805
v -2.24400 4.81440 0.75888
v -2.08080 5.38560 0.77846
v -0.85680 5.30400 0.92534
v -0.88944 4.21539 0.88879
v -1.89858 4.35512 0.76769
v -2.20847 4.81995 0.73050
v -2.05666 5.35128 0.74872
v -0.88944 5.27346 0.88879
v 0.72624 1.65121 1.88510
v 1.06436 0.67443 1.98541
v 2.67363 0.44454 1.93253
v 2.74109 0.47827 1.92511
v 2.70246 4.53400 1.44036
v 2.38805 4.42920 1.46865
v 0.87713 2.87851 1.73028
v 0.72624 2.35040 1.80120
v 0.61200 1.63200 1.77888
v 0.97920 0.57120 1.88782
v 2.69280 0.32640 1.83151
v 2.85600 0.40800 1.81356
v 2.81520 4.69200 1.30152
v 2.32560 4.52880 1.34558
v 0.77520 2.93760 1.61405
v 0.61200 2.36640 1.69075
v 0.61200 1.63200 1.48512
v 0.97920 0.57120 1.59406
v 2.69280 0.32640 1.53775
v 2.85600 0.40800 1.51980
v 2.81520 4.69200 1.00776
v 2.32560 4.52880 1.05182
v 0.77520 2.93760 1.32029
v 0.61200 2.36640 1.39699
v 0.65280 1.63886 1.44146
v 1.00961 0.60807 1.54731
v 2.68595 0.36859 1.49223
v 2.81496 0.43310 1.47804
v 2.77494 4.63557 0.97574
v 2.34791 4.49323 1.01418
v 0.81160 2.91650 1.28020
v 0.65280 2.36069 1.35484
v -0.72624 1.65121 1.88510
v -1.06436 0.67443 1.98541
v -2.67363 0.44454 1.93253
v -2.74109 0.47827 1.92511
v -2.70246 4.53400 1.44036
v -2.38805 4.42920 1.46865
v -0.87713 2.87851 1.73028
v -0.72624 2.35040 1.80120
v -0.61200 1.63200 1.77888
v -0.97920 0.57120 1.88782
v -2.69280 0.32640 1.83151
v -2.85600 0.40800 1.81356
v -2.81520 4.69200 1.30152
v -2.32560 4.52880 1.34558
v -0.77520 2.93760 1.61405
v -0.61200 2.36640 1.69075
v -0.61200 1.63200 1.48512
v -0.97920 0.57120 1.59406
v -2.69280 0.32640 1.53775
v -2.85600 0.40800 1.51980
v -2.81520 4.69200 1.00776
v -2.32560 4.52880 1.05182
v -0.77520 2.93760 1.32029
v -0.61200 2.36640 1.39699
v -0.65280 1.63886 1.44146
v -1.00961 0.60807 1.54731
v -2.68595 0.36859 1.49223
v -2.81496 0.43310 1.47804
v -2.77494 4.63557 0.97574
v -2.34791 4.49323 1.01418
v -0.81160 2.91650 1.28020
v -0.65280 2.36069 1.35484
v 0.93840 0.68785 2.24673
v 2.45022 0.57723 2.18441
v 2.48732 2.02418 2.00892
v 2.10267 2.16405 2.01137
v 1.63200 2.21897 2.02832
v 1.16841 2.16488 2.05799
v 0.93840 2.03345 2.08526
v 0.85680 0.61200 2.17831
v 2.52960 0.48960 2.10936
v 2.57040 2.08080 1.91638
v 2.12160 2.24400 1.91923
v 1.63200 2.30112 1.93686
v 1.14240 2.24400 1.96819
v 0.85680 2.08080 2.00206
v 0.85680 0.61200 1.88455
v 2.52960 0.48960 1.81560
v 2.57040 2.08080 1.62262
v 2.12160 2.24400 1.62547
v 1.63200 2.30112 1.64310
v 1.14240 2.24400 1.67443
v 0.85680 2.08080 1.70830
v 0.88944 0.64234 1.84664
v 2.49785 0.52465 1.78034
v 2.53717 2.05815 1.59436
v 2.11403 2.21202 1.59705
v 1.63200 2.26826 1.61440
v 1.15280 2.21235 1.64507
v 0.88944 2.06186 1.67630
v -0.93840 0.68785 2.24673
v -2.45022 0.57723 2.18441
v -2.48732 2.02418 2.00892
v -2.10267 2.16405 2.01137
v -1.63200 2.21897 2.02832
v -1.16841 2.16488 2.05799
v -0.93840 2.03345 2.08526
v -0.85680 0.61200 2.17831
v -2.52960 0.48960 2.10936
v -2.57040 2.08080 1.91638
v -2.12160 2.24400 1.91923
v -1.63200 2.30112 1.93686
v -1.14240 2.24400 1.96819
v -0.85680 2.08080 2.00206
v -0.85680 0.61200 1.88455
v -2.52960 0.48960 1.81560
v -2.57040 2.08080 1.62262
v -2.12160 2.24400 1.62547
v -1.63200 2.30112 1.64310
v -1.14240 2.24400 1.67443
v -0.85680 2.08080 1.70830
v -0.88944 0.64234 1.84664
v -2.49785 0.52465 1.78034
v -2.53717 2.05815 1.59436
v -2.11403 2.21202 1.59705
v -1.63200 2.26826 1.61440
v -1.15280 2.21235 1.64507
v -0.88944 2.06186 1.67630
v 0.00000 3.71280 -1.50960
v 0.36259 3.71280 -1.41895
v 0.72624 4.20737 -1.32804
v 0.72624 5.19792 -1.32804
v 0.00000 5.19792 -1.50960
v 0.00000 3.62304 -1.41984
v 0.40800 3.62304 -1.31784
v 0.81600 4.17792 -1.21584
v 0.81600 5.28768 -1.21584
v 0.00000 5.28768 -1.41984
v 0.00000 3.62304 -0.97104
v 0.40800 3.62304 -0.86904
v 0.81600 4.17792 -0.76704
v 0.81600 5.28768 -0.76704
v 0.00000 5.28768 -0.97104
v 0.00000 3.65568 -0.93840
v 0.39149 3.65568 -0.84053
v 0.78336 4.18863 -0.74256
v 0.78336 5.25504 -0.74256
v 0.00000 5.25504 -0.93840
v -0.00000 3.71280 -1.50960
v -0.36259 3.71280 -1.41895
v -0.72624 4.20737 -1.32804
v -0.72624 5.19792 -1.32804
v -0.00000 5.19792 -1.50960
v -0.00000 3.62304 -1.41984
v -0.40800 3.62304 -1.31784
v -0.81600 4.17792 -1.21584
v -0.81600 5.28768 -1.21584
v -0.00000 5.28768 -1.41984
v -0.00000 3.62304 -0.97104
v -0.40800 3.62304 -0.86904
v -0.81600 4.17792 -0.76704
v -0.81600 5.28768 -0.76704
v -0.00000 5.28768 -0.97104
v -0.00000 3.65568 -0.93840
v -0.39149 3.65568 -0.84053
v -0.78336 4.18863 -0.74256
v -0.78336 5.25504 -0.74256
v -0.00000 5.25504 -0.93840
v 0.00000 2.12657 -1.24800
v 0.55488 2.45381 -1.18611
v 0.55488 2.70096 -1.22318
v 0.00000 2.70096 -1.33416
v 0.00000 2.03184 -1.15219
v 0.63648 2.40720 -1.08120
v 0.63648 2.78256 -1.13750
v 0.00000 2.78256 -1.26480
v 0.00000 2.03184 -0.61363
v 0.63648 2.40720 -0.54264
v 0.63648 2.78256 -0.59894
v 0.00000 2.78256 -0.72624
v 0.00000 2.06973 -0.58668
v 0.60384 2.42584 -0.51932
v 0.60384 2.74992 -0.56794
v 0.00000 2.74992 -0.68870
v -0.00000 2.12657 -1.24800
v -0.55488 2.45381 -1.18611
v -0.55488 2.70096 -1.22318
v -0.00000 2.70096 -1.33416
v -0.00000 2.03184 -1.15219
v -0.63648 2.40720 -1.08120
v -0.63648 2.78256 -1.13750
v -0.00000 2.78256 -1.26480
v -0.00000 2.03184 -0.61363
v -0.63648 2.40720 -0.54264
v -0.63648 2.78256 -0.59894
v -0.00000 2.78256 -0.72624
v -0.00000 2.06973 -0.58668
v -0.60384 2.42584 -0.51932
v -0.60384 2.74992 -0.56794
v -0.00000 2.74992 -0.68870
v 0.94656 4.28096 -1.41233
v 1.86531 4.40818 -1.30208
v 2.14629 4.82965 -1.26837
v 2.01442 5.29122 -1.28419
v 0.94656 5.22002 -1.41233
v 0.85680 4.17792 -1.33334
v 1.91760 4.32480 -1.20605
v 2.24400 4.81440 -1.16688
v 2.08080 5.38560 -1.18646
v 0.85680 5.30400 -1.33334
v 0.85680 4.17792 -0.92534
v 1.91760 4.32480 -0.79805
v 2.24400 4.81440 -0.75888
v 2.08080 5.38560 -0.77846
v 0.85680 5.30400 -0.92534
v 0.88944 4.21539 -0.88879
v 1.89858 4.35512 -0.76769
v 2.20847 4.81995 -0.73050
v 2.05666 5.35128 -0.74872
v 0.88944 5.27346 -0.88879
v -0.94656 4.28096 -1.41233
v -1.86531 4.40818 -1.30208
v -2.14629 4.82965 -1.26837
v -2.01442 5.29122 -1.28419
v -0.94656 5.22002 -1.41233
v -0.85680 4.17792 -1.33334
v -1.91760 4.32480 -1.20605
v -2.24400 4.81440 -1.16688
v -2.08080 5.38560 -1.18646
v -0.85680 5.30400 -1.33334
v -0.85680 4.17792 -0.92534
v -1.91760 4.32480 -0.79805
v -2.24400 4.81440 -0.75888
v -2.08080 5.38560 -0.77846
v -0.85680 5.30400 -0.92534
v -0.88944 4.21539 -0.88879
v -1.89858 4.35512 -0.76769
v -2.20847 4.81995 -0.73050
v -2.05666 5.35128 -0.74872
v -0.88944 5.27346 -0.88879
v 0.72624 1.68330 -1.88125
v 1.02940 1.41383 -1.89843
v 2.67363 1.17894 -1.84441
v 2.74095 1.21260 -1.83700
v 2.70277 4.53410 -1.44033
v 2.38805 4.42920 -1.46865
v 0.87713 2.87851 -1.73028
v 0.72624 2.35040 -1.80120
v 0.61200 1.63200 -1.77888
v 0.97920 1.30560 -1.79969
v 2.69280 1.06080 -1.74338
v 2.85600 1.14240 -1.72543
v 2.81520 4.69200 -1.30152
v 2.32560 4.52880 -1.34558
v 0.77520 2.93760 -1.61405
v 0.61200 2.36640 -1.69075
v 0.61200 1.63200 -1.48512
v 0.97920 1.30560 -1.50593
v 2.69280 1.06080 -1.44962
v 2.85600 1.14240 -1.43167
v 2.81520 4.69200 -1.00776
v 2.32560 4.52880 -1.05182
v 0.77520 2.93760 -1.32029
v 0.61200 2.36640 -1.39699
v 0.65280 1.65032 -1.44008
v 0.99713 1.34425 -1.45959
v 2.68595 1.10299 -1.40410
v 2.81491 1.16747 -1.38992
v 2.77505 4.63561 -0.97573
v 2.34791 4.49323 -1.01418
v 0.81160 2.91650 -1.28020
v 0.65280 2.36069 -1.35484
v -0.72624 1.68330 -1.88125
v -1.02940 1.41383 -1.89843
v -2.67363 1.17894 -1.84441
v -2.74095 1.21260 -1.83700
v -2.70277 4.53410 -1.44033
v -2.38805 4.42920 -1.46865
v -0.87713 2.87851 -1.73028
v -0.72624 2.35040 -1.80120
v -0.61200 1.63200 -1.77888
v -0.97920 1.30560 -1.79969
v -2.69280 1.06080 -1.74338
v -2.85600 1.14240 -1.72543
v -2.81520 4.69200 -1.30152
v -2.32560 4.52880 -1.34558
v -0.77520 2.93760 -1.61405
v -0.61200 2.36640 -1.69075
v -0.61200 1.63200 -1.48512
v -0.97920 1.30560 -1.50593
v -2.69280 1.06080 -1.44962
v -2.85600 1.14240 -1.43167
v -2.81520 4.69200 -1.00776
v -2.32560 4.52880 -1.05182
v -0.77520 2.93760 -1.32029
v -0.61200 2.36640 -1.39699
v -0.65280 1.65032 -1.44008
v -0.99713 1.34425 -1.45959
v -2.68595 1.10299 -1.40410
v -2.81491 1.16747 -1.38992
v -2.77505 4.63561 -0.97573
v -2.34791 4.49323 -1.01418
v -0.81160 2.91650 -1.28020
v -0.65280 2.36069 -1.35484
v 0.93840 1.42225 -2.15860
v 2.45207 1.31149 -2.09621
v 2.48603 2.02465 -2.00893
v 2.10267 2.16405 -2.01137
v 1.63200 2.21897 -2.02832
v 1.16841 2.16488 -2.05799
v 0.93840 2.03345 -2.08526
v 0.85680 1.34640 -2.09018
v 2.52960 1.22400 -2.02123
v 2.57040 2.08080 -1.91638
v 2.12160 2.24400 -1.91923
v 1.63200 2.30112 -1.93686
v 1.14240 2.24400 -1.96819
v 0.85680 2.08080 -2.00206
v 0.85680 1.34640 -1.79642
v 2.52960 1.22400 -1.72747
v 2.57040 2.08080 -1.62262
v 2.12160 2.24400 -1.62547
v 1.63200 2.30112 -1.64310
v 1.14240 2.24400 -1.67443
v 0.85680 2.08080 -1.70830
v 0.88944 1.37674 -1.75851
v 2.49859 1.25900 -1.69218
v 2.53665 2.05834 -1.59436
v 2.11403 2.21202 -1.59705
v 1.63200 2.26826 -1.61440
v 1.15280 2.21235 -1.64507
v 0.88944 2.06186 -1.67630
v -0.93840 1.42225 -2.15860
v -2.45207 1.31149 -2.09621
v -2.48603 2.02465 -2.00893
v -2.10267 2.16405 -2.01137
v -1.63200 2.21897 -2.02832
v -1.16841 2.16488 -2.05799
v -0.93840 2.03345 -2.08526
v -0.85680 1.34640 -2.09018
v -2.52960 1.22400 -2.02123
v -2.57040 2.08080 -1.91638
v -2.12160 2.24400 -1.91923
v -1.63200 2.30112 -1.93686
v -1.14240 2.24400 -1.96819
v -0.85680 2.08080 -2.00206
v -0.85680 1.34640 -1.79642
v -2.52960 1.22400 -1.72747
v -2.57040 2.08080 -1.62262
v -2.12160 2.24400 -1.62547
v -1.63200 2.30112 -1.64310
v -1.14240 2.24400 -1.67443
v -0.85680 2.08080 -1.70830
v -0.88944 1.37674 -1.75851
v -2.49859 1.25900 -1.69218
v -2.53665 2.05834 -1.59436
v -2.11403 2.21202 -1.59705
v -1.63200 2.26826 -1.61440
v -1.15280 2.21235 -1.64507
v -0.88944 2.06186 -1.67630
v 3.33817 1.49541 -1.40154
v 3.49485 0.82070 -0.98922
v 3.76356 0.39905 0.12240
v 3.31647 4.46352 0.12240
v 3.05073 4.46352 -1.20627
v 3.21341 1.46880 -1.50960
v 3.38395 0.73440 -1.06080
v 3.66996 0.28560 0.12240
v 3.19872 4.56960 0.12240
v 2.91312 4.56960 -1.30560
v 2.75645 1.46880 -1.50960
v 2.92699 0.73440 -1.06080
v 3.21300 0.28560 0.12240
v 2.74176 4.56960 0.12240
v 2.45616 4.56960 -1.30560
v 2.71611 1.48108 -1.45973
v 2.88026 0.77423 -1.02776
v 3.15828 0.33796 0.12240
v 2.69819 4.52064 0.12240
v 2.42175 4.52064 -1.25976
v 3.76437 0.39168 0.12240
v 3.51539 0.39168 1.36733
v 3.37583 1.00471 1.72793
v 3.04253 4.46352 1.49211
v 3.31647 4.46352 0.12240
v 3.66996 0.28560 0.12240
v 3.40884 0.28560 1.42800
v 3.25094 0.97920 1.83600
v 2.90496 4.56960 1.59120
v 3.19872 4.56960 0.12240
v 3.21300 0.28560 0.12240
v 2.95188 0.28560 1.42800
v 2.79398 0.97920 1.83600
v 2.44800 4.56960 1.59120
v 2.74176 4.56960 0.12240
v 3.15865 0.33456 0.12240
v 2.90313 0.33456 1.40000
v 2.75370 0.99097 1.78612
v 2.41357 4.52064 1.54546
v 2.69819 4.52064 0.12240
v -3.33817 1.49541 -1.40154
v -3.49485 0.82070 -0.98922
v -3.76356 0.39905 0.12240
v -3.31647 4.46352 0.12240
v -3.05073 4.46352 -1.20627
v -3.21341 1.46880 -1.50960
v -3.38395 0.73440 -1.06080
v -3.66996 0.28560 0.12240
v -3.19872 4.56960 0.12240
v -2.91312 4.56960 -1.30560
v -2.75645 1.46880 -1.50960
v -2.92699 0.73440 -1.06080
v -3.21300 0.28560 0.12240
v -2.74176 4.56960 0.12240
v -2.45616 4.56960 -1.30560
v -2.71611 1.48108 -1.45973
v -2.88026 0.77423 -1.02776
v -3.15828 0.33796 0.12240
v -2.69819 4.52064 0.12240
v -2.42175 4.52064 -1.25976
v -3.76437 0.39168 0.12240
v -3.51539 0.39168 1.36733
v -3.37583 1.00471 1.72793
v -3.04253 4.46352 1.49211
v -3.31647 4.46352 0.12240
v -3.66996 0.28560 0.12240
v -3.40884 0.28560 1.42800
v -3.25094 0.97920 1.83600
v -2.90496 4.56960 1.59120
v -3.19872 4.56960 0.12240
v -3.21300 0.28560 0.12240
v -2.95188 0.28560 1.42800
v -2.79398 0.97920 1.83600
v -2.44800 4.56960 1.59120
v -2.74176 4.56960 0.12240
v -3.15865 0.33456 0.12240
v -2.90313 0.33456 1.40000
v -2.75370 0.99097 1.78612
v -2.41357 4.52064 1.54546
v -2.69819 4.52064 0.12240
vt -0.06780 -0.92320
vt -0.06780 -0.89146
vt -0.15985 -0.90717
vt -0.17138 -0.87343
vt -0.32790 -0.92857
vt -0.29863 -0.90868
vt -0.26824 -1.06719
vt -0.23170 -1.06421
vt -0.29831 -1.31035
vt -0.26538 -1.33663
vt 0.02203 -0.68410
vt 0.20641 -0.68374
vt 0.20641 -0.65201
vt -0.00075 -0.71981
vt 0.37740 -1.29948
vt 0.35496 -0.90576
vt 0.37740 -0.92820
vt 0.35496 -1.32192
vt 0.00000 -0.35496
vt 0.00000 -0.24276
vt -0.10200 -0.32946
vt -0.10200 -0.21726
vt -0.32946 -0.79015
vt -0.21726 -0.79015
vt -0.30396 -0.96233
vt -0.19176 -0.96233
vt -0.30396 -1.04448
vt -0.19176 -1.32192
vt -0.30396 -1.32192
vt -0.19176 -1.04448
vt -0.20400 0.30396
vt 0.00000 0.24276
vt 0.00000 0.35496
vt -0.20400 0.19176
vt 0.24276 -0.90576
vt 0.24276 -1.32192
vt 0.14137 0.46881
vt 0.04198 0.49765
vt 0.03779 0.48684
vt 0.14137 0.48035
vt -0.31198 -0.83526
vt -0.30570 -0.84480
vt -0.40035 -0.97619
vt -0.39058 -0.98015
vt -0.42303 -1.24015
vt -0.43412 -1.24675
vt -0.34000 1.07033
vt -0.33171 1.06024
vt -0.13284 1.10640
vt -0.13284 1.09486
vt 0.23460 -1.31376
vt 0.23460 -0.91392
vt 0.09561 -1.05184
vt 0.09561 -1.29948
vt -0.09153 -1.29948
vt -0.09153 -0.92820
vt 0.00190 -0.92820
vt -0.14497 -1.04716
vt 0.05690 -1.31376
vt -0.14497 -1.31376
vt 0.05690 -0.91392
vt -0.04398 -0.91392
vt 0.06780 -0.92320
vt 0.15985 -0.90717
vt 0.06780 -0.89146
vt 0.17138 -0.87343
vt 0.32790 -0.92857
vt 0.26824 -1.06719
vt 0.29863 -0.90868
vt 0.23170 -1.06421
vt 0.29831 -1.31035
vt 0.26538 -1.33663
vt -0.02203 -0.68410
vt -0.20641 -0.65201
vt -0.20641 -0.68374
vt 0.00075 -0.71981
vt -0.37740 -1.29948
vt -0.37740 -0.92820
vt -0.35496 -0.90576
vt -0.35496 -1.32192
vt 0.10200 -0.32946
vt 0.10200 -0.21726
vt 0.32946 -0.79015
vt 0.30396 -0.96233
vt 0.21726 -0.79015
vt 0.19176 -0.96233
vt 0.30396 -1.04448
vt 0.30396 -1.32192
vt 0.19176 -1.32192
vt 0.19176 -1.04448
vt 0.20400 0.30396
vt 0.20400 0.19176
vt -0.24276 -0.90576
vt -0.24276 -1.32192
vt -0.14137 0.46881
vt -0.03779 0.48684
vt -0.04198 0.49765
vt -0.14137 0.48035
vt 0.31198 -0.83526
vt 0.40035 -0.97619
vt 0.30570 -0.84480
vt 0.39058 -0.98015
vt 0.43412 -1.24675
vt 0.42303 -1.24015
vt 0.34000 1.07033
vt 0.13284 1.10640
vt 0.33171 1.06024
vt 0.13284 1.09486
vt -0.23460 -1.31376
vt -0.23460 -0.91392
vt -0.09561 -1.05184
vt 0.09153 -1.29948
vt -0.09561 -1.29948
vt 0.09153 -0.92820
vt -0.00190 -0.92820
vt 0.14497 -1.04716
vt 0.14497 -1.31376
vt -0.05690 -1.31376
vt -0.05690 -0.91392
vt 0.04398 -0.91392
vt -0.07071 -0.59566
vt -0.07071 -0.56197
vt -0.22567 -0.64218
vt -0.24846 -0.61533
vt -0.18929 -0.62592
vt -0.15526 -0.61689
vt -0.20132 -0.68723
vt -0.17352 -0.71000
vt 0.03615 -0.31644
vt -0.10417 -0.32525
vt -0.10417 -0.29848
vt 0.05679 -0.34586
vt 0.33354 -0.67524
vt 0.31620 -0.69564
vt 0.31200 -0.53164
vt 0.28805 -0.50796
vt -0.25804 -0.28805
vt -0.25804 -0.15341
vt -0.44277 -0.27030
vt -0.44277 -0.13566
vt -0.27030 -0.60180
vt -0.14974 -0.69564
vt -0.28438 -0.69564
vt -0.13566 -0.60180
vt -0.15912 0.28438
vt 0.00000 0.18156
vt 0.00000 0.31620
vt -0.15912 0.14974
vt 0.18156 -0.69564
vt 0.15341 -0.50796
vt -0.10210 -0.32499
vt -0.10210 -0.33662
vt -0.26616 -0.41174
vt -0.25774 -0.41892
vt -0.15264 -0.61527
vt -0.14223 -0.70094
vt -0.15264 -0.71016
vt -0.14223 -0.61901
vt -0.21329 0.56946
vt -0.20506 0.55825
vt -0.05280 0.59347
vt -0.05280 0.58103
vt 0.17218 -0.68748
vt 0.14667 -0.51743
vt -0.04457 -0.71725
vt -0.04457 -0.57204
vt 0.09684 -0.65065
vt 0.09684 -0.71313
vt 0.01325 -0.70541
vt -0.14063 -0.61901
vt 0.01325 -0.53347
vt -0.14063 -0.70094
vt 0.07071 -0.59566
vt 0.22567 -0.64218
vt 0.07071 -0.56197
vt 0.24846 -0.61533
vt 0.18929 -0.62592
vt 0.20132 -0.68723
vt 0.15526 -0.61689
vt 0.17352 -0.71000
vt -0.03615 -0.31644
vt 0.10417 -0.29848
vt 0.10417 -0.32525
vt -0.05679 -0.34586
vt -0.33354 -0.67524
vt -0.31200 -0.53164
vt -0.31620 -0.69564
vt -0.28805 -0.50796
vt 0.25804 -0.28805
vt 0.44277 -0.27030
vt 0.25804 -0.15341
vt 0.44277 -0.13566
vt 0.27030 -0.60180
vt 0.28438 -0.69564
vt 0.14974 -0.69564
vt 0.13566 -0.60180
vt 0.15912 0.28438
vt 0.15912 0.14974
vt -0.18156 -0.69564
vt -0.15341 -0.50796
vt 0.10210 -0.32499
vt 0.26616 -0.41174
vt 0.10210 -0.33662
vt 0.25774 -0.41892
vt 0.15264 -0.61527
vt 0.15264 -0.71016
vt 0.14223 -0.70094
vt 0.14223 -0.61901
vt 0.21329 0.56946
vt 0.05280 0.59347
vt 0.20506 0.55825
vt 0.05280 0.58103
vt -0.17218 -0.68748
vt -0.14667 -0.51743
vt 0.04457 -0.71725
vt -0.09684 -0.65065
vt 0.04457 -0.57204
vt -0.09684 -0.71313
vt -0.01325 -0.70541
vt -0.01325 -0.53347
vt 0.14063 -0.61901
vt 0.14063 -0.70094
vt 0.32307 -1.00884
vt 0.56984 -0.98033
vt 0.55655 -1.01204
vt 0.30025 -0.97664
vt 0.51828 -1.12161
vt 0.53529 -1.09174
vt 0.60968 -1.20966
vt 0.64147 -1.19402
vt 0.30932 -1.03815
vt 0.34339 -1.02844
vt 0.30401 -1.15810
vt 0.33682 -1.17689
vt 0.45930 -0.70964
vt 0.16969 -0.70322
vt 0.19214 -0.67441
vt 0.47591 -0.74360
vt 0.41091 -1.30501
vt 0.38101 -1.32600
vt 0.41091 -1.07024
vt 0.38101 -1.04448
vt -0.35543 -0.33334
vt -0.35543 -0.23134
vt -0.62316 -0.30151
vt -0.62316 -0.19951
vt -0.30151 -1.16554
vt -0.19951 -1.16554
vt -0.29172 -1.31264
vt -0.18972 -1.31264
vt -0.29172 -1.00317
vt -0.19462 -1.15169
vt -0.29662 -1.15169
vt -0.18972 -1.00317
vt -0.60861 0.29662
vt -0.30193 0.23134
vt -0.30193 0.33334
vt -0.60861 0.19462
vt 0.33334 -1.32600
vt 0.23134 -1.04448
vt 0.33334 -1.04448
vt 0.23134 -1.32600
vt -0.22514 -0.57926
vt -0.23330 -0.59234
vt -0.49036 -0.62774
vt -0.48561 -0.63847
vt -0.77639 -0.84870
vt -0.77079 -0.85901
vt -0.87252 -0.96049
vt -0.86205 -0.96514
vt -0.34999 -1.21086
vt -0.28968 -1.33961
vt -0.29745 -1.34985
vt -0.33855 -1.21032
vt -0.62217 -1.09057
vt -0.32175 -1.09020
vt -0.31352 -1.10206
vt -0.61609 -1.07924
vt 0.02990 -1.32600
vt 0.01765 -1.05385
vt 0.02990 -1.04448
vt 0.01765 -1.31837
vt 0.19289 -1.30501
vt 0.19289 -1.07024
vt 0.42422 -1.10204
vt 0.46177 -1.32280
vt 0.49497 -1.20741
vt -0.19430 -1.31837
vt -0.44840 -1.08878
vt -0.19430 -1.05385
vt -0.48820 -1.33782
vt -0.52643 -1.20499
vt -0.32307 -1.00884
vt -0.55655 -1.01204
vt -0.56984 -0.98033
vt -0.30025 -0.97664
vt -0.51828 -1.12161
vt -0.60968 -1.20966
vt -0.53529 -1.09174
vt -0.64147 -1.19402
vt -0.30932 -1.03815
vt -0.30401 -1.15810
vt -0.34339 -1.02844
vt -0.33682 -1.17689
vt -0.45930 -0.70964
vt -0.19214 -0.67441
vt -0.16969 -0.70322
vt -0.47591 -0.74360
vt -0.41091 -1.30501
vt -0.41091 -1.07024
vt -0.38101 -1.32600
vt -0.38101 -1.04448
vt 0.35543 -0.33334
vt 0.62316 -0.30151
vt 0.35543 -0.23134
vt 0.62316 -0.19951
vt 0.30151 -1.16554
vt 0.29172 -1.31264
vt 0.19951 -1.16554
vt 0.18972 -1.31264
vt 0.29172 -1.00317
vt 0.29662 -1.15169
vt 0.19462 -1.15169
vt 0.18972 -1.00317
vt 0.60861 0.29662
vt 0.30193 0.33334
vt 0.30193 0.23134
vt 0.60861 0.19462
vt -0.33334 -1.32600
vt -0.33334 -1.04448
vt -0.23134 -1.04448
vt -0.23134 -1.32600
vt 0.22514 -0.57926
vt 0.49036 -0.62774
vt 0.23330 -0.59234
vt 0.48561 -0.63847
vt 0.77639 -0.84870
vt 0.87252 -0.96049
vt 0.77079 -0.85901
vt 0.86205 -0.96514
vt 0.34999 -1.21086
vt 0.29745 -1.34985
vt 0.28968 -1.33961
vt 0.33855 -1.21032
vt 0.62217 -1.09057
vt 0.31352 -1.10206
vt 0.32175 -1.09020
vt 0.61609 -1.07924
vt -0.02990 -1.32600
vt -0.02990 -1.04448
vt -0.01765 -1.05385
vt -0.01765 -1.31837
vt -0.19289 -1.30501
vt -0.42422 -1.10204
vt -0.19289 -1.07024
vt -0.46177 -1.32280
vt -0.49497 -1.20741
vt 0.19430 -1.31837
vt 0.19430 -1.05385
vt 0.44840 -1.08878
vt 0.48820 -1.33782
vt 0.52643 -1.20499
vt 0.38553 -0.49980
vt 0.34755 -0.48971
vt 0.49792 -0.26577
vt 0.46961 -0.23555
vt 0.27583 -0.45196
vt 0.68370 -0.36095
vt 0.67890 -0.39981
vt 0.25450 -0.41648
vt 0.69549 -0.40498
vt 0.72384 -0.37346
vt 0.12750 -0.03477
vt 0.16587 -0.01382
vt 0.29426 -1.04226
vt 0.34202 -1.07801
vt 1.05210 -0.75086
vt 0.96062 -0.76276
vt 0.98022 -0.72507
vt 1.07255 -0.80292
vt 0.54476 -0.39322
vt 0.57495 -0.36494
vt 0.47789 -0.26326
vt 0.51313 -0.24478
vt 0.43590 -0.09760
vt 0.47314 -0.08707
vt 0.44472 -0.36906
vt 0.39851 -0.09085
vt 0.47195 -0.09085
vt 0.37128 -0.36906
vt -0.22214 -0.47195
vt -0.22214 -0.39851
vt -0.65489 -0.45788
vt -0.65489 -0.38444
vt -0.63862 -0.45788
vt -0.63862 -0.38444
vt -0.68424 -0.45339
vt -0.68424 -0.37995
vt -0.45339 -0.09520
vt -0.37995 -0.09520
vt -0.32538 -1.16624
vt -0.25194 -1.16624
vt 0.32538 -1.33558
vt 0.26296 -1.22178
vt 0.33640 -1.22178
vt 0.25194 -1.33558
vt 0.33007 -0.66642
vt 0.40351 -0.66642
vt 0.34925 -0.53470
vt 0.42269 -0.53470
vt 0.42269 -0.54894
vt 0.34925 -0.54894
vt 0.22661 -0.22092
vt 0.09232 0.01911
vt 0.10259 0.03230
vt 0.21283 -0.22694
vt -0.20868 -0.19909
vt -0.21635 -0.18425
vt -0.64033 -0.22981
vt -0.63861 -0.21429
vt -0.66983 -0.20082
vt -0.67982 -0.21277
vt -0.78611 -0.05966
vt -0.75824 -1.12510
vt -0.77208 -1.13824
vt -0.77200 -0.06704
vt -0.69703 -1.17914
vt -0.69009 -1.16304
vt -0.58330 -1.14578
vt -0.59090 -1.13394
vt -0.15508 -0.79617
vt -0.14348 -0.80491
vt -0.08090 -0.67525
vt -0.06725 -0.68064
vt -0.02737 -0.51722
vt -0.01279 -0.51986
vt 0.15570 -0.35371
vt 0.24033 -0.10827
vt 0.64314 -0.05278
vt 0.15570 -0.52976
vt 0.19347 -0.66296
vt 0.57166 -1.05567
vt 0.66003 -0.06137
vt 0.65036 -1.08252
vt -0.14284 -0.36386
vt -0.65175 -0.04704
vt -0.23215 -0.10485
vt -0.14284 -0.54561
vt -0.18259 -0.68580
vt -0.56714 -1.08510
vt -0.68404 -0.06348
vt -0.67403 -1.12157
vt -0.38553 -0.49980
vt -0.49792 -0.26577
vt -0.34755 -0.48971
vt -0.46961 -0.23555
vt -0.27583 -0.45196
vt -0.67890 -0.39981
vt -0.68370 -0.36095
vt -0.25450 -0.41648
vt -0.69549 -0.40498
vt -0.72384 -0.37346
vt -0.12750 -0.03477
vt -0.29426 -1.04226
vt -0.16587 -0.01382
vt -0.34202 -1.07801
vt -1.05210 -0.75086
vt -0.98022 -0.72507
vt -0.96062 -0.76276
vt -1.07255 -0.80292
vt -0.57495 -0.36494
vt -0.54476 -0.39322
vt -0.51313 -0.24478
vt -0.47789 -0.26326
vt -0.47314 -0.08707
vt -0.43590 -0.09760
vt -0.44472 -0.36906
vt -0.47195 -0.09085
vt -0.39851 -0.09085
vt -0.37128 -0.36906
vt 0.22214 -0.47195
vt 0.65489 -0.45788
vt 0.22214 -0.39851
vt 0.65489 -0.38444
vt 0.63862 -0.45788
vt 0.68424 -0.45339
vt 0.63862 -0.38444
vt 0.68424 -0.37995
vt 0.45339 -0.09520
vt 0.32538 -1.16624
vt 0.37995 -0.09520
vt 0.25194 -1.16624
vt -0.32538 -1.33558
vt -0.33640 -1.22178
vt -0.26296 -1.22178
vt -0.25194 -1.33558
vt -0.40351 -0.66642
vt -0.33007 -0.66642
vt -0.42269 -0.53470
vt -0.34925 -0.53470
vt -0.42269 -0.54894
vt -0.34925 -0.54894
vt -0.22661 -0.22092
vt -0.10259 0.03230
vt -0.09232 0.01911
vt -0.21283 -0.22694
vt 0.20868 -0.19909
vt 0.64033 -0.22981
vt 0.21635 -0.18425
vt 0.63861 -0.21429
vt 0.67982 -0.21277
vt 0.66983 -0.20082
vt 0.78611 -0.05966
vt 0.77208 -1.13824
vt 0.75824 -1.12510
vt 0.77200 -0.06704
vt 0.69703 -1.17914
vt 0.58330 -1.14578
vt 0.69009 -1.16304
vt 0.59090 -1.13394
vt 0.14348 -0.80491
vt 0.15508 -0.79617
vt 0.06725 -0.68064
vt 0.08090 -0.67525
vt 0.01279 -0.51986
vt 0.02737 -0.51722
vt -0.15570 -0.35371
vt -0.64314 -0.05278
vt -0.24033 -0.10827
vt -0.15570 -0.52976
vt -0.19347 -0.66296
vt -0.57166 -1.05567
vt -0.66003 -0.06137
vt -0.65036 -1.08252
vt 0.14284 -0.36386
vt 0.23215 -0.10485
vt 0.65175 -0.04704
vt 0.14284 -0.54561
vt 0.18259 -0.68580
vt 0.56714 -1.08510
vt 0.68404 -0.06348
vt 0.67403 -1.12157
vt 0.23990 -0.49969
vt 0.21949 -0.47416
vt 0.61791 -0.46863
vt 0.63776 -0.43979
vt 0.03268 -0.08888
vt 0.12505 -0.46057
vt 0.09316 -0.44833
vt 0.05854 -0.06528
vt -0.59589 0.02390
vt -0.50363 -0.02992
vt -0.49886 0.00056
vt -0.61684 -0.00269
vt -0.38082 -0.03640
vt -0.38080 -0.00567
vt -0.25868 -0.02095
vt -0.26516 0.00896
vt -0.20839 0.03631
vt -0.18820 0.01301
vt 0.56738 -0.44263
vt 0.53933 -0.45686
vt 0.56738 -0.10382
vt 0.53933 -0.08703
vt -0.20246 -0.54458
vt -0.20246 -0.47114
vt -0.62178 -0.52734
vt -0.62178 -0.45390
vt -0.52734 -0.13857
vt -0.45390 -0.13857
vt -0.47909 -0.53650
vt -0.40565 -0.53650
vt -0.57938 0.47909
vt -0.46327 0.40637
vt -0.46327 0.47981
vt -0.57938 0.40565
vt -0.34004 0.41077
vt -0.34004 0.48421
vt -0.22005 0.41861
vt -0.22005 0.49205
vt -0.52630 0.49205
vt -0.44407 0.42707
vt -0.44407 0.50051
vt -0.52630 0.41861
vt 0.50051 -0.52020
vt 0.47114 -0.15300
vt 0.54458 -0.15300
vt 0.42707 -0.52020
vt -0.17848 -0.24903
vt -0.59012 -0.24418
vt -0.59809 -0.25659
vt -0.18667 -0.23691
vt -0.78051 -0.05571
vt -0.76962 -0.06565
vt -0.79451 -0.45631
vt -0.78311 -0.45173
vt -0.64300 -0.65928
vt -0.63476 -0.65040
vt -0.53184 -0.69103
vt -0.52996 -0.68034
vt -0.40975 -0.69390
vt -0.40974 -0.70481
vt -0.28948 -0.68811
vt -0.28686 -0.69888
vt -0.22255 -0.66426
vt -0.21428 -0.67302
vt 0.12335 -0.49251
vt 0.17096 -0.13430
vt 0.18401 -0.12769
vt 0.11233 -0.48688
vt 0.20564 -0.10382
vt 0.58406 -0.07821
vt 0.59335 -0.44260
vt 0.20564 -0.44263
vt 0.49707 -0.47725
vt 0.37926 -0.49037
vt 0.26322 -0.47607
vt -0.19841 -0.10444
vt -0.61085 -0.46338
vt -0.60101 -0.07720
vt -0.19841 -0.46186
vt -0.50493 -0.50150
vt -0.38428 -0.51494
vt -0.26433 -0.50015
vt -0.23990 -0.49969
vt -0.61791 -0.46863
vt -0.21949 -0.47416
vt -0.63776 -0.43979
vt -0.03268 -0.08888
vt -0.09316 -0.44833
vt -0.12505 -0.46057
vt -0.05854 -0.06528
vt 0.59589 0.02390
vt 0.49886 0.00056
vt 0.50363 -0.02992
vt 0.61684 -0.00269
vt 0.38080 -0.00567
vt 0.38082 -0.03640
vt 0.26516 0.00896
vt 0.25868 -0.02095
vt 0.20839 0.03631
vt 0.18820 0.01301
vt -0.56738 -0.44263
vt -0.56738 -0.10382
vt -0.53933 -0.45686
vt -0.53933 -0.08703
vt 0.20246 -0.54458
vt 0.62178 -0.52734
vt 0.20246 -0.47114
vt 0.62178 -0.45390
vt 0.52734 -0.13857
vt 0.47909 -0.53650
vt 0.45390 -0.13857
vt 0.40565 -0.53650
vt 0.57938 0.47909
vt 0.46327 0.47981
vt 0.46327 0.40637
vt 0.57938 0.40565
vt 0.34004 0.48421
vt 0.34004 0.41077
vt 0.22005 0.49205
vt 0.22005 0.41861
vt 0.52630 0.49205
vt 0.44407 0.50051
vt 0.44407 0.42707
vt 0.52630 0.41861
vt -0.50051 -0.52020
vt -0.54458 -0.15300
vt -0.47114 -0.15300
vt -0.42707 -0.52020
vt 0.17848 -0.24903
vt 0.59809 -0.25659
vt 0.59012 -0.24418
vt 0.18667 -0.23691
vt 0.78051 -0.05571
vt 0.79451 -0.45631
vt 0.76962 -0.06565
vt 0.78311 -0.45173
vt 0.64300 -0.65928
vt 0.53184 -0.69103
vt 0.63476 -0.65040
vt 0.52996 -0.68034
vt 0.40974 -0.70481
vt 0.40975 -0.69390
vt 0.28686 -0.69888
vt 0.28948 -0.68811
vt 0.21428 -0.67302
vt 0.22255 -0.66426
vt -0.12335 -0.49251
vt -0.18401 -0.12769
vt -0.17096 -0.13430
vt -0.11233 -0.48688
vt -0.20564 -0.10382
vt -0.59335 -0.44260
vt -0.58406 -0.07821
vt -0.20564 -0.44263
vt -0.49707 -0.47725
vt -0.37926 -0.49037
vt -0.26322 -0.47607
vt 0.19841 -0.10444
vt 0.60101 -0.07720
vt 0.61085 -0.46338
vt 0.19841 -0.46186
vt 0.50493 -0.50150
vt 0.38428 -0.51494
vt 0.26433 -0.50015
vt -0.06780 0.92320
vt -0.15985 0.90717
vt -0.06780 0.89146
vt -0.17138 0.87343
vt 0.02203 0.68410
vt 0.20641 0.65201
vt 0.20641 0.68374
vt -0.00075 0.71981
vt -0.10200 0.32946
vt -0.10200 0.21726
vt -0.20400 -0.30396
vt -0.20400 -0.19176
vt 0.14137 -0.46881
vt 0.03779 -0.48684
vt 0.04198 -0.49765
vt 0.14137 -0.48035
vt -0.34000 -1.07033
vt -0.13284 -1.10640
vt -0.33171 -1.06024
vt -0.13284 -1.09486
vt 0.06780 0.92320
vt 0.06780 0.89146
vt 0.15985 0.90717
vt 0.17138 0.87343
vt -0.02203 0.68410
vt -0.20641 0.68374
vt -0.20641 0.65201
vt 0.00075 0.71981
vt 0.10200 0.32946
vt 0.10200 0.21726
vt 0.20400 -0.30396
vt 0.20400 -0.19176
vt -0.14137 -0.46881
vt -0.04198 -0.49765
vt -0.03779 -0.48684
vt -0.14137 -0.48035
vt 0.34000 -1.07033
vt 0.33171 -1.06024
vt 0.13284 -1.10640
vt 0.13284 -1.09486
vt -0.07071 0.59566
vt -0.22567 0.64218
vt -0.07071 0.56197
vt -0.24846 0.61533
vt -0.25804 0.28805
vt -0.44277 0.27030
vt -0.25804 0.15341
vt -0.44277 0.13566
vt -0.15912 -0.28438
vt 0.00000 -0.31620
vt 0.00000 -0.18156
vt -0.15912 -0.14974
vt -0.21329 -0.56946
vt -0.05280 -0.59347
vt -0.20506 -0.55825
vt -0.05280 -0.58103
vt 0.07071 0.59566
vt 0.07071 0.56197
vt 0.22567 0.64218
vt 0.24846 0.61533
vt 0.25804 0.28805
vt 0.25804 0.15341
vt 0.44277 0.27030
vt 0.44277 0.13566
vt 0.15912 -0.28438
vt 0.15912 -0.14974
vt 0.21329 -0.56946
vt 0.20506 -0.55825
vt 0.05280 -0.59347
vt 0.05280 -0.58103
vt -0.35543 0.33334
vt -0.62316 0.30151
vt -0.35543 0.23134
vt -0.62316 0.19951
vt -0.60861 -0.29662
vt -0.30193 -0.33334
vt -0.30193 -0.23134
vt -0.60861 -0.19462
vt 0.35543 0.33334
vt 0.35543 0.23134
vt 0.62316 0.30151
vt 0.62316 0.19951
vt 0.60861 -0.29662
vt 0.30193 -0.23134
vt 0.30193 -0.33334
vt 0.60861 -0.19462
vt -0.19231 -0.62343
vt -0.27321 -0.57397
vt -0.26051 -0.53740
vt -0.16252 -0.59731
vt -0.68441 -0.51995
vt -0.68905 -0.48110
vt -0.70027 -0.52529
vt -0.72751 -0.49406
vt -0.15911 -0.21565
vt -0.29556 -1.04077
vt -0.19749 -0.19466
vt -0.34330 -1.07645
vt -1.05228 -0.74945
vt -0.98028 -0.72365
vt -0.96072 -0.76135
vt -1.07273 -0.80150
vt -0.57466 -0.36376
vt -0.54449 -0.39207
vt -0.51278 -0.24370
vt -0.47756 -0.26220
vt -0.47458 -0.09334
vt -0.43551 -0.09668
vt 0.15671 0.44472
vt 0.03388 0.44992
vt 0.03388 0.37648
vt 0.15671 0.37128
vt -0.19618 0.44992
vt -0.62893 0.43585
vt -0.19618 0.37648
vt -0.62893 0.36241
vt -0.72073 0.43585
vt -0.76635 0.43136
vt -0.72073 0.36241
vt -0.76635 0.35792
vt 0.43136 -0.27737
vt 0.32538 -1.16483
vt 0.35792 -0.27737
vt 0.25194 -1.16483
vt -0.42269 -0.59160
vt -0.44472 -0.40800
vt -0.37128 -0.40800
vt -0.34925 -0.59160
vt -0.05491 -0.01138
vt -0.15497 0.04855
vt -0.06572 -0.02270
vt -0.15955 0.03350
vt -0.58626 0.08045
vt -0.58460 0.06494
vt -0.62440 0.06316
vt -0.61474 0.05127
vt 0.78457 -0.24532
vt 0.77054 -1.13898
vt 0.75673 -1.12583
vt 0.77044 -0.25268
vt 0.69758 -1.17900
vt 0.58382 -1.14565
vt 0.69066 -1.16290
vt 0.59141 -1.13381
vt 0.14384 -0.80492
vt 0.15544 -0.79618
vt 0.06757 -0.68071
vt 0.08122 -0.67531
vt 0.01307 -0.51998
vt 0.02851 -0.51984
vt -0.23158 -0.29439
vt -0.15570 -0.36179
vt -0.64314 -0.23770
vt -0.65999 -0.24627
vt -0.65044 -1.08255
vt 0.14284 -0.36675
vt 0.22903 -0.29019
vt 0.65175 -0.23196
vt 0.68403 -0.24839
vt 0.67405 -1.12158
vt 0.19231 -0.62343
vt 0.26051 -0.53740
vt 0.27321 -0.57397
vt 0.16252 -0.59731
vt 0.68441 -0.51995
vt 0.68905 -0.48110
vt 0.70027 -0.52529
vt 0.72751 -0.49406
vt 0.15911 -0.21565
vt 0.19749 -0.19466
vt 0.29556 -1.04077
vt 0.34330 -1.07645
vt 1.05228 -0.74945
vt 0.96072 -0.76135
vt 0.98028 -0.72365
vt 1.07273 -0.80150
vt 0.54449 -0.39207
vt 0.57466 -0.36376
vt 0.47756 -0.26220
vt 0.51278 -0.24370
vt 0.47458 -0.09334
vt 0.43551 -0.09668
vt -0.15671 0.44472
vt -0.03388 0.37648
vt -0.03388 0.44992
vt -0.15671 0.37128
vt 0.19618 0.44992
vt 0.19618 0.37648
vt 0.62893 0.43585
vt 0.62893 0.36241
vt 0.72073 0.43585
vt 0.72073 0.36241
vt 0.76635 0.43136
vt 0.76635 0.35792
vt -0.43136 -0.27737
vt -0.35792 -0.27737
vt -0.32538 -1.16483
vt -0.25194 -1.16483
vt 0.42269 -0.59160
vt 0.37128 -0.40800
vt 0.44472 -0.40800
vt 0.34925 -0.59160
vt 0.05491 -0.01138
vt 0.06572 -0.02270
vt 0.15497 0.04855
vt 0.15955 0.03350
vt 0.58626 0.08045
vt 0.58460 0.06494
vt 0.61474 0.05127
vt 0.62440 0.06316
vt -0.78457 -0.24532
vt -0.75673 -1.12583
vt -0.77054 -1.13898
vt -0.77044 -0.25268
vt -0.69758 -1.17900
vt -0.69066 -1.16290
vt -0.58382 -1.14565
vt -0.59141 -1.13381
vt -0.15544 -0.79618
vt -0.14384 -0.80492
vt -0.08122 -0.67531
vt -0.06757 -0.68071
vt -0.02851 -0.51984
vt -0.01307 -0.51998
vt 0.15570 -0.36179
vt 0.23158 -0.29439
vt 0.64314 -0.23770
vt 0.65999 -0.24627
vt 0.65044 -1.08255
vt -0.22903 -0.29019
vt -0.14284 -0.36675
vt -0.65175 -0.23196
vt -0.68403 -0.24839
vt -0.67405 -1.12158
vt -0.23752 -0.62318
vt -0.61600 -0.59208
vt -0.21712 -0.59764
vt -0.63538 -0.56327
vt -0.05733 -0.28486
vt -0.08744 -0.46214
vt -0.11937 -0.47469
vt -0.08320 -0.26170
vt -0.59564 -0.02382
vt -0.49893 -0.00057
vt -0.50370 0.02991
vt -0.61691 0.00268
vt -0.38087 0.00567
vt -0.38089 0.03640
vt -0.26523 -0.00897
vt -0.25875 0.02094
vt -0.20845 -0.03632
vt -0.18826 -0.01302
vt -0.56738 -0.28873
vt -0.53933 -0.27194
vt -0.18907 0.52255
vt -0.60838 0.50531
vt -0.18907 0.44911
vt -0.60838 0.43187
vt 0.50531 -0.33573
vt 0.47909 -0.55018
vt 0.43187 -0.33573
vt 0.40565 -0.55018
vt -0.57938 -0.47909
vt -0.46327 -0.47981
vt -0.46327 -0.40637
vt -0.57938 -0.40565
vt -0.34004 -0.48421
vt -0.34004 -0.41077
vt -0.22005 -0.49205
vt -0.22005 -0.41861
vt -0.52630 -0.49205
vt -0.44407 -0.50051
vt -0.44407 -0.42707
vt -0.52630 -0.41861
vt -0.52255 -0.33660
vt -0.44911 -0.33660
vt -0.16850 0.11017
vt -0.58810 0.11773
vt -0.58033 0.10533
vt -0.17669 0.09805
vt 0.78733 -0.23042
vt 0.80130 -0.44601
vt 0.77671 -0.24051
vt 0.78975 -0.44164
vt 0.63464 -0.65044
vt -0.15368 -0.31010
vt -0.14063 -0.31671
vt -0.20564 -0.28873
vt -0.59303 -0.44272
vt -0.58453 -0.26310
vt 0.19841 -0.28935
vt 0.60119 -0.26210
vt 0.61072 -0.46343
vt 0.23752 -0.62318
vt 0.21712 -0.59764
vt 0.61600 -0.59208
vt 0.63538 -0.56327
vt 0.05733 -0.28486
vt 0.11937 -0.47469
vt 0.08744 -0.46214
vt 0.08320 -0.26170
vt 0.59564 -0.02382
vt 0.50370 0.02991
vt 0.49893 -0.00057
vt 0.61691 0.00268
vt 0.38089 0.03640
vt 0.38087 0.00567
vt 0.25875 0.02094
vt 0.26523 -0.00897
vt 0.20845 -0.03632
vt 0.18826 -0.01302
vt 0.56738 -0.28873
vt 0.53933 -0.27194
vt 0.18907 0.52255
vt 0.18907 0.44911
vt 0.60838 0.50531
vt 0.60838 0.43187
vt -0.50531 -0.33573
vt -0.43187 -0.33573
vt -0.47909 -0.55018
vt -0.40565 -0.55018
vt 0.57938 -0.47909
vt 0.46327 -0.40637
vt 0.46327 -0.47981
vt 0.57938 -0.40565
vt 0.34004 -0.41077
vt 0.34004 -0.48421
vt 0.22005 -0.41861
vt 0.22005 -0.49205
vt 0.52630 -0.49205
vt 0.44407 -0.42707
vt 0.44407 -0.50051
vt 0.52630 -0.41861
vt 0.44911 -0.33660
vt 0.52255 -0.33660
vt 0.16850 0.11017
vt 0.58033 0.10533
vt 0.58810 0.11773
vt 0.17669 0.09805
vt -0.78733 -0.23042
vt -0.77671 -0.24051
vt -0.80130 -0.44601
vt -0.78975 -0.44164
vt -0.63464 -0.65044
vt 0.14063 -0.31671
vt 0.15368 -0.31010
vt 0.20564 -0.28873
vt 0.58453 -0.26310
vt 0.59303 -0.44272
vt -0.19841 -0.28935
vt -0.61072 -0.46343
vt -0.60119 -0.26210
vt -0.39583 -0.35842
vt -0.49728 -0.19434
vt -0.46519 -0.17201
vt -0.35477 -0.35061
vt 0.01362 -0.71428
vt -0.28865 -0.67572
vt -0.28865 -0.63895
vt 0.03309 -0.68000
vt 0.94089 -0.09976
vt 0.82912 -1.11588
vt 0.91749 -0.07140
vt 0.79968 -1.14240
vt 0.10457 0.22799
vt 0.19336 -0.09892
vt 0.14392 0.23269
vt 0.23934 -0.11865
vt -0.35219 -1.10186
vt -0.30917 -1.12729
vt -0.80335 -0.51012
vt -0.84599 -0.29495
vt -0.73175 -0.29495
vt -0.68911 -0.51012
vt -0.84599 0.31308
vt -0.91749 -0.00329
vt -0.80325 -0.00329
vt -0.73175 0.31308
vt 0.80325 -0.07140
vt 0.68544 -1.14240
vt -0.79968 0.03060
vt -0.72828 -0.32640
vt -0.68544 0.03060
vt -0.61404 -0.32640
vt -0.72828 -1.11851
vt -0.80335 -0.34163
vt -0.68911 -0.34163
vt -0.61404 -1.11851
vt -0.74792 -0.24594
vt -0.66511 -0.05778
vt -0.65259 -0.06957
vt -0.73229 -0.25067
vt -0.43324 0.28922
vt -0.53170 -0.01982
vt -0.51286 -0.01790
vt -0.41716 0.28251
vt 0.78957 -0.08449
vt 0.67455 -1.13016
vt -0.00630 -1.30907
vt -0.36727 -1.26160
vt -0.35568 -1.24674
vt -0.00630 -1.29268
vt -0.74131 -1.02272
vt -0.72581 -1.01210
vt -0.21450 -1.01853
vt 0.17394 -0.28036
vt 0.12417 -1.02580
vt -0.21450 0.00371
vt 0.06884 -0.10841
vt 0.18485 -1.04963
vt -0.16746 -1.05719
vt -0.21843 -0.29380
vt 0.18485 0.00235
vt -0.10832 -0.11367
vt 0.06399 -0.69881
vt -0.25070 -0.65743
vt 0.06399 -0.66331
vt -0.26603 -0.61991
vt 0.44449 -0.07550
vt 0.35319 -0.22257
vt 0.41551 -0.04805
vt 0.31220 -0.21445
vt 0.29141 -1.08928
vt 0.24808 -1.11413
vt 0.20330 0.16924
vt 0.11177 -0.16776
vt 0.15112 -0.17246
vt 0.24926 0.18892
vt -0.82912 -1.11588
vt -0.94109 -0.09792
vt -0.91749 -0.07140
vt -0.79968 -1.14240
vt -0.91749 -0.03060
vt -0.85221 -0.35700
vt -0.80325 -0.03060
vt -0.73797 -0.35700
vt 0.85221 -0.24255
vt 0.81274 -0.44372
vt 0.73797 -0.24255
vt 0.69850 -0.44372
vt 0.81274 -0.21301
vt 0.72624 -1.11269
vt 0.69850 -0.21301
vt 0.61200 -1.11269
vt -0.72624 0.39780
vt -0.61200 0.39780
vt -0.80325 -0.07140
vt -0.68544 -1.14240
vt -0.55082 -0.01745
vt -0.46357 -0.33868
vt -0.44729 -0.32962
vt -0.53266 -0.01528
vt 0.73356 0.03558
vt 0.80599 -0.14170
vt 0.72174 0.02171
vt 0.79029 -0.14606
vt 0.78389 -1.04240
vt 0.76857 -1.03153
vt 0.43811 -1.26024
vt 0.06683 -1.30907
vt 0.42655 -1.24538
vt 0.06683 -1.29268
vt -0.78966 -0.08364
vt -0.67455 -1.13016
vt -0.25476 -0.15739
vt 0.15447 -1.01853
vt -0.19465 -1.02602
vt 0.15447 0.00557
vt -0.16285 -0.00124
vt 0.29925 -0.17099
vt 0.23791 -1.05741
vt -0.12482 -1.04963
vt -0.12482 0.00320
vt 0.20083 -0.00378
vt 0.39583 -0.35842
vt 0.46519 -0.17201
vt 0.49728 -0.19434
vt 0.35477 -0.35061
vt -0.01362 -0.71428
vt 0.28865 -0.63895
vt 0.28865 -0.67572
vt -0.03309 -0.68000
vt -0.94089 -0.09976
vt -0.10457 0.22799
vt -0.14392 0.23269
vt -0.19336 -0.09892
vt -0.23934 -0.11865
vt 0.35219 -1.10186
vt 0.30917 -1.12729
vt 0.80335 -0.51012
vt 0.73175 -0.29495
vt 0.84599 -0.29495
vt 0.68911 -0.51012
vt 0.84599 0.31308
vt 0.80325 -0.00329
vt 0.91749 -0.00329
vt 0.73175 0.31308
vt 0.79968 0.03060
vt 0.68544 0.03060
vt 0.72828 -0.32640
vt 0.61404 -0.32640
vt 0.72828 -1.11851
vt 0.68911 -0.34163
vt 0.80335 -0.34163
vt 0.61404 -1.11851
vt 0.74792 -0.24594
vt 0.65259 -0.06957
vt 0.66511 -0.05778
vt 0.73229 -0.25067
vt 0.43324 0.28922
vt 0.51286 -0.01790
vt 0.53170 -0.01982
vt 0.41716 0.28251
vt -0.78957 -0.08449
vt 0.00630 -1.30907
vt 0.35568 -1.24674
vt 0.36727 -1.26160
vt 0.00630 -1.29268
vt 0.74131 -1.02272
vt 0.72581 -1.01210
vt 0.21450 -1.01853
vt -0.12417 -1.02580
vt -0.17394 -0.28036
vt 0.21450 0.00371
vt -0.06884 -0.10841
vt -0.18485 -1.04963
vt 0.21843 -0.29380
vt 0.16746 -1.05719
vt -0.18485 0.00235
vt 0.10832 -0.11367
vt -0.06399 -0.69881
vt -0.06399 -0.66331
vt 0.25070 -0.65743
vt 0.26603 -0.61991
vt -0.44449 -0.07550
vt -0.41551 -0.04805
vt -0.35319 -0.22257
vt -0.31220 -0.21445
vt -0.29141 -1.08928
vt -0.24808 -1.11413
vt -0.20330 0.16924
vt -0.15112 -0.17246
vt -0.11177 -0.16776
vt -0.24926 0.18892
vt 0.94109 -0.09792
vt 0.91749 -0.03060
vt 0.80325 -0.03060
vt 0.85221 -0.35700
vt 0.73797 -0.35700
vt -0.85221 -0.24255
vt -0.73797 -0.24255
vt -0.81274 -0.44372
vt -0.69850 -0.44372
vt -0.81274 -0.21301
vt -0.69850 -0.21301
vt -0.72624 -1.11269
vt -0.61200 -1.11269
vt 0.72624 0.39780
vt 0.61200 0.39780
vt 0.55082 -0.01745
vt 0.44729 -0.32962
vt 0.46357 -0.33868
vt 0.53266 -0.01528
vt -0.73356 0.03558
vt -0.72174 0.02171
vt -0.80599 -0.14170
vt -0.79029 -0.14606
vt -0.76857 -1.03153
vt -0.78389 -1.04240
vt -0.43811 -1.26024
vt -0.42655 -1.24538
vt -0.06683 -1.30907
vt -0.06683 -1.29268
vt 0.78966 -0.08364
vt 0.25476 -0.15739
vt 0.19465 -1.02602
vt -0.15447 -1.01853
vt -0.15447 0.00557
vt 0.16285 -0.00124
vt -0.29925 -0.17099
vt 0.12482 -1.04963
vt -0.23791 -1.05741
vt 0.12482 0.00320
vt -0.20083 -0.00378
vn 0.1741 -0.6963 0.6963
vn 0.6723 -0.3773 0.6369
vn 0.7338 -0.2167 0.6439
vn 0.7654 -0.0932 0.6368
vn 0.7809 -0.0000 0.6247
vn 0.1741 0.6963 0.6963
vn -1.0000 0.0000 0.0000
vn 0.0000 -1.0000 0.0000
vn 0.8057 -0.5924 0.0000
vn 1.0000 0.0000 0.0000
vn 0.0000 1.0000 0.0000
vn -0.1741 -0.6963 -0.6963
vn 0.4313 -0.4598 -0.7762
vn 0.5502 -0.1847 -0.8144
vn 0.6000 -0.0000 -0.8000
vn -0.1741 0.6963 -0.6963
vn 0.2425 0.0000 0.9701
vn -0.2425 0.0000 -0.9701
vn -0.1741 -0.6963 0.6963
vn -0.6723 -0.3773 0.6369
vn -0.7338 -0.2167 0.6439
vn -0.7654 -0.0932 0.6368
vn -0.7809 -0.0000 0.6247
vn -0.1741 0.6963 0.6963
vn -0.8057 -0.5924 0.0000
vn 0.1741 -0.6963 -0.6963
vn -0.4313 -0.4598 -0.7762
vn -0.5502 -0.1847 -0.8144
vn -0.6000 0.0000 -0.8000
vn 0.1741 0.6963 -0.6963
vn -0.2425 0.0000 0.9701
vn 0.2425 0.0000 -0.9701
vn 0.4456 -0.6366 0.6294
vn 0.7647 -0.0956 0.6373
vn 0.1506 0.6403 0.7532
vn 0.5080 -0.8614 0.0000
vn 0.2434 -0.5622 -0.7903
vn 0.6205 0.1163 -0.7756
vn -0.1301 0.7482 -0.6506
vn 0.1940 -0.1455 0.9701
vn -0.1940 0.1455 -0.9701
vn -0.4456 -0.6366 0.6294
vn -0.7647 -0.0956 0.6373
vn -0.1506 0.6403 0.7532
vn -0.5080 -0.8614 0.0000
vn -0.2434 -0.5622 -0.7903
vn -0.6205 0.1163 -0.7756
vn 0.1301 0.7482 -0.6506
vn -0.1940 -0.1455 0.9701
vn 0.1940 0.1455 -0.9701
vn 0.1797 -0.6923 0.6989
vn 0.6398 -0.3728 0.6721
vn 0.7218 0.1833 0.6674
vn 0.0378 0.7058 0.7074
vn -0.6606 0.0000 0.7507
vn 0.1372 -0.9905 0.0000
vn 0.8321 -0.5547 0.0000
vn 0.9615 0.2747 0.0000
vn -0.0665 0.9978 0.0000
vn 0.0122 -0.7037 -0.7104
vn 0.5286 -0.4118 -0.7423
vn 0.6301 0.2057 -0.7488
vn -0.1309 0.7002 -0.7018
vn -0.7459 0.0000 -0.6660
vn 0.1191 -0.0000 0.9929
vn -0.1191 -0.0000 -0.9929
vn -0.1797 -0.6923 0.6989
vn -0.6398 -0.3728 0.6721
vn -0.7218 0.1833 0.6674
vn -0.0378 0.7058 0.7074
vn 0.6606 0.0000 0.7507
vn -0.1372 -0.9905 0.0000
vn -0.8321 -0.5547 0.0000
vn -0.9615 0.2747 0.0000
vn 0.0665 0.9978 0.0000
vn -0.0122 -0.7037 -0.7104
vn -0.5286 -0.4118 -0.7423
vn -0.6301 0.2057 -0.7488
vn 0.1309 0.7002 -0.7018
vn 0.7459 0.0000 -0.6660
vn -0.1191 -0.0000 0.9929
vn 0.1191 -0.0000 -0.9929
vn -0.6749 -0.0553 0.7358
vn -0.6748 -0.0563 0.7359
vn -0.6591 -0.1525 0.7364
vn -0.0688 -0.6548 0.7527
vn -0.0374 -0.6529 0.7565
vn -0.0493 -0.6537 0.7551
vn 0.3659 -0.5698 0.7358
vn 0.7213 0.0890 0.6869
vn -0.1790 0.7184 0.6722
vn -0.3839 0.6128 0.6907
vn -0.4398 0.5758 0.6892
vn -0.4831 0.5330 0.6946
vn -0.5290 0.4731 0.7045
vn -0.6651 0.2062 0.7178
vn -0.6778 0.1415 0.7215
vn -0.9685 -0.2490 0.0000
vn -0.9450 -0.3271 0.0000
vn -0.9896 -0.1437 0.0000
vn -0.1414 -0.9899 0.0000
vn 0.4472 -0.8944 0.0000
vn 1.0000 0.0095 0.0000
vn -0.3162 0.9487 0.0000
vn -0.6041 0.7969 0.0000
vn -0.6817 0.7316 0.0000
vn -0.7546 0.6562 0.0000
vn -0.8244 0.5660 0.0000
vn -0.9852 0.1713 0.0000
vn -0.9968 0.0797 0.0000
vn -0.6877 -0.2493 -0.6818
vn -0.6724 -0.3021 -0.6758
vn -0.7048 -0.1786 -0.6866
vn -0.1271 -0.7369 -0.6639
vn -0.0938 -0.7372 -0.6692
vn -0.0971 -0.7372 -0.6687
vn 0.2686 -0.6860 -0.6762
vn 0.6865 -0.0798 -0.7227
vn -0.2714 0.6141 -0.7411
vn -0.5078 0.4554 -0.7312
vn -0.5103 0.4534 -0.7308
vn -0.5748 0.3826 -0.7234
vn -0.6156 0.3123 -0.7235
vn -0.7158 0.0349 -0.6975
vn -0.7202 -0.0280 -0.6932
vn 0.0496 0.1190 0.9917
vn -0.0496 -0.1190 -0.9917
vn 0.6749 -0.0553 0.7358
vn 0.6591 -0.1525 0.7364
vn 0.6748 -0.0563 0.7359
vn 0.0688 -0.6548 0.7527
vn 0.0493 -0.6537 0.7551
vn 0.0374 -0.6529 0.7565
vn -0.3659 -0.5698 0.7358
vn -0.7213 0.0890 0.6869
vn 0.1790 0.7184 0.6722
vn 0.4398 0.5758 0.6892
vn 0.3839 0.6128 0.6907
vn 0.5290 0.4731 0.7045
vn 0.4831 0.5330 0.6946
vn 0.6778 0.1415 0.7215
vn 0.6651 0.2062 0.7178
vn 0.9685 -0.2490 0.0000
vn 0.9450 -0.3271 0.0000
vn 0.9896 -0.1437 0.0000
vn 0.1414 -0.9899 0.0000
vn -0.4472 -0.8944 0.0000
vn -1.0000 0.0095 0.0000
vn 0.3162 0.9487 0.0000
vn 0.6817 0.7316 0.0000
vn 0.6041 0.7969 0.0000
vn 0.8244 0.5660 0.0000
vn 0.7546 0.6562 0.0000
vn 0.9968 0.0797 0.0000
vn 0.9852 0.1713 0.0000
vn 0.6877 -0.2493 -0.6818
vn 0.6724 -0.3021 -0.6758
vn 0.7048 -0.1786 -0.6866
vn 0.1271 -0.7369 -0.6639
vn 0.0938 -0.7372 -0.6692
vn 0.0971 -0.7372 -0.6687
vn -0.2686 -0.6860 -0.6762
vn -0.6865 -0.0798 -0.7227
vn 0.2714 0.6141 -0.7411
vn 0.5078 0.4554 -0.7312
vn 0.5103 0.4534 -0.7308
vn 0.6156 0.3123 -0.7235
vn 0.5748 0.3826 -0.7234
vn 0.7202 -0.0280 -0.6932
vn 0.7158 0.0349 -0.6975
vn -0.0496 0.1190 0.9917
vn 0.0496 -0.1190 -0.9917
vn -0.0173 -0.6594 0.7516
vn 0.7225 0.0650 0.6883
vn 0.2596 0.7024 0.6628
vn 0.2069 0.7175 0.6651
vn 0.1551 0.7302 0.6654
vn 0.0585 0.7427 0.6671
vn 0.0072 0.7439 0.6682
vn -0.1431 0.7217 0.6773
vn -0.1378 0.7230 0.6770
vn -0.3025 0.6700 0.6780
vn -0.6862 0.0867 0.7223
vn -0.0730 -0.9973 0.0000
vn 0.9997 -0.0256 0.0000
vn 0.3417 0.9398 0.0000
vn 0.2665 0.9638 0.0000
vn 0.1907 0.9816 0.0000
vn 0.0389 0.9992 0.0000
vn -0.0389 0.9992 0.0000
vn -0.2143 0.9768 0.0000
vn -0.3400 0.9404 0.0000
vn -0.4961 0.8682 0.0000
vn -0.0817 -0.7427 -0.6647
vn 0.6848 -0.1050 -0.7211
vn 0.2201 0.6184 -0.7544
vn 0.1330 0.6407 -0.7562
vn 0.1320 0.6409 -0.7562
vn -0.0080 0.6577 -0.7532
vn -0.0662 0.6563 -0.7516
vn -0.1921 0.6328 -0.7501
vn -0.2838 0.6004 -0.7477
vn -0.4006 0.5489 -0.7336
vn -0.7217 -0.0825 -0.6873
vn 0.0173 -0.6594 0.7516
vn -0.7225 0.0650 0.6883
vn -0.2596 0.7024 0.6628
vn -0.1551 0.7302 0.6654
vn -0.2069 0.7175 0.6651
vn -0.0072 0.7439 0.6682
vn -0.0585 0.7427 0.6671
vn 0.1378 0.7230 0.6770
vn 0.1431 0.7217 0.6773
vn 0.3025 0.6700 0.6780
vn 0.6862 0.0867 0.7223
vn 0.0730 -0.9973 0.0000
vn -0.9997 -0.0256 0.0000
vn -0.3417 0.9398 0.0000
vn -0.1907 0.9816 0.0000
vn -0.2665 0.9638 0.0000
vn 0.3400 0.9404 0.0000
vn 0.2143 0.9768 0.0000
vn 0.4961 0.8682 0.0000
vn 0.0817 -0.7427 -0.6647
vn -0.6848 -0.1050 -0.7211
vn -0.2201 0.6184 -0.7544
vn -0.1330 0.6407 -0.7562
vn -0.1320 0.6409 -0.7562
vn 0.0662 0.6563 -0.7516
vn 0.0080 0.6577 -0.7532
vn 0.2838 0.6004 -0.7477
vn 0.1921 0.6328 -0.7501
vn 0.4006 0.5489 -0.7336
vn 0.7217 -0.0825 -0.6873
vn 0.6723 -0.3773 -0.6369
vn 0.7338 -0.2167 -0.6439
vn 0.7654 -0.0932 -0.6368
vn 0.7809 -0.0000 -0.6247
vn 0.4313 -0.4598 0.7762
vn 0.5502 -0.1847 0.8144
vn 0.6000 0.0000 0.8000
vn -0.6723 -0.3773 -0.6369
vn -0.7338 -0.2167 -0.6439
vn -0.7654 -0.0932 -0.6368
vn -0.7809 -0.0000 -0.6247
vn -0.4313 -0.4598 0.7762
vn -0.5502 -0.1847 0.8144
vn -0.6000 -0.0000 0.8000
vn 0.4456 -0.6366 -0.6294
vn 0.7647 -0.0956 -0.6373
vn 0.1506 0.6403 -0.7532
vn 0.2434 -0.5622 0.7903
vn 0.6205 0.1163 0.7756
vn -0.1301 0.7482 0.6506
vn 0.1940 -0.1455 -0.9701
vn -0.1940 0.1455 0.9701
vn -0.4456 -0.6366 -0.6294
vn -0.7647 -0.0956 -0.6373
vn -0.1506 0.6403 -0.7532
vn -0.2434 -0.5622 0.7903
vn -0.6205 0.1163 0.7756
vn 0.1301 0.7482 0.6506
vn -0.1940 -0.1455 -0.9701
vn 0.1940 0.1455 0.9701
vn 0.1797 -0.6923 -0.6989
vn 0.6398 -0.3728 -0.6721
vn 0.7218 0.1833 -0.6674
vn 0.0378 0.7058 -0.7074
vn -0.6606 0.0000 -0.7507
vn 0.0122 -0.7037 0.7104
vn 0.5286 -0.4118 0.7423
vn 0.6301 0.2057 0.7488
vn -0.1309 0.7002 0.7018
vn -0.7459 0.0000 0.6660
vn -0.1797 -0.6923 -0.6989
vn -0.6398 -0.3728 -0.6721
vn -0.7218 0.1833 -0.6674
vn -0.0378 0.7058 -0.7074
vn 0.6606 0.0000 -0.7507
vn -0.0122 -0.7037 0.7104
vn -0.5286 -0.4118 0.7423
vn -0.6301 0.2057 0.7488
vn 0.1309 0.7002 0.7018
vn 0.7459 0.0000 0.6660
vn -0.4616 -0.4714 -0.7514
vn -0.1482 -0.6281 -0.7638
vn -0.1535 -0.6262 -0.7644
vn -0.0593 -0.6543 -0.7539
vn -0.0115 -0.6509 -0.7590
vn 0.3659 -0.5698 -0.7358
vn 0.7212 0.0903 -0.6869
vn -0.1790 0.7184 -0.6722
vn -0.4398 0.5758 -0.6892
vn -0.3839 0.6128 -0.6907
vn -0.5290 0.4731 -0.7045
vn -0.4831 0.5330 -0.6946
vn -0.6714 0.1757 -0.7199
vn -0.6715 0.1753 -0.7200
vn -0.6862 0.0867 -0.7223
vn -0.6644 -0.7474 0.0000
vn 0.9999 0.0115 0.0000
vn -0.4749 -0.5766 0.6648
vn -0.2547 -0.6918 0.6757
vn -0.1695 -0.7235 0.6692
vn -0.0939 -0.7372 0.6691
vn -0.0973 -0.7372 0.6686
vn 0.2686 -0.6860 0.6762
vn 0.6866 -0.0784 0.7228
vn -0.2714 0.6141 0.7411
vn -0.5078 0.4554 0.7312
vn -0.5103 0.4534 0.7308
vn -0.6156 0.3123 0.7235
vn -0.5748 0.3826 0.7234
vn -0.7202 -0.0277 0.6933
vn -0.7157 0.0356 0.6975
vn -0.7217 -0.0825 0.6873
vn 0.0496 0.1190 -0.9917
vn -0.0496 -0.1190 0.9917
vn 0.4616 -0.4714 -0.7514
vn 0.1535 -0.6262 -0.7644
vn 0.1482 -0.6281 -0.7638
vn 0.0593 -0.6543 -0.7539
vn 0.0115 -0.6509 -0.7590
vn -0.3659 -0.5698 -0.7358
vn -0.7212 0.0903 -0.6869
vn 0.1790 0.7184 -0.6722
vn 0.3839 0.6128 -0.6907
vn 0.4398 0.5758 -0.6892
vn 0.4831 0.5330 -0.6946
vn 0.5290 0.4731 -0.7045
vn 0.6715 0.1753 -0.7200
vn 0.6714 0.1757 -0.7199
vn 0.6862 0.0867 -0.7223
vn 0.6644 -0.7474 0.0000
vn -0.9999 0.0115 0.0000
vn 0.4749 -0.5766 0.6648
vn 0.2547 -0.6918 0.6757
vn 0.1695 -0.7235 0.6692
vn 0.0939 -0.7372 0.6691
vn 0.0973 -0.7372 0.6686
vn -0.2686 -0.6860 0.6762
vn -0.6866 -0.0784 0.7228
vn 0.2714 0.6141 0.7411
vn 0.5078 0.4554 0.7312
vn 0.5103 0.4534 0.7308
vn 0.5748 0.3826 0.7234
vn 0.6156 0.3123 0.7235
vn 0.7157 0.0356 0.6975
vn 0.7202 -0.0277 0.6933
vn 0.7217 -0.0825 0.6873
vn -0.0496 0.1190 -0.9917
vn 0.0496 -0.1190 0.9917
vn -0.0173 -0.6594 -0.7516
vn 0.7229 0.0499 -0.6892
vn 0.2596 0.7024 -0.6628
vn 0.1550 0.7302 -0.6654
vn 0.2068 0.7176 -0.6651
vn 0.0072 0.7439 -0.6682
vn 0.0585 0.7427 -0.6671
vn -0.1378 0.7230 -0.6770
vn -0.1431 0.7217 -0.6773
vn -0.3025 0.6700 -0.6780
vn 0.9989 -0.0476 0.0000
vn -0.0817 -0.7427 0.6647
vn 0.6833 -0.1207 0.7201
vn 0.2201 0.6184 0.7544
vn 0.1329 0.6407 0.7562
vn 0.1320 0.6409 0.7562
vn -0.0662 0.6563 0.7516
vn -0.0080 0.6577 0.7532
vn -0.2838 0.6004 0.7477
vn -0.1921 0.6328 0.7501
vn -0.4006 0.5489 0.7336
vn 0.0173 -0.6594 -0.7516
vn -0.7229 0.0499 -0.6892
vn -0.2596 0.7024 -0.6628
vn -0.2068 0.7176 -0.6651
vn -0.1550 0.7302 -0.6654
vn -0.0585 0.7427 -0.6671
vn -0.0072 0.7439 -0.6682
vn 0.1431 0.7217 -0.6773
vn 0.1378 0.7230 -0.6770
vn 0.3025 0.6700 -0.6780
vn -0.9989 -0.0476 0.0000
vn 0.0817 -0.7427 0.6647
vn -0.6833 -0.1207 0.7201
vn -0.2201 0.6184 0.7544
vn -0.1329 0.6407 0.7562
vn -0.1320 0.6409 0.7562
vn 0.0080 0.6577 0.7532
vn 0.0662 0.6563 0.7516
vn 0.1921 0.6328 0.7501
vn 0.2838 0.6004 0.7477
vn 0.4006 0.5489 0.7336
vn 0.6572 -0.0223 -0.7534
vn 0.7104 -0.5145 -0.4803
vn 0.6985 -0.4127 -0.5846
vn 0.6451 0.0664 -0.7612
vn 0.7092 -0.5851 -0.3934
vn 0.0000 0.0000 1.0000
vn 0.6634 0.7364 -0.1327
vn 0.6368 0.1119 -0.7628
vn 0.0000 -0.5215 -0.8533
vn 0.0000 -0.9350 -0.3547
vn 0.0000 0.0656 -0.9978
vn -0.7864 -0.1343 -0.6029
vn -0.7140 -0.6704 -0.2017
vn -0.7361 -0.5931 -0.3262
vn -0.7864 -0.1336 -0.6031
vn -0.6875 -0.7184 -0.1063
vn -0.7388 0.6575 0.1478
vn -0.7812 -0.0346 -0.6233
vn 0.9749 0.1072 -0.1950
vn -0.9749 -0.1072 0.1950
vn 0.7388 -0.6575 0.1478
vn 0.6615 -0.2626 0.7025
vn 0.6541 0.0020 0.7564
vn 0.6434 0.0767 0.7617
vn 0.6368 0.1134 0.7627
vn 0.6634 0.7364 0.1327
vn 0.0000 0.0000 -1.0000
vn 0.0000 -0.5070 0.8619
vn 0.0000 0.0680 0.9977
vn -0.6634 -0.7364 -0.1327
vn -0.7415 -0.4575 0.4908
vn -0.7859 -0.1143 0.6077
vn -0.7859 -0.1130 0.6080
vn -0.7813 -0.0328 0.6233
vn -0.7388 0.6575 -0.1478
vn 0.9749 0.1072 0.1950
vn -0.9749 -0.1072 -0.1950
vn -0.6572 -0.0223 -0.7534
vn -0.6985 -0.4127 -0.5846
vn -0.7104 -0.5145 -0.4803
vn -0.6451 0.0664 -0.7612
vn -0.7092 -0.5851 -0.3934
vn -0.6634 0.7364 -0.1327
vn -0.6368 0.1119 -0.7628
vn 0.7864 -0.1343 -0.6029
vn 0.7361 -0.5931 -0.3262
vn 0.7140 -0.6704 -0.2017
vn 0.7864 -0.1336 -0.6031
vn 0.6875 -0.7184 -0.1063
vn 0.7388 0.6575 0.1478
vn 0.7812 -0.0346 -0.6233
vn -0.9749 0.1072 -0.1950
vn 0.9749 -0.1072 0.1950
vn -0.7388 -0.6575 0.1478
vn -0.6615 -0.2626 0.7025
vn -0.6541 0.0020 0.7564
vn -0.6434 0.0767 0.7617
vn -0.6368 0.1134 0.7627
vn -0.6634 0.7364 0.1327
vn 0.6634 -0.7364 -0.1327
vn 0.7415 -0.4575 0.4908
vn 0.7859 -0.1143 0.6077
vn 0.7859 -0.1130 0.6080
vn 0.7813 -0.0328 0.6233
vn 0.7388 0.6575 -0.1478
vn -0.9749 0.1072 0.1950
vn 0.9749 -0.1072 -0.1950
s off
f 1/1/1 6/2/1 2/3/1
f 2/3/1 6/2/1 7/4/1
f 2/5/2 7/6/2 3/7/3
f 3/7/3 7/6/2 8/8/4
f 3/7/3 8/8/4 4/9/5
f 4/9/5 8/8/4 9/10/5
f 4/11/6 10/12/6 5/13/6
f 4/11/6 9/14/6 10/12/6
f 5/15/7 6/16/7 1/17/7
f 5/15/7 10/18/7 6/16/7
f 6/19/8 11/20/8 7/21/8
f 7/21/8 11/20/8 12/22/8
f 7/23/9 12/24/9 8/25/9
f 8/25/9 12/24/9 13/26/9
f 8/27/10 14/28/10 9/29/10
f 8/27/10 13/30/10 14/28/10
f 9/31/11 15/32/11 10/33/11
f 9/31/11 14/34/11 15/32/11
f 10/18/7 11/35/7 6/16/7
f 10/18/7 15/36/7 11/35/7
f 11/37/12 17/38/12 12/39/12
f 11/37/12 16/40/12 17/38/12
f 12/41/13 17/42/13 13/43/14
f 13/43/14 17/42/13 18/44/14
f 13/43/14 19/45/15 14/46/15
f 13/43/14 18/44/14 19/45/15
f 14/47/16 19/48/16 15/49/16
f 15/49/16 19/48/16 20/50/16
f 15/36/7 20/51/7 11/35/7
f 11/35/7 20/51/7 16/52/7
f 3/53/17 4/54/17 5/55/17
f 3/53/17 5/55/17 1/56/17
f 1/56/17 2/57/17 3/53/17
f 18/58/18 20/59/18 19/60/18
f 18/58/18 16/61/18 20/59/18
f 16/61/18 18/58/18 17/62/18
f 21/63/19 22/64/19 26/65/19
f 22/64/19 27/66/19 26/65/19
f 22/67/20 23/68/21 27/69/20
f 23/68/21 28/70/22 27/69/20
f 23/68/21 24/71/23 28/70/22
f 24/71/23 29/72/23 28/70/22
f 24/73/24 25/74/24 30/75/24
f 24/73/24 30/75/24 29/76/24
f 25/77/10 21/78/10 26/79/10
f 25/77/10 26/79/10 30/80/10
f 26/19/8 27/81/8 31/20/8
f 27/81/8 32/82/8 31/20/8
f 27/83/25 28/84/25 32/85/25
f 28/84/25 33/86/25 32/85/25
f 28/87/7 29/88/7 34/89/7
f 28/87/7 34/89/7 33/90/7
f 29/91/11 30/33/11 35/32/11
f 29/91/11 35/32/11 34/92/11
f 30/80/10 26/79/10 31/93/10
f 30/80/10 31/93/10 35/94/10
f 31/95/26 32/96/26 37/97/26
f 31/95/26 37/97/26 36/98/26
f 32/99/27 33/100/28 37/101/27
f 33/100/28 38/102/28 37/101/27
f 33/100/28 34/103/29 39/104/29
f 33/100/28 39/104/29 38/102/28
f 34/105/30 35/106/30 39/107/30
f 35/106/30 40/108/30 39/107/30
f 35/94/10 31/93/10 40/109/10
f 31/93/10 36/110/10 40/109/10
f 23/111/31 25/112/31 24/113/31
f 23/111/31 21/114/31 25/112/31
f 21/114/31 23/111/31 22/115/31
f 38/116/32 39/117/32 40/118/32
f 38/116/32 40/118/32 36/119/32
f 36/119/32 37/120/32 38/116/32
f 41/121/33 45/122/33 42/123/33
f 42/123/33 45/122/33 46/124/33
f 42/125/34 46/126/34 43/127/34
f 43/127/34 46/126/34 47/128/34
f 43/129/35 48/130/35 44/131/35
f 43/129/35 47/132/35 48/130/35
f 44/133/7 48/134/7 41/135/7
f 41/135/7 48/134/7 45/136/7
f 45/137/36 49/138/36 46/139/36
f 46/139/36 49/138/36 50/140/36
f 46/141/10 51/142/10 47/143/10
f 46/141/10 50/144/10 51/142/10
f 47/145/11 52/146/11 48/147/11
f 47/145/11 51/148/11 52/146/11
f 48/134/7 52/149/7 45/136/7
f 45/136/7 52/149/7 49/150/7
f 49/151/37 53/152/37 50/153/37
f 50/153/37 53/152/37 54/154/37
f 50/155/38 55/156/38 51/157/38
f 50/155/38 54/158/38 55/156/38
f 51/159/39 55/160/39 52/161/39
f 52/161/39 55/160/39 56/162/39
f 52/149/7 56/163/7 49/150/7
f 49/150/7 56/163/7 53/164/7
f 44/165/40 41/166/40 42/167/40
f 42/167/40 43/168/40 44/165/40
f 56/169/41 54/170/41 53/171/41
f 54/170/41 56/169/41 55/172/41
f 57/173/42 58/174/42 61/175/42
f 58/174/42 62/176/42 61/175/42
f 58/177/43 59/178/43 62/179/43
f 59/178/43 63/180/43 62/179/43
f 59/181/44 60/182/44 64/183/44
f 59/181/44 64/183/44 63/184/44
f 60/185/10 57/186/10 64/187/10
f 57/186/10 61/188/10 64/187/10
f 61/189/45 62/190/45 65/191/45
f 62/190/45 66/192/45 65/191/45
f 62/193/7 63/194/7 67/195/7
f 62/193/7 67/195/7 66/196/7
f 63/197/11 64/147/11 68/146/11
f 63/197/11 68/146/11 67/198/11
f 64/187/10 61/188/10 68/199/10
f 61/188/10 65/200/10 68/199/10
f 65/201/46 66/202/46 69/203/46
f 66/202/46 70/204/46 69/203/46
f 66/205/47 67/206/47 71/207/47
f 66/205/47 71/207/47 70/208/47
f 67/209/48 68/210/48 71/211/48
f 68/210/48 72/212/48 71/211/48
f 68/199/10 65/200/10 72/213/10
f 65/200/10 69/214/10 72/213/10
f 60/215/49 58/216/49 57/217/49
f 58/216/49 60/215/49 59/218/49
f 72/219/50 69/220/50 70/221/50
f 70/221/50 71/222/50 72/219/50
f 73/223/51 79/224/51 74/225/51
f 73/223/51 78/226/51 79/224/51
f 74/227/52 79/228/52 75/229/52
f 75/229/52 79/228/52 80/230/52
f 75/231/53 80/232/53 76/233/53
f 76/233/53 80/232/53 81/234/53
f 76/235/54 82/236/54 77/237/54
f 76/235/54 81/238/54 82/236/54
f 77/239/55 82/240/55 73/241/55
f 73/241/55 82/240/55 78/242/55
f 78/243/56 83/244/56 79/245/56
f 79/245/56 83/244/56 84/246/56
f 79/247/57 84/248/57 80/249/57
f 80/249/57 84/248/57 85/250/57
f 80/251/58 86/252/58 81/253/58
f 80/251/58 85/254/58 86/252/58
f 81/255/59 87/256/59 82/257/59
f 81/255/59 86/258/59 87/256/59
f 82/259/7 83/260/7 78/261/7
f 82/259/7 87/262/7 83/260/7
f 83/263/60 88/264/60 84/265/60
f 84/265/60 88/264/60 89/266/60
f 84/267/61 89/268/61 85/269/61
f 85/269/61 89/268/61 90/270/61
f 85/271/62 91/272/62 86/273/62
f 85/271/62 90/274/62 91/272/62
f 86/275/63 92/276/63 87/277/63
f 86/275/63 91/278/63 92/276/63
f 87/279/64 88/280/64 83/281/64
f 87/279/64 92/282/64 88/280/64
f 77/283/65 73/284/65 74/285/65
f 76/286/65 77/283/65 74/285/65
f 74/285/65 75/287/65 76/286/65
f 92/288/66 89/289/66 88/290/66
f 91/291/66 89/289/66 92/288/66
f 89/289/66 91/291/66 90/292/66
f 93/293/67 94/294/67 99/295/67
f 93/293/67 99/295/67 98/296/67
f 94/297/68 95/298/68 99/299/68
f 95/298/68 100/300/68 99/299/68
f 95/301/69 96/302/69 100/303/69
f 96/302/69 101/304/69 100/303/69
f 96/305/70 97/306/70 102/307/70
f 96/305/70 102/307/70 101/308/70
f 97/309/71 93/310/71 102/311/71
f 93/310/71 98/312/71 102/311/71
f 98/313/72 99/314/72 103/315/72
f 99/314/72 104/316/72 103/315/72
f 99/317/73 100/318/73 104/319/73
f 100/318/73 105/320/73 104/319/73
f 100/321/74 101/322/74 106/323/74
f 100/321/74 106/323/74 105/324/74
f 101/325/75 102/326/75 107/327/75
f 101/325/75 107/327/75 106/328/75
f 102/329/10 98/330/10 103/331/10
f 102/329/10 103/331/10 107/332/10
f 103/333/76 104/334/76 108/335/76
f 104/334/76 109/336/76 108/335/76
f 104/337/77 105/338/77 109/339/77
f 105/338/77 110/340/77 109/339/77
f 105/341/78 106/342/78 111/343/78
f 105/341/78 111/343/78 110/344/78
f 106/345/79 107/346/79 112/347/79
f 106/345/79 112/347/79 111/348/79
f 107/349/80 103/350/80 108/351/80
f 107/349/80 108/351/80 112/352/80
f 97/353/81 94/354/81 93/355/81
f 96/356/81 94/354/81 97/353/81
f 94/354/81 96/356/81 95/357/81
f 112/358/82 108/359/82 109/360/82
f 111/361/82 112/358/82 109/360/82
f 109/360/82 110/362/82 111/361/82
f 113/363/83 121/364/84 114/365/85
f 114/365/85 121/364/84 122/366/85
f 114/367/86 123/368/87 115/369/88
f 114/367/86 122/370/86 123/368/87
f 115/369/88 123/368/87 116/371/89
f 116/371/89 123/368/87 124/372/89
f 116/373/90 124/374/90 117/375/90
f 117/375/90 124/374/90 125/376/90
f 117/377/91 126/378/92 118/379/93
f 117/377/91 125/380/91 126/378/92
f 118/379/93 127/381/94 119/382/95
f 118/379/93 126/378/92 127/381/94
f 119/382/95 128/383/96 120/384/97
f 119/382/95 127/381/94 128/383/96
f 120/384/97 121/385/84 113/386/83
f 120/384/97 128/383/96 121/385/84
f 121/387/98 130/388/99 122/389/99
f 121/387/98 129/390/100 130/388/99
f 122/391/101 130/392/101 123/393/101
f 123/393/101 130/392/101 131/394/101
f 123/395/102 131/396/102 124/397/102
f 124/397/102 131/396/102 132/398/102
f 124/399/103 132/400/103 125/401/103
f 125/401/103 132/400/103 133/402/103
f 125/403/104 134/404/105 126/405/106
f 125/403/104 133/406/104 134/404/105
f 126/405/106 135/407/107 127/408/108
f 126/405/106 134/404/105 135/407/107
f 127/408/108 136/409/109 128/410/110
f 127/408/108 135/407/107 136/409/109
f 128/411/110 129/390/100 121/387/98
f 128/411/110 136/412/109 129/390/100
f 129/413/111 138/414/112 130/415/112
f 129/413/111 137/416/113 138/414/112
f 130/417/114 138/418/114 131/419/115
f 131/419/115 138/418/114 139/420/116
f 131/419/115 140/421/117 132/422/117
f 131/419/115 139/420/116 140/421/117
f 132/423/118 141/424/118 133/425/118
f 132/423/118 140/426/118 141/424/118
f 133/427/119 141/428/119 134/429/120
f 134/429/120 141/428/119 142/430/121
f 134/429/120 143/431/122 135/432/123
f 134/429/120 142/430/121 143/431/122
f 135/432/123 144/433/124 136/434/125
f 135/432/123 143/431/122 144/433/124
f 136/434/125 137/435/113 129/436/111
f 136/434/125 144/433/124 137/435/113
f 113/437/126 114/438/126 115/439/126
f 120/440/126 113/437/126 115/439/126
f 119/441/126 120/440/126 115/439/126
f 118/442/126 119/441/126 115/439/126
f 116/443/126 117/444/126 118/442/126
f 115/439/126 116/443/126 118/442/126
f 137/445/127 139/446/127 138/447/127
f 144/448/127 139/446/127 137/445/127
f 143/449/127 139/446/127 144/448/127
f 142/450/127 139/446/127 143/449/127
f 140/451/127 142/450/127 141/452/127
f 139/446/127 142/450/127 140/451/127
f 145/453/128 146/454/129 153/455/130
f 146/454/129 154/456/129 153/455/130
f 146/457/131 147/458/132 155/459/133
f 146/457/131 155/459/133 154/460/131
f 147/458/132 148/461/134 155/459/133
f 148/461/134 156/462/134 155/459/133
f 148/463/135 149/464/135 156/465/135
f 149/464/135 157/466/135 156/465/135
f 149/467/136 150/468/137 158/469/138
f 149/467/136 158/469/138 157/470/136
f 150/468/137 151/471/139 159/472/140
f 150/468/137 159/472/140 158/469/138
f 151/471/139 152/473/141 160/474/142
f 151/471/139 160/474/142 159/472/140
f 152/473/141 145/475/128 153/476/130
f 152/473/141 153/476/130 160/474/142
f 153/477/143 154/478/144 162/479/144
f 153/477/143 162/479/144 161/480/145
f 154/481/146 155/482/146 162/483/146
f 155/482/146 163/484/146 162/483/146
f 155/485/147 156/486/147 163/487/147
f 156/486/147 164/488/147 163/487/147
f 156/489/148 157/490/148 164/491/148
f 157/490/148 165/492/148 164/491/148
f 157/493/149 158/494/150 166/495/151
f 157/493/149 166/495/151 165/496/149
f 158/494/150 159/497/152 167/498/153
f 158/494/150 167/498/153 166/495/151
f 159/497/152 160/499/154 168/500/155
f 159/497/152 168/500/155 167/498/153
f 160/501/154 153/477/143 161/480/145
f 160/501/154 161/480/145 168/502/155
f 161/503/156 162/504/157 170/505/157
f 161/503/156 170/505/157 169/506/158
f 162/507/159 163/508/160 170/509/159
f 163/508/160 171/510/161 170/509/159
f 163/508/160 164/511/162 172/512/162
f 163/508/160 172/512/162 171/510/161
f 164/513/163 165/514/163 173/515/163
f 164/513/163 173/515/163 172/516/163
f 165/517/164 166/518/165 173/519/164
f 166/518/165 174/520/166 173/519/164
f 166/518/165 167/521/167 175/522/168
f 166/518/165 175/522/168 174/520/166
f 167/521/167 168/523/169 176/524/170
f 167/521/167 176/524/170 175/522/168
f 168/523/169 161/525/156 169/526/158
f 168/523/169 169/526/158 176/524/170
f 145/527/171 147/528/171 146/529/171
f 152/530/171 147/528/171 145/527/171
f 151/531/171 147/528/171 152/530/171
f 150/532/171 147/528/171 151/531/171
f 148/533/171 150/532/171 149/534/171
f 147/528/171 150/532/171 148/533/171
f 169/535/172 170/536/172 171/537/172
f 176/538/172 169/535/172 171/537/172
f 175/539/172 176/538/172 171/537/172
f 174/540/172 175/539/172 171/537/172
f 172/541/172 173/542/172 174/540/172
f 171/537/172 172/541/172 174/540/172
f 177/543/173 184/544/173 178/545/173
f 178/545/173 184/544/173 185/546/173
f 178/547/174 186/548/174 179/549/174
f 178/547/174 185/550/174 186/548/174
f 179/551/175 187/552/176 180/553/177
f 179/551/175 186/554/175 187/552/176
f 180/553/177 188/555/178 181/556/179
f 180/553/177 187/552/176 188/555/178
f 181/556/179 189/557/180 182/558/181
f 181/556/179 188/555/178 189/557/180
f 182/558/181 189/557/180 183/559/182
f 183/559/182 189/557/180 190/560/182
f 183/561/183 190/562/183 177/563/183
f 177/563/183 190/562/183 184/564/183
f 184/565/184 191/566/184 185/567/184
f 185/567/184 191/566/184 192/568/184
f 185/569/185 192/570/185 186/571/185
f 186/571/185 192/570/185 193/572/185
f 186/573/186 194/574/187 187/575/188
f 186/573/186 193/576/186 194/574/187
f 187/575/188 195/577/189 188/578/190
f 187/575/188 194/574/187 195/577/189
f 188/578/190 196/579/191 189/580/192
f 188/578/190 195/577/189 196/579/191
f 189/581/192 197/582/193 190/583/193
f 189/581/192 196/584/191 197/582/193
f 190/585/7 191/586/7 184/587/7
f 190/585/7 197/588/7 191/586/7
f 191/589/194 199/590/194 192/591/194
f 191/589/194 198/592/194 199/590/194
f 192/593/195 199/594/195 193/595/195
f 193/595/195 199/594/195 200/596/195
f 193/597/196 200/598/196 194/599/197
f 194/599/197 200/598/196 201/600/198
f 194/599/197 202/601/199 195/602/200
f 194/599/197 201/600/198 202/601/199
f 195/602/200 203/603/201 196/604/202
f 195/602/200 202/601/199 203/603/201
f 196/604/202 204/605/203 197/606/203
f 196/604/202 203/603/201 204/605/203
f 197/607/204 198/608/204 191/609/204
f 197/607/204 204/610/204 198/608/204
f 177/611/126 178/612/126 179/613/126
f 183/614/126 177/611/126 179/613/126
f 183/614/126 179/613/126 180/615/126
f 183/614/126 180/615/126 181/616/126
f 181/616/126 182/617/126 183/614/126
f 198/618/127 200/619/127 199/620/127
f 204/621/127 200/619/127 198/618/127
f 204/621/127 201/622/127 200/619/127
f 204/621/127 202/623/127 201/622/127
f 202/623/127 204/621/127 203/624/127
f 205/625/205 206/626/205 212/627/205
f 206/626/205 213/628/205 212/627/205
f 206/629/206 207/630/206 214/631/206
f 206/629/206 214/631/206 213/632/206
f 207/633/207 208/634/208 215/635/209
f 207/633/207 215/635/209 214/636/207
f 208/634/208 209/637/210 216/638/211
f 208/634/208 216/638/211 215/635/209
f 209/637/210 210/639/212 217/640/213
f 209/637/210 217/640/213 216/638/211
f 210/639/212 211/641/214 217/640/213
f 211/641/214 218/642/214 217/640/213
f 211/643/215 205/644/215 218/645/215
f 205/644/215 212/646/215 218/645/215
f 212/647/216 213/648/216 219/649/216
f 213/648/216 220/650/216 219/649/216
f 213/651/217 214/652/217 220/653/217
f 214/652/217 221/654/217 220/653/217
f 214/655/218 215/656/219 222/657/220
f 214/655/218 222/657/220 221/658/218
f 215/656/219 216/659/189 223/660/190
f 215/656/219 223/660/190 222/657/220
f 216/659/189 217/661/221 224/662/222
f 216/659/189 224/662/222 223/660/190
f 217/663/221 218/664/223 225/665/223
f 217/663/221 225/665/223 224/666/222
f 218/667/10 212/668/10 219/669/10
f 218/667/10 219/669/10 225/670/10
f 219/671/224 220/672/224 227/673/224
f 219/671/224 227/673/224 226/674/224
f 220/675/225 221/676/225 227/677/225
f 221/676/225 228/678/225 227/677/225
f 221/679/226 222/680/227 228/681/226
f 222/680/227 229/682/228 228/681/226
f 222/680/227 223/683/229 230/684/230
f 222/680/227 230/684/230 229/682/228
f 223/683/229 224/685/231 231/686/232
f 223/683/229 231/686/232 230/684/230
f 224/685/231 225/687/233 232/688/233
f 224/685/231 232/688/233 231/686/232
f 225/689/234 219/690/234 226/691/234
f 225/689/234 226/691/234 232/692/234
f 205/693/171 207/694/171 206/695/171
f 211/696/171 207/694/171 205/693/171
f 211/696/171 208/697/171 207/694/171
f 211/696/171 209/698/171 208/697/171
f 209/698/171 211/696/171 210/699/171
f 226/700/172 227/701/172 228/702/172
f 232/703/172 226/700/172 228/702/172
f 232/703/172 228/702/172 229/704/172
f 232/703/172 229/704/172 230/705/172
f 230/705/172 231/706/172 232/703/172
f 233/707/26 234/708/26 238/709/26
f 234/708/26 239/710/26 238/709/26
f 234/67/235 235/68/236 239/69/235
f 235/68/236 240/70/237 239/69/235
f 235/68/236 236/71/238 240/70/237
f 236/71/238 241/72/238 240/70/237
f 236/711/30 237/712/30 242/713/30
f 236/711/30 242/713/30 241/714/30
f 237/77/7 233/78/7 238/79/7
f 237/77/7 238/79/7 242/80/7
f 238/33/8 239/715/8 243/32/8
f 239/715/8 244/716/8 243/32/8
f 239/83/9 240/84/9 244/85/9
f 240/84/9 245/86/9 244/85/9
f 240/87/10 241/88/10 246/89/10
f 240/87/10 246/89/10 245/90/10
f 241/717/11 242/19/11 247/20/11
f 241/717/11 247/20/11 246/718/11
f 242/80/7 238/79/7 243/93/7
f 242/80/7 243/93/7 247/94/7
f 243/719/19 244/720/19 249/721/19
f 243/719/19 249/721/19 248/722/19
f 244/99/239 245/100/240 249/101/239
f 245/100/240 250/102/240 249/101/239
f 245/100/240 246/103/241 251/104/241
f 245/100/240 251/104/241 250/102/240
f 246/723/24 247/724/24 251/725/24
f 247/724/24 252/726/24 251/725/24
f 247/94/7 243/93/7 252/109/7
f 243/93/7 248/110/7 252/109/7
f 235/111/32 237/112/32 236/113/32
f 235/111/32 233/114/32 237/112/32
f 233/114/32 235/111/32 234/115/32
f 250/116/31 251/117/31 252/118/31
f 250/116/31 252/118/31 248/119/31
f 248/119/31 249/120/31 250/116/31
f 253/727/12 258/728/12 254/729/12
f 254/729/12 258/728/12 259/730/12
f 254/5/242 259/6/242 255/7/243
f 255/7/243 259/6/242 260/8/244
f 255/7/243 260/8/244 256/9/245
f 256/9/245 260/8/244 261/10/245
f 256/731/16 262/732/16 257/733/16
f 256/731/16 261/734/16 262/732/16
f 257/15/10 258/16/10 253/17/10
f 257/15/10 262/18/10 258/16/10
f 258/33/8 263/32/8 259/735/8
f 259/735/8 263/32/8 264/736/8
f 259/23/25 264/24/25 260/25/25
f 260/25/25 264/24/25 265/26/25
f 260/27/7 266/28/7 261/29/7
f 260/27/7 265/30/7 266/28/7
f 261/737/11 267/20/11 262/19/11
f 261/737/11 266/738/11 267/20/11
f 262/18/10 263/35/10 258/16/10
f 262/18/10 267/36/10 263/35/10
f 263/739/1 269/740/1 264/741/1
f 263/739/1 268/742/1 269/740/1
f 264/41/246 269/42/246 265/43/247
f 265/43/247 269/42/246 270/44/247
f 265/43/247 271/45/248 266/46/248
f 265/43/247 270/44/247 271/45/248
f 266/743/6 271/744/6 267/745/6
f 267/745/6 271/744/6 272/746/6
f 267/36/10 272/51/10 263/35/10
f 263/35/10 272/51/10 268/52/10
f 255/53/18 256/54/18 257/55/18
f 255/53/18 257/55/18 253/56/18
f 253/56/18 254/57/18 255/53/18
f 270/58/17 272/59/17 271/60/17
f 270/58/17 268/61/17 272/59/17
f 268/61/17 270/58/17 269/62/17
f 273/747/249 274/748/249 277/749/249
f 274/748/249 278/750/249 277/749/249
f 274/177/250 275/178/250 278/179/250
f 275/178/250 279/180/250 278/179/250
f 275/181/251 276/182/251 280/183/251
f 275/181/251 280/183/251 279/184/251
f 276/185/7 273/186/7 280/187/7
f 273/186/7 277/188/7 280/187/7
f 277/751/36 278/752/36 281/753/36
f 278/752/36 282/754/36 281/753/36
f 278/193/10 279/194/10 283/195/10
f 278/193/10 283/195/10 282/196/10
f 279/755/11 280/756/11 284/757/11
f 279/755/11 284/757/11 283/758/11
f 280/187/7 277/188/7 284/199/7
f 277/188/7 281/200/7 284/199/7
f 281/201/252 282/202/252 285/203/252
f 282/202/252 286/204/252 285/203/252
f 282/205/253 283/206/253 287/207/253
f 282/205/253 287/207/253 286/208/253
f 283/759/254 284/760/254 287/761/254
f 284/760/254 288/762/254 287/761/254
f 284/199/7 281/200/7 288/213/7
f 281/200/7 285/214/7 288/213/7
f 276/215/255 274/216/255 273/217/255
f 274/216/255 276/215/255 275/218/255
f 288/219/256 285/220/256 286/221/256
f 286/221/256 287/222/256 288/219/256
f 289/763/257 293/764/257 290/765/257
f 290/765/257 293/764/257 294/766/257
f 290/125/258 294/126/258 291/127/258
f 291/127/258 294/126/258 295/128/258
f 291/129/259 296/130/259 292/131/259
f 291/129/259 295/132/259 296/130/259
f 292/133/10 296/134/10 289/135/10
f 289/135/10 296/134/10 293/136/10
f 293/767/45 297/768/45 294/769/45
f 294/769/45 297/768/45 298/770/45
f 294/141/7 299/142/7 295/143/7
f 294/141/7 298/144/7 299/142/7
f 295/771/11 300/757/11 296/756/11
f 295/771/11 299/772/11 300/757/11
f 296/134/10 300/149/10 293/136/10
f 293/136/10 300/149/10 297/150/10
f 297/151/260 301/152/260 298/153/260
f 298/153/260 301/152/260 302/154/260
f 298/155/261 303/156/261 299/157/261
f 298/155/261 302/158/261 303/156/261
f 299/773/262 303/774/262 300/775/262
f 300/775/262 303/774/262 304/776/262
f 300/149/10 304/163/10 297/150/10
f 297/150/10 304/163/10 301/164/10
f 292/165/263 289/166/263 290/167/263
f 290/167/263 291/168/263 292/165/263
f 304/169/264 302/170/264 301/171/264
f 302/170/264 304/169/264 303/172/264
f 305/293/265 306/294/265 311/295/265
f 305/293/265 311/295/265 310/296/265
f 306/297/266 307/298/266 311/299/266
f 307/298/266 312/300/266 311/299/266
f 307/301/267 308/302/267 312/303/267
f 308/302/267 313/304/267 312/303/267
f 308/305/268 309/306/268 314/307/268
f 308/305/268 314/307/268 313/308/268
f 309/309/269 305/310/269 314/311/269
f 305/310/269 310/312/269 314/311/269
f 310/777/56 311/778/56 315/779/56
f 311/778/56 316/780/56 315/779/56
f 311/317/57 312/318/57 316/319/57
f 312/318/57 317/320/57 316/319/57
f 312/321/58 313/322/58 318/323/58
f 312/321/58 318/323/58 317/324/58
f 313/781/59 314/782/59 319/783/59
f 313/781/59 319/783/59 318/784/59
f 314/329/7 310/330/7 315/331/7
f 314/329/7 315/331/7 319/332/7
f 315/333/270 316/334/270 320/335/270
f 316/334/270 321/336/270 320/335/270
f 316/337/271 317/338/271 321/339/271
f 317/338/271 322/340/271 321/339/271
f 317/341/272 318/342/272 323/343/272
f 317/341/272 323/343/272 322/344/272
f 318/345/273 319/346/273 324/347/273
f 318/345/273 324/347/273 323/348/273
f 319/349/274 315/350/274 320/351/274
f 319/349/274 320/351/274 324/352/274
f 309/353/82 306/354/82 305/355/82
f 308/356/82 306/354/82 309/353/82
f 306/354/82 308/356/82 307/357/82
f 324/358/81 320/359/81 321/360/81
f 323/361/81 324/358/81 321/360/81
f 321/360/81 322/362/81 323/361/81
f 325/223/275 331/224/275 326/225/275
f 325/223/275 330/226/275 331/224/275
f 326/227/276 331/228/276 327/229/276
f 327/229/276 331/228/276 332/230/276
f 327/231/277 332/232/277 328/233/277
f 328/233/277 332/232/277 333/234/277
f 328/235/278 334/236/278 329/237/278
f 328/235/278 333/238/278 334/236/278
f 329/239/279 334/240/279 325/241/279
f 325/241/279 334/240/279 330/242/279
f 330/785/72 335/786/72 331/787/72
f 331/787/72 335/786/72 336/788/72
f 331/247/73 336/248/73 332/249/73
f 332/249/73 336/248/73 337/250/73
f 332/251/74 338/252/74 333/253/74
f 332/251/74 337/254/74 338/252/74
f 333/789/75 339/790/75 334/791/75
f 333/789/75 338/792/75 339/790/75
f 334/259/10 335/260/10 330/261/10
f 334/259/10 339/262/10 335/260/10
f 335/263/280 340/264/280 336/265/280
f 336/265/280 340/264/280 341/266/280
f 336/267/281 341/268/281 337/269/281
f 337/269/281 341/268/281 342/270/281
f 337/271/282 343/272/282 338/273/282
f 337/271/282 342/274/282 343/272/282
f 338/275/283 344/276/283 339/277/283
f 338/275/283 343/278/283 344/276/283
f 339/279/284 340/280/284 335/281/284
f 339/279/284 344/282/284 340/280/284
f 329/283/66 325/284/66 326/285/66
f 328/286/66 329/283/66 326/285/66
f 326/285/66 327/287/66 328/286/66
f 344/288/65 341/289/65 340/290/65
f 343/291/65 341/289/65 344/288/65
f 341/289/65 343/291/65 342/292/65
f 345/793/285 346/794/286 354/795/287
f 345/793/285 354/795/287 353/796/285
f 346/794/286 347/797/288 354/795/287
f 347/797/288 355/798/289 354/795/287
f 347/797/288 348/799/290 355/798/289
f 348/799/290 356/800/290 355/798/289
f 348/801/291 349/802/291 356/803/291
f 349/802/291 357/804/291 356/803/291
f 349/805/292 350/806/293 358/807/294
f 349/805/292 358/807/294 357/808/292
f 350/806/293 351/809/295 359/810/296
f 350/806/293 359/810/296 358/807/294
f 351/809/295 352/811/297 360/812/298
f 351/809/295 360/812/298 359/810/296
f 352/811/297 345/813/299 360/812/298
f 345/813/299 353/814/299 360/812/298
f 353/815/300 354/816/300 362/817/300
f 353/815/300 362/817/300 361/818/300
f 354/819/101 355/820/101 362/821/101
f 355/820/101 363/822/101 362/821/101
f 355/823/102 356/824/102 363/825/102
f 356/824/102 364/826/102 363/825/102
f 356/827/301 357/828/301 364/829/301
f 357/828/301 365/830/301 364/829/301
f 357/493/104 358/494/106 366/495/105
f 357/493/104 366/495/105 365/496/104
f 358/494/106 359/497/108 367/498/107
f 358/494/106 367/498/107 366/495/105
f 359/497/108 360/499/110 368/500/109
f 359/497/108 368/500/109 367/498/107
f 360/831/110 353/832/7 361/833/7
f 360/831/110 361/833/7 368/834/109
f 361/835/302 362/836/303 369/837/302
f 362/836/303 370/838/304 369/837/302
f 362/836/303 363/839/305 370/838/304
f 363/839/305 371/840/306 370/838/304
f 363/839/305 364/841/307 372/842/307
f 363/839/305 372/842/307 371/840/306
f 364/843/308 365/844/308 373/845/308
f 364/843/308 373/845/308 372/846/308
f 365/847/309 366/848/310 373/849/309
f 366/848/310 374/850/311 373/849/309
f 366/848/310 367/851/312 375/852/313
f 366/848/310 375/852/313 374/850/311
f 367/851/312 368/853/314 376/854/315
f 367/851/312 376/854/315 375/852/313
f 368/853/314 361/855/316 369/856/316
f 368/853/314 369/856/316 376/854/315
f 352/530/317 346/857/317 345/858/317
f 352/530/317 347/859/317 346/857/317
f 351/531/317 347/859/317 352/530/317
f 350/532/317 347/859/317 351/531/317
f 348/860/317 350/532/317 349/861/317
f 347/859/317 350/532/317 348/860/317
f 376/538/318 369/862/318 370/863/318
f 376/538/318 370/863/318 371/864/318
f 375/539/318 376/538/318 371/864/318
f 374/540/318 375/539/318 371/864/318
f 372/865/318 373/866/318 374/540/318
f 371/864/318 372/865/318 374/540/318
f 377/867/319 386/868/320 378/869/321
f 377/867/319 385/870/319 386/868/320
f 378/869/321 386/868/320 379/871/322
f 379/871/322 386/868/320 387/872/323
f 379/871/322 387/872/323 380/873/324
f 380/873/324 387/872/323 388/874/324
f 380/875/325 388/876/325 381/877/325
f 381/877/325 388/876/325 389/878/325
f 381/879/326 390/880/327 382/881/328
f 381/879/326 389/882/326 390/880/327
f 382/881/328 391/883/329 383/884/330
f 382/881/328 390/880/327 391/883/329
f 383/884/330 392/885/331 384/886/332
f 383/884/330 391/883/329 392/885/331
f 384/886/332 392/885/331 377/887/333
f 377/887/333 392/885/331 385/888/333
f 385/889/334 394/890/334 386/891/334
f 385/889/334 393/892/334 394/890/334
f 386/893/146 394/894/146 387/895/146
f 387/895/146 394/894/146 395/896/146
f 387/897/147 395/898/147 388/899/147
f 388/899/147 395/898/147 396/900/147
f 388/901/335 396/902/335 389/903/335
f 389/903/335 396/902/335 397/904/335
f 389/403/149 398/404/151 390/405/150
f 389/403/149 397/406/149 398/404/151
f 390/405/150 399/407/153 391/408/152
f 390/405/150 398/404/151 399/407/153
f 391/408/152 400/409/155 392/410/154
f 391/408/152 399/407/153 400/409/155
f 392/905/154 393/906/10 385/907/10
f 392/905/154 400/908/155 393/906/10
f 393/909/336 401/910/336 394/911/337
f 394/911/337 401/910/336 402/912/338
f 394/911/337 402/912/338 395/913/339
f 395/913/339 402/912/338 403/914/340
f 395/913/339 404/915/341 396/916/341
f 395/913/339 403/914/340 404/915/341
f 396/917/342 405/918/342 397/919/342
f 396/917/342 404/920/342 405/918/342
f 397/921/343 405/922/343 398/923/344
f 398/923/344 405/922/343 406/924/345
f 398/923/344 407/925/346 399/926/347
f 398/923/344 406/924/345 407/925/346
f 399/926/347 408/927/348 400/928/349
f 399/926/347 407/925/346 408/927/348
f 400/928/349 401/929/350 393/930/350
f 400/928/349 408/927/348 401/929/350
f 384/440/351 377/931/351 378/932/351
f 384/440/351 378/932/351 379/933/351
f 383/441/351 384/440/351 379/933/351
f 382/442/351 383/441/351 379/933/351
f 380/934/351 381/935/351 382/442/351
f 379/933/351 380/934/351 382/442/351
f 408/448/352 402/936/352 401/937/352
f 408/448/352 403/938/352 402/936/352
f 407/449/352 403/938/352 408/448/352
f 406/450/352 403/938/352 407/449/352
f 404/939/352 406/450/352 405/940/352
f 403/938/352 406/450/352 404/939/352
f 409/941/353 410/942/353 416/943/353
f 410/942/353 417/944/353 416/943/353
f 410/945/354 411/946/354 418/947/354
f 410/945/354 418/947/354 417/948/354
f 411/949/355 412/950/356 419/951/357
f 411/949/355 419/951/357 418/952/355
f 412/950/356 413/953/358 420/954/359
f 412/950/356 420/954/359 419/951/357
f 413/953/358 414/955/360 421/956/361
f 413/953/358 421/956/361 420/954/359
f 414/955/360 415/957/362 421/956/361
f 415/957/362 422/958/362 421/956/361
f 415/643/299 409/959/299 422/645/299
f 409/959/299 416/960/299 422/645/299
f 416/961/184 417/962/184 423/963/184
f 417/962/184 424/964/184 423/963/184
f 417/965/363 418/966/363 424/967/363
f 418/966/363 425/968/363 424/967/363
f 418/969/186 419/970/188 426/971/187
f 418/969/186 426/971/187 425/972/186
f 419/970/188 420/973/190 427/974/189
f 419/970/188 427/974/189 426/971/187
f 420/973/190 421/975/192 428/976/191
f 420/973/190 428/976/191 427/974/189
f 421/977/192 422/978/193 429/979/193
f 421/977/192 429/979/193 428/980/191
f 422/667/7 416/981/7 423/982/7
f 422/667/7 423/982/7 429/670/7
f 423/983/364 424/984/364 431/985/364
f 423/983/364 431/985/364 430/986/364
f 424/987/365 425/988/365 431/989/365
f 425/988/365 432/990/365 431/989/365
f 425/679/366 426/680/367 432/991/366
f 426/680/367 433/682/368 432/991/366
f 426/680/367 427/683/369 434/684/370
f 426/680/367 434/684/370 433/682/368
f 427/683/369 428/685/371 435/686/372
f 427/683/369 435/686/372 434/684/370
f 428/685/371 429/687/373 436/688/373
f 428/685/371 436/688/373 435/686/372
f 429/689/316 423/992/316 430/993/316
f 429/689/316 430/993/316 436/692/316
f 409/994/317 411/995/317 410/996/317
f 415/696/317 411/995/317 409/994/317
f 415/696/317 412/697/317 411/995/317
f 415/696/317 413/698/317 412/697/317
f 413/698/317 415/696/317 414/699/317
f 430/997/318 431/998/318 432/999/318
f 436/703/318 430/997/318 432/999/318
f 436/703/318 432/999/318 433/704/318
f 436/703/318 433/704/318 434/705/318
f 434/705/318 435/706/318 436/703/318
f 437/1000/374 444/1001/374 438/1002/374
f 438/1002/374 444/1001/374 445/1003/374
f 438/1004/375 446/1005/375 439/1006/375
f 438/1004/375 445/1007/375 446/1005/375
f 439/1008/376 447/1009/377 440/1010/378
f 439/1008/376 446/1011/376 447/1009/377
f 440/1010/378 448/1012/379 441/1013/380
f 440/1010/378 447/1009/377 448/1012/379
f 441/1013/380 449/1014/381 442/1015/382
f 441/1013/380 448/1012/379 449/1014/381
f 442/1015/382 449/1014/381 443/1016/383
f 443/1016/383 449/1014/381 450/1017/383
f 443/561/333 450/562/333 437/1018/333
f 437/1018/333 450/562/333 444/1019/333
f 444/1020/216 451/1021/216 445/1022/216
f 445/1022/216 451/1021/216 452/1023/216
f 445/1024/384 452/1025/384 446/1026/384
f 446/1026/384 452/1025/384 453/1027/384
f 446/1028/218 454/1029/220 447/1030/219
f 446/1028/218 453/1031/218 454/1029/220
f 447/1030/219 455/1032/190 448/1033/189
f 447/1030/219 454/1029/220 455/1032/190
f 448/1033/189 456/1034/222 449/1035/221
f 448/1033/189 455/1032/190 456/1034/222
f 449/1036/221 457/1037/223 450/1038/223
f 449/1036/221 456/1039/222 457/1037/223
f 450/585/10 451/1040/10 444/1041/10
f 450/585/10 457/588/10 451/1040/10
f 451/1042/385 459/1043/385 452/1044/385
f 451/1042/385 458/1045/385 459/1043/385
f 452/1046/386 459/1047/386 453/1048/386
f 453/1048/386 459/1047/386 460/1049/386
f 453/597/387 460/1050/387 454/599/388
f 454/599/388 460/1050/387 461/600/389
f 454/599/388 462/601/390 455/602/391
f 454/599/388 461/600/389 462/601/390
f 455/602/391 463/603/392 456/604/393
f 455/602/391 462/601/390 463/603/392
f 456/604/393 464/605/394 457/606/394
f 456/604/393 463/603/392 464/605/394
f 457/607/350 458/1051/350 451/1052/350
f 457/607/350 464/610/350 458/1051/350
f 437/1053/351 438/1054/351 439/1055/351
f 443/614/351 437/1053/351 439/1055/351
f 443/614/351 439/1055/351 440/615/351
f 443/614/351 440/615/351 441/616/351
f 441/616/351 442/617/351 443/614/351
f 458/1056/352 460/1057/352 459/1058/352
f 464/621/352 460/1057/352 458/1056/352
f 464/621/352 461/622/352 460/1057/352
f 464/621/352 462/623/352 461/622/352
f 462/623/352 464/621/352 463/624/352
f 465/1059/395 466/1060/396 471/1061/397
f 465/1059/395 471/1061/397 470/1062/398
f 466/1063/396 467/1064/399 472/1065/399
f 466/1063/396 472/1065/399 471/1066/397
f 467/1067/400 468/1068/400 472/1069/400
f 468/1068/400 473/1070/400 472/1069/400
f 468/1071/401 469/1072/401 473/1073/401
f 469/1072/401 474/1074/401 473/1073/401
f 469/1075/402 465/1059/395 470/1062/398
f 469/1075/402 470/1062/398 474/1076/402
f 470/1077/403 471/1078/403 476/1079/403
f 470/1077/403 476/1079/403 475/1080/403
f 471/1081/404 472/1082/404 477/1083/404
f 471/1081/404 477/1083/404 476/1084/404
f 472/1069/400 473/1070/400 477/1085/400
f 473/1070/400 478/1086/400 477/1085/400
f 473/1087/11 474/1088/11 478/1089/11
f 474/1088/11 479/1090/11 478/1089/11
f 474/1091/405 470/1092/405 475/1093/405
f 474/1091/405 475/1093/405 479/1094/405
f 475/1095/406 476/1096/407 481/1097/408
f 475/1095/406 481/1097/408 480/1098/409
f 476/1099/407 477/1100/410 482/1101/410
f 476/1099/407 482/1101/410 481/1102/408
f 477/1085/400 478/1086/400 482/1103/400
f 478/1086/400 483/1104/400 482/1103/400
f 478/1105/411 479/1106/411 484/1107/411
f 478/1105/411 484/1107/411 483/1108/411
f 479/1109/412 475/1095/406 484/1110/412
f 475/1095/406 480/1098/409 484/1110/412
f 468/1111/413 465/1112/413 469/1113/413
f 467/1114/413 465/1112/413 468/1111/413
f 465/1112/413 467/1114/413 466/1115/413
f 483/1116/414 484/1117/414 480/1118/414
f 482/1119/414 483/1116/414 480/1118/414
f 480/1118/414 481/1120/414 482/1119/414
f 485/1121/415 486/1122/415 490/1123/415
f 486/1122/415 491/1124/415 490/1123/415
f 486/1125/416 487/1126/417 491/1127/416
f 487/1126/417 492/1128/418 491/1127/416
f 487/1126/417 488/1129/419 492/1128/418
f 488/1129/419 493/1130/419 492/1128/418
f 488/1131/420 489/1132/420 494/1133/420
f 488/1131/420 494/1133/420 493/1134/420
f 489/1135/421 485/1136/421 490/1137/421
f 489/1135/421 490/1137/421 494/1138/421
f 490/1139/8 491/1140/8 495/1141/8
f 491/1140/8 496/1142/8 495/1141/8
f 491/1143/422 492/1144/422 496/1145/422
f 492/1144/422 497/1146/422 496/1145/422
f 492/1147/423 493/1148/423 497/1149/423
f 493/1148/423 498/1150/423 497/1149/423
f 493/1151/11 494/1087/11 499/1089/11
f 493/1151/11 499/1089/11 498/1152/11
f 494/1138/421 490/1137/421 495/1153/421
f 494/1138/421 495/1153/421 499/1154/421
f 495/1155/424 496/1156/424 501/1157/424
f 495/1155/424 501/1157/424 500/1158/424
f 496/1159/425 497/1160/426 501/1161/425
f 497/1160/426 502/1162/427 501/1161/425
f 497/1160/426 498/1163/428 503/1164/428
f 497/1160/426 503/1164/428 502/1162/427
f 498/1165/429 499/1166/429 503/1167/429
f 499/1166/429 504/1168/429 503/1167/429
f 499/1154/421 495/1153/421 500/1169/421
f 499/1154/421 500/1169/421 504/1170/421
f 487/1171/430 489/1172/430 488/1173/430
f 487/1171/430 485/1174/430 489/1172/430
f 485/1174/430 487/1171/430 486/1175/430
f 502/1176/431 503/1177/431 504/1178/431
f 502/1176/431 504/1178/431 500/1179/431
f 500/1179/431 501/1180/431 502/1176/431
f 505/1181/432 511/1182/433 506/1183/434
f 505/1181/432 510/1184/435 511/1182/433
f 506/1185/434 512/1186/436 507/1187/436
f 506/1185/434 511/1188/433 512/1186/436
f 507/1189/400 512/1137/400 508/1135/400
f 508/1135/400 512/1137/400 513/1138/400
f 508/1190/437 513/1191/437 509/1192/437
f 509/1192/437 513/1191/437 514/1193/437
f 509/1194/438 510/1184/435 505/1181/432
f 509/1194/438 514/1195/438 510/1184/435
f 510/1196/403 516/1197/403 511/1198/403
f 510/1196/403 515/1199/403 516/1197/403
f 511/1200/404 517/1201/404 512/1202/404
f 511/1200/404 516/1203/404 517/1201/404
f 512/1137/400 517/1153/400 513/1138/400
f 513/1138/400 517/1153/400 518/1154/400
f 513/1204/11 518/1205/11 514/1206/11
f 514/1206/11 518/1205/11 519/1207/11
f 514/1208/405 515/1209/405 510/1210/405
f 514/1208/405 519/1211/405 515/1209/405
f 515/1212/439 521/1213/440 516/1214/441
f 515/1212/439 520/1215/442 521/1213/440
f 516/1216/441 522/1217/443 517/1218/443
f 516/1216/441 521/1219/440 522/1217/443
f 517/1153/400 522/1220/400 518/1154/400
f 518/1154/400 522/1220/400 523/1170/400
f 518/1221/444 524/1222/444 519/1223/444
f 518/1221/444 523/1224/444 524/1222/444
f 519/1225/445 524/1226/445 515/1212/439
f 515/1212/439 524/1226/445 520/1215/442
f 508/1227/446 509/1228/446 505/1229/446
f 507/1230/446 508/1227/446 505/1229/446
f 505/1229/446 506/1231/446 507/1230/446
f 523/1232/447 520/1233/447 524/1234/447
f 522/1235/447 520/1233/447 523/1232/447
f 520/1233/447 522/1235/447 521/1236/447
f 525/1237/448 530/1238/448 526/1239/448
f 526/1239/448 530/1238/448 531/1240/448
f 526/1241/449 531/1242/449 527/1243/450
f 527/1243/450 531/1242/449 532/1244/451
f 527/1243/450 532/1244/451 528/1245/452
f 528/1245/452 532/1244/451 533/1246/452
f 528/1247/453 534/1248/453 529/1249/453
f 528/1247/453 533/1250/453 534/1248/453
f 529/1068/421 530/1069/421 525/1251/421
f 529/1068/421 534/1070/421 530/1069/421
f 530/1252/8 535/1253/8 531/1254/8
f 531/1254/8 535/1253/8 536/1255/8
f 531/1256/422 536/1257/422 532/1258/422
f 532/1258/422 536/1257/422 537/1259/422
f 532/1260/423 537/1261/423 533/1262/423
f 533/1262/423 537/1261/423 538/1263/423
f 533/1264/11 539/1205/11 534/1204/11
f 533/1264/11 538/1265/11 539/1205/11
f 534/1070/421 535/1085/421 530/1069/421
f 534/1070/421 539/1086/421 535/1085/421
f 535/1266/454 541/1267/454 536/1268/454
f 535/1266/454 540/1269/454 541/1267/454
f 536/1270/455 541/1271/455 537/1272/456
f 537/1272/456 541/1271/455 542/1273/457
f 537/1272/456 543/1274/458 538/1275/458
f 537/1272/456 542/1273/457 543/1274/458
f 538/1276/459 543/1277/459 539/1278/459
f 539/1278/459 543/1277/459 544/1279/459
f 539/1086/421 540/1280/421 535/1085/421
f 539/1086/421 544/1104/421 540/1280/421
f 527/1281/460 528/1282/460 529/1283/460
f 527/1281/460 529/1283/460 525/1284/460
f 525/1284/460 526/1285/460 527/1281/460
f 542/1286/461 544/1287/461 543/1288/461
f 542/1286/461 540/1289/461 544/1287/461
f 540/1289/461 542/1286/461 541/1290/461
