# mech2 torso - segment pelvis, colour grey #8A8A8A
# units: studs, +Y up, -Z forward, origin = hip-joint line centre
o pelvis_grey
v 1.42070 0.77520 -0.77520
v 2.48150 0.77520 -0.77520
v 2.48150 2.52960 -0.77520
v 1.42070 2.52960 -0.77520
v 1.25750 0.61200 -0.61200
v 2.64470 0.61200 -0.61200
v 2.64470 2.69280 -0.61200
v 1.25750 2.69280 -0.61200
v 1.25750 0.61200 0.61200
v 2.64470 0.61200 0.61200
v 2.64470 2.69280 0.61200
v 1.25750 2.69280 0.61200
v 1.42070 0.77520 0.77520
v 2.48150 0.77520 0.77520
v 2.48150 2.52960 0.77520
v 1.42070 2.52960 0.77520
v -2.48150 0.77520 -0.77520
v -1.42070 0.77520 -0.77520
v -1.42070 2.52960 -0.77520
v -2.48150 2.52960 -0.77520
v -2.64470 0.61200 -0.61200
v -1.25750 0.61200 -0.61200
v -1.25750 2.69280 -0.61200
v -2.64470 2.69280 -0.61200
v -2.64470 0.61200 0.61200
v -1.25750 0.61200 0.61200
v -1.25750 2.69280 0.61200
v -2.64470 2.69280 0.61200
v -2.48150 0.77520 0.77520
v -1.42070 0.77520 0.77520
v -1.42070 2.52960 0.77520
v -2.48150 2.52960 0.77520
v 2.32554 4.69402 1.30560
v 2.19911 4.87102 1.30560
v 0.80579 3.20678 1.30560
v 0.88796 2.87813 1.30560
v 2.40720 4.69200 1.24032
v 2.20320 4.97760 1.24032
v 0.73440 3.22320 1.24032
v 0.85680 2.73360 1.24032
v 2.40720 4.69200 0.84864
v 2.20320 4.97760 0.84864
v 0.73440 3.22320 0.84864
v 0.85680 2.73360 0.84864
v 2.36637 4.69301 0.81600
v 2.20115 4.92431 0.81600
v 0.77010 3.21499 0.81600
v 0.87238 2.80586 0.81600
v -2.32554 4.69402 1.30560
v -2.19911 4.87102 1.30560
v -0.80579 3.20678 1.30560
v -0.88796 2.87813 1.30560
v -2.40720 4.69200 1.24032
v -2.20320 4.97760 1.24032
v -0.73440 3.22320 1.24032
v -0.85680 2.73360 1.24032
v -2.40720 4.69200 0.84864
v -2.20320 4.97760 0.84864
v -0.73440 3.22320 0.84864
v -0.85680 2.73360 0.84864
v -2.36637 4.69301 0.81600
v -2.20115 4.92431 0.81600
v -0.77010 3.21499 0.81600
v -0.87238 2.80586 0.81600
v 2.32554 4.69402 -1.30560
v 2.19911 4.87102 -1.30560
v 0.80579 3.20678 -1.30560
v 0.88796 2.87813 -1.30560
v 2.40720 4.69200 -1.24032
v 2.20320 4.97760 -1.24032
v 0.73440 3.22320 -1.24032
v 0.85680 2.73360 -1.24032
v 2.40720 4.69200 -0.84864
v 2.20320 4.97760 -0.84864
v 0.73440 3.22320 -0.84864
v 0.85680 2.73360 -0.84864
v 2.36637 4.69301 -0.81600
v 2.20115 4.92431 -0.81600
v 0.77010 3.21499 -0.81600
v 0.87238 2.80586 -0.81600
v -2.32554 4.69402 -1.30560
v -2.19911 4.87102 -1.30560
v -0.80579 3.20678 -1.30560
v -0.88796 2.87813 -1.30560
v -2.40720 4.69200 -1.24032
v -2.20320 4.97760 -1.24032
v -0.73440 3.22320 -1.24032
v -0.85680 2.73360 -1.24032
v -2.40720 4.69200 -0.84864
v -2.20320 4.97760 -0.84864
v -0.73440 3.22320 -0.84864
v -0.85680 2.73360 -0.84864
v -2.36637 4.69301 -0.81600
v -2.20115 4.92431 -0.81600
v -0.77010 3.21499 -0.81600
v -0.87238 2.80586 -0.81600
vt -0.35517 0.27407
vt -0.62038 0.27407
vt -0.66117 0.21637
vt -0.31437 0.21637
vt -0.30163 -0.19380
vt -0.30163 -0.63240
vt -0.35933 -0.67320
vt -0.35933 -0.15300
vt -0.62038 0.31014
vt -0.35517 0.31014
vt -0.31437 0.36784
vt -0.66117 0.36784
vt -0.38818 -0.63240
vt -0.38818 -0.19380
vt -0.33048 -0.15300
vt -0.33048 -0.67320
vt -0.31437 0.15300
vt -0.66117 0.15300
vt -0.66117 -0.15300
vt -0.31437 -0.15300
vt 0.15300 -0.15300
vt 0.15300 -0.67320
vt -0.15300 -0.67320
vt -0.15300 -0.15300
vt -0.31437 -0.21637
vt -0.66117 -0.21637
vt -0.62038 -0.27407
vt -0.35517 -0.27407
vt 0.35933 -0.15300
vt 0.35933 -0.67320
vt 0.30163 -0.63240
vt 0.30163 -0.19380
vt -0.66117 -0.36784
vt -0.31437 -0.36784
vt -0.35517 -0.31014
vt -0.62038 -0.31014
vt 0.33048 -0.67320
vt 0.33048 -0.15300
vt 0.38818 -0.19380
vt 0.38818 -0.63240
vt -0.35517 -0.63240
vt -0.62038 -0.19380
vt -0.35517 -0.19380
vt -0.62038 -0.63240
vt 0.35517 -0.63240
vt 0.35517 -0.19380
vt 0.62038 -0.19380
vt 0.62038 -0.63240
vt 0.62038 0.27407
vt 0.35517 0.27407
vt 0.31437 0.21637
vt 0.66117 0.21637
vt 0.35517 0.31014
vt 0.62038 0.31014
vt 0.66117 0.36784
vt 0.31437 0.36784
vt 0.66117 0.15300
vt 0.31437 0.15300
vt 0.31437 -0.15300
vt 0.66117 -0.15300
vt 0.66117 -0.21637
vt 0.31437 -0.21637
vt 0.35517 -0.27407
vt 0.62038 -0.27407
vt 0.31437 -0.36784
vt 0.66117 -0.36784
vt 0.62038 -0.31014
vt 0.35517 -0.31014
vt -0.02619 -0.85055
vt -0.00123 -0.85832
vt -0.06484 -0.88881
vt -0.06358 -0.92005
vt 0.96755 -0.84845
vt 0.53176 -0.51060
vt 0.55300 -0.49833
vt 0.96877 -0.87969
vt 0.23455 -0.85604
vt 0.21002 -0.85618
vt 0.26278 -0.77619
vt 0.25207 -0.73723
vt 0.24138 -0.78347
vt 0.69774 -1.16015
vt 0.67321 -1.16918
vt 0.23202 -0.74417
vt -0.31008 -0.60472
vt -0.21216 -0.69246
vt -0.31008 -0.69246
vt -0.21216 -0.60472
vt 0.31008 -1.30773
vt 0.21216 -0.73571
vt 0.31008 -0.73571
vt 0.21216 -1.30773
vt 0.31008 -0.73721
vt 0.21216 -0.61104
vt 0.31008 -0.61104
vt 0.21216 -0.73721
vt -0.31008 -0.66877
vt -0.21216 -1.29322
vt -0.31008 -1.29322
vt -0.21216 -0.66877
vt -0.25857 -1.12075
vt -0.19559 -1.16686
vt -0.19621 -1.18248
vt -0.24609 -1.11687
vt -0.73049 -1.16181
vt -0.72988 -1.14619
vt -0.29348 -0.79272
vt -0.30410 -0.78658
vt 0.13814 -0.73309
vt 0.09073 -0.63362
vt 0.09609 -0.61414
vt 0.12588 -0.73302
vt -0.47801 -0.46875
vt -0.48269 -0.48841
vt -0.94374 -0.88473
vt -0.93148 -0.88925
vt 0.20145 -0.80170
vt 0.22199 -0.71953
vt 0.58138 -1.17350
vt 0.54978 -1.21775
vt -0.19252 -0.80375
vt -0.59159 -1.17325
vt -0.21809 -0.70147
vt -0.55029 -1.23108
vt 0.02619 -0.85055
vt 0.06484 -0.88881
vt 0.00123 -0.85832
vt 0.06358 -0.92005
vt -0.96755 -0.84845
vt -0.55300 -0.49833
vt -0.53176 -0.51060
vt -0.96877 -0.87969
vt -0.23455 -0.85604
vt -0.26278 -0.77619
vt -0.21002 -0.85618
vt -0.25207 -0.73723
vt -0.24138 -0.78347
vt -0.67321 -1.16918
vt -0.69774 -1.16015
vt -0.23202 -0.74417
vt 0.31008 -0.60472
vt 0.31008 -0.69246
vt 0.21216 -0.69246
vt 0.21216 -0.60472
vt -0.31008 -1.30773
vt -0.31008 -0.73571
vt -0.21216 -0.73571
vt -0.21216 -1.30773
vt -0.31008 -0.73721
vt -0.31008 -0.61104
vt -0.21216 -0.61104
vt -0.21216 -0.73721
vt 0.31008 -0.66877
vt 0.31008 -1.29322
vt 0.21216 -1.29322
vt 0.21216 -0.66877
vt 0.25857 -1.12075
vt 0.19621 -1.18248
vt 0.19559 -1.16686
vt 0.24609 -1.11687
vt 0.73049 -1.16181
vt 0.29348 -0.79272
vt 0.72988 -1.14619
vt 0.30410 -0.78658
vt -0.13814 -0.73309
vt -0.09609 -0.61414
vt -0.09073 -0.63362
vt -0.12588 -0.73302
vt 0.47801 -0.46875
vt 0.94374 -0.88473
vt 0.48269 -0.48841
vt 0.93148 -0.88925
vt -0.20145 -0.80170
vt -0.58138 -1.17350
vt -0.22199 -0.71953
vt -0.54978 -1.21775
vt 0.19252 -0.80375
vt 0.21809 -0.70147
vt 0.59159 -1.17325
vt 0.55029 -1.23108
vn -0.0000 -0.7071 -0.7071
vn 0.7071 0.0000 -0.7071
vn 0.0000 0.7071 -0.7071
vn -0.7071 0.0000 -0.7071
vn 0.0000 -1.0000 0.0000
vn 1.0000 0.0000 0.0000
vn 0.0000 1.0000 0.0000
vn -1.0000 0.0000 0.0000
vn -0.0000 -0.7071 0.7071
vn 0.7071 0.0000 0.7071
vn 0.0000 0.7071 0.7071
vn -0.7071 0.0000 0.7071
vn 0.0000 0.0000 -1.0000
vn 0.0000 0.0000 1.0000
vn 0.5754 0.4110 0.7071
vn -0.5422 0.4539 0.7071
vn -0.6860 -0.1715 0.7071
vn 0.5544 -0.4389 0.7071
vn 0.8137 0.5812 0.0000
vn -0.7668 0.6419 0.0000
vn -0.9701 -0.2425 0.0000
vn 0.7840 -0.6207 0.0000
vn 0.5754 0.4110 -0.7071
vn -0.5422 0.4539 -0.7071
vn -0.6860 -0.1715 -0.7071
vn 0.5544 -0.4389 -0.7071
vn -0.5754 0.4110 0.7071
vn 0.5422 0.4539 0.7071
vn 0.6860 -0.1715 0.7071
vn -0.5544 -0.4389 0.7071
vn -0.8137 0.5812 0.0000
vn 0.7668 0.6419 0.0000
vn 0.9701 -0.2425 0.0000
vn -0.7840 -0.6207 0.0000
vn -0.5754 0.4110 -0.7071
vn 0.5422 0.4539 -0.7071
vn 0.6860 -0.1715 -0.7071
vn -0.5544 -0.4389 -0.7071
s off
f 1/1/1 2/2/1 6/3/1
f 1/1/1 6/3/1 5/4/1
f 2/5/2 3/6/2 7/7/2
f 2/5/2 7/7/2 6/8/2
f 3/9/3 4/10/3 8/11/3
f 3/9/3 8/11/3 7/12/3
f 4/13/4 1/14/4 5/15/4
f 4/13/4 5/15/4 8/16/4
f 5/17/5 6/18/5 10/19/5
f 5/17/5 10/19/5 9/20/5
f 6/21/6 7/22/6 11/23/6
f 6/21/6 11/23/6 10/24/6
f 7/19/7 8/20/7 12/17/7
f 7/19/7 12/17/7 11/18/7
f 8/23/8 5/24/8 9/21/8
f 8/23/8 9/21/8 12/22/8
f 9/25/9 10/26/9 14/27/9
f 9/25/9 14/27/9 13/28/9
f 10/29/10 11/30/10 15/31/10
f 10/29/10 15/31/10 14/32/10
f 11/33/11 12/34/11 16/35/11
f 11/33/11 16/35/11 15/36/11
f 12/37/12 9/38/12 13/39/12
f 12/37/12 13/39/12 16/40/12
f 4/41/13 2/42/13 1/43/13
f 2/42/13 4/41/13 3/44/13
f 16/45/14 13/46/14 14/47/14
f 14/47/14 15/48/14 16/45/14
f 17/49/1 18/50/1 22/51/1
f 17/49/1 22/51/1 21/52/1
f 18/39/2 19/40/2 23/37/2
f 18/39/2 23/37/2 22/38/2
f 19/53/3 20/54/3 24/55/3
f 19/53/3 24/55/3 23/56/3
f 20/31/4 17/32/4 21/29/4
f 20/31/4 21/29/4 24/30/4
f 21/57/5 22/58/5 26/59/5
f 21/57/5 26/59/5 25/60/5
f 22/21/6 23/22/6 27/23/6
f 22/21/6 27/23/6 26/24/6
f 23/59/7 24/60/7 28/57/7
f 23/59/7 28/57/7 27/58/7
f 24/23/8 21/24/8 25/21/8
f 24/23/8 25/21/8 28/22/8
f 25/61/9 26/62/9 30/63/9
f 25/61/9 30/63/9 29/64/9
f 26/15/10 27/16/10 31/13/10
f 26/15/10 31/13/10 30/14/10
f 27/65/11 28/66/11 32/67/11
f 27/65/11 32/67/11 31/68/11
f 28/7/12 25/8/12 29/5/12
f 28/7/12 29/5/12 32/6/12
f 20/48/13 18/46/13 17/47/13
f 18/46/13 20/48/13 19/45/13
f 32/44/14 29/42/14 30/43/14
f 30/43/14 31/41/14 32/44/14
f 33/69/15 37/70/15 34/71/15
f 34/71/15 37/70/15 38/72/15
f 34/73/16 39/74/16 35/75/16
f 34/73/16 38/76/16 39/74/16
f 35/77/17 39/78/17 36/79/17
f 36/79/17 39/78/17 40/80/17
f 36/81/18 37/82/18 33/83/18
f 36/81/18 40/84/18 37/82/18
f 37/85/19 42/86/19 38/87/19
f 37/85/19 41/88/19 42/86/19
f 38/89/20 43/90/20 39/91/20
f 38/89/20 42/92/20 43/90/20
f 39/93/21 44/94/21 40/95/21
f 39/93/21 43/96/21 44/94/21
f 40/97/22 41/98/22 37/99/22
f 40/97/22 44/100/22 41/98/22
f 41/101/23 46/102/23 42/103/23
f 41/101/23 45/104/23 46/102/23
f 42/105/24 46/106/24 43/107/24
f 43/107/24 46/106/24 47/108/24
f 43/109/25 48/110/25 44/111/25
f 43/109/25 47/112/25 48/110/25
f 44/113/26 48/114/26 41/115/26
f 41/115/26 48/114/26 45/116/26
f 35/117/14 36/118/14 33/119/14
f 33/119/14 34/120/14 35/117/14
f 47/121/13 45/122/13 48/123/13
f 45/122/13 47/121/13 46/124/13
f 49/125/27 50/126/27 53/127/27
f 50/126/27 54/128/27 53/127/27
f 50/129/28 51/130/28 55/131/28
f 50/129/28 55/131/28 54/132/28
f 51/133/29 52/134/29 55/135/29
f 52/134/29 56/136/29 55/135/29
f 52/137/30 49/138/30 53/139/30
f 52/137/30 53/139/30 56/140/30
f 53/141/31 54/142/31 58/143/31
f 53/141/31 58/143/31 57/144/31
f 54/145/32 55/146/32 59/147/32
f 54/145/32 59/147/32 58/148/32
f 55/149/33 56/150/33 60/151/33
f 55/149/33 60/151/33 59/152/33
f 56/153/34 53/154/34 57/155/34
f 56/153/34 57/155/34 60/156/34
f 57/157/35 58/158/35 62/159/35
f 57/157/35 62/159/35 61/160/35
f 58/161/36 59/162/36 62/163/36
f 59/162/36 63/164/36 62/163/36
f 59/165/37 60/166/37 64/167/37
f 59/165/37 64/167/37 63/168/37
f 60/169/38 57/170/38 64/171/38
f 57/170/38 61/172/38 64/171/38
f 51/173/14 49/174/14 52/175/14
f 49/174/14 51/173/14 50/176/14
f 63/177/13 64/178/13 61/179/13
f 61/179/13 62/180/13 63/177/13
f 65/125/23 66/126/23 69/127/23
f 66/126/23 70/128/23 69/127/23
f 66/129/24 67/130/24 71/131/24
f 66/129/24 71/131/24 70/132/24
f 67/133/25 68/134/25 71/135/25
f 68/134/25 72/136/25 71/135/25
f 68/137/26 65/138/26 69/139/26
f 68/137/26 69/139/26 72/140/26
f 69/141/19 70/142/19 74/143/19
f 69/141/19 74/143/19 73/144/19
f 70/145/20 71/146/20 75/147/20
f 70/145/20 75/147/20 74/148/20
f 71/149/21 72/150/21 76/151/21
f 71/149/21 76/151/21 75/152/21
f 72/153/22 69/154/22 73/155/22
f 72/153/22 73/155/22 76/156/22
f 73/157/15 74/158/15 78/159/15
f 73/157/15 78/159/15 77/160/15
f 74/161/16 75/162/16 78/163/16
f 75/162/16 79/164/16 78/163/16
f 75/165/17 76/166/17 80/167/17
f 75/165/17 80/167/17 79/168/17
f 76/169/18 73/170/18 80/171/18
f 73/170/18 77/172/18 80/171/18
f 67/173/13 65/174/13 68/175/13
f 65/174/13 67/173/13 66/176/13
f 79/177/14 80/178/14 77/179/14
f 77/179/14 78/180/14 79/177/14
f 81/69/35 85/70/35 82/71/35
f 82/71/35 85/70/35 86/72/35
f 82/73/36 87/74/36 83/75/36
f 82/73/36 86/76/36 87/74/36
f 83/77/37 87/78/37 84/79/37
f 84/79/37 87/78/37 88/80/37
f 84/81/38 85/82/38 81/83/38
f 84/81/38 88/84/38 85/82/38
f 85/85/31 90/86/31 86/87/31
f 85/85/31 89/88/31 90/86/31
f 86/89/32 91/90/32 87/91/32
f 86/89/32 90/92/32 91/90/32
f 87/93/33 92/94/33 88/95/33
f 87/93/33 91/96/33 92/94/33
f 88/97/34 89/98/34 85/99/34
f 88/97/34 92/100/34 89/98/34
f 89/101/27 94/102/27 90/103/27
f 89/101/27 93/104/27 94/102/27
f 90/105/28 94/106/28 91/107/28
f 91/107/28 94/106/28 95/108/28
f 91/109/29 96/110/29 92/111/29
f 91/109/29 95/112/29 96/110/29
f 92/113/30 96/114/30 89/115/30
f 89/115/30 96/114/30 93/116/30
f 83/117/13 84/118/13 81/119/13
f 81/119/13 82/120/13 83/117/13
f 95/121/14 93/122/14 96/123/14
f 93/122/14 95/121/14 94/124/14
