# mech2 torso - segment pelvis, colour darkgrey #5A5A5A
# units: studs, +Y up, -Z forward, origin = hip-joint line centre
o pelvis_darkgrey
v -1.67280 2.40720 -1.10160
v 1.67280 2.40720 -1.10160
v 1.67280 5.14080 -1.10160
v -1.67280 5.14080 -1.10160
v -1.87680 2.20320 -0.89760
v 1.87680 2.20320 -0.89760
v 1.87680 5.34480 -0.89760
v -1.87680 5.34480 -0.89760
v -1.87680 2.20320 0.89760
v 1.87680 2.20320 0.89760
v 1.87680 5.34480 0.89760
v -1.87680 5.34480 0.89760
v -1.67280 2.40720 1.10160
v 1.67280 2.40720 1.10160
v 1.67280 5.14080 1.10160
v -1.67280 5.14080 1.10160
vt 0.41820 0.62027
vt -0.41820 0.62027
vt -0.46920 0.54815
vt 0.46920 0.54815
vt -0.10097 -0.60180
vt -0.10097 -1.28520
vt -0.17310 -1.33620
vt -0.17310 -0.55080
vt -0.41820 0.71404
vt 0.41820 0.71404
vt 0.46920 0.78616
vt -0.46920 0.78616
vt 0.10097 -1.28520
vt 0.10097 -0.60180
vt 0.17310 -0.55080
vt 0.17310 -1.33620
vt 0.46920 0.22440
vt -0.46920 0.22440
vt -0.46920 -0.22440
vt 0.46920 -0.22440
vt 0.22440 -0.55080
vt 0.22440 -1.33620
vt -0.22440 -1.33620
vt -0.22440 -0.55080
vt 0.46920 -0.54815
vt -0.46920 -0.54815
vt -0.41820 -0.62027
vt 0.41820 -0.62027
vt -0.46920 -0.78616
vt 0.46920 -0.78616
vt 0.41820 -0.71404
vt -0.41820 -0.71404
vt 0.41820 -1.28520
vt -0.41820 -0.60180
vt 0.41820 -0.60180
vt -0.41820 -1.28520
vn 0.0000 -0.7071 -0.7071
vn 0.7071 0.0000 -0.7071
vn 0.0000 0.7071 -0.7071
vn -0.7071 0.0000 -0.7071
vn 0.0000 -1.0000 0.0000
vn 1.0000 0.0000 0.0000
vn 0.0000 1.0000 0.0000
vn -1.0000 0.0000 0.0000
vn 0.0000 -0.7071 0.7071
vn 0.7071 0.0000 0.7071
vn 0.0000 0.7071 0.7071
vn -0.7071 0.0000 0.7071
vn 0.0000 0.0000 -1.0000
vn 0.0000 0.0000 1.0000
s off
f 1/1/1 2/2/1 6/3/1
f 1/1/1 6/3/1 5/4/1
f 2/5/2 3/6/2 7/7/2
f 2/5/2 7/7/2 6/8/2
f 3/9/3 4/10/3 8/11/3
f 3/9/3 8/11/3 7/12/3
f 4/13/4 1/14/4 5/15/4
f 4/13/4 5/15/4 8/16/4
f 5/17/5 6/18/5 10/19/5
f 5/17/5 10/19/5 9/20/5
f 6/21/6 7/22/6 11/23/6
f 6/21/6 11/23/6 10/24/6
f 7/19/7 8/20/7 12/17/7
f 7/19/7 12/17/7 11/18/7
f 8/23/8 5/24/8 9/21/8
f 8/23/8 9/21/8 12/22/8
f 9/25/9 10/26/9 14/27/9
f 9/25/9 14/27/9 13/28/9
f 10/15/10 11/16/10 15/13/10
f 10/15/10 15/13/10 14/14/10
f 11/29/11 12/30/11 16/31/11
f 11/29/11 16/31/11 15/32/11
f 12/7/12 9/8/12 13/5/12
f 12/7/12 13/5/12 16/6/12
f 4/33/13 2/34/13 1/35/13
f 2/34/13 4/33/13 3/36/13
f 16/36/14 13/34/14 14/35/14
f 14/35/14 15/33/14 16/36/14
