# mech2 torso - segment pelvis, colour blue #2F6FBF
# units: studs, +Y up, -Z forward, origin = hip-joint line centre
o pelvis_blue
v 0.00000 2.86416 1.39169
v 0.59601 2.86416 1.24269
v 0.73440 3.23783 1.22677
v 0.79056 4.10039 1.25586
v 0.44928 3.54144 1.31323
v 0.00000 3.54144 1.42555
v 0.00000 2.78256 1.30601
v 0.65280 2.78256 1.14281
v 0.81600 3.22320 1.12404
v 0.81600 4.17792 1.17178
v 0.40800 3.62304 1.24603
v 0.00000 3.62304 1.34803
v 0.00000 2.78256 0.84905
v 0.65280 2.78256 0.68585
v 0.81600 3.22320 0.66708
v 0.81600 4.17792 0.71482
v 0.40800 3.62304 0.78907
v 0.00000 3.62304 0.89107
v 0.00000 2.81520 0.81804
v 0.63008 2.81520 0.66052
v 0.78336 3.22905 0.64289
v 0.80583 4.14691 0.68317
v 0.42451 3.59040 0.75067
v 0.00000 3.59040 0.85680
v -0.00000 2.86416 1.39169
v -0.59601 2.86416 1.24269
v -0.73440 3.23783 1.22677
v -0.79056 4.10039 1.25586
v -0.44928 3.54144 1.31323
v -0.00000 3.54144 1.42555
v -0.00000 2.78256 1.30601
v -0.65280 2.78256 1.14281
v -0.81600 3.22320 1.12404
v -0.81600 4.17792 1.17178
v -0.40800 3.62304 1.24603
v -0.00000 3.62304 1.34803
v -0.00000 2.78256 0.84905
v -0.65280 2.78256 0.68585
v -0.81600 3.22320 0.66708
v -0.81600 4.17792 0.71482
v -0.40800 3.62304 0.78907
v -0.00000 3.62304 0.89107
v -0.00000 2.81520 0.81804
v -0.63008 2.81520 0.66052
v -0.78336 3.22905 0.64289
v -0.80583 4.14691 0.68317
v -0.42451 3.59040 0.75067
v -0.00000 3.59040 0.85680
v 0.00000 2.86416 -1.39169
v 0.59601 2.86416 -1.24269
v 0.73440 3.23783 -1.22677
v 0.79056 4.10039 -1.25586
v 0.44928 3.54144 -1.31323
v 0.00000 3.54144 -1.42555
v 0.00000 2.78256 -1.30601
v 0.65280 2.78256 -1.14281
v 0.81600 3.22320 -1.12404
v 0.81600 4.17792 -1.17178
v 0.40800 3.62304 -1.24603
v 0.00000 3.62304 -1.34803
v 0.00000 2.78256 -0.84905
v 0.65280 2.78256 -0.68585
v 0.81600 3.22320 -0.66708
v 0.81600 4.17792 -0.71482
v 0.40800 3.62304 -0.78907
v 0.00000 3.62304 -0.89107
v 0.00000 2.81520 -0.81804
v 0.63008 2.81520 -0.66052
v 0.78336 3.22905 -0.64289
v 0.80583 4.14691 -0.68317
v 0.42451 3.59040 -0.75067
v 0.00000 3.59040 -0.85680
v -0.00000 2.86416 -1.39169
v -0.59601 2.86416 -1.24269
v -0.73440 3.23783 -1.22677
v -0.79056 4.10039 -1.25586
v -0.44928 3.54144 -1.31323
v -0.00000 3.54144 -1.42555
v -0.00000 2.78256 -1.30601
v -0.65280 2.78256 -1.14281
v -0.81600 3.22320 -1.12404
v -0.81600 4.17792 -1.17178
v -0.40800 3.62304 -1.24603
v -0.00000 3.62304 -1.34803
v -0.00000 2.78256 -0.84905
v -0.65280 2.78256 -0.68585
v -0.81600 3.22320 -0.66708
v -0.81600 4.17792 -0.71482
v -0.40800 3.62304 -0.78907
v -0.00000 3.62304 -0.89107
v -0.00000 2.81520 -0.81804
v -0.63008 2.81520 -0.66052
v -0.78336 3.22905 -0.64289
v -0.80583 4.14691 -0.68317
v -0.42451 3.59040 -0.75067
v -0.00000 3.59040 -0.85680
vt -0.04733 -0.74576
vt -0.04733 -0.71618
vt -0.19853 -0.71879
vt -0.21294 -0.68664
vt -0.24292 -0.73138
vt -0.19765 -0.83054
vt -0.23065 -0.82992
vt -0.21212 -0.71434
vt -0.25558 -1.04382
vt -0.31305 -1.04039
vt -0.27978 -0.82304
vt -0.29198 -1.06034
vt 0.54016 -0.77832
vt 0.42968 -0.67254
vt 0.44160 -0.64680
vt 0.30723 -0.94223
vt 0.28612 -0.96160
vt 0.30469 -0.78942
vt -0.04068 -0.41576
vt -0.05117 -0.44212
vt -0.15483 -0.39642
vt -0.15483 -0.42456
vt 0.35639 -0.88536
vt 0.33701 -0.90576
vt 0.34792 -0.71604
vt 0.32650 -0.69564
vt 0.00000 -0.32650
vt 0.00000 -0.21226
vt -0.16320 -0.28570
vt -0.16320 -0.17146
vt -0.28477 -0.70914
vt -0.17054 -0.70914
vt -0.16555 -0.82304
vt -0.17775 -1.06034
vt 0.19046 -0.78942
vt 0.17189 -0.96160
vt -0.10200 0.31151
vt 0.00000 0.22277
vt 0.00000 0.33701
vt -0.10200 0.19727
vt 0.22277 -0.90576
vt 0.21226 -0.69564
vt 0.11289 -0.35814
vt -0.04719 -0.39652
vt -0.05297 -0.38624
vt 0.11289 -0.36940
vt -0.28532 -0.66647
vt -0.27768 -0.67541
vt -0.32441 -0.77627
vt -0.31440 -0.77853
vt -0.16985 -1.05236
vt -0.34253 -1.00459
vt 0.16402 -0.95385
vt 0.38001 -0.83636
vt 0.34617 -0.99946
vt 0.36774 -0.83134
vt -0.18884 0.76751
vt -0.08534 0.77414
vt -0.08534 0.78598
vt -0.19303 0.75493
vt 0.21420 -0.89760
vt 0.20451 -0.70380
vt 0.11372 -0.82376
vt 0.12819 -1.03950
vt 0.04025 -0.90065
vt -0.07552 -0.90205
vt -0.07552 -0.73252
vt 0.07806 -0.73066
vt -0.16089 -0.81428
vt -0.06842 -0.90585
vt -0.16667 -1.04396
vt 0.04097 -0.90718
vt -0.12139 -0.71117
vt 0.04097 -0.71313
vt 0.04733 -0.74576
vt 0.19853 -0.71879
vt 0.04733 -0.71618
vt 0.21294 -0.68664
vt 0.24292 -0.73138
vt 0.23065 -0.82992
vt 0.19765 -0.83054
vt 0.21212 -0.71434
vt 0.25558 -1.04382
vt 0.31305 -1.04039
vt 0.29198 -1.06034
vt 0.27978 -0.82304
vt -0.54016 -0.77832
vt -0.44160 -0.64680
vt -0.42968 -0.67254
vt -0.30723 -0.94223
vt -0.30469 -0.78942
vt -0.28612 -0.96160
vt 0.04068 -0.41576
vt 0.15483 -0.39642
vt 0.05117 -0.44212
vt 0.15483 -0.42456
vt -0.35639 -0.88536
vt -0.34792 -0.71604
vt -0.33701 -0.90576
vt -0.32650 -0.69564
vt 0.16320 -0.28570
vt 0.16320 -0.17146
vt 0.28477 -0.70914
vt 0.17054 -0.70914
vt 0.16555 -0.82304
vt 0.17775 -1.06034
vt -0.19046 -0.78942
vt -0.17189 -0.96160
vt 0.10200 0.31151
vt 0.10200 0.19727
vt -0.22277 -0.90576
vt -0.21226 -0.69564
vt -0.11289 -0.35814
vt 0.05297 -0.38624
vt 0.04719 -0.39652
vt -0.11289 -0.36940
vt 0.28532 -0.66647
vt 0.32441 -0.77627
vt 0.27768 -0.67541
vt 0.31440 -0.77853
vt 0.16985 -1.05236
vt 0.34253 -1.00459
vt -0.16402 -0.95385
vt -0.38001 -0.83636
vt -0.36774 -0.83134
vt -0.34617 -0.99946
vt 0.18884 0.76751
vt 0.08534 0.78598
vt 0.08534 0.77414
vt 0.19303 0.75493
vt -0.21420 -0.89760
vt -0.20451 -0.70380
vt -0.11372 -0.82376
vt -0.04025 -0.90065
vt -0.12819 -1.03950
vt 0.07552 -0.90205
vt -0.07806 -0.73066
vt 0.07552 -0.73252
vt 0.16089 -0.81428
vt 0.16667 -1.04396
vt 0.06842 -0.90585
vt -0.04097 -0.90718
vt -0.04097 -0.71313
vt 0.12139 -0.71117
vt -0.04733 0.74576
vt -0.19853 0.71879
vt -0.04733 0.71618
vt -0.21294 0.68664
vt 0.00000 0.32650
vt -0.16320 0.28570
vt 0.00000 0.21226
vt -0.16320 0.17146
vt -0.10200 -0.31151
vt 0.00000 -0.33701
vt 0.00000 -0.22277
vt -0.10200 -0.19727
vt -0.18884 -0.76751
vt -0.08534 -0.78598
vt -0.08534 -0.77414
vt -0.19303 -0.75493
vt 0.04733 0.74576
vt 0.04733 0.71618
vt 0.19853 0.71879
vt 0.21294 0.68664
vt 0.16320 0.28570
vt 0.16320 0.17146
vt 0.10200 -0.31151
vt 0.10200 -0.19727
vt 0.18884 -0.76751
vt 0.08534 -0.77414
vt 0.08534 -0.78598
vt 0.19303 -0.75493
vn 0.1699 -0.7136 0.6796
vn 0.7411 -0.2479 0.6240
vn 0.8326 -0.1218 0.5403
vn 0.7677 -0.1275 0.6280
vn 0.8735 -0.0475 0.4845
vn 0.9869 -0.1203 0.1072
vn 0.9989 -0.0023 0.0466
vn -0.5006 0.3852 0.7753
vn -0.7429 0.5889 0.3182
vn -0.8037 0.5944 0.0257
vn -0.8017 0.5959 0.0477
vn 0.1783 0.6777 0.7134
vn -1.0000 0.0000 0.0000
vn 0.0000 -1.0000 0.0000
vn 0.9377 -0.3473 0.0000
vn 0.9938 -0.1099 0.0178
vn 0.9938 -0.1105 -0.0145
vn 0.9999 0.0005 -0.0108
vn -0.8063 0.5914 -0.0107
vn -0.8068 0.5905 -0.0207
vn 0.0000 1.0000 0.0000
vn -0.1783 -0.6777 -0.7134
vn 0.5504 -0.2379 -0.8003
vn 0.5792 -0.1090 -0.8079
vn 0.5868 -0.0637 -0.8072
vn 0.9472 0.0160 -0.3202
vn 0.5976 0.0205 -0.8015
vn -0.7399 0.4632 -0.4879
vn -0.8082 0.5873 -0.0421
vn -0.6786 0.3894 -0.6228
vn -0.1699 0.7136 -0.6796
vn 0.2423 -0.0485 0.9690
vn -0.2423 0.0485 -0.9690
vn -0.1699 -0.7136 0.6796
vn -0.7411 -0.2479 0.6240
vn -0.7677 -0.1275 0.6280
vn -0.8326 -0.1218 0.5403
vn -0.8735 -0.0475 0.4845
vn -0.9989 -0.0023 0.0466
vn -0.9869 -0.1203 0.1072
vn 0.5006 0.3852 0.7753
vn 0.7429 0.5889 0.3182
vn 0.8017 0.5959 0.0477
vn 0.8037 0.5944 0.0257
vn -0.1783 0.6777 0.7134
vn 1.0000 0.0000 0.0000
vn -0.9377 -0.3473 0.0000
vn -0.9938 -0.1099 0.0178
vn -0.9938 -0.1105 -0.0145
vn -0.9999 0.0005 -0.0108
vn 0.8063 0.5914 -0.0107
vn 0.8068 0.5905 -0.0207
vn 0.1783 -0.6777 -0.7134
vn -0.5504 -0.2379 -0.8003
vn -0.5792 -0.1090 -0.8079
vn -0.5868 -0.0637 -0.8072
vn -0.9472 0.0160 -0.3202
vn -0.5976 0.0205 -0.8015
vn 0.8082 0.5873 -0.0421
vn 0.7399 0.4632 -0.4879
vn 0.6786 0.3894 -0.6228
vn 0.1699 0.7136 -0.6796
vn -0.2423 -0.0485 0.9690
vn 0.2423 0.0485 -0.9690
vn 0.1699 -0.7136 -0.6796
vn 0.7411 -0.2479 -0.6240
vn 0.7677 -0.1275 -0.6280
vn 0.8326 -0.1218 -0.5403
vn 0.8735 -0.0475 -0.4845
vn 0.9989 -0.0023 -0.0466
vn 0.9869 -0.1203 -0.1072
vn -0.5006 0.3852 -0.7753
vn -0.7429 0.5889 -0.3182
vn -0.8017 0.5959 -0.0477
vn -0.8037 0.5944 -0.0257
vn 0.1783 0.6777 -0.7134
vn 0.9938 -0.1099 -0.0178
vn 0.9938 -0.1105 0.0145
vn 0.9999 0.0005 0.0108
vn -0.8063 0.5914 0.0107
vn -0.8068 0.5905 0.0207
vn -0.1783 -0.6777 0.7134
vn 0.5504 -0.2379 0.8003
vn 0.5792 -0.1090 0.8079
vn 0.5868 -0.0637 0.8072
vn 0.9472 0.0160 0.3202
vn 0.5976 0.0205 0.8015
vn -0.8082 0.5873 0.0421
vn -0.7399 0.4632 0.4879
vn -0.6786 0.3894 0.6228
vn -0.1699 0.7136 0.6796
vn 0.2423 -0.0485 -0.9690
vn -0.2423 0.0485 0.9690
vn -0.1699 -0.7136 -0.6796
vn -0.7411 -0.2479 -0.6240
vn -0.8326 -0.1218 -0.5403
vn -0.7677 -0.1275 -0.6280
vn -0.8735 -0.0475 -0.4845
vn -0.9869 -0.1203 -0.1072
vn -0.9989 -0.0023 -0.0466
vn 0.5006 0.3852 -0.7753
vn 0.7429 0.5889 -0.3182
vn 0.8037 0.5944 -0.0257
vn 0.8017 0.5959 -0.0477
vn -0.1783 0.6777 -0.7134
vn -0.9938 -0.1099 -0.0178
vn -0.9938 -0.1105 0.0145
vn -0.9999 0.0005 0.0108
vn 0.8063 0.5914 0.0107
vn 0.8068 0.5905 0.0207
vn 0.1783 -0.6777 0.7134
vn -0.5504 -0.2379 0.8003
vn -0.5792 -0.1090 0.8079
vn -0.5868 -0.0637 0.8072
vn -0.9472 0.0160 0.3202
vn -0.5976 0.0205 0.8015
vn 0.7399 0.4632 0.4879
vn 0.8082 0.5873 0.0421
vn 0.6786 0.3894 0.6228
vn 0.1699 0.7136 0.6796
vn -0.2423 -0.0485 -0.9690
vn 0.2423 0.0485 0.9690
s off
f 1/1/1 7/2/1 2/3/1
f 2/3/1 7/2/1 8/4/1
f 2/5/2 9/6/3 3/7/4
f 2/5/2 8/8/2 9/6/3
f 3/7/4 9/6/3 4/9/5
f 4/10/5 9/11/6 10/12/7
f 4/13/8 11/14/8 5/15/8
f 4/16/9 10/17/10 11/18/11
f 5/19/12 11/20/12 6/21/12
f 6/21/12 11/20/12 12/22/12
f 6/23/13 12/24/13 1/25/13
f 1/25/13 12/24/13 7/26/13
f 7/27/14 13/28/14 8/29/14
f 8/29/14 13/28/14 14/30/14
f 8/31/15 14/32/15 9/11/16
f 9/11/16 14/32/15 15/33/17
f 9/11/16 16/34/18 10/12/7
f 9/11/16 15/33/17 16/34/18
f 10/17/10 17/35/19 11/18/11
f 10/17/10 16/36/20 17/35/19
f 11/37/21 18/38/21 12/39/21
f 11/37/21 17/40/21 18/38/21
f 12/24/13 18/41/13 7/26/13
f 7/26/13 18/41/13 13/42/13
f 13/43/22 20/44/22 14/45/22
f 13/43/22 19/46/22 20/44/22
f 14/47/23 20/48/23 15/49/24
f 15/49/24 20/48/23 21/50/25
f 15/33/17 22/51/26 16/34/18
f 15/49/24 21/50/25 22/52/27
f 16/36/20 22/53/28 17/35/29
f 17/54/28 22/55/28 23/56/30
f 17/57/31 24/58/31 18/59/31
f 17/57/31 23/60/31 24/58/31
f 18/41/13 24/61/13 13/42/13
f 13/42/13 24/61/13 19/62/13
f 3/63/32 4/64/32 5/65/32
f 6/66/32 1/67/32 2/68/32
f 5/65/32 6/66/32 2/68/32
f 2/68/32 3/63/32 5/65/32
f 21/69/33 23/70/33 22/71/33
f 24/72/33 20/73/33 19/74/33
f 23/70/33 20/73/33 24/72/33
f 20/73/33 23/70/33 21/69/33
f 25/75/34 26/76/34 31/77/34
f 26/76/34 32/78/34 31/77/34
f 26/79/35 27/80/36 33/81/37
f 26/79/35 33/81/37 32/82/35
f 27/80/36 28/83/38 33/81/37
f 28/84/38 34/85/39 33/86/40
f 28/87/41 29/88/41 35/89/41
f 28/90/42 35/91/43 34/92/44
f 29/93/45 30/94/45 35/95/45
f 30/94/45 36/96/45 35/95/45
f 30/97/46 25/98/46 36/99/46
f 25/98/46 31/100/46 36/99/46
f 31/27/14 32/101/14 37/28/14
f 32/101/14 38/102/14 37/28/14
f 32/103/47 33/86/48 38/104/47
f 33/86/48 39/105/49 38/104/47
f 33/86/48 34/85/39 40/106/50
f 33/86/48 40/106/50 39/105/49
f 34/92/44 35/91/43 41/107/51
f 34/92/44 41/107/51 40/108/52
f 35/109/21 36/39/21 42/38/21
f 35/109/21 42/38/21 41/110/21
f 36/99/46 31/100/46 42/111/46
f 31/100/46 37/112/46 42/111/46
f 37/113/53 38/114/53 44/115/53
f 37/113/53 44/115/53 43/116/53
f 38/117/54 39/118/55 44/119/54
f 39/118/55 45/120/56 44/119/54
f 39/105/49 40/106/50 46/121/57
f 39/118/55 46/122/58 45/120/56
f 40/108/52 41/107/59 46/123/60
f 41/124/60 47/125/61 46/126/60
f 41/127/62 42/128/62 48/129/62
f 41/127/62 48/129/62 47/130/62
f 42/111/46 37/112/46 48/131/46
f 37/112/46 43/132/46 48/131/46
f 27/133/63 29/134/63 28/135/63
f 30/136/63 26/137/63 25/138/63
f 29/134/63 26/137/63 30/136/63
f 26/137/63 29/134/63 27/133/63
f 45/139/64 46/140/64 47/141/64
f 48/142/64 43/143/64 44/144/64
f 47/141/64 48/142/64 44/144/64
f 44/144/64 45/139/64 47/141/64
f 49/145/65 50/146/65 55/147/65
f 50/146/65 56/148/65 55/147/65
f 50/79/66 51/80/67 57/81/68
f 50/79/66 57/81/68 56/82/66
f 51/80/67 52/83/69 57/81/68
f 52/84/69 58/85/70 57/86/71
f 52/87/72 53/88/72 59/89/72
f 52/90/73 59/91/74 58/92/75
f 53/93/76 54/94/76 59/95/76
f 54/94/76 60/96/76 59/95/76
f 54/97/13 49/98/13 60/99/13
f 49/98/13 55/100/13 60/99/13
f 55/149/14 56/150/14 61/151/14
f 56/150/14 62/152/14 61/151/14
f 56/103/15 57/86/77 62/104/15
f 57/86/77 63/105/78 62/104/15
f 57/86/77 58/85/70 64/106/79
f 57/86/77 64/106/79 63/105/78
f 58/92/75 59/91/74 65/107/80
f 58/92/75 65/107/80 64/108/81
f 59/153/21 60/154/21 66/155/21
f 59/153/21 66/155/21 65/156/21
f 60/99/13 55/100/13 66/111/13
f 55/100/13 61/112/13 66/111/13
f 61/113/82 62/114/82 68/115/82
f 61/113/82 68/115/82 67/116/82
f 62/117/83 63/118/84 68/119/83
f 63/118/84 69/120/85 68/119/83
f 63/105/78 64/106/79 70/121/86
f 63/118/84 70/122/87 69/120/85
f 64/108/81 65/107/88 70/123/89
f 65/124/89 71/125/90 70/126/89
f 65/157/91 66/158/91 72/159/91
f 65/157/91 72/159/91 71/160/91
f 66/111/13 61/112/13 72/131/13
f 61/112/13 67/132/13 72/131/13
f 51/133/92 53/134/92 52/135/92
f 54/136/92 50/137/92 49/138/92
f 53/134/92 50/137/92 54/136/92
f 50/137/92 53/134/92 51/133/92
f 69/139/93 70/140/93 71/141/93
f 72/142/93 67/143/93 68/144/93
f 71/141/93 72/142/93 68/144/93
f 68/144/93 69/139/93 71/141/93
f 73/161/94 79/162/94 74/163/94
f 74/163/94 79/162/94 80/164/94
f 74/5/95 81/6/96 75/7/97
f 74/5/95 80/8/95 81/6/96
f 75/7/97 81/6/96 76/9/98
f 76/10/98 81/11/99 82/12/100
f 76/13/101 83/14/101 77/15/101
f 76/16/102 82/17/103 83/18/104
f 77/19/105 83/20/105 78/21/105
f 78/21/105 83/20/105 84/22/105
f 78/23/46 84/24/46 73/25/46
f 73/25/46 84/24/46 79/26/46
f 79/149/14 85/151/14 80/165/14
f 80/165/14 85/151/14 86/166/14
f 80/31/47 86/32/47 81/11/106
f 81/11/106 86/32/47 87/33/107
f 81/11/106 88/34/108 82/12/100
f 81/11/106 87/33/107 88/34/108
f 82/17/103 89/35/109 83/18/104
f 82/17/103 88/36/110 89/35/109
f 83/167/21 90/155/21 84/154/21
f 83/167/21 89/168/21 90/155/21
f 84/24/46 90/41/46 79/26/46
f 79/26/46 90/41/46 85/42/46
f 85/43/111 92/44/111 86/45/111
f 85/43/111 91/46/111 92/44/111
f 86/47/112 92/48/112 87/49/113
f 87/49/113 92/48/112 93/50/114
f 87/33/107 94/51/115 88/34/108
f 87/49/113 93/50/114 94/52/116
f 88/36/110 94/53/117 89/35/118
f 89/54/117 94/55/117 95/56/119
f 89/169/120 96/170/120 90/171/120
f 89/169/120 95/172/120 96/170/120
f 90/41/46 96/61/46 85/42/46
f 85/42/46 96/61/46 91/62/46
f 75/63/121 76/64/121 77/65/121
f 78/66/121 73/67/121 74/68/121
f 77/65/121 78/66/121 74/68/121
f 74/68/121 75/63/121 77/65/121
f 93/69/122 95/70/122 94/71/122
f 96/72/122 92/73/122 91/74/122
f 95/70/122 92/73/122 96/72/122
f 92/73/122 95/70/122 93/69/122
