# mech2 torso - segment tasset_R, colour blue #2F6FBF
# units: studs, +Y up, -Z forward, origin = hip-joint line centre
o tasset_R_blue
v 3.61552 1.05937 0.58104
v 3.49564 0.91666 1.25891
v 3.38301 1.87370 1.29572
v 3.51071 1.94505 0.61795
v 3.58102 1.02000 0.53040
v 3.44393 0.85680 1.30560
v 3.31908 1.91760 1.34640
v 3.46514 1.99920 0.57120
v 3.36886 1.02000 0.53040
v 3.23177 0.85680 1.30560
v 3.10692 1.91760 1.34640
v 3.25298 1.99920 0.57120
v 3.33715 1.03969 0.55572
v 3.20866 0.88673 1.28225
v 3.08992 1.89565 1.32106
v 3.22681 1.97212 0.59457
vt -0.14757 -0.79266
vt -0.31704 -0.74608
vt -0.13491 -0.77958
vt -0.32871 -0.72630
vt 0.46196 -0.21001
vt 0.42532 -0.44830
vt 0.44513 -0.19438
vt 0.40452 -0.45850
vt -0.28362 0.18770
vt -0.32600 0.01962
vt -0.31088 0.00475
vt -0.26241 0.19700
vt -0.70438 -0.34919
vt -0.69262 -0.12634
vt -0.67648 -0.11790
vt -0.68948 -0.36428
vt -0.89525 -0.07722
vt -0.86098 -0.27527
vt -0.84221 -0.07722
vt -0.80794 -0.27527
vt 0.86098 -0.22659
vt 0.82977 -0.49198
vt 0.80794 -0.22659
vt 0.77673 -0.49198
vt -0.82977 0.28456
vt -0.86629 0.08969
vt -0.81325 0.08969
vt -0.77673 0.28456
vt -0.86629 -0.50531
vt -0.89525 -0.26030
vt -0.84221 -0.26030
vt -0.81325 -0.50531
vt -0.45223 -0.03513
vt -0.40701 -0.23096
vt -0.44177 -0.03934
vt -0.39939 -0.22288
vt 0.77120 -0.09325
vt 0.78420 -0.36016
vt 0.76376 -0.10150
vt 0.77612 -0.35536
vt 0.31693 -0.87369
vt 0.12264 -0.91317
vt 0.12850 -0.90376
vt 0.31058 -0.86677
vt -0.51556 -0.49086
vt -0.55325 -0.24704
vt -0.54294 -0.25159
vt -0.50704 -0.48377
vt 0.03836 -0.16442
vt -0.14380 -0.37314
vt -0.13442 -0.13224
vt 0.02895 -0.38738
vt -0.03098 -0.16714
vt 0.15421 -0.13264
vt 0.16410 -0.38661
vt -0.02107 -0.40187
vn 0.7550 -0.6557 -0.0045
vn 0.6397 0.0458 0.7672
vn 0.6576 0.7263 0.2003
vn 0.7758 0.1176 -0.6199
vn 0.0000 -0.9785 -0.2060
vn 0.0000 -0.0384 0.9993
vn 0.0000 0.9945 0.1047
vn 0.0000 0.0416 -0.9991
vn -0.6524 -0.7101 -0.2649
vn -0.7760 -0.1152 0.6202
vn -0.7471 0.6608 -0.0712
vn -0.6398 -0.0437 -0.7673
vn 0.9749 0.1072 0.1950
vn -0.9749 -0.1072 -0.1950
s off
f 1/1/1 2/2/1 5/3/1
f 2/2/1 6/4/1 5/3/1
f 2/5/2 3/6/2 6/7/2
f 3/6/2 7/8/2 6/7/2
f 3/9/3 4/10/3 8/11/3
f 3/9/3 8/11/3 7/12/3
f 4/13/4 1/14/4 5/15/4
f 4/13/4 5/15/4 8/16/4
f 5/17/5 6/18/5 9/19/5
f 6/18/5 10/20/5 9/19/5
f 6/21/6 7/22/6 10/23/6
f 7/22/6 11/24/6 10/23/6
f 7/25/7 8/26/7 12/27/7
f 7/25/7 12/27/7 11/28/7
f 8/29/8 5/30/8 9/31/8
f 8/29/8 9/31/8 12/32/8
f 9/33/9 10/34/9 13/35/9
f 10/34/9 14/36/9 13/35/9
f 10/37/10 11/38/10 14/39/10
f 11/38/10 15/40/10 14/39/10
f 11/41/11 12/42/11 16/43/11
f 11/41/11 16/43/11 15/44/11
f 12/45/12 9/46/12 13/47/12
f 12/45/12 13/47/12 16/48/12
f 1/49/13 3/50/13 2/51/13
f 1/49/13 4/52/13 3/50/13
f 13/53/14 14/54/14 15/55/14
f 13/53/14 15/55/14 16/56/14
