# mech2 torso - segment tasset_R, colour white #F2F2F2
# units: studs, +Y up, -Z forward, origin = hip-joint line centre
o tasset_R_white
v 0.72624 1.65121 1.88510
v 1.06436 0.67443 1.98541
v 2.67363 0.44454 1.93253
v 2.74109 0.47827 1.92511
v 2.70246 4.53400 1.44036
v 2.38805 4.42920 1.46865
v 0.87713 2.87851 1.73028
v 0.72624 2.35040 1.80120
v 0.61200 1.63200 1.77888
v 0.97920 0.57120 1.88782
v 2.69280 0.32640 1.83151
v 2.85600 0.40800 1.81356
v 2.81520 4.69200 1.30152
v 2.32560 4.52880 1.34558
v 0.77520 2.93760 1.61405
v 0.61200 2.36640 1.69075
v 0.61200 1.63200 1.48512
v 0.97920 0.57120 1.59406
v 2.69280 0.32640 1.53775
v 2.85600 0.40800 1.51980
v 2.81520 4.69200 1.00776
v 2.32560 4.52880 1.05182
v 0.77520 2.93760 1.32029
v 0.61200 2.36640 1.39699
v 0.65280 1.63886 1.44146
v 1.00961 0.60807 1.54731
v 2.68595 0.36859 1.49223
v 2.81496 0.43310 1.47804
v 2.77494 4.63557 0.97574
v 2.34791 4.49323 1.01418
v 0.81160 2.91650 1.28020
v 0.65280 2.36069 1.35484
v 0.93840 0.68785 2.24673
v 2.45022 0.57723 2.18441
v 2.48732 2.02418 2.00892
v 2.10267 2.16405 2.01137
v 1.63200 2.21897 2.02832
v 1.16841 2.16488 2.05799
v 0.93840 2.03345 2.08526
v 0.85680 0.61200 2.17831
v 2.52960 0.48960 2.10936
v 2.57040 2.08080 1.91638
v 2.12160 2.24400 1.91923
v 1.63200 2.30112 1.93686
v 1.14240 2.24400 1.96819
v 0.85680 2.08080 2.00206
v 0.85680 0.61200 1.88455
v 2.52960 0.48960 1.81560
v 2.57040 2.08080 1.62262
v 2.12160 2.24400 1.62547
v 1.63200 2.30112 1.64310
v 1.14240 2.24400 1.67443
v 0.85680 2.08080 1.70830
v 0.88944 0.64234 1.84664
v 2.49785 0.52465 1.78034
v 2.53717 2.05815 1.59436
v 2.11403 2.21202 1.59705
v 1.63200 2.26826 1.61440
v 1.15280 2.21235 1.64507
v 0.88944 2.06186 1.67630
v 0.72624 1.68330 -1.88125
v 1.02940 1.41383 -1.89843
v 2.67363 1.17894 -1.84441
v 2.74095 1.21260 -1.83700
v 2.70277 4.53410 -1.44033
v 2.38805 4.42920 -1.46865
v 0.87713 2.87851 -1.73028
v 0.72624 2.35040 -1.80120
v 0.61200 1.63200 -1.77888
v 0.97920 1.30560 -1.79969
v 2.69280 1.06080 -1.74338
v 2.85600 1.14240 -1.72543
v 2.81520 4.69200 -1.30152
v 2.32560 4.52880 -1.34558
v 0.77520 2.93760 -1.61405
v 0.61200 2.36640 -1.69075
v 0.61200 1.63200 -1.48512
v 0.97920 1.30560 -1.50593
v 2.69280 1.06080 -1.44962
v 2.85600 1.14240 -1.43167
v 2.81520 4.69200 -1.00776
v 2.32560 4.52880 -1.05182
v 0.77520 2.93760 -1.32029
v 0.61200 2.36640 -1.39699
v 0.65280 1.65032 -1.44008
v 0.99713 1.34425 -1.45959
v 2.68595 1.10299 -1.40410
v 2.81491 1.16747 -1.38992
v 2.77505 4.63561 -0.97573
v 2.34791 4.49323 -1.01418
v 0.81160 2.91650 -1.28020
v 0.65280 2.36069 -1.35484
v 0.93840 1.42225 -2.15860
v 2.45207 1.31149 -2.09621
v 2.48603 2.02465 -2.00893
v 2.10267 2.16405 -2.01137
v 1.63200 2.21897 -2.02832
v 1.16841 2.16488 -2.05799
v 0.93840 2.03345 -2.08526
v 0.85680 1.34640 -2.09018
v 2.52960 1.22400 -2.02123
v 2.57040 2.08080 -1.91638
v 2.12160 2.24400 -1.91923
v 1.63200 2.30112 -1.93686
v 1.14240 2.24400 -1.96819
v 0.85680 2.08080 -2.00206
v 0.85680 1.34640 -1.79642
v 2.52960 1.22400 -1.72747
v 2.57040 2.08080 -1.62262
v 2.12160 2.24400 -1.62547
v 1.63200 2.30112 -1.64310
v 1.14240 2.24400 -1.67443
v 0.85680 2.08080 -1.70830
v 0.88944 1.37674 -1.75851
v 2.49859 1.25900 -1.69218
v 2.53665 2.05834 -1.59436
v 2.11403 2.21202 -1.59705
v 1.63200 2.26826 -1.61440
v 1.15280 2.21235 -1.64507
v 0.88944 2.06186 -1.67630
v 3.33817 1.49541 -1.40154
v 3.49485 0.82070 -0.98922
v 3.76356 0.39905 0.12240
v 3.31647 4.46352 0.12240
v 3.05073 4.46352 -1.20627
v 3.21341 1.46880 -1.50960
v 3.38395 0.73440 -1.06080
v 3.66996 0.28560 0.12240
v 3.19872 4.56960 0.12240
v 2.91312 4.56960 -1.30560
v 2.75645 1.46880 -1.50960
v 2.92699 0.73440 -1.06080
v 3.21300 0.28560 0.12240
v 2.74176 4.56960 0.12240
v 2.45616 4.56960 -1.30560
v 2.71611 1.48108 -1.45973
v 2.88026 0.77423 -1.02776
v 3.15828 0.33796 0.12240
v 2.69819 4.52064 0.12240
v 2.42175 4.52064 -1.25976
v 3.76437 0.39168 0.12240
v 3.51539 0.39168 1.36733
v 3.37583 1.00471 1.72793
v 3.04253 4.46352 1.49211
v 3.31647 4.46352 0.12240
v 3.66996 0.28560 0.12240
v 3.40884 0.28560 1.42800
v 3.25094 0.97920 1.83600
v 2.90496 4.56960 1.59120
v 3.19872 4.56960 0.12240
v 3.21300 0.28560 0.12240
v 2.95188 0.28560 1.42800
v 2.79398 0.97920 1.83600
v 2.44800 4.56960 1.59120
v 2.74176 4.56960 0.12240
v 3.15865 0.33456 0.12240
v 2.90313 0.33456 1.40000
v 2.75370 0.99097 1.78612
v 2.41357 4.52064 1.54546
v 2.69819 4.52064 0.12240
vt 0.38553 -0.49980
vt 0.34755 -0.48971
vt 0.49792 -0.26577
vt 0.46961 -0.23555
vt 0.27583 -0.45196
vt 0.68370 -0.36095
vt 0.67890 -0.39981
vt 0.25450 -0.41648
vt 0.69549 -0.40498
vt 0.72384 -0.37346
vt 0.12750 -0.03477
vt 0.16587 -0.01382
vt 0.29426 -1.04226
vt 0.34202 -1.07801
vt 1.05210 -0.75086
vt 0.96062 -0.76276
vt 0.98022 -0.72507
vt 1.07255 -0.80292
vt 0.54476 -0.39322
vt 0.57495 -0.36494
vt 0.47789 -0.26326
vt 0.51313 -0.24478
vt 0.43590 -0.09760
vt 0.47314 -0.08707
vt 0.44472 -0.36906
vt 0.39851 -0.09085
vt 0.47195 -0.09085
vt 0.37128 -0.36906
vt -0.22214 -0.47195
vt -0.22214 -0.39851
vt -0.65489 -0.45788
vt -0.65489 -0.38444
vt -0.63862 -0.45788
vt -0.63862 -0.38444
vt -0.68424 -0.45339
vt -0.68424 -0.37995
vt -0.45339 -0.09520
vt -0.37995 -0.09520
vt -0.32538 -1.16624
vt -0.25194 -1.16624
vt 0.32538 -1.33558
vt 0.26296 -1.22178
vt 0.33640 -1.22178
vt 0.25194 -1.33558
vt 0.33007 -0.66642
vt 0.40351 -0.66642
vt 0.34925 -0.53470
vt 0.42269 -0.53470
vt 0.42269 -0.54894
vt 0.34925 -0.54894
vt 0.22661 -0.22092
vt 0.09232 0.01911
vt 0.10259 0.03230
vt 0.21283 -0.22694
vt -0.20868 -0.19909
vt -0.21635 -0.18425
vt -0.64033 -0.22981
vt -0.63861 -0.21429
vt -0.66983 -0.20082
vt -0.67982 -0.21277
vt -0.78611 -0.05966
vt -0.75824 -1.12510
vt -0.77208 -1.13824
vt -0.77200 -0.06704
vt -0.69703 -1.17914
vt -0.69009 -1.16304
vt -0.58330 -1.14578
vt -0.59090 -1.13394
vt -0.15508 -0.79617
vt -0.14348 -0.80491
vt -0.08090 -0.67525
vt -0.06725 -0.68064
vt -0.02737 -0.51722
vt -0.01279 -0.51986
vt 0.15570 -0.35371
vt 0.24033 -0.10827
vt 0.64314 -0.05278
vt 0.15570 -0.52976
vt 0.19347 -0.66296
vt 0.57166 -1.05567
vt 0.66003 -0.06137
vt 0.65036 -1.08252
vt -0.14284 -0.36386
vt -0.65175 -0.04704
vt -0.23215 -0.10485
vt -0.14284 -0.54561
vt -0.18259 -0.68580
vt -0.56714 -1.08510
vt -0.68404 -0.06348
vt -0.67403 -1.12157
vt 0.23990 -0.49969
vt 0.21949 -0.47416
vt 0.61791 -0.46863
vt 0.63776 -0.43979
vt 0.03268 -0.08888
vt 0.12505 -0.46057
vt 0.09316 -0.44833
vt 0.05854 -0.06528
vt -0.59589 0.02390
vt -0.50363 -0.02992
vt -0.49886 0.00056
vt -0.61684 -0.00269
vt -0.38082 -0.03640
vt -0.38080 -0.00567
vt -0.25868 -0.02095
vt -0.26516 0.00896
vt -0.20839 0.03631
vt -0.18820 0.01301
vt 0.56738 -0.44263
vt 0.53933 -0.45686
vt 0.56738 -0.10382
vt 0.53933 -0.08703
vt -0.20246 -0.54458
vt -0.20246 -0.47114
vt -0.62178 -0.52734
vt -0.62178 -0.45390
vt -0.52734 -0.13857
vt -0.45390 -0.13857
vt -0.47909 -0.53650
vt -0.40565 -0.53650
vt -0.57938 0.47909
vt -0.46327 0.40637
vt -0.46327 0.47981
vt -0.57938 0.40565
vt -0.34004 0.41077
vt -0.34004 0.48421
vt -0.22005 0.41861
vt -0.22005 0.49205
vt -0.52630 0.49205
vt -0.44407 0.42707
vt -0.44407 0.50051
vt -0.52630 0.41861
vt 0.50051 -0.52020
vt 0.47114 -0.15300
vt 0.54458 -0.15300
vt 0.42707 -0.52020
vt -0.17848 -0.24903
vt -0.59012 -0.24418
vt -0.59809 -0.25659
vt -0.18667 -0.23691
vt -0.78051 -0.05571
vt -0.76962 -0.06565
vt -0.79451 -0.45631
vt -0.78311 -0.45173
vt -0.64300 -0.65928
vt -0.63476 -0.65040
vt -0.53184 -0.69103
vt -0.52996 -0.68034
vt -0.40975 -0.69390
vt -0.40974 -0.70481
vt -0.28948 -0.68811
vt -0.28686 -0.69888
vt -0.22255 -0.66426
vt -0.21428 -0.67302
vt 0.12335 -0.49251
vt 0.17096 -0.13430
vt 0.18401 -0.12769
vt 0.11233 -0.48688
vt 0.20564 -0.10382
vt 0.58406 -0.07821
vt 0.59335 -0.44260
vt 0.20564 -0.44263
vt 0.49707 -0.47725
vt 0.37926 -0.49037
vt 0.26322 -0.47607
vt -0.19841 -0.10444
vt -0.61085 -0.46338
vt -0.60101 -0.07720
vt -0.19841 -0.46186
vt -0.50493 -0.50150
vt -0.38428 -0.51494
vt -0.26433 -0.50015
vt -0.19231 -0.62343
vt -0.27321 -0.57397
vt -0.26051 -0.53740
vt -0.16252 -0.59731
vt -0.68441 -0.51995
vt -0.68905 -0.48110
vt -0.70027 -0.52529
vt -0.72751 -0.49406
vt -0.15911 -0.21565
vt -0.29556 -1.04077
vt -0.19749 -0.19466
vt -0.34330 -1.07645
vt -1.05228 -0.74945
vt -0.98028 -0.72365
vt -0.96072 -0.76135
vt -1.07273 -0.80150
vt -0.57466 -0.36376
vt -0.54449 -0.39207
vt -0.51278 -0.24370
vt -0.47756 -0.26220
vt -0.47458 -0.09334
vt -0.43551 -0.09668
vt 0.15671 0.44472
vt 0.03388 0.44992
vt 0.03388 0.37648
vt 0.15671 0.37128
vt -0.19618 0.44992
vt -0.62893 0.43585
vt -0.19618 0.37648
vt -0.62893 0.36241
vt -0.72073 0.43585
vt -0.76635 0.43136
vt -0.72073 0.36241
vt -0.76635 0.35792
vt 0.43136 -0.27737
vt 0.32538 -1.16483
vt 0.35792 -0.27737
vt 0.25194 -1.16483
vt -0.32538 -1.33558
vt -0.33640 -1.22178
vt -0.26296 -1.22178
vt -0.25194 -1.33558
vt -0.40351 -0.66642
vt -0.33007 -0.66642
vt -0.42269 -0.53470
vt -0.34925 -0.53470
vt -0.42269 -0.59160
vt -0.44472 -0.40800
vt -0.37128 -0.40800
vt -0.34925 -0.59160
vt -0.05491 -0.01138
vt -0.15497 0.04855
vt -0.06572 -0.02270
vt -0.15955 0.03350
vt -0.58626 0.08045
vt -0.58460 0.06494
vt -0.62440 0.06316
vt -0.61474 0.05127
vt 0.78457 -0.24532
vt 0.77054 -1.13898
vt 0.75673 -1.12583
vt 0.77044 -0.25268
vt 0.69758 -1.17900
vt 0.58382 -1.14565
vt 0.69066 -1.16290
vt 0.59141 -1.13381
vt 0.14384 -0.80492
vt 0.15544 -0.79618
vt 0.06757 -0.68071
vt 0.08122 -0.67531
vt 0.01307 -0.51998
vt 0.02851 -0.51984
vt -0.15570 -0.52976
vt -0.23158 -0.29439
vt -0.15570 -0.36179
vt -0.64314 -0.23770
vt -0.19347 -0.66296
vt -0.57166 -1.05567
vt -0.65999 -0.24627
vt -0.65044 -1.08255
vt 0.14284 -0.54561
vt 0.14284 -0.36675
vt 0.22903 -0.29019
vt 0.65175 -0.23196
vt 0.18259 -0.68580
vt 0.56714 -1.08510
vt 0.68403 -0.24839
vt 0.67405 -1.12158
vt -0.23752 -0.62318
vt -0.61600 -0.59208
vt -0.21712 -0.59764
vt -0.63538 -0.56327
vt -0.05733 -0.28486
vt -0.08744 -0.46214
vt -0.11937 -0.47469
vt -0.08320 -0.26170
vt -0.59564 -0.02382
vt -0.49893 -0.00057
vt -0.50370 0.02991
vt -0.61691 0.00268
vt -0.38087 0.00567
vt -0.38089 0.03640
vt -0.26523 -0.00897
vt -0.25875 0.02094
vt -0.20845 -0.03632
vt -0.18826 -0.01302
vt -0.56738 -0.44263
vt -0.56738 -0.28873
vt -0.53933 -0.45686
vt -0.53933 -0.27194
vt -0.18907 0.52255
vt -0.60838 0.50531
vt -0.18907 0.44911
vt -0.60838 0.43187
vt 0.50531 -0.33573
vt 0.47909 -0.55018
vt 0.43187 -0.33573
vt 0.40565 -0.55018
vt -0.57938 -0.47909
vt -0.46327 -0.47981
vt -0.46327 -0.40637
vt -0.57938 -0.40565
vt -0.34004 -0.48421
vt -0.34004 -0.41077
vt -0.22005 -0.49205
vt -0.22005 -0.41861
vt -0.52630 -0.49205
vt -0.44407 -0.50051
vt -0.44407 -0.42707
vt -0.52630 -0.41861
vt -0.50051 -0.52020
vt -0.52255 -0.33660
vt -0.44911 -0.33660
vt -0.42707 -0.52020
vt -0.16850 0.11017
vt -0.58810 0.11773
vt -0.58033 0.10533
vt -0.17669 0.09805
vt 0.78733 -0.23042
vt 0.80130 -0.44601
vt 0.77671 -0.24051
vt 0.78975 -0.44164
vt 0.64300 -0.65928
vt 0.53184 -0.69103
vt 0.63464 -0.65044
vt 0.52996 -0.68034
vt 0.40974 -0.70481
vt 0.40975 -0.69390
vt 0.28686 -0.69888
vt 0.28948 -0.68811
vt 0.21428 -0.67302
vt 0.22255 -0.66426
vt -0.12335 -0.49251
vt -0.15368 -0.31010
vt -0.14063 -0.31671
vt -0.11233 -0.48688
vt -0.20564 -0.28873
vt -0.59303 -0.44272
vt -0.58453 -0.26310
vt -0.20564 -0.44263
vt -0.49707 -0.47725
vt -0.37926 -0.49037
vt -0.26322 -0.47607
vt 0.19841 -0.28935
vt 0.60119 -0.26210
vt 0.61072 -0.46343
vt 0.19841 -0.46186
vt 0.50493 -0.50150
vt 0.38428 -0.51494
vt 0.26433 -0.50015
vt -0.39583 -0.35842
vt -0.49728 -0.19434
vt -0.46519 -0.17201
vt -0.35477 -0.35061
vt 0.01362 -0.71428
vt -0.28865 -0.67572
vt -0.28865 -0.63895
vt 0.03309 -0.68000
vt 0.94089 -0.09976
vt 0.82912 -1.11588
vt 0.91749 -0.07140
vt 0.79968 -1.14240
vt 0.10457 0.22799
vt 0.19336 -0.09892
vt 0.14392 0.23269
vt 0.23934 -0.11865
vt -0.35219 -1.10186
vt -0.30917 -1.12729
vt -0.80335 -0.51012
vt -0.84599 -0.29495
vt -0.73175 -0.29495
vt -0.68911 -0.51012
vt -0.84599 0.31308
vt -0.91749 -0.00329
vt -0.80325 -0.00329
vt -0.73175 0.31308
vt 0.80325 -0.07140
vt 0.68544 -1.14240
vt -0.79968 0.03060
vt -0.72828 -0.32640
vt -0.68544 0.03060
vt -0.61404 -0.32640
vt -0.72828 -1.11851
vt -0.80335 -0.34163
vt -0.68911 -0.34163
vt -0.61404 -1.11851
vt -0.74792 -0.24594
vt -0.66511 -0.05778
vt -0.65259 -0.06957
vt -0.73229 -0.25067
vt -0.43324 0.28922
vt -0.53170 -0.01982
vt -0.51286 -0.01790
vt -0.41716 0.28251
vt 0.78957 -0.08449
vt 0.67455 -1.13016
vt -0.00630 -1.30907
vt -0.36727 -1.26160
vt -0.35568 -1.24674
vt -0.00630 -1.29268
vt -0.74131 -1.02272
vt -0.72581 -1.01210
vt -0.21450 -1.01853
vt 0.17394 -0.28036
vt 0.12417 -1.02580
vt -0.21450 0.00371
vt 0.06884 -0.10841
vt 0.18485 -1.04963
vt -0.16746 -1.05719
vt -0.21843 -0.29380
vt 0.18485 0.00235
vt -0.10832 -0.11367
vt 0.06399 -0.69881
vt -0.25070 -0.65743
vt 0.06399 -0.66331
vt -0.26603 -0.61991
vt 0.44449 -0.07550
vt 0.35319 -0.22257
vt 0.41551 -0.04805
vt 0.31220 -0.21445
vt 0.29141 -1.08928
vt 0.24808 -1.11413
vt 0.20330 0.16924
vt 0.11177 -0.16776
vt 0.15112 -0.17246
vt 0.24926 0.18892
vt -0.82912 -1.11588
vt -0.94109 -0.09792
vt -0.91749 -0.07140
vt -0.79968 -1.14240
vt -0.91749 -0.03060
vt -0.85221 -0.35700
vt -0.80325 -0.03060
vt -0.73797 -0.35700
vt 0.85221 -0.24255
vt 0.81274 -0.44372
vt 0.73797 -0.24255
vt 0.69850 -0.44372
vt 0.81274 -0.21301
vt 0.72624 -1.11269
vt 0.69850 -0.21301
vt 0.61200 -1.11269
vt -0.72624 0.39780
vt -0.61200 0.39780
vt -0.80325 -0.07140
vt -0.68544 -1.14240
vt -0.55082 -0.01745
vt -0.46357 -0.33868
vt -0.44729 -0.32962
vt -0.53266 -0.01528
vt 0.73356 0.03558
vt 0.80599 -0.14170
vt 0.72174 0.02171
vt 0.79029 -0.14606
vt 0.78389 -1.04240
vt 0.76857 -1.03153
vt 0.43811 -1.26024
vt 0.06683 -1.30907
vt 0.42655 -1.24538
vt 0.06683 -1.29268
vt -0.78966 -0.08364
vt -0.67455 -1.13016
vt -0.25476 -0.15739
vt 0.15447 -1.01853
vt -0.19465 -1.02602
vt 0.15447 0.00557
vt -0.16285 -0.00124
vt 0.29925 -0.17099
vt 0.23791 -1.05741
vt -0.12482 -1.04963
vt -0.12482 0.00320
vt 0.20083 -0.00378
vn -0.6749 -0.0553 0.7358
vn -0.6748 -0.0563 0.7359
vn -0.6591 -0.1525 0.7364
vn -0.0688 -0.6548 0.7527
vn -0.0374 -0.6529 0.7565
vn -0.0493 -0.6537 0.7551
vn 0.3659 -0.5698 0.7358
vn 0.7213 0.0890 0.6869
vn -0.1790 0.7184 0.6722
vn -0.3839 0.6128 0.6907
vn -0.4398 0.5758 0.6892
vn -0.4831 0.5330 0.6946
vn -0.5290 0.4731 0.7045
vn -0.6651 0.2062 0.7178
vn -0.6778 0.1415 0.7215
vn -0.9685 -0.2490 0.0000
vn -0.9450 -0.3271 0.0000
vn -0.9896 -0.1437 0.0000
vn -0.1414 -0.9899 0.0000
vn 0.4472 -0.8944 0.0000
vn 1.0000 0.0095 0.0000
vn -0.3162 0.9487 0.0000
vn -0.6041 0.7969 0.0000
vn -0.6817 0.7316 0.0000
vn -0.7546 0.6562 0.0000
vn -0.8244 0.5660 0.0000
vn -0.9852 0.1713 0.0000
vn -0.9968 0.0797 0.0000
vn -0.6877 -0.2493 -0.6818
vn -0.6724 -0.3021 -0.6758
vn -0.7048 -0.1786 -0.6866
vn -0.1271 -0.7369 -0.6639
vn -0.0938 -0.7372 -0.6692
vn -0.0971 -0.7372 -0.6687
vn 0.2686 -0.6860 -0.6762
vn 0.6865 -0.0798 -0.7227
vn -0.2714 0.6141 -0.7411
vn -0.5078 0.4554 -0.7312
vn -0.5103 0.4534 -0.7308
vn -0.5748 0.3826 -0.7234
vn -0.6156 0.3123 -0.7235
vn -0.7158 0.0349 -0.6975
vn -0.7202 -0.0280 -0.6932
vn 0.0496 0.1190 0.9917
vn -0.0496 -0.1190 -0.9917
vn -0.0173 -0.6594 0.7516
vn 0.7225 0.0650 0.6883
vn 0.2596 0.7024 0.6628
vn 0.2069 0.7175 0.6651
vn 0.1551 0.7302 0.6654
vn 0.0585 0.7427 0.6671
vn 0.0072 0.7439 0.6682
vn -0.1431 0.7217 0.6773
vn -0.1378 0.7230 0.6770
vn -0.3025 0.6700 0.6780
vn -0.6862 0.0867 0.7223
vn -0.0730 -0.9973 0.0000
vn 0.9997 -0.0256 0.0000
vn 0.3417 0.9398 0.0000
vn 0.2665 0.9638 0.0000
vn 0.1907 0.9816 0.0000
vn 0.0389 0.9992 0.0000
vn -0.0389 0.9992 0.0000
vn -0.2143 0.9768 0.0000
vn -0.3400 0.9404 0.0000
vn -0.4961 0.8682 0.0000
vn -1.0000 0.0000 0.0000
vn -0.0817 -0.7427 -0.6647
vn 0.6848 -0.1050 -0.7211
vn 0.2201 0.6184 -0.7544
vn 0.1330 0.6407 -0.7562
vn 0.1320 0.6409 -0.7562
vn -0.0080 0.6577 -0.7532
vn -0.0662 0.6563 -0.7516
vn -0.1921 0.6328 -0.7501
vn -0.2838 0.6004 -0.7477
vn -0.4006 0.5489 -0.7336
vn -0.7217 -0.0825 -0.6873
vn -0.4616 -0.4714 -0.7514
vn -0.1482 -0.6281 -0.7638
vn -0.1535 -0.6262 -0.7644
vn -0.0593 -0.6543 -0.7539
vn -0.0115 -0.6509 -0.7590
vn 0.3659 -0.5698 -0.7358
vn 0.7212 0.0903 -0.6869
vn -0.1790 0.7184 -0.6722
vn -0.4398 0.5758 -0.6892
vn -0.3839 0.6128 -0.6907
vn -0.5290 0.4731 -0.7045
vn -0.4831 0.5330 -0.6946
vn -0.6714 0.1757 -0.7199
vn -0.6715 0.1753 -0.7200
vn -0.6862 0.0867 -0.7223
vn -0.6644 -0.7474 0.0000
vn 0.9999 0.0115 0.0000
vn -0.4749 -0.5766 0.6648
vn -0.2547 -0.6918 0.6757
vn -0.1695 -0.7235 0.6692
vn -0.0939 -0.7372 0.6691
vn -0.0973 -0.7372 0.6686
vn 0.2686 -0.6860 0.6762
vn 0.6866 -0.0784 0.7228
vn -0.2714 0.6141 0.7411
vn -0.5078 0.4554 0.7312
vn -0.5103 0.4534 0.7308
vn -0.6156 0.3123 0.7235
vn -0.5748 0.3826 0.7234
vn -0.7202 -0.0277 0.6933
vn -0.7157 0.0356 0.6975
vn -0.7217 -0.0825 0.6873
vn 0.0496 0.1190 -0.9917
vn -0.0496 -0.1190 0.9917
vn -0.0173 -0.6594 -0.7516
vn 0.7229 0.0499 -0.6892
vn 0.2596 0.7024 -0.6628
vn 0.1550 0.7302 -0.6654
vn 0.2068 0.7176 -0.6651
vn 0.0072 0.7439 -0.6682
vn 0.0585 0.7427 -0.6671
vn -0.1378 0.7230 -0.6770
vn -0.1431 0.7217 -0.6773
vn -0.3025 0.6700 -0.6780
vn 0.9989 -0.0476 0.0000
vn -0.0817 -0.7427 0.6647
vn 0.6833 -0.1207 0.7201
vn 0.2201 0.6184 0.7544
vn 0.1329 0.6407 0.7562
vn 0.1320 0.6409 0.7562
vn -0.0662 0.6563 0.7516
vn -0.0080 0.6577 0.7532
vn -0.2838 0.6004 0.7477
vn -0.1921 0.6328 0.7501
vn -0.4006 0.5489 0.7336
vn 0.6572 -0.0223 -0.7534
vn 0.7104 -0.5145 -0.4803
vn 0.6985 -0.4127 -0.5846
vn 0.6451 0.0664 -0.7612
vn 0.7092 -0.5851 -0.3934
vn 0.0000 0.0000 1.0000
vn 0.6634 0.7364 -0.1327
vn 0.6368 0.1119 -0.7628
vn 0.0000 -0.5215 -0.8533
vn 0.0000 -0.9350 -0.3547
vn 0.0000 1.0000 0.0000
vn 0.0000 0.0656 -0.9978
vn -0.7864 -0.1343 -0.6029
vn -0.7140 -0.6704 -0.2017
vn -0.7361 -0.5931 -0.3262
vn -0.7864 -0.1336 -0.6031
vn -0.6875 -0.7184 -0.1063
vn -0.7388 0.6575 0.1478
vn -0.7812 -0.0346 -0.6233
vn 0.9749 0.1072 -0.1950
vn -0.9749 -0.1072 0.1950
vn 0.7388 -0.6575 0.1478
vn 0.6615 -0.2626 0.7025
vn 0.6541 0.0020 0.7564
vn 0.6434 0.0767 0.7617
vn 0.6368 0.1134 0.7627
vn 0.6634 0.7364 0.1327
vn 0.0000 0.0000 -1.0000
vn 0.0000 -1.0000 0.0000
vn 0.0000 -0.5070 0.8619
vn 0.0000 0.0680 0.9977
vn -0.6634 -0.7364 -0.1327
vn -0.7415 -0.4575 0.4908
vn -0.7859 -0.1143 0.6077
vn -0.7859 -0.1130 0.6080
vn -0.7813 -0.0328 0.6233
vn -0.7388 0.6575 -0.1478
vn 0.9749 0.1072 0.1950
vn -0.9749 -0.1072 -0.1950
s off
f 1/1/1 9/2/2 2/3/3
f 2/3/3 9/2/2 10/4/3
f 2/5/4 11/6/5 3/7/6
f 2/5/4 10/8/4 11/6/5
f 3/7/6 11/6/5 4/9/7
f 4/9/7 11/6/5 12/10/7
f 4/11/8 12/12/8 5/13/8
f 5/13/8 12/12/8 13/14/8
f 5/15/9 14/16/10 6/17/11
f 5/15/9 13/18/9 14/16/10
f 6/17/11 15/19/12 7/20/13
f 6/17/11 14/16/10 15/19/12
f 7/20/13 16/21/14 8/22/15
f 7/20/13 15/19/12 16/21/14
f 8/22/15 9/23/2 1/24/1
f 8/22/15 16/21/14 9/23/2
f 9/25/16 18/26/17 10/27/17
f 9/25/16 17/28/18 18/26/17
f 10/29/19 18/30/19 11/31/19
f 11/31/19 18/30/19 19/32/19
f 11/33/20 19/34/20 12/35/20
f 12/35/20 19/34/20 20/36/20
f 12/37/21 20/38/21 13/39/21
f 13/39/21 20/38/21 21/40/21
f 13/41/22 22/42/23 14/43/24
f 13/41/22 21/44/22 22/42/23
f 14/43/24 23/45/25 15/46/26
f 14/43/24 22/42/23 23/45/25
f 15/46/26 24/47/27 16/48/28
f 15/46/26 23/45/25 24/47/27
f 16/49/28 17/28/18 9/25/16
f 16/49/28 24/50/27 17/28/18
f 17/51/29 26/52/30 18/53/30
f 17/51/29 25/54/31 26/52/30
f 18/55/32 26/56/32 19/57/33
f 19/57/33 26/56/32 27/58/34
f 19/57/33 28/59/35 20/60/35
f 19/57/33 27/58/34 28/59/35
f 20/61/36 29/62/36 21/63/36
f 20/61/36 28/64/36 29/62/36
f 21/65/37 29/66/37 22/67/38
f 22/67/38 29/66/37 30/68/39
f 22/67/38 31/69/40 23/70/41
f 22/67/38 30/68/39 31/69/40
f 23/70/41 32/71/42 24/72/43
f 23/70/41 31/69/40 32/71/42
f 24/72/43 25/73/31 17/74/29
f 24/72/43 32/71/42 25/73/31
f 1/75/44 2/76/44 3/77/44
f 8/78/44 1/75/44 3/77/44
f 7/79/44 8/78/44 3/77/44
f 6/80/44 7/79/44 3/77/44
f 4/81/44 5/82/44 6/80/44
f 3/77/44 4/81/44 6/80/44
f 25/83/45 27/84/45 26/85/45
f 32/86/45 27/84/45 25/83/45
f 31/87/45 27/84/45 32/86/45
f 30/88/45 27/84/45 31/87/45
f 28/89/45 30/88/45 29/90/45
f 27/84/45 30/88/45 28/89/45
f 33/91/46 40/92/46 34/93/46
f 34/93/46 40/92/46 41/94/46
f 34/95/47 42/96/47 35/97/47
f 34/95/47 41/98/47 42/96/47
f 35/99/48 43/100/49 36/101/50
f 35/99/48 42/102/48 43/100/49
f 36/101/50 44/103/51 37/104/52
f 36/101/50 43/100/49 44/103/51
f 37/104/52 45/105/53 38/106/54
f 37/104/52 44/103/51 45/105/53
f 38/106/54 45/105/53 39/107/55
f 39/107/55 45/105/53 46/108/55
f 39/109/56 46/110/56 33/111/56
f 33/111/56 46/110/56 40/112/56
f 40/113/57 47/114/57 41/115/57
f 41/115/57 47/114/57 48/116/57
f 41/117/58 48/118/58 42/119/58
f 42/119/58 48/118/58 49/120/58
f 42/121/59 50/122/60 43/123/61
f 42/121/59 49/124/59 50/122/60
f 43/123/61 51/125/62 44/126/63
f 43/123/61 50/122/60 51/125/62
f 44/126/63 52/127/64 45/128/65
f 44/126/63 51/125/62 52/127/64
f 45/129/65 53/130/66 46/131/66
f 45/129/65 52/132/64 53/130/66
f 46/133/67 47/134/67 40/135/67
f 46/133/67 53/136/67 47/134/67
f 47/137/68 55/138/68 48/139/68
f 47/137/68 54/140/68 55/138/68
f 48/141/69 55/142/69 49/143/69
f 49/143/69 55/142/69 56/144/69
f 49/145/70 56/146/70 50/147/71
f 50/147/71 56/146/70 57/148/72
f 50/147/71 58/149/73 51/150/74
f 50/147/71 57/148/72 58/149/73
f 51/150/74 59/151/75 52/152/76
f 51/150/74 58/149/73 59/151/75
f 52/152/76 60/153/77 53/154/77
f 52/152/76 59/151/75 60/153/77
f 53/155/78 54/156/78 47/157/78
f 53/155/78 60/158/78 54/156/78
f 33/159/44 34/160/44 35/161/44
f 39/162/44 33/159/44 35/161/44
f 39/162/44 35/161/44 36/163/44
f 39/162/44 36/163/44 37/164/44
f 37/164/44 38/165/44 39/162/44
f 54/166/45 56/167/45 55/168/45
f 60/169/45 56/167/45 54/166/45
f 60/169/45 57/170/45 56/167/45
f 60/169/45 58/171/45 57/170/45
f 58/171/45 60/169/45 59/172/45
f 61/173/79 62/174/80 70/175/81
f 61/173/79 70/175/81 69/176/79
f 62/174/80 63/177/82 70/175/81
f 63/177/82 71/178/83 70/175/81
f 63/177/82 64/179/84 71/178/83
f 64/179/84 72/180/84 71/178/83
f 64/181/85 65/182/85 72/183/85
f 65/182/85 73/184/85 72/183/85
f 65/185/86 66/186/87 74/187/88
f 65/185/86 74/187/88 73/188/86
f 66/186/87 67/189/89 75/190/90
f 66/186/87 75/190/90 74/187/88
f 67/189/89 68/191/91 76/192/92
f 67/189/89 76/192/92 75/190/90
f 68/191/91 61/193/93 76/192/92
f 61/193/93 69/194/93 76/192/92
f 69/195/94 70/196/94 78/197/94
f 69/195/94 78/197/94 77/198/94
f 70/199/19 71/200/19 78/201/19
f 71/200/19 79/202/19 78/201/19
f 71/203/20 72/204/20 79/205/20
f 72/204/20 80/206/20 79/205/20
f 72/207/95 73/208/95 80/209/95
f 73/208/95 81/210/95 80/209/95
f 73/211/22 74/212/24 82/213/23
f 73/211/22 82/213/23 81/214/22
f 74/212/24 75/215/26 83/216/25
f 74/212/24 83/216/25 82/213/23
f 75/215/26 76/217/28 84/218/27
f 75/215/26 84/218/27 83/216/25
f 76/219/28 69/220/67 77/221/67
f 76/219/28 77/221/67 84/222/27
f 77/223/96 78/224/97 85/225/96
f 78/224/97 86/226/98 85/225/96
f 78/224/97 79/227/99 86/226/98
f 79/227/99 87/228/100 86/226/98
f 79/227/99 80/229/101 88/230/101
f 79/227/99 88/230/101 87/228/100
f 80/231/102 81/232/102 89/233/102
f 80/231/102 89/233/102 88/234/102
f 81/235/103 82/236/104 89/237/103
f 82/236/104 90/238/105 89/237/103
f 82/236/104 83/239/106 91/240/107
f 82/236/104 91/240/107 90/238/105
f 83/239/106 84/241/108 92/242/109
f 83/239/106 92/242/109 91/240/107
f 84/241/108 77/243/110 85/244/110
f 84/241/108 85/244/110 92/242/109
f 68/245/111 62/246/111 61/247/111
f 68/245/111 63/248/111 62/246/111
f 67/249/111 63/248/111 68/245/111
f 66/250/111 63/248/111 67/249/111
f 64/251/111 66/250/111 65/252/111
f 63/248/111 66/250/111 64/251/111
f 92/253/112 85/254/112 86/255/112
f 92/253/112 86/255/112 87/256/112
f 91/257/112 92/253/112 87/256/112
f 90/258/112 91/257/112 87/256/112
f 88/259/112 89/260/112 90/258/112
f 87/256/112 88/259/112 90/258/112
f 93/261/113 94/262/113 100/263/113
f 94/262/113 101/264/113 100/263/113
f 94/265/114 95/266/114 102/267/114
f 94/265/114 102/267/114 101/268/114
f 95/269/115 96/270/116 103/271/117
f 95/269/115 103/271/117 102/272/115
f 96/270/116 97/273/118 104/274/119
f 96/270/116 104/274/119 103/271/117
f 97/273/118 98/275/120 105/276/121
f 97/273/118 105/276/121 104/274/119
f 98/275/120 99/277/122 105/276/121
f 99/277/122 106/278/122 105/276/121
f 99/279/93 93/280/93 106/281/93
f 93/280/93 100/282/93 106/281/93
f 100/283/57 101/284/57 107/285/57
f 101/284/57 108/286/57 107/285/57
f 101/287/123 102/288/123 108/289/123
f 102/288/123 109/290/123 108/289/123
f 102/291/59 103/292/61 110/293/60
f 102/291/59 110/293/60 109/294/59
f 103/292/61 104/295/63 111/296/62
f 103/292/61 111/296/62 110/293/60
f 104/295/63 105/297/65 112/298/64
f 104/295/63 112/298/64 111/296/62
f 105/299/65 106/300/66 113/301/66
f 105/299/65 113/301/66 112/302/64
f 106/303/67 100/304/67 107/305/67
f 106/303/67 107/305/67 113/306/67
f 107/307/124 108/308/124 115/309/124
f 107/307/124 115/309/124 114/310/124
f 108/311/125 109/312/125 115/313/125
f 109/312/125 116/314/125 115/313/125
f 109/315/126 110/316/127 116/317/126
f 110/316/127 117/318/128 116/317/126
f 110/316/127 111/319/129 118/320/130
f 110/316/127 118/320/130 117/318/128
f 111/319/129 112/321/131 119/322/132
f 111/319/129 119/322/132 118/320/130
f 112/321/131 113/323/133 120/324/133
f 112/321/131 120/324/133 119/322/132
f 113/325/110 107/326/110 114/327/110
f 113/325/110 114/327/110 120/328/110
f 93/329/111 95/330/111 94/331/111
f 99/332/111 95/330/111 93/329/111
f 99/332/111 96/333/111 95/330/111
f 99/332/111 97/334/111 96/333/111
f 97/334/111 99/332/111 98/335/111
f 114/336/112 115/337/112 116/338/112
f 120/339/112 114/336/112 116/338/112
f 120/339/112 116/338/112 117/340/112
f 120/339/112 117/340/112 118/341/112
f 118/341/112 119/342/112 120/339/112
f 121/343/134 122/344/135 127/345/136
f 121/343/134 127/345/136 126/346/137
f 122/347/135 123/348/138 128/349/138
f 122/347/135 128/349/138 127/350/136
f 123/351/139 124/352/139 128/353/139
f 124/352/139 129/354/139 128/353/139
f 124/355/140 125/356/140 129/357/140
f 125/356/140 130/358/140 129/357/140
f 125/359/141 121/343/134 126/346/137
f 125/359/141 126/346/137 130/360/141
f 126/361/142 127/362/142 132/363/142
f 126/361/142 132/363/142 131/364/142
f 127/365/143 128/366/143 133/367/143
f 127/365/143 133/367/143 132/368/143
f 128/353/139 129/354/139 133/369/139
f 129/354/139 134/370/139 133/369/139
f 129/371/144 130/372/144 134/373/144
f 130/372/144 135/374/144 134/373/144
f 130/375/145 126/376/145 131/377/145
f 130/375/145 131/377/145 135/378/145
f 131/379/146 132/380/147 137/381/148
f 131/379/146 137/381/148 136/382/149
f 132/383/147 133/384/150 138/385/150
f 132/383/147 138/385/150 137/386/148
f 133/369/139 134/370/139 138/387/139
f 134/370/139 139/388/139 138/387/139
f 134/389/151 135/390/151 140/391/151
f 134/389/151 140/391/151 139/392/151
f 135/393/152 131/379/146 140/394/152
f 131/379/146 136/382/149 140/394/152
f 124/395/153 121/396/153 125/397/153
f 123/398/153 121/396/153 124/395/153
f 121/396/153 123/398/153 122/399/153
f 139/400/154 140/401/154 136/402/154
f 138/403/154 139/400/154 136/402/154
f 136/402/154 137/404/154 138/403/154
f 141/405/155 142/406/155 146/407/155
f 142/406/155 147/408/155 146/407/155
f 142/409/156 143/410/157 147/411/156
f 143/410/157 148/412/158 147/411/156
f 143/410/157 144/413/159 148/412/158
f 144/413/159 149/414/159 148/412/158
f 144/415/160 145/416/160 150/417/160
f 144/415/160 150/417/160 149/418/160
f 145/419/161 141/420/161 146/421/161
f 145/419/161 146/421/161 150/422/161
f 146/423/162 147/424/162 151/425/162
f 147/424/162 152/426/162 151/425/162
f 147/427/163 148/428/163 152/429/163
f 148/428/163 153/430/163 152/429/163
f 148/431/164 149/432/164 153/433/164
f 149/432/164 154/434/164 153/433/164
f 149/435/144 150/371/144 155/373/144
f 149/435/144 155/373/144 154/436/144
f 150/422/161 146/421/161 151/437/161
f 150/422/161 151/437/161 155/438/161
f 151/439/165 152/440/165 157/441/165
f 151/439/165 157/441/165 156/442/165
f 152/443/166 153/444/167 157/445/166
f 153/444/167 158/446/168 157/445/166
f 153/444/167 154/447/169 159/448/169
f 153/444/167 159/448/169 158/446/168
f 154/449/170 155/450/170 159/451/170
f 155/450/170 160/452/170 159/451/170
f 155/438/161 151/437/161 156/453/161
f 155/438/161 156/453/161 160/454/161
f 143/455/171 145/456/171 144/457/171
f 143/455/171 141/458/171 145/456/171
f 141/458/171 143/455/171 142/459/171
f 158/460/172 159/461/172 160/462/172
f 158/460/172 160/462/172 156/463/172
f 156/463/172 157/464/172 158/460/172
