# mech2 head - Blue (studs, origin = neck base, -Z forward)
# colour RGB (47, 111, 191)
# generated by source/build.py
o Head_Blue
v -1.18924 2.42352 0.93024
v -1.13098 2.28480 0.96288
v -1.01445 2.00736 0.85680
v -0.93220 1.81152 0.71808
v -0.85680 1.06080 0.73440
v -0.85680 0.83232 0.50592
v -0.85680 0.83232 0.16320
v -0.85680 1.35456 0.16320
v -0.85680 1.59936 0.00000
v -0.93220 1.81152 0.03264
v -1.06929 2.13792 0.42432
v -1.18238 2.40720 0.81600
v -1.28243 2.42352 0.93024
v -1.29907 2.28480 0.96288
v -1.33236 2.00736 0.85680
v -1.33824 1.81152 0.71808
v -1.33824 1.06080 0.73440
v -1.33824 0.83232 0.50592
v -1.33824 0.83232 0.16320
v -1.33824 1.35456 0.16320
v -1.33824 1.59936 0.00000
v -1.33824 1.81152 0.03264
v -1.31670 2.13792 0.42432
v -1.28438 2.40720 0.81600
v 1.18924 2.42352 0.93024
v 1.13098 2.28480 0.96288
v 1.01445 2.00736 0.85680
v 0.93220 1.81152 0.71808
v 0.85680 1.06080 0.73440
v 0.85680 0.83232 0.50592
v 0.85680 0.83232 0.16320
v 0.85680 1.35456 0.16320
v 0.85680 1.59936 0.00000
v 0.93220 1.81152 0.03264
v 1.06929 2.13792 0.42432
v 1.18238 2.40720 0.81600
v 1.28243 2.42352 0.93024
v 1.29907 2.28480 0.96288
v 1.33236 2.00736 0.85680
v 1.33824 1.81152 0.71808
v 1.33824 1.06080 0.73440
v 1.33824 0.83232 0.50592
v 1.33824 0.83232 0.16320
v 1.33824 1.35456 0.16320
v 1.33824 1.59936 0.00000
v 1.33824 1.81152 0.03264
v 1.31670 2.13792 0.42432
v 1.28438 2.40720 0.81600
v -0.91392 0.83232 0.65280
v -0.71578 0.76990 0.68596
v -0.72312 0.68912 0.70799
v -0.93024 0.65280 0.70176
v -1.12838 0.71522 0.66860
v -1.12104 0.79600 0.64657
v -0.87312 0.32640 -0.10200
v -0.72846 0.29226 -0.08099
v -0.73213 0.25186 -0.06997
v -0.88128 0.23664 -0.07752
v -1.02594 0.27078 -0.09853
v -1.02227 0.31118 -0.10955
v -0.84048 -0.07834 -0.70584
v -0.73860 -0.08986 -0.69455
v -0.73934 -0.09794 -0.69234
v -0.84211 -0.09629 -0.70094
v -0.94399 -0.08476 -0.71224
v -0.94326 -0.07668 -0.71444
v -0.83232 -0.17952 -0.85680
v 0.91392 0.83232 0.65280
v 0.71578 0.76990 0.68596
v 0.72312 0.68912 0.70799
v 0.93024 0.65280 0.70176
v 1.12838 0.71522 0.66860
v 1.12104 0.79600 0.64657
v 0.87312 0.32640 -0.10200
v 0.72846 0.29226 -0.08099
v 0.73213 0.25186 -0.06997
v 0.88128 0.23664 -0.07752
v 1.02594 0.27078 -0.09853
v 1.02227 0.31118 -0.10955
v 0.84048 -0.07834 -0.70584
v 0.73860 -0.08986 -0.69455
v 0.73934 -0.09794 -0.69234
v 0.84211 -0.09629 -0.70094
v 0.94399 -0.08476 -0.71224
v 0.94326 -0.07668 -0.71444
v 0.83232 -0.17952 -0.85680
vt -0.29731 -0.53651
vt -0.32477 -0.50088
vt -0.28274 -0.50088
vt -0.32061 -0.53651
vt -0.28274 -0.61653
vt -0.33309 -0.54297
vt -0.25361 -0.54297
vt -0.32477 -0.61653
vt -0.33456 -0.48336
vt -0.23305 -0.48336
vt -0.23305 -0.44887
vt -0.33456 -0.26115
vt -0.21420 -0.26115
vt -0.33456 -0.44887
vt 0.21420 -0.31735
vt 0.33456 -0.23657
vt 0.21420 -0.23657
vt 0.33456 -0.31735
vt 0.21420 -0.12648
vt 0.33456 -0.04080
vt 0.21420 -0.04080
vt 0.33456 -0.12648
vt 0.21420 -0.20808
vt 0.33456 -0.33864
vt 0.21420 -0.33864
vt 0.33456 -0.20808
vt 0.21420 -0.25913
vt 0.33456 -0.33269
vt 0.21420 -0.33269
vt 0.33456 -0.25913
vt 0.21420 -0.39519
vt 0.33456 -0.39519
vt 0.23305 -0.44885
vt 0.33456 -0.44885
vt 0.23305 0.27783
vt 0.33456 0.27783
vt 0.26732 0.40512
vt 0.32917 0.40512
vt 0.29560 0.52386
vt 0.32110 0.52386
vt 0.29731 0.54917
vt 0.32061 0.54917
vt -0.13036 -0.24604
vt -0.04470 -0.24604
vt -0.04411 -0.37406
vt -0.18721 -0.30205
vt -0.18270 -0.48978
vt -0.20792 -0.64807
vt -0.23649 -0.65241
vt -0.24448 -0.61555
vt -0.00305 -0.43408
vt -0.01139 -0.48978
vt -0.10969 -0.57652
vt -0.21762 -0.54182
vt 0.12693 -0.19867
vt 0.04126 -0.32918
vt 0.04125 -0.19867
vt 0.18406 -0.25577
vt 0.17998 -0.44337
vt 0.20445 -0.59261
vt 0.24118 -0.56192
vt 0.23301 -0.59670
vt 0.00046 -0.39035
vt 0.21466 -0.49236
vt 0.10654 -0.52509
vt 0.00862 -0.44337
vt 0.29731 -0.53651
vt 0.28274 -0.50088
vt 0.32477 -0.50088
vt 0.32061 -0.53651
vt 0.28274 -0.61653
vt 0.25361 -0.54297
vt 0.33309 -0.54297
vt 0.32477 -0.61653
vt 0.23305 -0.48336
vt 0.33456 -0.48336
vt 0.23305 -0.44887
vt 0.21420 -0.26115
vt 0.33456 -0.26115
vt 0.33456 -0.44887
vt -0.21420 -0.31735
vt -0.21420 -0.23657
vt -0.33456 -0.23657
vt -0.33456 -0.31735
vt -0.21420 -0.12648
vt -0.21420 -0.04080
vt -0.33456 -0.04080
vt -0.33456 -0.12648
vt -0.21420 -0.20808
vt -0.21420 -0.33864
vt -0.33456 -0.33864
vt -0.33456 -0.20808
vt -0.21420 -0.25913
vt -0.21420 -0.33269
vt -0.33456 -0.33269
vt -0.33456 -0.25913
vt -0.21420 -0.39519
vt -0.23305 -0.44885
vt -0.33456 -0.39519
vt -0.33456 -0.44885
vt -0.23305 0.27783
vt -0.26732 0.40512
vt -0.33456 0.27783
vt -0.32917 0.40512
vt -0.29560 0.52386
vt -0.32110 0.52386
vt -0.29731 0.54917
vt -0.32061 0.54917
vt 0.13036 -0.24604
vt 0.04411 -0.37406
vt 0.04470 -0.24604
vt 0.18721 -0.30205
vt 0.18270 -0.48978
vt 0.20792 -0.64807
vt 0.24448 -0.61555
vt 0.23649 -0.65241
vt 0.00305 -0.43408
vt 0.01139 -0.48978
vt 0.10969 -0.57652
vt 0.21762 -0.54182
vt -0.12693 -0.19867
vt -0.04125 -0.19867
vt -0.04126 -0.32918
vt -0.18406 -0.25577
vt -0.17998 -0.44337
vt -0.20445 -0.59261
vt -0.23301 -0.59670
vt -0.24118 -0.56192
vt -0.00046 -0.39035
vt -0.21466 -0.49236
vt -0.10654 -0.52509
vt -0.00862 -0.44337
vt 0.23624 0.25036
vt 0.18512 0.24878
vt 0.22580 0.02321
vt 0.18877 0.02295
vt -0.17706 -0.17702
vt -0.18257 -0.15674
vt 0.01479 -0.05776
vt 0.01204 -0.04762
vt 0.18678 -0.23746
vt 0.23755 -0.23179
vt 0.18859 -0.01439
vt 0.22543 -0.01093
vt 0.28863 -0.23187
vt 0.26243 -0.01034
vt 0.21234 -0.16576
vt 0.20675 -0.18602
vt 0.01533 -0.06606
vt 0.01813 -0.05593
vt 0.28701 0.24410
vt 0.26264 0.01956
vt 0.21744 -0.15850
vt 0.19169 -0.15771
vt 0.16827 0.03765
vt 0.16772 0.03968
vt 0.19003 0.16406
vt 0.21573 0.16576
vt 0.24147 0.16688
vt -0.13780 0.02990
vt -0.13724 0.03193
vt 0.24315 -0.16008
vt -0.21160 -0.15638
vt -0.16377 -0.11819
vt -0.16192 -0.13912
vt -0.21570 -0.10987
vt -0.26353 -0.14806
vt -0.26537 -0.12713
vt 0.21535 -0.20393
vt 0.20820 0.06193
vt 0.21331 0.20993
vt -0.17764 0.05432
vt -0.23624 0.25036
vt -0.22580 0.02321
vt -0.18512 0.24878
vt -0.18877 0.02295
vt 0.17706 -0.17702
vt -0.01479 -0.05776
vt 0.18257 -0.15674
vt -0.01204 -0.04762
vt -0.18678 -0.23746
vt -0.18859 -0.01439
vt -0.23755 -0.23179
vt -0.22543 -0.01093
vt -0.26243 -0.01034
vt -0.28863 -0.23187
vt -0.21234 -0.16576
vt -0.01533 -0.06606
vt -0.20675 -0.18602
vt -0.01813 -0.05593
vt -0.28701 0.24410
vt -0.26264 0.01956
vt -0.21744 -0.15850
vt -0.19169 -0.15771
vt -0.16827 0.03765
vt -0.16772 0.03968
vt -0.19003 0.16406
vt -0.21573 0.16576
vt -0.24147 0.16688
vt 0.13780 0.02990
vt 0.13724 0.03193
vt -0.24315 -0.16008
vt 0.21160 -0.15638
vt 0.16192 -0.13912
vt 0.16377 -0.11819
vt 0.21570 -0.10987
vt 0.26353 -0.14806
vt 0.26537 -0.12713
vt -0.21535 -0.20393
vt -0.20820 0.06193
vt -0.21331 0.20993
vt 0.17764 0.05432
vn 0.0000 0.2290 0.9734
vn 0.0000 -0.3571 0.9341
vn 0.0000 -0.4366 0.8996
vn 0.0000 -0.5039 0.8638
vn 0.0000 -0.5780 0.8160
vn 0.0000 0.0217 0.9998
vn 0.0000 -0.7071 0.7071
vn 0.0000 -1.0000 0.0000
vn 0.0000 0.0000 -1.0000
vn 0.0000 -0.5547 -0.8321
vn 0.0000 0.1521 -0.9884
vn 0.0000 0.7682 -0.6402
vn 0.0000 0.7834 -0.6215
vn 0.0000 0.8008 -0.5990
vn 0.0000 0.8404 -0.5419
vn 0.0000 0.8971 -0.4418
vn 0.0000 0.9899 -0.1414
vn 1.0000 0.0000 0.0000
vn 0.9977 0.0546 0.0401
vn 0.9970 0.0691 0.0355
vn 0.9704 0.2396 0.0309
vn 0.9220 0.3872 0.0000
vn 0.9829 0.1768 0.0510
vn 0.9302 0.3670 0.0000
vn -1.0000 0.0000 0.0000
vn -0.9998 0.0195 -0.0066
vn -0.9929 0.1191 0.0000
vn -0.9997 0.0255 -0.0000
vn -0.9954 0.0960 -0.0071
vn -0.9981 0.0618 -0.0036
vn -0.9980 -0.0097 0.0630
vn -0.9977 0.0546 0.0401
vn -0.9970 0.0691 0.0355
vn -0.9704 0.2396 0.0309
vn -0.9220 0.3872 0.0000
vn -0.9829 0.1768 0.0510
vn -0.9302 0.3670 0.0000
vn 0.9998 0.0195 -0.0066
vn 0.9929 0.1191 0.0000
vn 0.9997 0.0255 -0.0000
vn 0.9954 0.0960 -0.0071
vn 0.9981 0.0618 -0.0036
vn 0.9980 -0.0097 0.0630
vn 0.1068 0.8286 -0.5496
vn 0.3069 0.8019 -0.5126
vn 0.1065 0.8315 -0.5452
vn 0.2407 0.8191 -0.5208
vn 0.9961 -0.0812 0.0341
vn 0.1370 -0.8642 0.4841
vn -0.1022 -0.8767 0.4701
vn 0.0966 -0.8708 0.4821
vn -0.1021 -0.8773 0.4689
vn -0.3360 -0.8337 0.4382
vn -0.2971 -0.8454 0.4439
vn -0.9863 0.0464 -0.1586
vn -0.0984 0.8280 -0.5520
vn -0.0303 0.8365 -0.5471
vn 0.1064 0.8335 -0.5422
vn 0.1531 0.8351 -0.5283
vn 0.9961 -0.0868 0.0137
vn 0.9919 -0.1084 -0.0669
vn 0.0100 -0.8774 0.4797
vn -0.1018 -0.8802 0.4636
vn -0.2132 -0.8630 0.4581
vn -0.9831 0.0406 -0.1787
vn -0.9662 0.0177 -0.2572
vn 0.0585 0.8412 -0.5375
vn -0.0760 0.2688 0.9602
vn 0.8921 -0.1926 -0.4088
vn -0.8142 -0.0827 -0.5747
vn -0.1068 0.8286 -0.5496
vn -0.1065 0.8315 -0.5452
vn -0.3069 0.8019 -0.5126
vn -0.2407 0.8191 -0.5208
vn -0.9961 -0.0812 0.0341
vn -0.1370 -0.8642 0.4841
vn -0.0966 -0.8708 0.4821
vn 0.1022 -0.8767 0.4701
vn 0.1021 -0.8773 0.4689
vn 0.2971 -0.8454 0.4439
vn 0.3360 -0.8337 0.4382
vn 0.9863 0.0464 -0.1586
vn 0.0984 0.8280 -0.5520
vn 0.0303 0.8365 -0.5471
vn -0.1064 0.8335 -0.5422
vn -0.1531 0.8351 -0.5283
vn -0.9961 -0.0868 0.0137
vn -0.9919 -0.1084 -0.0669
vn -0.0100 -0.8774 0.4797
vn 0.1018 -0.8802 0.4636
vn 0.2132 -0.8630 0.4581
vn 0.9831 0.0406 -0.1787
vn 0.9662 0.0177 -0.2572
vn -0.0585 0.8412 -0.5375
vn 0.0760 0.2688 0.9602
vn -0.8921 -0.1926 -0.4088
vn 0.8142 -0.0827 -0.5747
s off
f 1/1/1 14/2/1 2/3/1
f 1/1/1 13/4/1 14/2/1
f 2/5/2 15/6/3 3/7/4
f 2/5/2 14/8/2 15/6/3
f 3/7/4 16/9/5 4/10/5
f 3/7/4 15/6/3 16/9/5
f 4/11/6 17/12/6 5/13/6
f 4/11/6 16/14/6 17/12/6
f 5/15/7 18/16/7 6/17/7
f 5/15/7 17/18/7 18/16/7
f 6/19/8 19/20/8 7/21/8
f 6/19/8 18/22/8 19/20/8
f 7/23/9 20/24/9 8/25/9
f 7/23/9 19/26/9 20/24/9
f 8/27/10 21/28/10 9/29/10
f 8/27/10 20/30/10 21/28/10
f 9/31/11 21/32/11 10/33/11
f 10/33/11 21/32/11 22/34/11
f 10/35/12 22/36/12 11/37/13
f 11/37/13 22/36/12 23/38/14
f 11/37/13 23/38/14 12/39/15
f 12/39/15 23/38/14 24/40/16
f 12/39/15 24/40/16 1/41/17
f 1/41/17 24/40/16 13/42/17
f 6/43/18 7/44/18 8/45/19
f 5/46/20 6/43/18 8/45/19
f 4/47/21 5/46/20 8/45/19
f 12/48/22 1/49/22 2/50/22
f 4/47/21 8/45/19 9/51/23
f 4/47/21 9/51/23 10/52/24
f 4/47/21 10/52/24 11/53/22
f 4/47/21 11/53/22 12/48/22
f 3/54/22 4/47/21 12/48/22
f 2/50/22 3/54/22 12/48/22
f 18/55/25 20/56/25 19/57/25
f 17/58/25 20/56/25 18/55/25
f 16/59/26 20/56/25 17/58/25
f 24/60/27 14/61/27 13/62/27
f 16/59/26 21/63/28 20/56/25
f 24/60/27 15/64/29 14/61/27
f 23/65/30 15/64/29 24/60/27
f 23/65/30 16/59/26 15/64/29
f 23/65/30 21/63/28 16/59/26
f 21/63/28 23/65/30 22/66/31
f 25/67/1 26/68/1 38/69/1
f 25/67/1 38/69/1 37/70/1
f 26/71/2 27/72/4 39/73/3
f 26/71/2 39/73/3 38/74/2
f 27/72/4 28/75/5 40/76/5
f 27/72/4 40/76/5 39/73/3
f 28/77/6 29/78/6 41/79/6
f 28/77/6 41/79/6 40/80/6
f 29/81/7 30/82/7 42/83/7
f 29/81/7 42/83/7 41/84/7
f 30/85/8 31/86/8 43/87/8
f 30/85/8 43/87/8 42/88/8
f 31/89/9 32/90/9 44/91/9
f 31/89/9 44/91/9 43/92/9
f 32/93/10 33/94/10 45/95/10
f 32/93/10 45/95/10 44/96/10
f 33/97/11 34/98/11 45/99/11
f 34/98/11 46/100/11 45/99/11
f 34/101/12 35/102/13 46/103/12
f 35/102/13 47/104/14 46/103/12
f 35/102/13 36/105/15 47/104/14
f 36/105/15 48/106/16 47/104/14
f 36/105/15 25/107/17 48/106/16
f 25/107/17 37/108/17 48/106/16
f 30/109/25 32/110/32 31/111/25
f 29/112/33 32/110/32 30/109/25
f 28/113/34 32/110/32 29/112/33
f 36/114/35 26/115/35 25/116/35
f 28/113/34 33/117/36 32/110/32
f 28/113/34 34/118/37 33/117/36
f 28/113/34 35/119/35 34/118/37
f 28/113/34 36/114/35 35/119/35
f 27/120/35 36/114/35 28/113/34
f 26/115/35 36/114/35 27/120/35
f 42/121/18 43/122/18 44/123/18
f 41/124/18 42/121/18 44/123/18
f 40/125/38 41/124/18 44/123/18
f 48/126/39 37/127/39 38/128/39
f 40/125/38 44/123/18 45/129/40
f 48/126/39 38/128/39 39/130/41
f 47/131/42 48/126/39 39/130/41
f 47/131/42 39/130/41 40/125/38
f 47/131/42 40/125/38 45/129/40
f 45/129/40 46/132/43 47/131/42
f 49/133/44 50/134/45 55/135/46
f 50/134/45 56/136/47 55/135/46
f 50/137/48 51/138/48 56/139/48
f 51/138/48 57/140/48 56/139/48
f 51/141/49 52/142/50 57/143/51
f 52/142/50 58/144/52 57/143/51
f 52/142/50 53/145/53 59/146/54
f 52/142/50 59/146/54 58/144/52
f 53/147/55 54/148/55 60/149/55
f 53/147/55 60/149/55 59/150/55
f 54/151/56 49/133/44 55/135/46
f 54/151/56 55/135/46 60/152/57
f 55/135/46 56/136/47 61/153/58
f 56/136/47 62/154/59 61/153/58
f 56/139/48 57/140/48 62/155/60
f 57/140/48 63/156/61 62/155/60
f 57/143/51 58/144/52 63/157/62
f 58/144/52 64/158/63 63/157/62
f 58/144/52 59/146/54 65/159/64
f 58/144/52 65/159/64 64/158/63
f 59/150/55 60/149/55 66/160/65
f 59/150/55 66/160/65 65/161/66
f 60/152/57 55/135/46 61/153/58
f 60/152/57 61/153/58 66/162/67
f 49/163/68 51/164/68 50/165/68
f 49/163/68 52/166/68 51/164/68
f 54/167/68 52/166/68 49/163/68
f 52/166/68 54/167/68 53/168/68
f 67/169/44 61/153/58 62/154/59
f 67/170/69 62/155/60 63/156/61
f 67/171/63 63/157/62 64/158/63
f 67/171/63 64/158/63 65/159/64
f 67/172/70 65/161/66 66/160/65
f 67/169/44 66/162/67 61/153/58
f 68/173/71 74/174/72 69/175/73
f 69/175/73 74/174/72 75/176/74
f 69/177/75 75/178/75 70/179/75
f 70/179/75 75/178/75 76/180/75
f 70/181/76 76/182/77 71/183/78
f 71/183/78 76/182/77 77/184/79
f 71/183/78 78/185/80 72/186/81
f 71/183/78 77/184/79 78/185/80
f 72/187/82 79/188/82 73/189/82
f 72/187/82 78/190/82 79/188/82
f 73/191/83 74/174/72 68/173/71
f 73/191/83 79/192/84 74/174/72
f 74/174/72 80/193/85 75/176/74
f 75/176/74 80/193/85 81/194/86
f 75/178/75 81/195/87 76/180/75
f 76/180/75 81/195/87 82/196/88
f 76/182/77 82/197/89 77/184/79
f 77/184/79 82/197/89 83/198/90
f 77/184/79 84/199/91 78/185/80
f 77/184/79 83/198/90 84/199/91
f 78/190/82 85/200/92 79/188/82
f 78/190/82 84/201/93 85/200/92
f 79/192/84 80/193/85 74/174/72
f 79/192/84 85/202/94 80/193/85
f 68/203/95 69/204/95 70/205/95
f 68/203/95 70/205/95 71/206/95
f 73/207/95 68/203/95 71/206/95
f 71/206/95 72/208/95 73/207/95
f 86/209/71 81/194/86 80/193/85
f 86/210/96 82/196/88 81/195/87
f 86/211/90 83/198/90 82/197/89
f 86/211/90 84/199/91 83/198/90
f 86/212/97 85/200/92 84/201/93
f 86/209/71 80/193/85 85/202/94
