# mech2 head - Neck (studs, origin = neck base, -Z forward)
# colour RGB (120, 122, 128)
# generated by source/build.py
o Head_Neck
v 0.61819 -0.48960 0.23108
v 0.25606 -0.48960 0.55788
v -0.25606 -0.48960 0.55788
v -0.61819 -0.48960 0.23108
v -0.61819 -0.48960 -0.23108
v -0.25606 -0.48960 -0.55788
v 0.25606 -0.48960 -0.55788
v 0.61819 -0.48960 -0.23108
v 0.61819 1.06080 0.23108
v 0.25606 1.06080 0.55788
v -0.25606 1.06080 0.55788
v -0.61819 1.06080 0.23108
v -0.61819 1.06080 -0.23108
v -0.25606 1.06080 -0.55788
v 0.25606 1.06080 -0.55788
v 0.61819 1.06080 -0.23108
vt 0.07603 0.12240
vt -0.04591 -0.26520
vt -0.04591 0.12240
vt 0.07603 -0.26520
vt 0.06402 0.12240
vt -0.06402 -0.26520
vt -0.06402 0.12240
vt 0.06402 -0.26520
vt 0.04591 0.12240
vt -0.07603 -0.26520
vt -0.07603 0.12240
vt 0.04591 -0.26520
vt 0.05777 0.12240
vt -0.05777 -0.26520
vt -0.05777 0.12240
vt 0.05777 -0.26520
vt -0.15455 0.05777
vt -0.15455 -0.05777
vt -0.06402 -0.13947
vt -0.06402 0.13947
vt 0.06402 0.13947
vt 0.06402 -0.13947
vt 0.15455 -0.05777
vt 0.15455 0.05777
vn 0.6700 0.0000 0.7424
vn 0.0000 0.0000 1.0000
vn -0.6700 0.0000 0.7424
vn -1.0000 0.0000 0.0000
vn -0.6700 0.0000 -0.7424
vn -0.0000 0.0000 -1.0000
vn 0.6700 0.0000 -0.7424
vn 1.0000 0.0000 -0.0000
vn 0.0000 -1.0000 0.0000
vn 0.0000 1.0000 0.0000
s off
f 1/1/1 10/2/1 2/3/1
f 1/1/1 9/4/1 10/2/1
f 2/5/2 11/6/2 3/7/2
f 2/5/2 10/8/2 11/6/2
f 3/9/3 12/10/3 4/11/3
f 3/9/3 11/12/3 12/10/3
f 4/13/4 13/14/4 5/15/4
f 4/13/4 12/16/4 13/14/4
f 5/1/5 14/2/5 6/3/5
f 5/1/5 13/4/5 14/2/5
f 6/5/6 15/6/6 7/7/6
f 6/5/6 14/8/6 15/6/6
f 7/9/7 16/10/7 8/11/7
f 7/9/7 15/12/7 16/10/7
f 8/13/8 9/14/8 1/15/8
f 8/13/8 16/16/8 9/14/8
f 8/17/9 1/18/9 2/19/9
f 7/20/9 8/17/9 2/19/9
f 6/21/9 7/20/9 2/19/9
f 6/21/9 2/19/9 3/22/9
f 6/21/9 3/22/9 4/23/9
f 4/23/9 5/24/9 6/21/9
f 16/18/10 10/20/10 9/17/10
f 15/19/10 10/20/10 16/18/10
f 14/22/10 10/20/10 15/19/10
f 14/22/10 11/21/10 10/20/10
f 14/22/10 12/24/10 11/21/10
f 12/24/10 14/22/10 13/23/10
