# mech2 head - White (studs, origin = neck base, -Z forward)
# colour RGB (236, 236, 236)
# generated by source/build.py
o Head_White
v 0.36067 0.21216 1.18320
v 0.69360 0.21216 0.73440
v 0.61037 0.21216 0.16320
v 0.34680 0.21216 -0.28560
v -0.34680 0.21216 -0.28560
v -0.61037 0.21216 0.16320
v -0.69360 0.21216 0.73440
v -0.36067 0.21216 1.18320
v 0.51767 0.46512 1.51776
v 0.99552 0.46512 1.06896
v 0.87606 0.46512 0.00000
v 0.49776 0.46512 -0.44880
v -0.49776 0.46512 -0.44880
v -0.87606 0.46512 0.00000
v -0.99552 0.46512 1.06896
v -0.51767 0.46512 1.51776
v 0.55162 0.88128 1.51776
v 1.06080 0.88128 1.06896
v 0.93350 0.88128 -0.04080
v 0.53040 0.88128 -0.48960
v -0.53040 0.88128 -0.48960
v -0.93350 0.88128 -0.04080
v -1.06080 0.88128 1.06896
v -0.55162 0.88128 1.51776
v 0.52616 1.63200 1.51776
v 1.01184 1.63200 1.06896
v 0.89042 1.63200 0.16320
v 0.50592 1.63200 -0.28560
v -0.50592 1.63200 -0.28560
v -0.89042 1.63200 0.16320
v -1.01184 1.63200 1.06896
v -0.52616 1.63200 1.51776
v 0.44978 1.94208 1.22400
v 0.86496 1.94208 0.77520
v 0.76116 1.94208 0.24480
v 0.43248 1.94208 -0.20400
v -0.43248 1.94208 -0.20400
v -0.76116 1.94208 0.24480
v -0.86496 1.94208 0.77520
v -0.44978 1.94208 1.22400
v 0.36492 2.13792 0.99552
v 0.70176 2.13792 0.54672
v 0.61755 2.13792 0.28560
v 0.35088 2.13792 -0.16320
v -0.35088 2.13792 -0.16320
v -0.61755 2.13792 0.28560
v -0.70176 2.13792 0.54672
v -0.36492 2.13792 0.99552
v 0.23762 2.33376 0.85680
v 0.45696 2.33376 0.40800
v 0.40212 2.33376 0.31824
v 0.22848 2.33376 -0.13056
v -0.22848 2.33376 -0.13056
v -0.40212 2.33376 0.31824
v -0.45696 2.33376 0.40800
v -0.23762 2.33376 0.85680
v -0.77520 0.16320 -0.63607
v 0.00000 -0.09792 -1.20442
v 0.00000 0.29376 -1.22400
v -0.77520 0.16320 -0.37495
v 0.00000 0.29376 -0.96288
v 0.00000 -0.09792 -0.94330
v -0.65280 0.52224 -0.74582
v -0.65280 0.52224 -0.48470
v -0.78336 0.44064 -0.64382
v -0.78336 0.44064 -0.38270
v 0.77520 0.16320 -0.63607
v 0.77520 0.16320 -0.37495
v 0.65280 0.52224 -0.74582
v 0.65280 0.52224 -0.48470
v 0.78336 0.44064 -0.64382
v 0.78336 0.44064 -0.38270
v -0.71808 -0.06528 -0.59813
v 0.00000 -0.44880 -1.17504
v 0.00000 0.04080 -1.12608
v -0.71808 -0.06528 -0.33701
v 0.00000 0.04080 -0.86496
v 0.00000 -0.44880 -0.91392
v -0.65280 0.36720 -0.60384
v -0.65280 0.36720 -0.34272
v -0.75072 0.24480 -0.54264
v -0.75072 0.24480 -0.28152
v 0.71808 -0.06528 -0.59813
v 0.71808 -0.06528 -0.33701
v 0.65280 0.36720 -0.60384
v 0.65280 0.36720 -0.34272
v 0.75072 0.24480 -0.54264
v 0.75072 0.24480 -0.28152
v -1.32192 2.28480 0.89760
v -1.50256 2.03675 1.00794
v -1.52459 1.65119 1.24662
v -1.37088 1.42800 1.42800
v -1.19024 1.67605 1.31766
v -1.16821 2.06161 1.07898
v -1.44922 2.63976 1.37251
v -1.59823 2.46444 1.44496
v -1.61366 2.19455 1.61203
v -1.48349 2.04000 1.74379
v -1.33447 2.21532 1.67135
v -1.31905 2.48521 1.50427
v -1.57651 2.99472 1.84742
v -1.69391 2.89214 1.88197
v -1.70272 2.73792 1.97744
v -1.59610 2.65200 2.05958
v -1.47870 2.75458 2.02504
v -1.46989 2.90880 1.92956
v -1.68259 3.29052 2.24318
v -1.77363 3.24856 2.24615
v -1.77694 3.19072 2.28195
v -1.68994 3.16200 2.32274
v -1.59889 3.20396 2.31978
v -1.59559 3.26180 2.28398
v -1.74624 3.46800 2.48064
v -1.28928 1.79520 0.61200
v -1.45299 1.47265 0.62800
v -1.48971 0.94021 0.71980
v -1.37088 0.61200 0.81600
v -1.20717 0.93455 0.80000
v -1.17045 1.46699 0.70820
v -1.40678 1.86130 1.03061
v -1.54045 1.63589 1.03639
v -1.56616 1.26318 1.10065
v -1.46390 1.03306 1.17341
v -1.33023 1.25846 1.16762
v -1.30453 1.63117 1.10336
v -1.52429 1.92739 1.44922
v -1.62792 1.79914 1.44479
v -1.64260 1.58616 1.48151
v -1.55693 1.45411 1.53082
v -1.45330 1.58237 1.53524
v -1.43861 1.79534 1.49852
v -1.62221 1.98247 1.79806
v -1.70080 1.93517 1.78512
v -1.70631 1.85531 1.79889
v -1.63445 1.80499 1.82866
v -1.55586 1.85229 1.84160
v -1.55035 1.93216 1.82783
v -1.68096 2.01552 2.00736
v -1.18320 0.93840 0.40800
v -1.28174 0.66971 0.43853
v -1.24870 0.25478 0.53033
v -1.10976 0.01632 0.61200
v -1.01122 0.28501 0.58147
v -1.04426 0.69994 0.48967
v -1.27867 1.02163 0.80213
v -1.36368 0.83151 0.82005
v -1.34055 0.54106 0.88431
v -1.22726 0.37618 0.94493
v -1.14225 0.56630 0.92701
v -1.16539 0.85675 0.86275
v -1.37414 1.10486 1.19626
v -1.44562 0.99331 1.20156
v -1.43240 0.82733 1.23828
v -1.34477 0.73603 1.27786
v -1.27329 0.84759 1.27255
v -1.28651 1.01356 1.23583
v -1.45370 1.17422 1.52470
v -1.51390 1.12814 1.51949
v -1.50895 1.06590 1.53326
v -1.44269 1.03591 1.55530
v -1.38249 1.08200 1.56050
v -1.38745 1.14424 1.54673
v -1.50144 1.21584 1.72176
v 1.32192 2.28480 0.89760
v 1.50256 2.03675 1.00794
v 1.52459 1.65119 1.24662
v 1.37088 1.42800 1.42800
v 1.19024 1.67605 1.31766
v 1.16821 2.06161 1.07898
v 1.44922 2.63976 1.37251
v 1.59823 2.46444 1.44496
v 1.61366 2.19455 1.61203
v 1.48349 2.04000 1.74379
v 1.33447 2.21532 1.67135
v 1.31905 2.48521 1.50427
v 1.57651 2.99472 1.84742
v 1.69391 2.89214 1.88197
v 1.70272 2.73792 1.97744
v 1.59610 2.65200 2.05958
v 1.47870 2.75458 2.02504
v 1.46989 2.90880 1.92956
v 1.68259 3.29052 2.24318
v 1.77363 3.24856 2.24615
v 1.77694 3.19072 2.28195
v 1.68994 3.16200 2.32274
v 1.59889 3.20396 2.31978
v 1.59559 3.26180 2.28398
v 1.74624 3.46800 2.48064
v 1.28928 1.79520 0.61200
v 1.45299 1.47265 0.62800
v 1.48971 0.94021 0.71980
v 1.37088 0.61200 0.81600
v 1.20717 0.93455 0.80000
v 1.17045 1.46699 0.70820
v 1.40678 1.86130 1.03061
v 1.54045 1.63589 1.03639
v 1.56616 1.26318 1.10065
v 1.46390 1.03306 1.17341
v 1.33023 1.25846 1.16762
v 1.30453 1.63117 1.10336
v 1.52429 1.92739 1.44922
v 1.62792 1.79914 1.44479
v 1.64260 1.58616 1.48151
v 1.55693 1.45411 1.53082
v 1.45330 1.58237 1.53524
v 1.43861 1.79534 1.49852
v 1.62221 1.98247 1.79806
v 1.70080 1.93517 1.78512
v 1.70631 1.85531 1.79889
v 1.63445 1.80499 1.82866
v 1.55586 1.85229 1.84160
v 1.55035 1.93216 1.82783
v 1.68096 2.01552 2.00736
v 1.18320 0.93840 0.40800
v 1.28174 0.66971 0.43853
v 1.24870 0.25478 0.53033
v 1.10976 0.01632 0.61200
v 1.01122 0.28501 0.58147
v 1.04426 0.69994 0.48967
v 1.27867 1.02163 0.80213
v 1.36368 0.83151 0.82005
v 1.34055 0.54106 0.88431
v 1.22726 0.37618 0.94493
v 1.14225 0.56630 0.92701
v 1.16539 0.85675 0.86275
v 1.37414 1.10486 1.19626
v 1.44562 0.99331 1.20156
v 1.43240 0.82733 1.23828
v 1.34477 0.73603 1.27786
v 1.27329 0.84759 1.27255
v 1.28651 1.01356 1.23583
v 1.45370 1.17422 1.52470
v 1.51390 1.12814 1.51949
v 1.50895 1.06590 1.53326
v 1.44269 1.03591 1.55530
v 1.38249 1.08200 1.56050
v 1.38745 1.14424 1.54673
v 1.50144 1.21584 1.72176
v -0.99552 0.85680 0.50592
v -0.91912 0.75902 0.53901
v -0.92646 0.60113 0.57573
v -1.01184 0.50592 0.58752
v -1.08824 0.60370 0.55443
v -1.08090 0.76159 0.51771
v -0.89760 0.25704 -0.31008
v -0.84120 0.20786 -0.29114
v -0.84487 0.12891 -0.27278
v -0.90576 0.08160 -0.26928
v -0.96216 0.13078 -0.28822
v -0.95849 0.20973 -0.30658
v -0.81926 -0.22277 -0.96288
v -0.77886 -0.23307 -0.95526
v -0.77960 -0.24886 -0.95158
v -0.82090 -0.25786 -0.95472
v -0.86130 -0.24756 -0.96234
v -0.86056 -0.23177 -0.96602
v -0.79968 -0.34272 -1.12608
v 0.99552 0.85680 0.50592
v 0.91912 0.75902 0.53901
v 0.92646 0.60113 0.57573
v 1.01184 0.50592 0.58752
v 1.08824 0.60370 0.55443
v 1.08090 0.76159 0.51771
v 0.89760 0.25704 -0.31008
v 0.84120 0.20786 -0.29114
v 0.84487 0.12891 -0.27278
v 0.90576 0.08160 -0.26928
v 0.96216 0.13078 -0.28822
v 0.95849 0.20973 -0.30658
v 0.81926 -0.22277 -0.96288
v 0.77886 -0.23307 -0.95526
v 0.77960 -0.24886 -0.95158
v 0.82090 -0.25786 -0.95472
v 0.86130 -0.24756 -0.96234
v 0.86056 -0.23177 -0.96602
v 0.79968 -0.34272 -1.12608
vt -0.09017 -0.29786
vt -0.17340 -0.18577
vt -0.24888 -0.27214
vt -0.09017 -0.27655
vt -0.24888 -0.28728
vt -0.12942 -0.38117
vt -0.19843 -0.16168
vt -0.15709 -0.02448
vt -0.23976 0.03226
vt -0.31017 -0.22449
vt -0.08654 0.08331
vt -0.14719 0.14005
vt -0.08670 -0.08328
vt 0.08670 -0.08328
vt 0.12444 -0.15854
vt -0.12444 -0.15854
vt 0.08654 0.08331
vt 0.15709 -0.02448
vt 0.23976 0.03226
vt 0.14719 0.14005
vt 0.19843 -0.16168
vt 0.31017 -0.22449
vt 0.17340 -0.18577
vt 0.09017 -0.29786
vt 0.24888 -0.27214
vt 0.09017 -0.27655
vt 0.12942 -0.38117
vt 0.24888 -0.28728
vt -0.15784 -0.11992
vt 0.00602 -0.11884
vt -0.15087 -0.22396
vt 0.01880 -0.22288
vt -0.29756 -0.09786
vt -0.02870 -0.10003
vt -0.30058 -0.20044
vt -0.02135 -0.20275
vt -0.15168 -0.05700
vt -0.00690 -0.08096
vt -0.16904 -0.15401
vt -0.02050 -0.17954
vt -0.12444 -0.09604
vt 0.12444 -0.09604
vt 0.13260 -0.19694
vt -0.13260 -0.19694
vt 0.00690 -0.08096
vt 0.15168 -0.05700
vt 0.16904 -0.15401
vt 0.02050 -0.17954
vt 0.02870 -0.10003
vt 0.29756 -0.09786
vt 0.30058 -0.20044
vt 0.02135 -0.20275
vt -0.00602 -0.11884
vt 0.15784 -0.11992
vt 0.15087 -0.22396
vt -0.01880 -0.22288
vt -0.12942 -0.11628
vt 0.12942 -0.11628
vt 0.13790 -0.22032
vt -0.13790 -0.22032
vt 0.01093 -0.41055
vt -0.15438 -0.41163
vt -0.07231 -0.39072
vt -0.30076 -0.38851
vt -0.08633 -0.36265
vt -0.23204 -0.33830
vt 0.12648 -0.39049
vt -0.12648 -0.39049
vt 0.08633 -0.36265
vt 0.23204 -0.33830
vt 0.07231 -0.39072
vt 0.30076 -0.38851
vt -0.01093 -0.41055
vt 0.15438 -0.41163
vt 0.13154 -0.40800
vt -0.13154 -0.40800
vt 0.16976 0.11534
vt 0.03599 0.01914
vt 0.20094 0.01247
vt 0.08224 -0.08372
vt -0.22399 -0.46850
vt -0.08918 -0.47038
vt -0.10337 -0.44229
vt -0.24060 -0.42147
vt 0.10812 -0.47032
vt -0.10812 -0.47032
vt 0.10337 -0.44229
vt 0.24060 -0.42147
vt 0.22399 -0.46850
vt 0.08918 -0.47038
vt -0.03599 0.01914
vt -0.16976 0.11534
vt -0.20094 0.01247
vt -0.08224 -0.08372
vt -0.13154 -0.03182
vt 0.13154 -0.03182
vt 0.11244 -0.13861
vt -0.11244 -0.13861
vt 0.22561 -0.06170
vt 0.12366 -0.15790
vt -0.16263 -0.52030
vt -0.20179 -0.22142
vt -0.21383 -0.28165
vt -0.28066 -0.26716
vt -0.23450 -0.47793
vt -0.10670 -0.49482
vt 0.08772 -0.52029
vt -0.08772 -0.52029
vt 0.23450 -0.47793
vt 0.10670 -0.49482
vt 0.16263 -0.52030
vt 0.20179 -0.22142
vt 0.28066 -0.26716
vt 0.21383 -0.28165
vt -0.22561 -0.06170
vt -0.12366 -0.15790
vt 0.09123 -0.21348
vt -0.09123 -0.21348
vt 0.26532 -0.11663
vt 0.18851 -0.21283
vt -0.24436 -0.34480
vt -0.21996 -0.35423
vt -0.09223 -0.32752
vt -0.10349 -0.38410
vt 0.05712 -0.56993
vt -0.05712 -0.56993
vt 0.09223 -0.32752
vt 0.21996 -0.35423
vt 0.10349 -0.38410
vt 0.24436 -0.34480
vt -0.26532 -0.11663
vt -0.18851 -0.21283
vt 0.05940 -0.27282
vt -0.05940 -0.27282
vt -0.15259 -0.04312
vt 0.08670 0.06897
vt -0.08670 0.06897
vt 0.15259 -0.04312
vt -0.10053 0.07956
vt -0.05712 -0.03264
vt 0.05712 -0.03264
vt 0.10053 0.07956
vt 0.05940 0.21420
vt -0.05940 0.21420
vt -0.11424 0.10200
vt 0.11424 0.10200
vt 0.06112 -0.04869
vt -0.18103 -0.08863
vt -0.18103 0.00941
vt -0.10020 -0.04543
vt 0.14194 0.01267
vt 0.14194 -0.08537
vt 0.02288 -0.13971
vt -0.06197 -0.13645
vt 0.06366 -0.11806
vt -0.10275 -0.11480
vt 0.18103 -0.08863
vt -0.06112 -0.04869
vt 0.18103 0.00941
vt -0.14194 -0.08537
vt -0.14194 0.01267
vt 0.10020 -0.04543
vt -0.02288 -0.13971
vt 0.06197 -0.13645
vt -0.06366 -0.11806
vt 0.10275 -0.11480
vt -0.00781 0.30110
vt -0.00781 0.23582
vt 0.19668 0.15902
vt 0.19668 0.09374
vt -0.15902 -0.04648
vt -0.09568 -0.11587
vt -0.16096 -0.11587
vt -0.09374 -0.04648
vt 0.10769 -0.16096
vt 0.06920 -0.12118
vt 0.06920 -0.18646
vt 0.10769 -0.09568
vt 0.19717 -0.18646
vt 0.02426 -0.24072
vt 0.02426 -0.30600
vt 0.19717 -0.12118
vt -0.02426 -0.30600
vt -0.02426 -0.24072
vt -0.19717 -0.18646
vt -0.19717 -0.12118
vt -0.06920 -0.18646
vt -0.06920 -0.12118
vt -0.10769 -0.16096
vt -0.10769 -0.09568
vt 0.16096 -0.11587
vt 0.09568 -0.11587
vt 0.15902 -0.04648
vt 0.09374 -0.04648
vt -0.19668 0.15902
vt 0.00781 0.23582
vt 0.00781 0.30110
vt -0.19668 0.09374
vt 0.05585 0.03112
vt -0.16815 0.01786
vt -0.16815 0.14087
vt -0.09470 0.02462
vt 0.12930 0.13438
vt 0.12930 0.01137
vt 0.03549 -0.07632
vt -0.07434 -0.08282
vt 0.06604 -0.04740
vt -0.10489 -0.05389
vt 0.16815 0.01786
vt -0.05585 0.03112
vt 0.16815 0.14087
vt -0.12930 0.01137
vt -0.12930 0.13438
vt 0.09470 0.02462
vt -0.03549 -0.07632
vt 0.07434 -0.08282
vt -0.06604 -0.04740
vt 0.10489 -0.05389
vt -0.05286 0.29376
vt -0.05286 0.22848
vt 0.15066 0.14953
vt 0.15066 0.08425
vt -0.14953 -0.00256
vt -0.08425 -0.00256
vt -0.13566 -0.08051
vt -0.07038 -0.08051
vt -0.13566 0.06945
vt -0.08568 0.03027
vt -0.15096 0.03027
vt -0.07038 0.06945
vt 0.18702 -0.15096
vt 0.00456 -0.21624
vt 0.00456 -0.28152
vt 0.18702 -0.08568
vt -0.00456 -0.28152
vt -0.00456 -0.21624
vt -0.18702 -0.15096
vt -0.18702 -0.08568
vt 0.15096 0.03027
vt 0.08568 0.03027
vt 0.13566 0.06945
vt 0.07038 0.06945
vt 0.13566 -0.08051
vt 0.08425 -0.00256
vt 0.14953 -0.00256
vt 0.07038 -0.08051
vt -0.15066 0.14953
vt 0.05286 0.22848
vt 0.05286 0.29376
vt -0.15066 0.08425
vt 0.49945 -0.32879
vt 0.52696 -0.25250
vt 0.65903 -0.33306
vt 0.63824 -0.38965
vt 0.30622 -0.52581
vt 0.36670 -0.42977
vt 0.45945 -0.56649
vt 0.41711 -0.63371
vt 0.20936 -0.53966
vt 0.25415 -0.47257
vt 0.34409 -0.62201
vt 0.30933 -0.67112
vt -0.39387 -0.46379
vt -0.32859 -0.51119
vt -0.42641 -0.63514
vt -0.37678 -0.66916
vt -0.38218 -0.44747
vt -0.32055 -0.54278
vt -0.47328 -0.58529
vt -0.43014 -0.65200
vt -0.27164 -0.59116
vt -0.22703 -0.65889
vt -0.38118 -0.70041
vt -0.34771 -0.75056
vt 0.79111 -0.41361
vt 0.77703 -0.45051
vt 0.55220 -0.70320
vt 0.52800 -0.74162
vt 0.43403 -0.77145
vt 0.40930 -0.80258
vt -0.45896 -0.80650
vt -0.42497 -0.82713
vt -0.56439 -0.72311
vt -0.53974 -0.76123
vt -0.49071 -0.80965
vt -0.46839 -0.84222
vt 0.90117 -0.48074
vt 0.28100 0.84112
vt 0.33351 0.95789
vt 0.30926 0.96426
vt 0.62948 -0.81713
vt 0.62041 -0.83154
vt 0.50898 -0.89598
vt 0.49261 -0.91213
vt -0.48608 -0.94930
vt -0.46513 -0.95877
vt -0.64031 -0.83795
vt -0.63106 -0.85225
vt -0.58200 -0.90068
vt 0.54038 0.77681
vt 0.57029 0.89955
vt 0.54576 0.90473
vt 0.26860 -0.18180
vt 0.18302 -0.17754
vt 0.22926 -0.11039
vt 0.17738 -0.29090
vt 0.26296 -0.29516
vt 0.21672 -0.36230
vt 0.32621 1.03814
vt 0.67671 -0.88603
vt 0.55395 -0.97070
vt -0.50235 -1.03497
vt -0.68671 -0.90741
vt 0.58824 0.97320
vt 0.25140 -0.38414
vt 0.26202 -0.29749
vt 0.36810 -0.33375
vt 0.36074 -0.39516
vt 0.28034 -0.16488
vt 0.38092 -0.24092
vt 0.13023 -0.36399
vt 0.15283 -0.27689
vt 0.24446 -0.38271
vt 0.22650 -0.44566
vt -0.39179 0.05776
vt -0.39463 -0.03218
vt -0.50951 -0.01798
vt -0.51000 -0.08344
vt -0.26623 -0.27347
vt -0.23648 -0.40400
vt -0.35983 -0.35795
vt -0.33901 -0.44932
vt -0.21838 -0.48940
vt -0.32635 -0.50986
vt 0.47417 -0.37001
vt 0.06060 0.43267
vt 0.14076 0.51948
vt 0.10251 0.53426
vt 0.48150 -0.31696
vt 0.33610 -0.48852
vt 0.32277 -0.52733
vt -0.62723 -0.09371
vt -0.62537 -0.13471
vt -0.45344 -0.44243
vt -0.44154 -0.49464
vt -0.25395 -0.58209
vt -0.35918 -0.61378
vt -0.37188 -0.57479
vt 0.15834 0.61092
vt 0.13744 0.61892
vt 0.56531 -0.38033
vt 0.56257 -0.40022
vt 0.41246 -0.57670
vt 0.40300 -0.59539
vt -0.72532 -0.15683
vt -0.72151 -0.17743
vt -0.53144 -0.51283
vt -0.52698 -0.53241
vt -0.45387 -0.61894
vt -0.44687 -0.64019
vt 0.21772 -0.32685
vt 0.29097 -0.33201
vt 0.24853 -0.41196
vt 0.30050 -0.19696
vt 0.22724 -0.19180
vt 0.26968 -0.11185
vt 0.15840 0.66972
vt 0.61586 -0.42087
vt 0.44679 -0.65512
vt 0.38566 -0.63015
vt 0.39439 -0.60870
vt -0.42851 -0.70603
vt -0.41655 -0.63705
vt -0.39634 -0.64836
vt -0.57828 -0.55760
vt -0.49948 -0.65604
vt 0.16512 -0.22334
vt 0.17733 -0.15529
vt 0.27521 -0.19494
vt 0.26665 -0.24324
vt 0.19713 -0.05194
vt 0.28907 -0.12260
vt 0.07224 -0.22306
vt 0.09122 -0.15414
vt 0.17786 -0.24563
vt 0.16283 -0.29562
vt -0.27318 0.10828
vt -0.26964 0.03688
vt -0.37764 0.03783
vt -0.37385 -0.01423
vt -0.18627 -0.14059
vt -0.15948 -0.24235
vt -0.27318 -0.21734
vt -0.25443 -0.28858
vt -0.14266 -0.30941
vt -0.24260 -0.33618
vt 0.37309 -0.23459
vt 0.32426 -0.00230
vt 0.42788 0.02913
vt 0.42771 -0.00383
vt 0.38100 -0.19325
vt 0.26449 -0.33712
vt 0.25342 -0.36818
vt -0.48211 -0.03262
vt -0.47807 -0.06534
vt -0.36009 -0.29410
vt -0.34938 -0.33480
vt 0.40359 0.21072
vt 0.43266 0.31002
vt 0.40094 0.31898
vt 0.51423 0.01326
vt 0.51391 -0.00511
vt 0.45762 -0.25214
vt 0.45465 -0.26764
vt 0.33668 -0.41336
vt 0.32892 -0.42865
vt -0.56916 -0.09132
vt -0.56491 -0.10794
vt -0.43252 -0.35806
vt -0.42850 -0.37333
vt 0.43926 0.39796
vt 0.45688 0.39276
vt 0.27102 -0.03618
vt 0.21002 -0.04105
vt 0.23533 0.02630
vt 0.21851 -0.14728
vt 0.27951 -0.14240
vt 0.25420 -0.20975
vt 0.56564 -0.00588
vt 0.50354 -0.28966
vt 0.30820 -0.52548
vt 0.31035 -0.46527
vt 0.29136 -0.46475
vt -0.40713 -0.50273
vt -0.39133 -0.44172
vt -0.37515 -0.45167
vt -0.47578 -0.39863
vt 0.47142 0.44241
vt -0.49945 -0.32879
vt -0.65903 -0.33306
vt -0.52696 -0.25250
vt -0.63824 -0.38965
vt -0.30622 -0.52581
vt -0.45945 -0.56649
vt -0.36670 -0.42977
vt -0.41711 -0.63371
vt -0.20936 -0.53966
vt -0.34409 -0.62201
vt -0.25415 -0.47257
vt -0.30933 -0.67112
vt 0.39387 -0.46379
vt 0.42641 -0.63514
vt 0.32859 -0.51119
vt 0.37678 -0.66916
vt 0.38218 -0.44747
vt 0.47328 -0.58529
vt 0.32055 -0.54278
vt 0.43014 -0.65200
vt 0.27164 -0.59116
vt 0.38118 -0.70041
vt 0.22703 -0.65889
vt 0.34771 -0.75056
vt -0.79111 -0.41361
vt -0.77703 -0.45051
vt -0.55220 -0.70320
vt -0.52800 -0.74162
vt -0.43403 -0.77145
vt -0.40930 -0.80258
vt 0.45896 -0.80650
vt 0.42497 -0.82713
vt 0.56439 -0.72311
vt 0.53974 -0.76123
vt 0.49071 -0.80965
vt 0.46839 -0.84222
vt -0.90117 -0.48074
vt -0.28100 0.84112
vt -0.30926 0.96426
vt -0.33351 0.95789
vt -0.62948 -0.81713
vt -0.62041 -0.83154
vt -0.50898 -0.89598
vt -0.49261 -0.91213
vt 0.48608 -0.94930
vt 0.46513 -0.95877
vt 0.64031 -0.83795
vt 0.63106 -0.85225
vt 0.58200 -0.90068
vt -0.54038 0.77681
vt -0.54576 0.90473
vt -0.57029 0.89955
vt -0.26860 -0.18180
vt -0.22926 -0.11039
vt -0.18302 -0.17754
vt -0.17738 -0.29090
vt -0.21672 -0.36230
vt -0.26296 -0.29516
vt -0.32621 1.03814
vt -0.67671 -0.88603
vt -0.55395 -0.97070
vt 0.50235 -1.03497
vt 0.68671 -0.90741
vt -0.58824 0.97320
vt -0.25140 -0.38414
vt -0.36810 -0.33375
vt -0.26202 -0.29749
vt -0.36074 -0.39516
vt -0.38092 -0.24092
vt -0.28034 -0.16488
vt -0.13023 -0.36399
vt -0.24446 -0.38271
vt -0.15283 -0.27689
vt -0.22650 -0.44566
vt 0.39179 0.05776
vt 0.50951 -0.01798
vt 0.39463 -0.03218
vt 0.51000 -0.08344
vt 0.26623 -0.27347
vt 0.35983 -0.35795
vt 0.23648 -0.40400
vt 0.33901 -0.44932
vt 0.21838 -0.48940
vt 0.32635 -0.50986
vt -0.47417 -0.37001
vt -0.06060 0.43267
vt -0.10251 0.53426
vt -0.14076 0.51948
vt -0.48150 -0.31696
vt -0.33610 -0.48852
vt -0.32277 -0.52733
vt 0.62723 -0.09371
vt 0.62537 -0.13471
vt 0.45344 -0.44243
vt 0.44154 -0.49464
vt 0.25395 -0.58209
vt 0.37188 -0.57479
vt 0.35918 -0.61378
vt -0.15834 0.61092
vt -0.13744 0.61892
vt -0.56531 -0.38033
vt -0.56257 -0.40022
vt -0.41246 -0.57670
vt -0.40300 -0.59539
vt 0.72532 -0.15683
vt 0.72151 -0.17743
vt 0.53144 -0.51283
vt 0.52698 -0.53241
vt 0.45387 -0.61894
vt 0.44687 -0.64019
vt -0.21772 -0.32685
vt -0.24853 -0.41196
vt -0.29097 -0.33201
vt -0.30050 -0.19696
vt -0.26968 -0.11185
vt -0.22724 -0.19180
vt -0.15840 0.66972
vt -0.61586 -0.42087
vt -0.44679 -0.65512
vt -0.39439 -0.60870
vt -0.38566 -0.63015
vt 0.42851 -0.70603
vt 0.39634 -0.64836
vt 0.41655 -0.63705
vt 0.57828 -0.55760
vt 0.49948 -0.65604
vt -0.16512 -0.22334
vt -0.27521 -0.19494
vt -0.17733 -0.15529
vt -0.26665 -0.24324
vt -0.28907 -0.12260
vt -0.19713 -0.05194
vt -0.07224 -0.22306
vt -0.17786 -0.24563
vt -0.09122 -0.15414
vt -0.16283 -0.29562
vt 0.27318 0.10828
vt 0.37764 0.03783
vt 0.26964 0.03688
vt 0.37385 -0.01423
vt 0.18627 -0.14059
vt 0.27318 -0.21734
vt 0.15948 -0.24235
vt 0.25443 -0.28858
vt 0.14266 -0.30941
vt 0.24260 -0.33618
vt -0.37309 -0.23459
vt -0.32426 -0.00230
vt -0.42771 -0.00383
vt -0.42788 0.02913
vt -0.38100 -0.19325
vt -0.26449 -0.33712
vt -0.25342 -0.36818
vt 0.48211 -0.03262
vt 0.47807 -0.06534
vt 0.36009 -0.29410
vt 0.34938 -0.33480
vt -0.40359 0.21072
vt -0.40094 0.31898
vt -0.43266 0.31002
vt -0.51423 0.01326
vt -0.51391 -0.00511
vt -0.45762 -0.25214
vt -0.45465 -0.26764
vt -0.33668 -0.41336
vt -0.32892 -0.42865
vt 0.56916 -0.09132
vt 0.56491 -0.10794
vt 0.43252 -0.35806
vt 0.42850 -0.37333
vt -0.43926 0.39796
vt -0.45688 0.39276
vt -0.27102 -0.03618
vt -0.23533 0.02630
vt -0.21002 -0.04105
vt -0.21851 -0.14728
vt -0.25420 -0.20975
vt -0.27951 -0.14240
vt -0.56564 -0.00588
vt -0.50354 -0.28966
vt -0.30820 -0.52548
vt -0.29136 -0.46475
vt -0.31035 -0.46527
vt 0.40713 -0.50273
vt 0.37515 -0.45167
vt 0.39133 -0.44172
vt 0.47578 -0.39863
vt -0.47142 0.44241
vt -0.09853 -0.32245
vt -0.10626 -0.29142
vt 0.11844 -0.18972
vt 0.11284 -0.17133
vt -0.15868 -0.18470
vt -0.16791 -0.14519
vt 0.05007 -0.04736
vt 0.04546 -0.02761
vt 0.14689 -0.20220
vt 0.17714 -0.19187
vt 0.12179 0.04011
vt 0.14017 0.04575
vt 0.11684 -0.25971
vt 0.10906 -0.29071
vt -0.10794 -0.17998
vt -0.10267 -0.16149
vt 0.17945 -0.14822
vt 0.17016 -0.18771
vt -0.03838 -0.05005
vt -0.03373 -0.03031
vt 0.27774 0.05593
vt 0.27607 0.02400
vt 0.03777 0.11291
vt 0.03976 0.13204
vt 0.29202 -0.08354
vt 0.21675 -0.03134
vt 0.20134 -0.23063
vt 0.21168 -0.23077
vt 0.21708 0.06250
vt 0.21615 0.06645
vt 0.10171 0.23397
vt 0.22928 0.05166
vt 0.20801 0.24287
vt 0.19783 0.24118
vt -0.28154 -0.09139
vt 0.21831 0.24346
vt -0.20521 0.06007
vt -0.20428 0.06402
vt -0.15288 0.18404
vt 0.24618 -0.03428
vt 0.22184 -0.23268
vt -0.24716 -0.15518
vt -0.20641 -0.15332
vt -0.22565 -0.17901
vt -0.20826 -0.11279
vt -0.24901 -0.11465
vt -0.22977 -0.08895
vt 0.20662 -0.28136
vt 0.25906 0.09002
vt 0.20269 0.29068
vt -0.24715 0.08766
vt 0.09853 -0.32245
vt -0.11844 -0.18972
vt 0.10626 -0.29142
vt -0.11284 -0.17133
vt 0.15868 -0.18470
vt -0.05007 -0.04736
vt 0.16791 -0.14519
vt -0.04546 -0.02761
vt -0.14689 -0.20220
vt -0.12179 0.04011
vt -0.17714 -0.19187
vt -0.14017 0.04575
vt -0.11684 -0.25971
vt 0.10794 -0.17998
vt -0.10906 -0.29071
vt 0.10267 -0.16149
vt -0.17945 -0.14822
vt 0.03838 -0.05005
vt -0.17016 -0.18771
vt 0.03373 -0.03031
vt -0.27774 0.05593
vt -0.03777 0.11291
vt -0.27607 0.02400
vt -0.03976 0.13204
vt -0.29202 -0.08354
vt -0.21675 -0.03134
vt -0.21168 -0.23077
vt -0.20134 -0.23063
vt -0.21708 0.06250
vt -0.21615 0.06645
vt -0.10171 0.23397
vt -0.22928 0.05166
vt -0.19783 0.24118
vt -0.20801 0.24287
vt 0.28154 -0.09139
vt -0.21831 0.24346
vt 0.20521 0.06007
vt 0.20428 0.06402
vt 0.15288 0.18404
vt -0.24618 -0.03428
vt -0.22184 -0.23268
vt 0.24716 -0.15518
vt 0.22565 -0.17901
vt 0.20641 -0.15332
vt 0.20826 -0.11279
vt 0.22977 -0.08895
vt 0.24901 -0.11465
vt -0.20662 -0.28136
vt -0.25906 0.09002
vt -0.20269 0.29068
vt 0.24715 0.08766
vn 0.1317 -0.9655 0.2248
vn 0.2429 -0.9699 0.0151
vn 0.5378 -0.8216 0.1891
vn 0.2679 -0.8480 0.4574
vn 0.4005 -0.8418 0.3618
vn 0.1134 -0.8174 0.5648
vn 0.6048 -0.7955 0.0377
vn 0.6055 -0.7688 -0.2059
vn 0.6403 -0.7380 -0.2131
vn 0.5849 -0.8069 0.0823
vn 0.5623 -0.7225 -0.4021
vn 0.5763 -0.6573 -0.4857
vn 0.0000 -0.5421 -0.8403
vn 0.0000 -0.3518 -0.9361
vn 0.0000 -0.2171 -0.9761
vn -0.5623 -0.7225 -0.4021
vn -0.6055 -0.7688 -0.2059
vn -0.6403 -0.7380 -0.2131
vn -0.5763 -0.6573 -0.4857
vn -0.6048 -0.7955 0.0377
vn -0.5849 -0.8069 0.0823
vn -0.1664 -0.9860 0.0104
vn -0.1465 -0.8961 0.4191
vn -0.5378 -0.8216 0.1891
vn -0.1791 -0.8400 0.5123
vn -0.1619 -0.8222 0.5457
vn -0.4005 -0.8418 0.3618
vn 0.6835 -0.0558 0.7278
vn 0.6706 -0.0800 0.7375
vn 0.6709 -0.0071 0.7415
vn 0.6612 -0.0092 0.7502
vn 0.9820 -0.1540 -0.1097
vn 0.9824 -0.1503 -0.1113
vn 0.9929 -0.0085 -0.1187
vn 0.9935 0.0037 -0.1140
vn 0.7540 -0.1664 -0.6355
vn 0.7463 -0.1445 -0.6497
vn 0.7499 0.0850 -0.6561
vn 0.7411 0.0879 -0.6656
vn 0.0000 0.0799 -0.9968
vn 0.0000 0.1867 -0.9824
vn -0.7463 -0.1445 -0.6497
vn -0.7540 -0.1664 -0.6355
vn -0.7499 0.0850 -0.6561
vn -0.7411 0.0879 -0.6656
vn -0.9824 -0.1503 -0.1113
vn -0.9820 -0.1540 -0.1097
vn -0.9929 -0.0085 -0.1187
vn -0.9935 0.0037 -0.1140
vn -0.6706 -0.0800 0.7375
vn -0.6835 -0.0558 0.7278
vn -0.6709 -0.0071 0.7415
vn -0.6612 -0.0092 0.7502
vn 0.0000 0.0000 1.0000
vn 0.6695 0.0332 0.7421
vn 0.6785 0.0230 0.7342
vn 0.9808 0.1465 -0.1285
vn 0.9807 0.1446 -0.1315
vn 0.7328 0.2301 -0.6404
vn 0.7357 0.2953 -0.6096
vn 0.0000 0.2609 -0.9654
vn 0.0000 0.2589 -0.9659
vn -0.7328 0.2301 -0.6404
vn -0.7357 0.2953 -0.6096
vn -0.9808 0.1465 -0.1285
vn -0.9807 0.1446 -0.1315
vn -0.6695 0.0332 0.7421
vn -0.6785 0.0230 0.7342
vn 0.5138 0.6533 0.5560
vn 0.5181 0.6791 0.5200
vn 0.5118 0.6957 0.5040
vn 0.4997 0.7473 0.4379
vn 0.9706 0.1746 -0.1659
vn 0.9078 0.3921 -0.1490
vn 0.9602 0.1896 -0.2051
vn 0.7955 0.5000 -0.3425
vn 0.7771 0.3229 -0.5402
vn 0.7219 0.4365 -0.5369
vn 0.8286 0.3292 -0.4528
vn 0.0000 0.2433 -0.9700
vn 0.0000 0.2278 -0.9737
vn -0.7771 0.3229 -0.5402
vn -0.7219 0.4365 -0.5369
vn -0.8286 0.3292 -0.4528
vn -0.7955 0.5000 -0.3425
vn -0.9706 0.1746 -0.1659
vn -0.9078 0.3921 -0.1490
vn -0.9602 0.1896 -0.2051
vn -0.5181 0.6791 0.5200
vn -0.5138 0.6533 0.5560
vn -0.5118 0.6957 0.5040
vn -0.4997 0.7473 0.4379
vn 0.0000 0.6877 0.7260
vn 0.0000 0.7060 0.7082
vn 0.0000 0.7288 0.6847
vn 0.5124 0.7521 0.4144
vn 0.5215 0.7800 0.3459
vn 0.7809 0.5911 -0.2020
vn 0.6874 0.6184 -0.3809
vn 0.7196 0.5826 -0.3778
vn 0.0000 0.1918 -0.9814
vn 0.0000 0.1794 -0.9838
vn -0.6874 0.6184 -0.3809
vn -0.7196 0.5826 -0.3778
vn -0.7809 0.5911 -0.2020
vn -0.5124 0.7521 0.4144
vn -0.5215 0.7800 0.3459
vn 0.0000 0.7157 0.6984
vn 0.0000 0.6611 0.7503
vn 0.5494 0.7631 0.3404
vn 0.5534 0.7850 0.2784
vn 0.5818 0.8057 0.1107
vn 0.7042 0.7096 -0.0248
vn 0.5901 0.8051 0.0593
vn 0.6761 0.6542 -0.3390
vn 0.6598 0.7045 -0.2615
vn 0.7844 0.5409 -0.3035
vn 0.0000 0.1644 -0.9864
vn -0.6761 0.6542 -0.3390
vn -0.7844 0.5409 -0.3035
vn -0.7042 0.7096 -0.0248
vn -0.5901 0.8051 0.0593
vn -0.6598 0.7045 -0.2615
vn -0.5494 0.7631 0.3404
vn -0.5534 0.7850 0.2784
vn -0.5818 0.8057 0.1107
vn 0.0000 0.5780 0.8160
vn 0.0000 -1.0000 0.0000
vn -0.0423 -0.9986 0.0313
vn 0.0681 -0.9964 0.0505
vn 0.0945 -0.9931 0.0701
vn -0.1931 -0.9707 0.1433
vn 0.0000 1.0000 0.0000
vn -0.5995 -0.0400 -0.7994
vn 0.5995 0.0400 0.7994
vn 0.5995 -0.0400 -0.7994
vn -0.5995 0.0400 0.7994
vn -0.3192 -0.9477 0.0000
vn -0.9996 -0.0294 0.0000
vn -0.5300 0.8480 0.0000
vn 0.3304 0.9439 0.0000
vn -0.3304 0.9439 0.0000
vn 0.5300 0.8480 0.0000
vn 0.9996 -0.0294 0.0000
vn 0.3192 -0.9477 0.0000
vn -0.5981 0.0797 -0.7975
vn 0.5981 -0.0797 0.7975
vn 0.5981 0.0797 -0.7975
vn -0.5981 -0.0797 0.7975
vn -0.4711 -0.8821 0.0000
vn -0.9945 -0.1047 0.0000
vn -0.7809 0.6247 0.0000
vn 0.4472 0.8944 0.0000
vn -0.4472 0.8944 0.0000
vn 0.7809 0.6247 0.0000
vn 0.9945 -0.1047 0.0000
vn 0.4711 -0.8821 0.0000
vn -0.7704 0.3784 -0.5131
vn -0.7870 0.3459 -0.5108
vn -0.7600 0.3842 -0.5242
vn -0.7152 0.4409 -0.5423
vn -0.9845 -0.0481 -0.1685
vn -0.8648 -0.3583 0.3517
vn -0.8809 -0.3347 0.3346
vn -0.8576 -0.3598 0.3676
vn -0.8185 -0.3964 0.4160
vn 0.7080 -0.2166 0.6722
vn 0.6899 -0.2427 0.6820
vn 0.6771 -0.2457 0.6936
vn 0.6274 -0.2888 0.7231
vn 0.9645 0.0969 0.2456
vn 0.8687 0.4691 -0.1591
vn 0.8501 0.4989 -0.1688
vn 0.8443 0.5035 -0.1834
vn 0.8031 0.5538 -0.2197
vn -0.6757 0.4630 -0.5736
vn -0.5669 0.5621 -0.6022
vn -0.7887 -0.4031 0.4641
vn -0.6935 -0.4612 0.5534
vn 0.5820 -0.3012 0.7553
vn 0.4681 -0.3748 0.8002
vn 0.7770 0.5711 -0.2649
vn 0.6761 0.6546 -0.3381
vn -0.4861 0.6082 -0.6275
vn -0.3452 0.7051 -0.6195
vn -0.9899 -0.0293 -0.1386
vn -0.9960 0.0019 -0.0889
vn -0.6254 -0.4677 0.6246
vn -0.4974 -0.5122 0.7002
vn 0.3787 -0.3931 0.8379
vn 0.2388 -0.4575 0.8566
vn 0.9546 0.1154 0.2745
vn 0.9357 0.1456 0.3215
vn 0.6069 0.6895 -0.3953
vn 0.4626 0.7651 -0.4479
vn 0.2142 -0.5230 -0.8250
vn -0.9959 0.0816 0.0399
vn -0.4971 -0.4684 0.7304
vn 0.2201 -0.4150 0.8828
vn 0.8721 0.2206 0.4368
vn -0.8354 0.4403 -0.3291
vn -0.9554 0.1395 -0.2604
vn -0.9295 0.2352 -0.2842
vn -0.7976 0.5070 -0.3267
vn -0.9901 -0.1128 -0.0839
vn -0.9750 0.0292 -0.2205
vn -0.9840 -0.1746 -0.0346
vn -0.9443 -0.3077 0.1167
vn -0.9305 -0.3393 0.1379
vn -0.9349 -0.3334 0.1214
vn -0.9059 -0.3877 0.1706
vn 0.7301 -0.3412 0.5920
vn 0.8483 -0.2113 0.4855
vn 0.7061 -0.3721 0.6025
vn 0.7187 -0.3666 0.5908
vn 0.6662 -0.4192 0.6168
vn 0.8816 -0.1503 0.4474
vn 0.9541 0.1013 0.2817
vn 0.9458 -0.0092 0.3247
vn 0.9482 0.1976 0.2488
vn 0.8994 0.4055 0.1633
vn 0.8685 0.4736 0.1462
vn -0.8966 0.3217 -0.3043
vn -0.7653 0.5396 -0.3510
vn -0.6799 0.6553 -0.3291
vn -0.9408 0.1932 -0.2787
vn -0.8850 -0.4094 0.2217
vn -0.8131 -0.5009 0.2965
vn 0.6208 -0.4396 0.6491
vn 0.5170 -0.5275 0.6741
vn 0.9533 0.1553 0.2590
vn 0.9340 0.2850 0.2153
vn 0.7752 0.6262 0.0839
vn 0.8550 0.5071 0.1089
vn -0.6053 0.7221 -0.3348
vn -0.4651 0.8450 -0.2640
vn -0.9830 0.0368 -0.1799
vn -0.9924 0.0491 -0.1124
vn -0.7526 -0.5359 0.3827
vn -0.6290 -0.6240 0.4636
vn 0.4190 -0.5594 0.7152
vn 0.2681 -0.6420 0.7183
vn 0.9316 -0.0016 0.3636
vn 0.9046 0.0111 0.4261
vn 0.7173 0.6956 0.0406
vn 0.5654 0.8244 0.0285
vn 0.2652 -0.1816 -0.9470
vn -0.9950 0.0790 0.0603
vn -0.6236 -0.5814 0.5226
vn 0.2341 -0.5986 0.7661
vn 0.8172 0.0427 0.5747
vn -0.8943 0.3253 -0.3073
vn -0.9775 0.0021 -0.2108
vn -0.9643 0.1041 -0.2434
vn -0.8627 0.3975 -0.3128
vn -0.9653 -0.2602 -0.0229
vn -0.9802 -0.1139 -0.1622
vn -0.9464 -0.3219 0.0281
vn -0.8756 -0.4496 0.1769
vn -0.8550 -0.4791 0.1986
vn -0.8613 -0.4739 0.1833
vn -0.8200 -0.5234 0.2316
vn 0.8084 -0.2352 0.5396
vn 0.9006 -0.0868 0.4258
vn 0.7886 -0.2699 0.5525
vn 0.7991 -0.2626 0.5409
vn 0.7549 -0.3230 0.5708
vn 0.9232 -0.0198 0.3838
vn 0.9473 0.2471 0.2037
vn 0.9577 0.1327 0.2552
vn 0.9245 0.3445 0.1634
vn 0.8356 0.5455 0.0652
vn 0.7926 0.6082 0.0437
vn -0.9421 0.1970 -0.2714
vn -0.8352 0.4336 -0.3383
vn -0.7596 0.5592 -0.3321
vn -0.9705 0.0593 -0.2336
vn -0.7928 -0.5419 0.2789
vn -0.7010 -0.6207 0.3511
vn 0.7162 -0.3498 0.6039
vn 0.6248 -0.4520 0.6366
vn 0.9367 0.3021 0.1771
vn 0.8939 0.4307 0.1239
vn 0.6707 0.7413 -0.0241
vn 0.7701 0.6379 0.0075
vn -0.6929 0.6331 -0.3452
vn -0.5636 0.7700 -0.2991
vn -0.9863 -0.1065 -0.1262
vn -0.9934 -0.0938 -0.0665
vn -0.6308 -0.6464 0.4293
vn -0.4896 -0.7125 0.5026
vn 0.5373 -0.4977 0.6809
vn 0.3989 -0.5994 0.6940
vn 0.9468 0.1396 0.2901
vn 0.9258 0.1505 0.3468
vn 0.5995 0.7976 -0.0669
vn 0.4340 0.8970 -0.0843
vn 0.2300 -0.1927 -0.9539
vn -0.9944 -0.0599 0.0872
vn -0.4891 -0.6730 0.5548
vn 0.3678 -0.5639 0.7394
vn 0.8562 0.1757 0.4858
vn 0.7704 0.3784 -0.5131
vn 0.7600 0.3842 -0.5242
vn 0.7870 0.3459 -0.5108
vn 0.7152 0.4409 -0.5423
vn 0.9845 -0.0481 -0.1685
vn 0.8648 -0.3583 0.3517
vn 0.8576 -0.3598 0.3676
vn 0.8809 -0.3347 0.3346
vn 0.8185 -0.3964 0.4160
vn -0.7080 -0.2166 0.6722
vn -0.6771 -0.2457 0.6936
vn -0.6899 -0.2427 0.6820
vn -0.6274 -0.2888 0.7231
vn -0.9645 0.0969 0.2456
vn -0.8687 0.4691 -0.1591
vn -0.8443 0.5035 -0.1834
vn -0.8501 0.4989 -0.1688
vn -0.8031 0.5538 -0.2197
vn 0.6757 0.4630 -0.5736
vn 0.5669 0.5621 -0.6022
vn 0.7887 -0.4031 0.4641
vn 0.6935 -0.4612 0.5534
vn -0.5820 -0.3012 0.7553
vn -0.4681 -0.3748 0.8002
vn -0.7770 0.5711 -0.2649
vn -0.6761 0.6546 -0.3381
vn 0.4861 0.6082 -0.6275
vn 0.3452 0.7051 -0.6195
vn 0.9899 -0.0293 -0.1386
vn 0.9960 0.0019 -0.0889
vn 0.6254 -0.4677 0.6246
vn 0.4974 -0.5122 0.7002
vn -0.3787 -0.3931 0.8379
vn -0.2388 -0.4575 0.8566
vn -0.9546 0.1154 0.2745
vn -0.9357 0.1456 0.3215
vn -0.6069 0.6895 -0.3953
vn -0.4626 0.7651 -0.4479
vn -0.2142 -0.5230 -0.8250
vn 0.9959 0.0816 0.0399
vn 0.4971 -0.4684 0.7304
vn -0.2201 -0.4150 0.8828
vn -0.8721 0.2206 0.4368
vn 0.8354 0.4403 -0.3291
vn 0.9295 0.2352 -0.2842
vn 0.9554 0.1395 -0.2604
vn 0.7976 0.5070 -0.3267
vn 0.9750 0.0292 -0.2205
vn 0.9901 -0.1128 -0.0839
vn 0.9840 -0.1746 -0.0346
vn 0.9305 -0.3393 0.1379
vn 0.9443 -0.3077 0.1167
vn 0.9349 -0.3334 0.1214
vn 0.9059 -0.3877 0.1706
vn -0.7301 -0.3412 0.5920
vn -0.7061 -0.3721 0.6025
vn -0.8483 -0.2113 0.4855
vn -0.7187 -0.3666 0.5908
vn -0.6662 -0.4192 0.6168
vn -0.8816 -0.1503 0.4474
vn -0.9458 -0.0092 0.3247
vn -0.9541 0.1013 0.2817
vn -0.9482 0.1976 0.2488
vn -0.8994 0.4055 0.1633
vn -0.8685 0.4736 0.1462
vn 0.8966 0.3217 -0.3043
vn 0.6799 0.6553 -0.3291
vn 0.7653 0.5396 -0.3510
vn 0.9408 0.1932 -0.2787
vn 0.8850 -0.4094 0.2217
vn 0.8131 -0.5009 0.2965
vn -0.6208 -0.4396 0.6491
vn -0.5170 -0.5275 0.6741
vn -0.9533 0.1553 0.2590
vn -0.9340 0.2850 0.2153
vn -0.8550 0.5071 0.1089
vn -0.7752 0.6262 0.0839
vn 0.6053 0.7221 -0.3348
vn 0.4651 0.8450 -0.2640
vn 0.9830 0.0368 -0.1799
vn 0.9924 0.0491 -0.1124
vn 0.7526 -0.5359 0.3827
vn 0.6290 -0.6240 0.4636
vn -0.4190 -0.5594 0.7152
vn -0.2681 -0.6420 0.7183
vn -0.9316 -0.0016 0.3636
vn -0.9046 0.0111 0.4261
vn -0.7173 0.6956 0.0406
vn -0.5654 0.8244 0.0285
vn -0.2652 -0.1816 -0.9470
vn 0.9950 0.0790 0.0603
vn 0.6236 -0.5814 0.5226
vn -0.2341 -0.5986 0.7661
vn -0.8172 0.0427 0.5747
vn 0.8943 0.3253 -0.3073
vn 0.9643 0.1041 -0.2434
vn 0.9775 0.0021 -0.2108
vn 0.8627 0.3975 -0.3128
vn 0.9802 -0.1139 -0.1622
vn 0.9653 -0.2602 -0.0229
vn 0.9464 -0.3219 0.0281
vn 0.8550 -0.4791 0.1986
vn 0.8756 -0.4496 0.1769
vn 0.8613 -0.4739 0.1833
vn 0.8200 -0.5234 0.2316
vn -0.8084 -0.2352 0.5396
vn -0.7886 -0.2699 0.5525
vn -0.9006 -0.0868 0.4258
vn -0.7991 -0.2626 0.5409
vn -0.7549 -0.3230 0.5708
vn -0.9232 -0.0198 0.3838
vn -0.9577 0.1327 0.2552
vn -0.9473 0.2471 0.2037
vn -0.9245 0.3445 0.1634
vn -0.8356 0.5455 0.0652
vn -0.7926 0.6082 0.0437
vn 0.9421 0.1970 -0.2714
vn 0.7596 0.5592 -0.3321
vn 0.8352 0.4336 -0.3383
vn 0.9705 0.0593 -0.2336
vn 0.7928 -0.5419 0.2789
vn 0.7010 -0.6207 0.3511
vn -0.7162 -0.3498 0.6039
vn -0.6248 -0.4520 0.6366
vn -0.9367 0.3021 0.1771
vn -0.8939 0.4307 0.1239
vn -0.7701 0.6379 0.0075
vn -0.6707 0.7413 -0.0241
vn 0.6929 0.6331 -0.3452
vn 0.5636 0.7700 -0.2991
vn 0.9863 -0.1065 -0.1262
vn 0.9934 -0.0938 -0.0665
vn 0.6308 -0.6464 0.4293
vn 0.4896 -0.7125 0.5026
vn -0.5373 -0.4977 0.6809
vn -0.3989 -0.5994 0.6940
vn -0.9468 0.1396 0.2901
vn -0.9258 0.1505 0.3468
vn -0.5995 0.7976 -0.0669
vn -0.4340 0.8970 -0.0843
vn -0.2300 -0.1927 -0.9539
vn 0.9944 -0.0599 0.0872
vn 0.4891 -0.6730 0.5548
vn -0.3678 -0.5639 0.7394
vn -0.8562 0.1757 0.4858
vn 0.7992 0.5261 -0.2908
vn 0.7566 0.5710 -0.3184
vn 0.7389 0.5854 -0.3336
vn 0.6125 0.6797 -0.4036
vn 0.9940 -0.0213 0.1074
vn 0.7079 -0.5860 0.3942
vn 0.6593 -0.6332 0.4054
vn 0.6384 -0.6486 0.4144
vn 0.4959 -0.7477 0.4415
vn -0.7612 -0.6106 0.2184
vn -0.8038 -0.5620 0.1952
vn -0.7439 -0.6266 0.2324
vn -0.6164 -0.7301 0.2951
vn -0.9881 0.0102 -0.1536
vn -0.6302 0.5931 -0.5011
vn -0.6799 0.5496 -0.4855
vn -0.6088 0.6068 -0.5110
vn -0.4657 0.6968 -0.5455
vn 0.5352 0.7172 -0.4463
vn 0.3017 0.8028 -0.5144
vn 0.3552 0.7840 -0.5090
vn 0.9947 -0.0231 0.0998
vn 0.9971 -0.0302 0.0695
vn 0.4091 -0.7893 0.4579
vn 0.3811 -0.8051 0.4545
vn -0.0716 -0.8973 0.4355
vn -0.5381 -0.7742 0.3332
vn -0.5107 -0.7909 0.3370
vn -0.9869 0.0084 -0.1611
vn -0.9816 0.0012 -0.1910
vn -0.3787 0.7317 -0.5667
vn -0.1867 0.7926 -0.5804
vn -0.1331 0.8097 -0.5716
vn -0.1234 0.2302 0.9653
vn 0.0896 0.8076 -0.5829
vn 0.9947 -0.0648 -0.0796
vn -0.9417 -0.0340 -0.3346
vn -0.7992 0.5261 -0.2908
vn -0.7389 0.5854 -0.3336
vn -0.7566 0.5710 -0.3184
vn -0.6125 0.6797 -0.4036
vn -0.9940 -0.0213 0.1074
vn -0.7079 -0.5860 0.3942
vn -0.6384 -0.6486 0.4144
vn -0.6593 -0.6332 0.4054
vn -0.4959 -0.7477 0.4415
vn 0.7612 -0.6106 0.2184
vn 0.7439 -0.6266 0.2324
vn 0.8038 -0.5620 0.1952
vn 0.6164 -0.7301 0.2951
vn 0.9881 0.0102 -0.1536
vn 0.6302 0.5931 -0.5011
vn 0.6088 0.6068 -0.5110
vn 0.6799 0.5496 -0.4855
vn 0.4657 0.6968 -0.5455
vn -0.5352 0.7172 -0.4463
vn -0.3552 0.7840 -0.5090
vn -0.3017 0.8028 -0.5144
vn -0.9947 -0.0231 0.0998
vn -0.9971 -0.0302 0.0695
vn -0.4091 -0.7893 0.4579
vn -0.3811 -0.8051 0.4545
vn 0.0716 -0.8973 0.4355
vn 0.5381 -0.7742 0.3332
vn 0.5107 -0.7909 0.3370
vn 0.9869 0.0084 -0.1611
vn 0.9816 0.0012 -0.1910
vn 0.3787 0.7317 -0.5667
vn 0.1331 0.8097 -0.5716
vn 0.1867 0.7926 -0.5804
vn 0.1234 0.2302 0.9653
vn -0.0896 0.8076 -0.5829
vn -0.9947 -0.0648 -0.0796
vn 0.9417 -0.0340 -0.3346
s off
f 1/1/1 2/2/2 10/3/3
f 1/4/4 10/5/5 9/6/6
f 2/7/7 3/8/8 11/9/9
f 2/7/7 11/9/9 10/10/10
f 3/8/8 4/11/11 11/9/9
f 4/11/11 12/12/12 11/9/9
f 4/13/13 5/14/13 13/15/14
f 4/13/13 13/15/14 12/16/15
f 5/17/16 6/18/17 14/19/18
f 5/17/16 14/19/18 13/20/19
f 6/18/17 7/21/20 14/19/18
f 7/21/20 15/22/21 14/19/18
f 7/23/22 8/24/23 15/25/24
f 8/26/25 16/27/26 15/28/27
f 8/26/25 1/4/4 9/6/6
f 8/26/25 9/6/6 16/27/26
f 9/29/28 10/30/29 17/31/30
f 10/30/29 18/32/31 17/31/30
f 10/33/32 11/34/33 18/35/34
f 11/34/33 19/36/35 18/35/34
f 11/37/36 12/38/37 19/39/38
f 12/38/37 20/40/39 19/39/38
f 12/41/15 13/42/14 21/43/40
f 12/41/15 21/43/40 20/44/41
f 13/45/42 14/46/43 22/47/44
f 13/45/42 22/47/44 21/48/45
f 14/49/46 15/50/47 23/51/48
f 14/49/46 23/51/48 22/52/49
f 15/53/50 16/54/51 24/55/52
f 15/53/50 24/55/52 23/56/53
f 16/57/54 9/58/54 17/59/54
f 16/57/54 17/59/54 24/60/54
f 17/31/30 18/32/31 26/61/55
f 17/31/30 26/61/55 25/62/56
f 18/35/34 19/36/35 27/63/57
f 18/35/34 27/63/57 26/64/58
f 19/39/38 20/40/39 28/65/59
f 19/39/38 28/65/59 27/66/60
f 20/44/41 21/43/40 29/67/61
f 20/44/41 29/67/61 28/68/62
f 21/48/45 22/47/44 29/69/63
f 22/47/44 30/70/64 29/69/63
f 22/52/49 23/51/48 30/71/65
f 23/51/48 31/72/66 30/71/65
f 23/56/53 24/55/52 31/73/67
f 24/55/52 32/74/68 31/73/67
f 24/60/54 17/59/54 25/75/54
f 24/60/54 25/75/54 32/76/54
f 25/77/69 26/78/70 33/79/71
f 26/78/70 34/80/72 33/79/71
f 26/64/58 27/63/73 34/81/74
f 27/63/75 35/82/76 34/81/74
f 27/66/77 28/65/59 36/83/78
f 27/66/79 36/83/78 35/84/76
f 28/68/62 29/67/61 37/85/80
f 28/68/62 37/85/80 36/86/81
f 29/69/63 30/70/82 37/87/83
f 30/70/84 38/88/85 37/87/83
f 30/71/86 31/72/66 39/89/87
f 30/71/88 39/89/87 38/90/85
f 31/91/89 32/92/90 40/93/91
f 31/91/89 40/93/91 39/94/92
f 32/95/93 25/96/93 33/97/94
f 32/95/93 33/97/94 40/98/95
f 33/79/71 34/80/72 41/99/96
f 34/80/72 42/100/97 41/99/96
f 34/81/74 35/82/76 42/101/98
f 35/102/76 43/103/99 42/104/98
f 35/84/76 36/83/78 43/105/99
f 36/83/78 44/106/100 43/105/99
f 36/86/81 37/85/80 45/107/101
f 36/86/81 45/107/101 44/108/102
f 37/87/83 38/88/85 46/109/103
f 37/87/83 46/109/103 45/110/104
f 38/90/85 39/89/87 47/111/105
f 38/112/85 47/113/105 46/114/103
f 39/94/92 40/93/91 48/115/106
f 39/94/92 48/115/106 47/116/107
f 40/98/95 33/97/94 41/117/108
f 40/98/95 41/117/108 48/118/109
f 41/99/96 42/100/97 49/119/110
f 42/100/111 50/120/112 49/119/110
f 42/104/113 43/103/99 50/121/114
f 43/103/99 51/122/115 50/121/116
f 43/103/99 44/123/100 51/122/115
f 44/123/100 52/124/117 51/122/115
f 44/108/102 45/107/101 53/125/118
f 44/108/102 53/125/118 52/126/118
f 45/127/104 46/114/103 54/128/119
f 45/127/104 54/128/119 53/129/120
f 46/114/103 47/113/121 55/130/122
f 46/114/103 55/130/123 54/128/119
f 47/116/107 48/115/106 56/131/124
f 47/116/125 56/131/124 55/132/126
f 48/118/109 41/117/108 49/133/127
f 48/118/109 49/133/127 56/134/127
f 3/135/128 5/136/128 4/137/128
f 3/135/128 6/138/128 5/136/128
f 3/135/128 7/23/129 6/138/128
f 2/2/130 7/23/129 3/135/128
f 1/1/131 7/23/129 2/2/130
f 1/1/131 8/24/132 7/23/129
f 51/139/133 52/140/133 53/141/133
f 51/139/133 53/141/133 54/142/133
f 56/143/133 49/144/133 50/145/133
f 55/146/133 56/143/133 50/145/133
f 54/142/133 55/146/133 50/145/133
f 50/145/133 51/139/133 54/142/133
f 57/147/134 59/148/134 58/149/134
f 60/150/135 62/151/135 61/152/135
f 57/147/134 63/153/134 59/148/134
f 60/150/135 61/152/135 64/154/135
f 63/153/134 57/147/134 65/155/134
f 64/154/135 66/156/135 60/150/135
f 59/157/136 67/158/136 58/159/136
f 61/160/137 62/161/137 68/162/137
f 69/163/136 67/158/136 59/157/136
f 70/164/137 61/160/137 68/162/137
f 67/158/136 69/163/136 71/165/136
f 68/162/137 72/166/137 70/164/137
f 58/167/138 62/168/138 57/169/138
f 57/169/138 62/168/138 60/170/138
f 57/171/139 66/172/139 65/173/139
f 57/171/139 60/174/139 66/172/139
f 65/175/140 64/176/140 63/177/140
f 65/175/140 66/178/140 64/176/140
f 63/179/141 61/180/141 59/181/141
f 63/179/141 64/182/141 61/180/141
f 59/183/142 61/184/142 69/185/142
f 69/185/142 61/184/142 70/186/142
f 69/187/143 70/188/143 71/189/143
f 71/189/143 70/188/143 72/190/143
f 71/191/144 72/192/144 67/193/144
f 67/193/144 72/192/144 68/194/144
f 67/195/145 62/196/145 58/197/145
f 67/195/145 68/198/145 62/196/145
f 73/199/146 75/200/146 74/201/146
f 76/202/147 78/203/147 77/204/147
f 73/199/146 79/205/146 75/200/146
f 76/202/147 77/204/147 80/206/147
f 79/205/146 73/199/146 81/207/146
f 80/206/147 82/208/147 76/202/147
f 75/209/148 83/210/148 74/211/148
f 77/212/149 78/213/149 84/214/149
f 85/215/148 83/210/148 75/209/148
f 86/216/149 77/212/149 84/214/149
f 83/210/148 85/215/148 87/217/148
f 84/214/149 88/218/149 86/216/149
f 74/219/150 78/220/150 73/221/150
f 73/221/150 78/220/150 76/222/150
f 73/223/151 76/224/151 81/225/151
f 81/225/151 76/224/151 82/226/151
f 81/227/152 80/228/152 79/229/152
f 81/227/152 82/230/152 80/228/152
f 79/231/153 77/232/153 75/233/153
f 79/231/153 80/234/153 77/232/153
f 75/235/154 77/236/154 85/237/154
f 85/237/154 77/236/154 86/238/154
f 85/239/155 86/240/155 87/241/155
f 87/241/155 86/240/155 88/242/155
f 87/243/156 84/244/156 83/245/156
f 87/243/156 88/246/156 84/244/156
f 83/247/157 78/248/157 74/249/157
f 83/247/157 84/250/157 78/248/157
f 89/251/158 90/252/159 96/253/160
f 89/251/158 96/253/160 95/254/161
f 90/255/162 91/256/162 97/257/162
f 90/255/162 97/257/162 96/258/162
f 91/259/163 92/260/164 98/261/165
f 91/259/163 98/261/165 97/262/166
f 92/263/167 93/264/168 98/265/169
f 93/264/168 99/266/170 98/265/169
f 93/267/171 94/268/171 99/269/171
f 94/268/171 100/270/171 99/269/171
f 94/271/172 89/272/173 100/273/174
f 89/272/173 95/274/175 100/273/174
f 95/254/161 96/253/160 102/275/176
f 95/254/161 102/275/176 101/276/177
f 96/258/162 97/257/162 103/277/162
f 96/258/162 103/277/162 102/278/162
f 97/262/166 98/261/165 104/279/178
f 97/262/166 104/279/178 103/280/179
f 98/265/169 99/266/170 104/281/180
f 99/266/170 105/282/181 104/281/180
f 99/269/171 100/270/171 105/283/171
f 100/270/171 106/284/171 105/283/171
f 100/273/174 95/274/175 106/285/182
f 95/274/175 101/286/183 106/285/182
f 101/276/177 102/275/176 108/287/184
f 101/288/177 108/289/184 107/290/185
f 102/278/162 103/277/162 109/291/186
f 102/278/162 109/291/186 108/292/187
f 103/280/179 104/279/178 110/293/188
f 103/280/179 110/293/188 109/294/189
f 104/281/180 105/282/181 110/295/190
f 105/282/181 111/296/191 110/295/190
f 105/283/171 106/284/171 111/297/192
f 106/284/171 112/298/193 111/297/192
f 106/285/182 101/286/183 112/299/194
f 101/300/183 107/301/195 112/302/194
f 91/303/196 93/304/196 92/305/196
f 94/306/196 90/307/196 89/308/196
f 91/303/196 94/306/196 93/304/196
f 90/307/196 94/306/196 91/303/196
f 113/309/185 107/290/185 108/289/184
f 113/310/197 108/292/187 109/291/186
f 113/311/198 109/294/189 110/293/188
f 113/312/199 110/295/190 111/296/191
f 113/313/200 111/297/192 112/298/193
f 113/314/195 112/302/194 107/301/195
f 114/315/201 115/316/202 121/317/203
f 114/315/201 121/317/203 120/318/204
f 115/316/202 116/319/205 122/320/206
f 115/316/202 122/320/206 121/317/203
f 116/321/207 117/322/208 123/323/209
f 116/321/210 123/323/209 122/324/211
f 117/325/212 118/326/213 123/327/214
f 118/326/215 124/328/216 123/327/214
f 118/329/217 119/330/218 124/331/219
f 119/330/218 125/332/220 124/331/219
f 119/330/218 114/333/221 125/332/220
f 114/333/221 120/334/222 125/332/220
f 120/318/204 121/317/203 127/335/223
f 120/336/204 127/337/224 126/338/225
f 121/317/203 122/320/206 128/339/206
f 121/317/203 128/339/206 127/335/226
f 122/324/211 123/323/209 129/340/227
f 122/324/211 129/340/227 128/341/228
f 123/327/214 124/328/216 129/342/229
f 124/328/216 130/343/230 129/342/229
f 124/331/219 125/332/220 130/344/219
f 125/332/220 131/345/231 130/344/219
f 125/332/220 120/334/222 131/345/232
f 120/346/222 126/347/233 131/348/234
f 126/338/225 127/337/224 133/349/235
f 126/338/225 133/349/235 132/350/236
f 127/335/226 128/339/206 134/351/237
f 127/335/226 134/351/237 133/352/238
f 128/341/228 129/340/227 135/353/239
f 128/341/228 135/353/239 134/354/240
f 129/342/229 130/343/230 135/355/241
f 130/343/230 136/356/242 135/355/241
f 130/344/219 131/345/231 136/357/243
f 131/345/231 137/358/244 136/357/243
f 131/348/234 126/347/233 137/359/245
f 126/347/233 132/360/246 137/359/245
f 119/361/247 115/362/247 114/363/247
f 116/364/247 118/365/247 117/366/247
f 118/365/247 115/362/247 119/361/247
f 115/362/247 118/365/247 116/364/247
f 138/367/236 132/350/236 133/349/235
f 138/368/248 133/352/238 134/351/237
f 138/369/249 134/370/240 135/371/239
f 138/372/250 135/373/241 136/374/242
f 138/375/251 136/357/243 137/358/244
f 138/376/246 137/359/245 132/360/246
f 139/377/252 140/378/253 146/379/254
f 139/377/252 146/379/254 145/380/255
f 140/378/253 141/381/256 147/382/257
f 140/378/253 147/382/257 146/379/254
f 141/383/258 142/384/259 148/385/260
f 141/383/261 148/385/260 147/386/262
f 142/387/263 143/388/264 148/389/265
f 143/388/266 149/390/267 148/389/265
f 143/391/268 144/392/269 149/393/270
f 144/392/269 150/394/271 149/393/270
f 144/392/269 139/395/272 150/394/271
f 139/395/272 145/396/273 150/394/271
f 145/380/255 146/379/254 152/397/274
f 145/398/255 152/399/275 151/400/276
f 146/379/254 147/382/257 153/401/257
f 146/379/254 153/401/257 152/397/277
f 147/386/262 148/385/260 154/402/278
f 147/386/262 154/402/278 153/403/279
f 148/389/265 149/390/267 154/404/280
f 149/390/267 155/405/281 154/404/280
f 149/393/270 150/394/271 155/406/270
f 150/394/271 156/407/282 155/406/270
f 150/394/271 145/396/273 156/407/283
f 145/408/273 151/409/284 156/410/285
f 151/400/276 152/399/275 158/411/286
f 151/400/276 158/411/286 157/412/287
f 152/397/277 153/401/257 159/413/288
f 152/397/277 159/413/288 158/414/289
f 153/403/279 154/402/278 160/415/290
f 153/403/279 160/415/290 159/416/291
f 154/404/280 155/405/281 160/417/292
f 155/405/281 161/418/293 160/417/292
f 155/406/270 156/407/282 161/419/294
f 156/407/282 162/420/295 161/419/294
f 156/410/285 151/409/284 162/421/296
f 151/409/284 157/422/297 162/421/296
f 141/423/298 143/424/298 142/425/298
f 144/426/298 140/427/298 139/428/298
f 144/426/298 141/423/298 140/427/298
f 141/423/298 144/426/298 143/424/298
f 163/429/287 157/412/287 158/411/286
f 163/430/299 158/414/289 159/413/288
f 163/431/300 159/432/291 160/433/290
f 163/434/301 160/435/292 161/436/293
f 163/437/302 161/419/294 162/420/295
f 163/438/297 162/421/296 157/422/297
f 164/439/303 171/440/304 165/441/305
f 164/439/303 170/442/306 171/440/304
f 165/443/307 172/444/307 166/445/307
f 165/443/307 171/446/307 172/444/307
f 166/447/308 173/448/309 167/449/310
f 166/447/308 172/450/311 173/448/309
f 167/451/312 173/452/313 168/453/314
f 168/453/314 173/452/313 174/454/315
f 168/455/316 174/456/316 169/457/316
f 169/457/316 174/456/316 175/458/316
f 169/459/317 175/460/318 164/461/319
f 164/461/319 175/460/318 170/462/320
f 170/442/306 177/463/321 171/440/304
f 170/442/306 176/464/322 177/463/321
f 171/446/307 178/465/307 172/444/307
f 171/446/307 177/466/307 178/465/307
f 172/450/311 179/467/323 173/448/309
f 172/450/311 178/468/324 179/467/323
f 173/452/313 179/469/325 174/454/315
f 174/454/315 179/469/325 180/470/326
f 174/456/316 180/471/316 175/458/316
f 175/458/316 180/471/316 181/472/316
f 175/460/318 181/473/327 170/462/320
f 170/462/320 181/473/327 176/474/328
f 176/464/322 183/475/329 177/463/321
f 176/476/322 182/477/330 183/478/329
f 177/466/307 184/479/331 178/465/307
f 177/466/307 183/480/332 184/479/331
f 178/468/324 185/481/333 179/467/323
f 178/468/324 184/482/334 185/481/333
f 179/469/325 185/483/335 180/470/326
f 180/470/326 185/483/335 186/484/336
f 180/471/316 186/485/337 181/472/316
f 181/472/316 186/485/337 187/486/338
f 181/473/327 187/487/339 176/474/328
f 176/488/328 187/489/339 182/490/340
f 166/491/341 167/492/341 168/493/341
f 169/494/341 164/495/341 165/496/341
f 166/491/341 168/493/341 169/494/341
f 165/496/341 166/491/341 169/494/341
f 188/497/330 183/478/329 182/477/330
f 188/498/342 184/479/331 183/480/332
f 188/499/343 185/481/333 184/482/334
f 188/500/344 186/484/336 185/483/335
f 188/501/345 187/486/338 186/485/337
f 188/502/340 182/490/340 187/489/339
f 189/503/346 196/504/347 190/505/348
f 189/503/346 195/506/349 196/504/347
f 190/505/348 197/507/350 191/508/351
f 190/505/348 196/504/347 197/507/350
f 191/509/352 198/510/353 192/511/354
f 191/509/355 197/512/356 198/510/353
f 192/513/357 198/514/358 193/515/359
f 193/515/360 198/514/358 199/516/361
f 193/517/362 199/518/363 194/519/364
f 194/519/364 199/518/363 200/520/365
f 194/519/364 200/520/365 189/521/366
f 189/521/366 200/520/365 195/522/367
f 195/506/349 202/523/368 196/504/347
f 195/524/349 201/525/369 202/526/370
f 196/504/347 203/527/350 197/507/350
f 196/504/347 202/523/371 203/527/350
f 197/512/356 204/528/372 198/510/353
f 197/512/356 203/529/373 204/528/372
f 198/514/358 204/530/374 199/516/361
f 199/516/361 204/530/374 205/531/375
f 199/518/363 205/532/363 200/520/365
f 200/520/365 205/532/363 206/533/376
f 200/520/365 206/533/377 195/522/367
f 195/534/367 206/535/378 201/536/379
f 201/525/369 208/537/380 202/526/370
f 201/525/369 207/538/381 208/537/380
f 202/523/371 209/539/382 203/527/350
f 202/523/371 208/540/383 209/539/382
f 203/529/373 210/541/384 204/528/372
f 203/529/373 209/542/385 210/541/384
f 204/530/374 210/543/386 205/531/375
f 205/531/375 210/543/386 211/544/387
f 205/532/363 211/545/388 206/533/376
f 206/533/376 211/545/388 212/546/389
f 206/535/378 212/547/390 201/536/379
f 201/536/379 212/547/390 207/548/391
f 194/549/392 189/550/392 190/551/392
f 191/552/392 192/553/392 193/554/392
f 193/554/392 194/549/392 190/551/392
f 190/551/392 191/552/392 193/554/392
f 213/555/381 208/537/380 207/538/381
f 213/556/393 209/539/382 208/540/383
f 213/557/394 210/558/384 209/559/385
f 213/560/395 211/561/387 210/562/386
f 213/563/396 212/546/389 211/545/388
f 213/564/391 207/548/391 212/547/390
f 214/565/397 221/566/398 215/567/399
f 214/565/397 220/568/400 221/566/398
f 215/567/399 222/569/401 216/570/402
f 215/567/399 221/566/398 222/569/401
f 216/571/403 223/572/404 217/573/405
f 216/571/406 222/574/407 223/572/404
f 217/575/408 223/576/409 218/577/410
f 218/577/411 223/576/409 224/578/412
f 218/579/413 224/580/414 219/581/415
f 219/581/415 224/580/414 225/582/416
f 219/581/415 225/582/416 214/583/417
f 214/583/417 225/582/416 220/584/418
f 220/568/400 227/585/419 221/566/398
f 220/586/400 226/587/420 227/588/421
f 221/566/398 228/589/401 222/569/401
f 221/566/398 227/585/422 228/589/401
f 222/574/407 229/590/423 223/572/404
f 222/574/407 228/591/424 229/590/423
f 223/576/409 229/592/425 224/578/412
f 224/578/412 229/592/425 230/593/426
f 224/580/414 230/594/414 225/582/416
f 225/582/416 230/594/414 231/595/427
f 225/582/416 231/595/428 220/584/418
f 220/596/418 231/597/429 226/598/430
f 226/587/420 233/599/431 227/588/421
f 226/587/420 232/600/432 233/599/431
f 227/585/422 234/601/433 228/589/401
f 227/585/422 233/602/434 234/601/433
f 228/591/424 235/603/435 229/590/423
f 228/591/424 234/604/436 235/603/435
f 229/592/425 235/605/437 230/593/426
f 230/593/426 235/605/437 236/606/438
f 230/594/414 236/607/439 231/595/427
f 231/595/427 236/607/439 237/608/440
f 231/597/429 237/609/441 226/598/430
f 226/598/430 237/609/441 232/610/442
f 216/611/443 217/612/443 218/613/443
f 219/614/443 214/615/443 215/616/443
f 219/614/443 215/616/443 216/611/443
f 216/611/443 218/613/443 219/614/443
f 238/617/432 233/599/431 232/600/432
f 238/618/444 234/601/433 233/602/434
f 238/619/445 235/620/435 234/621/436
f 238/622/446 236/623/438 235/624/437
f 238/625/447 237/608/440 236/607/439
f 238/626/442 232/610/442 237/609/441
f 239/627/448 240/628/449 245/629/450
f 240/628/449 246/630/451 245/629/450
f 240/631/452 241/632/452 246/633/452
f 241/632/452 247/634/452 246/633/452
f 241/635/453 242/636/454 247/637/455
f 242/636/454 248/638/456 247/637/455
f 242/639/457 243/640/458 249/641/459
f 242/639/457 249/641/459 248/642/460
f 243/643/461 244/644/461 250/645/461
f 243/643/461 250/645/461 249/646/461
f 244/647/462 239/648/463 245/649/464
f 244/647/462 245/649/464 250/650/465
f 245/629/450 246/630/451 251/651/466
f 246/652/451 252/653/467 251/654/468
f 246/633/452 247/634/452 252/655/469
f 247/634/452 253/656/470 252/655/469
f 247/637/455 248/638/456 253/657/471
f 248/658/472 254/659/473 253/660/471
f 248/642/460 249/641/459 255/661/474
f 248/658/475 255/662/474 254/659/473
f 249/646/461 250/645/461 256/663/476
f 249/646/461 256/663/476 255/664/477
f 250/650/465 245/649/464 251/665/478
f 250/666/465 251/654/479 256/667/480
f 244/668/481 240/669/481 239/670/481
f 241/671/481 243/672/481 242/673/481
f 244/668/481 241/671/481 240/669/481
f 241/671/481 244/668/481 243/672/481
f 257/674/482 251/654/468 252/653/467
f 257/675/483 252/655/469 253/656/470
f 257/676/473 253/660/471 254/659/473
f 257/676/473 254/659/473 255/662/474
f 257/677/484 255/664/477 256/663/476
f 257/674/482 256/667/480 251/654/479
f 258/678/485 264/679/486 259/680/487
f 259/680/487 264/679/486 265/681/488
f 259/682/489 265/683/489 260/684/489
f 260/684/489 265/683/489 266/685/489
f 260/686/490 266/687/491 261/688/492
f 261/688/492 266/687/491 267/689/493
f 261/690/494 268/691/495 262/692/496
f 261/690/494 267/693/497 268/691/495
f 262/694/498 269/695/498 263/696/498
f 262/694/498 268/697/498 269/695/498
f 263/698/499 264/699/500 258/700/501
f 263/698/499 269/701/502 264/699/500
f 264/679/486 270/702/503 265/681/488
f 265/703/488 270/704/504 271/705/505
f 265/683/489 271/706/506 266/685/489
f 266/685/489 271/706/506 272/707/507
f 266/687/491 272/708/508 267/689/493
f 267/709/509 272/710/508 273/711/510
f 267/693/497 274/712/511 268/691/495
f 267/709/512 273/711/510 274/713/511
f 268/697/498 275/714/513 269/695/498
f 268/697/498 274/715/514 275/714/513
f 269/701/502 270/716/515 264/699/500
f 269/717/502 275/718/516 270/704/517
f 263/719/518 258/720/518 259/721/518
f 260/722/518 261/723/518 262/724/518
f 263/719/518 259/721/518 260/722/518
f 260/722/518 262/724/518 263/719/518
f 276/725/519 271/705/505 270/704/504
f 276/726/520 272/707/507 271/706/506
f 276/727/510 273/711/510 272/710/508
f 276/727/510 274/713/511 273/711/510
f 276/728/521 275/714/513 274/715/514
f 276/725/519 270/704/517 275/718/516
