# mech2 head - Gold (studs, origin = neck base, -Z forward)
# colour RGB (212, 169, 58)
# generated by source/build.py
o Head_Gold
v -0.89760 1.32192 -0.25296
v -0.65280 1.20620 -0.72416
v -0.65280 1.88496 -0.25296
v -0.89760 1.32192 -0.20400
v -0.65280 1.88496 -0.20400
v -0.65280 1.20620 -0.20400
v -0.88944 1.56672 -0.25296
v -0.88944 1.56672 -0.20400
v -0.70584 1.88496 -0.25296
v -0.75072 1.79520 -0.25296
v -0.75072 1.79520 -0.20400
v -0.70584 1.88496 -0.20400
v -0.83232 1.68096 -0.25296
v -0.83232 1.68096 -0.20400
v -0.44880 1.10976 -1.10986
v 0.00000 0.91392 -1.94491
v 0.00000 1.88496 -1.14240
v -0.44880 1.10976 -0.20400
v 0.00000 1.88496 -0.20400
v 0.00000 0.91392 -0.20400
v -0.65280 2.01902 -0.25296
v -0.67728 1.94208 -0.25296
v -0.67728 1.94208 -0.20400
v -0.65280 2.01902 -0.20400
v 0.00000 2.43168 -0.25296
v -0.28560 2.35824 -0.25296
v -0.28560 2.35824 -0.20400
v 0.00000 2.43168 -0.20400
v -0.50592 2.25216 -0.25296
v -0.50592 2.25216 -0.20400
v -0.62016 2.12160 -0.25296
v -0.62016 2.12160 -0.20400
v 0.44880 1.10976 -1.10986
v 0.44880 1.10976 -0.20400
v 0.65280 1.88496 -0.25296
v 0.65280 1.88496 -0.20400
v 0.65280 1.20620 -0.72416
v 0.65280 1.20620 -0.20400
v 0.89760 1.32192 -0.25296
v 0.89760 1.32192 -0.20400
v 0.88944 1.56672 -0.25296
v 0.88944 1.56672 -0.20400
v 0.75072 1.79520 -0.25296
v 0.70584 1.88496 -0.25296
v 0.75072 1.79520 -0.20400
v 0.70584 1.88496 -0.20400
v 0.83232 1.68096 -0.25296
v 0.83232 1.68096 -0.20400
v 0.28560 2.35824 -0.25296
v 0.28560 2.35824 -0.20400
v 0.50592 2.25216 -0.25296
v 0.50592 2.25216 -0.20400
v 0.62016 2.12160 -0.25296
v 0.62016 2.12160 -0.20400
v 0.65280 2.01902 -0.25296
v 0.65280 2.01902 -0.20400
v 0.67728 1.94208 -0.25296
v 0.67728 1.94208 -0.20400
v -1.22400 1.46880 0.14688
v -1.22400 1.14240 0.17952
v -1.22400 0.79968 0.13056
v -0.97920 0.88128 0.21216
v -0.97920 1.48512 0.22848
v -0.85680 1.26480 -0.75072
v -0.85680 0.96288 -0.57120
v -0.85680 0.65280 -0.34272
v -0.65280 0.73440 -0.08160
v -0.65280 1.28112 -0.48960
v 0.00000 0.93024 -2.05632
v 0.00000 0.58752 -1.71360
v 0.00000 0.22848 -1.32192
v 0.00000 0.34272 -0.91392
v 0.00000 0.96288 -1.64832
v 0.85680 1.26480 -0.75072
v 0.85680 0.96288 -0.57120
v 0.85680 0.65280 -0.34272
v 0.65280 0.73440 -0.08160
v 0.65280 1.28112 -0.48960
v 1.22400 1.46880 0.14688
v 1.22400 1.14240 0.17952
v 1.22400 0.79968 0.13056
v 0.97920 0.88128 0.21216
v 0.97920 1.48512 0.22848
vt 0.13069 -0.17646
vt 0.13912 -0.32908
vt -0.00504 -0.18155
vt -0.22440 -0.33048
vt -0.16320 -0.30155
vt -0.16320 -0.47124
vt 0.22236 -0.39168
vt 0.16320 -0.47124
vt 0.22440 -0.33048
vt -0.22236 -0.39168
vt 0.18768 -0.44880
vt 0.17646 -0.47124
vt -0.17646 -0.47124
vt -0.18768 -0.44880
vt 0.20808 -0.42024
vt -0.20808 -0.42024
vt -0.11667 -0.18578
vt -0.12457 -0.40971
vt -0.35831 -0.19865
vt -0.11220 -0.27744
vt 0.00000 -0.22848
vt 0.00000 -0.47124
vt 0.16932 -0.48552
vt 0.16320 -0.50475
vt -0.16320 -0.50475
vt -0.16932 -0.48552
vt 0.00000 0.00346
vt 0.07140 0.25485
vt 0.00000 0.26447
vt 0.00000 -0.60792
vt -0.07140 -0.58956
vt 0.12810 -0.47731
vt 0.12648 -0.56304
vt 0.07140 -0.58956
vt -0.12648 -0.56304
vt 0.15504 -0.53040
vt -0.15504 -0.53040
vt 0.12457 -0.40971
vt 0.11667 -0.18578
vt 0.35831 -0.19865
vt 0.11220 -0.27744
vt -0.13912 -0.32908
vt 0.00504 -0.18155
vt 0.16320 -0.30155
vt -0.13069 -0.17646
vt -0.07140 0.25485
vt -0.12810 -0.47731
vt 0.27188 0.18104
vt 0.27188 0.05100
vt 0.33956 0.06324
vt 0.33956 0.05100
vt -0.06324 -0.28501
vt -0.05100 -0.34559
vt -0.06324 -0.34559
vt -0.05100 -0.28501
vt -0.05100 -0.37624
vt -0.06324 -0.37624
vt -0.06324 -0.28837
vt -0.05100 -0.32295
vt -0.06324 -0.32295
vt -0.05100 -0.28837
vt -0.05100 -0.34804
vt -0.06324 -0.34804
vt 0.09307 0.48623
vt 0.09307 0.05100
vt 0.21548 0.27747
vt 0.21548 0.05100
vt -0.05100 -0.36400
vt -0.06324 -0.36400
vt -0.05100 -0.38399
vt -0.06324 -0.38399
vt -0.05100 -0.41063
vt -0.06324 -0.41063
vt -0.17971 -0.06324
vt -0.22188 -0.05100
vt -0.22188 -0.06324
vt -0.17971 -0.05100
vt -0.28216 -0.05100
vt -0.28216 -0.06324
vt 0.14908 -0.06324
vt 0.08075 -0.05100
vt 0.08075 -0.06324
vt 0.14908 -0.05100
vt -0.27188 0.18104
vt -0.21548 0.05100
vt -0.21548 0.27747
vt -0.27188 0.05100
vt -0.09307 0.05100
vt -0.09307 0.48623
vt 0.06324 -0.32160
vt 0.05100 -0.29655
vt 0.06324 -0.29655
vt 0.05100 -0.32160
vt 0.05100 -0.26163
vt 0.06324 -0.26163
vt 0.06324 -0.37624
vt 0.05100 -0.34559
vt 0.06324 -0.34559
vt 0.05100 -0.37624
vt 0.05100 -0.28501
vt 0.06324 -0.28501
vt -0.33956 0.06324
vt -0.33956 0.05100
vt 0.00755 -0.05100
vt 0.00755 -0.06324
vt -0.05057 -0.05100
vt -0.05057 -0.06324
vt 0.06324 -0.42610
vt 0.05100 -0.38359
vt 0.06324 -0.38359
vt 0.05100 -0.42610
vt 0.05100 -0.35728
vt 0.06324 -0.35728
vt 0.05100 -0.33754
vt 0.06324 -0.33754
vt 0.09596 -0.45615
vt -0.08130 -0.30422
vt 0.11702 -0.38072
vt -0.13428 -0.37399
vt 0.24640 -0.24844
vt 0.07868 -0.13744
vt 0.23068 -0.16334
vt -0.01699 -0.23256
vt 0.30600 -0.09850
vt 0.21420 0.02526
vt 0.24480 -0.12461
vt 0.16320 -0.04307
vt -0.11118 -0.29470
vt 0.09563 -0.35781
vt -0.09104 -0.43516
vt -0.01800 -0.23064
vt 0.24480 0.11741
vt 0.16320 -0.06805
vt 0.30600 0.09662
vt 0.21420 -0.13311
vt -0.40917 -0.13578
vt -0.50048 -0.21498
vt -0.30619 -0.05280
vt 0.00000 0.18588
vt 0.00000 0.29153
vt 0.21973 -0.07972
vt 0.40991 -0.22397
vt 0.00000 -0.36687
vt 0.00000 -0.46883
vt 0.50048 -0.21498
vt 0.13428 -0.37399
vt 0.40917 -0.13578
vt 0.08130 -0.30422
vt 0.30619 -0.05280
vt 0.01699 -0.23256
vt -0.21420 0.02526
vt -0.16320 -0.04307
vt -0.21973 -0.07972
vt -0.09563 -0.35781
vt -0.40991 -0.22397
vt 0.01800 -0.23064
vt -0.21420 -0.13311
vt -0.16320 -0.06805
vt -0.09596 -0.45615
vt -0.11702 -0.38072
vt -0.07868 -0.13744
vt -0.24640 -0.24844
vt -0.23068 -0.16334
vt -0.24480 -0.12461
vt -0.30600 -0.09850
vt 0.11118 -0.29470
vt 0.09104 -0.43516
vt -0.30600 0.09662
vt -0.24480 0.11741
vt -0.28869 -0.28666
vt -0.29104 -0.20069
vt -0.22689 -0.22161
vt -0.22684 -0.37262
vt -0.29109 -0.36802
vt 0.28869 -0.28666
vt 0.22689 -0.22161
vt 0.29104 -0.20069
vt 0.22684 -0.37262
vt 0.29109 -0.36802
vn -0.7952 0.3458 -0.4981
vn -0.7401 0.4258 -0.5205
vn -0.7924 0.3479 -0.5011
vn 0.0000 0.0000 1.0000
vn 0.0000 0.0000 -1.0000
vn -0.7525 0.4025 -0.5213
vn -0.7319 0.4417 -0.5189
vn -0.7564 0.4167 -0.5042
vn 0.0000 0.8519 -0.5237
vn -0.2140 0.8322 -0.5115
vn -0.6835 0.5303 -0.5016
vn 0.7319 0.4417 -0.5189
vn 0.7525 0.4025 -0.5213
vn 0.7564 0.4167 -0.5042
vn 0.7401 0.4258 -0.5205
vn 0.7924 0.3479 -0.5011
vn 0.7952 0.3458 -0.4981
vn 0.2140 0.8322 -0.5115
vn 0.6835 0.5303 -0.5016
vn -0.4274 -0.9041 0.0000
vn -0.9994 0.0333 0.0000
vn -0.9927 0.1207 0.0000
vn -0.9681 0.2504 0.0000
vn -0.8682 0.4961 0.0000
vn -0.8412 0.5408 0.0000
vn -0.8370 0.5472 0.0000
vn -0.8638 0.5039 0.0000
vn -0.8944 0.4472 0.0000
vn -0.3999 -0.9165 0.0000
vn -0.4037 -0.9149 0.0000
vn -0.4115 -0.9114 0.0000
vn -0.9197 0.3926 0.0000
vn -0.9387 0.3449 0.0000
vn -0.9529 0.3032 0.0000
vn -0.8818 0.4715 0.0000
vn -0.8123 0.5832 0.0000
vn -0.6332 0.7740 0.0000
vn -0.5255 0.8508 0.0000
vn -0.3660 0.9306 0.0000
vn -0.3044 0.9525 0.0000
vn -0.0854 0.9963 0.0000
vn 0.0854 0.9963 0.0000
vn 0.4274 -0.9041 0.0000
vn 0.4115 -0.9114 0.0000
vn 0.4037 -0.9149 0.0000
vn 0.3999 -0.9165 0.0000
vn 0.8944 0.4472 0.0000
vn 0.8638 0.5039 0.0000
vn 0.8370 0.5472 0.0000
vn 0.8412 0.5408 0.0000
vn 0.8682 0.4961 0.0000
vn 0.9681 0.2504 0.0000
vn 0.9927 0.1207 0.0000
vn 0.9994 0.0333 0.0000
vn 0.3044 0.9525 0.0000
vn 0.3660 0.9306 0.0000
vn 0.5255 0.8508 0.0000
vn 0.6332 0.7740 0.0000
vn 0.8123 0.5832 0.0000
vn 0.8818 0.4715 0.0000
vn 0.9529 0.3032 0.0000
vn 0.9387 0.3449 0.0000
vn 0.9197 0.3926 0.0000
vn -0.9167 -0.1279 -0.3787
vn -0.8353 -0.3212 -0.4462
vn -0.8794 -0.1008 -0.4652
vn -0.8368 -0.3351 -0.4329
vn -0.8245 -0.2602 -0.5024
vn -0.7732 0.0897 -0.6278
vn 0.1642 -0.8989 0.4063
vn -0.0797 -0.9377 0.3380
vn 0.0388 -0.9209 0.3878
vn -0.0931 -0.9273 0.3625
vn 0.8539 0.1677 0.4927
vn 0.8398 0.3308 0.4306
vn 0.9091 -0.0113 0.4164
vn 0.7810 0.3735 0.5005
vn 0.0235 0.9644 -0.2633
vn 0.1181 0.9736 -0.1956
vn 0.0881 0.9741 -0.2082
vn 0.1847 0.9725 -0.1420
vn -0.7964 -0.4072 -0.4472
vn -0.8043 -0.4202 -0.4202
vn -0.7747 -0.4298 -0.4637
vn -0.0000 -0.9482 0.3176
vn -0.0000 -0.9630 0.2696
vn 0.8268 0.3935 0.4019
vn 0.8350 0.4204 0.3550
vn 0.0000 0.9908 -0.1356
vn 0.0000 0.9968 -0.0797
vn 0.8043 -0.4202 -0.4202
vn 0.8368 -0.3351 -0.4329
vn 0.7964 -0.4072 -0.4472
vn 0.8353 -0.3212 -0.4462
vn 0.7747 -0.4298 -0.4637
vn 0.8245 -0.2602 -0.5024
vn 0.0797 -0.9377 0.3380
vn 0.0931 -0.9273 0.3625
vn -0.8268 0.3935 0.4019
vn -0.8398 0.3308 0.4306
vn -0.8350 0.4204 0.3550
vn -0.7810 0.3735 0.5005
vn -0.1847 0.9725 -0.1420
vn -0.1181 0.9736 -0.1956
vn 0.9167 -0.1279 -0.3787
vn 0.8794 -0.1008 -0.4652
vn 0.7732 0.0897 -0.6278
vn -0.0388 -0.9209 0.3878
vn -0.1642 -0.8989 0.4063
vn -0.8539 0.1677 0.4927
vn -0.9091 -0.0113 0.4164
vn -0.0881 0.9741 -0.2082
vn -0.0235 0.9644 -0.2633
vn -0.2342 -0.0249 0.9719
vn -0.2722 -0.1361 0.9526
vn -0.2021 -0.0674 0.9770
vn -0.2191 0.0171 0.9756
vn -0.3205 0.0943 0.9426
vn 0.2342 -0.0249 0.9719
vn 0.2021 -0.0674 0.9770
vn 0.2722 -0.1361 0.9526
vn 0.2191 0.0171 0.9756
vn 0.3205 0.0943 0.9426
s off
f 1/1/1 3/2/2 2/3/3
f 4/4/4 6/5/4 5/6/4
f 7/7/5 3/8/5 1/9/5
f 8/10/4 4/4/4 5/6/4
f 3/8/5 10/11/5 9/12/5
f 5/6/4 12/13/4 11/14/4
f 7/7/5 10/11/5 3/8/5
f 8/10/4 5/6/4 11/14/4
f 10/11/5 7/7/5 13/15/5
f 11/14/4 14/16/4 8/10/4
f 15/17/6 17/18/7 16/19/8
f 18/20/4 20/21/4 19/22/4
f 15/17/6 3/2/2 17/18/7
f 18/20/4 19/22/4 5/6/4
f 3/2/2 15/17/6 2/3/3
f 5/6/4 6/5/4 18/20/4
f 3/8/5 22/23/5 21/24/5
f 5/6/4 24/25/4 23/26/4
f 22/23/5 3/8/5 9/12/5
f 23/26/4 12/13/4 5/6/4
f 17/27/9 26/28/10 25/29/9
f 19/22/4 28/30/4 27/31/4
f 3/2/2 26/32/11 17/18/7
f 5/6/4 19/22/4 27/31/4
f 3/8/5 29/33/5 26/34/5
f 5/6/4 27/31/4 30/35/4
f 3/8/5 31/36/5 29/33/5
f 5/6/4 30/35/4 32/37/4
f 31/36/5 3/8/5 21/24/5
f 32/37/4 24/25/4 5/6/4
f 17/38/12 33/39/13 16/40/14
f 19/22/4 20/21/4 34/41/4
f 35/42/15 33/39/13 17/38/12
f 36/8/4 19/22/4 34/41/4
f 35/42/15 37/43/16 33/39/13
f 36/8/4 34/41/4 38/44/4
f 35/42/15 39/45/17 37/43/16
f 36/8/4 38/44/4 40/9/4
f 35/6/5 41/10/5 39/4/5
f 36/8/4 40/9/4 42/7/4
f 43/14/5 35/6/5 44/13/5
f 45/11/4 46/12/4 36/8/4
f 43/14/5 41/10/5 35/6/5
f 45/11/4 36/8/4 42/7/4
f 41/10/5 43/14/5 47/16/5
f 42/7/4 48/15/4 45/11/4
f 49/46/18 17/27/9 25/29/9
f 50/34/4 28/30/4 19/22/4
f 49/47/19 35/42/15 17/38/12
f 50/34/4 19/22/4 36/8/4
f 51/35/5 35/6/5 49/31/5
f 52/33/4 50/34/4 36/8/4
f 53/37/5 35/6/5 51/35/5
f 54/36/4 52/33/4 36/8/4
f 35/6/5 53/37/5 55/25/5
f 36/8/4 56/24/4 54/36/4
f 57/26/5 35/6/5 55/25/5
f 58/23/4 56/24/4 36/8/4
f 35/6/5 57/26/5 44/13/5
f 36/8/4 46/12/4 58/23/4
f 2/48/20 6/49/20 1/50/20
f 1/50/20 6/49/20 4/51/20
f 1/52/21 8/53/22 7/54/23
f 1/52/21 4/55/21 8/53/22
f 7/54/23 14/56/24 13/57/25
f 7/54/23 8/53/22 14/56/24
f 13/58/25 11/59/26 10/60/27
f 13/58/25 14/61/24 11/59/26
f 10/60/27 12/62/28 9/63/28
f 10/60/27 11/59/26 12/62/28
f 16/64/29 20/65/29 15/66/30
f 15/66/30 20/65/29 18/67/31
f 15/66/30 18/67/31 2/48/20
f 2/48/20 18/67/31 6/49/20
f 9/63/28 23/68/32 22/69/33
f 9/63/28 12/62/28 23/68/32
f 22/69/33 24/70/34 21/71/34
f 22/69/33 23/68/32 24/70/34
f 21/71/34 32/72/35 31/73/36
f 21/71/34 24/70/34 32/72/35
f 31/74/36 30/75/37 29/76/38
f 31/74/36 32/77/35 30/75/37
f 29/76/38 27/78/39 26/79/40
f 29/76/38 30/75/37 27/78/39
f 26/80/40 28/81/41 25/82/42
f 26/80/40 27/83/39 28/81/41
f 37/84/43 34/85/44 33/86/45
f 37/84/43 38/87/43 34/85/44
f 33/86/45 20/88/46 16/89/46
f 33/86/45 34/85/44 20/88/46
f 44/90/47 45/91/48 43/92/49
f 44/90/47 46/93/47 45/91/48
f 43/92/49 48/94/50 47/95/51
f 43/92/49 45/91/48 48/94/50
f 47/96/51 42/97/52 41/98/53
f 47/96/51 48/99/50 42/97/52
f 41/98/53 40/100/54 39/101/54
f 41/98/53 42/97/52 40/100/54
f 39/102/43 38/87/43 37/84/43
f 39/102/43 40/103/43 38/87/43
f 25/82/42 50/104/55 49/105/56
f 25/82/42 28/81/41 50/104/55
f 49/105/56 52/106/57 51/107/58
f 49/105/56 50/104/55 52/106/57
f 51/108/58 54/109/59 53/110/60
f 51/108/58 52/111/57 54/109/59
f 53/110/60 56/112/61 55/113/61
f 53/110/60 54/109/59 56/112/61
f 55/113/61 58/114/62 57/115/63
f 55/113/61 56/112/61 58/114/62
f 57/115/63 46/93/47 44/90/47
f 57/115/63 58/114/62 46/93/47
f 59/116/64 65/117/65 60/118/66
f 59/116/64 64/119/67 65/117/65
f 60/120/66 66/121/68 61/122/69
f 60/118/66 65/117/65 66/123/68
f 61/124/70 66/125/71 62/126/72
f 62/126/72 66/125/71 67/127/73
f 62/128/74 68/129/75 63/130/76
f 62/128/74 67/131/77 68/129/75
f 63/132/78 68/133/79 59/134/80
f 59/134/80 68/133/79 64/135/81
f 64/119/67 70/136/82 65/117/65
f 64/119/67 69/137/83 70/136/82
f 65/117/65 71/138/84 66/123/68
f 65/117/65 70/136/82 71/138/84
f 66/125/71 72/139/85 67/127/73
f 66/125/71 71/140/86 72/139/85
f 67/131/77 72/141/87 68/129/75
f 68/129/75 72/141/87 73/142/88
f 68/133/79 73/143/89 64/135/81
f 64/135/81 73/143/89 69/144/90
f 69/145/91 74/146/92 70/147/93
f 70/147/93 74/146/92 75/148/94
f 70/147/93 75/148/94 71/149/95
f 71/149/95 75/148/94 76/150/96
f 71/140/86 76/151/97 72/139/85
f 72/139/85 76/151/97 77/152/98
f 72/153/99 78/154/100 73/155/101
f 72/153/99 77/156/102 78/154/100
f 73/143/89 74/157/103 69/144/90
f 73/143/89 78/158/104 74/157/103
f 74/146/92 79/159/105 75/148/94
f 75/148/94 79/159/105 80/160/106
f 75/148/94 80/160/106 76/150/96
f 76/161/96 80/162/106 81/163/107
f 76/151/97 82/164/108 77/152/98
f 76/151/97 81/165/109 82/164/108
f 77/156/102 82/166/110 78/154/100
f 78/154/100 82/166/110 83/167/111
f 78/158/104 79/168/112 74/157/103
f 78/158/104 83/169/113 79/168/112
f 60/170/114 61/171/115 62/172/116
f 60/170/114 62/172/116 63/173/117
f 59/174/118 60/170/114 63/173/117
f 80/175/119 82/176/120 81/177/121
f 80/175/119 83/178/122 82/176/120
f 79/179/123 83/178/122 80/175/119
